<?xml version="1.0" encoding="UTF-8"?>
<svg width="24px" height="24px" viewBox="0 0 24 24" version="1.1" xmlns="http://www.w3.org/2000/svg" xmlns:xlink="http://www.w3.org/1999/xlink">
    <title>icon / Other / Component_Placeholder - box</title>
    <defs>
        <linearGradient x1="50%" y1="0%" x2="50%" y2="100%" id="linearGradient-1">
            <stop stop-color="#ADADAD" stop-opacity="0" offset="0%"></stop>
            <stop stop-color="#9D9D9D" offset="100%"></stop>
        </linearGradient>
        <path d="M20.924815,0 C23.1021676,0 23.9566542,1.77846722 23.9566542,3.01865122 C23.9566542,4.25883521 23.9566542,18.7815894 23.9566542,20.6420628 C23.9566542,22.3929727 22.7281352,23.9566542 20.924815,23.9566542 C19.1214948,23.9566542 4.64929841,23.9566542 2.80929064,23.9566542 C1.38661643,23.9566542 0,22.5147712 0,21.1586662 C0,19.8025612 0,4.03532882 0,2.67255351 C0,1.3097782 1.36539793,0 2.60955829,0 C3.85371865,0 18.9601214,0 20.924815,0 Z" id="path-2"></path>
    </defs>
    <g id="icon-/-Other-/-Component_Placeholder---box" stroke="none" stroke-width="1" fill="none" fill-rule="evenodd">
        <g id="icon/general/color/-box-template" transform="translate(0.000000, 0.086473)">
            <mask id="mask-3" fill="white">
                <use xlink:href="#path-2"></use>
            </mask>
            <use id="Path-3" fill="url(#linearGradient-1)" xlink:href="#path-2"></use>
            <g id="Group" mask="url(#mask-3)" fill="#CCCCCC">
                <g id="icon/color/AI" style="mix-blend-mode: multiply;">
                    <rect id="Rectangle-2" x="0" y="0" width="24" height="24"></rect>
                </g>
            </g>
        </g>
        <path d="M6.88567588,11.4392131 L2.6789578,13.8679629 L2.6789578,18.7254625 L6.88567588,21.1542124 L11.092394,18.7254625 L11.092394,13.8679629 L6.88567588,11.4392131 Z M12.1907173,13.2338456 L12.1907173,19.3595798 L6.88567588,22.422447 L1.58063441,19.3595798 L1.58063441,13.2338456 L6.88567588,10.1709785 L12.1907173,13.2338456 Z M16.8621133,11.2561592 L12.5761306,13.7306725 L12.5761306,18.6796991 L16.8621133,21.1542124 L21.1480961,18.6796991 L21.1480961,13.7306725 L16.8621133,11.2561592 Z M22.2464194,13.0965552 L22.2464194,19.3138164 L16.8621133,22.422447 L11.4778072,19.3138164 L11.4778072,13.0965552 L16.8621133,9.98792459 L22.2464194,13.0965552 Z M11.7828422,3.01873379 L7.61534548,5.42483916 L7.61534548,10.2370499 L11.7828422,12.6431553 L15.950339,10.2370499 L15.950339,5.42483916 L11.7828422,3.01873379 Z M17.0486624,4.79072186 L17.0486624,10.8711672 L11.7828422,13.9113899 L6.51702209,10.8711672 L6.51702209,4.79072186 L11.7828422,1.75049918 L17.0486624,4.79072186 Z M11.2343588,13.8152765 L11.507349,14.2917792 L6.98034199,16.8853189 L2.14795994,14.2955445 L2.40736355,13.8115111 L6.97146167,16.2575066 L11.2343588,13.8152765 Z M6.69245108,16.5547281 L7.24161277,16.5547281 L7.24161277,21.4693642 L6.69245108,21.4693642 L6.69245108,16.5547281 Z M21.2855492,13.6863631 L21.5585394,14.1628658 L16.9582832,16.7983703 L12.0475971,14.1666312 L12.3070007,13.6825978 L16.9494029,16.1705579 L21.2855492,13.6863631 Z M16.6702444,16.4675015 L17.2194061,16.4675015 L17.2194061,21.4640481 L16.6702444,21.4640481 L16.6702444,16.4675015 Z M16.0945363,5.36800761 L16.3675265,5.84451037 L11.8767643,8.41728531 L7.08312819,5.84827569 L7.34253179,5.36424229 L11.8678839,7.78947295 L16.0945363,5.36800761 Z M11.5889465,8.08683212 L12.1381082,8.08683212 L12.1381082,12.9609376 L11.5889465,12.9609376 L11.5889465,8.08683212 Z" id="Combined-Shape" fill="#FFFFFF" fill-rule="nonzero"></path>
    </g>
</svg>