<?xml version="1.0" encoding="UTF-8"?>
<svg width="24px" height="24px" viewBox="0 0 24 24" version="1.1" xmlns="http://www.w3.org/2000/svg" xmlns:xlink="http://www.w3.org/1999/xlink">
    <title>icon / Other / Component_Placeholder </title>
    <defs>
        <path d="M6.88567588,11.4392131 L2.6789578,13.8679629 L2.6789578,18.7254625 L6.88567588,21.1542124 L11.092394,18.7254625 L11.092394,13.8679629 L6.88567588,11.4392131 Z M12.1907173,13.2338456 L12.1907173,19.3595798 L6.88567588,22.422447 L1.58063441,19.3595798 L1.58063441,13.2338456 L6.88567588,10.1709785 L12.1907173,13.2338456 Z M16.8621133,11.2561592 L12.5761306,13.7306725 L12.5761306,18.6796991 L16.8621133,21.1542124 L21.1480961,18.6796991 L21.1480961,13.7306725 L16.8621133,11.2561592 Z M22.2464194,13.0965552 L22.2464194,19.3138164 L16.8621133,22.422447 L11.4778072,19.3138164 L11.4778072,13.0965552 L16.8621133,9.98792459 L22.2464194,13.0965552 Z M11.7828422,3.01873379 L7.61534548,5.42483916 L7.61534548,10.2370499 L11.7828422,12.6431553 L15.950339,10.2370499 L15.950339,5.42483916 L11.7828422,3.01873379 Z M17.0486624,4.79072186 L17.0486624,10.8711672 L11.7828422,13.9113899 L6.51702209,10.8711672 L6.51702209,4.79072186 L11.7828422,1.75049918 L17.0486624,4.79072186 Z M11.2343588,13.8152765 L11.507349,14.2917792 L6.98034199,16.8853189 L2.14795994,14.2955445 L2.40736355,13.8115111 L6.97146167,16.2575066 L11.2343588,13.8152765 Z M6.69245108,16.5547281 L7.24161277,16.5547281 L7.24161277,21.4693642 L6.69245108,21.4693642 L6.69245108,16.5547281 Z M21.2855492,13.6863631 L21.5585394,14.1628658 L16.9582832,16.7983703 L12.0475971,14.1666312 L12.3070007,13.6825978 L16.9494029,16.1705579 L21.2855492,13.6863631 Z M16.6702444,16.4675015 L17.2194061,16.4675015 L17.2194061,21.4640481 L16.6702444,21.4640481 L16.6702444,16.4675015 Z M16.0945363,5.36800761 L16.3675265,5.84451037 L11.8767643,8.41728531 L7.08312819,5.84827569 L7.34253179,5.36424229 L11.8678839,7.78947295 L16.0945363,5.36800761 Z M11.5889465,8.08683212 L12.1381082,8.08683212 L12.1381082,12.9609376 L11.5889465,12.9609376 L11.5889465,8.08683212 Z" id="path-1"></path>
    </defs>
    <g id="icon-/-Other-/-Component_Placeholder-" stroke="none" stroke-width="1" fill="none" fill-rule="evenodd">
        <mask id="mask-2" fill="white">
            <use xlink:href="#path-1"></use>
        </mask>
        <use id="Combined-Shape" fill="#FFFFFF" fill-rule="nonzero" xlink:href="#path-1"></use>
    </g>
</svg>