<?xml version="1.0" encoding="UTF-8"?>
<svg width="24px" height="24px" viewBox="0 0 24 24" version="1.1" xmlns="http://www.w3.org/2000/svg" xmlns:xlink="http://www.w3.org/1999/xlink">
    <!-- Generator: Sketch 60.1 (88133) - https://sketch.com -->
    <title>icon / Preferences / Camera</title>
    <desc>Created with Sketch.</desc>
    <g id="icon-/-Preferences-/-Camera" stroke="none" stroke-width="1" fill="none" fill-rule="evenodd">
        <g id="Icon-2" transform="translate(2.000000, 5.000000)" fill="#FFFFFF">
            <path d="M13.888701,11.1513512 C13.888701,11.4556766 13.6061132,11.9991148 12.9974624,11.9991148 C12.3888117,11.9991148 2.8460374,12.0317211 2.56344955,12.0317211 C2.09609273,12.0317211 1.60699837,11.6295768 1.60699837,10.9122384 C1.60699837,10.520963 1.62151904,6.16624074 1.62151904,5.81844032 C1.62151904,5.25326462 1.6287359,4.9561561 2.17217407,4.9561561 C2.71561224,4.9561561 13.0083312,4.93441858 13.0083312,4.93441858 C13.703932,4.93441858 13.8995698,5.42351293 13.8995698,5.83652594 C13.8995698,6.24953895 13.888701,10.8470259 13.888701,11.1513512 L13.888701,11.1513512 Z M3.18296907,1.49988935 C3.18296907,1.31512037 3.18296907,1.13035139 3.33513175,1.13035139 L11.8018984,1.13035139 C12.0084049,1.13035139 12.2475177,1.17382645 12.2475177,1.40207048 C12.2475177,1.63031451 12.236649,3.28236654 12.236649,3.28236654 L3.17931716,3.25341216 L3.18296907,1.49988935 Z M20.3447465,4.82573094 L19.6491456,4.83659971 L17.6275556,6.60820814 L17.105855,6.60820814 C17.105855,6.60820814 15.7581283,4.28229277 15.6059656,3.9779674 C15.4538029,3.67364202 14.9538398,3.3258416 14.714727,3.3258416 L13.3670004,3.3258416 C13.3670004,3.3258416 13.3452628,1.08687634 13.3452628,0.695600857 C13.3452628,0.304325375 12.9757249,3.38395978e-13 12.4974993,3.38395978e-13 L2.67213719,3.38395978e-13 C2.23373475,3.38395978e-13 1.99827386,0.249981558 1.99827386,0.550655028 L1.99827386,3.23889149 C1.59908591,3.246717 1.51378786,3.24610835 1.28093547,3.24610835 C0.752017971,3.24610835 0.520122036,3.44174609 0.520122036,4.21708019 L0.520122036,11.803477 C0.520122036,12.6838469 0.965741335,13.0533848 1.63960466,13.0533848 C2.0743552,13.0533848 13.9104385,13.0425161 14.5190893,13.0425161 C15.12774,13.0425161 15.3885903,12.5208154 15.6059656,12.2382276 C15.8233409,11.9556397 17.1710675,9.73841199 17.1710675,9.73841199 L17.7797183,9.71667447 L19.7469645,11.5208892 L20.366484,11.5208892 L20.3447465,4.82573094 Z" id="Icon"></path>
        </g>
    </g>
</svg>
