<?xml version="1.0" encoding="UTF-8"?>
<svg width="12px" height="14px" viewBox="0 0 12 14" version="1.1" xmlns="http://www.w3.org/2000/svg" xmlns:xlink="http://www.w3.org/1999/xlink">
    <title>Icons / Asset processor / Add New Item</title>
    <defs>
        <path d="M9,1.33333333 L9,5.66666667 L13.3333333,5.66666667 L13.3333333,14.6666667 L2.66666667,14.6666667 L2.66666667,1.33333333 L9,1.33333333 Z M8.66666667,6.66666667 L7.33333333,6.66666667 L7.33266667,9.33266667 L4.66666667,9.33333333 L4.66666667,10.6666667 L7.33266667,10.6666667 L7.33333333,13.3333333 L8.66666667,13.3333333 L8.66566667,10.6666667 L11.3333333,10.6666667 L11.3333333,9.33333333 L8.66566667,9.33266667 L8.66666667,6.66666667 Z M10,1.33333333 L13.3333333,4.66666667 L10,4.66666667 L10,1.33333333 Z" id="path-1"></path>
    </defs>
    <g id="Page-1" stroke="none" stroke-width="1" fill="none" fill-rule="evenodd">
        <g id="Lens-Flare-Editor-Tool-Bar-Redesign" transform="translate(-453.000000, -101.000000)">
            <g id="Sub-Toolbar" transform="translate(34.000000, 95.000000)">
                <g id="Group-7" transform="translate(7.000000, 1.000000)">
                    <g id="Group" transform="translate(16.000000, 4.000000)">
                        <g transform="translate(394.000000, 0.000000)" id="Icons-/-Asset-processor-/-Copy">
                            <rect id="Rectangle-18" fill-opacity="0" fill="#D8D8D8" x="0" y="0" width="16" height="16"></rect>
                            <mask id="mask-2" fill="white">
                                <use xlink:href="#path-1"></use>
                            </mask>
                            <use id="Combined-Shape" fill="#FFFFFF" xlink:href="#path-1"></use>
                        </g>
                    </g>
                </g>
            </g>
        </g>
    </g>
</svg>
