<?xml version="1.0" encoding="UTF-8"?>
<svg width="12px" height="12px" viewBox="0 0 12 12" version="1.1" xmlns="http://www.w3.org/2000/svg" xmlns:xlink="http://www.w3.org/1999/xlink">
    <title>Icons / Toolbar / Selection Copy 15</title>
    <g id="Page-1" stroke="none" stroke-width="1" fill="none" fill-rule="evenodd">
        <g id="Lens-Flare-Editor-Tool-Bar-Redesign" transform="translate(-84.000000, -102.000000)">
            <g id="Sub-Toolbar" transform="translate(34.000000, 95.000000)">
                <g id="Group-7" transform="translate(7.000000, 1.000000)">
                    <g id="Group" transform="translate(16.000000, 4.000000)">
                        <g transform="translate(25.000000, 0.000000)" id="Sky-Icon-/-Editor-File-/-Material-Copy">
                            <rect id="Rectangle-18" fill-opacity="0" fill="#D8D8D8" x="0" y="0" width="16" height="16"></rect>
                            <path d="M11.3439558,2 L13.7111797,4.39473288 C13.8962228,4.58192626 14,4.83452781 14,5.0977431 L14,13 C14,13.5522847 13.5522847,14 13,14 L3,14 C2.44771525,14 2,13.5522847 2,13 L2,3 C2,2.44771525 2.44771525,2 3,2 L11.3439558,2 Z M12.6666667,8 L3.33333333,8 L3.33333333,12.6666667 L12.6666667,12.6666667 L12.6666667,8 Z M11.3333333,3.33333333 L3.33333333,3.33333333 L3.33333333,5.66666667 C3.33333333,6.21895142 3.78104858,6.66666667 4.33333333,6.66666667 L4.33333333,6.66666667 L10.3333333,6.66666667 C10.8856181,6.66666667 11.3333333,6.21895142 11.3333333,5.66666667 L11.3333333,5.66666667 L11.3333333,3.33333333 Z M4.5,8.66666667 L11.5,8.66666667 C11.7761424,8.66666667 12,8.89052429 12,9.16666667 L12,9.5 C12,9.77614237 11.7761424,10 11.5,10 L4.5,10 C4.22385763,10 4,9.77614237 4,9.5 L4,9.16666667 C4,8.89052429 4.22385763,8.66666667 4.5,8.66666667 Z M4.5,10.6666667 L11.5,10.6666667 C11.7761424,10.6666667 12,10.8905243 12,11.1666667 L12,11.5 C12,11.7761424 11.7761424,12 11.5,12 L4.5,12 C4.22385763,12 4,11.7761424 4,11.5 L4,11.1666667 C4,10.8905243 4.22385763,10.6666667 4.5,10.6666667 Z" id="Combined-Shape" fill="#FFFFFF"></path>
                            <path d="M9.33333333,4 L10.6666667,4 L10.6666667,5.5 C10.6666667,5.77614237 10.442809,6 10.1666667,6 L9.33333333,6 L9.33333333,6 L9.33333333,4 Z" id="Rectangle" fill="#FFFFFF"></path>
                        </g>
                    </g>
                </g>
            </g>
        </g>
    </g>
</svg>
