<?xml version="1.0" encoding="UTF-8"?>
<svg width="24px" height="24px" viewBox="0 0 24 24" version="1.1" xmlns="http://www.w3.org/2000/svg" xmlns:xlink="http://www.w3.org/1999/xlink">
    <!-- Generator: Sketch 60.1 (88133) - https://sketch.com -->
    <title>icon / Preferences / Global</title>
    <desc>Created with Sketch.</desc>
    <g id="icon-/-Preferences-/-Global" stroke="none" stroke-width="1" fill="none" fill-rule="evenodd">
        <path d="M12.25,1.75 C17.7728475,1.75 22.25,6.2271525 22.25,11.75 C22.25,17.2728475 17.7728475,21.75 12.25,21.75 C6.7271525,21.75 2.25,17.2728475 2.25,11.75 C2.25,6.2271525 6.7271525,1.75 12.25,1.75 Z M17.6346248,10.3145575 C17.2053058,9.91488674 16.6370006,9.7677699 15.6608839,10.3145575 L15.6608839,10.3145575 L15.6608839,13.2012691 C15.550405,13.5386728 14.6216732,13.1358739 14.6216732,13.4883191 L14.6216732,13.4883191 L14.6216732,14.567113 C14.6216732,15.0390533 15.6355458,14.8699364 16.3487497,14.8699364 C16.7530744,15.0584944 16.6370006,15.8344238 16.6370006,16.0363455 C16.1866977,16.0363455 16.1993021,17.0865756 14.780126,17.0865756 C14.4756876,17.0865756 14.1296859,17.3993867 13.7421208,18.0250087 C13.3177103,18.1463871 13.0352023,18.1463871 12.8945966,18.0250087 C12.561961,17.7378598 12.6550325,17.676353 12.6550325,17.0865756 C12.2488007,16.9866214 11.5947429,16.9316702 10.692859,16.9217222 L10.692859,16.9217222 L10.692859,16.0363455 L10.692859,16.0363455 L9.62964036,16.0363455 C9.30155146,16.2242555 9.04472745,16.5743322 8.85916834,17.0865756 L8.85916834,17.0865756 L6.70965017,17.0865756 C6.70965017,18.0250087 7.76568328,17.7684909 7.76568328,18.7251619 C7.76568328,19.1146839 9.46713656,18.6062764 9.62964036,19.5162689 C9.79214415,20.4262614 12.6972983,20.3045592 14.6216732,19.792209 C18.3225516,18.8068781 20.1622591,15.8097905 20.5777733,13.8022972 C20.9932875,11.794804 20.7581948,11.1650932 19.8029029,11.1650932 L19.8029029,11.1650932 L18.6218506,11.1650932 C18.0142674,11.1650932 18.7907776,12.1519941 18.3640772,12.1519941 C17.9373768,12.1519941 17.6346248,12.2161827 17.6346248,11.4219889 L17.6346248,11.4219889 Z M11.884029,3.22149522 L11.5666567,3.22180544 C8.78938255,3.24693419 6.69008815,3.92569678 4.01012181,10.0550791 C4.01012181,10.5105578 4.10485251,10.9391326 4.43675709,11.0046279 C4.70901475,11.0583531 5.61081918,11.0046279 5.89106758,11.0046279 C6.5598621,11.0046279 6.70965017,11.0046279 6.70965017,11.980566 C6.70965017,12.5116924 7.74330017,12.7648028 7.74330017,13.4883191 C7.74330017,14.2118355 8.39193686,14.5254259 8.85916834,15.064306 L9.77029918,15.064306 L9.77029918,15.064306 L9.77029918,13.1563844 L9.77029918,13.1563844 C9.77029918,13.0058859 10.692859,13.0058859 11.1762072,13.0486998 C11.8026201,13.0486998 11.8026201,12.1994563 11.5045521,12.1386039 C10.9482761,12.0250367 9.77029918,12.1386039 9.77029918,11.6258055 L9.77029918,9.56869043 L9.77029918,9.56869043 C9.77029918,8.67817344 10.692859,9.48406144 10.692859,8.59354445 L10.692859,5.81552504 L10.692859,5.81552504 C10.692859,4.95824194 11.1473105,5.07998715 11.884029,5.07998715 C12.8945966,4.49838138 12.4823628,3.69439933 11.884029,3.22149522 Z M13.7678863,7.20993619 C12.8945966,7.02798047 12.3563523,7.02798047 11.650753,7.20993619 C11.4558185,7.61555617 11.4558185,7.87077109 11.650753,8.07735381 C12.8945966,8.06622635 13.7678863,8.30696316 13.7678863,9.01349437 C13.9523059,9.22228504 14.4086136,9.22228504 14.780126,9.01349437 C14.7447652,8.34876755 14.7447652,7.75669968 13.7678863,7.20993619 Z" id="Oval-6" fill="#FFFFFF" fill-rule="nonzero"></path>
    </g>
</svg>
