<?xml version="1.0" encoding="UTF-8"?>
<svg width="14px" height="11px" viewBox="0 0 14 11" version="1.1" xmlns="http://www.w3.org/2000/svg" xmlns:xlink="http://www.w3.org/1999/xlink">
    <!-- Generator: Sketch 52.2 (67145) - http://www.bohemiancoding.com/sketch -->
    <title>Sky Icon / System / View</title>
    <desc>Created with Sketch.</desc>
    <g id="All-use-case" stroke="none" stroke-width="1" fill="none" fill-rule="evenodd">
        <g id="Slice---search-1" transform="translate(-381.000000, -270.000000)">
            <g id="Menu-/-Outliner-/-Filter---ALL" transform="translate(370.884338, 167.997591)">
                <g id="Sky-Icon-/-System-/-View" transform="translate(9.139294, 100.038911)">
                    <g id="Group">
                        <rect id="Icon-Background" x="0" y="0" width="16" height="16"></rect>
                    </g>
                    <path d="M6.34266129,11.5903353 L7.07750177,10.8554949 C7.36813268,10.9493163 7.67814743,11 8,11 C9.65685425,11 11,9.65685425 11,8 C11,7.67814743 10.9493163,7.36813268 10.8554949,7.07750177 L12.066016,5.86698067 C12.8578926,6.44416024 13.7247761,7.15516668 14.6666667,8 C11.6936446,10.6666667 9.46792606,12 7.98951112,12 C7.51638099,12 6.96743105,11.8634451 6.34266129,11.5903353 Z M5.11133237,10.9360462 C4.02560753,10.2700402 2.76627451,9.29135817 1.33333333,8 C4.29237025,5.33333333 6.51109618,4 7.98951112,4 C8.76688076,4 9.7508643,4.36863894 10.9414617,5.10591681 L10.1448782,5.90250038 C9.60022851,5.34562572 8.84047686,5 8,5 C6.34314575,5 5,6.34314575 5,8 C5,8.84047686 5.34562572,9.60022851 5.90250038,10.1448782 L5.11133237,10.9360462 Z M7.93422346,9.99877316 L10.0088258,7.92417084 C10.0097661,7.94933117 10.0102404,7.97461033 10.0102404,8 C10.0102404,9.1045695 9.1125175,10 8.00512019,10 C7.98138941,10 7.9577549,9.9995888 7.93422346,9.99877316 Z M6.61043953,9.43693901 C6.23400186,9.07336201 6,8.56393826 6,8 C6,6.8954305 6.89772289,6 8.00512019,6 C8.56865829,6 9.07789824,6.2318844 9.44216692,6.60521162 L6.61043953,9.43693901 Z" id="Combined-Shape" fill="#FFFFFF"></path>
                    <polygon id="Rectangle-25" fill="#FFFFFF" transform="translate(7.522750, 7.541445) rotate(45.000000) translate(-7.522750, -7.541445) " points="6.80375237 0.92856205 8.2417471 0.925883489 8.2197393 14.1570058 6.80375237 14.1278886"></polygon>
                </g>
            </g>
        </g>
    </g>
</svg>
