<?xml version="1.0" encoding="UTF-8"?>
<svg width="16px" height="16px" viewBox="0 0 16 16" version="1.1" xmlns="http://www.w3.org/2000/svg" xmlns:xlink="http://www.w3.org/1999/xlink">
    <!-- Generator: Sketch 60.1 (88133) - https://sketch.com -->
    <title>Outliner / vis &amp; lock /visible / on</title>
    <desc>Created with Sketch.</desc>
    <g id="Outliner-/-vis-&amp;-lock-/visible-/-on" stroke="none" stroke-width="1" fill="none" fill-rule="evenodd">
        <g id="Icons-/-System-/--View---hidden" fill="#FFFFFF">
            <path d="M14.6666667,8 L14.1911055,8.42074507 C11.4552099,10.806915 9.38801174,12 7.98951112,12 C7.51648635,12 6.96767553,11.8635059 6.34307866,11.5905178 L7.07749705,10.8554933 C7.36812933,10.9493157 7.67814569,11 8,11 C9.65685425,11 11,9.65685425 11,8 C11,7.67814569 10.9493157,7.36812933 10.8554933,7.07749705 L12.0655037,5.86660728 C12.8575187,6.44385359 13.724573,7.15498449 14.6666667,8 Z M7.98951112,4 C8.76671422,4 9.75044269,4.368481 10.9406965,5.10544299 L10.1451174,5.90274502 C9.60045101,5.34572695 8.84059993,5 8,5 C6.34314575,5 5,6.34314575 5,8 C5,8.84059993 5.34572695,9.60045101 5.90274502,10.1451174 L5.11176964,10.9363144 C4.02594566,10.270303 2.76646689,9.29153153 1.33333333,8 L1.80668794,7.57925493 C4.53006944,5.19308498 6.5910105,4 7.98951112,4 Z M10.0102404,8 C10.0102404,9.1045695 9.1125175,10 8.00512019,10 L7.93466667,9.99733333 L10.0088484,7.92477962 L10.0102404,8 L10.0102404,8 Z M8.00512019,6 C8.56870632,6 9.07798504,6.23192392 9.44226005,6.60530708 L6.61080237,9.43728937 C6.23415224,9.07368931 6,8.56411942 6,8 C6,6.8954305 6.89772289,6 8.00512019,6 Z" id="Shape"></path>
            <polygon id="Rectangle-25" transform="translate(7.522750, 7.541445) rotate(45.000000) translate(-7.522750, -7.541445) " points="6.80375237 0.92856205 8.2417471 0.925883489 8.2197393 14.1570058 6.80375237 14.1278886"></polygon>
        </g>
    </g>
</svg>
