<?xml version="1.0" encoding="UTF-8"?>
<svg width="32px" height="32px" viewBox="0 0 32 32" version="1.1" xmlns="http://www.w3.org/2000/svg" xmlns:xlink="http://www.w3.org/1999/xlink">
    <!-- Generator: Sketch 63.1 (92452) - https://sketch.com -->
    <title>Artboard</title>
    <desc>Created with Sketch.</desc>
    <g id="Artboard" stroke="none" stroke-width="1" fill="none" fill-rule="evenodd">
        <g id="Group-18-Copy-11" transform="translate(16.000000, 16.000000) scale(-1, 1) rotate(-270.000000) translate(-16.000000, -16.000000) translate(-0.500000, 0.000000)" fill="#FFFFFF">
            <rect id="Rectangle" fill-opacity="0.2" x="0.412000754" y="0.0342213746" width="32" height="31.9657786"></rect>
            <path d="M32.5879992,0 L32.5879992,32 L0.412000754,32 L0.412000754,0 L32.5879992,0 Z M31.0874716,1.5 L11.5874716,1.5 L11.5874716,30.5 L31.0874716,30.5 L31.0874716,1.5 Z M9.91147162,22.084 L1.91147162,22.084 L1.91147162,30.5 L9.91147162,30.5 L9.91147162,22.084 Z M9.91147162,11.5 L1.91147162,11.5 L1.91147162,20.5 L9.91147162,20.5 L9.91147162,11.5 Z M9.91147162,1.5 L1.91147162,1.5 L1.91147162,9.915 L9.91147162,9.915 L9.91147162,1.5 Z" id="Shape" fill-rule="nonzero"></path>
        </g>
    </g>
</svg>
