<?xml version="1.0" encoding="utf-8"?>
<!-- Generator: Adobe Illustrator 26.2.1, SVG Export Plug-In . SVG Version: 6.00 Build 0)  -->
<svg version="1.1" id="Layer_1" xmlns="http://www.w3.org/2000/svg" xmlns:xlink="http://www.w3.org/1999/xlink" x="0px" y="0px"
	 viewBox="0 0 350 133" style="enable-background:new 0 0 350 133;" xml:space="preserve">
<style type="text/css">
	.st0{fill:#FFFFFF;}
</style>
<g>
	<g id="Subtitle">
		<path class="st0" d="M125.881,116.044c5.03,0,8.358,2.938,8.358,6.756c0,3.819-3.328,6.756-8.358,6.756
			c-5.056,0-8.358-2.938-8.358-6.756C117.522,118.981,120.824,116.044,125.881,116.044z M125.881,117.062
			c-4.179,0-6.81,2.428-6.81,5.738c0,3.29,2.631,5.738,6.81,5.738c4.127,0,6.81-2.448,6.81-5.738
			C132.691,119.49,130.008,117.062,125.881,117.062z"/>
		<path class="st0" d="M140.458,116.259h6.449c3.302,0,5.185,1.763,5.185,3.819s-1.909,3.819-5.185,3.819h-4.979v5.425h-1.471
			V116.259z M146.752,117.277h-4.824v5.601h4.824c2.27,0,3.792-1.155,3.792-2.8C150.544,118.433,149.022,117.277,146.752,117.277z"
			/>
		<path class="st0" d="M157.769,116.259h10.912v1.018h-9.441v4.837h9.261v1.018h-9.261v5.17h9.441v1.018h-10.912V116.259z"/>
		<path class="st0" d="M176.37,118.041v11.28h-1.471v-13.062h1.496l10.783,11.123v-11.123h1.47v13.062h-1.445L176.37,118.041z"/>
		<path class="st0" d="M204.465,126.717c0.955,1.038,2.631,1.821,4.824,1.821c2.657,0,4.334-1.057,4.334-2.781
			c0-1.88-2.038-2.644-4.618-2.644c-0.696,0-1.341,0-1.599,0.02v-1.057c0.258,0.02,0.903,0.02,1.599,0.02
			c2.27,0,4.36-0.744,4.36-2.487c0-1.625-1.909-2.526-4.127-2.526c-1.961,0-3.354,0.588-4.617,1.665l-0.929-0.705
			c1.186-1.116,3.095-1.978,5.624-1.978c2.992,0,5.546,1.234,5.546,3.447c0,1.998-2.218,2.859-3.689,3.055
			c1.496,0.117,3.947,1.097,3.947,3.251s-2.141,3.74-5.804,3.74c-2.812,0-4.876-0.999-5.856-2.174L204.465,126.717z"/>
		<path class="st0" d="M221.388,116.259h5.495c5.34,0,8.693,2.957,8.693,6.541c0,3.623-3.354,6.521-8.693,6.521h-5.495V116.259z
			 M226.883,128.303c4.54,0,7.146-2.448,7.146-5.503c0-3.055-2.58-5.523-7.146-5.523h-4.024v11.026H226.883z"/>
		<path class="st0" d="M251.083,116.259h10.912v1.018h-9.441v4.837h9.261v1.018h-9.261v5.17h9.441v1.018h-10.912V116.259z"/>
		<path class="st0" d="M269.684,118.041v11.28h-1.471v-13.062h1.496l10.783,11.123v-11.123h1.47v13.062h-1.445L269.684,118.041z"/>
		<path class="st0" d="M296.901,116.044c2.837,0,4.901,0.862,6.475,2.232l-1.109,0.607c-1.212-1.097-3.173-1.821-5.366-1.821
			c-4.05,0-7.172,2.33-7.172,5.738c0,3.368,3.122,5.758,7.172,5.758c2.296,0,4.102-0.862,5.056-1.586v-3.114h-6.527v-1.018h7.997
			v4.563c-1.548,1.293-3.818,2.174-6.526,2.174c-4.85,0-8.719-2.742-8.719-6.776C288.182,118.766,292.051,116.044,296.901,116.044z"
			/>
		<path class="st0" d="M309.75,116.259h1.471v13.062h-1.471V116.259z"/>
		<path class="st0" d="M319.553,118.041v11.28h-1.471v-13.062h1.496l10.783,11.123v-11.123h1.47v13.062h-1.445L319.553,118.041z"/>
		<path class="st0" d="M338.696,116.259h10.912v1.018h-9.441v4.837h9.261v1.018h-9.261v5.17h9.441v1.018h-10.912V116.259z"/>
	</g>
	<g id="Letters_3DE">
		<path class="st0" d="M189.908,19.159h34.194c27.173,0,46.025,17.292,46.025,43.425s-18.852,43.295-46.025,43.295h-34.194V19.159z
			 M223.972,90.24c17.55,0,27.788-12.631,27.788-27.655c0-15.689-9.573-27.788-27.788-27.788h-16.088V90.24H223.972z"/>
		<g>
			<path class="st0" d="M282.369,20.354h67.271V35.81h-49.281v18.37h49.281v15.457h-49.281v19.637h49.281v15.583h-67.271V20.354z"/>
		</g>
		<path class="st0" d="M171.855,66.313c-3.321-2.906-8.044-4.89-14.065-5.913c4.993-1.49,9.014-3.854,11.978-7.047
			c3.495-3.767,5.268-8.398,5.268-13.765c0-6.458-2.815-11.568-8.368-15.189c-5.456-3.556-12.965-5.359-22.318-5.359
			c-9.525,0-18.039,1.971-25.391,5.847c2.871,4.631,5.231,9.611,6.997,14.865c3.001-1.694,5.788-2.941,8.295-3.693
			c2.956-0.887,5.901-1.337,8.753-1.337c8.077,0,12.003,2.859,12.003,8.741c0,3.85-1.445,6.485-4.418,8.054
			c-3.081,1.628-8.082,2.453-14.863,2.453h-6.568c0.34,2.831,0.519,5.712,0.519,8.636c0,2.125-0.098,4.227-0.279,6.305h6.206
			c7.358,0,12.769,0.801,16.081,2.38c3.182,1.518,4.728,4.027,4.728,7.671c0,4.15-1.355,7.067-4.144,8.918
			c-2.843,1.886-7.359,2.843-13.425,2.843c-4.001,0-8.099-0.511-12.182-1.518c-0.639-0.158-1.264-0.328-1.886-0.503
			c-1.92,4.91-4.364,9.556-7.266,13.869c6.912,2.355,14.751,3.548,23.353,3.548c11.679,0,20.811-2.298,27.144-6.83
			c6.408-4.585,9.657-11.079,9.657-19.302C177.666,74.29,175.711,69.689,171.855,66.313z"/>
	</g>
	<path id="Gem_O" class="st0" d="M115.98,62.606c0-1.983-0.107-4.022-0.319-6.06l-0.007-0.003l0.006-0.004
		c-0.846-8.138-3.352-15.851-7.447-22.927h-0.007l0.004-0.006c-4.04-6.978-9.618-13.172-16.133-17.914l0,0l0,0l-0.001,0.001l0-0.002
		c-6.625-4.822-14.036-8.124-22.027-9.815l-0.002,0.002l-0.001-0.003c-7.894-1.67-16.22-1.67-24.113,0.001l-0.001,0.003
		l-0.002-0.002c-7.99,1.692-15.4,4.994-22.025,9.815l0,0.002l-0.002-0.001C17.388,20.433,11.809,26.628,7.77,33.606l0.003,0.006
		H7.766c-4.095,7.076-6.6,14.79-7.446,22.927l0.002,0.001l0,0.005l-0.002,0.001C0.107,58.585,0,60.623,0,62.606
		c0,6.115,0.951,12.145,2.827,17.921l0.004,0.001l-0.003,0.003c2.522,7.764,6.582,14.787,12.067,20.876l0.003-0.001l-0.001,0.003
		c5.481,6.083,12.042,10.854,19.499,14.181l0.004-0.003l0.001,0.005c7.447,3.321,15.383,5.005,23.59,5.005
		c8.206,0,16.143-1.684,23.589-5.005l0.001-0.004l0.003,0.003c7.457-3.327,14.018-8.098,19.5-14.181l-0.001-0.003l0.003,0.001
		c5.485-6.088,9.545-13.112,12.067-20.875l-0.003-0.003l0.004-0.001C115.029,74.75,115.98,68.721,115.98,62.606z M113.796,55.242
		l-13.989-6.225l7.659-13.262C110.776,41.833,112.901,48.375,113.796,55.242z M86.285,62.606c0,15.627-12.668,28.295-28.295,28.295
		S29.695,78.233,29.695,62.606S42.363,34.31,57.99,34.31S86.285,46.979,86.285,62.606z M14.346,62.606
		c0,0.877,0.029,1.748,0.08,2.612L2.854,56.81l13.056-5.813C14.892,54.694,14.346,58.586,14.346,62.606z M19.244,82.709
		L5.264,79.737l9.566-10.624C15.553,73.951,17.07,78.528,19.244,82.709z M101.151,69.112l9.566,10.624l-13.98,2.971
		C98.91,78.526,100.428,73.949,101.151,69.112z M100.07,50.996l13.056,5.813l-11.572,8.408c0.051-0.864,0.08-1.734,0.08-2.611
		C101.634,58.585,101.088,54.693,100.07,50.996z M98.857,47.26c-1.702-4.531-4.134-8.705-7.156-12.376h6.872h7.429L98.857,47.26z
		 M91.395,26.236l0.87-8.28c5.422,4.174,10.122,9.393,13.71,15.224l-15.311,0.003L91.395,26.236z M89.782,25.316l-0.7,6.664
		c-3.35-3.4-7.252-6.253-11.563-8.413l5.63-2.507l7.428-3.307L89.782,25.316z M89.864,16.208L82.6,19.442l-6.726,2.995l-0.193-0.595
		L71.142,7.864C77.868,9.472,84.153,12.273,89.864,16.208z M73.932,21.965c-4.363-1.713-9.07-2.741-13.987-2.958l9.572-10.631
		L73.932,21.965z M68.236,7.25L57.99,18.636L47.742,7.25C54.48,6.01,61.498,6.01,68.236,7.25z M46.463,8.376l9.571,10.631
		c-4.917,0.217-9.624,1.246-13.987,2.958L46.463,8.376z M44.836,7.865l-4.599,14.169l-0.131,0.404l-0.148-0.066l-13.843-6.163
		C31.826,12.274,38.111,9.473,44.836,7.865z M33.503,21.36l4.958,2.207c-4.31,2.161-8.213,5.013-11.563,8.414l-0.532-5.061
		l-0.963-9.167L33.503,21.36z M23.714,17.958l1.6,15.225h-15.31C13.592,27.351,18.293,22.132,23.714,17.958z M24.279,34.885
		c-3.022,3.671-5.454,7.845-7.156,12.376L9.978,34.885H24.279z M8.513,35.757L16.17,49.02l-0.007,0.003L2.184,55.243
		C3.079,48.377,5.203,41.835,8.513,35.757z M1.701,62.606c0-1.444,0.059-2.92,0.175-4.403l0.71,0.516l11.676,8.484L4.005,78.584
		C2.476,73.412,1.701,68.044,1.701,62.606z M4.922,81.409l14.99,3.18l-4.732,14.563C10.671,93.882,7.228,87.925,4.922,81.409z
		 M16.791,99.702l4.417-13.595c2.59,4.046,5.831,7.633,9.572,10.621L16.791,99.702z M17.169,101.36l14.977-3.184l1.596,15.237
		C27.503,110.435,21.94,106.389,17.169,101.36z M33.947,99.032c3.949,2.612,8.347,4.6,13.054,5.822l-11.559,8.398L33.947,99.032z
		 M36.455,114.624l12.394-9.011l1.259,2.18l6.398,11.083C49.563,118.698,42.832,117.271,36.455,114.624z M50.843,105.664
		c2.326,0.383,4.713,0.586,7.147,0.586c2.435,0,4.822-0.203,7.149-0.586l-7.148,12.381L50.843,105.664z M59.475,118.876l1.259-2.181
		l6.398-11.082l12.394,9.011C73.149,117.271,66.418,118.698,59.475,118.876z M80.54,113.252l-11.559-8.398
		c4.707-1.221,9.105-3.21,13.054-5.822L80.54,113.252z M82.239,113.414l1.597-15.238l14.977,3.184
		C94.042,106.388,88.478,110.435,82.239,113.414z M85.201,96.727c3.741-2.988,6.982-6.576,9.572-10.621l4.417,13.595L85.201,96.727z
		 M100.801,99.152l-4.732-14.564l14.989-3.18C108.753,87.924,105.309,93.882,100.801,99.152z M111.975,78.584L101.718,67.2
		l12.386-8.999c0.116,1.484,0.175,2.96,0.175,4.404C114.279,68.044,113.505,73.411,111.975,78.584z"/>
</g>
</svg>
