<?xml version="1.0" encoding="utf-8"?>
<!-- Generator: Adobe Illustrator 27.3.1, SVG Export Plug-In . SVG Version: 6.00 Build 0)  -->
<svg version="1.1" id="Layer_1" xmlns="http://www.w3.org/2000/svg" xmlns:xlink="http://www.w3.org/1999/xlink" x="0px" y="0px"
	 viewBox="0 0 1500 600" style="enable-background:new 0 0 1500 600;" xml:space="preserve">
<style type="text/css">
	.st0{fill:#FFFFFF;}
</style>
<g>
	<g>
		<path class="st0" d="M1098.6,145.1c-35-32.7-83-50.1-139.4-50.1H832.1c-9.5,0-17.5,8.1-17.5,18v328.8c0,9.9,8.1,18,17.5,18h127.1
			c56.4,0,104.5-17.2,139.4-49.8c35.4-33,54.1-78.7,54.1-132.3C1152.6,224.1,1133.9,178.2,1098.6,145.1 M1037.2,351.6
			c-19.2,20.1-46.2,30.7-78.2,30.7h-53.3c-3.8,0-6.8-3.1-6.8-6.8V179.3c0-3.8,3.1-6.8,6.8-6.8H959c65.4,0,106,40.3,106,105.2
			C1065,306.5,1055.1,332.8,1037.2,351.6"/>
		<path class="st0" d="M1298.1,172.5h188.2c7.6,0,13.7-6.2,13.7-13.7v-47c0-9.2-7.5-16.7-19.1-16.7h-258.1c-7.5,0-15.6,8.1-15.6,18
			v328.8c0,9.9,8.1,18,15.6,18h258.1c11.6,0,19.1-7.5,19.1-16.7v-47c0-7.6-6.1-13.7-13.7-13.7h-188.2c-3.8,0-6.8-3.1-6.8-6.8V322
			c0-3.8,3.1-6.8,6.8-6.8h186c7.6,0,13.7-6.2,13.7-13.7v-50c0-7.6-6.2-13.7-13.7-13.7h-186c-3.8,0-6.8-3.1-6.8-6.8v-51.6
			C1291.2,175.6,1294.3,172.5,1298.1,172.5"/>
		<path class="st0" d="M736,288.5c-8.1-7.2-18.1-13.2-29.9-17.7c-3.4-1.3-3.8-5.9-0.7-7.7c8.6-5.1,16.1-11.2,22.4-18.2
			c15.3-16.5,23.1-37.8,23.1-61.7c0-28.9-12.4-51.7-37-67.9c-23.3-15.3-54.9-23-94.1-23c-35.6,0-67.3,6.8-95.9,20.2
			c-6.9,3.2-11,11.5-7.8,20c0.3,0.7,0.6,1.4,1,2c7.6,13.2,14.2,27.4,19.6,42c2.2,6,8,10,14.4,10c2.4,0,4.9-0.6,7.1-1.7
			c8.5-4.4,16.4-7.7,23.7-9.8c11-3.4,21.4-5.1,32.7-5.1c37.3,0,42.1,15.6,42.1,29.1c0,13.2-4.6,22.5-14.4,27.9
			c-11.6,6.2-30.8,9.4-57.1,9.4h-16.8c-1.2,0-2.5,0.1-3.6,0.4c-7.9,2-12.4,9.3-11.8,16.6c0.7,8.2,1.1,16.6,1.1,25
			c0,5.1-0.2,10.5-0.5,16c-0.2,4.3,1.3,8.5,4.2,11.6c2.9,3.1,7,4.9,11.2,4.9h15.6c28.8,0,49.8,3,62.3,9c10.7,5.2,15.4,13,15.4,25.5
			c0,14.8-4.4,23.9-13.8,30.2c-10.4,6.9-28,10.6-50.8,10.6c-15.6,0-30.7-2-46.7-6.1c-1.3-0.4-2.7-0.6-4.1-0.6
			c-6.2,0-11.7,3.7-14.1,9.5c-5.6,13.4-12.3,26.6-20,39.2c-2.6,4.2-3,9.3-1.2,14c1.8,4.6,5.8,7.9,10.5,9.3
			c25.6,7.4,53.2,11.1,84,11.1c48.8,0,87.1-9.8,113.9-29.2c27.8-20.2,41.9-47.9,41.9-83.8C761.7,324.2,753.1,303.6,736,288.5"/>
		<path class="st0" d="M244.5,33C109.7,33,0,142.6,0,277.4s109.7,244.5,244.5,244.5s244.5-109.7,244.5-244.5S379.3,33,244.5,33
			 M350.8,277.4c0,58.6-47.7,106.3-106.3,106.3S138.1,336,138.1,277.4c0-58.6,47.7-106.3,106.3-106.3S350.8,218.8,350.8,277.4
			 M209.3,455.3c11.4,2.3,23.2,3.5,35.2,3.5c12,0,23.8-1.2,35.2-3.5l0.3,0.2L244.5,517l-35.5-61.5L209.3,455.3z M416.1,219
			c-7.7-22.6-19.8-43.3-35.2-60.9l0.1-0.6H452l-35.6,61.6L416.1,219z M377.3,154.2c-16-17.2-35.2-31.3-56.8-41.3l-0.1-0.5l64.9-28.9
			l-7.4,70.7H377.3z M319.4,109.2l-21.8-67c31.4,7.1,60.5,20.3,86,38.4L319.4,109.2z M316.3,110.6l-0.4,0.2
			c-21.2-9.1-44.5-14.3-68.9-14.6l-0.3-0.3L294.3,43L316.3,110.6z M241.9,96.2c-24.4,0.3-47.7,5.5-68.9,14.6l-0.4-0.2l22-67.6
			l47.6,52.9L241.9,96.2z M169.6,109.2l-64.2-28.6c25.5-18.1,54.6-31.3,86-38.4L169.6,109.2z M168.5,112.4l-0.1,0.4
			c-21.5,10-40.8,24.1-56.8,41.3H111l-7.4-70.7L168.5,112.4z M108.1,158.1c-15.4,17.6-27.5,38.2-35.2,60.9l-0.4,0.2l-35.6-61.6H108
			L108.1,158.1z M69.4,220.5L5.1,249.2c3.8-32.2,13.9-62.5,29.2-89.6L69.4,220.5z M71.1,223.4l0.2,0.3c-5.3,17-8.1,35-8.1,53.7
			c0,5.5,0.3,11,0.8,16.4l-0.3,0.3L6.1,252.4L71.1,223.4z M64.5,298.9c2.9,24,10.4,46.6,21.7,66.8l-0.2,0.5l-69.5-14.8l47.6-52.8
			L64.5,298.9z M85,369.4l-21.7,66.8c-20.7-23.6-36.8-51.2-47.1-81.5L85,369.4z M88.3,370.1l0.5,0.1c12.2,20.3,28.2,38.1,47.1,52.3
			l0.1,0.5l-69.6,14.8L88.3,370.1z M140.1,425.5c19,13.5,40.8,23.4,64.3,28.7l0.2,0.4L147,496.4l-7.4-70.8L140.1,425.5z
			 M206.2,457.5l35.2,61c-32.7-0.4-63.8-7.3-92.2-19.6L206.2,457.5z M282.7,457.5l57,41.4c-28.3,12.2-59.5,19.2-92.2,19.6
			L282.7,457.5z M284.4,454.6l0.2-0.4c23.5-5.3,45.2-15.2,64.2-28.7l0.5,0.1l-7.4,70.7L284.4,454.6z M353,422.5
			c18.9-14.2,34.9-32,47.1-52.3l0.5-0.1l22,67.6L353,423L353,422.5z M403.9,369.4l68.9-14.6c-10.3,30.3-26.5,57.9-47.1,81.5
			L403.9,369.4z M402.9,366.2l-0.2-0.5c11.3-20.2,18.9-42.8,21.7-66.8l0.4-0.3l47.5,52.8L402.9,366.2z M425,293.8
			c0.5-5.4,0.8-10.9,0.8-16.4c0-18.7-2.8-36.7-8.1-53.7l0.2-0.3l65,28.9l-57.5,41.8L425,293.8z M419.5,220.5l35.2-61
			c15.2,27.1,25.4,57.4,29.2,89.6L419.5,220.5z M451.6,154.2h-70.4l7.4-70C413.9,103.2,435.4,127,451.6,154.2 M291.6,41l-47.2,52.4
			L197.3,41c15.3-3,31-4.7,47.2-4.7C260.6,36.3,276.4,37.9,291.6,41 M100.3,84.2l7.4,70H37.3C53.6,127,75,103.2,100.3,84.2
			 M4.4,255.3l57,41.4l-47.2,52.4c-7.1-22.6-10.9-46.7-10.9-71.7C3.3,269.9,3.7,262.6,4.4,255.3 M67.5,440.9l68.8-14.6l7.4,70
			C114.7,483,88.9,464.1,67.5,440.9 M345.3,496.4l7.4-70l68.8,14.6C400.1,464.1,374.2,483,345.3,496.4 M474.7,349.1l-47.2-52.4
			l57-41.4c0.7,7.3,1.1,14.7,1.1,22.1C485.6,302.3,481.8,326.4,474.7,349.1"/>
	</g>
	<g>
		<path class="st0" d="M511.8,557.9c0-16.8,13.2-30.1,30.2-30.1c17.1,0,30.2,13.3,30.2,30c0,16.6-13,29.9-30.3,29.9
			C524.7,587.7,511.8,574.5,511.8,557.9z M558.8,557.9c-0.1-10.1-7.6-17.2-16.8-17.2c-9.3,0-16.8,7.3-16.8,17.2
			c0,9.8,7.4,17.1,16.8,17.1C551.6,574.9,558.9,567.7,558.8,557.9z"/>
		<path class="st0" d="M648,548.5c0,10.1-6.2,19.1-21.9,19.1h-8.3v19.2h-12.9v-57.9H627C642.1,528.9,648,538.5,648,548.5z
			 M634.8,548.3c0-4-2.8-7.5-7.7-7.5h-9.3v15.1h8.8C632.3,555.9,634.8,552.1,634.8,548.3z"/>
		<path class="st0" d="M679.3,528.9h40.4v12.1h-27.4v10.7h25.4v12h-25.4v11h27.3v12.1h-40.3V528.9z"/>
		<path class="st0" d="M803.8,528.9v57.9h-9.3l-28.3-33.5v33.5h-12.8v-57.9h8.8l28.9,33.8v-33.8H803.8z"/>
		<path class="st0" d="M877.1,582l5.3-10.3c5.3,3.1,9.7,4.2,13.1,4.2c5.6,0,8.6-2.7,8.6-6.3c0-3.6-3.1-6.1-7.8-6.1h-7.4v-11.6h6
			c5.1,0,8-2.5,8-6c0-3.7-3.2-5.8-7.2-5.8c-3.4,0-6.5,1.2-11.1,4.3l-6.1-9.3c4.6-4.2,11.6-7.1,18.9-7.1c10.5,0,18.6,6.5,18.6,15
			c0,6.4-4.5,11-9.7,12.9v0.3c7.4,1.6,11.4,7.5,11.4,14.3c0,10.2-8.7,17.3-21.2,17.3C889.2,587.7,883,585.6,877.1,582z"/>
		<path class="st0" d="M950.5,528.9h23.1c17.8,0,28.2,11.2,28.2,29c0,17.8-10.7,28.9-28.6,28.9h-22.7V528.9z M973.8,574.3
			c9.8,0,14.7-7.7,14.7-16.5c0-8.9-4.9-16.5-14.7-16.5h-10.3v33H973.8z"/>
		<path class="st0" d="M1077.5,528.9h40.4v12.1h-27.4v10.7h25.4v12h-25.4v11h27.3v12.1h-40.3V528.9z"/>
		<path class="st0" d="M1202.1,528.9v57.9h-9.3l-28.3-33.5v33.5h-12.8v-57.9h8.8l28.9,33.8v-33.8H1202.1z"/>
		<path class="st0" d="M1234.7,557.9c0-17.6,13.6-30,30.8-30c9.7,0,18.1,3.9,23.1,9l-8.3,9.4c-3.8-3.6-9.1-6-14.9-6
			c-10.2,0-17.5,7.5-17.5,17.4c0,9.6,6.9,17.6,17.4,17.6c5.9,0,11.4-2.5,14.4-5.5v-6.7H1265V552h26.5v24.4
			c-7.1,7.1-16.1,11.3-26.4,11.3C1247.3,587.6,1234.7,575,1234.7,557.9z"/>
		<path class="st0" d="M1337.7,528.9v57.9h-13v-57.9H1337.7z"/>
		<path class="st0" d="M1423.8,528.9v57.9h-9.3l-28.3-33.5v33.5h-12.8v-57.9h8.8l28.9,33.8v-33.8H1423.8z"/>
		<path class="st0" d="M1459.6,528.9h40.4v12.1h-27.4v10.7h25.4v12h-25.4v11h27.3v12.1h-40.3V528.9z"/>
	</g>
</g>
</svg>
