<?xml version="1.0" encoding="UTF-8"?>
<svg width="350px" height="133px" viewBox="0 0 350 133" version="1.1" xmlns="http://www.w3.org/2000/svg" xmlns:xlink="http://www.w3.org/1999/xlink">
    <title>Artboard</title>
    <g id="Artboard" stroke="none" stroke-width="1" fill="none" fill-rule="evenodd">
        <g id="O3DE-Logo-with-WorkMark-REV-Mono" transform="translate(-0.060000, 0.000000)" fill="#FFFFFF">
            <g id="Group-3" transform="translate(25.446000, 117.517000)">
                <path d="M1.833,7.614 C1.833,9.618 2.262,11.139 3.121,12.175 C3.979,13.211 5.226,13.729 6.863,13.729 C8.511,13.729 9.758,13.212 10.599,12.18 C11.441,11.146 11.862,9.625 11.862,7.614 C11.862,5.623 11.443,4.113 10.604,3.083 C9.766,2.055 8.525,1.539 6.883,1.539 C5.234,1.539 3.979,2.057 3.121,3.093 C2.262,4.129 1.833,5.637 1.833,7.614 Z M13.694,7.614 C13.694,9.983 13.092,11.846 11.887,13.202 C10.683,14.559 9.007,15.237 6.863,15.237 C4.67,15.237 2.979,14.571 1.787,13.237 C0.596,11.904 3.55271368e-15,10.023 3.55271368e-15,7.594 C3.55271368e-15,5.184 0.597,3.315 1.792,1.989 C2.986,0.663 4.683,0 6.883,0 C9.022,0 10.692,0.676 11.892,2.025 C13.095,3.375 13.694,5.238 13.694,7.614 L13.694,7.614 Z" id="Fill-1"></path>
            </g>
            <path d="M55.659,125.252 L57.216,125.252 C58.75,125.252 59.86,125.005 60.546,124.513 C61.231,124.02 61.574,123.231 61.574,122.144 C61.574,121.165 61.251,120.436 60.606,119.956 C59.961,119.478 58.958,119.239 57.593,119.239 L55.659,119.239 L55.659,125.252 Z M63.366,122.063 C63.366,123.561 62.852,124.714 61.823,125.521 C60.795,126.327 59.324,126.731 57.41,126.731 L55.659,126.731 L55.659,132.551 L53.927,132.551 L53.927,117.749 L57.786,117.749 C61.506,117.749 63.366,119.188 63.366,122.063 L63.366,122.063 Z" id="Fill-4"></path>
            <polyline id="Fill-5" points="86.247 132.551 77.949 132.551 77.949 117.749 86.247 117.749 86.247 119.279 79.681 119.279 79.681 124.047 85.849 124.047 85.849 125.566 79.681 125.566 79.681 131.013 86.247 131.013 86.247 132.551"></polyline>
            <g id="Group-9" transform="translate(101.016000, 117.537000)">
                <path d="M11.628,15.014 L9.651,15.014 L1.517,2.592 L1.436,2.592 C1.544,4.05 1.599,5.387 1.599,6.602 L1.599,15.014 L-1.42108547e-14,15.014 L-1.42108547e-14,0.212 L1.954,0.212 L10.069,12.584 L10.151,12.584 C10.137,12.403 10.106,11.817 10.059,10.828 C10.011,9.839 9.995,9.133 10.008,8.707 L10.008,0.212 L11.628,0.212 L11.628,15.014" id="Fill-6"></path>
                <path d="M56.235,3.696 C56.235,4.64 55.968,5.413 55.436,6.014 C54.902,6.616 54.147,7.016 53.169,7.219 L53.169,7.3 C54.364,7.449 55.251,7.827 55.828,8.434 C56.404,9.041 56.693,9.837 56.693,10.823 C56.693,12.234 56.201,13.319 55.216,14.079 C54.232,14.837 52.834,15.217 51.022,15.217 C50.234,15.217 49.513,15.159 48.858,15.039 C48.203,14.922 47.567,14.714 46.949,14.417 L46.949,12.818 C47.594,13.135 48.281,13.376 49.011,13.541 C49.741,13.707 50.431,13.789 51.083,13.789 C53.655,13.789 54.942,12.788 54.942,10.783 C54.942,8.987 53.522,8.089 50.685,8.089 L49.219,8.089 L49.219,6.642 L50.707,6.642 C51.866,6.642 52.787,6.387 53.465,5.877 C54.144,5.369 54.483,4.661 54.483,3.756 C54.483,3.034 54.234,2.467 53.735,2.055 C53.236,1.644 52.559,1.438 51.704,1.438 C51.052,1.438 50.438,1.526 49.861,1.702 C49.284,1.877 48.626,2.201 47.886,2.673 L47.031,1.539 C47.642,1.06 48.345,0.683 49.144,0.411 C49.94,0.136 50.78,1.42108547e-14 51.663,1.42108547e-14 C53.109,1.42108547e-14 54.232,0.33 55.033,0.987 C55.834,1.646 56.235,2.548 56.235,3.696" id="Fill-8"></path>
            </g>
            <path d="M182.497,125.07 C182.497,123.14 182.009,121.685 181.035,120.706 C180.061,119.727 178.614,119.239 176.693,119.239 L174.178,119.239 L174.178,131.064 L176.286,131.064 C178.349,131.064 179.9,130.56 180.939,129.55 C181.976,128.541 182.497,127.048 182.497,125.07 Z M184.329,125.009 C184.329,127.452 183.662,129.321 182.329,130.613 C180.995,131.906 179.076,132.551 176.571,132.551 L172.447,132.551 L172.447,117.749 L177.008,117.749 C179.323,117.749 181.122,118.388 182.405,119.663 C183.687,120.94 184.329,122.721 184.329,125.009 L184.329,125.009 Z" id="Fill-10"></path>
            <polyline id="Fill-11" points="228.264 132.551 219.965 132.551 219.965 117.749 228.264 117.749 228.264 119.279 221.697 119.279 221.697 124.047 227.867 124.047 227.867 125.566 221.697 125.566 221.697 131.013 228.264 131.013 228.264 132.551"></polyline>
            <g id="Group-15" transform="translate(243.032000, 117.537000)">
                <path d="M11.629,15.014 L9.652,15.014 L1.517,2.592 L1.436,2.592 C1.545,4.05 1.599,5.387 1.599,6.602 L1.599,15.014 L2.84217094e-14,15.014 L2.84217094e-14,0.212 L1.955,0.212 L10.07,12.584 L10.151,12.584 C10.138,12.403 10.107,11.817 10.059,10.828 C10.011,9.839 9.996,9.133 10.008,8.707 L10.008,0.212 L11.629,0.212 L11.629,15.014" id="Fill-12"></path>
                <path d="M33.736,7.259 L38.796,7.259 L38.796,14.458 C38.008,14.707 37.208,14.897 36.393,15.025 C35.578,15.154 34.634,15.217 33.563,15.217 C31.309,15.217 29.554,14.551 28.299,13.217 C27.044,11.884 26.415,10.017 26.415,7.614 C26.415,6.076 26.726,4.727 27.346,3.569 C27.968,2.413 28.862,1.528 30.03,0.916 C31.197,0.306 32.564,1.42108547e-14 34.133,1.42108547e-14 C35.721,1.42108547e-14 37.201,0.29 38.573,0.872 L37.9,2.39 C36.555,1.823 35.263,1.539 34.021,1.539 C32.209,1.539 30.794,2.076 29.776,3.149 C28.757,4.222 28.248,5.71 28.248,7.614 C28.248,9.612 28.738,11.126 29.719,12.16 C30.7,13.192 32.14,13.709 34.042,13.709 C35.073,13.709 36.081,13.59 37.066,13.354 L37.066,8.798 L33.736,8.798 L33.736,7.259" id="Fill-14"></path>
            </g>
            <polygon id="Fill-16" points="296.871 132.551 298.602 132.551 298.602 117.749 296.871 117.749"></polygon>
            <path d="M325.781,132.551 L323.805,132.551 L315.67,120.129 L315.588,120.129 C315.698,121.587 315.751,122.924 315.751,124.139 L315.751,132.551 L314.153,132.551 L314.153,117.749 L316.108,117.749 L324.223,130.121 L324.304,130.121 C324.29,129.94 324.259,129.354 324.212,128.365 C324.164,127.376 324.148,126.67 324.162,126.244 L324.162,117.749 L325.781,117.749 L325.781,132.551" id="Fill-17"></path>
            <polyline id="Fill-18" points="349.64 132.551 341.341 132.551 341.341 117.749 349.64 117.749 349.64 119.279 343.073 119.279 343.073 124.047 349.243 124.047 349.243 125.566 343.073 125.566 343.073 131.013 349.64 131.013 349.64 132.551"></polyline>
            <path d="M187.562,26.549 C187.562,32.293 185.822,37.178 182.341,41.203 C178.861,45.228 173.977,47.995 167.687,49.505 L167.687,49.882 C175.109,50.805 180.727,53.058 184.543,56.643 C188.358,60.228 190.266,65.061 190.266,71.14 C190.266,79.989 187.059,86.875 180.644,91.801 C174.228,96.728 165.067,99.191 153.159,99.191 C143.18,99.191 134.332,97.535 126.618,94.222 L126.618,77.681 C130.181,79.485 134.102,80.951 138.379,82.083 C142.656,83.216 146.891,83.781 151.083,83.781 C157.498,83.781 162.236,82.693 165.297,80.511 C168.358,78.331 169.889,74.831 169.889,70.008 C169.889,65.69 168.128,62.63 164.606,60.825 C161.083,59.023 155.464,58.121 147.75,58.121 L140.769,58.121 L140.769,43.216 L147.876,43.216 C155.004,43.216 160.213,42.283 163.505,40.417 C166.796,38.551 168.442,35.354 168.442,30.825 C168.442,23.865 164.081,20.385 155.36,20.385 C152.341,20.385 149.269,20.888 146.146,21.894 C143.022,22.901 139.552,24.642 135.737,27.115 L126.744,13.718 C135.129,7.68 145.129,4.661 156.744,4.661 C166.262,4.661 173.777,6.591 179.291,10.448 C184.804,14.305 187.562,19.673 187.562,26.549" id="Fill-19"></path>
            <path d="M261.093,51.538 C261.093,31.236 252.127,21.084 234.196,21.084 L223.527,21.084 L223.527,82.639 L232.126,82.639 C251.437,82.639 261.093,72.273 261.093,51.538 Z M281.913,51.021 C281.913,66.583 277.484,78.5 268.625,86.777 C259.768,95.053 246.976,99.191 230.251,99.191 L203.483,99.191 L203.483,4.661 L233.162,4.661 C248.592,4.661 260.576,8.735 269.111,16.882 C277.646,25.029 281.913,36.408 281.913,51.021 L281.913,51.021 Z" id="Fill-20"></path>
            <polyline id="Fill-21" points="349.64 99.191 295.198 99.191 295.198 4.661 349.64 4.661 349.64 21.084 315.242 21.084 315.242 41.84 347.247 41.84 347.247 58.262 315.242 58.262 315.242 82.639 349.64 82.639 349.64 99.191"></polyline>
            <path d="M72.71,4.661 C68.177,4.661 63.799,5.313 59.648,6.505 L59.648,24.983 C63.596,23.066 68.027,21.988 72.71,21.988 C89.245,21.988 102.648,35.392 102.648,51.926 C102.648,68.46 89.245,81.865 72.71,81.865 C56.176,81.865 42.773,68.46 42.773,51.926 C42.773,47.99 43.539,44.237 44.92,40.794 L26.777,40.794 C25.914,44.365 25.446,48.09 25.446,51.926 C25.446,78.03 46.607,99.191 72.71,99.191 C98.814,99.191 119.976,78.03 119.976,51.926 C119.976,25.823 98.814,4.661 72.71,4.661" id="Fill-22"></path>
            <g id="Group-27">
                <polyline id="Fill-23" points="53.023 29.655 30.237 34.445 25.447 11.66 48.232 6.869 53.023 29.655"></polyline>
                <polygon id="Fill-25" points="11.806 9.313 21.12 9.313 21.12 0 11.806 0"></polygon>
                <polyline id="Fill-26" points="14.761 31.326 0 27.533 3.793 12.773 18.554 16.566 14.761 31.326"></polyline>
            </g>
        </g>
    </g>
</svg>