<?xml version="1.0" encoding="utf-8"?>
<!-- Generator: Adobe Illustrator 26.2.1, SVG Export Plug-In . SVG Version: 6.00 Build 0)  -->
<svg version="1.1" id="Layer_1" xmlns="http://www.w3.org/2000/svg" xmlns:xlink="http://www.w3.org/1999/xlink" x="0px" y="0px"
	 viewBox="0 0 350 133" style="enable-background:new 0 0 350 133;" xml:space="preserve">
<style type="text/css">
	.st0{fill:#FFFFFF;}
	.st1{fill:#1E70EB;}
	.st2{fill:#4B8DEF;}
	.st3{fill:#D2E2FB;}
	.st4{fill:#A5C6F7;}
	.st5{fill:#78A9F3;}
</style>
<g>
	<g id="Subtitle_00000171697014716552087890000008568781844654944905_">
		<path class="st0" d="M125.6,115.8c5,0,8.4,2.9,8.4,6.8s-3.3,6.8-8.4,6.8c-5.1,0-8.4-2.9-8.4-6.8S120.5,115.8,125.6,115.8z
			 M125.6,116.8c-4.2,0-6.8,2.4-6.8,5.7c0,3.3,2.6,5.7,6.8,5.7c4.1,0,6.8-2.4,6.8-5.7C132.4,119.2,129.7,116.8,125.6,116.8z"/>
		<path class="st0" d="M140.2,116h6.5c3.3,0,5.2,1.8,5.2,3.8c0,2.1-1.9,3.8-5.2,3.8h-5v5.4h-1.5V116z M146.5,117h-4.8v5.6h4.8
			c2.3,0,3.8-1.2,3.8-2.8C150.2,118.2,148.7,117,146.5,117z"/>
		<path class="st0" d="M157.5,116h10.9v1H159v4.8h9.3v1H159v5.2h9.4v1h-10.9V116z"/>
		<path class="st0" d="M176.1,117.8v11.3h-1.5V116h1.5l10.8,11.1V116h1.5v13.1h-1.4L176.1,117.8z"/>
		<path class="st0" d="M204.2,126.5c1,1,2.6,1.8,4.8,1.8c2.7,0,4.3-1.1,4.3-2.8c0-1.9-2-2.6-4.6-2.6c-0.7,0-1.3,0-1.6,0v-1.1
			c0.3,0,0.9,0,1.6,0c2.3,0,4.4-0.7,4.4-2.5c0-1.6-1.9-2.5-4.1-2.5c-2,0-3.4,0.6-4.6,1.7l-0.9-0.7c1.2-1.1,3.1-2,5.6-2
			c3,0,5.5,1.2,5.5,3.4c0,2-2.2,2.9-3.7,3.1c1.5,0.1,3.9,1.1,3.9,3.3c0,2.2-2.1,3.7-5.8,3.7c-2.8,0-4.9-1-5.9-2.2L204.2,126.5z"/>
		<path class="st0" d="M221.1,116h5.5c5.3,0,8.7,3,8.7,6.5c0,3.6-3.4,6.5-8.7,6.5h-5.5V116z M226.6,128c4.5,0,7.1-2.4,7.1-5.5
			s-2.6-5.5-7.1-5.5h-4v11H226.6z"/>
		<path class="st0" d="M250.9,116h10.9v1h-9.4v4.8h9.3v1h-9.3v5.2h9.4v1h-10.9V116z"/>
		<path class="st0" d="M269.5,117.8v11.3H268V116h1.5l10.8,11.1V116h1.5v13.1h-1.4L269.5,117.8z"/>
		<path class="st0" d="M296.7,115.8c2.8,0,4.9,0.9,6.5,2.2l-1.1,0.6c-1.2-1.1-3.2-1.8-5.4-1.8c-4.1,0-7.2,2.3-7.2,5.7
			c0,3.4,3.1,5.8,7.2,5.8c2.3,0,4.1-0.9,5.1-1.6v-3.1h-6.5v-1h8v4.6c-1.5,1.3-3.8,2.2-6.5,2.2c-4.9,0-8.7-2.7-8.7-6.8
			C288,118.5,291.8,115.8,296.7,115.8z"/>
		<path class="st0" d="M309.6,116h1.5v13.1h-1.5V116z"/>
		<path class="st0" d="M319.4,117.8v11.3h-1.5V116h1.5l10.8,11.1V116h1.5v13.1h-1.4L319.4,117.8z"/>
		<path class="st0" d="M338.5,116h10.9v1H340v4.8h9.3v1H340v5.2h9.4v1h-10.9V116z"/>
	</g>
	<g id="Gem">
		<g>
			<g>
				<path class="st1" d="M95.6,84.4l2.8,8.6l2.8,8.6c5.4-6,9.5-13.1,12.1-20.9l-8.9,1.9L95.6,84.4z"/>
				<path class="st1" d="M67.1,105.1l-4.5,7.8l-4.5,7.8c8.4,0,16.4-1.8,23.6-5l-7.3-5.3L67.1,105.1z"/>
				<path class="st1" d="M83.5,97.8l-0.9,8.9l-0.9,9c7.5-3.3,14.1-8.2,19.5-14.2l-8.8-1.9L83.5,97.8z"/>
			</g>
			<g>
				<path class="st2" d="M20.5,84.4l-8.8-1.9l-8.9-1.9c2.5,7.8,6.7,14.9,12.1,20.9l2.8-8.6L20.5,84.4z"/>
				<path class="st2" d="M101.2,67.2l6,6.7l6.1,6.7c1.8-5.6,2.8-11.7,2.8-17.9c0-2-0.1-4.1-0.3-6.1l-7.3,5.3L101.2,67.2z"/>
				<path class="st2" d="M99.3,49.3l8.2,3.7l8.3,3.7c-0.9-8.3-3.5-16.1-7.5-22.9l-4.5,7.8L99.3,49.3z"/>
				<path class="st2" d="M32.6,97.8l-8.8,1.9l-8.8,1.9c5.4,6,12,10.9,19.5,14.2l-0.9-9L32.6,97.8z"/>
				<path class="st2" d="M49,105.1l-7.3,5.3l-7.3,5.3c7.2,3.2,15.2,5,23.6,5c0,0,0,0,0,0l-4.5-7.8L49,105.1z"/>
				<path class="st2" d="M67.1,105.1L67.1,105.1l7.3,5.3l7.3,5.3l0.9-9l0.9-8.9l0,0C78.7,101.3,73.1,103.8,67.1,105.1z"/>
				<path class="st2" d="M95.6,84.4L95.6,84.4c-3.1,5.3-7.2,9.8-12.1,13.4l0,0l8.8,1.9l8.8,1.9c0,0,0,0,0,0l-2.8-8.6L95.6,84.4z"/>
			</g>
			<g>
				<path class="st3" d="M75.7,23L75.7,23l-2.8-8.6l-2.8-8.6l-6.1,6.7l-6,6.7l0,0C64.3,19.3,70.3,20.6,75.7,23z"/>
				<path class="st3" d="M58,19.3L58,19.3l-6-6.7L46,5.9l-2.8,8.6L40.4,23l0,0C45.8,20.6,51.8,19.3,58,19.3z"/>
				<path class="st3" d="M25.8,33.6L25.8,33.6c4.1-4.5,9-8.1,14.6-10.6l0,0l-8.2-3.7l-8.3-3.7c0,0,0,0,0,0l0.9,9L25.8,33.6z"/>
				<path class="st3" d="M25.8,33.7L25.8,33.7l-9,0h-9l4.5,7.8l4.5,7.8l0,0C18.7,43.4,21.8,38.1,25.8,33.7z"/>
				<path class="st3" d="M0.3,56.6l7.3,5.3l7.3,5.3l0,0c-0.2-1.5-0.2-3-0.2-4.5c0-4.7,0.7-9.2,2.1-13.4l0,0l-8.2,3.7L0.3,56.6
					C0.3,56.6,0.3,56.6,0.3,56.6z"/>
			</g>
			<g>
				<path class="st4" d="M25.8,33.6L25.8,33.6L25.8,33.6l-0.9-8.9l-0.9-9c-6.6,4.8-12.1,10.9-16.1,17.9h9H25.8z"/>
				<path class="st4" d="M8.6,52.9l8.2-3.7l0,0l0,0l-4.5-7.8l-4.5-7.8c-4,6.9-6.6,14.7-7.5,22.9L8.6,52.9z"/>
				<path class="st4" d="M40.4,23l2.8-8.6L46,5.9c-8.1,1.7-15.6,5.1-22,9.8l8.3,3.7L40.4,23z"/>
				<path class="st4" d="M58,19.3l6-6.7l6.1-6.7C66.2,5.1,62.2,4.6,58,4.6c-4.1,0-8.2,0.4-12.1,1.3l6.1,6.7L58,19.3z"/>
				<path class="st4" d="M99.3,49.3L99.3,49.3l4.5-7.8l4.5-7.8h-9h-9l0,0C94.3,38.1,97.4,43.4,99.3,49.3z"/>
				<path class="st4" d="M75.7,23L75.7,23c5.6,2.5,10.5,6.1,14.6,10.6h0l0.9-8.9l0.9-9c0,0,0,0,0,0l-8.3,3.7L75.7,23z"/>
				<path class="st4" d="M14.9,67.2L14.9,67.2l-6,6.7l-6.1,6.7l8.8,1.9l8.8,1.9l0,0C17.5,79.2,15.6,73.4,14.9,67.2z"/>
				<path class="st4" d="M32.6,97.8L32.6,97.8c-4.9-3.6-9-8.1-12.1-13.4l0,0l-2.8,8.6l-2.8,8.6c0,0,0,0,0,0l8.8-1.9L32.6,97.8z"/>
			</g>
			<g>
				<path class="st5" d="M14.9,67.2l-7.3-5.3l-7.3-5.3c-0.2,2-0.3,4-0.3,6.1C0,68.9,1,75,2.8,80.6l6.1-6.7L14.9,67.2z"/>
				<path class="st5" d="M90.3,33.6h9l9,0c-4.1-7-9.6-13.2-16.1-17.9l-0.9,9L90.3,33.6z"/>
				<path class="st5" d="M75.7,23l8.2-3.7l8.3-3.7c-6.5-4.7-13.9-8.1-22-9.8l2.8,8.6L75.7,23z"/>
				<path class="st5" d="M67.1,105.1L67.1,105.1c-2.9,0.6-5.9,0.9-9,0.9c-3.1,0-6.1-0.3-9-0.9l0,0l4.5,7.8l4.5,7.8l4.5-7.8
					L67.1,105.1z"/>
				<path class="st5" d="M95.6,84.3L95.6,84.3l8.8-1.9l8.8-1.9l-6.1-6.7l-6-6.7l0,0C100.5,73.4,98.6,79.2,95.6,84.3z"/>
				<path class="st5" d="M101.4,62.7c0,1.5-0.1,3-0.2,4.5l0,0l7.3-5.3l7.3-5.3c0,0,0,0,0,0l-8.3-3.7l-8.2-3.7l0,0
					C100.7,53.5,101.4,58,101.4,62.7z"/>
				<path class="st5" d="M32.6,97.8L32.6,97.8l0.9,8.9l0.9,9l7.3-5.3l7.3-5.3l0,0C43,103.8,37.4,101.3,32.6,97.8z"/>
			</g>
		</g>
	</g>
	<g id="Letters">
		<path class="st0" d="M189.1,19.5h34c27,0,45.7,17.2,45.7,43.2s-18.7,43-45.7,43h-34V19.5z M223,90.1c17.4,0,27.6-12.6,27.6-27.5
			c0-15.6-9.5-27.6-27.6-27.6h-16v55.1H223z"/>
		<g>
			<path class="st0" d="M281,19.5h68.6v15.8h-50.3V54h50.3v15.8h-50.3v20h50.3v15.9H281V19.5z"/>
		</g>
		<path class="st0" d="M171.2,66.4c-3.3-2.9-8-4.9-14-5.9c5-1.5,9-3.8,11.9-7c3.5-3.7,5.2-8.3,5.2-13.7c0-6.4-2.8-11.5-8.3-15.1
			c-5.4-3.5-12.9-5.3-22.2-5.3c-9.5,0-17.9,2-25.2,5.8c2.9,4.6,5.2,9.6,7,14.8c3-1.7,5.8-2.9,8.2-3.7c2.9-0.9,5.9-1.3,8.7-1.3
			c8,0,11.9,2.8,11.9,8.7c0,3.8-1.4,6.4-4.4,8c-3.1,1.6-8,2.4-14.8,2.4h-6.5c0.3,2.8,0.5,5.7,0.5,8.6c0,2.1-0.1,4.2-0.3,6.3h6.2
			c7.3,0,12.7,0.8,16,2.4c3.2,1.5,4.7,4,4.7,7.6c0,4.1-1.3,7-4.1,8.9c-2.8,1.9-7.3,2.8-13.3,2.8c-4,0-8-0.5-12.1-1.5
			c-0.6-0.2-1.3-0.3-1.9-0.5c-1.9,4.9-4.3,9.5-7.2,13.8c6.9,2.3,14.7,3.5,23.2,3.5c11.6,0,20.7-2.3,27-6.8c6.4-4.6,9.6-11,9.6-19.2
			C177,74.3,175,69.7,171.2,66.4z"/>
		<path class="st0" d="M58,19.3c-24,0-43.4,19.4-43.4,43.4S34.1,106,58,106s43.4-19.4,43.4-43.4S82,19.3,58,19.3z M58,90.8
			c-15.5,0-28.1-12.6-28.1-28.1S42.5,34.5,58,34.5s28.1,12.6,28.1,28.1S73.6,90.8,58,90.8z"/>
	</g>
</g>
</svg>
