<?xml version="1.0" encoding="UTF-8"?>
<svg width="16px" height="16px" viewBox="0 0 16 16" version="1.1" xmlns="http://www.w3.org/2000/svg" xmlns:xlink="http://www.w3.org/1999/xlink">
    <title>GemFolder_16</title>
    <g id="GemFolder_16" stroke="none" stroke-width="1" fill="none" fill-rule="evenodd">
        <g id="icon-/-toolbar-/-header-/-folder-copy" transform="translate(0.000000, 2.000000)" fill="#FFFFFF" fill-rule="nonzero">
            <path d="M6.51928226,0.0771289509 L8,1.55784671 L13.922871,1.55784671 C14.7372658,1.55784671 15.4035888,2.2241697 15.4035888,3.03856448 L15.4035888,3.03856448 L15.4035888,10.4421533 C15.4035888,11.2565481 14.7372658,11.922871 13.922871,11.922871 L13.922871,11.922871 L2.07712897,11.922871 C1.2627342,11.922871 0.596411212,11.2565481 0.596411212,10.4421533 L0.596411212,10.4421533 L0.596411212,1.55784671 C0.596411212,0.743451943 1.2627342,0.0771289509 2.07712897,0.0771289509 L2.07712897,0.0771289509 L6.51928226,0.0771289509 Z M10.6474466,3.17024924 L5.35266063,3.17024924 C5.28480333,3.17024924 5.2204357,3.20032389 5.1769005,3.25237481 L3.4354377,5.33452595 C3.36670269,5.41673085 3.3641011,5.53558989 3.4291734,5.62072358 L7.81797443,10.8917378 C7.86132814,10.948436 7.92862608,10.9816946 8,10.9816946 C8.07137392,10.9816946 8.13867186,10.948436 8.18202557,10.8917378 L12.5708272,5.62072358 C12.6358987,5.53558961 12.6332971,5.41673117 12.5645629,5.33452595 L10.8232067,3.25237481 C10.7796722,3.20032299 10.7153041,3.17024924 10.6474466,3.17024924 Z M9.6116541,5.90014988 L7.96009929,9.56477014 L6.30843003,5.90014988 L9.6116541,5.90014988 Z M5.5902946,5.90157707 L7.07912997,9.20480114 L4.23896313,5.90157707 L5.5902946,5.90157707 Z M11.6514348,5.936112 L8.87073705,9.17027422 L10.3283579,5.936112 L11.6514348,5.936112 Z M8.56546702,3.7059018 L9.54426922,5.1750281 L6.37581878,5.1750281 L7.35462098,3.7059018 L8.56546702,3.7059018 Z M10.3174431,3.73131496 L11.6514348,5.14961495 L10.3370498,5.14961495 L9.39205534,3.73131496 L10.3174431,3.73131496 Z M6.52803523,3.73131143 L5.5830361,5.14961848 L4.26865581,5.14961848 L5.60275198,3.73131143 L6.52803523,3.73131143 Z" id="Combined-Shape"></path>
        </g>
    </g>
</svg>