<?xml version="1.0" encoding="UTF-8"?>
<svg width="16px" height="16px" viewBox="0 0 16 16" version="1.1" xmlns="http://www.w3.org/2000/svg" xmlns:xlink="http://www.w3.org/1999/xlink">
    <title>Lua_16</title>
    <defs>
        <path d="M6.84646236,1 L6.84646236,2.25307838 C5.63106789,2.28443352 4.65491484,2.77040047 4.65491484,3.77899081 L4.65491484,5.27583196 C4.65491484,6.39939114 4.06572157,7.71516112 2.88731737,7.91896953 L2.88731737,8.01303448 C4.06572157,8.21684289 4.65491484,9.31808117 4.65491484,10.4416404 L4.65491484,12.1600132 C4.65491484,12.6930505 4.80947899,13.0797581 5.11861193,13.3201475 C5.42774488,13.5605369 6.24933377,13.7199536 6.84646236,13.7304053 L6.84646236,15 C5.84244084,14.9895483 4.62037429,14.8203406 4.07080462,14.3761428 C3.52123494,13.931945 2.94990573,13.2046709 2.94990573,12.399889 L2.94990573,10.2111353 C2.94990573,9.6676462 2.78345203,9.27963216 2.45053963,9.04708154 C2.11762723,8.81453092 1.63411886,8.69825735 1,8.69825735 L1,7.07893651 C1.68696209,7.0684848 2.18368108,6.94306612 2.49017186,6.70267672 C2.79666264,6.46228731 2.94990573,6.09125705 2.94990573,5.58957481 L2.94990573,3.51858997 C2.94990573,2.70858219 3.53180343,2.18166947 4.1025104,1.7322458 C4.67321737,1.28282213 5.88471543,1 6.84646236,1 Z M9.15353764,1 C10.1152846,1 11.3267826,1.28282213 11.8974896,1.7322458 C12.4681966,2.18166947 13.0500943,2.70858219 13.0500943,3.51858997 L13.0500943,3.51858997 L13.0500943,5.58957481 C13.0500943,6.09125705 13.2033374,6.46228731 13.5098281,6.70267672 C13.8163189,6.94306612 14.3130379,7.0684848 15,7.07893651 L15,7.07893651 L15,8.69825735 C14.3658811,8.69825735 13.8823728,8.81453092 13.5494604,9.04708154 C13.216548,9.27963216 13.0500943,9.6676462 13.0500943,10.2111353 L13.0500943,10.2111353 L13.0500943,12.399889 C13.0500943,13.2046709 12.4787651,13.931945 11.9291954,14.3761428 C11.3796257,14.8203406 10.1575592,14.9895483 9.15353764,15 L9.15353764,15 L9.15353764,13.7304053 C9.75066623,13.7199536 10.5722551,13.5605369 10.8813881,13.3201475 C11.190521,13.0797581 11.3450852,12.6930505 11.3450852,12.1600132 L11.3450852,12.1600132 L11.3450852,10.4416404 C11.3450852,9.31808117 11.9342784,8.21684289 13.1126826,8.01303448 L13.1126826,8.01303448 L13.1126826,7.91896953 C11.9342784,7.71516112 11.3450852,6.39939114 11.3450852,5.27583196 L11.3450852,5.27583196 L11.3450852,3.77899081 C11.3450852,2.77040047 10.3689321,2.28443352 9.15353764,2.25307838 L9.15353764,2.25307838 Z" id="path-1"></path>
    </defs>
    <g id="Lua_16" stroke="none" stroke-width="1" fill="none" fill-rule="evenodd">
        <mask id="mask-2" fill="white">
            <use xlink:href="#path-1"></use>
        </mask>
        <use id="Combined-Shape" fill="#FFFFFF" xlink:href="#path-1"></use>
    </g>
</svg>