<?xml version="1.0" encoding="UTF-8"?>
<svg width="16px" height="16px" viewBox="0 0 16 16" version="1.1" xmlns="http://www.w3.org/2000/svg" xmlns:xlink="http://www.w3.org/1999/xlink">
    <title>NonWritable_16</title>
    <g id="NonWritable_16" stroke="none" stroke-width="1" fill="none" fill-rule="evenodd">
        <g id="Icons-/-System-/-Locked" transform="translate(0.000000, 8.000000)">
            <rect id="Icon-Background" x="0" y="0" width="8" height="8"></rect>
            <path d="M4,0.593347843 C4.92047458,0.593347843 5.66666667,1.33953993 5.66666667,2.26001451 L5.66666667,3.66666667 L6.66666667,3.66666667 L6.66666667,7.33333333 L1.33333333,7.33333333 L1.33333333,3.66666667 L2.33333333,3.66666667 L2.33333333,2.26001451 C2.33333333,1.33953993 3.07952542,0.593347843 4,0.593347843 Z M4.33333333,5 L3.66666667,5 L3.66666667,6 L4.33333333,6 L4.33333333,5 Z M4,1.55416205 C3.53173244,1.55416205 3.15212658,1.93376791 3.15212658,2.40203547 L3.15212658,2.40203547 L3.15212658,3.53253337 L4.84787342,3.53253337 L4.84787342,2.40203547 C4.84787342,1.93376791 4.46826756,1.55416205 4,1.55416205 Z" id="Combined-Shape" fill="#FF0000"></path>
        </g>
    </g>
</svg>