<svg id="Layer_1" data-name="Layer 1" xmlns="http://www.w3.org/2000/svg" viewBox="0 0 24 24"><title>help</title><g id="Final"><g id="help"><rect id="Icon-Background" width="24" height="24" fill="none"/><path id="Shape" d="M12,2A10,10,0,1,0,22,12,10,10,0,0,0,12,2Zm0,18.18A8.18,8.18,0,1,1,20.18,12,8.14,8.14,0,0,1,12,20.18Z" fill="#e9e9e9"/><polygon id="Shape-2" data-name="Shape" points="9.82 7.36 8.64 8.54 9.91 9.82 10.54 9.18 13.46 9.18 13.82 9.54 13.82 10.64 13.46 11 11.09 11 11.09 13.73 12.91 13.73 12.91 12.82 14.18 12.82 15.64 11.36 15.64 8.82 14.18 7.36 9.82 7.36" fill="#e9e9e9"/><rect id="Rectangle-path" x="11.09" y="14.64" width="1.82" height="1.82" fill="#e9e9e9"/></g></g></svg>
