<?xml version="1.0" encoding="UTF-8"?>
<svg width="16px" height="16px" viewBox="0 0 16 16" version="1.1" xmlns="http://www.w3.org/2000/svg" xmlns:xlink="http://www.w3.org/1999/xlink">
    <!-- Generator: Sketch 59.1 (86144) - https://sketch.com -->
    <title>Artboard</title>
    <desc>Created with Sketch.</desc>
    <g id="Artboard" stroke="none" stroke-width="1" fill="none" fill-rule="evenodd">
        <path d="M8,1.48235749 C9.79979728,1.48235749 11.2588213,2.94138146 11.2588213,4.74117875 L11.257886,7.34735749 L13.214114,7.34823575 L13.214114,14.5176425 L2.78588599,14.5176425 L2.78588599,7.34823575 L9.95488599,7.34735749 L9.95529275,4.74117875 C9.95529275,3.66130038 9.07987837,2.78588599 8,2.78588599 C7.59228089,2.78588599 7.00324851,2.90054702 6.5183454,3.34844343 C6.38937757,3.46756874 6.25806396,3.71832946 6.12440459,4.10072562 L4.75782443,4.10072562 C4.80677127,3.87757947 4.84859733,3.7202004 4.8833026,3.62858842 C4.9635721,3.41669999 5.17415219,3.0404071 5.24109989,2.94801197 C6.15509103,1.68660458 7.10445224,1.48235749 8,1.48235749 Z M11.9105855,8.65176425 L4.0894145,8.65176425 L4.0894145,13.214114 L11.9105855,13.214114 L11.9105855,8.65176425 Z M8.65176425,9.95529275 L8.65176425,11.9105855 L7.34823575,11.9105855 L7.34823575,9.95529275 L8.65176425,9.95529275 Z" id="Combined-Shape-Copy-4" fill="#E9E9E9"></path>
    </g>
</svg>
