<?xml version="1.0" encoding="UTF-8"?>
<svg width="24px" height="24px" viewBox="0 0 24 24" version="1.1" xmlns="http://www.w3.org/2000/svg" xmlns:xlink="http://www.w3.org/1999/xlink">
    <!-- Generator: Sketch 50.2 (55047) - http://www.bohemiancoding.com/sketch -->
    <title>Search</title>
    <desc>Created with Sketch.</desc>
    <defs></defs>
    <g id="Search" stroke="none" stroke-width="1" fill="none" fill-rule="evenodd">
        <rect id="Icon-Background" x="0" y="0" width="24" height="24"></rect>
        <path d="M20.9694824,19.6604004 L16.3757324,15.0666504 C17.4069824,13.7541504 17.9694824,12.1604004 17.9694824,10.4729004 C17.9694824,6.34790039 14.5944824,2.97290039 10.4694824,2.97290039 C6.34448242,2.97290039 2.96948242,6.34790039 2.96948242,10.4729004 C2.96948242,14.5979004 6.34448242,17.9729004 10.4694824,17.9729004 C12.1569824,17.9729004 13.7507324,17.4104004 15.0632324,16.3791504 L19.6569824,20.9729004 L20.9694824,19.6604004 Z M10.4694824,16.0979004 C7.37573242,16.0979004 4.84448242,13.5666504 4.84448242,10.4729004 C4.84448242,7.37915039 7.37573242,4.84790039 10.4694824,4.84790039 C13.5632324,4.84790039 16.0944824,7.37915039 16.0944824,10.4729004 C16.0944824,13.5666504 13.5632324,16.0979004 10.4694824,16.0979004 Z" id="Shape" fill="#000000" fill-rule="nonzero"></path>
    </g>
</svg>
