<?xml version="1.0" encoding="UTF-8"?>
<svg width="24px" height="24px" viewBox="0 0 24 24" version="1.1" xmlns="http://www.w3.org/2000/svg" xmlns:xlink="http://www.w3.org/1999/xlink">
    <title>icon / Networking / AnimGraphNetSync</title>
    <defs>
        <path d="M15.049674,6.47369367 C15.4432627,6.6892261 15.7604258,7.03456112 15.9372202,7.4597408 L18.2809307,10.7388937 L20.5360597,13.1099302 L19.1977985,14.5962199 L16.7162512,11.9890965 L16.6986951,12 L16.5958385,11.8625904 L16.3813051,11.6372009 L16.4079396,11.6115701 L15.3771738,10.2345359 L13.8743689,13.609891 L16.5991717,16 L16.6094599,16 L16.6094599,22 L14.6094599,22 L14.6094599,16.9335637 L11.6612465,14.4145916 L11.3980432,14.2974059 L10.0226048,17.3866912 L9.249451,19.1359308 L3.60945994,15.6954658 L4.66929847,13.9993696 L8.35173206,16.2223461 L9.57095227,13.4839327 L9.55505528,13.4768549 L11.6580994,8.75334034 L10.0814102,9.12452852 L8.49311047,12.0950967 L6.74387106,11.1254774 L8.75357795,7.42096143 L8.74387106,7.3871095 L13.8051816,6.24191249 L13.8065756,6.24907236 L13.8467182,6.24373869 C14.2785593,6.19071527 14.6951248,6.27953958 15.049674,6.47369367 Z M13.5987889,17.6350711 C13.572509,17.9597225 13.6285826,18.2952382 13.6964241,18.6560991 C13.1795955,18.7733829 12.6442829,18.8412727 12.0958161,18.8565495 L11.6150583,18.8565495 C11.275482,18.8469001 10.9409546,18.8170831 10.6126317,18.7682539 C10.670507,18.4605621 10.7266734,18.1354685 10.7972551,17.8226088 C11.1428332,17.8726889 11.4972759,17.8983461 11.8577112,17.8983461 C12.4404519,17.8983461 13.0075283,17.8312796 13.5516431,17.704444 L13.5516431,17.704444 Z M11.647504,16.2486556 C11.7899433,16.1769877 11.9536953,16.1729445 12.1289629,16.2145006 L12.1295992,17.8915701 L11.6488414,17.8915701 Z M18.076658,14.5384251 C18.3408687,14.8129591 18.5792009,15.0601343 18.7602727,15.2490003 C18.4630094,15.6715982 18.1302432,16.0674992 17.7642931,16.4299561 C17.760008,16.1031617 17.6330796,15.7725209 17.3827022,15.4371459 C17.6213444,15.172391 17.84157,14.889567 18.0408193,14.59153 Z M15.7132934,12 C15.7720323,12.0788945 15.8816793,12.2068494 16.0267203,12.3685635 C15.9587005,12.9569594 15.8529563,13.5224281 15.7151024,14.0660205 C15.5766074,13.9827778 15.431612,13.8997912 15.2796434,13.8165372 C15.4086802,13.2916983 15.5049326,12.7449573 15.5663281,12.177658 Z M11.8577112,2.07231992 C12.3964417,2.07231992 12.9233182,2.12307294 13.4338202,2.22005843 C13.3482946,2.46634834 13.3291871,2.80942794 13.3257056,3.18009412 C12.9372153,3.10094608 12.5375985,3.05338777 12.1295992,3.03871626 L12.1295992,3.03871626 L12.1285895,5.46156689 C11.9512681,5.48541444 11.7949663,5.52203287 11.647511,5.56512663 L11.6488414,3.03671385 C11.1516919,3.05043211 10.6667409,3.11297065 10.1986107,3.21970705 L10.1986107,3.21970705 L10.2319111,3.24530673 C10.1658846,3.3311949 10.0462903,3.50418212 9.89087978,3.75915386 C9.62977538,4.1875304 9.36819157,4.68780657 9.12380485,5.25485042 C9.01341424,5.51098675 8.90999389,5.77227871 8.81409497,6.03857038 C8.92044292,6.05347287 9.02990059,6.06739803 9.14251161,6.08031397 C8.59089467,6.2854912 8.24016554,6.82439202 7.90471412,7.41951697 C7.98348273,7.07932431 8.07527683,6.74650702 8.17795828,6.42043512 C7.70466339,6.32943083 7.29881452,6.21619073 6.95569933,6.08380127 C6.60329126,5.9478262 6.34968167,5.80643758 6.17669795,5.67370956 C5.25272496,6.7678951 4.63912903,8.13267068 4.47171053,9.63223592 L4.47171053,9.63223592 L6.46106208,9.63135388 C6.39057266,9.78245667 6.33155,9.94284808 6.28399409,10.1125281 L4.43369564,10.1129937 C4.42822282,10.2300057 4.42545584,10.3477251 4.42545584,10.4660908 C4.42545584,11.3842275 4.59193882,12.26348 4.89636373,13.0753073 C4.4091113,12.7914229 4.00443311,12.6090845 3.7852425,12.7756598 C3.57626503,12.0427631 3.46394029,11.2675444 3.46394029,10.4660908 C3.46394029,5.83033915 7.22195951,2.07231992 11.8577112,2.07231992 Z M20.251482,10.4660908 C20.251482,10.7723701 20.2350779,11.0748181 20.2031002,11.3726039 C19.9170941,11.0443975 19.6050883,10.7000998 19.2884819,10.3539205 L19.2878989,10.2890346 L19.2878989,10.2890346 L19.2817267,10.1129937 L19.0676605,10.1128629 C18.9200071,9.95185943 18.7724397,9.79115444 18.6271237,9.6321612 L19.2437118,9.63223592 C19.0902448,8.25763436 18.5618648,6.99629356 17.7631727,5.95281444 C18.0066226,5.74364905 18.2476986,5.51417296 18.4443564,5.26451895 C19.5763742,6.69409029 20.251482,8.5012506 20.251482,10.4660908 Z M15.7438711,2 C16.8484406,2 17.7438711,2.8954305 17.7438711,4 C17.7438711,5.1045695 16.8484406,6 15.7438711,6 C14.6393016,6 13.7438711,5.1045695 13.7438711,4 C13.7438711,2.8954305 14.6393016,2 15.7438711,2 Z M9.54775478,3.39980534 C8.37597945,3.78261085 7.33234419,4.44876384 6.49779749,5.31731583 C6.62432768,5.40795739 6.82688388,5.51879497 7.12876186,5.63527324 C7.46055004,5.76329221 7.85977995,5.87292013 8.33153044,5.96044351 C8.43917765,5.65550174 8.55635657,5.35680658 8.68230527,5.06457125 C8.93591679,4.47612336 9.20790254,3.95595361 9.48036769,3.50893822 C9.50354598,3.47091116 9.52602488,3.43452899 9.54775478,3.39980534 Z" id="path-1"></path>
    </defs>
    <g id="icon-/-Networking-/-AnimGraphNetSync" stroke="none" stroke-width="1" fill="none" fill-rule="evenodd">
        <mask id="mask-2" fill="white">
            <use xlink:href="#path-1"></use>
        </mask>
        <use id="Combined-Shape" fill="#D179BD" fill-rule="nonzero" xlink:href="#path-1"></use>
    </g>
</svg>