<?xml version="1.0" encoding="UTF-8"?>
<svg width="24px" height="24px" viewBox="0 0 24 24" version="1.1" xmlns="http://www.w3.org/2000/svg" xmlns:xlink="http://www.w3.org/1999/xlink">
    <title>icon / Rendering / AreaLight</title>
    <defs>
        <path d="M11.9641749,17.7856148 C13.3257638,17.7856148 14.6875407,17.7783003 16.0491297,17.7914288 C16.3488653,17.7943359 16.4603031,17.7128449 16.4576722,17.3984152 C16.4447995,15.7896941 16.4434841,14.180598 16.4586739,12.571877 C16.4617125,12.2379419 16.3492412,12.1518559 16.0274247,12.153154 C13.3355358,12.1641405 10.6434589,12.1639529 7.95147605,12.1537314 C7.63416972,12.1525123 7.51427548,12.2310963 7.51775203,12.5700952 C7.53391333,14.1631557 7.53560462,15.7566851 7.51681242,17.3497456 C7.51267814,17.7094689 7.62994148,17.7972429 7.97318104,17.7926479 C9.30329307,17.7749243 10.633781,17.7854272 11.9641749,17.7856148 M17.417318,10.9086252 C17.7666558,10.9054384 17.8832382,10.9838127 17.8807817,11.3429203 C17.8645073,13.7157593 17.8639955,16.0886978 17.88123,18.4615367 C17.8838524,18.8295075 17.7500743,18.8904542 17.4115861,18.8894708 C13.795996,18.8789022 10.1802011,18.8790018 6.564611,18.8894708 C6.2227451,18.8905538 6.09193533,18.8201464 6.09439186,18.4560595 C6.11066631,16.0832205 6.11107573,13.7101824 6.09415129,11.3373435 C6.09152591,10.9653893 6.2368701,10.9075297 6.57044524,10.9099198 C8.37813795,10.9229656 10.1860354,10.9160941 11.9938304,10.9161937 C13.8017279,10.9162933 15.6096253,10.9251565 17.417318,10.9086252 Z M22.1425293,14.3060428 C22.374268,14.3060428 22.5118219,14.5294084 22.5047846,14.9512705 C22.4975837,15.3784726 22.3426821,15.5574398 22.1177352,15.5546935 C21.6685779,15.5487431 21.2193388,15.5528626 20.7701815,15.5520997 C20.3074407,15.5513369 19.8445362,15.5508792 19.3817953,15.5514894 C19.1635584,15.551642 19.006693,15.4184465 19.0050422,14.9494396 C19.0034198,14.498894 19.1435922,14.3084839 19.3658388,14.3072634 C20.2914023,14.3023811 21.2169658,14.3060428 22.1425293,14.3060428 Z M1.5732486,14.2740399 C2.45849733,14.283445 3.34374605,14.2832933 4.2289129,14.274495 C4.46463535,14.2720679 4.64705619,14.3991879 4.65303318,14.880211 C4.65966517,15.415389 4.46078715,15.5305251 4.21106382,15.5232438 C3.76172559,15.5100464 3.3122236,15.5194514 2.86280349,15.5200582 C2.44056637,15.5205133 2.01832926,15.5120184 1.5962559,15.5236989 C1.34882511,15.5305251 1.1478183,15.4252492 1.15330403,14.8840033 C1.15821662,14.3997946 1.33637988,14.2714611 1.5732486,14.2740399 Z M20.7135484,6.70057394 C21.0527418,7.06128361 20.9487352,7.29258258 20.7637641,7.472642 C20.4277314,7.79926079 20.0995557,8.13398532 19.7684748,8.46568023 C19.4373938,8.79737514 19.1024646,9.12534621 18.7759482,9.46148123 C18.5895017,9.65324859 18.3364452,9.71025034 17.9918223,9.36377019 C17.6470031,9.01707701 17.7132609,8.7594714 17.896424,8.57548973 C18.5577673,7.91128131 19.2202984,7.24813627 19.885837,6.58812318 C20.0794937,6.39610373 20.3398031,6.30319801 20.7135484,6.70057394 Z M4.09437258,6.58988655 C4.42099138,6.92591925 4.7557159,7.25409497 5.08741081,7.58517593 C5.41910572,7.91625689 5.74707679,8.25118606 6.08321182,8.57770253 C6.27497917,8.76414899 6.33198093,9.01720546 5.98550077,9.36182841 C5.6388076,9.70664764 5.38120199,9.64038979 5.19722031,9.45722672 C4.53301189,8.7958834 3.86986686,8.13335232 3.20985377,7.46781367 C3.01783431,7.27415702 2.9249286,7.01384759 3.32230453,6.64010226 C3.68301419,6.30090887 3.91431317,6.40491553 4.09437258,6.58988655 Z M12.0304506,3.67725265 C12.5253568,3.69246695 12.615366,3.92956384 12.611893,4.18767934 C12.6052364,4.6562447 12.6098671,5.12498596 12.6103012,5.59363927 C12.6107353,6.06229258 12.6058152,6.53103384 12.6126166,6.99959921 C12.616379,7.26703676 12.4777474,7.48628103 11.9890637,7.48496779 C11.5000906,7.48364271 11.3647873,7.25463667 11.3642084,6.99502612 C11.3621825,6.0577195 11.3617484,5.12032493 11.3656555,4.18301831 C11.3668132,3.91030412 11.4851855,3.6605433 12.0304506,3.67725265 Z" id="path-1"></path>
    </defs>
    <g id="icon-/-Rendering-/-AreaLight" stroke="none" stroke-width="1" fill="none" fill-rule="evenodd">
        <mask id="mask-2" fill="white">
            <use xlink:href="#path-1"></use>
        </mask>
        <use id="Combined-Shape" fill="#B29EDF" xlink:href="#path-1"></use>
    </g>
</svg>