<?xml version="1.0" encoding="UTF-8"?>
<svg width="24px" height="24px" viewBox="0 0 24 24" version="1.1" xmlns="http://www.w3.org/2000/svg" xmlns:xlink="http://www.w3.org/1999/xlink">
    <title>icon / Animation / Attachment</title>
    <defs>
        <path d="M5.12085575,9.92719073 C3.52225029,9.92719073 2.22632452,8.63126496 2.22632452,7.0326595 C2.22632452,5.43405404 3.52225029,4.13812826 5.12085575,4.13812826 C6.71946121,4.13812826 8.01538699,5.43405404 8.01538699,7.0326595 C8.01538699,8.63126496 6.71946121,9.92719073 5.12085575,9.92719073 Z M19.1800075,20.6783068 C17.581402,20.6783068 16.2854762,19.382381 16.2854762,17.7837755 C16.2854762,16.1851701 17.581402,14.8892443 19.1800075,14.8892443 C20.7786129,14.8892443 22.0745387,16.1851701 22.0745387,17.7837755 C22.0745387,19.382381 20.7786129,20.6783068 19.1800075,20.6783068 Z M7.83518264,9.6379601 L8.42681801,8.86555959 L9.97161904,10.0488303 L9.37998367,10.8212308 L7.83518264,9.6379601 Z M10.1523842,11.4128662 L10.7440196,10.6404657 L12.2888206,11.8237364 L11.6971852,12.5961369 L10.1523842,11.4128662 Z M12.4695857,13.1877723 L13.0612211,12.4153718 L14.6060221,13.5986425 L14.0143868,14.371043 L12.4695857,13.1877723 Z M14.7867873,14.9626784 L15.3784226,14.1902779 L16.9232237,15.3735486 L16.3315883,16.1459491 L14.7867873,14.9626784 Z" id="path-1"></path>
    </defs>
    <g id="icon-/-Animation-/-Attachment" stroke="none" stroke-width="1" fill="none" fill-rule="evenodd">
        <mask id="mask-2" fill="white">
            <use xlink:href="#path-1"></use>
        </mask>
        <use id="Combined-Shape" fill="#5AA9D2" xlink:href="#path-1"></use>
    </g>
</svg>