<?xml version="1.0" encoding="UTF-8"?>
<svg width="24px" height="24px" viewBox="0 0 24 24" version="1.1" xmlns="http://www.w3.org/2000/svg" xmlns:xlink="http://www.w3.org/1999/xlink">
    <!-- Generator: Sketch 53.2 (72643) - https://sketchapp.com -->
    <title>icon / Audio / Audio Area  Environment</title>
    <desc>Created with Sketch.</desc>
    <defs>
        <path d="M20.1493763,19.7230415 L20.1493763,3.83676722 L3.78023646,3.83676722 L3.78023646,19.7230415 L20.1493763,19.7230415 Z M20.1493763,20.7370591 L3.78023646,20.7370591 L3.78023646,22.668521 L2.76621895,22.668521 L2.76621895,20.7370591 L1.3176225,20.7370591 L1.3176225,19.7230415 L2.76621895,19.7230415 L2.76621895,3.83676722 L1.3176225,3.83676722 L1.3176225,2.82274971 L2.76621895,2.82274971 L2.76621895,1.37415326 L3.78023646,1.37415326 L3.78023646,2.82274971 L20.1493763,2.82274971 L20.1493763,1.37415326 L21.1633938,1.37415326 L21.1633938,2.82274971 L22.6103656,2.82274971 L22.6103656,3.83676722 L21.1633938,3.83676722 L21.1633938,19.7230415 L22.6103656,19.7230415 L22.6103656,20.7370591 L21.1633938,20.7370591 L21.1633938,22.668521 L20.1493763,22.668521 L20.1493763,20.7370591 Z M18.7249231,10.5727407 L19.2319318,10.5727407 L19.2319318,12.9870681 L18.7249231,12.9870681 L18.7249231,10.5727407 Z M5.68755511,11.0556062 L6.19456386,11.0556062 L6.19456386,12.5042026 L5.68755511,12.5042026 L5.68755511,11.0556062 Z M17.2763267,11.0556062 L17.7833354,11.0556062 L17.7833354,12.5042026 L17.2763267,12.5042026 L17.2763267,11.0556062 Z M7.13615155,10.5727407 L7.6431603,10.5727407 L7.6431603,12.9870681 L7.13615155,12.9870681 L7.13615155,10.5727407 Z M15.8277302,10.5727407 L16.334739,10.5727407 L16.334739,12.9870681 L15.8277302,12.9870681 L15.8277302,10.5727407 Z M8.58474799,9.12414423 L9.09175675,9.12414423 L9.09175675,14.4356645 L8.58474799,14.4356645 L8.58474799,9.12414423 Z M14.3791338,9.12414423 L14.8861425,9.12414423 L14.8861425,14.4356645 L14.3791338,14.4356645 L14.3791338,9.12414423 Z M10.0333444,6.22695135 L10.5403532,6.22695135 L10.5403532,17.3328574 L10.0333444,17.3328574 L10.0333444,6.22695135 Z M12.9305373,6.70981683 L13.4375461,6.70981683 L13.4375461,17.8157229 L12.9305373,17.8157229 L12.9305373,6.70981683 Z M11.4819409,4.29548942 L11.9889496,4.29548942 L11.9889496,19.2643193 L11.4819409,19.2643193 L11.4819409,4.29548942 Z M4.52867795,10.5727407 L5.03568671,10.5727407 L5.03568671,12.9870681 L4.52867795,12.9870681 L4.52867795,10.5727407 Z" id="path-1"></path>
    </defs>
    <g id="icon-/-Audio-/-Audio-Area--Environment" stroke="none" stroke-width="1" fill="none" fill-rule="evenodd">
        <mask id="mask-2" fill="white">
            <use xlink:href="#path-1"></use>
        </mask>
        <use id="Combined-Shape" fill="#DF9557" xlink:href="#path-1"></use>
    </g>
</svg>