<?xml version="1.0" encoding="UTF-8"?>
<svg width="24px" height="24px" viewBox="0 0 24 24" version="1.1" xmlns="http://www.w3.org/2000/svg" xmlns:xlink="http://www.w3.org/1999/xlink">
    <title>icon / Audio / AudioAnimationEventsProxy</title>
    <g id="icon-/-Audio-/-AudioAnimationEventsProxy" stroke="none" stroke-width="1" fill="none" fill-rule="evenodd">
        <path d="M10.6,18.8501837 L10.6,20.8501837 L13.4,20.8501837 L13.4,18.8501837 L10.6,18.8501837 Z M14.5560317,18.8501837 L14.5560317,20.8501837 L17.3560317,20.8501837 L16.4479179,19.8501837 L17.3560317,18.8501837 L14.5560317,18.8501837 Z M3.79702045,17.37531 L6.27189419,19.8501837 L3.79702045,22.3250574 L1.32214672,19.8501837 L3.79702045,17.37531 Z M20.2029795,17.37531 L22.6778533,19.8501837 L20.2029795,22.3250574 L17.7281058,19.8501837 L20.2029795,17.37531 Z M9.44396834,18.8501837 L9.44396834,20.8501837 L6.64396834,20.8501837 L7.55208208,19.8501837 L6.64396834,18.8501837 L9.44396834,18.8501837 Z M12,2.9629324 L7.1028973,4.31152442 L7.1028973,13.6712754 L12,16.1201934 L12,6.45443512 L16.8971027,4.31152442 L12,2.9629324 Z M18.1520313,3.68396613 L18.1520313,14.2988336 L12,17.37531 L5.84796867,14.2988336 L5.84796867,3.68396613 L12,2.09479475 L18.1520313,3.68396613 Z M12.4082377,6.84868858 L12.4082377,16.713906 L11.7807734,16.713906 L11.7807734,6.84333874 L6.49900254,4.80708901 L6.7953934,4.26394696 L12.0997358,6.31207657 L17.0541547,4.26817209 L17.3660694,4.80286388 L12.4082377,6.84868858 Z M15.2193583,9.04081364 C15.9258956,8.83320244 16.3715544,8.18503342 16.2751635,7.3648751 C16.1787726,6.54471679 15.6858976,6.07643165 15.0252764,6.21423905 C14.3646553,6.35204645 13.8983017,7.05393555 13.8983017,7.82030812 C13.8983017,8.58668069 14.5128209,9.24842484 15.2193583,9.04081364 Z M15.4020263,14.2751389 C16.5178205,13.9472703 17.221624,12.923654 17.0693993,11.6284247 C16.9171747,10.3331955 16.1388053,9.59365951 15.095524,9.81129087 C14.0522426,10.0289222 13.315757,11.1373757 13.315757,12.3476641 C13.315757,13.5579526 14.2862322,14.6030074 15.4020263,14.2751389 Z" id="Combined-Shape" fill="#DF9557" fill-rule="nonzero"></path>
    </g>
</svg>