<?xml version="1.0" encoding="UTF-8"?>
<svg width="24px" height="24px" viewBox="0 0 24 24" version="1.1" xmlns="http://www.w3.org/2000/svg" xmlns:xlink="http://www.w3.org/1999/xlink">
    <title>icon / Audio / AudioRtpc</title>
    <defs>
        <path d="M17.5213734,17.4167143 C16.9197823,17.4797543 16.308297,17.4783416 15.720839,17.3842135 C14.5130191,17.1906854 13.5734582,16.6243468 13.0630755,15.5972458 L13.9111365,15.1758309 C14.2687337,15.8954643 14.9398727,16.3000064 15.8706642,16.4491465 C16.3827674,16.5312005 16.9321986,16.5295115 17.4747027,16.4691154 C17.6491354,15.4006091 18.5764981,14.5851243 19.6943274,14.5851243 C20.9364771,14.5851243 21.9434385,15.5920856 21.9434385,16.8342353 C21.9434385,18.0763851 20.9364771,19.0833464 19.6943274,19.0833464 C18.6536199,19.0833464 17.7780042,18.3765046 17.5213734,17.4167143 L17.5213734,17.4167143 Z M18.4649687,17.2644794 C18.6426459,17.7721997 19.1259604,18.1363523 19.6943274,18.1363523 C20.4134667,18.1363523 20.9964443,17.5533747 20.9964443,16.8342353 C20.9964443,16.115096 20.4134667,15.5321184 19.6943274,15.5321184 C19.0520957,15.5321184 18.5184596,15.9970717 18.4116665,16.6087309 L18.5772671,17.2370912 C18.5459621,17.2453414 18.5083963,17.2545662 18.4649687,17.2644794 L18.4649687,17.2644794 Z M6.41269282,7.75955074 C6.48530035,7.74554426 6.56620141,7.73105601 6.65462238,7.71664096 C7.41334843,7.59294773 8.20368929,7.5617412 8.95475585,7.68208411 C10.1625758,7.87561231 11.1021367,8.44195087 11.6125194,9.46905189 L10.7644584,9.89046678 C10.4068612,9.17083331 9.73572217,8.76629123 8.80493068,8.61715112 C8.16829992,8.51514419 7.47397986,8.54255934 6.80699687,8.65129593 C6.70920885,8.66723807 6.62294762,8.68306303 6.54988526,8.69766867 C6.47287876,9.8700561 5.49754262,10.7971477 4.30567263,10.7971477 C3.06352288,10.7971477 2.05656155,9.79018638 2.05656155,8.54803663 C2.05656155,7.30588688 3.06352288,6.29892555 4.30567263,6.29892555 C5.27039587,6.29892555 6.09325469,6.90631937 6.41269282,7.75955074 L6.41269282,7.75955074 Z M6.52399202,16.4612087 C6.64215608,16.4441001 6.77431579,16.4229376 6.91828166,16.3971941 C7.58783099,16.2774677 8.25666476,16.0998341 8.87630612,15.8546154 C10.5778142,15.1812557 11.5572814,14.1562214 11.5572814,12.6911362 C11.5572814,9.97039983 12.8250527,8.42109955 14.890389,7.87698913 C15.7865707,7.64089109 16.7255021,7.6190278 17.6008433,7.72430547 C17.9295241,6.8896413 18.7429412,6.29892555 19.6943274,6.29892555 C20.9364771,6.29892555 21.9434385,7.30588688 21.9434385,8.54803663 C21.9434385,9.79018638 20.9364771,10.7971477 19.6943274,10.7971477 C18.4896709,10.7971477 17.5062192,9.85005756 17.4479474,8.65985241 C16.692317,8.57312646 15.8820418,8.59504544 15.1316418,8.79273744 C13.4716819,9.23005193 12.5042755,10.4122864 12.5042755,12.6911362 C12.5042755,14.6201354 11.2485651,15.9342643 9.224777,16.7351641 C8.54056471,17.0059362 7.81241243,17.199324 7.0849757,17.3294017 C6.86820908,17.3681631 6.66439824,17.3988727 6.47707086,17.4225015 C6.21847349,18.3793446 5.34428727,19.0833464 4.30567263,19.0833464 C3.06352288,19.0833464 2.05656155,18.0763851 2.05656155,16.8342353 C2.05656155,15.5920856 3.06352288,14.5851243 4.30567263,14.5851243 C5.42074309,14.5851243 6.34628588,15.3965887 6.52399202,16.4612087 L6.52399202,16.4612087 Z M4.30567263,9.85015357 C5.02481196,9.85015357 5.60778957,9.26717596 5.60778957,8.54803663 C5.60778957,7.8288973 5.02481196,7.24591969 4.30567263,7.24591969 C3.5865333,7.24591969 3.00355569,7.8288973 3.00355569,8.54803663 C3.00355569,9.26717596 3.5865333,9.85015357 4.30567263,9.85015357 Z M4.30567263,18.1363523 C5.02481196,18.1363523 5.60778957,17.5533747 5.60778957,16.8342353 C5.60778957,16.115096 5.02481196,15.5321184 4.30567263,15.5321184 C3.5865333,15.5321184 3.00355569,16.115096 3.00355569,16.8342353 C3.00355569,17.5533747 3.5865333,18.1363523 4.30567263,18.1363523 Z M19.6943274,9.85015357 C20.4134667,9.85015357 20.9964443,9.26717596 20.9964443,8.54803663 C20.9964443,7.8288973 20.4134667,7.24591969 19.6943274,7.24591969 C18.975188,7.24591969 18.3922104,7.8288973 18.3922104,8.54803663 C18.3922104,9.26717596 18.975188,9.85015357 19.6943274,9.85015357 Z" id="path-1"></path>
    </defs>
    <g id="icon-/-Audio-/-AudioRtpc" stroke="none" stroke-width="1" fill="none" fill-rule="evenodd">
        <mask id="mask-2" fill="white">
            <use xlink:href="#path-1"></use>
        </mask>
        <use id="Shape" fill="#DF9557" fill-rule="nonzero" xlink:href="#path-1"></use>
    </g>
</svg>