<?xml version="1.0" encoding="UTF-8"?>
<svg width="24px" height="24px" viewBox="0 0 24 24" version="1.1" xmlns="http://www.w3.org/2000/svg" xmlns:xlink="http://www.w3.org/1999/xlink">
    <title>icon / Audio / AudioProxy</title>
    <defs>
        <path d="M12.6629004,2.20655653 C12.7302237,2.24596805 12.7939587,2.29392864 12.8525458,2.35045228 L15.218991,4.63355271 C15.2232143,4.63762725 15.227401,4.64173955 15.2315506,4.64588913 C15.6151373,5.02947587 15.6151373,5.65139285 15.2315506,6.03497958 L15.218989,6.04754114 C14.833405,6.43312514 14.2099948,6.43871212 13.8175621,6.06010067 L13.0837445,5.35212769 L13.0837445,9.02480771 C14.1313744,9.23450178 15.0777343,9.72458491 15.8412399,10.4134728 L18.7921077,8.7097885 L17.8120763,8.4282703 C17.2879728,8.27771934 16.9811062,7.7350368 17.1222397,7.20831926 L17.1268376,7.19115986 C17.2672401,6.66717063 17.805836,6.35621214 18.3298252,6.49661463 C18.3354936,6.49813348 18.3411483,6.4997031 18.3467886,6.5013233 L21.5072342,7.40917478 C21.5854786,7.43165083 21.6588813,7.46286673 21.7266743,7.50146459 C22.1617777,7.69563794 22.4070985,8.1789301 22.2884446,8.65578009 L21.4944442,11.846732 C21.4930272,11.8524267 21.4915592,11.8581087 21.4900403,11.8637771 C21.3496378,12.3877663 20.8110419,12.6987248 20.2870527,12.5583223 L20.2698933,12.5537245 C19.7431758,12.4125909 19.4266322,11.8754954 19.558303,11.346333 L19.7819006,10.4477324 L17.0855856,12.0044506 C17.5222737,12.8226887 17.7698096,13.7571258 17.7698096,14.749378 C17.7698096,17.9737471 15.155942,20.5876146 11.9315729,20.5876146 C8.70720387,20.5876146 6.09333629,17.9737471 6.09333629,14.749378 C6.09333629,13.7060531 6.3670101,12.7266481 6.84648663,11.8790342 L4.36739915,10.4477324 L4.59099674,11.346333 C4.72266753,11.8754954 4.40612397,12.4125909 3.87940643,12.5537245 L3.86224702,12.5583223 C3.3382578,12.6987248 2.7996619,12.3877663 2.65925941,11.8637771 C2.65774055,11.8581087 2.65627253,11.8524267 2.65485552,11.846732 L1.86085517,8.65578009 C1.74220122,8.1789301 1.98752209,7.69563794 2.42262547,7.50146459 C2.49041846,7.46286673 2.56382109,7.43165083 2.64206552,7.40917478 L5.80251111,6.5013233 C5.80815141,6.4997031 5.81380611,6.49813348 5.81947453,6.49661463 C6.34346376,6.35621214 6.88205966,6.66717063 7.02246215,7.19115986 L7.02706,7.20831926 C7.16819354,7.7350368 6.86132692,8.27771934 6.33722344,8.4282703 L5.35719204,8.7097885 L8.13533171,10.3137482 C8.95327431,9.61305289 9.96729247,9.13467462 11.0837445,8.97225504 L11.0837445,5.36391383 L10.4173324,6.00685533 C10.0248997,6.38546677 9.40148951,6.37987979 9.0159055,5.99429579 L9.00334395,5.98173423 C8.61975721,5.5981475 8.61975721,4.97623052 9.00334395,4.59264378 L9.01590348,4.58030736 L9.01590348,4.58030736 L11.3823487,2.29720693 C11.735986,1.95602459 12.2771897,1.92683262 12.6629004,2.20655653 Z M13.5759095,10.9296012 L11.2490866,12.5846077 L9.45741293,12.5846077 C9.07561604,12.5869613 8.767565,12.8805163 8.76807041,13.2415111 L8.76807041,16.2565249 C8.76807041,16.616547 9.07663705,16.9137705 9.45741293,16.9137705 L11.2637457,16.9137705 C11.2704419,16.9137705 11.276957,16.9106905 11.2836532,16.9105194 L13.5760905,18.5420833 C14.1166692,18.927259 14.5593393,18.7173032 14.5593393,18.07734 L14.5593393,11.3955424 C14.5593393,10.7555791 14.1164882,10.5445966 13.5759095,10.9296012 Z" id="path-1"></path>
    </defs>
    <g id="icon-/-Audio-/-AudioProxy" stroke="none" stroke-width="1" fill="none" fill-rule="evenodd">
        <mask id="mask-2" fill="white">
            <use xlink:href="#path-1"></use>
        </mask>
        <use id="Combined-Shape" fill="#DF9557" fill-rule="nonzero" xlink:href="#path-1"></use>
    </g>
</svg>