<?xml version="1.0" encoding="UTF-8"?>
<svg width="24px" height="24px" viewBox="0 0 24 24" version="1.1" xmlns="http://www.w3.org/2000/svg" xmlns:xlink="http://www.w3.org/1999/xlink">
    <title>icon / Audio / AudioArea</title>
    <defs>
        <path d="M18.9078388,17.9629694 L18.9078388,8.99092059 C17.8346161,8.83010669 16.9438759,8.15066675 16.5405659,7.23313164 L7.85873857,7.23313164 C7.47841885,8.22637695 6.56309448,8.97046804 5.4491689,9.14162489 L5.4491689,17.9629694 L9.41580881,17.9629694 C9.65102383,16.5448715 10.9276829,15.4611937 12.4673165,15.4611937 C14.0069501,15.4611937 15.2836092,16.5448715 15.5188242,17.9629694 L18.9078388,17.9629694 L18.9078388,17.9629694 Z M19.8898019,8.99092059 L19.8898019,18.9080846 L15.5188242,18.9080846 C15.2836092,20.3261825 14.0069501,21.4098602 12.4673165,21.4098602 C10.9276829,21.4098602 9.65102383,20.3261825 9.41580881,18.9080846 L4.46720586,18.9080846 L4.46720586,9.14162489 C2.99381974,8.91523623 1.86789192,7.68648331 1.86789192,6.20462388 C1.86789192,4.56194498 3.25146433,3.23029062 4.95818738,3.23029062 C6.66491043,3.23029062 8.04848283,4.56194498 8.04848283,6.20462388 C8.04848283,6.2325127 8.04808403,6.26031187 8.04729162,6.2880164 L16.3131002,6.2880164 C16.3100632,6.23531621 16.3085249,6.18223611 16.3085249,6.1288125 C16.3085249,4.5246936 17.6954207,3.23029062 19.3988203,3.23029062 C21.10222,3.23029062 22.4891158,4.5246936 22.4891158,6.1288125 C22.4891158,7.57562658 21.3608896,8.77048979 19.8898019,8.99092059 Z M19.4031303,4.17540985 C19.4041263,4.51495692 19.4081035,5.1090237 19.4150621,6.14839461 C19.4083638,7.14889366 19.4071904,7.73677396 19.4069849,8.08220482 C20.5709249,8.0781242 21.5071528,7.20183194 21.5071528,6.1288125 C21.5071528,5.05460882 20.5688572,4.1775668 19.4031303,4.17540985 L19.4031303,4.17540985 Z M4.95818738,8.23384189 C6.12258722,8.23384189 7.06651979,7.32533004 7.06651979,6.20462388 C7.06651979,5.08391771 6.12258722,4.17540586 4.95818738,4.17540586 C3.79378754,4.17540586 2.84985497,5.08391771 2.84985497,6.20462388 C2.84985497,7.32533004 3.79378754,8.23384189 4.95818738,8.23384189 Z" id="path-1"></path>
    </defs>
    <g id="icon-/-Audio-/-AudioArea" stroke="none" stroke-width="1" fill="none" fill-rule="evenodd">
        <mask id="mask-2" fill="white">
            <use xlink:href="#path-1"></use>
        </mask>
        <use id="Shape" fill="#DF9557" fill-rule="nonzero" xlink:href="#path-1"></use>
    </g>
</svg>