<?xml version="1.0" encoding="UTF-8"?>
<svg width="24px" height="24px" viewBox="0 0 24 24" version="1.1" xmlns="http://www.w3.org/2000/svg" xmlns:xlink="http://www.w3.org/1999/xlink">
    <title>icon / Audio / AudioAreaEnvironment</title>
    <g id="icon-/-Audio-/-AudioAreaEnvironment" stroke="none" stroke-width="1" fill="none" fill-rule="evenodd">
        <path d="M20.1493763,19.7230415 L20.1493763,3.83676722 L3.78023646,3.83676722 L3.78023646,19.7230415 L20.1493763,19.7230415 Z M3.78023646,1.37415326 L3.78023646,2.82274971 L20.1493763,2.82274971 L20.1493763,1.37415326 L21.1633938,1.37415326 L21.1633938,2.82274971 L22.6103656,2.82274971 L22.6103656,3.83676722 L21.1633938,3.83676722 L21.1633938,19.7230415 L22.6103656,19.7230415 L22.6103656,20.7370591 L21.1633938,20.7370591 L21.1633938,22.668521 L20.1493763,22.668521 L20.1493763,20.7370591 L3.78023646,20.7370591 L3.78023646,22.668521 L2.76621895,22.668521 L2.76621895,20.7370591 L1.3176225,20.7370591 L1.3176225,19.7230415 L2.76621895,19.7230415 L2.76621895,3.83676722 L1.3176225,3.83676722 L1.3176225,2.82274971 L2.76621895,2.82274971 L2.76621895,1.37415326 L3.78023646,1.37415326 Z M12.1338093,4.29548942 L11.6268005,4.29548942 L11.6268005,19.2643193 L12.1338093,19.2643193 L12.1338093,4.29548942 Z M13.5534338,6.70981683 L13.046425,6.70981683 L13.046425,17.8157229 L13.5534338,17.8157229 L13.5534338,6.70981683 Z M10.7141848,6.22695135 L10.207176,6.22695135 L10.207176,17.3328574 L10.7141848,17.3328574 L10.7141848,6.22695135 Z M9.29456025,9.12414423 L8.78755149,9.12414423 L8.78755149,14.4356645 L9.29456025,14.4356645 L9.29456025,9.12414423 Z M14.9730583,9.12414423 L14.4660496,9.12414423 L14.4660496,14.4356645 L14.9730583,14.4356645 L14.9730583,9.12414423 Z M19.2319318,10.5727407 L18.7249231,10.5727407 L18.7249231,12.9870681 L19.2319318,12.9870681 L19.2319318,10.5727407 Z M7.87493574,10.5727407 L7.36792698,10.5727407 L7.36792698,12.9870681 L7.87493574,12.9870681 L7.87493574,10.5727407 Z M16.3926828,10.5727407 L15.8856741,10.5727407 L15.8856741,12.9870681 L16.3926828,12.9870681 L16.3926828,10.5727407 Z M5.03568671,10.5727407 L4.52867795,10.5727407 L4.52867795,12.9870681 L5.03568671,12.9870681 L5.03568671,10.5727407 Z M6.45531122,11.0556062 L5.94830247,11.0556062 L5.94830247,12.5042026 L6.45531122,12.5042026 L6.45531122,11.0556062 Z M17.8123073,11.0556062 L17.3052986,11.0556062 L17.3052986,12.5042026 L17.8123073,12.5042026 L17.8123073,11.0556062 Z" id="Combined-Shape" fill="#DF9557"></path>
    </g>
</svg>