<?xml version="1.0" encoding="UTF-8"?>
<svg width="24px" height="24px" viewBox="0 0 24 24" version="1.1" xmlns="http://www.w3.org/2000/svg" xmlns:xlink="http://www.w3.org/1999/xlink">
    <title>icon / Audio / AudioPreload</title>
    <defs>
        <path d="M15.1203509,2.44554921 C15.8194168,2.76269043 16.0102655,3.3521478 15.8458379,3.93342403 C15.6814104,4.51470025 15.2739896,4.7831104 14.4015524,4.57173247 C13.4924121,4.35146193 12.4123873,4.32887171 11.3969511,4.43552297 C10.4357829,4.53647446 9.29595995,4.90595862 8.687256,5.2668505 C8.08081453,5.626401 7.08466298,6.25121503 6.33632986,7.06861033 C5.54000424,7.93842728 5.002093,9.00936755 4.75092877,9.62913208 C4.53666356,10.1578458 4.32387306,11.1379754 4.23866853,12.1851804 C4.11475926,13.7080853 4.54591296,15.3613499 5.12230145,16.4199184 C6.18420273,18.3701573 7.62520062,19.5781877 9.24866143,20.3135376 C10.8721222,21.0488875 13.1546375,21.1395238 15.056469,20.5580685 C16.9583006,19.9766132 20.509327,17.6882596 21.086191,15.9118111 C20.7124226,17.9875464 18.2337271,19.7442125 17.4384631,20.2590651 C16.6431992,20.7739178 14.5243561,21.7166729 12.2275096,21.6609282 C9.93066313,21.6051835 8.19063526,20.8818689 6.97901323,20.066626 C6.06573505,19.4521244 5.26556161,18.7906438 4.40852985,17.6063692 C3.70153067,16.6294145 3.21956312,15.5383183 2.91572218,14.5124207 C2.66032748,13.6500985 2.52827982,12.596485 2.54038603,11.7671425 C2.56144009,10.3248222 2.87670333,9.04664527 3.38683483,7.9074765 C4.1902949,6.11327908 5.21084046,4.73061521 7.34274871,3.4155105 C8.16857176,2.90608718 9.359817,2.35377926 11.0239763,2.12784041 C12.8175167,1.88433579 14.6671076,2.23992891 15.1203509,2.44554921 Z M14.182268,7.27499779 C14.8610758,6.76367625 15.4171664,7.04388045 15.4171664,7.89381049 L15.4171664,7.89381049 L15.4171664,16.7678527 C15.4171664,17.6177827 14.861303,17.8966234 14.1824953,17.3850746 L14.1824953,17.3850746 L11.3038686,15.2182075 C11.2954602,15.2184348 11.2872791,15.2225254 11.2788707,15.2225254 L11.2788707,15.2225254 L9.0106483,15.2225254 C8.53250584,15.2225254 8.14503696,14.8277851 8.14503696,14.3496427 L8.14503696,14.3496427 L8.14503696,10.3454269 C8.14440231,9.86599254 8.53122376,9.47612446 9.0106483,9.47299867 L9.0106483,9.47299867 L11.2604631,9.47299867 Z" id="path-1"></path>
    </defs>
    <g id="icon-/-Audio-/-AudioPreload" stroke="none" stroke-width="1" fill="none" fill-rule="evenodd">
        <mask id="mask-2" fill="white">
            <use xlink:href="#path-1"></use>
        </mask>
        <use id="Path-2" fill="#DF9557" xlink:href="#path-1"></use>
    </g>
</svg>