<?xml version="1.0" encoding="UTF-8"?>
<svg width="24px" height="24px" viewBox="0 0 24 24" version="1.1" xmlns="http://www.w3.org/2000/svg" xmlns:xlink="http://www.w3.org/1999/xlink">
    <title>icon / AI / BehaviorTree</title>
    <defs>
        <path d="M9.93791406,5.0548197 L9.93791406,8.05128515 L13.9379141,8.05128515 L13.9379141,5.0548197 L9.93791406,5.0548197 Z M15.4379141,4.05305242 L15.4379141,9.05305242 L8.43791406,9.05305242 L8.43791406,4.05305242 L15.4379141,4.05305242 Z M12.966227,10.6897839 L20.0369237,10.6897839 L20.0369237,15.0655662 L22.0633154,15.0655662 L22.0633154,20.0655662 L16.0633154,20.0655662 L16.0633154,15.0655662 L18.0897071,15.0655662 L18.0897071,12.6212458 L12.966227,12.6212458 L12.966227,15.0655662 L14.966227,15.0655662 L14.966227,20.0655662 L8.96622696,20.0655662 L8.96622696,15.0655662 L10.966227,15.0655662 L10.966227,12.6212458 L5.82978223,12.6212458 L5.81583068,15.0655662 L7.86913852,15.0655662 L7.86913852,20.0655662 L1.86913852,20.0655662 L1.86913852,15.0655662 L3.89590888,15.0655662 L3.90986044,12.6212458 L3.8955302,12.6212458 L3.8955302,10.6897839 L10.966227,10.6897839 L10.966227,8.12198221 L12.966227,8.12198221 L12.966227,10.6897839 Z M3.1548528,19.0655662 L6.58342423,19.0655662 L6.58342423,16.0655662 L3.1548528,16.0655662 L3.1548528,19.0655662 Z M10.2519413,19.0655662 L13.6805127,19.0655662 L13.6805127,16.0655662 L10.2519413,16.0655662 L10.2519413,19.0655662 Z M17.3490297,16.0655662 L17.3490297,19.0655662 L20.7776011,19.0655662 L20.7776011,16.0655662 L17.3490297,16.0655662 Z" id="path-1"></path>
    </defs>
    <g id="icon-/-AI-/-BehaviorTree" stroke="none" stroke-width="1" fill="none" fill-rule="evenodd">
        <mask id="mask-2" fill="white">
            <use xlink:href="#path-1"></use>
        </mask>
        <use id="Shape" fill="#65C9C9" fill-rule="nonzero" xlink:href="#path-1"></use>
    </g>
</svg>