<?xml version="1.0" encoding="UTF-8"?>
<svg width="24px" height="24px" viewBox="0 0 24 24" version="1.1" xmlns="http://www.w3.org/2000/svg" xmlns:xlink="http://www.w3.org/1999/xlink">
    <title>icon / Shapes / Box</title>
    <defs>
        <path d="M14.9104468,4.3572224 L12.3128297,5.76093751 L16.0323823,7.5841228 L18.8324648,6.03460766 L14.9104468,4.3572224 L14.9104468,4.3572224 Z M14.3295329,4.10877467 L11.8900329,3.06543897 L9.21101211,4.24054281 L11.7671344,5.49345813 L14.3295329,4.10877467 L14.3295329,4.10877467 Z M8.38222655,7.88497915 L11.8905679,9.87612824 L15.5034882,7.87680326 L11.7772657,6.05034863 L8.38222655,7.88497915 Z M7.87464586,7.59690319 L11.2315704,5.78286925 L8.61677453,4.50119435 L5.12147016,6.0343462 L7.87464586,7.59690319 L7.87464586,7.59690319 Z M13.4248204,16.5292285 L13.4248204,20.2714109 L16.7212531,18.3032444 L16.7212531,14.7683696 L13.4248204,16.5292285 L13.4248204,16.5292285 Z M13.4248204,15.9681994 L16.7212531,14.2073405 L16.7212531,10.6116223 L13.4248204,12.5573954 L13.4248204,15.9681994 L13.4248204,15.9681994 Z M20.0150235,13.0089329 L17.1953634,14.5151136 L17.1953634,18.0201723 L20.0150235,16.3366674 L20.0150235,13.0089329 L20.0150235,13.0089329 Z M20.0150235,12.4479038 L20.0150235,8.66742073 L17.1953634,10.331771 L17.1953634,13.9540845 L20.0150235,12.4479038 L20.0150235,12.4479038 Z M10.5822419,16.6160095 L7.71315676,15.0944695 L7.71315676,18.6332262 L10.5822419,20.3155143 L10.5822419,16.6160095 L10.5822419,16.6160095 Z M10.5822419,16.0558018 L10.5822419,12.5941648 L7.71315676,10.8873807 L7.71315676,14.5342618 L10.5822419,16.0558018 L10.5822419,16.0558018 Z M3.88624372,13.064972 L3.88624372,16.3893156 L7.23904643,18.3552316 L7.23904643,14.8430382 L3.88624372,13.064972 L3.88624372,13.064972 Z M3.88624372,12.5047643 L7.23904643,14.2828305 L7.23904643,10.6053382 L3.88624372,8.61079627 L3.88624372,12.5047643 Z M20.9632442,6.96066648 L20.9632442,16.9207316 L12.4765998,21.9877635 L12.4765998,11.9700465 L20.9632442,6.96066648 Z M2.93802306,6.89751494 L11.5304626,12.0090536 L11.5304626,22.0167477 L2.93802306,16.9785706 L2.93802306,6.89751494 Z M11.8854851,1.98325228 L21.0857681,5.91806831 L11.88495,11.0096352 L2.91423186,5.91832977 L11.8854851,1.98325228 Z" id="path-1"></path>
    </defs>
    <g id="icon-/-Shapes-/-Box" stroke="none" stroke-width="1" fill="none" fill-rule="evenodd">
        <mask id="mask-2" fill="white">
            <use xlink:href="#path-1"></use>
        </mask>
        <use id="Shape" fill="#5A69A1" fill-rule="nonzero" xlink:href="#path-1"></use>
    </g>
</svg>