<?xml version="1.0" encoding="UTF-8"?>
<svg width="24px" height="24px" viewBox="0 0 24 24" version="1.1" xmlns="http://www.w3.org/2000/svg" xmlns:xlink="http://www.w3.org/1999/xlink">
    <!-- Generator: Sketch 53.2 (72643) - https://sketchapp.com -->
    <title>icon / Physics / Cry / Character Physics</title>
    <desc>Created with Sketch.</desc>
    <defs>
        <path d="M14.5074945,9.09051724 C14.5619343,9.2996159 14.5909091,9.51886959 14.5909091,9.74472291 L14.5909091,12.6420882 L14.5909091,20.409636 C14.5909091,20.9427918 14.1596541,21.375 13.6193182,21.375 C13.0827233,21.375 12.6477273,20.9330841 12.6477273,20.409636 L12.6477273,16.121721 C12.4410014,16.1745162 12.2240162,16.2025862 12,16.2025862 C11.7763401,16.2025862 11.5592993,16.1741281 11.3522727,16.120651 L11.3522727,20.409636 C11.3522727,20.9427918 10.9210177,21.375 10.3806818,21.375 C9.84408698,21.375 9.40909091,20.9330841 9.40909091,20.409636 L9.40909091,12.6420882 L9.40909091,9.74472291 C9.40909091,9.51874001 9.4377086,9.29950678 9.49157145,9.09051724 L5.85446021,9.09051724 C5.31351927,9.09051724 4.875,8.66004489 4.875,8.12068966 C4.875,7.58506867 5.3171002,7.15086207 5.85446021,7.15086207 L18.1455398,7.15086207 C18.6864807,7.15086207 19.125,7.58133442 19.125,8.12068966 C19.125,8.65631064 18.6828998,9.09051724 18.1455398,9.09051724 L14.5074945,9.09051724 Z M12,6.50431034 C10.9268103,6.50431034 10.0568182,5.63589714 10.0568182,4.56465517 C10.0568182,3.4934132 10.9268103,2.625 12,2.625 C13.0731897,2.625 13.9431818,3.4934132 13.9431818,4.56465517 C13.9431818,5.63589714 13.0731897,6.50431034 12,6.50431034 Z" id="path-1"></path>
    </defs>
    <g id="icon-/-Physics-/-Cry-/-Character-Physics" stroke="none" stroke-width="1" fill="none" fill-rule="evenodd">
        <mask id="mask-2" fill="white">
            <use xlink:href="#path-1"></use>
        </mask>
        <use id="Combined-Shape" fill="#DD7F6D" xlink:href="#path-1"></use>
    </g>
</svg>