<?xml version="1.0" encoding="UTF-8"?>
<svg width="24px" height="24px" viewBox="0 0 24 24" version="1.1" xmlns="http://www.w3.org/2000/svg" xmlns:xlink="http://www.w3.org/1999/xlink">
    <!-- Generator: Sketch 57.1 (83088) - https://sketch.com -->
    <title>icon / Physics / PhysX / Cloth</title>
    <desc>Created with Sketch.</desc>
    <g id="icon-/-Physics-/-PhysX-/-Cloth" stroke="none" stroke-width="1" fill="none" fill-rule="evenodd">
        <path d="M10.7935863,1.46606454 C12.3700926,1.95271028 13.3433436,2.4139239 14.0644819,3.21238366 C14.7856202,4.01084341 15.5488844,5.0613316 15.7538605,6.64292714 C15.9588366,8.22452268 16.1391235,10.6225115 17.0579879,12.3340671 C17.6084335,13.3593743 18.7171605,14.6388151 20.082096,15.6900586 C20.9956612,16.3936666 20.3926293,17.0231534 22.4247401,17.7553907 C23.2021657,17.9700776 23.2021657,18.0986021 22.9894508,18.2187057 C22.5117265,18.4884397 21.9191288,18.6766279 21.3459432,18.7865675 C20.3925935,18.4384715 19.5594232,18.0413391 18.8442333,17.5952741 C17.5602228,16.7944348 17.3114365,16.6359468 16.1555364,15.203572 C14.9996363,13.7711973 13.7928453,10.5030574 13.2288854,9.43182889 C13.1365123,9.8368369 13.1365123,10.2654704 13.2288854,10.7177295 C13.7587497,12.6556623 14.3071251,14.1555005 14.8740116,15.2172442 C15.7243413,16.8098596 16.6713216,17.4936574 17.7573095,18.1194266 C18.2678518,18.4136118 18.8925934,18.6942699 19.6315343,18.9614007 C18.9431221,19.1902876 18.8332126,20.0126323 18.5629357,20.4373474 C18.2425708,20.9407713 17.7969842,22.1290247 14.8698338,21.7289513 C11.9426834,21.3288778 12.5790409,21.1481465 11.7884072,21.3940666 C10.9977736,21.6399867 11.2900112,22.021025 11.2900112,22.7360376 C10.8514338,22.8615343 9.8707102,22.6298391 9.23741812,22.0917702 C8.14862732,21.1666922 6.76327875,18.6406113 6.38646013,16.928898 C5.79046604,14.2215716 6.08452587,12.7205173 5.73492722,11.8990314 C5.50186146,11.3513741 5.05985536,10.669847 4.40890894,9.85445016 C5.06287334,8.96526922 5.13875794,8.1158923 4.63656275,7.3063194 C4.27230358,6.71910876 3.74586575,6.28529768 3.34806637,6.01009142 C3.17072094,5.88739999 2.87782314,5.56846338 2.46937296,5.05328157 C2.47422211,4.66882003 2.54470277,4.44189126 2.68081495,4.37249524 C2.82169803,4.30066682 3.00985695,4.28042882 3.28018771,4.32647538 C4.0567209,4.68114691 4.75223507,5.16840421 5.36967696,5.7879453 C5.87159241,6.29156718 6.18682822,6.78870725 6.48862162,7.48861466 C6.7692686,8.13948012 6.86965935,8.9723437 6.95379972,9.83979681 C7.11729135,11.5253292 7.62163664,13.1242292 8.11060589,14.5294549 C8.59957515,15.9346807 9.54242074,16.8351352 10.6046574,17.9020867 C10.4016858,17.0726465 9.63371787,15.5993807 9.18195601,14.5294549 C8.73019414,13.4595292 7.97344649,11.2320858 7.97344649,9.26717866 C7.97344649,7.30227156 7.29932071,6.20969475 6.48862162,5.36849291 C5.89473964,4.75226598 4.56182449,4.25287008 3.5353129,3.98413312 C3.6527883,3.4439705 4.00724578,3.04173411 4.40890894,2.81853608 C4.76976809,2.61801221 5.7936318,2.52850671 6.73855949,2.57249727 L6.93837296,2.58346311 L6.99578587,2.63329796 C7.42354698,2.99517006 7.8017814,3.28556591 8.13048913,3.50448551 C8.70572765,3.8875948 8.90784784,4.08891437 9.70095473,5.09070215 C10.0400641,5.51903737 10.3306801,6.02570146 10.501895,6.73332106 C10.7062899,7.57807121 10.7195681,8.7081312 10.7195681,9.28310204 C10.7195681,10.2875422 11.1108629,11.9807311 11.6151469,12.9369992 C12.1194309,13.8932672 12.9404677,15.0569039 13.5555886,15.6117555 C13.2576521,14.767056 12.6631589,13.3056132 12.3447167,12.4325544 C12.0262745,11.5594956 11.6151469,10.2049505 11.6151469,9.19562328 C11.6151469,8.63970478 11.6089103,7.30544953 11.3847039,6.5942098 C11.2018405,6.01412066 11.0432411,5.54852139 10.7658833,5.07278239 C10.4445724,4.52165263 9.91058275,3.87265646 8.86157375,3.23620786 C8.61106755,3.08422221 8.23262391,2.87182159 7.72624285,2.59900601 C7.95761993,2.63646578 8.24985764,2.70222876 8.60106997,2.79560971 C9.73937423,3.09826407 10.0680897,3.27433036 11.0670011,4.10554231 C12.0659126,4.93675426 12.5647538,5.92710323 13.1596056,6.64023458 C13.1596056,5.98923496 12.7068039,4.833385 12.0690804,4.10554231 C11.4313568,3.37769962 11.0211645,3.11119059 10.1526175,2.68078498 C9.62234663,2.41801102 8.7384197,2.25422582 7.50083668,2.18942935 C7.55074363,2.10021293 7.62011719,1.99449648 7.70743749,1.87285526 C8.71386588,1.27723096 9.74258217,1.14163405 10.7935863,1.46606454 Z M6.93537296,2.58046311 L6.9395654,2.58397532 L6.93837296,2.58346311 L6.93537296,2.58046311 Z" id="Combined-Shape" fill="#DB7E6C"></path>
    </g>
</svg>