<?xml version="1.0" encoding="UTF-8"?>
<svg width="24px" height="24px" viewBox="0 0 24 24" version="1.1" xmlns="http://www.w3.org/2000/svg" xmlns:xlink="http://www.w3.org/1999/xlink">
    <!-- Generator: Sketch 53.2 (72643) - https://sketchapp.com -->
    <title>icon / Physics / Cry / Mesh Collider </title>
    <desc>Created with Sketch.</desc>
    <defs>
        <path d="M19.8841555,7.66290688 C19.8841555,6.93747841 19.8822335,6.21208764 19.8866428,5.48669686 C19.8871704,5.39979167 19.8619581,5.36881332 19.779613,5.35339952 C19.4477452,5.29144283 19.1666412,5.12746863 18.94267,4.88077246 C18.648225,4.55640429 18.5077295,4.16947645 18.5266481,3.72692326 C18.5335448,3.56487108 18.5549131,3.57953115 18.3861527,3.57953115 C14.1091434,3.57926734 9.83205882,3.57934271 5.55504958,3.57934271 C5.54562794,3.57934271 5.53598018,3.58062406 5.52678466,3.57911659 C5.4386735,3.56460727 5.40464255,3.59520875 5.41108695,3.68987737 C5.41983023,3.81763479 5.41753135,3.94614594 5.39522091,4.07401641 C5.33556309,4.41605957 5.18153815,4.71182364 4.93235466,4.94789221 C4.60146672,5.26129358 4.20221538,5.41113532 3.74161032,5.38882488 C3.59625329,5.38181518 3.60526037,5.3632734 3.60526037,5.52197147 C3.605185,9.80214638 3.605185,14.0823213 3.605185,18.3624962 C3.605185,18.3813395 3.60722008,18.4004466 3.60484582,18.4189883 C3.59655478,18.4842615 3.62195552,18.506798 3.68915064,18.5042353 C3.83933156,18.4983562 3.9908315,18.4917611 4.13856279,18.5271864 C4.7960424,18.6849047 5.21696351,19.086568 5.37622688,19.7474017 C5.39872576,19.8407513 5.43486716,19.8604236 5.52425967,19.8603483 C9.82327785,19.8580494 14.122296,19.8583132 18.4213519,19.8583132 C18.4370672,19.8583132 18.4529709,19.8565796 18.4684224,19.8586524 C18.5229925,19.8658505 18.5391978,19.8427863 18.5518981,19.7881785 C18.7073552,19.1178855 19.1160281,18.6921405 19.7894115,18.5344976 C19.8765428,18.5141092 19.8855499,18.4771764 19.8855122,18.4025947 C19.8838163,16.2515216 19.8841555,14.1004485 19.8841555,11.9493378 L19.8841555,7.66290688 Z M21.4035317,4.80589319 C21.2961072,4.91880007 21.1702419,5.01460797 21.0281211,5.08269715 C20.9684281,5.11129767 20.9451949,5.14572564 20.9451949,5.21404484 C20.9469202,9.70271617 20.9468818,14.1913492 20.94554,18.6800205 C20.9455016,18.7455793 20.9647859,18.7809658 21.0245173,18.8138602 C21.4868796,19.0683895 21.7641052,19.4582153 21.8469931,19.9795422 C21.9312994,20.5096486 21.7791339,20.9742345 21.4113911,21.3578112 C21.163341,21.6165577 20.8539876,21.774359 20.4910371,21.8241607 C19.9654929,21.8962754 19.5148622,21.7433048 19.1291386,21.3894405 C19.0115928,21.2816326 18.9126411,21.1540038 18.8443603,21.0083941 C18.8122709,20.9399216 18.7716321,20.9189888 18.6972554,20.9192188 C17.8122879,20.9219408 16.9273587,20.920944 16.0423911,20.920944 C12.4546745,20.920944 8.86691954,20.9213274 5.27920291,20.9188738 C5.18791895,20.9187971 5.14099262,20.9447522 5.09383627,21.0257998 C4.83148593,21.4764305 4.44361535,21.7485955 3.92221178,21.8233939 C3.39291048,21.8993425 2.93311687,21.7456818 2.55667116,21.3770955 C2.06394479,20.8945671 1.9465523,20.1656756 2.22650002,19.5583555 C2.28956685,19.4215254 2.3652087,19.2926697 2.46826258,19.1812964 C2.52462018,19.1203765 2.5448629,19.0518272 2.54478623,18.9654506 C2.54225588,15.8026395 2.54263927,12.6398285 2.54263927,9.47701743 C2.54263927,7.95950301 2.54206419,6.44198859 2.54413447,4.92447417 C2.54424949,4.83552885 2.51871605,4.7705451 2.45932971,4.70249426 C2.22757349,4.43696183 2.10504365,4.12327624 2.08380413,3.77171221 C2.0595742,3.37095989 2.16442999,3.00605407 2.41129158,2.68864965 C2.72267686,2.28828071 3.13404894,2.07373848 3.64341422,2.05740628 C4.07410891,2.04360442 4.45181979,2.17844092 4.7706044,2.47115535 C4.80537741,2.50312966 4.84425265,2.52042032 4.89202242,2.51700819 C4.91111499,2.51566634 4.93036092,2.5168165 4.94953017,2.5168165 C9.63303774,2.5168165 14.3165453,2.51654813 19.0000912,2.51858007 C19.0905317,2.51861841 19.1551321,2.48848435 19.2218028,2.43155168 C19.4950412,2.19830026 19.8135191,2.07531036 20.1728275,2.05706123 C20.6378735,2.03340638 21.0403511,2.1879872 21.3753529,2.50309132 C21.6301505,2.74282194 21.7863032,3.04385583 21.8473381,3.39158601 C21.863977,3.48639711 21.8694594,3.58128489 21.8670058,3.67747618 C21.8679642,4.11718042 21.703147,4.49098077 21.4035317,4.80589319 Z M7.83152485,10.6361441 C7.33017513,10.4332029 6.92984532,10.0328731 6.72690411,9.53152339 L4.25920244,9.53152339 L4.25920244,8.03152339 L6.72690411,8.03152339 C6.92984532,7.53017367 7.33017513,7.12984387 7.83152485,6.92690266 L7.83152485,4.4170527 L9.33152485,4.4170527 L9.33152485,6.92690266 C9.83287458,7.12984387 10.2332044,7.53017367 10.4361456,8.03152339 L12.7094464,8.03152339 C12.9123876,7.53017367 13.3127174,7.12984387 13.8140672,6.92690266 L13.8140672,4.4170527 L15.3140672,4.4170527 L15.3140672,6.92690266 C15.8154169,7.12984387 16.2157467,7.53017367 16.4186879,8.03152339 L19.1341621,8.03152339 L19.1341621,9.53152339 L16.4186879,9.53152339 C16.2157467,10.0328731 15.8154169,10.4332029 15.3140672,10.6361441 L15.3140672,12.6896489 C15.8154169,12.8925901 16.2157467,13.2929199 16.4186879,13.7942696 L19.2499596,13.7942696 L19.2499596,15.2942696 L16.4186879,15.2942696 C16.2157467,15.7956193 15.8154169,16.1959491 15.3140672,16.3988903 L15.2982786,19.0087294 L13.7982786,19.0087294 L13.8140672,16.3988903 C13.3127174,16.1959491 12.9123876,15.7956193 12.7094464,15.2942696 L10.4361456,15.2942696 C10.2332044,15.7956193 9.83287458,16.1959491 9.33152485,16.3988903 L9.3157363,19.0087294 L7.8157363,19.0087294 L7.83152485,16.3988903 C7.33017513,16.1959491 6.92984532,15.7956193 6.72690411,15.2942696 L4.375,15.2942696 L4.375,13.7942696 L6.72690411,13.7942696 C6.92984532,13.2929199 7.33017513,12.8925901 7.83152485,12.6896489 L7.83152485,10.6361441 Z M9.33152485,12.6896489 C9.83287458,12.8925901 10.2332044,13.2929199 10.4361456,13.7942696 L12.7094464,13.7942696 C12.9123876,13.2929199 13.3127174,12.8925901 13.8140672,12.6896489 L13.8140672,10.6361441 C13.3127174,10.4332029 12.9123876,10.0328731 12.7094464,9.53152339 L10.4361456,9.53152339 C10.2332044,10.0328731 9.83287458,10.4332029 9.33152485,10.6361441 L9.33152485,12.6896489 Z" id="path-1"></path>
    </defs>
    <g id="icon-/-Physics-/-Cry-/-Mesh-Collider-" stroke="none" stroke-width="1" fill="none" fill-rule="evenodd">
        <mask id="mask-2" fill="white">
            <use xlink:href="#path-1"></use>
        </mask>
        <use id="Combined-Shape" fill="#DD7F6D" xlink:href="#path-1"></use>
    </g>
</svg>