<?xml version="1.0" encoding="UTF-8"?>
<svg width="24px" height="24px" viewBox="0 0 24 24" version="1.1" xmlns="http://www.w3.org/2000/svg" xmlns:xlink="http://www.w3.org/1999/xlink">
    <title>icon / Shapes / CompoundShape</title>
    <defs>
        <path d="M10.4370799,14.5703981 C10.8949783,13.60622 11.1341132,12.5187237 11.1341132,11.4107285 L11.3022587,11.4437822 C12.3108028,11.5867879 13.2303131,11.4877485 14.0520545,11.2068482 C13.3525652,9.86352915 13.0799875,8.19218852 13.2708888,6.49835529 C12.3065662,6.31182193 11.287252,6.26722591 10.2699746,6.39292235 C10.0043739,6.997927 9.85742934,7.66375171 9.85742934,8.36251642 C9.85742934,8.82096255 9.92045585,9.27068986 10.0434769,9.70351974 L10.3058563,10.6266594 L9.36979307,10.4354298 C9.0218634,10.3643508 8.66503627,10.3281859 8.30305193,10.3281859 C8.04232229,10.3281859 7.78615888,10.3469733 7.53590302,10.3832261 C7.11789063,11.2083584 6.83888064,12.0822188 6.69194783,12.9566996 C8.09969725,13.2327954 9.400157,13.7951165 10.4370799,14.5703981 L10.4370799,14.5703981 Z M10.9232713,14.9668966 C11.8471551,15.7894655 12.4957489,16.8034633 12.7238287,17.9407937 C13.1940279,17.1837205 13.4644359,16.2964336 13.4644359,15.3485303 C13.4644359,14.8900842 13.4014094,14.4403569 13.2783883,14.007527 L13.016009,13.0843873 L13.9520722,13.2756169 C14.3000019,13.3466959 14.656829,13.3828609 15.0188133,13.3828609 C15.3251643,13.3828609 15.6252112,13.3569236 15.9167784,13.3071935 C15.2762912,12.8933024 14.7447682,12.3378555 14.327342,11.6837376 C13.519573,11.9762733 12.6259988,12.1075788 11.6565476,12.0298022 C11.5944827,13.065899 11.3448739,14.0672359 10.9232713,14.9668966 Z M17.3632814,8.4760959 C16.4453567,7.62223145 15.202923,6.97365894 13.81776,6.62076135 C13.650692,8.208232 13.9159204,9.764365 14.5717517,10.9995273 C15.7336023,10.4673853 16.673772,9.55968715 17.3632814,8.4760959 L17.3632814,8.4760959 Z M17.7570161,8.8774549 C17.0240417,9.98410273 16.0424011,10.9068423 14.8491255,11.46719 C15.3179091,12.1766997 15.9342666,12.7487066 16.6883092,13.1145166 C17.583414,12.8171071 18.3672468,12.2871959 18.9642625,11.5992371 C18.8983375,10.5887929 18.4575257,9.6624411 17.7570161,8.8774549 L17.7570161,8.8774549 Z M18.6620548,4.80646463 C17.7291186,3.90193421 16.4419903,3.34217199 15.0188133,3.34217199 C14.9506814,3.34217199 14.8828612,3.34345488 14.8153768,3.34599706 C14.3523948,4.21742569 14.0472757,5.14736992 13.8916765,6.0778721 C15.3433623,6.43671771 16.6564905,7.1025468 17.6495088,7.99022868 C18.1902138,6.99705485 18.5342746,5.89070272 18.6620548,4.80646463 L18.6620548,4.80646463 Z M19.1463005,5.34796023 C18.9651694,6.4018396 18.5959194,7.44715106 18.0584996,8.38774375 C18.7586487,9.12921696 19.2477966,9.99839279 19.4395901,10.9547798 C19.9097893,10.1977066 20.1801973,9.31041968 20.1801973,8.36251642 C20.1801973,7.23211703 19.7956451,6.18792129 19.1463005,5.34796023 L19.1463005,5.34796023 Z M4.50851928,18.7516012 C5.45099407,19.7455777 6.80127766,20.3688748 8.30305193,20.3688748 C8.51955448,20.3688748 8.73290854,20.3559205 8.94234612,20.3307689 C8.15984011,19.8833349 7.52711252,19.2334063 7.05250307,18.4506637 C6.28773631,18.6934906 5.43736424,18.8040339 4.50851928,18.7516012 L4.50851928,18.7516012 Z M3.9192969,17.9994899 C4.95069928,18.1282707 5.88472399,18.0505216 6.71263514,17.8103347 C6.11867175,16.5239819 5.89403559,14.9736272 6.06789212,13.4029553 C5.25056692,13.2876925 4.40168326,13.2742215 3.55421314,13.3789362 C3.28861248,13.9839409 3.14166792,14.6497656 3.14166792,15.3485303 C3.14166792,16.3210411 3.42629774,17.2297474 3.9192969,17.9994899 L3.9192969,17.9994899 Z M10.6608547,15.4745497 C9.96507307,16.6998747 8.92464754,17.6915884 7.58486349,18.2548164 C8.1272957,19.114971 8.87985921,19.7843906 9.82582886,20.1468902 C10.782016,19.8601781 11.6190818,19.3105493 12.2485011,18.585251 C12.1713355,17.402521 11.5805444,16.3350044 10.6608547,15.4745497 L10.6608547,15.4745497 Z M10.1770888,15.064031 C9.20638719,14.3156142 7.96749042,13.7670754 6.61790358,13.4967282 C6.46018097,14.9796905 6.67972355,16.4358311 7.24255032,17.6290932 C8.52500448,17.120976 9.51608249,16.2008535 10.1770888,15.064031 L10.1770888,15.064031 Z M14.1612071,3.41111666 C12.6304247,3.66001011 11.329394,4.56396956 10.5704935,5.81512659 C11.511794,5.73454261 12.450767,5.78877767 13.3473121,5.95902856 C13.4951745,5.09358934 13.7648509,4.23073338 14.1612071,3.41111666 L14.1612071,3.41111666 Z M6.85184083,10.5292666 C5.58055716,10.8907807 4.51343301,11.7151769 3.85473205,12.8011405 C4.62644692,12.7350746 5.39659736,12.7596254 6.14308636,12.8644316 C6.27647887,12.0738129 6.5114939,11.2850936 6.85184083,10.5292666 L6.85184083,10.5292666 Z M8.69662356,8.36251642 C8.69662356,4.94159182 11.5309239,2.17545288 15.0188133,2.17545288 C18.5067027,2.17545288 21.3410031,4.94159182 21.3410031,8.36251642 C21.3410031,11.783441 18.5067027,14.54958 15.0188133,14.54958 C14.8688158,14.54958 14.7194521,14.5444585 14.5709166,14.534272 C14.6069933,14.8026078 14.6252417,15.0744502 14.6252417,15.3485303 C14.6252417,18.7694549 11.7909413,21.5355939 8.30305193,21.5355939 C4.81516252,21.5355939 1.98086215,18.7694549 1.98086215,15.3485303 C1.98086215,11.9276057 4.81516252,9.16146678 8.30305193,9.16146678 C8.45304947,9.16146678 8.60241317,9.16658828 8.75094864,9.17677477 C8.714872,8.9084389 8.69662356,8.63659649 8.69662356,8.36251642 Z" id="path-1"></path>
    </defs>
    <g id="icon-/-Shapes-/-CompoundShape" stroke="none" stroke-width="1" fill="none" fill-rule="evenodd">
        <mask id="mask-2" fill="white">
            <use xlink:href="#path-1"></use>
        </mask>
        <use id="Shape" fill="#5A69A1" fill-rule="nonzero" xlink:href="#path-1"></use>
    </g>
</svg>