<?xml version="1.0" encoding="UTF-8"?>
<svg width="24px" height="24px" viewBox="0 0 24 24" version="1.1" xmlns="http://www.w3.org/2000/svg" xmlns:xlink="http://www.w3.org/1999/xlink">
    <!-- Generator: Sketch 53.2 (72643) - https://sketchapp.com -->
    <title>icon / Shapes / Cylinder Shape</title>
    <desc>Created with Sketch.</desc>
    <defs>
        <path d="M6.94135645,8.59461015 L6.94135645,16.2038484 C8.27485309,15.887526 9.80613296,15.7079343 11.388955,15.7079343 C12.6883574,15.7079343 13.898866,15.7717747 14.982688,15.8986426 L14.982688,8.89007913 C13.9909107,9.03398928 12.9221516,9.1104703 11.7744186,9.1104703 C9.99662879,9.1104703 8.38673736,8.92711649 6.94135645,8.59461015 Z M5.91654398,8.32621584 C5.26824749,8.13490426 4.65684093,7.91185184 4.08196184,7.66071773 C3.78965989,7.53302655 3.51974504,7.40446577 3.27191021,7.27712046 L3.51570196,17.6390874 C4.11209886,17.188651 4.93772723,16.7969292 5.91654398,16.4862089 L5.91654398,8.32621584 Z M6.94135645,21.2409256 C7.03093368,21.2721342 7.12187353,21.3024143 7.21418781,21.3317466 C8.44106491,21.6001243 9.8816028,21.7673841 11.388955,21.7673841 C12.6311741,21.7673841 13.8689941,21.5916078 14.982688,21.309714 L14.982688,16.9433723 C13.9183806,16.8092583 12.7020605,16.7327468 11.388955,16.7327468 C9.77910587,16.7327468 8.23157654,16.9419777 6.94135645,17.2678646 L6.94135645,21.2409256 Z M5.91654398,20.8159967 L5.91654398,17.5689951 C4.70474153,17.9811657 3.85217206,18.4975436 3.59946004,19.0038879 C3.63434596,19.0511046 3.67542586,19.1043104 3.72303415,19.1628088 C4.01965636,19.527282 4.42066207,19.8994586 4.94157226,20.253123 C5.24114385,20.4565128 5.56578667,20.644703 5.91654398,20.8159967 Z M16.0075005,8.71221744 L16.0075005,16.0438875 C17.6230574,16.31647 18.8731049,16.7539792 19.5966475,17.3529517 L19.900698,7.35772914 C19.7155573,7.4556365 19.5178978,7.55381291 19.3074817,7.65136136 C18.3357309,8.10186298 17.237236,8.46229151 16.0075005,8.71221744 Z M16.0075005,21.0095431 C17.9142764,20.3705816 19.2561806,19.4397774 19.2561806,18.6692189 C19.2561806,18.0369295 18.0049752,17.4556774 16.0075005,17.0983467 L16.0075005,21.0095431 Z M5.78502794,7.08947816 L9.78108666,5.41896308 L11.1855462,5.94259773 L7.47433524,7.49403485 C8.52212313,7.68187578 9.71227942,7.79332738 10.9717037,7.79332738 C12.405912,7.79332738 13.8579936,7.65257385 15.1637195,7.42580845 L11.1855462,5.94259773 L7.47433524,7.49403485 C6.85678976,7.38332512 6.28869865,7.24608009 5.78502794,7.08947816 L9.78108666,5.41896308 L5.49369672,3.82046493 C4.19307671,4.26216736 3.39330488,4.8365532 3.39330488,5.40166751 C3.39330488,6.01017511 4.31466044,6.63230963 5.78502794,7.08947816 Z M14.7758863,3.33093368 C13.5748438,3.14483101 12.2671066,3.03216885 10.9717037,3.03216885 C9.61021281,3.03216885 8.33150002,3.16000041 7.22612892,3.37265608 L11.1640107,4.84084459 L14.7758863,3.33093368 C15.3551816,3.42069604 15.9096555,3.52754355 16.425952,3.64707523 L16.4632524,3.73630187 L12.5684702,5.36447924 L17.01425,7.02203102 C18.7533607,6.55442936 19.9342727,5.94511956 19.9342727,5.40166751 C19.9342727,4.80103157 18.4831835,4.1233603 16.425952,3.64707523 L16.4632524,3.73630187 L12.5684702,5.36447924 L11.1640107,4.84084459 L14.7758863,3.33093368 Z M20.9589772,5.38573957 C20.9776556,5.36733636 20.9868292,5.35754848 20.9868292,5.35754848 L20.565056,19.2227347 C20.565056,19.2227347 19.2016575,22.9792395 11.7744186,22.9792395 C9.87776793,22.9792395 8.34681484,22.7342746 7.11846941,22.3694553 C4.40069088,21.7945451 2.48091577,20.6791175 2.48091577,19.309197 C2.48091577,19.1886847 2.49579405,19.0697984 2.52476212,18.9527693 L2.36971096,5.46356124 C2.36889969,5.44299644 2.3684924,5.42236493 2.3684924,5.40166751 C2.3684924,5.3930628 2.36856275,5.38446982 2.36870321,5.37588861 L2.3684924,5.35754848 C2.42512324,3.36143194 6.28084027,2.00735637 10.9717037,2.00735637 C15.9848303,2.00735637 20.9323489,3.42228713 20.9589772,5.38573957 Z" id="path-1"></path>
    </defs>
    <g id="icon-/-Shapes-/-Cylinder-Shape" stroke="none" stroke-width="1" fill="none" fill-rule="evenodd">
        <mask id="mask-2" fill="white">
            <use xlink:href="#path-1"></use>
        </mask>
        <use id="Combined-Shape" fill="#5A69A1" fill-rule="nonzero" xlink:href="#path-1"></use>
    </g>
</svg>