<?xml version="1.0" encoding="UTF-8"?>
<svg width="24px" height="24px" viewBox="0 0 24 24" version="1.1" xmlns="http://www.w3.org/2000/svg" xmlns:xlink="http://www.w3.org/1999/xlink">
    <title>icon / Other / DebugDrawObb</title>
    <g id="icon-/-Other-/-DebugDrawObb" stroke="none" stroke-width="1" fill="none" fill-rule="evenodd">
        <path d="M17.3297596,10.3636567 L22.4763023,13.3350146 L22.4763023,19.2777302 L17.3297596,22.2490881 L12.1832168,19.2777302 L12.1832168,13.3350146 L17.3297596,10.3636567 Z M17.6704975,20.8396941 L17.3297596,21.0368569 L17.1454975,20.9306941 L17.1463633,21.3330108 L17.6712748,21.3330108 L17.6704975,20.8396941 Z M13.2324975,14.6286941 L13.2330398,18.6716147 L17.1454975,20.9306941 L17.1463633,16.7258134 L13.2324975,14.6286941 Z M21.4254975,14.5786941 L17.6712748,16.7303705 L17.6704975,20.8396941 L21.4264793,18.6716147 L21.4254975,14.5786941 Z M7.90814998,1.85628152 C8.1839598,2.13209135 8.06297039,2.45054224 7.78716056,2.72635207 C7.41941413,3.0940985 7.41894278,3.32702089 7.51087939,3.78670393 C8.10846734,3.83267224 8.90783072,4.26029361 9.32154546,4.67400835 C9.45945037,4.81191326 9.55138698,4.99578648 9.68929189,5.13369139 C10.0570383,5.225628 10.3788165,5.36353291 10.7925312,5.50143782 L11.5739924,4.71997665 C11.3291786,4.12372342 11.1453053,3.69468591 11.0223727,3.43286413 C10.8379738,3.04013147 12.0049807,2.45146532 12.2175486,2.97318109 C12.3273439,3.24265708 12.5268337,3.71725758 12.8160178,4.3969826 C12.9000813,4.59457325 12.8732385,5.25946268 12.7643846,5.36831663 L12.0336754,6.09902578 C12.3554535,6.23693069 12.5852951,6.3748356 12.8151366,6.51274052 C13.0909464,6.69661373 13.4127245,6.92645525 13.6885344,7.20226508 L14.1673498,6.72344963 C14.3691106,6.5216888 14.9165375,6.60774092 15.1162948,6.69161043 C15.7463204,6.95613109 16.2204118,7.15699485 16.5385692,7.29420169 C17.1671188,7.5652666 16.4636586,8.65783304 16.0788862,8.4893776 C15.8223712,8.37707396 15.3933337,8.19320075 14.7917737,7.93775795 L14.5159638,8.21356777 C14.7458054,8.71921912 15.2688907,9.30833115 15.6118847,10.3098789 C14.9532881,10.6649372 13.475052,11.5159179 11.1771766,12.862821 L11.199459,15.525243 C10.3109975,15.4755262 8.72395751,14.741067 8.26427446,14.4652571 L7.98846464,14.741067 C8.21948295,15.2468336 8.40335617,15.6758711 8.54008429,16.0281795 C8.74517647,16.556642 7.54258047,16.9687717 7.34490838,16.4878625 C7.24216039,16.2378907 7.04254139,15.7636501 6.74605139,15.0651407 C6.61888134,14.7655371 6.69297009,14.1978294 6.80369983,14.0870996 L7.25297177,13.6378277 C6.97716195,13.3620178 6.74732043,13.0402397 6.56344721,12.7644299 C6.37957399,12.4886201 6.28763738,12.2128102 6.14973247,11.9829687 L5.32117071,12.8115305 C5.2449343,12.8877669 4.88876548,12.9619796 4.79045923,12.9235958 C4.07736246,12.6451663 3.48850531,12.392915 3.02388779,12.1668419 C2.4601459,11.8038207 2.92297151,10.8527439 3.48357083,10.971666 C3.7522525,11.0724432 4.19661278,11.2409936 4.81665165,11.4773174 L5.59811282,10.6958562 C5.4142396,10.3281098 5.322303,9.96036333 5.23036639,9.5926169 C5.04649317,9.50068029 4.86261995,9.40874368 4.72471504,9.27083877 C4.3110003,8.85712403 4.05695336,7.96661384 3.96501675,7.41499419 C3.45936541,7.27708928 3.20769914,7.39418283 2.8399527,7.76192926 C2.56414288,8.03773909 2.16404633,8.29583699 1.8882365,8.02002716 C1.61242668,7.74421734 1.66898222,7.50323185 1.94479204,7.22742202 C2.5883483,6.58386576 3.1617927,6.3288673 4.03519048,6.46677221 C4.21906369,5.91515256 4.49487352,5.36353291 4.95455656,4.90384987 C5.4142396,4.44416683 5.91989095,4.21432531 6.4715106,4.03045209 C6.33360569,3.15705431 6.47198195,2.60235379 7.11553821,1.95879753 C7.39134803,1.68298771 7.63234015,1.5804717 7.90814998,1.85628152 Z M17.3297596,11.5758879 L13.2330398,13.9411302 L13.2324975,14.0326941 L17.4131945,16.2732737 L21.4254975,13.9746941 L21.4264793,13.9411302 L17.3297596,11.5758879 Z M12.9757943,13.8951783 L12.7278456,14.3578375 L13.2324975,14.6286941 L13.2324975,14.0326941 L12.9757943,13.8951783 Z M21.5578627,13.8987774 L21.4254975,13.9746941 L21.4254975,14.5786941 L21.8187981,14.3542385 L21.5578627,13.8987774 Z M9.65144935,6.51359926 C9.28502811,7.21888648 8.84975606,7.82183022 8.34563319,8.32243048 C7.84151033,8.82303074 7.24202056,9.25456726 6.5471639,9.61704004 C7.03815466,11.1266424 7.57758222,12.1779722 8.16544658,12.7710294 C8.71734135,13.3277992 9.25045944,13.9116383 10.2169736,13.9801598 C10.2165964,13.9203507 10.2163432,13.8699938 10.2161963,13.8272879 L10.21645,13.648452 C10.2168658,13.6098362 10.2175657,13.5874126 10.2184086,13.5667702 L10.2197625,13.5353408 C10.2219011,13.4847962 10.224406,13.4067896 10.2256685,13.1371674 L10.2256032,12.0830666 L10.2256032,12.0830666 C11.1314526,11.6743846 13.3736007,10.2971277 14.1940558,9.88793053 C13.5517309,8.86203962 13.2508544,8.27986424 12.6368654,7.79171276 C11.8303152,7.15046557 10.4768917,6.57661485 9.65144935,6.51359926 Z M5.87392265,5.82321595 C5.09246147,6.60467712 5.00052487,7.70791642 5.64408112,8.35147268 C5.78198604,8.4893776 5.84124159,8.49423856 6.04612192,8.42735392 C6.76697306,8.0795451 7.24877279,7.78426652 7.49152112,7.54151819 C7.73910137,7.29393794 8.05043584,6.83870422 8.42552452,6.17581704 C8.54037558,5.91646296 8.54008429,5.73127934 8.40217938,5.59337443 C7.75862312,4.94981817 6.65538382,5.04175478 5.87392265,5.82321595 Z" id="Combined-Shape" fill="#FFFFFF"></path>
    </g>
</svg>