<?xml version="1.0" encoding="UTF-8"?>
<svg width="24px" height="24px" viewBox="0 0 24 24" version="1.1" xmlns="http://www.w3.org/2000/svg" xmlns:xlink="http://www.w3.org/1999/xlink">
    <title>icon / Other / DebugDrawSphere</title>
    <defs>
        <path d="M16.1734284,11.1786341 C19.1780328,11.1786341 21.6137459,13.6143472 21.6137459,16.6189515 C21.6137459,19.6235559 19.1780328,22.059269 16.1734284,22.059269 C13.168824,22.059269 10.7331109,19.6235559 10.7331109,16.6189515 C10.7331109,13.6143472 13.168824,11.1786341 16.1734284,11.1786341 Z M14.5255793,19.5039959 C13.9699963,19.585577 13.3998919,19.617444 12.8261493,19.5943595 C13.6387114,20.5078181 14.8195399,21.0864339 16.1357174,21.0972895 C15.4745728,20.7176572 14.9356523,20.1676579 14.5255793,19.5039959 Z M18.8873546,17.5258673 C17.8868739,18.4422524 16.5312824,19.1068494 15.0420793,19.4130621 C15.5298432,20.1355177 16.1919547,20.6872399 17.0146882,20.9705298 L16.9970067,21.0218804 C18.0259569,20.8306189 18.9312959,20.2875637 19.5835256,19.5222128 C19.5451866,18.8001104 19.295793,18.1258296 18.8873546,17.5258673 Z M12.0454131,14.8791854 C11.8197134,15.4140591 11.694935,16.0019335 11.694935,16.6189515 C11.694935,17.5312041 11.9676908,18.3797512 12.4360996,19.0874898 C13.055891,19.1424947 13.6739581,19.1283219 14.275031,19.0527367 C13.6747098,17.8454556 13.4504037,16.3459587 13.6345836,14.832234 C13.111346,14.7961485 12.5779663,14.8099362 12.0454131,14.8791854 Z M14.1135216,14.8794371 C13.9311377,16.3652384 14.1668526,17.8309415 14.7782293,18.974484 C16.2673447,18.6981439 17.6209592,18.0448976 18.5939354,17.1394078 C17.5921359,15.9489743 15.9372232,15.1134022 14.1135216,14.8794371 Z M20.4168894,15.1833862 C20.1936518,15.920101 19.7839818,16.5936029 19.2360855,17.1806928 C19.6148949,17.7167121 19.8796629,18.3112783 19.9987091,18.9491703 C20.4131312,18.2703093 20.6519218,17.4725167 20.6519218,16.6189515 C20.6519218,16.1168452 20.5692923,15.634038 20.4168894,15.1833862 Z M7.86241817,2.18855107 C8.138228,2.46436089 8.01723858,2.78281179 7.74142876,3.05862161 C7.37368232,3.42636805 7.37321098,3.65929044 7.46514759,4.11897348 C8.06273554,4.16494178 8.86209892,4.59256316 9.27581366,5.00627789 C9.41371857,5.14418281 9.50565518,5.32805602 9.64356009,5.46596094 C10.0113065,5.55789754 10.3330847,5.69580246 10.7467994,5.83370737 L11.5282606,5.0522462 C11.2834468,4.45599296 11.0995735,4.02695545 10.9766409,3.76513368 C10.792242,3.37240102 11.9592489,2.78373486 12.1718168,3.30545064 C12.2816121,3.57492663 12.4811019,4.04952713 12.770286,4.72925214 C12.8543495,4.9268428 12.8275067,5.59173223 12.7186528,5.70058618 L11.9879436,6.43129532 C12.3097217,6.56920024 12.5395633,6.70710515 12.7694048,6.84501006 C13.0452146,7.02888328 13.3669927,7.2587248 13.6428026,7.53453462 L14.121618,7.05571918 C14.3233788,6.85395834 14.8708057,6.94001046 15.070563,7.02387997 C15.7005886,7.28840064 16.17468,7.48926439 16.4928374,7.62647123 C17.121387,7.89753615 16.4179268,8.99010259 16.0331544,8.82164714 C15.7766394,8.70934351 15.3476019,8.52547029 14.7460419,8.27002749 L14.470232,8.54583732 C14.7000736,9.05148866 15.094759,9.74864679 15.1866956,10.3002664 C14.4972712,10.3150821 12.6625756,10.5343079 11.4165175,11.7461524 C10.1704594,12.9579969 9.87484232,14.4327057 9.64257686,15.4047648 C9.23458794,15.2728341 8.50469264,14.9692167 8.21854266,14.7975267 L7.94273283,15.0733365 C8.17375115,15.5791032 8.35762436,16.0081407 8.49435249,16.360449 C8.69944467,16.8889116 7.49684866,17.3010412 7.29917658,16.8201321 C7.19642859,16.5701603 6.99680959,16.0959197 6.70031958,15.3974103 C6.57314953,15.0978066 6.56153632,14.606021 6.75796802,14.4193692 L7.20723997,13.9700972 C6.93143014,13.6942874 6.70158862,13.3725093 6.5177154,13.0966994 C6.33384219,12.8208896 6.24190558,12.5450798 6.10400067,12.3152383 L5.2754389,13.1438 C5.19920249,13.2200364 4.84303368,13.2942491 4.74472743,13.2558653 C4.03163065,12.9774358 3.44277351,12.7251845 2.97815598,12.4991115 C2.4144141,12.1360902 2.87723971,11.1850135 3.43783902,11.3039356 C3.7065207,11.4047127 4.15088097,11.5732632 4.77091984,11.8095869 L5.55238102,11.0281257 C5.3685078,10.6603793 5.27657119,10.2926329 5.18463458,9.92488644 C5.00076137,9.83294983 4.81688815,9.74101323 4.67898324,9.60310831 C4.2652685,9.18939358 4.01122156,8.29888339 3.91928495,7.74726374 C3.4136336,7.60935882 3.16196733,7.72645237 2.7942209,8.09419881 C2.51841108,8.37000863 2.11831452,8.62810654 1.8425047,8.35229671 C1.56669487,8.07648689 1.62325041,7.83550139 1.89906024,7.55969157 C2.5426165,6.91613531 3.11606089,6.66113684 3.98945867,6.79904176 C4.17333189,6.24742211 4.44914172,5.69580246 4.90882476,5.23611941 C5.3685078,4.77643637 5.87415915,4.54659485 6.4257788,4.36272163 C6.28787388,3.48932385 6.42625014,2.93462334 7.0698064,2.29106708 C7.34561623,2.01525725 7.58660835,1.91274124 7.86241817,2.18855107 Z M16.1734284,12.1404581 C15.7161715,12.1404581 15.2749201,12.2089855 14.8593838,12.3363306 C14.5376264,13.0015515 14.3147153,13.701348 14.1861728,14.4038485 C16.1031176,14.6520509 17.8513066,15.5283007 18.9349403,16.7943866 C19.5522363,16.1137331 19.965431,15.3153559 20.088664,14.4429187 C19.3237085,13.0695106 17.8570644,12.1404581 16.1734284,12.1404581 Z M14.2205269,12.5875456 C13.4176449,12.9771996 12.7486864,13.5996364 12.3013812,14.3671265 C12.7724178,14.3241161 13.2429221,14.321219 13.7061597,14.3551995 C13.8128243,13.7579596 13.9836152,13.1630494 14.2205269,12.5875456 Z M9.60571755,6.8458688 C9.23929631,7.55115603 8.80402425,8.15409977 8.29990139,8.65470003 C7.79577852,9.15530028 7.19628876,9.58683681 6.5014321,9.94930959 C6.74963201,10.7124262 6.84931129,11.3303269 7.31440502,12.1024639 C7.77949875,12.8746008 8.57334944,13.4740576 8.96210738,13.6505172 C9.06340773,12.937299 9.60093028,12.0460988 10.5562918,10.9967604 C11.5116533,9.94742197 12.6843627,9.53337579 13.4411672,9.47850047 C13.2696729,9.07877696 12.663937,8.36438098 11.9923894,7.89415327 C11.2384407,7.36622711 10.6153961,7.07596431 9.60571755,6.8458688 Z M5.82819084,6.1554855 C5.04672967,6.93694667 4.95479306,8.04018597 5.59834932,8.68374223 C5.73625423,8.82164714 5.79550978,8.82650811 6.00039011,8.75962347 C6.72124125,8.41181464 7.20304099,8.11653606 7.44578931,7.87378774 C7.69336957,7.62620749 8.00470403,7.17097377 8.37979272,6.50808658 C8.49464378,6.2487325 8.49435249,6.06354889 8.35644757,5.92564398 C7.71289131,5.28208772 6.60965201,5.37402433 5.82819084,6.1554855 Z" id="path-1"></path>
    </defs>
    <g id="icon-/-Other-/-DebugDrawSphere" stroke="none" stroke-width="1" fill="none" fill-rule="evenodd">
        <mask id="mask-2" fill="white">
            <use xlink:href="#path-1"></use>
        </mask>
        <use id="Combined-Shape" fill="#FFFFFF" xlink:href="#path-1"></use>
    </g>
</svg>