<?xml version="1.0" encoding="UTF-8"?>
<svg width="24px" height="24px" viewBox="0 0 24 24" version="1.1" xmlns="http://www.w3.org/2000/svg" xmlns:xlink="http://www.w3.org/1999/xlink">
    <title>icon / Rendering / Decal</title>
    <defs>
        <path d="M10.3601087,17.8244045 L11.9375,14.8823836 L13.5148913,17.8244045 L13.4099418,14.487844 L16.2470132,16.2470132 L14.487844,13.4099418 L17.8244045,13.5148913 L14.8823836,11.9375 L17.8244045,10.3601087 L14.487844,10.4650582 L16.2470132,7.62798682 L13.4099418,9.38715598 L13.5148913,6.05059552 L11.9375,8.99261638 L10.3601087,6.05059552 L10.4650582,9.38715598 L7.62798682,7.62798682 L9.38715598,10.4650582 L6.05059552,10.3601087 L8.99261638,11.9375 L6.05059552,13.5148913 L9.38715598,13.4099418 L7.62798682,16.2470132 L10.4650582,14.487844 L10.3601087,17.8244045 Z M11.9375,17.114281 L9.16461986,22.2860296 L9.34910951,16.4207238 L4.36185057,19.5131494 L7.45427616,14.5258905 L1.58897043,14.7103801 L6.76071902,11.9375 L1.58897043,9.16461986 L7.45427616,9.34910951 L4.36185057,4.36185057 L9.34910951,7.45427616 L9.16461986,1.58897043 L11.9375,6.76071902 L14.7103801,1.58897043 L14.5258905,7.45427616 L19.5131494,4.36185057 L16.4207238,9.34910951 L22.2860296,9.16461986 L17.114281,11.9375 L22.2860296,14.7103801 L16.4207238,14.5258905 L19.5131494,19.5131494 L14.5258905,16.4207238 L14.7103801,22.2860296 L11.9375,17.114281 Z" id="path-1"></path>
    </defs>
    <g id="icon-/-Rendering-/-Decal" stroke="none" stroke-width="1" fill="none" fill-rule="evenodd">
        <mask id="mask-2" fill="white">
            <use xlink:href="#path-1"></use>
        </mask>
        <use id="Star-1" fill="#B29EDF" fill-rule="nonzero" xlink:href="#path-1"></use>
    </g>
</svg>