<?xml version="1.0" encoding="UTF-8"?>
<svg width="24px" height="24px" viewBox="0 0 24 24" version="1.1" xmlns="http://www.w3.org/2000/svg" xmlns:xlink="http://www.w3.org/1999/xlink">
    <title>icon / Shapes / Disk_shape</title>
    <defs>
        <path d="M11.2949674,2.86381314 C14.965583,2.86381314 17.9412049,7.01769439 17.9412049,12.1417666 C17.9412049,17.2658388 14.965583,21.4197201 11.2949674,21.4197201 C7.62435182,21.4197201 4.64872995,17.2658388 4.64872995,12.1417666 C4.64872995,7.01769439 7.62435182,2.86381314 11.2949674,2.86381314 Z M11.229071,4.5041143 C8.37024708,4.5041143 6.05271243,7.92360771 6.05271243,12.1417666 C6.05271243,16.3599255 8.37024708,19.7794189 11.229071,19.7794189 C14.0878948,19.7794189 16.4054295,16.3599255 16.4054295,12.1417666 C16.4054295,7.92360771 14.0878948,4.5041143 11.229071,4.5041143 Z M8.43336452,11.5810482 L11.0006639,11.591655 C11.1656209,11.7447723 11.2412282,11.9410219 11.2274857,12.1804038 C11.2137433,12.4197856 11.138136,12.5938127 11.0006639,12.7024851 L8.43336452,12.6918782 L8.43336452,11.5810482 Z" id="path-1"></path>
    </defs>
    <g id="icon-/-Shapes-/-Disk_shape" stroke="none" stroke-width="1" fill="none" fill-rule="evenodd">
        <mask id="mask-2" fill="white">
            <use xlink:href="#path-1"></use>
        </mask>
        <use id="Combined-Shape" fill="#5A69A1" fill-rule="nonzero" transform="translate(11.294967, 12.141767) rotate(28.000000) translate(-11.294967, -12.141767) " xlink:href="#path-1"></use>
    </g>
</svg>