<?xml version="1.0" encoding="UTF-8"?>
<svg width="24px" height="24px" viewBox="0 0 24 24" version="1.1" xmlns="http://www.w3.org/2000/svg" xmlns:xlink="http://www.w3.org/1999/xlink">
    <title>icon / Animation /Flipbook</title>
    <g id="icon-/-Animation-/Flipbook" stroke="none" stroke-width="1" fill="none" fill-rule="evenodd">
        <path d="M18.7583385,1.55822613 L17.9475152,3.48465786 C17.5934425,4.32589772 17.0344275,5.4154016 16.269496,6.7556582 L21.0435615,5.31475484 L19.0226076,8.91963824 L23.0770355,8.59903146 L15.6987792,22.4417739 L1.37757354,14.6332938 L0.922964453,14.3927945 L1.24960107,13.9594044 L2.32837812,12.5064868 C2.68671375,12.0524718 3.58118336,10.7440834 4.99897904,8.59903146 L6.93060967,5.65543727 L7.26298437,5.6449364 C10.4921893,5.54291461 13.2363716,4.67442854 16.5493904,2.83248769 L17.0014381,2.5758993 L18.7583385,1.55822613 Z M18.4056654,10.0861244 L13.8655783,17.6964495 L3.90526287,14.6745106 L3.90526287,15.1332285 L15.0121996,20.3242713 L20.9131636,10.0861244 L18.4056654,10.0861244 Z M18.5744706,7.14261293 L15.5763834,7.77584609 L11.881489,13.2844975 L11.6795377,13.5774949 C10.377706,13.9725847 7.97068485,14.1344087 3.93956523,13.9031352 C3.93956523,14.0414864 3.93956523,14.1344087 3.93956523,14.2469303 L12.9702595,16.0187498 L18.5744706,7.14261293 Z" id="Shape" fill="#5AA9D2" fill-rule="nonzero"></path>
    </g>
</svg>