<?xml version="1.0" encoding="UTF-8"?>
<svg width="24px" height="24px" viewBox="0 0 24 24" version="1.1" xmlns="http://www.w3.org/2000/svg" xmlns:xlink="http://www.w3.org/1999/xlink">
    <title>icon / Physics / PhysX / ForceVolume</title>
    <defs>
        <path d="M12.8485825,6.55130618 L16.7034482,6.55130618 L20.2189166,10.9557258 L20.2189166,12.5484138 L16.7034482,17.5513062 L12.8485825,17.5513062 L16.3377333,12.5484138 L16.3377333,10.9557258 L12.8485825,6.55130618 Z M9.24066553,6.55130618 L11.768073,6.55130618 L15.2835414,10.9557258 L15.2835414,12.5484138 L11.768073,17.5513062 L9.24066553,17.5513062 L12.7298164,12.5484138 L12.7298164,10.9557258 L9.24066553,6.55130618 Z M6.47688416,6.55130618 L8.16015604,6.55130618 L11.6756245,10.9557258 L11.6756245,12.5484138 L8.16015604,17.5513062 L6.47688416,17.5513062 L9.966035,12.5484138 L9.966035,10.9557258 L6.47688416,6.55130618 Z M12,21 C16.9705627,21 21,16.9705627 21,12 C21,7.02943725 16.9705627,3 12,3 C7.02943725,3 3,7.02943725 3,12 C3,16.9705627 7.02943725,21 12,21 Z M12,22.5 C6.20101013,22.5 1.5,17.7989899 1.5,12 C1.5,6.20101013 6.20101013,1.5 12,1.5 C17.7989899,1.5 22.5,6.20101013 22.5,12 C22.5,17.7989899 17.7989899,22.5 12,22.5 Z" id="path-1"></path>
    </defs>
    <g id="icon-/-Physics-/-PhysX-/-ForceVolume" stroke="none" stroke-width="1" fill="none" fill-rule="evenodd">
        <mask id="mask-2" fill="white">
            <use xlink:href="#path-1"></use>
        </mask>
        <use id="Shape" fill="#DD7F6D" xlink:href="#path-1"></use>
    </g>
</svg>