<?xml version="1.0" encoding="UTF-8"?>
<svg width="24px" height="24px" viewBox="0 0 24 24" version="1.1" xmlns="http://www.w3.org/2000/svg" xmlns:xlink="http://www.w3.org/1999/xlink">
    <!-- Generator: Sketch 53.2 (72643) - https://sketchapp.com -->
    <title>icon / Physics / Cry / Force Volume</title>
    <desc>Created with Sketch.</desc>
    <defs>
        <path d="M13.3485825,7.05130618 L17.2034482,7.05130618 L20.7189166,11.4557258 L20.7189166,13.0484138 L17.2034482,18.0513062 L13.3485825,18.0513062 L16.8377333,13.0484138 L16.8377333,11.4557258 L13.3485825,7.05130618 Z M9.74066553,7.05130618 L12.268073,7.05130618 L15.7835414,11.4557258 L15.7835414,13.0484138 L12.268073,18.0513062 L9.74066553,18.0513062 L13.2298164,13.0484138 L13.2298164,11.4557258 L9.74066553,7.05130618 Z M6.97688416,7.05130618 L8.66015604,7.05130618 L12.1756245,11.4557258 L12.1756245,13.0484138 L8.66015604,18.0513062 L6.97688416,18.0513062 L10.466035,13.0484138 L10.466035,11.4557258 L6.97688416,7.05130618 Z M12.5,21.5 C17.4705627,21.5 21.5,17.4705627 21.5,12.5 C21.5,7.52943725 17.4705627,3.5 12.5,3.5 C7.52943725,3.5 3.5,7.52943725 3.5,12.5 C3.5,17.4705627 7.52943725,21.5 12.5,21.5 Z M12.5,23 C6.70101013,23 2,18.2989899 2,12.5 C2,6.70101013 6.70101013,2 12.5,2 C18.2989899,2 23,6.70101013 23,12.5 C23,18.2989899 18.2989899,23 12.5,23 Z" id="path-1"></path>
    </defs>
    <g id="icon-/-Physics-/-Cry-/-Force-Volume" stroke="none" stroke-width="1" fill="none" fill-rule="evenodd">
        <mask id="mask-2" fill="white">
            <use xlink:href="#path-1"></use>
        </mask>
        <use id="Shape" fill="#DD7F6D" xlink:href="#path-1"></use>
    </g>
</svg>