<?xml version="1.0" encoding="UTF-8"?>
<svg width="24px" height="24px" viewBox="0 0 24 24" version="1.1" xmlns="http://www.w3.org/2000/svg" xmlns:xlink="http://www.w3.org/1999/xlink">
    <title>icon / Rendering / GeometryCache</title>
    <defs>
        <path d="M21.5445757,7.41402559 L21.5397656,20.5769086 C21.5397656,21.1037689 21.1126609,21.5308735 20.5858006,21.5308735 L3.4144315,21.5308735 C2.88757121,21.5308735 2.46046655,21.1037689 2.46046655,20.5769086 L2.46527664,7.41402559 L21.5445757,7.41402559 Z M9.08770901,9.83859909 L9.08770901,18.0743612 L16.2940009,13.9564802 L9.08770901,9.83859909 Z M16.1244201,2.08785302 L11.6223105,5.90371283 L7.26925124,5.90371283 L11.7713608,2.08785302 L16.1244201,2.08785302 Z M20.5858006,2.08785302 C21.1126609,2.08785302 21.5397656,2.51495768 21.5397656,3.04181797 L21.5397656,5.90371283 L14.4366065,5.90371283 L18.9387161,2.08785302 L20.5858006,2.08785302 Z M8.95706478,2.08785302 L4.45495525,5.90371283 L2.46046655,5.90371283 L2.46046655,3.04181797 C2.46046655,2.51495768 2.88757121,2.08785302 3.4144315,2.08785302 L8.95706478,2.08785302 Z" id="path-1"></path>
    </defs>
    <g id="icon-/-Rendering-/-GeometryCache" stroke="none" stroke-width="1" fill="none" fill-rule="evenodd">
        <mask id="mask-2" fill="white">
            <use xlink:href="#path-1"></use>
        </mask>
        <use id="Combined-Shape" fill="#B29EDF" fill-rule="nonzero" xlink:href="#path-1"></use>
    </g>
</svg>