<?xml version="1.0" encoding="UTF-8"?>
<svg width="24px" height="24px" viewBox="0 0 24 24" version="1.1" xmlns="http://www.w3.org/2000/svg" xmlns:xlink="http://www.w3.org/1999/xlink">
    <title>icon / Rendering / LightningArc</title>
    <defs>
        <path d="M16.4805626,15.3973272 C16.8031021,15.763174 17.0870239,16.0026461 17.3323279,16.1157437 C17.5776319,16.2288412 17.9656722,16.2991775 18.4964487,16.3267526 L15.4036622,21.3264389 C15.0972331,21.3900909 14.8770774,21.3898202 14.7431953,21.3256268 C14.6093132,21.2614334 14.4735172,21.0910334 14.3358072,20.8144268 L16.4805626,15.3973272 Z M7.51943741,15.216445 L9.6641928,20.6335446 C9.52648282,20.9101512 9.39068678,21.0805512 9.25680467,21.1447447 C9.12292256,21.2089381 8.90276695,21.2092087 8.59633783,21.1455567 L8.59633783,21.1455567 L5.50355129,16.1458704 C6.03432785,16.1182954 6.42236812,16.0479591 6.66767212,15.9348615 C6.91297612,15.821764 7.19689789,15.5822918 7.51943741,15.216445 L7.51943741,15.216445 Z M8.80508638,2.62602425 L11.0075597,7.33565202 L13.5189819,4.01571498 L15.0899278,6.97856217 L17.8943618,3.70728641 L19.0344185,10.0261604 C20.0552118,10.0381718 21.0256448,10.6306371 21.4720818,11.6241204 C22.0837692,12.9853453 21.4804563,14.5870926 20.1219837,15.2059776 C18.7565236,15.8280458 17.1475152,15.2204424 16.5326059,13.8520475 C15.9387556,12.5305164 16.4900789,10.9822858 17.7658011,10.326808 L16.5608945,8.80163643 L13.0360968,14.9660623 L12.5565006,8.40488812 L9.50233023,12.4434503 L8.32917886,8.47414178 L6.61972154,10.386682 C7.61515488,11.1314156 7.99745187,12.4915957 7.46739413,13.6711653 C6.85248483,15.0395602 5.24347636,15.6471637 3.87801633,15.0250954 C2.51954373,14.4062104 1.91623085,12.8044631 2.5279182,11.4432382 C3.0879353,10.1969982 4.47248948,9.58178254 5.74667522,9.95177821 L8.80508638,2.62602425 Z M19.2517843,11.2307019 L19.479075,12.4938063 L18.5291701,11.2907015 C18.4813591,11.3069412 18.4338893,11.3257296 18.3869212,11.3471271 C17.6209745,11.6960725 17.27836,12.6056866 17.624121,13.3751294 C17.967241,14.1386951 18.8581223,14.475115 19.6177665,14.1290408 C20.3837131,13.7800953 20.7263277,12.8704813 20.3805667,12.1010385 C20.1647234,11.6207094 19.7321216,11.3094092 19.2517843,11.2307019 Z M5.28360798,11.0593981 C4.61156088,10.9242822 3.91384957,11.264974 3.61943331,11.9201563 C3.27367234,12.6895991 3.61628685,13.5992131 4.38223349,13.9481586 C5.14187771,14.2942329 6.03275903,13.9578129 6.37587901,13.1942472 C6.68863098,12.4982613 6.4381688,11.6875903 5.82064286,11.2809041 L4.64200456,12.5998277 Z" id="path-1"></path>
    </defs>
    <g id="icon-/-Rendering-/-LightningArc" stroke="none" stroke-width="1" fill="none" fill-rule="evenodd">
        <mask id="mask-2" fill="white">
            <use xlink:href="#path-1"></use>
        </mask>
        <use id="Combined-Shape" fill="#B29EDF" fill-rule="nonzero" xlink:href="#path-1"></use>
    </g>
</svg>