<?xml version="1.0" encoding="UTF-8"?>
<svg width="24px" height="24px" viewBox="0 0 24 24" version="1.1" xmlns="http://www.w3.org/2000/svg" xmlns:xlink="http://www.w3.org/1999/xlink">
    <title>icon / Gameplay / LookAt</title>
    <defs>
        <path d="M14.2559026,1.88023205 L13.5099928,4.87817679 L11.7612182,6.17233976 C12.9270679,7.45423212 13.5099928,9.39678553 13.5099928,12 C13.5099928,14.6032145 12.6987801,16.7035556 11.0763549,18.3010235 L12.5635715,19.7320409 L12.5635715,22.119768 C10.3199503,20.7494942 8.48824877,19.4765794 7.06846702,18.3010235 C5.64868527,17.1254676 3.59849,15.184236 0.917881228,12.4773286 L0.917881228,11.0627198 L8.38092366,4.87817679 L14.2559026,1.88023205 Z M14.7911976,14.2690899 L21.4147725,17.806502 L21.2804047,18.3614758 L21.2804047,18.3614758 L21.1349228,18.9262701 L14.7096043,15.0462071 C14.7437593,14.884978 14.7709571,14.6259389 14.7911976,14.2690899 Z M10.7928135,6.83802235 C9.39839605,7.21963409 8.24864656,7.72828887 7.34356504,8.36398667 C6.43848353,8.99968447 5.13842613,10.2116889 3.44339286,12 C4.76069149,13.7430881 5.78817532,14.9100279 6.52584433,15.5008192 C7.20204094,16.042378 8.15329421,16.5151387 9.37960415,16.9191013 L9.72087191,17.0275671 L10.7928135,15.5008192 C8.97633095,14.8213606 8.06808967,13.6544208 8.06808967,12 C8.06808967,10.4092107 9.04677789,9.36673997 11.0041543,8.87258771 L11.2437372,8.81592137 L10.7928135,6.83802235 Z M20.0532593,9.50362742 L23.16934,12.1431311 L20.0532593,14.7826347 L20.0528122,12.8258067 L15.0330202,12.7807274 L15.0330202,11.158635 L20.0528122,11.158635 L20.0532593,9.50362742 Z M20.8714732,5.07372992 C21.0284802,5.56712123 21.1711523,6.04841163 21.2994894,6.51760113 L14.7870726,9.83956091 C14.7712654,9.58161554 14.7515774,9.37795191 14.7280086,9.22857002 L14.7096043,9.12671142 L20.8714732,5.07372992 Z" id="path-1"></path>
    </defs>
    <g id="icon-/-Gameplay-/-LookAt" stroke="none" stroke-width="1" fill="none" fill-rule="evenodd">
        <mask id="mask-2" fill="white">
            <use xlink:href="#path-1"></use>
        </mask>
        <use id="Combined-Shape" fill="#65C98C" xlink:href="#path-1"></use>
    </g>
</svg>