<?xml version="1.0" encoding="UTF-8"?>
<svg width="24px" height="24px" viewBox="0 0 24 24" version="1.1" xmlns="http://www.w3.org/2000/svg" xmlns:xlink="http://www.w3.org/1999/xlink">
    <!-- Generator: Sketch 53.2 (72643) - https://sketchapp.com -->
    <title>icon / Animation / Mannequin</title>
    <desc>Created with Sketch.</desc>
    <defs>
        <path d="M8.31158497,15.3182822 L15.1786727,15.3182822 L15.1786727,7.32593279 L8.31158497,7.32593279 L8.31158497,15.3182822 Z M5.24461506,9.78505659 L7.61539672,9.78505659 L7.61539672,8.35295389 L5.24461506,8.35295389 L5.24461506,9.78505659 Z M15.8775987,9.78768358 L18.2473537,9.78768358 L18.2473537,8.36004676 L15.8775987,8.36004676 L15.8775987,9.78768358 Z M5.24347433,12.0470249 L7.60307682,12.0470249 L7.60307682,10.5965333 L5.24347433,10.5965333 L5.24347433,12.0470249 Z M15.8752032,10.6008678 L15.8752032,12.0597658 L18.2350338,12.0597658 L18.2350338,10.6008678 L15.8752032,10.6007365 Z M5.25271425,14.3033452 L7.60684123,14.3033452 L7.60684123,12.8436591 L5.25271425,12.8436591 L5.25271425,14.3033452 Z M5.24769503,15.1136398 L5.24769503,16.5446917 L7.61437006,16.5446917 L7.61437006,15.1136398 L5.24769503,15.1135084 Z M15.8948238,7.53451567 L18.2506619,7.53451567 L18.2506619,6.11213282 L15.8948238,6.11213282 L15.8948238,7.53451567 Z M5.26674524,7.49327195 L7.62281147,7.49327195 L7.62281147,6.09912923 L5.26674524,6.09912923 L5.26674524,7.49327195 Z M15.8831883,12.8846401 L15.8831883,14.3050527 L18.2419923,14.3050527 L18.2419923,12.8846401 L15.8831883,12.8845088 Z M15.8925423,16.5390436 L18.2545403,16.5390436 L18.2545403,15.1597434 L15.8925423,15.1597434 L15.8925423,16.5390436 Z M8.25865504,16.0827358 L8.25865504,19.1811372 L7.65155789,19.1811372 L7.65155789,17.3846712 L5.22419597,17.3846712 L5.22419597,19.1703665 L4.31799874,19.2131366 L4.31799874,3.51596179 C4.5057631,3.50532248 4.96741738,3.45322656 5.19852952,3.44009162 L5.19852952,5.2487731 L7.63091066,5.2487731 L7.63091066,3.47568731 L8.2248894,3.47568731 L8.2248894,6.53652279 L15.2288649,6.53652279 L15.2288649,3.47897105 C15.4475431,3.46544206 15.6210483,3.45467141 15.8559248,3.44022297 L15.8559248,5.27556838 L18.255567,5.27556838 L18.255567,3.47240358 L19.1835085,3.42535862 L19.1835085,19.1187243 C18.9990523,19.1308085 18.5313958,19.1884927 18.3009681,19.2035979 L18.3009681,17.3932089 L15.8694995,17.3932089 L15.8694995,19.1635364 L15.2661668,19.1635364 L15.2661668,16.0827358 L8.25865504,16.0827358 Z" id="path-1"></path>
    </defs>
    <g id="icon-/-Animation-/-Mannequin" stroke="none" stroke-width="1" fill="none" fill-rule="evenodd">
        <mask id="mask-2" fill="white">
            <use xlink:href="#path-1"></use>
        </mask>
        <use id="Page-1" fill="#5AA9D2" transform="translate(11.750754, 11.319248) rotate(45.000000) translate(-11.750754, -11.319248) " xlink:href="#path-1"></use>
    </g>
</svg>