<?xml version="1.0" encoding="UTF-8"?>
<svg width="24px" height="24px" viewBox="0 0 24 24" version="1.1" xmlns="http://www.w3.org/2000/svg" xmlns:xlink="http://www.w3.org/1999/xlink">
    <title>icon / Animation / Mannequin</title>
    <defs>
        <path d="M19.4327549,4.10611099 L19.4327549,19.7994767 C19.2482987,19.8115609 18.7806422,19.8692451 18.5502145,19.8843503 L18.5502145,19.8843503 L18.5502145,18.0739613 L16.1187459,18.0739613 L16.1187459,19.8442887 L15.5154132,19.8442887 L15.5154132,16.7634881 L8.5079014,16.7634881 L8.5079014,19.8618895 L7.90080425,19.8618895 L7.90080425,18.0654236 L5.47344233,18.0654236 L5.47344233,19.8511189 L4.5672451,19.893889 L4.5672451,4.19671416 C4.75500945,4.18607485 5.21666373,4.13397893 5.44777588,4.12084399 L5.44777588,4.12084399 L5.44777588,5.92952547 L7.88015702,5.92952547 L7.88015702,4.15643968 L8.47413575,4.15643968 L8.47413575,7.21727516 L15.4781113,7.21727516 L15.4781113,4.15972342 C15.6967894,4.14619443 15.8702946,4.13542378 16.1051712,4.12097534 L16.1051712,4.12097534 L16.1051712,5.95632075 L18.5048134,5.95632075 L18.5048134,4.15315595 L19.4327549,4.10611099 Z M7.86361641,15.7942608 L5.49694139,15.7942608 L5.49694139,17.2253127 L7.86361641,17.225444 L7.86361641,15.7942608 Z M18.5037867,15.8404958 L16.1417887,15.8404958 L16.1417887,17.219796 L18.5037867,17.219796 L18.5037867,15.8404958 Z M15.4279191,8.00668516 L8.56083132,8.00668516 L8.56083132,15.9990345 L15.4279191,15.9990345 L15.4279191,8.00668516 Z M18.4912387,13.5652612 L16.1324347,13.5652612 L16.1324347,14.9856738 L18.4912387,14.9858051 L18.4912387,13.5652612 Z M7.85608759,13.5244115 L5.50196061,13.5244115 L5.50196061,14.9840976 L7.85608759,14.9840976 L7.85608759,13.5244115 Z M18.4842802,11.2814888 L16.1244496,11.2814888 L16.1244496,12.7403868 L18.4842802,12.7405182 L18.4842802,11.2814888 Z M7.85232318,11.2772857 L5.49272068,11.2772857 L5.49272068,12.7277773 L7.85232318,12.7277773 L7.85232318,11.2772857 Z M18.4966001,9.04079913 L16.1268451,9.04079913 L16.1268451,10.4684359 L18.4966001,10.4684359 L18.4966001,9.04079913 Z M7.86464307,9.03370626 L5.49386142,9.03370626 L5.49386142,10.465809 L7.86464307,10.465809 L7.86464307,9.03370626 Z M18.4999082,6.79288519 L16.1440701,6.79288519 L16.1440701,8.21526804 L18.4999082,8.21526804 L18.4999082,6.79288519 Z M7.87205782,6.7798816 L5.5159916,6.7798816 L5.5159916,8.17402432 L7.87205782,8.17402432 L7.87205782,6.7798816 Z" id="path-1"></path>
    </defs>
    <g id="icon-/-Animation-/-Mannequin" stroke="none" stroke-width="1" fill="none" fill-rule="evenodd">
        <mask id="mask-2" fill="white">
            <use xlink:href="#path-1"></use>
        </mask>
        <use id="Page-1" fill="#5AA9D2" transform="translate(12.000000, 12.000000) rotate(45.000000) translate(-12.000000, -12.000000) " xlink:href="#path-1"></use>
    </g>
</svg>