<?xml version="1.0" encoding="UTF-8"?>
<svg width="24px" height="24px" viewBox="0 0 24 24" version="1.1" xmlns="http://www.w3.org/2000/svg" xmlns:xlink="http://www.w3.org/1999/xlink">
    <title>icon / Rendering / StaticMesh</title>
    <defs>
        <path d="M11.6374916,1.77902411 C14.0067933,1.77902411 16.0886658,2.79972705 17.8619233,4.48605498 C18.4756091,5.06965634 19.008426,5.69361462 19.4594847,6.31819039 C19.7321984,6.69581389 19.9190809,6.99335974 20.0183078,7.1713447 L20.2728714,7.62795986 L19.8437441,7.92653956 C19.7976997,7.95857651 19.6998319,8.03703817 19.5672353,8.16206989 C19.3379991,8.37822758 19.1070197,8.64170092 18.8907832,8.95249242 C18.2696785,9.84519122 17.8970598,10.9333346 17.8970598,12.2334762 C17.8970598,12.975499 18.017844,13.6171163 18.2355029,14.1689019 L18.2403389,14.1707023 L18.2399254,14.1800676 C18.3996134,14.5815904 18.6107385,14.935374 18.864027,15.2455198 C19.2168449,15.6775371 19.561386,15.9291033 19.7650812,16.0274849 L20.3164873,16.2938055 L20.0183078,16.8286553 C19.9190809,17.0066403 19.7321984,17.3041861 19.4594847,17.6818096 C19.008426,18.3063854 18.4756091,18.9303437 17.8619233,19.513945 C16.0886658,21.200273 14.0067933,22.2209759 11.6374916,22.2209759 C9.26818991,22.2209759 7.18631733,21.200273 5.41305989,19.513945 C4.79937413,18.9303437 4.26655723,18.3063854 3.81549852,17.6818096 C3.54278482,17.3041861 3.3559023,17.0066403 3.25667543,16.8286553 L2.93144984,16.2452925 L3.55568048,16.0077637 C3.74542684,15.9355625 4.0761493,15.7221825 4.41852755,15.3200416 C5.01460546,14.6199173 5.37792336,13.616206 5.37792336,12.2277275 C5.37792336,10.8271229 5.00616719,9.72293824 4.39037167,8.87184037 C4.0298524,8.37356265 3.67831059,8.07378427 3.46832347,7.95029628 L2.9818878,7.66423605 L3.25667543,7.1713447 C3.3559023,6.99335974 3.54278482,6.69581389 3.81549852,6.31819039 C4.26655723,5.69361462 4.79937413,5.06965634 5.41305989,4.48605498 C7.18631733,2.79972705 9.26818991,1.77902411 11.6374916,1.77902411 Z M11.6509858,20.3270374 L10.3857845,20.9512591 C10.7931996,21.0269292 11.2104944,21.0660634 11.6374916,21.0660634 C12.0711606,21.0660634 12.4948217,21.0256968 12.908289,20.9476853 L11.6509858,20.3270374 Z M9.54162148,17.0476359 L7.80298584,17.9030374 L7.80298584,19.8670374 L9.54162148,20.7229446 L11.2799858,19.8660374 L11.2799858,17.9040374 L9.54162148,17.0476359 Z M13.7614942,17.0476359 L12.0229858,17.9030374 L12.0229858,19.8670374 L13.7614942,20.7229446 L15.4989858,19.8670374 L15.4989858,17.9030374 L13.7614942,17.0476359 Z M5.32174877,17.0476359 L4.90144984,17.2050241 L5.00772268,17.3472845 C5.3609877,17.8020547 5.76210238,18.2521148 6.20893517,18.6770427 C6.48520318,18.9397674 6.76884555,19.183796 7.05975864,19.4076097 L7.05998584,17.9040374 L5.32174877,17.0476359 Z M17.9813669,17.0476359 L16.2419858,17.9040374 L16.2421956,19.3867855 C16.5236755,19.1686835 16.7983244,18.9316419 17.066048,18.6770427 C17.5716746,18.1962032 18.0187605,17.6831828 18.4042171,17.1675718 L17.9813669,17.0476359 Z M7.31915519,13.5924518 L6.30643851,14.0926136 C6.11617634,14.809726 5.8117234,15.4190034 5.41500254,15.925364 L5.41517314,16.3301924 L7.31915519,17.2677605 L9.05698584,16.4120374 L9.05698584,14.4470374 L7.31915519,13.5924518 Z M11.5390279,13.5924518 L9.79998584,14.4480374 L9.79998584,16.4110374 L11.5390279,17.2677605 L13.2769858,16.4120374 L13.2769858,14.4470374 L11.5390279,13.5924518 Z M15.7589006,13.5924518 L14.0199858,14.4470374 L14.0199858,16.4120374 L15.7589006,17.2677605 L17.6628826,16.3301924 L17.6626161,15.5589125 C17.3981168,15.1584486 17.1839552,14.7117929 17.0289896,14.2180202 L15.7589006,13.5924518 Z M9.54162148,10.1372677 L7.80298584,10.9920374 L7.80298584,12.9560374 L9.54162148,13.8125764 L11.2799858,12.9550374 L11.2799858,10.9930374 L9.54162148,10.1372677 Z M13.7614942,10.1372677 L12.0229858,10.9920374 L12.0229858,12.9560374 L13.7614942,13.8125764 L15.4989858,12.9560374 L15.4989858,10.9920374 L13.7614942,10.1372677 Z M16.929326,10.5689312 L16.2419858,10.9760374 L16.2419858,12.9720374 L16.8216119,13.3163363 C16.7693535,12.9740217 16.7421473,12.6131433 16.7421473,12.2334762 C16.7421473,11.6449304 16.807295,11.0900084 16.929326,10.5689312 Z M6.53283589,12.2277275 C6.53283589,12.6017536 6.50952462,12.9559407 6.46454417,13.2906571 L7.05998584,12.9640374 L7.05998584,10.9840374 L6.3733863,10.6098538 C6.47759228,11.1117231 6.53283589,11.6508264 6.53283589,12.2277275 Z M7.31915519,6.6820836 L5.41517314,7.61965171 L5.41444984,8.32302411 L5.47308237,8.40767149 C5.74552371,8.82100882 5.97225389,9.27744802 6.14514378,9.77771901 L7.31915519,10.3573923 L9.05698584,9.50103744 L9.05698584,7.53703744 L7.31915519,6.6820836 Z M11.5390279,6.6820836 L9.79998584,7.53803744 L9.79998584,9.50003744 L11.5390279,10.3573923 L13.2769858,9.50103744 L13.2769858,7.53703744 L11.5390279,6.6820836 Z M15.7589006,6.6820836 L14.0199858,7.53703744 L14.0199858,9.50103744 L15.7589006,10.3573923 L17.2211405,9.63575541 C17.3464224,9.31934178 17.4942934,9.0177639 17.6623696,8.73108554 L17.6628826,7.61965171 L15.7589006,6.6820836 Z M18.672869,7.20613073 L18.2399858,7.41803744 L18.2405347,7.89539028 C18.4198491,7.67328235 18.5952696,7.48547202 18.7579794,7.3311885 C18.7313256,7.29141009 18.7029522,7.24968413 18.672869,7.20613073 Z M6.20893517,5.3229573 C5.74936372,5.75999941 5.33815428,6.22362699 4.97762595,6.69162137 L5.32174877,6.90220825 L7.05998584,6.04503744 L7.05975864,4.5923903 C6.76884555,4.81620404 6.48520318,5.06023264 6.20893517,5.3229573 Z M9.31062813,3.33967853 L7.80298584,4.08203744 L7.80298584,6.04603744 L9.54162148,6.90220825 L11.2799858,6.04503744 L11.2799858,4.08303744 L9.58590325,3.24748744 C9.4935959,3.27632025 9.40183677,3.30706174 9.31062813,3.33967853 Z M13.7071325,3.25315279 L12.0229858,4.08203744 L12.0229858,6.04603744 L13.7614942,6.90220825 L15.4989858,6.04603744 L15.4996369,4.09263093 C15.4716509,4.07502419 15.4436034,4.05760087 15.4154945,4.04036219 L14.088653,3.38541509 C13.9625435,3.33770229 13.835368,3.29358497 13.7071325,3.25315279 Z M16.2431937,4.61398797 L16.2419858,6.04503744 L17.9813669,6.90220825 L18.3314498,6.73902411 L18.2672605,6.65271553 C17.9139955,6.19794525 17.5128808,5.74788524 17.066048,5.3229573 C16.7986408,5.06865909 16.5243247,4.83187689 16.2431937,4.61398797 Z M11.6374916,2.93393664 C11.2363934,2.93393664 10.8438564,2.96846745 10.4600274,3.03537564 L11.6509858,3.62203744 L12.8358702,3.03905496 C12.4453891,2.96973373 12.0458779,2.93393664 11.6374916,2.93393664 Z" id="path-1"></path>
    </defs>
    <g id="icon-/-Rendering-/-StaticMesh" stroke="none" stroke-width="1" fill="none" fill-rule="evenodd">
        <mask id="mask-2" fill="white">
            <use xlink:href="#path-1"></use>
        </mask>
        <use id="Combined-Shape" fill="#B29EDF" fill-rule="nonzero" xlink:href="#path-1"></use>
    </g>
</svg>