<?xml version="1.0" encoding="UTF-8"?>
<svg width="24px" height="24px" viewBox="0 0 24 24" version="1.1" xmlns="http://www.w3.org/2000/svg" xmlns:xlink="http://www.w3.org/1999/xlink">
    <!-- Generator: Sketch 53.2 (72643) - https://sketchapp.com -->
    <title>icon / Animation / Motion Parameter Smoothing</title>
    <desc>Created with Sketch.</desc>
    <defs>
        <path d="M9.73144295,9.98858946 C9.718234,10.028336 9.13719021,11.4044505 9.0487402,11.6801562 C8.90630529,12.124137 8.77651671,12.4628826 8.58963604,12.8764199 C8.6064295,12.9532405 8.61246975,13.0334356 8.6063168,13.1154725 C8.56967363,13.604034 8.11453892,13.9717958 7.59042801,13.9376264 C7.06631709,13.903457 6.67050915,13.4802182 6.70715233,12.9916567 C6.72540815,12.7482528 6.84753718,12.5348323 7.03031875,12.3861598 C7.06088312,11.9927404 7.17705762,11.5228239 7.35290074,11.0167286 C7.46376758,10.6976421 7.58190599,10.4072531 7.70789749,10.157899 C7.74133315,10.0576846 8.58963604,8.21140132 8.93594182,7.49431045 C9.38504859,6.63766033 9.89282219,6.78038294 10.4875183,6.55927169 C10.4763282,6.52523245 10.4952442,6.34770097 10.4875183,6.31228923 C9.55412593,5.86933793 9.0487402,5.32189513 9.0487402,4.07765422 C9.0487402,2.47622853 9.88382134,1.59563779 11.3290516,1.59563779 C12.774282,1.59563779 13.8371767,2.47622853 13.8371767,4.07765422 C13.8371767,5.35918237 13.1619726,5.93706838 12.1785492,6.35024088 C12.1766966,6.35744657 12.1805491,6.66312706 12.1785492,6.67027496 C13.2707293,7.03259668 13.2162089,7.70331377 13.3665182,8.80509401 C13.6448978,9.35086655 13.7413384,9.61560342 13.8371767,9.81461311 C13.8806257,9.82412564 15.1237141,10.0803278 15.1673971,10.0942428 C15.6469031,10.2469873 16.0631891,10.3309713 16.3935717,10.4773174 C16.4745958,10.4563398 16.5599807,10.4451278 16.6481869,10.4451278 C17.1734883,10.4451278 17.5987303,10.8427764 17.5987303,11.3326141 C17.5987303,11.8224519 17.1734883,12.2201004 16.6481869,12.2201004 C16.3864789,12.2201004 16.1496065,12.1214006 15.9777814,11.9617738 C15.5547031,11.9607907 15.2649152,11.9348547 14.7111431,11.8066136 C14.3619969,11.7257592 13.8219371,11.5868065 13.5463474,11.487021 C13.4367888,11.4629145 12.8294302,11.1801472 12.819149,11.1753899 C12.818257,11.7572801 12.6711267,12.0998861 12.5152763,12.724997 C12.7065885,12.9728886 12.7592437,13.2679845 12.819149,13.6028055 C12.8790544,13.9376264 13.4471856,15.1041445 13.6959428,15.5232895 C13.9295848,15.916966 14.2104815,16.5197875 14.3671433,16.6421718 C14.6257913,16.7999051 14.8090692,17.0563462 14.8558231,17.354086 C15.0470763,17.8054384 15.1811891,18.402387 15.2624568,19.077482 C15.3294924,19.6343497 15.3624051,20.5707953 15.3892643,20.5653762 C16.4403784,20.3533022 17.2740779,20.3734708 17.4844439,20.8896734 C17.7415253,21.5205077 16.9867087,21.8783283 15.8587175,22.105913 C15.3296153,22.2126653 14.4116148,22.2231309 14.3721958,22.2231309 C13.8887942,22.2231309 13.4975187,21.8572449 13.4975187,21.4065881 C13.4975187,21.3492124 13.503861,21.2932108 13.5159283,21.2391635 C13.2801856,20.7727066 13.1192327,20.1055689 13.0267365,19.3371985 C12.9901295,19.0331025 12.9677732,18.741897 12.9614377,18.4695337 C12.7603854,18.3819239 12.4978032,17.8078181 12.3291221,17.5545128 C12.1087272,17.22355 11.9685701,17.1188681 11.8098797,16.5862588 C11.649158,16.0468322 11.5380786,15.5330744 11.4942671,15.0959177 C11.4184348,15.1105258 11.340738,15.1204348 11.2615674,15.1253004 C11.1940117,15.5015036 11.0976692,15.9158121 10.9784443,16.3510807 C10.806841,16.9775737 10.611648,17.5278624 10.4281292,17.9052319 C10.325985,18.1152708 10.2271132,18.2745936 10.1201124,18.3864435 C9.98310338,18.5296615 9.79730531,18.6209796 9.61143836,18.6151295 C9.42472497,18.8972898 9.19616986,19.1945606 8.93594182,19.498524 C8.5609983,19.9364826 8.18504823,20.3123707 7.82812398,20.5931793 C7.85103449,20.606664 7.87404324,20.6203475 7.8971456,20.6342227 C8.80123865,21.1772183 9.37545675,21.741102 9.13270478,22.2447976 C8.8360455,22.8603477 8.03092794,22.6157467 7.06071076,22.0330372 C6.60561493,21.759708 5.94855313,21.1619099 5.92067971,21.1359227 C5.57886319,20.8172367 5.57968835,20.300565 5.92147968,19.9819026 C5.96499507,19.9413318 6.01195299,19.9059139 6.06147693,19.8756521 C6.24855626,19.3904023 6.64072227,18.8125553 7.15807225,18.2082566 C7.48683106,17.8242448 7.81636372,17.4879538 8.13316609,17.2216356 C8.39166115,16.9587461 8.49345166,16.8558938 8.77651671,16.5862588 C8.84477422,16.2109821 8.88051338,15.765231 8.99937047,15.331305 C9.09745729,14.9732076 9.02578919,14.9734027 9.13270478,14.6831608 C8.78604581,13.9133589 9.38971329,12.6650792 9.73144295,12.3861598 C9.73144295,12.0998861 9.73144295,11.3326141 9.73144295,11.0159084 C9.73144295,10.5385265 9.73144295,10.157899 9.73144295,9.98858946 Z" id="path-1"></path>
    </defs>
    <g id="icon-/-Animation-/-Motion-Parameter-Smoothing" stroke="none" stroke-width="1" fill="none" fill-rule="evenodd">
        <mask id="mask-2" fill="white">
            <use xlink:href="#path-1"></use>
        </mask>
        <use id="Path" fill="#5AA9D2" fill-rule="nonzero" xlink:href="#path-1"></use>
    </g>
</svg>