<?xml version="1.0" encoding="UTF-8"?>
<svg width="24px" height="24px" viewBox="0 0 24 24" version="1.1" xmlns="http://www.w3.org/2000/svg" xmlns:xlink="http://www.w3.org/1999/xlink">
    <title>icon / Animation / MotionParameterSmoothing</title>
    <defs>
        <path d="M10.0997146,9.88870334 C10.0865057,9.92844991 9.50546186,11.3045644 9.41701185,11.58027 C9.27457695,12.0242509 9.14478836,12.3629965 8.9579077,12.7765338 C8.97470116,12.8533543 8.9807414,12.9335495 8.97458846,13.0155864 C8.93794528,13.5041479 8.48281058,13.8719096 7.95869966,13.8377403 C7.43458874,13.8035709 7.03878081,13.3803321 7.07542398,12.8917706 C7.09367981,12.6483666 7.21580884,12.4349462 7.3985904,12.2862737 C7.42915478,11.8928543 7.54532928,11.4229378 7.7211724,10.9168425 C7.83203924,10.5977559 7.95017764,10.307367 8.07616915,10.0580129 C8.1096048,9.95779846 8.9579077,8.11151519 9.30421348,7.39442433 C9.75332024,6.53777421 10.2610939,6.68049681 10.85579,6.45938556 C10.8445998,6.42534633 10.8635158,6.24781484 10.85579,6.2124031 C9.92239759,5.76945181 9.41701185,5.22200901 9.41701185,3.9777681 C9.41701185,2.3763424 10.252093,1.49575167 11.6973233,1.49575167 C13.1425536,1.49575167 14.2054484,2.3763424 14.2054484,3.9777681 C14.2054484,5.25929625 13.5302443,5.83718226 12.5468208,6.25035476 C12.5449682,6.25756045 12.5488208,6.56324094 12.5468208,6.57038884 C13.6390009,6.93271056 13.5844806,7.60342764 13.7347898,8.70520789 C14.0131694,9.25098043 14.1096101,9.5157173 14.2054484,9.71472699 C14.2488974,9.72423951 15.4919857,9.98044165 15.5356687,9.99435666 C16.0151748,10.1471012 16.4314607,10.2310852 16.7618434,10.3774313 C16.8428675,10.3564536 16.9282524,10.3452417 17.0164585,10.3452417 C17.5417599,10.3452417 17.967002,10.7428902 17.967002,11.232728 C17.967002,11.7225658 17.5417599,12.1202143 17.0164585,12.1202143 C16.7547505,12.1202143 16.5178781,12.0215145 16.3460531,11.8618877 C15.9229747,11.8609046 15.6331868,11.8349686 15.0794148,11.7067274 C14.7302686,11.6258731 14.1902088,11.4869204 13.914619,11.3871349 C13.8050604,11.3630283 13.1977018,11.080261 13.1874207,11.0755037 C13.1865287,11.657394 13.0393984,12 12.8835479,12.6251109 C13.0748602,12.8730024 13.1275153,13.1680984 13.1874207,13.5029193 C13.2473261,13.8377403 13.8154573,15.0042584 14.0642145,15.4234034 C14.2978565,15.8170799 14.5787531,16.4199014 14.735415,16.5422856 C14.9940629,16.700019 15.1773408,16.9564601 15.2240948,17.2541999 C15.415348,17.7055523 15.5494608,18.3025009 15.6307285,18.9775959 C15.6977641,19.5344636 15.7306767,20.4709092 15.7575359,20.4654901 C16.80865,20.2534161 17.6423495,20.2735847 17.8527155,20.7897872 C18.1097969,21.4206216 17.3549803,21.7784421 16.2269892,22.0060269 C15.6978869,22.1127792 14.7798864,22.1232448 14.7404674,22.1232448 C14.2570659,22.1232448 13.8657904,21.7573587 13.8657904,21.306702 C13.8657904,21.2493263 13.8721327,21.1933247 13.8841999,21.1392773 C13.6484573,20.6728205 13.4875044,20.0056827 13.3950082,19.2373124 C13.3584012,18.9332164 13.3360449,18.6420109 13.3297093,18.3696476 C13.1286571,18.2820378 12.8660749,17.707932 12.6973937,17.4546267 C12.4769988,17.1236639 12.3368418,17.018982 12.1781513,16.4863727 C12.0174297,15.9469461 11.9063503,15.4331883 11.8625387,14.9960316 C11.7867065,15.0106396 11.7090097,15.0205487 11.6298391,15.0254143 C11.5622834,15.4016174 11.4659408,15.8159259 11.346716,16.2511945 C11.1751126,16.8776876 10.9799197,17.4279763 10.7964008,17.8053458 C10.6942567,18.0153846 10.5953849,18.1747075 10.488384,18.2865574 C10.351375,18.4297753 10.165577,18.5210935 9.97971002,18.5152434 C9.79299663,18.7974037 9.56444151,19.0946745 9.30421348,19.3986379 C8.92926996,19.8365965 8.55331988,20.2124846 8.19639564,20.4932931 C8.21930614,20.5067779 8.24231489,20.5204614 8.26541725,20.5343366 C9.16951031,21.0773322 9.7437284,21.6412159 9.50097644,22.1449115 C9.20431716,22.7604615 8.3991996,22.5158606 7.42898242,21.9331511 C6.97388659,21.6598219 6.31682479,21.0620238 6.28895137,21.0360365 C5.94713485,20.7173506 5.94796,20.2006789 6.28975134,19.8820164 C6.33326672,19.8414457 6.38022465,19.8060278 6.42974859,19.775766 C6.61682792,19.2905161 7.00899392,18.7126691 7.5263439,18.1083705 C7.85510271,17.7243586 8.18463537,17.3880677 8.50143775,17.1217495 C8.75993281,16.85886 8.86172331,16.7560077 9.14478836,16.4863727 C9.21304587,16.111096 9.24878504,15.6653449 9.36764213,15.2314189 C9.46572894,14.8733215 9.39406084,14.8735166 9.50097644,14.5832747 C9.15431747,13.8134728 9.75798494,12.5651931 10.0997146,12.2862737 C10.0997146,12 10.0997146,11.232728 10.0997146,10.9160223 C10.0997146,10.4386403 10.0997146,10.0580129 10.0997146,9.88870334 Z" id="path-1"></path>
    </defs>
    <g id="icon-/-Animation-/-MotionParameterSmoothing" stroke="none" stroke-width="1" fill="none" fill-rule="evenodd">
        <mask id="mask-2" fill="white">
            <use xlink:href="#path-1"></use>
        </mask>
        <use id="Path" fill="#5AA9D2" fill-rule="nonzero" xlink:href="#path-1"></use>
    </g>
</svg>