<?xml version="1.0" encoding="UTF-8"?>
<svg width="24px" height="24px" viewBox="0 0 24 24" version="1.1" xmlns="http://www.w3.org/2000/svg" xmlns:xlink="http://www.w3.org/1999/xlink">
    <title>icon / AI / Navigation </title>
    <defs>
        <path d="M11.9996038,2.679588 C17.1471131,2.679588 21.3199938,6.85246872 21.3199938,11.999978 C21.3199938,17.1474872 17.1471131,21.3203679 11.9996038,21.3203679 C6.85209459,21.3203679 2.67921387,17.1474872 2.67921387,11.999978 C2.67921387,6.85246872 6.85209459,2.679588 11.9996038,2.679588 Z M11.9996038,3.71518688 C7.42404006,3.71518688 3.71481276,7.42441419 3.71481276,11.999978 C3.71481276,16.5755417 7.42404006,20.284769 11.9996038,20.284769 C16.5751676,20.284769 20.2843949,16.5755417 20.2843949,11.999978 C20.2843949,7.42441419 16.5751676,3.71518688 11.9996038,3.71518688 Z M16.1789855,7.98940493 L11.8219983,17.7926263 L11.2773748,12.8910156 L6.37576417,12.3463922 L16.1789855,7.98940493 Z" id="path-1"></path>
    </defs>
    <g id="icon-/-AI-/-Navigation-" stroke="none" stroke-width="1" fill="none" fill-rule="evenodd">
        <mask id="mask-2" fill="white">
            <use xlink:href="#path-1"></use>
        </mask>
        <use id="Combined-Shape" fill="#65C9C9" fill-rule="nonzero" xlink:href="#path-1"></use>
    </g>
</svg>