<?xml version="1.0" encoding="UTF-8"?>
<svg width="24px" height="24px" viewBox="0 0 24 24" version="1.1" xmlns="http://www.w3.org/2000/svg" xmlns:xlink="http://www.w3.org/1999/xlink">
    <title>icon / AI / NavigationSeed</title>
    <defs>
        <path d="M12.617855,20.0128806 C13.1403246,19.9330207 13.1412618,19.9393801 13.2316983,20.4445121 C13.3916857,21.3391702 13.3916857,21.3391702 12.4878568,21.3681554 C12.0059531,21.3836186 12.0059531,21.3836186 12.0059531,20.6726449 C12.0264368,20.4968595 11.9222776,20.2465025 12.0482594,20.0905984 C12.1697562,19.9403172 12.423661,20.0426021 12.617855,20.0128806 Z M9.97094375,19.7706427 L10.0362326,19.7784554 C10.2960951,19.8362249 10.5570956,19.8891078 10.8188325,19.9374388 C10.9580015,19.9631439 11.0118216,20.0326949 10.9590726,20.1982385 C10.9258701,20.4781162 10.8835638,20.7863766 10.8550472,21.0959089 C10.840655,21.2522147 10.7846929,21.3245103 10.6225633,21.2739033 C10.6013432,21.2672763 10.5796545,21.2614524 10.557765,21.2579715 C9.38845057,21.0734169 9.35163337,21.0046022 9.81077739,19.9063785 C9.85797036,19.793517 9.91547214,19.7516792 10.0362326,19.7784554 Z M14.6575282,19.5836589 C14.9050737,19.54316 15.1985403,19.2320881 15.3533065,19.4003762 C15.60527,19.6742292 15.7149853,20.0788838 15.8575683,20.3722165 C15.8945863,20.5178118 15.8461215,20.5575744 15.7778423,20.5837481 C15.4561269,20.7069184 15.1348131,20.8312267 14.8121605,20.952054 C14.6818276,21.0008536 14.6380486,20.9257465 14.6067205,20.8111445 C14.5217062,20.5002065 14.4318722,20.1903395 14.333269,19.8834848 C14.2950461,19.764331 14.3118481,19.6933742 14.4360895,19.6568247 C14.510728,19.6349352 14.5817517,19.5961098 14.6575282,19.5836589 Z M7.61827933,19.0150004 C7.7071092,18.8567534 7.78891034,18.8155851 7.95291426,18.9203467 C8.14878179,19.0454583 8.36238852,19.1425888 8.56675748,19.2547139 C8.64045884,19.2951459 8.74441724,19.3153619 8.70847026,19.489273 C8.56823017,19.7977342 8.41319627,20.1539909 8.24336854,20.5030849 C8.19189139,20.6087169 8.10031696,20.5202217 8.0423466,20.4910357 C7.76494569,20.3509964 7.49691643,20.19208 7.21730649,20.0569274 C7.0399145,19.9711767 7.0732508,19.878866 7.15900142,19.7495372 C7.31852033,19.5088196 7.47710208,19.2666293 7.61827933,19.0150004 Z M17.1440284,18.1696105 C17.2651235,18.0899514 17.333135,18.1013313 17.4198897,18.2053566 C17.6255305,18.4521658 17.8358572,18.6953601 18.0497317,18.9350736 C18.1282527,19.0231672 18.1592461,19.0912455 18.0453136,19.174921 C17.768716,19.378152 17.4964695,19.5872067 17.2214784,19.7925798 C17.1956394,19.8119256 17.1629056,19.8221675 17.1398781,19.8334804 C17.0683858,19.8301334 17.0375263,19.7848817 17.0073362,19.7378226 L17.0073362,19.7378226 L16.8618747,19.5152458 C16.330502,18.7006484 16.3325772,18.7037946 17.1440284,18.1696105 Z M5.98607219,17.4008672 C6.19793848,17.3809859 6.33275639,17.7039063 6.5166416,17.8609484 C6.6143076,17.9443561 6.74564461,18.0035314 6.78687988,18.1588331 C6.75762694,18.1991312 6.72757071,18.2451192 6.6928956,18.2873586 C6.60091953,18.3992159 6.50854181,18.5108055 6.41341954,18.6199853 C5.93546527,19.1687625 5.93513057,19.1684278 5.40596691,18.6418078 C4.98002531,18.2178745 4.97975755,18.2176067 5.42283589,17.842272 C5.60906401,17.6844936 5.78618824,17.4196774 5.98607219,17.4008672 Z M11.8604343,5.25002205 C12.5031795,5.25002205 13.0242274,5.78332992 13.0242274,6.44119852 C13.0242274,6.95996172 12.7002328,7.40127141 12.2480581,7.56470587 L12.2486615,9.27718312 C12.6521108,9.39891687 12.9533954,9.70503052 13.0133213,10.0767996 C15.6622808,10.4305712 17.6793998,12.2235664 17.6793998,14.382375 C17.6793998,16.7945599 15.1610015,18.750022 12.0543998,18.750022 C8.94779808,18.750022 6.4293998,16.7945599 6.4293998,14.382375 C6.4293998,12.3324076 8.24825082,10.612297 10.7012479,10.1419316 C10.7330362,9.74097939 11.0454727,9.40594273 11.472207,9.27718312 L11.4724218,7.56456533 C11.0204501,7.40101852 10.6966412,6.95981309 10.6966412,6.44119852 C10.6966412,5.78332992 11.2176891,5.25002205 11.8604343,5.25002205 Z M18.8248343,16.360413 C18.9754501,16.4550667 19.1261998,16.547913 19.2750752,16.6435707 C19.9404625,17.0717214 19.9403286,17.0719891 19.4604331,17.6914554 C19.1128787,18.1400228 19.1073896,18.1460474 18.6894808,17.7654245 C18.5032527,17.5957976 18.1920469,17.476309 18.1659402,17.2402772 C18.14144,17.0198426 18.4309571,16.8544329 18.5642354,16.6513358 C18.6332509,16.5459717 18.6764944,16.4082753 18.8248343,16.360413 Z M4.64237807,15.4515635 C4.71715047,15.4326863 4.75282968,15.447681 4.77625882,15.4942045 C4.79118652,15.523993 4.81441483,15.5498989 4.82706656,15.5804237 C4.94561796,15.8659914 5.30930501,16.1632736 5.21297781,16.3893981 C5.06952459,16.7262421 4.61265654,16.8462662 4.29616245,17.0685082 C4.21570013,17.1250729 4.14976386,17.1038528 4.10263783,17.0209136 C3.93240846,16.7212216 3.76224603,16.4215295 3.59369017,16.1209673 C3.55961752,16.0601185 3.53632227,15.9853461 3.61410699,15.9468553 C3.96286633,15.7742831 4.3149727,15.6084717 4.64237807,15.4515635 Z M19.8523867,14.2700752 L19.9054527,14.2796384 C20.2137801,14.3684683 20.5206347,14.4626534 20.8309703,14.5437851 C20.9768334,14.5818742 21.0002625,14.6652149 20.9630437,14.7906612 C20.9536051,14.8223909 20.9443673,14.8545223 20.9317156,14.8851141 C20.8025876,15.1981942 20.7970315,15.7133673 20.515815,15.7738145 C20.1809123,15.8457084 19.8136105,15.5178345 19.4603662,15.3632022 C19.369595,15.3235735 19.353931,15.2660717 19.3879367,15.1777104 C19.4871423,14.9195884 19.5888247,14.6621357 19.676115,14.3999302 C19.7185552,14.2724758 19.7930598,14.2519251 19.9054527,14.2796384 Z M3.91734688,13.2381131 C4.02866872,13.2188343 4.08489863,13.2448071 4.1007635,13.3616181 C4.11716389,13.4827132 4.14561355,13.6021349 4.16944433,13.722159 C4.29348484,14.3482523 4.29649716,14.358695 3.6741525,14.5359531 C2.98620628,14.7319545 3.07255936,14.8936824 2.87461668,14.0735959 C2.8355235,13.9115333 2.80365988,13.7476632 2.7683823,13.5845965 C2.73825913,13.4499794 2.80934981,13.4096813 2.92857062,13.3928123 C3.25885442,13.3461549 3.58873658,13.2952132 3.91734688,13.2381131 Z M9.53284807,11.6029632 C8.89010289,11.6029632 8.36905497,12.1362711 8.36905497,12.7941397 C8.36905497,13.4520083 8.89010289,13.9853162 9.53284807,13.9853162 C10.1755933,13.9853162 10.6966412,13.4520083 10.6966412,12.7941397 C10.6966412,12.1362711 10.1755933,11.6029632 9.53284807,11.6029632 Z M14.1880205,11.6029632 C13.5452753,11.6029632 13.0242274,12.1362711 13.0242274,12.7941397 C13.0242274,13.4520083 13.5452753,13.9853162 14.1880205,13.9853162 C14.8307657,13.9853162 15.3518136,13.4520083 15.3518136,12.7941397 C15.3518136,12.1362711 14.8307657,11.6029632 14.1880205,11.6029632 Z M20.9334564,11.9870099 C21.3953238,11.9941208 21.3921551,12.0651169 21.3652214,12.6685844 C21.3379098,13.2802855 21.3334917,13.2839003 20.7223261,13.1908532 C20.0123565,13.0828784 20.0123565,13.0828784 20.0300957,12.4954766 C20.0455589,11.987533 20.0455589,11.987533 20.5557115,11.986462 Z M2.66991301,11.3264299 C2.73819219,10.7968646 2.73819219,10.7968646 3.28496117,10.8601233 C4.06039846,10.9498234 4.03663463,10.9486184 3.99881331,11.6972126 C3.98207822,12.0283667 3.86868123,12.1224848 3.56811895,12.0754927 C3.48156505,12.0619038 3.39106166,12.0734175 3.30229872,12.0734175 L3.30229872,12.0734175 L3.08531798,12.0737813 C2.5741139,12.0688235 2.58369381,11.9945841 2.66991301,11.3264299 Z M20.3948538,9.51167638 C21.031189,9.31868728 21.0310551,9.31841952 21.168082,9.98594893 C21.3036363,10.6462488 21.3035694,10.6453786 20.6199743,10.7354134 C20.4766549,10.7542905 20.3346074,10.7823386 20.1920244,10.8061693 C19.9978304,10.8490112 19.9330321,10.7472618 19.9054527,10.5756267 C19.873656,10.3784873 19.8302787,10.1824189 19.7796717,9.98916207 C19.7301359,9.79978775 19.7431892,9.66584006 19.9777483,9.62935756 C20.1194611,9.60726723 20.256488,9.55364799 20.3948538,9.51167638 Z M3.36689618,8.38225839 C3.42299222,8.22648814 3.52246561,8.22180232 3.65514143,8.282785 C3.93675959,8.41238156 4.22065371,8.53702454 4.50421314,8.66233692 C4.60897482,8.70859272 4.66252712,8.76803577 4.61312512,8.89361591 C4.51191128,9.15093471 4.42020297,9.41200216 4.32682115,9.67226634 C4.2975682,9.75373277 4.25773868,9.81136843 4.1581314,9.78472616 C3.8180743,9.68940307 3.47694616,9.59481632 3.13688906,9.4966148 C3.00340995,9.45805714 3.01251385,9.35563837 3.04819307,9.25536169 C3.15201758,8.96343472 3.26193368,8.67371678 3.36689618,8.38225839 Z M19.728864,6.99712818 C19.7798726,6.96432739 19.846746,6.89096074 19.901771,6.96385881 C20.1436266,7.2841685 20.3153286,7.64551264 20.4830812,7.98108473 C20.4994146,8.07352939 20.4582463,8.1050583 20.4042924,8.13022789 C20.323897,8.16778143 20.2465139,8.21269843 20.1642442,8.24556615 C19.8800823,8.35936478 19.5756375,8.65805273 19.324745,8.54920769 C19.1039087,8.45348295 19.0146772,8.06455938 18.8551582,7.81286357 C18.7726877,7.68273149 18.7785785,7.6068211 18.9182161,7.52254317 C19.1937427,7.35626328 19.4579563,7.17124009 19.728864,6.99712818 Z M4.38854017,6.55304574 C4.8458768,5.90258612 4.84654621,5.90184978 5.45429786,6.40959252 C5.59748332,6.5292819 5.76088477,6.62949164 5.86785549,6.81076618 C5.80426214,6.89993075 5.75050902,6.99806534 5.67560274,7.07578312 C5.49867933,7.2591328 5.43535374,7.60836073 5.19831787,7.64450853 C4.96824381,7.67965223 4.76046089,7.41751372 4.54330631,7.28637753 C4.07305019,7.00241647 4.07679885,6.99632489 4.38854017,6.55304574 Z M18.1417077,4.91735226 C18.2299351,4.99380361 18.3335588,5.07680967 18.4295513,5.16778164 C19.0975493,5.80016735 19.0970808,5.80070288 18.401905,6.38864018 C18.0445103,6.69094291 18.0445103,6.69094291 17.7193809,6.35845007 C17.2368747,5.86503257 17.2372094,5.86530034 17.7065953,5.33125003 C17.7944211,5.23130806 17.8771594,5.12701495 17.9645835,5.02673827 C18.0071576,4.97793874 18.0431715,4.9166883 18.1417077,4.91735226 Z M6.72576332,4.26047181 C6.84150323,4.16883044 6.90864442,4.18429367 6.98616138,4.31047627 C7.15491806,4.58519957 7.33572401,4.85262636 7.51612832,5.11998621 C7.58172988,5.21725058 7.59679147,5.29155439 7.48761172,5.37208366 C7.25506086,5.5435849 7.02940486,5.72452473 6.79993326,5.90024321 C6.77469674,5.91958898 6.742967,5.93036638 6.65815355,5.97381068 C6.63887472,5.93726124 6.62100164,5.8808305 6.5854563,5.83972911 C6.37432636,5.59573145 6.16600792,5.34858759 5.94256095,5.11623755 C5.81758327,4.98623935 5.86624892,4.91153389 5.98185495,4.82551551 C6.23167642,4.63968903 6.48169872,4.45372867 6.72576332,4.26047181 Z M15.928592,3.47298526 C16.1891909,3.61228817 16.4367364,3.76317178 16.6993435,3.87998273 C16.9894631,4.00904377 17.0578092,4.15048878 16.8350986,4.41436773 C16.6787928,4.59959175 16.5625843,4.82016028 16.4396149,5.03149104 C16.3536634,5.17909456 16.258742,5.2146399 16.1199076,5.10539321 C16.0852995,5.07808154 16.0411857,5.06295302 16.0062429,5.03597604 C15.7997318,4.87645713 15.3580592,4.83950605 15.3794132,4.62596626 C15.4160296,4.2587983 15.6578852,3.91157859 15.8182074,3.55806647 C15.8330681,3.52546651 15.881466,3.50812895 15.928592,3.47298526 Z M9.17022495,3.0696695 C9.33824529,3.01899564 9.34333276,3.13908667 9.36702965,3.21205168 C9.46335685,3.50812895 9.54890665,3.80768713 9.64028026,4.10537097 C9.68285434,4.2438706 9.66431185,4.33932757 9.50030794,4.37962568 C9.36053644,4.41389915 9.22504912,4.46832167 9.09043203,4.52086987 C8.61441903,4.70662941 8.61488761,4.70776739 8.39525625,4.23396343 C8.37651294,4.19353144 8.35683247,4.15356804 8.33849081,4.11306911 C8.04991086,3.47579675 8.04977698,3.47532817 8.72714662,3.22537281 C8.88365321,3.16767021 9.04190026,3.11465343 9.17022495,3.0696695 Z M13.1976256,3.21901348 C13.2636288,2.58334769 13.2267447,2.69895371 13.7914537,2.80384928 C14.5810823,2.95051564 14.5787394,2.96316737 14.3590411,3.73853772 C14.3560288,3.74918124 14.3530834,3.7598917 14.350138,3.7706691 C14.2112367,4.27185168 14.2115714,4.27031205 13.7205638,4.16086454 C13.5690108,4.12712659 13.4148471,4.10483544 13.2622231,4.07585026 C13.1339653,4.05141703 13.0537038,3.99378136 13.1069883,3.86210965 C13.1391867,3.63705611 13.17587,3.42880461 13.1976256,3.21901348 Z M11.3454524,2.6462047 C11.9708763,2.59720435 11.9708763,2.59720435 11.9748258,3.32852793 C11.9780389,3.91700076 11.9780389,3.91700076 11.397599,3.99391525 C11.3865538,3.99538793 11.3758433,3.99880189 11.3648651,4.00034152 C10.8060469,4.078394 10.805913,4.078394 10.7346215,3.52707308 C10.7289316,3.48302631 10.7285299,3.4382432 10.7231747,3.39406256 C10.6390306,2.70156439 10.6389637,2.70163133 11.3454524,2.6462047 Z" id="path-1"></path>
    </defs>
    <g id="icon-/-AI-/-NavigationSeed" stroke="none" stroke-width="1" fill="none" fill-rule="evenodd">
        <mask id="mask-2" fill="white">
            <use xlink:href="#path-1"></use>
        </mask>
        <use id="Combined-Shape" fill="#65C9C9" xlink:href="#path-1"></use>
    </g>
</svg>