<?xml version="1.0" encoding="UTF-8"?>
<svg width="24px" height="24px" viewBox="0 0 24 24" version="1.1" xmlns="http://www.w3.org/2000/svg" xmlns:xlink="http://www.w3.org/1999/xlink">
    <title>icon / Networking / NetBinding</title>
    <defs>
        <path d="M17.9913911,20.0308183 C18.0485186,19.3796214 18.5952547,18.8688655 19.2612841,18.8688655 C19.9653484,18.8688655 20.5361053,19.4396224 20.5361053,20.1436866 C20.5361053,20.8477509 19.9653484,21.4185077 19.2612841,21.4185077 C18.6776176,21.4185077 18.1855645,21.0262639 18.0343463,20.4909976 L14.293761,20.4909976 C14.1923219,20.8916915 13.8265073,21.1884181 13.3928707,21.1884181 L10.549227,21.1884181 C10.1132424,21.1884181 9.74741753,20.8974042 9.64742772,20.4909976 L5.90974106,20.4909976 C5.75852285,21.0262639 5.26646977,21.4185077 4.68280323,21.4185077 C3.97873897,21.4185077 3.40798211,20.8477509 3.40798211,20.1436866 C3.40798211,19.4396224 3.97873897,18.8688655 4.68280323,18.8688655 C5.3488327,18.8688655 5.89556872,19.3796214 5.95269631,20.0308183 L9.62040308,20.0308183 L9.62040308,20.0215062 C9.62040308,19.5119953 10.0376113,19.0989552 10.549227,19.0989552 L11.6566964,19.0989552 L11.6566964,18.1379919 C7.32679164,18.0150756 3.85448035,14.4664398 3.85448035,10.1068023 C3.85448035,5.66948021 7.45164063,2.07231992 11.8889627,2.07231992 C16.3262848,2.07231992 19.9234451,5.66948021 19.9234451,10.1068023 C19.9234451,14.4679008 16.4488062,18.0174539 12.1168758,18.1381143 L12.1168758,19.0989552 L13.3928707,19.0989552 C13.905846,19.0989552 14.3216946,19.5018246 14.3216946,20.0215062 L14.3216946,20.0308183 L17.9913911,20.0308183 L17.9913911,20.0308183 Z M12.1492128,9.76881923 L12.1492128,14.4005414 C13.1633002,14.4258364 14.0291726,14.5113631 14.7592548,14.6462557 C15.2367895,13.3622462 15.5141239,11.9204545 15.5141239,10.3325316 C15.5141239,10.1430412 15.5101738,9.95512478 15.5024043,9.76881923 L12.1492128,9.76881923 Z M12.1492128,9.3086399 L15.4752678,9.3086399 C15.3917423,8.21435379 15.1764016,7.17837735 14.8569189,6.20854001 C14.1067426,6.35411446 13.2088997,6.44631713 12.1492128,6.47274949 L12.1492128,9.3086399 Z M11.6890335,9.76881923 L8.21302901,9.76881923 C8.20525953,9.95512478 8.20130943,10.1430412 8.20130943,10.3325316 C8.20130943,11.8800096 8.46469614,13.2887057 8.92008049,14.5478365 C9.64081901,14.4472818 10.4974007,14.3926721 11.5030548,14.3926721 C11.5655559,14.3926721 11.6275479,14.392883 11.6890335,14.3933027 L11.6890335,9.76881923 Z M11.6890335,9.3086399 L11.6890335,6.47998826 C11.6275479,6.48040791 11.5655559,6.4806188 11.5030548,6.4806188 C10.4527931,6.4806188 9.5651219,6.42105703 8.82497224,6.31180319 C8.52394814,7.25181044 8.32073369,8.25309831 8.24016545,9.3086399 L11.6890335,9.3086399 Z M18.9951993,9.76881923 L15.9629787,9.76881923 C15.9704878,9.95518165 15.9743032,10.1430971 15.9743032,10.3325316 C15.9743032,11.9504238 15.6959433,13.4239443 15.2148663,14.7407906 C15.4935881,14.8054191 15.7494006,14.8781394 15.9831911,14.9581756 C16.3121108,15.0707785 16.5670764,15.1857279 16.7579571,15.2937055 C18.1399095,13.9959444 19.0030864,12.1521762 19.0030864,10.1068023 C19.0030864,9.99350316 19.0004379,9.88082263 18.9951993,9.76881923 L18.9951993,9.76881923 Z M18.9588116,9.3086399 C18.7872214,7.77170891 18.1259823,6.38270027 17.1346698,5.30118956 C16.9812364,5.46927728 16.6214464,5.69661402 15.9831911,5.91511531 C15.7759566,5.98606028 15.5514188,6.05125699 15.3089597,6.11016504 C15.6349054,7.11143983 15.8535692,8.18022736 15.9367638,9.3086399 L18.9588116,9.3086399 L18.9588116,9.3086399 Z M4.78272611,9.76881923 C4.77748756,9.88082263 4.77483901,9.99350316 4.77483901,10.1068023 C4.77483901,12.0613636 5.56306898,13.8318238 6.83899432,15.1176485 C6.94410595,15.0652435 7.06300539,15.0128132 7.1967775,14.9611978 C7.54701784,14.8260592 7.96554745,14.7117657 8.45783665,14.6219003 C8.00304553,13.3354392 7.7411301,11.9019067 7.7411301,10.3325316 C7.7411301,10.1430971 7.7449455,9.95518165 7.75245457,9.76881923 L4.78272611,9.76881923 L4.78272611,9.76881923 Z M4.81911381,9.3086399 L7.77866949,9.3086399 C7.85843501,8.22673729 8.06273261,7.19964584 8.36671865,6.2343176 C7.91368276,6.14720868 7.52520592,6.03881572 7.1967775,5.91209309 C6.85945397,5.78193832 6.61669993,5.64660173 6.45112063,5.51955502 C5.56669756,6.56690484 4.97936609,7.87326232 4.81911381,9.3086399 L4.81911381,9.3086399 Z M12.1492128,14.8608511 L12.1492128,17.21444 L11.6890335,17.21444 L11.6890335,14.8534916 C11.6275758,14.8530656 11.5655838,14.8528515 11.5030548,14.8528515 C10.5651648,14.8528515 9.76457677,14.9010236 9.08989775,14.9890377 C9.147583,15.1302334 9.20771246,15.2694204 9.2701764,15.406582 C9.50340571,15.9187192 9.75295137,16.3649241 10.0019255,16.742422 C10.074029,16.8517463 10.1379699,16.9434543 10.191782,17.0172238 C10.7356538,17.1503408 11.3040652,17.220926 11.8889627,17.220926 C12.4467597,17.220926 12.9895629,17.1567302 13.5103873,17.0353237 C13.5668445,16.9586434 13.6353849,16.8608729 13.7135078,16.742422 C13.9624819,16.3649241 14.2120276,15.9187192 14.4452569,15.406582 C14.4938807,15.2998113 14.5410899,15.1918133 14.5868328,15.0825959 C13.9036999,14.962121 13.0948036,14.8848527 12.1492128,14.8608511 Z M16.3881493,15.6178069 C16.24383,15.5473631 16.060856,15.471162 15.8341446,15.3935492 C15.5972531,15.3124514 15.3352021,15.2390629 15.0469176,15.1743722 C14.9883442,15.3173204 14.9273545,15.4583032 14.8640532,15.5973035 C14.6523,16.0622823 14.4271316,16.4761423 14.1998404,16.8371931 C15.0040901,16.5611159 15.7432385,16.1449417 16.3881493,15.6178069 L16.3881493,15.6178069 Z M7.19975823,15.4568922 C7.86715246,16.0423147 8.64501902,16.5048526 9.49802299,16.8091712 C9.27670379,16.454775 9.05767565,16.0502981 8.85138011,15.5973035 C8.77122589,15.4212967 8.69477781,15.2421111 8.62224885,15.0597816 C8.12305828,15.1465511 7.70515594,15.2582886 7.36243223,15.390527 C7.30443809,15.4129038 7.25027352,15.4350631 7.19975823,15.4568922 L7.19975823,15.4568922 Z M12.1492128,6.0124398 C13.1492464,5.98705633 13.9963918,5.90209587 14.7035792,5.76945808 C14.6221163,5.54884583 14.5352589,5.33186867 14.4433543,5.11862481 C14.2094283,4.5758528 13.9590414,4.09699055 13.7091133,3.68695031 C13.560355,3.44289243 13.4458799,3.27730979 13.3826796,3.19509799 L13.4286706,3.15974237 C13.0145745,3.06837644 12.5869335,3.01309074 12.1492128,2.99735045 L12.1492128,6.0124398 Z M11.6890335,6.01979937 L11.6890335,2.99543376 C11.2131641,3.00856482 10.748971,3.06842645 10.3008787,3.17059408 L10.3327537,3.19509799 C10.2695534,3.27730979 10.1550783,3.44289243 10.0063199,3.68695031 C9.75639191,4.09699055 9.50600498,4.5758528 9.27207903,5.11862481 C9.1664136,5.36379742 9.06742008,5.613905 8.97562604,5.86879828 C9.67365441,5.96661268 10.5116451,6.02043947 11.5030548,6.02043947 C11.5655838,6.02043947 11.6275758,6.0202253 11.6890335,6.01979937 L11.6890335,6.01979937 Z M17.108395,5.27267939 C16.2771391,4.37559332 15.2174625,3.6931922 14.021821,3.31793189 C14.0474495,3.35860853 14.074225,3.40178814 14.1020538,3.44744495 C14.3628563,3.87532621 14.6231999,4.37323052 14.8659558,4.93649038 C14.969827,5.1774998 15.0674667,5.42309932 15.1584084,5.67315842 C15.4031477,5.61494845 15.6281577,5.55025958 15.8341446,5.47974171 C16.4042934,5.28455612 16.6978224,5.0982983 16.7955746,4.99008904 L17.108395,5.27267939 L17.108395,5.27267939 Z M6.75847578,5.17841643 C6.87958994,5.26517815 7.07347589,5.37127143 7.36243223,5.48276393 C7.68001849,5.60530316 8.06215969,5.71023854 8.51371728,5.79401556 C8.61675674,5.50212657 8.72891992,5.21621681 8.84947749,4.93649038 C9.09223337,4.37323052 9.35257699,3.87532621 9.6133795,3.44744495 C9.63556565,3.4110456 9.65708237,3.37622074 9.67788214,3.34298342 C8.55626369,3.70940324 7.55730038,4.3470421 6.75847578,5.17841643 L6.75847578,5.17841643 Z" id="path-1"></path>
    </defs>
    <g id="icon-/-Networking-/-NetBinding" stroke="none" stroke-width="1" fill="none" fill-rule="evenodd">
        <mask id="mask-2" fill="white">
            <use xlink:href="#path-1"></use>
        </mask>
        <use id="Combined-Shape" fill="#D179BD" fill-rule="nonzero" xlink:href="#path-1"></use>
    </g>
</svg>