<?xml version="1.0" encoding="UTF-8"?>
<svg width="24px" height="24px" viewBox="0 0 24 24" version="1.1" xmlns="http://www.w3.org/2000/svg" xmlns:xlink="http://www.w3.org/1999/xlink">
    <!-- Generator: Sketch 53.2 (72643) - https://sketchapp.com -->
    <title>icon / Rendering / Particle</title>
    <desc>Created with Sketch.</desc>
    <defs>
        <path d="M13.8902989,18.59721 L12.4177497,14.3053849 L13.2016915,13.5285961 L14.6981867,17.9771173 C15.2864355,17.7806508 15.9607539,17.9479196 16.3857501,18.4510774 C16.941611,19.1089322 16.8617901,20.0933885 16.2065089,20.6527044 C15.5479689,21.2147652 14.5588447,21.1337307 14.000092,20.4724776 C13.5410629,19.9288095 13.5157757,19.1625471 13.8902989,18.59721 L13.8902989,18.59721 Z M6.53736753,17.083256 L10.8086268,13.4875806 L10.8086268,14.3053849 L7.31380216,17.8506485 C7.36110857,18.0125251 7.37219245,18.1874703 7.33940813,18.3644981 C7.22654505,18.9737601 6.63645226,19.3771157 6.02145296,19.2652738 C5.40645367,19.153432 4.99941505,18.5686785 5.11227813,17.9594165 C5.22531539,17.3499819 5.815234,16.9466263 6.4302333,17.0584682 C6.46669746,17.0650994 6.50243054,17.0733932 6.53736753,17.083256 L6.53736753,17.083256 Z M16.0664804,15.5788445 L13.9856334,13.9169905 L13.9856334,13.1402016 L16.614924,15.0011301 C17.0692194,14.7806075 17.6332169,14.8834669 17.9755021,15.2830737 C18.3803575,15.7553532 18.3221726,16.4634272 17.84537,16.8645885 C17.3687415,17.2655773 16.6541473,17.2079233 16.2492919,16.7356438 C15.964899,16.4036245 15.9091011,15.9552389 16.0664804,15.5788445 L16.0664804,15.5788445 Z M9.38198525,5.28244372 L11.2418369,9.64465182 L10.849866,9.98345908 L8.74052524,5.55677218 C8.38525208,5.58952301 8.01999805,5.45578684 7.77146745,5.16586631 C7.36661447,4.69341708 7.42497323,3.98552 7.90159877,3.58436106 C8.3782243,3.18320212 9.0928142,3.24102838 9.49766718,3.713305 C9.89839204,4.180766 9.84530337,4.87923601 9.38198525,5.28244372 L9.38198525,5.28244372 Z M4.82908598,11.9750183 L8.4980405,11.9750183 L8.4980405,12.7599563 L4.89132089,12.7599563 C4.83193654,12.9654947 4.71271628,13.1564789 4.53592702,13.3052141 C4.05912438,13.7063807 3.34453014,13.6487259 2.9398489,13.1762677 C2.53499346,12.703982 2.59317837,11.9958988 3.06998101,11.5949048 C3.54660945,11.1937382 4.26120369,11.251393 4.66605913,11.7236786 C4.73299934,11.8018301 4.78727461,11.8864288 4.82908598,11.9750183 L4.82908598,11.9750183 Z M19.7920296,11.6389459 L19.4892585,11.6389459 L13.9856334,12.7518073 L13.9856334,11.9750183 L19.1403163,10.793675 C18.9545708,10.2109291 19.1215403,9.54788631 19.6153487,9.12624161 C20.2738945,8.56393386 21.2630655,8.64496643 21.821757,9.30636818 C22.3775589,9.96414951 22.2976663,10.9485922 21.6425627,11.5079608 C21.1079287,11.9644649 20.3553002,11.9968522 19.7920296,11.6389459 L19.7920296,11.6389459 Z M13.9628513,4.20562284 C13.4677131,4.62220036 12.7256389,4.56233078 12.3053956,4.07172292 C11.8849713,3.58129432 11.9455747,2.84600991 12.440532,2.42943239 C12.9354892,2.01285487 13.6775634,2.0729037 14.0979876,2.5633323 C14.5184119,3.05394016 14.4578085,3.78922457 13.9628513,4.20562284 Z M17.5678607,4.60360659 C17.1025492,4.51898649 16.65543,4.82458795 16.5697168,5.28728834 C16.4838977,5.75069149 16.7929842,6.1947043 17.2588154,6.2794189 C17.7241479,6.36404283 18.171242,6.05841811 18.2569593,5.59556455 C18.3427717,5.13219745 18.0337285,4.68832785 17.5678607,4.60360659 Z M17.1590804,6.81041225 C16.3949363,6.67144737 15.8899179,5.94597215 16.0298318,5.19046971 C16.1698493,4.43462135 16.9029469,3.93355658 17.6675957,4.07261323 C18.4317557,4.21158101 18.9367552,4.93689671 18.7968468,5.69236991 C18.6568422,6.44836244 17.9237698,6.94947629 17.1590804,6.81041225 Z M3.80090493,3.89866328 C3.43852055,3.46980132 2.80194459,3.41760125 2.3761571,3.78116537 C1.94683705,4.14774581 1.89410634,4.79754459 2.25927999,5.22970749 C2.62166437,5.65856944 3.25824033,5.71076951 3.68402783,5.34720539 C4.11334788,4.98062495 4.16607858,4.33082618 3.80090493,3.89866328 Z M4.22287796,3.55343371 C4.77869713,4.21121508 4.69880924,5.19567105 4.04369943,5.75504497 C3.38522,6.31729609 2.39605379,6.23618316 1.83730696,5.57493705 C1.2814878,4.91715568 1.36137569,3.93269971 2.0164855,3.37332579 C2.67496492,2.81107467 3.66413113,2.89218761 4.22287796,3.55343371 Z M15.9637585,18.796285 C15.6015349,18.3674288 14.9649912,18.3152274 14.5391714,18.6788191 C14.1097803,19.0453263 14.0570605,19.6949413 14.4221336,20.1273292 C14.7844557,20.5561175 15.4210515,20.608271 15.8469189,20.2447951 C16.2763162,19.8782827 16.328995,19.2285223 15.9637585,18.796285 Z M21.3997682,9.6515791 C21.037419,9.22260205 20.4008824,9.17045345 19.9750203,9.53408119 C19.5456876,9.90067251 19.4929668,10.5502992 19.8581432,10.9826233 C20.2205276,11.4114853 20.8571036,11.4636853 21.2828911,11.1001212 C21.7122111,10.7335408 21.7649418,10.083742 21.3997682,9.6515791 Z M12.1792489,10.133741 L12.5567024,4.80715519 L13.2031708,4.80715519 L12.5567024,10.133741 L12.1792489,10.133741 Z M3.79438927,6.53749633 L4.57833113,5.76070744 L9.28198229,10.4214406 L8.89001136,11.1982295 L3.79438927,6.53749633 Z M13.985613,10.4214407 L13.985613,10.9570467 L13.2016916,10.4214407 L16.337459,6.51655461 L17.121401,7.31428515 L13.985613,10.4214407 Z" id="path-1"></path>
    </defs>
    <g id="icon-/-Rendering-/-Particle" stroke="none" stroke-width="1" fill="none" fill-rule="evenodd">
        <mask id="mask-2" fill="white">
            <use xlink:href="#path-1"></use>
        </mask>
        <use id="Shape" fill="#B29EDF" xlink:href="#path-1"></use>
    </g>
</svg>