<?xml version="1.0" encoding="UTF-8"?>
<svg width="24px" height="24px" viewBox="0 0 24 24" version="1.1" xmlns="http://www.w3.org/2000/svg" xmlns:xlink="http://www.w3.org/1999/xlink">
    <title>icon / Physics  / PhysX / ragdoll</title>
    <defs>
        <path d="M11.8480332,6.39683902 L9.34536997,7.30773395 L9.34536997,15.1456379 L10.4834726,15.8790622 L14.3629618,17.9906933 L16.7337828,17.5833364 L17.7664808,15.8790622 L17.7664808,8.58434379 L11.8480332,6.39683902 Z M18.8912,8.8798081 L18.8912,14.2867823 L20.4881928,15.1884775 L18.08798,19.4236113 L14.3173821,19.9400493 L13.0576372,22.6306649 L5.65749546,22.6306649 L9.33128484,17.2716353 L7.7728097,16.2555343 L4.57245497,18.3184106 L3.54439439,16.6574545 L4.57245497,16.040176 L4.57245497,9.04493294 L4.237333,9.16690736 L3.51180719,7.17354158 L8.74690658,5.26812123 L3.51180719,3.36270088 L4.237333,1.3693351 L11.8480332,4.13940344 L19.6921966,1.3693351 L20.4821716,3.36270088 L14.9491599,5.26812123 L20.4881928,7.17354158 L19.8243289,9.16690736 L18.8912,8.8798081 Z M8.20737156,7.70511516 L5.76528005,8.64195487 L5.76528005,15.4875756 L8.20737156,13.9411036 L8.20737156,7.70511516 Z M13.0576372,16.241668 C11.886078,16.241668 10.9363416,15.2919316 10.9363416,14.1203724 C10.9363416,12.9488133 11.886078,11.9990769 13.0576372,11.9990769 C14.2291964,11.9990769 15.1789328,12.9488133 15.1789328,14.1203724 C15.1789328,15.2919316 14.2291964,16.241668 13.0576372,16.241668 Z" id="path-1"></path>
    </defs>
    <g id="icon-/-Physics--/-PhysX-/-ragdoll" stroke="none" stroke-width="1" fill="none" fill-rule="evenodd">
        <mask id="mask-2" fill="white">
            <use xlink:href="#path-1"></use>
        </mask>
        <use id="Shape" fill="#DD7F6D" xlink:href="#path-1"></use>
    </g>
</svg>