<svg fill="none" height="24" viewBox="0 0 24 24" width="24" xmlns="http://www.w3.org/2000/svg"><g fill="#dd7f6d"><path d="m6 4.5c0 .82843-.67157 1.5-1.5 1.5s-1.5-.67157-1.5-1.5.67157-1.5 1.5-1.5 1.5.67157 1.5 1.5z"/><path d="m11 9.5c0 .8284-.6716 1.5-1.5 1.5-.82843 0-1.5-.6716-1.5-1.5 0-.82843.67157-1.5 1.5-1.5.8284 0 1.5.67157 1.5 1.5z"/><path d="m16 9.5c0 .8284-.6716 1.5-1.5 1.5s-1.5-.6716-1.5-1.5c0-.82843.6716-1.5 1.5-1.5s1.5.67157 1.5 1.5z"/><path d="m16 14.5c0 .8284-.6716 1.5-1.5 1.5s-1.5-.6716-1.5-1.5.6716-1.5 1.5-1.5 1.5.6716 1.5 1.5z"/><path d="m11 14.5c0 .8284-.6716 1.5-1.5 1.5-.82843 0-1.5-.6716-1.5-1.5s.67157-1.5 1.5-1.5c.8284 0 1.5.6716 1.5 1.5z"/><path d="m6 19.5c0 .8284-.67157 1.5-1.5 1.5s-1.5-.6716-1.5-1.5.67157-1.5 1.5-1.5 1.5.6716 1.5 1.5z"/><path d="m21 4.5c0 .82843-.6716 1.5-1.5 1.5s-1.5-.67157-1.5-1.5.6716-1.5 1.5-1.5 1.5.67157 1.5 1.5z"/><path d="m21 19.5c0 .8284-.6716 1.5-1.5 1.5s-1.5-.6716-1.5-1.5.6716-1.5 1.5-1.5 1.5.6716 1.5 1.5z"/><path d="m4 20v-16h1v16z"/><path d="m9 18v-12h1v12z"/><path d="m14 18v-12h1v12z"/><path d="m19 20v-16h1v16z"/><path d="m4 4h16v1h-16z"/><path d="m4 19h16v1h-16z"/><path d="m6 14h12v1h-12z"/><path d="m6 9h12v1h-12z"/></g></svg>