<svg width="25" height="25" viewBox="0 0 25 25" fill="none" xmlns="http://www.w3.org/2000/svg">
<g id="Components / PhysX / RigidPhysics">
<g id="Vector">
<path fill-rule="evenodd" clip-rule="evenodd" d="M12.9624 21.3433C8.09539 21.3433 4.1499 17.3978 4.1499 12.5308C4.1499 7.66375 8.09539 3.71826 12.9624 3.71826C17.8294 3.71826 21.7749 7.66375 21.7749 12.5308C21.7749 17.3978 17.8294 21.3433 12.9624 21.3433ZM12.1499 11.7183V4.38305C8.27687 4.76453 5.19617 7.84523 4.81469 11.7183H12.1499ZM13.3999 20.7068C17.5735 20.487 20.9187 17.1418 21.1384 12.9683H13.3999V20.7068Z" fill="#DD7F6D"/>
<path fill-rule="evenodd" clip-rule="evenodd" d="M12.9624 21.3433C8.09539 21.3433 4.1499 17.3978 4.1499 12.5308C4.1499 7.66375 8.09539 3.71826 12.9624 3.71826C17.8294 3.71826 21.7749 7.66375 21.7749 12.5308C21.7749 17.3978 17.8294 21.3433 12.9624 21.3433ZM12.1499 11.7183V4.38305C8.27687 4.76453 5.19617 7.84523 4.81469 11.7183H12.1499ZM13.3999 20.7068C17.5735 20.487 20.9187 17.1418 21.1384 12.9683H13.3999V20.7068Z" fill="#DD7F6D"/>
</g>
</g>
</svg>
