<?xml version="1.0" encoding="UTF-8"?>
<svg width="24px" height="24px" viewBox="0 0 24 24" version="1.1" xmlns="http://www.w3.org/2000/svg" xmlns:xlink="http://www.w3.org/1999/xlink">
    <!-- Generator: Sketch 53.2 (72643) - https://sketchapp.com -->
    <title>icon / Physics  / PhysX / character</title>
    <desc>Created with Sketch.</desc>
    <defs>
        <path d="M3.01272419,10.557283 C3.01272419,6.59272982 5.56258483,1.54397367 11.9299461,1.54397367 C18.2973073,1.54397367 21.0275184,6.44688647 21.0275184,10.557283 C21.0275184,12.5177179 21.0183642,14.9310325 21.0087878,17.0502739 C21.0037842,18.1575771 21.0087878,17.03856 21.0087878,18.3995459 C21.0087878,19.2468139 20.77724,20.1614587 19.908171,20.8625721 C19.3812347,21.2876731 18.0671789,21.7442976 17.0548061,21.7442976 C17.7740175,20.7435047 18.074528,20.7435047 18.2518198,19.9845099 C18.4291116,19.2255151 18.074528,18.75 17.4617905,18.75 C16.849053,18.75 16.1818378,19.2445658 15.5063168,19.9845099 C14.7604361,20.8015237 13.4749913,21.7442976 12.5541786,21.7442976 C11.6456442,21.7442976 12.7433421,20.7502874 12.7433421,19.9845099 C12.7433421,19.2187324 12.3634471,18.75 11.5724934,18.75 C10.7815398,18.75 10.5858251,19.4364611 9.91899292,20.2442976 C9.25216069,21.0521342 8.46,21.7442976 7.28342994,21.7442976 C6.10685987,21.7442976 7.47521771,20.9732427 7.55343393,19.9845099 C7.59678872,19.4364611 7.59678872,18.75 6.66266994,18.75 C5.73129927,18.75 5.17803306,19.5807078 4.6267821,20.2442976 C4.00304832,20.9951415 3.30956388,21.375 1.78270399,21.375 C2.40648486,20.4932745 2.08814236,20.9548149 2.6362088,19.9845099 C2.99733829,19.3451609 3.00844573,18.7140819 3.00844573,18 C3.00844573,16.85272 3.00537713,17.7942744 3.00844573,16.4121779 C3.01272419,14.4851667 3.01272419,12.4354222 3.01272419,10.557283 Z M14.5787492,8.35430322 C14.3026068,8.35430322 14.0787492,8.57816085 14.0787492,8.85430322 L14.0787492,11.8460459 C14.0787492,12.1221883 14.3026068,12.3460459 14.5787492,12.3460459 L15.7312221,12.3460459 C16.0073644,12.3460459 16.2312221,12.1221883 16.2312221,11.8460459 L16.2312221,8.85430322 C16.2312221,8.57816085 16.0073644,8.35430322 15.7312221,8.35430322 L14.5787492,8.35430322 Z M8.80742414,8.35430322 C8.53128176,8.35430322 8.30742414,8.57816085 8.30742414,8.85430322 L8.30742414,11.9400639 C8.30742414,12.2162063 8.53128176,12.4400639 8.80742414,12.4400639 L9.95989699,12.4400639 C10.2360394,12.4400639 10.459897,12.2162063 10.459897,11.9400639 L10.459897,8.85430322 C10.459897,8.57816085 10.2360394,8.35430322 9.95989699,8.35430322 L8.80742414,8.35430322 Z" id="path-1"></path>
    </defs>
    <g id="icon-/-Physics--/-PhysX-/-character" stroke="none" stroke-width="1" fill="none" fill-rule="evenodd">
        <mask id="mask-2" fill="white">
            <use xlink:href="#path-1"></use>
        </mask>
        <use id="Combined-Shape" fill="#DD7F6D" fill-rule="nonzero" xlink:href="#path-1"></use>
    </g>
</svg>