<?xml version="1.0" encoding="UTF-8"?>
<svg width="24px" height="24px" viewBox="0 0 24 24" version="1.1" xmlns="http://www.w3.org/2000/svg" xmlns:xlink="http://www.w3.org/1999/xlink">
    <title>icon / Shapes / PolygonPrismShape</title>
    <defs>
        <path d="M19.9017239,5.27764074 L15.8749409,3.39494038 L12.934303,5.60108461 L16.511702,8.1367453 L19.9017239,5.27764074 Z M14.9503518,8.36249704 L12.0210661,6.28621909 L9.25353102,8.36249704 L14.9503518,8.36249704 Z M9.52998834,3.18810609 L12.0053289,4.94262769 L14.343985,3.18810609 L9.52998834,3.18810609 L9.52998834,3.18810609 Z M3.95625753,5.62776217 L7.63852378,8.2187203 L11.092092,5.62776217 L7.9824946,3.4236793 L3.95625753,5.62776217 Z M8.21789762,14.4595831 L15.8351155,14.4595831 L15.9290657,14.5125239 L15.9290657,9.7479088 L8.21789762,9.7479088 L8.21789762,14.4595831 Z M7.20742071,14.5124396 L7.20742071,9.88310602 L2.96107346,6.3077052 L2.86163064,16.9500775 L7.20742071,14.5124396 Z M8.21789762,20.4321632 L15.9290657,20.4321632 L15.9290657,16.1915223 L15.4889456,15.9890137 L8.37165088,15.9890137 L8.21789762,16.0689342 L8.21789762,20.4321632 L8.21789762,20.4321632 Z M7.20742071,19.9359513 L7.20742071,16.2905422 L4.60896521,17.7480662 L7.20742071,19.9359513 Z M16.9395426,14.6242043 L20.986906,16.6338121 L20.986906,6.19452546 L16.9395426,9.84259567 L16.9395426,14.6242043 Z M16.9395426,19.8373467 L19.428755,17.5937078 L16.9395426,16.3577573 L16.9395426,19.8373467 L16.9395426,19.8373467 Z M21.9973829,17.3534034 L21.4660563,17.8323119 L16.849041,21.993835 L7.25618921,21.993835 L1.90393561,17.5019559 L1.95843809,5.46349178 L1.95915632,5.38662663 L2.02910093,5.34739335 L7.98580078,2.00616503 L15.8351155,2.00616503 L21.7321276,4.93416544 L21.9973829,5.0658707 L21.9973829,5.28373728 L21.9973829,17.1355368 L21.9973829,17.3534034 Z" id="path-1"></path>
    </defs>
    <g id="icon-/-Shapes-/-PolygonPrismShape" stroke="none" stroke-width="1" fill="none" fill-rule="evenodd">
        <mask id="mask-2" fill="white">
            <use xlink:href="#path-1"></use>
        </mask>
        <use id="Shape" fill="#5A69A1" fill-rule="nonzero" xlink:href="#path-1"></use>
    </g>
</svg>