<?xml version="1.0" encoding="UTF-8"?>
<svg width="24px" height="24px" viewBox="0 0 24 24" version="1.1" xmlns="http://www.w3.org/2000/svg" xmlns:xlink="http://www.w3.org/1999/xlink">
    <title>icon / Rendering / ProjectorLight</title>
    <defs>
        <path d="M3.80820088,6.90293957 C3.81434755,6.90293957 3.81303329,6.90426001 3.81303329,6.90553645 L3.81303329,17.4000226 L12.2176097,17.4026195 C12.211463,17.4026195 12.2127772,17.4012991 12.2127772,17.4000226 L12.2127772,15.3026835 L14.3127132,15.3026835 L14.3127132,9.00287556 L12.2127772,9.00287556 L12.2127772,6.90553645 L3.80820088,6.90293957 Z M14.3138088,7.95290756 C14.8930851,7.95290756 15.3626812,8.42251297 15.3626812,8.9997573 L15.3626812,15.3058018 C15.3626812,15.8839609 14.8911088,16.3526515 14.3138088,16.3526515 L13.1449081,16.3584014 L13.1449081,17.4000226 C13.169096,17.9861548 12.6063151,18.3560013 12.27958,18.3560013 L3.8701712,18.3560013 C3.12672687,18.3560013 2.49454948,17.9243807 2.49454948,16.8907887 C2.49454948,16.2017273 2.50592504,13.0099047 2.52867615,7.31532082 C2.52867615,6.15648121 2.59569996,5.82170689 3.7515268,5.82170689 L12.27958,5.82170689 C12.9793604,5.82170689 13.2699595,6.39028754 13.2699595,7.05094252 L13.2699595,7.95290756 L14.3138088,7.95290756 Z M17.2150389,6.16909157 C17.3892152,6.34326788 17.4662487,6.68113548 17.3866313,6.76075288 L16.1898732,7.95751098 C16.1102558,8.03712838 15.8067783,7.92863112 15.6323916,7.75424445 C15.4580049,7.57985778 15.3430392,7.26991176 15.4226566,7.19029436 L16.6194147,5.99353626 C16.6990321,5.91391886 17.0406523,5.9947049 17.2150389,6.16909157 Z M19.1623344,4.22179611 C19.3365107,4.39597242 19.4135442,4.73384002 19.3339268,4.81345742 L18.1371687,6.01021552 C18.0575513,6.08983292 17.7540737,5.98133566 17.5796871,5.80694899 C17.4053004,5.63256232 17.2903347,5.3226163 17.3699521,5.2429989 L18.5667102,4.0462408 C18.6463276,3.9666234 18.9879477,4.04740944 19.1623344,4.22179611 Z M21.1096298,2.27450065 C21.2838062,2.44867695 21.3608397,2.78654455 21.2812223,2.86616196 L20.0844642,4.06292006 C20.0048468,4.14253746 19.7013692,4.03404019 19.5269825,3.85965353 C19.3525959,3.68526686 19.2376301,3.37532084 19.3172475,3.29570344 L20.5140056,2.09894534 C20.593623,2.01932794 20.9352432,2.10011398 21.1096298,2.27450065 Z M17.4045557,17.8342159 C17.2303793,18.0083923 16.8925117,18.0854258 16.8128943,18.0058084 L15.6161362,16.8090503 C15.5365188,16.7294329 15.6450161,16.4259553 15.8194028,16.2515686 C15.9937894,16.077182 16.3037355,15.9622162 16.3833529,16.0418337 L17.580111,17.2385917 C17.6597284,17.3182092 17.5789423,17.6598293 17.4045557,17.8342159 Z M19.3518511,19.7815114 C19.1776748,19.9556877 18.8398072,20.0327212 18.7601898,19.9531038 L17.5634317,18.7563457 C17.4838143,18.6767283 17.5923116,18.3732508 17.7666982,18.1988641 C17.9410849,18.0244774 18.2510309,17.9095117 18.3306483,17.9891291 L19.5274064,19.1858872 C19.6070238,19.2655046 19.5262378,19.6071247 19.3518511,19.7815114 Z M21.2991466,21.7288069 C21.1249703,21.9029832 20.7871027,21.9800167 20.7074853,21.9003993 L19.5107272,20.7036412 C19.4311098,20.6240238 19.539607,20.3205462 19.7139937,20.1461595 C19.8883804,19.9717729 20.1983264,19.8568072 20.2779438,19.9364246 L21.4747019,21.1331827 C21.5543193,21.2128001 21.4735332,21.5544202 21.2991466,21.7288069 Z" id="path-1"></path>
    </defs>
    <g id="icon-/-Rendering-/-ProjectorLight" stroke="none" stroke-width="1" fill="none" fill-rule="evenodd">
        <mask id="mask-2" fill="white">
            <use xlink:href="#path-1"></use>
        </mask>
        <use id="Shape" fill="#B29EDF" xlink:href="#path-1"></use>
    </g>
</svg>