<?xml version="1.0" encoding="UTF-8"?>
<svg width="24px" height="24px" viewBox="0 0 24 24" version="1.1" xmlns="http://www.w3.org/2000/svg" xmlns:xlink="http://www.w3.org/1999/xlink">
    <title>icon / Gameplay / RandomTimedSpawner</title>
    <defs>
        <path d="M11.4717187,1.26147319 C15.9746763,1.26147319 19.6250446,10.0571346 19.6250446,14.5690256 C19.6250446,19.0809165 15.9746763,22.7385268 11.4717187,22.7385268 C6.96876116,22.7385268 3.31839282,19.0809165 3.31839282,14.5690256 C3.31839282,10.0571346 6.96876116,1.26147319 11.4717187,1.26147319 Z M15.732635,8.81821428 L15.7323928,10.2574732 L13.0488627,10.2575935 L10.8383928,12.5534732 L8.77491792,10.4091071 L5.50021567,10.4091071 C5.17385404,10.4091071 4.90928568,10.6641948 4.90928568,10.9788614 C4.90928568,11.293528 5.17385404,11.5486157 5.50021567,11.5486157 L5.50021567,11.5486157 L8.25921963,11.5486157 L10.0323928,13.3914732 L8.25921963,15.2354468 L5.50021567,15.2354468 C5.17385404,15.2354468 4.90928568,15.4905345 4.90928568,15.8052011 C4.90928568,16.1198677 5.17385404,16.3749554 5.50021567,16.3749554 L8.77491792,16.3749554 L10.8383928,14.2294732 L13.0488627,16.526469 L15.7323928,16.5254732 L15.732635,17.9658482 L18.0341518,15.9867018 L15.732635,14.127035 L15.7323928,15.3864732 L13.564561,15.3869604 L11.6443928,13.3914732 L13.564561,11.3971021 L15.7323928,11.3964732 L15.732635,12.6570275 L18.0341518,10.7973608 L15.732635,8.81821428 Z" id="path-1"></path>
    </defs>
    <g id="icon-/-Gameplay-/-RandomTimedSpawner" stroke="none" stroke-width="1" fill="none" fill-rule="evenodd">
        <mask id="mask-2" fill="white">
            <use xlink:href="#path-1"></use>
        </mask>
        <use id="Icon" fill="#65C98C" xlink:href="#path-1"></use>
    </g>
</svg>