<?xml version="1.0" encoding="UTF-8"?>
<svg width="24px" height="24px" viewBox="0 0 24 24" version="1.1" xmlns="http://www.w3.org/2000/svg" xmlns:xlink="http://www.w3.org/1999/xlink">
    <title>icon / Gameplay / SimpleState</title>
    <defs>
        <path d="M2.39750293,6.23957535 C2.39750293,6.9288074 2.95867953,7.48957535 3.64750293,7.48957535 C4.33632633,7.48957535 4.89750293,6.9288074 4.89750293,6.23957535 C4.89750293,5.5503433 4.33632633,4.98957535 3.64750293,4.98957535 C2.95867953,4.98957535 2.39750293,5.5503433 2.39750293,6.23957535 Z M5.64750293,6.23957535 C5.64750293,7.34226888 4.75069712,8.23957535 3.64750293,8.23957535 C2.54430874,8.23957535 1.64750293,7.34226888 1.64750293,6.23957535 C1.64750293,5.13688182 2.54430874,4.23957535 3.64750293,4.23957535 C4.75069712,4.23957535 5.64750293,5.13688182 5.64750293,6.23957535 Z M21.8747157,6.23957535 C21.8747157,7.34226888 20.9779099,8.23957535 19.8747157,8.23957535 C18.7715215,8.23957535 17.8747157,7.34226888 17.8747157,6.23957535 C17.8747157,5.13688182 18.7715215,4.23957535 19.8747157,4.23957535 C20.9779099,4.23957535 21.8747157,5.13688182 21.8747157,6.23957535 Z M18.6247157,6.23957535 C18.6247157,6.9288074 19.1858923,7.48957535 19.8747157,7.48957535 C20.5635391,7.48957535 21.1247157,6.9288074 21.1247157,6.23957535 C21.1247157,5.5503433 20.5635391,4.98957535 19.8747157,4.98957535 C19.1858923,4.98957535 18.6247157,5.5503433 18.6247157,6.23957535 Z M17.2405032,6.64341836 L11.8632089,15.7085814 L6.44979209,6.64341836 L17.2405032,6.64341836 Z M14.0504317,18.7526036 C14.0504317,19.8552971 13.1536259,20.7526036 12.0504317,20.7526036 C10.9472375,20.7526036 10.0504317,19.8552971 10.0504317,18.7526036 C10.0504317,17.64991 10.9472375,16.7526036 12.0504317,16.7526036 C13.1536259,16.7526036 14.0504317,17.64991 14.0504317,18.7526036 Z M10.8004317,18.7526036 C10.8004317,19.4418356 11.3616083,20.0026036 12.0504317,20.0026036 C12.7392551,20.0026036 13.3004317,19.4418356 13.3004317,18.7526036 C13.3004317,18.0633715 12.7392551,17.5026036 12.0504317,17.5026036 C11.3616083,17.5026036 10.8004317,18.0633715 10.8004317,18.7526036 Z" id="path-1"></path>
    </defs>
    <g id="icon-/-Gameplay-/-SimpleState" stroke="none" stroke-width="1" fill="none" fill-rule="evenodd">
        <mask id="mask-2" fill="white">
            <use xlink:href="#path-1"></use>
        </mask>
        <use id="Combined-Shape" fill="#65C98C" fill-rule="nonzero" xlink:href="#path-1"></use>
    </g>
</svg>