<?xml version="1.0" encoding="UTF-8"?>
<svg width="24px" height="24px" viewBox="0 0 24 24" version="1.1" xmlns="http://www.w3.org/2000/svg" xmlns:xlink="http://www.w3.org/1999/xlink">
    <title>icon / Animation / SimpleLODDistance</title>
    <defs>
        <path d="M9.65613074,9.14003989 L9.69357906,9.10058594 L9.70614106,9.11587953 L12.6844813,2.69553277 L15.5012533,9.48599975 L17.7301967,6.42458544 L21.4153176,11.6958371 L21.4971533,11.8911908 L23.0203335,20.1084517 L1.74190235,20.1084517 L3.29787764,12.6661124 L3.3499047,12.526177 L6.68990442,6.4958984 L9.65613074,9.14003989 Z M2.76516829,18.6424246 L4.66700321,15.1304007 L3.72000332,14.5942809 L2.76516829,18.6424246 Z M3.66540341,19.1084517 L8.44101431,19.1084517 L7.10155675,17.6720694 L3.66540341,19.1084517 Z M9.12468027,19.1084517 L9.16319006,19.1084517 L12.1789615,17.3692315 L10.5272435,16.2400624 L10.0842651,16.4252364 L7.59346891,17.4664401 L9.12468027,19.1084517 Z M10.1640251,19.1084517 L14.7230459,19.1084517 L12.6369246,17.6823102 L10.1640251,19.1084517 Z M15.6090065,19.1084517 L15.7204922,19.1084517 L18.2576751,17.6376261 L15.5246665,16.2551354 L15.1116158,16.2551354 L13.1174865,17.4051662 L15.6090065,19.1084517 Z M16.7174432,19.1084517 L21.2677357,19.1084517 L18.7986435,17.901963 L16.7174432,19.1084517 L16.7174432,19.1084517 Z M21.7593047,18.792151 L21.3230336,16.4385534 L19.319542,17.5999938 L21.7593047,18.792151 L21.7593047,18.792151 Z M20.9534894,15.4737454 L18.8896286,15.2431297 L16.3404756,16.1443131 L18.7785737,17.3356569 L21.1268329,15.974352 L20.9534894,15.4737454 L20.9534894,15.4737454 Z M12.6486957,14.0965621 L11.0973608,15.6197946 L14.4307823,15.6774679 L12.6486957,14.0965621 Z M9.49502638,16.1655987 L5.53645171,15.2776294 L7.2298524,17.0765119 L9.49502638,16.1655987 Z M4.16639829,13.3984048 L5.05116924,13.9916313 L8.96736287,9.8656964 L6.95846449,8.07493232 L4.26126433,12.9446538 L4.16639829,13.3984048 Z M6.03479188,14.4079065 L9.95571405,15.3645391 L11.9309805,13.400001 L9.63945513,10.6101867 L6.03479188,14.4079065 L6.03479188,14.4079065 Z M16.2533124,10.1520165 L19.1120782,14.2617627 L20.9577649,14.4679996 L20.5336522,12.179994 L17.713667,8.14624529 L16.2533124,10.1520165 L16.2533124,10.1520165 Z M15.3045292,11.4551534 L15.2605297,11.5155859 L15.2556338,11.5037832 L13.3554671,13.3936294 L15.5929419,15.3479333 L18.0461975,14.4806518 L15.6811113,11.0806166 L15.3045292,11.4551534 L15.3045292,11.4551534 Z M14.8414617,10.5053275 L12.6333311,5.18212826 L10.4102232,9.97443621 L12.6387321,12.6960934 L14.8414617,10.5053275 L14.8414617,10.5053275 Z M3.29785273,18.7201681 L6.73794023,17.2821412 L5.06429406,15.487388 L3.29785273,18.7201681 Z M12.6595234,17.0920875 L14.0307231,16.3013053 L11.3392906,16.1895326 L12.6595234,17.0920875 Z" id="path-1"></path>
    </defs>
    <g id="icon-/-Animation-/-SimpleLODDistance" stroke="none" stroke-width="1" fill="none" fill-rule="evenodd">
        <mask id="mask-2" fill="white">
            <use xlink:href="#path-1"></use>
        </mask>
        <use id="Shape" fill="#5AA9D2" fill-rule="nonzero" xlink:href="#path-1"></use>
    </g>
</svg>