<?xml version="1.0" encoding="UTF-8"?>
<svg width="24px" height="24px" viewBox="0 0 24 24" version="1.1" xmlns="http://www.w3.org/2000/svg" xmlns:xlink="http://www.w3.org/1999/xlink">
    <!-- Generator: Sketch 53.2 (72643) - https://sketchapp.com -->
    <title>icon / Animation / Simple Animation</title>
    <desc>Created with Sketch.</desc>
    <g id="icon-/-Animation-/-Simple-Animation" stroke="none" stroke-width="1" fill="none" fill-rule="evenodd">
        <circle id="Oval" fill="#5AA9D2" cx="12" cy="11.3539891" r="1.51153368"></circle>
        <path d="M19.7048983,10.5897369 L16.9307673,10.5897369 L16.9307673,12.1630227 C16.7746866,12.105109 16.5583475,12.0509594 16.301536,12.0509594 C16.0447245,12.0509594 15.8535877,12.0724292 15.7048983,12.1630227 L15.7048983,4.16302271 L19.7048983,4.16302271 L19.7048983,10.5897369 Z" id="Shape" fill="#5AA9D2" transform="translate(17.704898, 8.163023) rotate(-315.000000) translate(-17.704898, -8.163023) "></path>
        <path d="M19.7987982,9.95856098 L20.8631133,8.81792443 C22.8648978,12.2852649 21.796708,15.431393 20.0679518,17.6725103 L19.2552443,16.7193576 C20.7435247,14.7899874 21.3151862,12.1161056 19.7987982,9.95856098 Z M18.8522979,10.8775162 C19.9136059,12.5435695 19.7290689,14.2440191 18.4745979,15.893539 L17.8595035,15.2727509 C18.8154624,14.0157484 18.9329213,12.8166196 18.2277195,11.5795396 C18.2032703,11.5366503 18.4114631,11.3026425 18.8522979,10.8775162 Z" id="Combined-Shape" fill-opacity="0.5" fill="#5AA9D2" fill-rule="nonzero"></path>
        <path d="M10.3837433,16.4298717 L11.4480584,15.2892351 C13.4498429,18.7565756 12.3816531,21.9027037 10.6528969,24.143821 L9.8401894,23.1906683 C11.3284698,21.2612981 11.9001313,18.5874163 10.3837433,16.4298717 Z M9.43724301,17.3488269 C10.498551,19.0148801 10.314014,20.7153298 9.05954299,22.3648496 L8.44444858,21.7440616 C9.40040752,20.4870591 9.51786636,19.2879303 8.81266458,18.0508503 C8.78821538,18.0079609 8.99640819,17.7739532 9.43724301,17.3488269 Z" id="Combined-Shape-Copy-2" fill-opacity="0.5" fill="#5AA9D2" fill-rule="nonzero" transform="translate(10.488466, 19.716528) rotate(-270.000000) translate(-10.488466, -19.716528) "></path>
        <path d="M3.98287381,6.55579901 L5.04718894,5.41516245 C7.04897344,8.88250291 5.98078364,12.0286311 4.25202742,14.2697483 L3.43931995,13.3165957 C4.92760031,11.3872254 5.49926184,8.71334361 3.98287381,6.55579901 Z M3.03637356,7.47475426 C4.09768151,9.14080747 3.91314457,10.8412571 2.65867355,12.490777 L2.04357914,11.869989 C2.99953807,10.6129864 3.11699691,9.41385763 2.41179514,8.1767776 C2.38734594,8.13388829 2.59553875,7.89988051 3.03637356,7.47475426 Z" id="Combined-Shape-Copy-3" fill-opacity="0.5" fill="#5AA9D2" fill-rule="nonzero" transform="translate(4.087597, 9.842455) rotate(-180.000000) translate(-4.087597, -9.842455) "></path>
        <path d="M13.6574767,0.534004291 L14.7217918,-0.606632261 C16.7235763,2.86070819 15.6553865,6.00683636 13.9266303,8.24795362 L13.1139228,7.29480095 C14.6022032,5.3654307 15.1738647,2.69154889 13.6574767,0.534004291 Z M12.7109764,1.45295955 C13.7722844,3.11901276 13.5877474,4.81946241 12.3332764,6.46898226 L11.718182,5.84819424 C12.674141,4.59119172 12.7915998,3.39206292 12.086398,2.15498289 C12.0619488,2.11209358 12.2701416,1.8780858 12.7109764,1.45295955 Z" id="Combined-Shape-Copy" fill-opacity="0.5" fill="#5AA9D2" fill-rule="nonzero" transform="translate(13.762200, 3.820661) rotate(-90.000000) translate(-13.762200, -3.820661) "></path>
        <path d="M8.63067574,17.5708116 L5.85654474,17.5708116 L5.85654474,19.1440974 C5.70046403,19.0861837 5.48412499,19.0320341 5.22731345,19.0320341 C4.97050191,19.0320341 4.77936511,19.0535039 4.63067574,19.1440974 L4.63067574,11.1440974 L8.63067574,11.1440974 L8.63067574,17.5708116 Z" id="Shape-Copy-3" fill="#5AA9D2" transform="translate(6.630676, 15.144097) rotate(-494.000000) translate(-6.630676, -15.144097) "></path>
        <path d="M17.3218386,19.3684271 L14.5477076,19.3684271 L14.5477076,20.9417129 C14.3916269,20.8837992 14.1752879,20.8296496 13.9184763,20.8296496 C13.6616648,20.8296496 13.470528,20.8511194 13.3218386,20.9417129 L13.3218386,12.9417129 L17.3218386,12.9417129 L17.3218386,19.3684271 Z" id="Shape-Copy-2" fill="#5AA9D2" transform="translate(15.321839, 16.941713) rotate(-222.000000) translate(-15.321839, -16.941713) "></path>
        <path d="M10.663897,8.44599787 L7.88976605,8.44599787 L7.88976605,10.0192836 C7.73368533,9.9613699 7.5173463,9.90722029 7.26053476,9.90722029 C7.00372321,9.90722029 6.81258641,9.92869015 6.66389704,10.0192836 L6.66389704,2.01928363 L10.663897,2.01928363 L10.663897,8.44599787 Z" id="Shape-Copy" fill="#5AA9D2" transform="translate(8.663897, 6.019284) rotate(-45.000000) translate(-8.663897, -6.019284) "></path>
    </g>
</svg>