<?xml version="1.0" encoding="UTF-8"?>
<svg width="24px" height="24px" viewBox="0 0 24 24" version="1.1" xmlns="http://www.w3.org/2000/svg" xmlns:xlink="http://www.w3.org/1999/xlink">
    <!-- Generator: Sketch 53.2 (72643) - https://sketchapp.com -->
    <title>icon / Environmental / Snow</title>
    <desc>Created with Sketch.</desc>
    <defs>
        <path d="M12.8252697,7.18597667 L12.8252697,12 L11.3252697,12 L11.3252697,7.11247974 L8.3252697,4.04960404 L9.39687194,3 L11.3252697,4.96881422 L11.3252697,1.5 L12.8252697,1.5 L12.8252697,5.04231114 L14.8256556,3 L15.8972579,4.04960404 L12.8252697,7.18597667 L12.8252697,7.18597667 Z M13.5392756,12 L16.6373332,13.7886644 L20.8895057,12.6964309 L21.2626883,14.1492677 L18.493802,14.8604972 L21.5615335,16.6316527 L20.8115335,17.9306908 L17.8074522,16.1962837 L18.5482965,18.8507323 L17.1035116,19.253965 L15.9509834,15.124451 L12.8252697,13.3198193 L12.8252697,16.8140233 L15.8972579,19.950396 L14.8256556,21 L12.8252697,18.9576889 L12.8252697,22.5 L11.3252697,22.5 L11.3252697,19.0311858 L9.39687194,21 L8.3252697,19.950396 L11.3252697,16.8875203 L11.3252697,13.2782569 L8.29920024,15.0253589 L7.11901595,19.253965 L5.67423106,18.8507323 L6.44273144,16.0971917 L3.375,17.8683473 L2.625,16.5693092 L5.62908123,14.8349021 L2.95983922,14.1492677 L3.33302187,12.6964309 L7.48555004,13.7630693 L10.5392756,12 L7.48555004,10.2369307 L3.33302187,11.3035691 L2.95983922,9.85073229 L5.62908123,9.16509795 L2.625,7.43069084 L3.375,6.13165273 L6.44273144,7.9028083 L5.67423106,5.14926771 L7.11901595,4.74603497 L8.29920024,8.97464107 L12.0392756,11.1339746 L15.9509834,8.87554903 L17.1035116,4.74603497 L18.5482965,5.14926771 L17.8074522,7.80371627 L20.8115335,6.06930916 L21.5615335,7.36834727 L18.493802,9.13950284 L21.2626883,9.85073229 L20.8895057,11.3035691 L16.6373332,10.2113356 L13.5392756,12 Z" id="path-1"></path>
    </defs>
    <g id="icon-/-Environmental-/-Snow" stroke="none" stroke-width="1" fill="none" fill-rule="evenodd">
        <mask id="mask-2" fill="white">
            <use xlink:href="#path-1"></use>
        </mask>
        <use id="Combined-Shape" fill="#8BDD15" fill-rule="nonzero" xlink:href="#path-1"></use>
    </g>
</svg>