<?xml version="1.0" encoding="UTF-8"?>
<svg width="24px" height="24px" viewBox="0 0 24 24" version="1.1" xmlns="http://www.w3.org/2000/svg" xmlns:xlink="http://www.w3.org/1999/xlink">
    <title>icon / Shapes / SphereShape</title>
    <defs>
        <path d="M11.599639,2.22133417 C16.8925223,2.22133417 21.1832521,6.51206388 21.1832521,11.8049472 C21.1832521,17.0978305 16.8925223,21.3885603 11.599639,21.3885603 C6.30675568,21.3885603 2.01602597,17.0978305 2.01602597,11.8049472 C2.01602597,6.51206388 6.30675568,2.22133417 11.599639,2.22133417 Z M8.6967871,16.8871886 L8.66234389,16.892237 C7.69476761,17.0321963 6.70243947,17.0865596 5.70385017,17.0464285 C7.13474778,18.6557001 9.21493462,19.6749193 11.5335338,19.6939486 C10.3681392,19.0247825 9.41902018,18.0560587 8.6967871,16.8871886 Z M16.3803844,13.4024413 L16.2205781,13.5462843 C14.4749303,15.0863329 12.1516087,16.2037087 9.60679513,16.7269998 C10.4660066,17.9997823 11.6323379,18.9716282 13.0815945,19.4706473 L13.0508027,19.56104 C14.8631196,19.2240797 16.4577279,18.2675844 17.6065968,16.9195847 C17.5391229,15.6467441 17.0997938,14.459153 16.3803844,13.4024413 Z M4.55089244,8.71301682 L4.32769491,8.74035832 C3.93014895,9.68254223 3.7103664,10.7180782 3.7103664,11.8049472 C3.7103664,13.4118939 4.1908093,14.9066272 5.01588879,16.1533407 C6.10858424,16.250401 7.19725573,16.2253866 8.25599131,16.0922114 C7.19797338,13.9656816 6.8028173,11.3243052 7.12718933,8.65784495 C6.27868031,8.59895146 5.41481845,8.61489764 4.55089244,8.71301682 Z M7.97170265,8.7407342 L7.96908288,8.75571761 C7.65122427,11.3680404 8.06697896,13.9440729 9.14201053,15.9546956 C11.7655582,15.4673614 14.1495623,14.3167975 15.8633063,12.7220347 C14.099075,10.6249469 11.1840734,9.1530305 7.97170265,8.7407342 Z M19.0747202,9.27559369 L19.0197813,9.45066002 C18.6160678,10.6806455 17.9161956,11.8073522 16.9941728,12.795164 C17.661867,13.7383461 18.1283079,14.7856156 18.3380989,15.9092002 C19.0681616,14.7142935 19.4889116,13.3087561 19.4889116,11.8049472 C19.4889116,10.920265 19.3432942,10.0695935 19.0747202,9.27559369 Z M11.599639,3.9156746 C10.7943473,3.9156746 10.0172361,4.03632958 9.28539669,4.26054824 C8.71793855,5.43280056 8.32528059,6.66556565 8.0988625,7.90309014 C11.4761013,8.34027974 14.5552881,9.88371559 16.4640854,12.1137497 C17.5517492,10.9149707 18.2797095,9.50837024 18.4967367,7.97128041 C17.1487141,5.55201293 14.5652702,3.9156746 11.599639,3.9156746 Z M8.15981264,4.70232013 C6.74509043,5.38956982 5.56638809,6.48633342 4.77834782,7.83871681 C5.60909564,7.76238032 6.43764108,7.75730494 7.25339403,7.81714795 C7.44118588,6.76504848 7.74220578,5.71657086 8.15981264,4.70232013 Z" id="path-1"></path>
    </defs>
    <g id="icon-/-Shapes-/-SphereShape" stroke="none" stroke-width="1" fill="none" fill-rule="evenodd">
        <mask id="mask-2" fill="white">
            <use xlink:href="#path-1"></use>
        </mask>
        <use id="Combined-Shape" fill="#5A69A1" fill-rule="nonzero" xlink:href="#path-1"></use>
    </g>
</svg>