<?xml version="1.0" encoding="UTF-8"?>
<svg width="24px" height="24px" viewBox="0 0 24 24" version="1.1" xmlns="http://www.w3.org/2000/svg" xmlns:xlink="http://www.w3.org/1999/xlink">
    <!-- Generator: Sketch 53.2 (72643) - https://sketchapp.com -->
    <title>icon / Shapes / Sphere Shape</title>
    <desc>Created with Sketch.</desc>
    <defs>
        <path d="M5.70310303,17.0463984 C7.13450492,18.6555386 9.21464164,19.6748229 11.5332078,19.693946 C10.3685416,19.0251893 9.4191841,18.0563156 8.69680325,16.8872148 C7.71809333,17.0309273 6.71380277,17.0870639 5.70310303,17.0463984 Z M5.01599515,16.1535014 C6.10781403,16.2503975 7.19659525,16.2254308 8.25543967,16.0922807 C7.19791948,13.9655454 6.8027839,11.3240456 7.12723346,8.65748219 C6.20550292,8.5939142 5.26590612,8.61820253 4.32776542,8.74019121 C3.93017493,9.68241979 3.7103664,10.718014 3.7103664,11.8049472 C3.7103664,13.411963 4.19085059,14.9067557 5.01599515,16.1535014 Z M16.3804664,13.4025617 C14.6180288,15.0168573 12.2300314,16.1876052 9.60666489,16.7270266 C10.4659052,17.9996977 11.6322748,18.9716065 13.0815945,19.4706473 L13.050447,19.5611061 C14.8630361,19.2241816 16.4578729,18.2675405 17.6068347,16.9193055 C17.5392977,15.6472582 17.0999682,14.4594504 16.3804664,13.4025617 Z M15.8635819,12.7217782 C14.0988211,10.6247216 11.1835422,9.15278544 7.97092624,8.74063457 C7.64964048,11.3580085 8.06487369,13.9399776 9.14186926,15.9544314 C11.7650811,15.4676334 14.1495959,14.3168807 15.8635819,12.7217782 Z M18.4966819,7.97166795 C17.1491434,5.55228488 14.5655166,3.9156746 11.599639,3.9156746 C10.7941396,3.9156746 10.0168352,4.03639184 9.28483029,4.26072179 C8.71802534,5.43256868 8.32534716,6.66532385 8.09890788,7.90284212 C11.4757802,8.3400733 14.5553738,9.88366682 16.4642928,12.1139921 C17.5517159,10.9149591 18.2795958,9.50854526 18.4966819,7.97166795 Z M19.0748808,9.27606867 C18.6816274,10.5738586 17.9599567,11.7602932 16.9947874,12.7945055 C17.6620947,13.7387522 18.1285075,14.7861345 18.3382182,15.9098391 C19.0682604,14.7139638 19.4889116,13.3085797 19.4889116,11.8049472 C19.4889116,10.9204414 19.3433522,10.0699327 19.0748808,9.27606867 Z M8.15942583,4.70325966 C6.74507624,5.38967055 5.56664524,6.4861495 4.7786764,7.83815297 C5.60845025,7.76238638 6.43728621,7.75728283 7.25332122,7.8171426 C7.44122064,6.76505023 7.74208426,5.71706199 8.15942583,4.70325966 Z M11.599639,21.3885603 C6.30675568,21.3885603 2.01602597,17.0978305 2.01602597,11.8049472 C2.01602597,6.51206388 6.30675568,2.22133417 11.599639,2.22133417 C16.8925223,2.22133417 21.1832521,6.51206388 21.1832521,11.8049472 C21.1832521,17.0978305 16.8925223,21.3885603 11.599639,21.3885603 Z" id="path-1"></path>
    </defs>
    <g id="icon-/-Shapes-/-Sphere-Shape" stroke="none" stroke-width="1" fill="none" fill-rule="evenodd">
        <mask id="mask-2" fill="white">
            <use xlink:href="#path-1"></use>
        </mask>
        <use id="Combined-Shape" fill="#5A69A1" fill-rule="nonzero" xlink:href="#path-1"></use>
    </g>
</svg>