<?xml version="1.0" encoding="UTF-8"?>
<svg width="24px" height="24px" viewBox="0 0 24 24" version="1.1" xmlns="http://www.w3.org/2000/svg" xmlns:xlink="http://www.w3.org/1999/xlink">
    <!-- Generator: Sketch 53.2 (72643) - https://sketchapp.com -->
    <title>icon / Shapes / Spline Shape</title>
    <desc>Created with Sketch.</desc>
    <defs>
        <path d="M5.13943344,17.5004125 C6.39489733,17.8741027 7.31038697,19.0371324 7.31038697,20.4139862 C7.31038697,22.0926395 5.94956953,23.453457 4.27091614,23.453457 C2.59226276,23.453457 1.23144531,22.0926395 1.23144531,20.4139862 C1.23144531,18.9902587 2.21032996,17.795162 3.53178144,17.4650139 C3.57148415,16.2680462 3.71630406,15.1230421 3.85473205,13.8672417 C4.10234921,11.6208915 4.38904544,10.2370145 4.85166509,9.34929711 C4.70752953,8.99556773 4.62810907,8.60858335 4.62810907,8.20304933 C4.62810907,6.52439595 5.98892651,5.1635785 7.6675799,5.1635785 C9.34623329,5.1635785 10.7070507,6.52439595 10.7070507,8.20304933 C10.7070507,8.50815126 10.6620968,8.80275364 10.5784511,9.08059424 C11.172912,9.96652346 11.7928735,11.005986 11.8852981,11.170231 C12.3649508,12.0212353 12.769613,12.6741735 13.1342386,13.1590806 C13.6818026,12.6260707 14.4296351,12.2977708 15.2541461,12.2977708 C15.8588524,12.2977708 16.4223138,12.4743611 16.8957745,12.7787858 C17.2514908,12.2198967 17.5845134,11.5193172 17.88623,10.6937436 C18.2111061,9.80479995 18.474141,8.8439932 18.6786817,7.88204841 C18.7222342,7.67722339 18.7952673,7.27515153 18.8476576,6.9781575 C17.6526739,6.56883185 16.7936169,5.43573261 16.7936169,4.10198987 C16.7936169,2.42333649 18.1544344,1.06251904 19.8330878,1.06251904 C21.5117412,1.06251904 22.8725586,2.42333649 22.8725586,4.10198987 C22.8725586,5.58253716 21.8139818,6.81584058 20.4124118,7.08631659 C20.3568308,7.40953116 20.2481054,8.02034212 20.1899435,8.29387465 C19.9672422,9.34122782 19.6802023,10.389719 19.3197091,11.3761202 C18.8567021,12.6430255 18.5611738,13.3268479 18.0498533,14.1426079 C18.2067559,14.5093187 18.2936169,14.9131364 18.2936169,15.3372417 C18.2936169,17.0158951 16.9327995,18.3767125 15.2541461,18.3767125 C13.5754927,18.3767125 12.2146753,17.0158951 12.2146753,15.3372417 C12.2146753,15.0998465 12.2418911,14.868808 12.2933728,14.6470759 C11.6876482,13.972317 11.0815286,13.0229448 10.3752157,11.7697978 C10.2814693,11.6032059 9.94032389,11.0142439 9.64062704,10.5151522 C9.10966996,10.9686808 8.42060423,11.2425202 7.6675799,11.2425202 C7.06303914,11.2425202 6.49972066,11.0660266 6.02634033,10.7617552 C5.67490136,12.0644704 5.4456334,13.2016126 5.33853647,14.1731818 C5.2183431,15.2635602 5.15703781,16.3974132 5.13943344,17.5004125 L5.13943344,17.5004125 Z M19.8330878,5.6414607 C20.683314,5.6414607 21.3725586,4.95221614 21.3725586,4.10198987 C21.3725586,3.25176361 20.683314,2.56251904 19.8330878,2.56251904 C18.9828615,2.56251904 18.2936169,3.25176361 18.2936169,4.10198987 C18.2936169,4.95221614 18.9828615,5.6414607 19.8330878,5.6414607 Z M7.6675799,9.74252016 C8.51780616,9.74252016 9.20705073,9.0532756 9.20705073,8.20304933 C9.20705073,7.35282307 8.51780616,6.6635785 7.6675799,6.6635785 C6.81735364,6.6635785 6.12810907,7.35282307 6.12810907,8.20304933 C6.12810907,9.0532756 6.81735364,9.74252016 7.6675799,9.74252016 Z M15.2541461,16.8767125 C16.1043724,16.8767125 16.7936169,16.1874679 16.7936169,15.3372417 C16.7936169,14.4870154 16.1043724,13.7977708 15.2541461,13.7977708 C14.4039198,13.7977708 13.7146753,14.4870154 13.7146753,15.3372417 C13.7146753,16.1874679 14.4039198,16.8767125 15.2541461,16.8767125 Z M4.27091614,21.953457 C5.12114241,21.953457 5.81038697,21.2642124 5.81038697,20.4139862 C5.81038697,19.5637599 5.12114241,18.8745153 4.27091614,18.8745153 C3.42068988,18.8745153 2.73144531,19.5637599 2.73144531,20.4139862 C2.73144531,21.2642124 3.42068988,21.953457 4.27091614,21.953457 Z" id="path-1"></path>
    </defs>
    <g id="icon-/-Shapes-/-Spline-Shape" stroke="none" stroke-width="1" fill="none" fill-rule="evenodd">
        <mask id="mask-2" fill="white">
            <use xlink:href="#path-1"></use>
        </mask>
        <use id="Shape" fill="#5A69A1" fill-rule="nonzero" xlink:href="#path-1"></use>
    </g>
</svg>