<?xml version="1.0" encoding="UTF-8"?>
<svg width="24px" height="24px" viewBox="0 0 24 24" version="1.1" xmlns="http://www.w3.org/2000/svg" xmlns:xlink="http://www.w3.org/1999/xlink">
    <title>icon / Physics / PhysX / Physics</title>
    <defs>
        <path d="M17.2581434,9.0146003 C17.5128802,8.32065986 17.7350344,7.64515979 17.8860993,7.02109867 C18.398535,4.87716241 18.1971152,3.47666443 17.3045489,2.97100993 C17.0873315,2.84678004 16.8385188,2.78272399 16.5650223,2.78272399 C15.3890859,2.78272399 13.7214483,4.00755313 12.0004937,6.00978967 C11.7023134,5.66427527 11.4080824,5.35078889 11.1148389,5.05380179 C11.2214729,4.85678094 11.2965117,4.64131971 11.2965117,4.40256538 C11.2965117,3.62224634 10.6517708,2.98945031 9.85793971,2.98945031 C9.52224,2.98945031 9.22800909,3.11950348 8.98413313,3.30681887 C8.41146894,2.97295102 7.88619764,2.78272399 7.43497775,2.78272399 C7.16246858,2.78272399 6.91266851,2.84678004 6.69643841,2.97100993 C5.80288479,3.47666443 5.60146497,4.87716241 6.1158754,7.02109867 C6.26595291,7.64515979 6.48810712,8.32065986 6.74383131,9.0146003 C3.70969843,9.54548899 1.39238314,10.5558275 1.39238314,12.0029116 C1.39238314,13.4470842 3.70871107,14.454511 6.73889455,14.9853997 C6.54537354,15.5104651 6.38246045,16.0229135 6.24719322,16.5130392 C5.54024915,16.6052411 4.98634464,17.1768927 4.98634464,17.8941263 C4.98634464,18.4725717 5.34376609,18.9714324 5.8542271,19.1907758 C5.88680972,20.058444 6.1405592,20.7184153 6.69643841,21.0338428 C6.91266851,21.1561316 7.16049388,21.217276 7.4339904,21.217276 C8.60696464,21.217276 10.276577,19.9934174 12.0004937,17.9882692 C13.723423,19.9934174 15.3930354,21.217276 16.566997,21.217276 C16.8395061,21.217276 17.0873315,21.1561316 17.3045489,21.0328723 C18.5772457,20.3088449 18.308686,17.8310408 17.2620928,14.9853997 C17.8624029,14.8815513 18.4330923,14.7582919 18.9652751,14.6156217 C19.2249487,14.9756942 19.6317377,15.2290068 20.1185023,15.2290068 C20.9123334,15.2290068 21.5600363,14.5932991 21.5600363,13.8120095 C21.5600363,13.727572 21.5235043,13.6538105 21.5116561,13.5751963 C22.1958911,13.1277745 22.6076169,12.6046502 22.6076169,12.0029116 C22.6076169,10.5558275 20.2893142,9.54743009 17.2581434,9.0146003 L17.2581434,9.0146003 Z M16.5650223,3.59312996 C16.6953527,3.59312996 16.8019867,3.61836416 16.8938105,3.67174419 C17.2966501,3.89982252 17.5592858,4.85095767 17.0833821,6.83572437 C16.9293552,7.47240259 16.6973274,8.16828412 16.4287677,8.88357658 C15.638886,8.77002269 14.8174091,8.68655572 13.9791472,8.63802842 C13.5002815,7.92176542 13.0154916,7.27538174 12.5297144,6.66587881 C14.1963647,4.70246412 15.7139248,3.59312996 16.5650223,3.59312996 L16.5650223,3.59312996 Z M8.53390059,12.8841675 C8.68397811,13.1607731 8.82319475,13.4344671 8.98610784,13.7110727 C9.14803357,13.9876783 9.31884548,14.242932 9.48570798,14.5098321 C8.91995525,14.4671281 8.37000015,14.4156892 7.86348854,14.3487215 C8.0579969,13.8818888 8.28903728,13.3888514 8.53390059,12.8841675 L8.53390059,12.8841675 Z M8.52698913,11.0964216 C8.28903728,10.6062958 8.06688307,10.1239345 7.86941266,9.65127852 C8.37296221,9.5813992 8.92390466,9.53384244 9.48373327,9.49016787 C9.31884548,9.75609749 9.14803357,10.0113511 8.98610784,10.2898978 C8.82911886,10.5558275 8.67706664,10.8246687 8.52698913,11.0964216 L8.52698913,11.0964216 Z M8.98610784,12.0029116 C9.21319881,11.5739303 9.43436567,11.1459195 9.69996338,10.6946155 C9.95963697,10.2520465 10.2222726,9.84150555 10.4858956,9.43581729 C10.9815463,9.41349473 11.4692983,9.38923108 12.0004937,9.38923108 C12.5316891,9.38923108 13.0184537,9.41349473 13.5141044,9.43581729 C13.7777274,9.84150555 14.0413504,10.2520465 14.301024,10.6946155 C14.5666217,11.1459195 14.7877885,11.5739303 15.0158669,12.0029116 C14.7868012,12.4367457 14.5567482,12.8705798 14.301024,13.306355 C14.0383883,13.7508651 13.773778,14.1575239 13.5062056,14.5651533 C13.0154916,14.5865053 12.528727,14.6117395 12.0004937,14.6117395 C11.4722603,14.6117395 10.9854958,14.5865053 10.4947818,14.5651533 C10.2272094,14.1575239 9.95963697,13.748924 9.69996338,13.306355 C9.44423919,12.8705798 9.21517351,12.4367457 8.98610784,12.0029116 L8.98610784,12.0029116 Z M15.0158669,13.7110727 C15.1768053,13.4344671 15.3140472,13.1607731 15.4690615,12.8841675 C15.7139248,13.3888514 15.9449652,13.8818888 16.1365115,14.3487215 C15.6309872,14.4156892 15.0810321,14.4671281 14.5152794,14.5098321 C14.6821419,14.242932 14.8529538,13.9876783 15.0158669,13.7110727 L15.0158669,13.7110727 Z M15.0158669,10.2898978 C14.8529538,10.0113511 14.6821419,9.75609749 14.5162667,9.49016787 C15.0770827,9.53384244 15.6270378,9.5813992 16.1305873,9.65127852 C15.9321296,10.1239345 15.7119501,10.6062958 15.4720235,11.0964216 C15.3249081,10.8246687 15.1708811,10.5558275 15.0158669,10.2898978 L15.0158669,10.2898978 Z M12.9414402,8.59144221 C12.6284496,8.5827073 12.3144716,8.57882511 12.0004937,8.57882511 C11.6865157,8.57882511 11.3715504,8.5827073 11.0595472,8.59144221 C11.3735251,8.13916774 11.6865157,7.7169802 12.0004937,7.32099741 C12.3115096,7.7169802 12.6264749,8.13916774 12.9414402,8.59144221 L12.9414402,8.59144221 Z M7.10717687,3.67174419 C7.19900061,3.61836416 7.30464728,3.59312996 7.43497775,3.59312996 C7.72032249,3.59312996 8.08959217,3.73968242 8.50526738,3.97455457 C8.45984919,4.11140156 8.4164057,4.2511602 8.4164057,4.40256538 C8.4164057,5.1867666 9.0631213,5.81859209 9.85793971,5.81859209 C10.1047777,5.81859209 10.3269319,5.73997786 10.5313138,5.63224725 C10.8364056,5.94379254 11.1513709,6.29027748 11.471273,6.66587881 C10.9854958,7.27538174 10.4987312,7.92176542 10.0218401,8.63802842 C9.1825909,8.68655572 8.36111398,8.77002269 7.57221969,8.88357658 C7.30365993,8.16828412 7.06965749,7.47240259 6.91661792,6.83572437 C6.44170158,4.85095767 6.70334987,3.89982252 7.10717687,3.67174419 L7.10717687,3.67174419 Z M2.21682211,12.0029116 C2.21682211,11.2546206 3.99405582,10.3161026 7.04398633,9.7900666 C7.33624254,10.5111823 7.66503078,11.2487973 8.05009808,12.0009705 C7.6749043,12.7395561 7.33624254,13.4800828 7.04102428,14.2089629 C3.99405582,13.6858385 2.21682211,12.7492616 2.21682211,12.0029116 L2.21682211,12.0029116 Z M7.10717687,20.3331085 C6.8593515,20.1904383 6.71421075,19.8148369 6.68261548,19.2606551 C7.35204018,19.1373958 7.86941266,18.5851551 7.86941266,17.8941263 C7.86941266,17.3447972 7.53864972,16.8828173 7.0755816,16.6469746 C7.20492472,16.171407 7.37277457,15.6618703 7.57518174,15.1183645 C8.36308869,15.2290068 9.1865403,15.3134443 10.0238149,15.361001 C10.4947818,16.0714408 10.9785843,16.7149128 11.4613995,17.319563 C9.53310088,19.5799648 7.80622212,20.721327 7.10717687,20.3331085 L7.10717687,20.3331085 Z M11.0625092,15.4075872 C11.3735251,15.4153516 11.6865157,15.4211749 12.0004937,15.4211749 C12.3115096,15.4211749 12.6264749,15.4153516 12.9384781,15.4075872 C12.6254875,15.855009 12.3115096,16.2849609 12.0004937,16.6770615 C11.6894778,16.2849609 11.3754998,15.855009 11.0625092,15.4075872 L11.0625092,15.4075872 Z M16.8938105,20.3331085 C16.2006893,20.732003 14.4678865,19.5857881 12.5386005,17.319563 C13.0204284,16.7149128 13.5042309,16.0724113 13.9771725,15.361001 C14.814447,15.3134443 15.6378987,15.2290068 16.4248183,15.1183645 C17.4891838,17.973711 17.551387,19.9575072 16.8938105,20.3331085 L16.8938105,20.3331085 Z M21.1492979,12.831758 C20.8886369,12.5667989 20.5252914,12.3988944 20.1185023,12.3988944 C19.3236839,12.3988944 18.678943,13.0316905 18.678943,13.8120095 C18.678943,13.821715 18.6828924,13.8285088 18.6828924,13.8382143 C18.1694693,13.9770023 17.5928557,14.1002617 16.9599631,14.2089629 C16.6637575,13.4800828 16.3260831,12.7395561 15.952864,12.0009705 C16.3359566,11.2487973 16.6637575,10.5131234 16.957001,9.7900666 C20.0059442,10.3161026 21.7841652,11.2546206 21.7841652,12.0029116 C21.7841652,12.263018 21.5600363,12.5493291 21.1492979,12.831758 L21.1492979,12.831758 Z" id="path-1"></path>
    </defs>
    <g id="icon-/-Physics-/-PhysX-/-Physics" stroke="none" stroke-width="1" fill="none" fill-rule="evenodd">
        <mask id="mask-2" fill="white">
            <use xlink:href="#path-1"></use>
        </mask>
        <use id="Imported-Layers-Copy-8" fill="#DD7F6D" transform="translate(12.000000, 12.000000) rotate(-360.000000) translate(-12.000000, -12.000000) " xlink:href="#path-1"></use>
    </g>
</svg>