<?xml version="1.0" encoding="UTF-8"?>
<svg width="24px" height="24px" viewBox="0 0 24 24" version="1.1" xmlns="http://www.w3.org/2000/svg" xmlns:xlink="http://www.w3.org/1999/xlink">
    <!-- Generator: Sketch 53.2 (72643) - https://sketchapp.com -->
    <title>icon / Rendering / Mesh</title>
    <desc>Created with Sketch.</desc>
    <defs>
        <path d="M18.3335668,6.73886165 C17.9644382,6.2548475 17.5410782,5.77470036 17.066048,5.3229573 C16.798558,5.06858032 16.5241548,4.8317302 16.2429325,4.61378551 L16.2429325,6.04615991 L17.9813669,6.90220825 L18.3335668,6.73886165 Z M15.4999286,4.09281448 C15.4745972,4.0768764 15.4492154,4.0610886 15.4237832,4.04545198 L14.0663538,3.37701998 C13.947765,3.3325955 13.8282357,3.29134878 13.707771,3.25335415 L12.0230598,4.08294784 L12.0230598,6.04615991 L13.7614942,6.90220825 L15.4999286,6.04615991 L15.4999286,4.09281448 Z M12.8358306,3.03904792 C12.4453621,2.96973131 12.0458641,2.93393664 11.6374916,2.93393664 C11.236342,2.93393664 10.8437557,2.96847631 10.4598798,3.03540137 L11.6515578,3.62221327 L12.8358306,3.03904792 Z M9.58439063,3.2479601 C9.49500411,3.27590258 9.40613174,3.30563491 9.31777559,3.33712679 L7.80318708,4.08294784 L7.80318708,6.04615991 L9.54162148,6.90220825 L11.2800559,6.04615991 L11.2800559,4.08294784 L9.58439063,3.2479601 Z M7.06018317,4.59206371 C6.76912149,4.81596664 6.48533757,5.06010484 6.20893517,5.3229573 C5.74944005,5.75992682 5.33829087,6.22347299 4.97780558,6.6913882 L5.32174877,6.90220825 L7.06018317,6.04615991 L7.06018317,4.59206371 Z M4.60965497,7.19522692 C4.582472,7.23448436 4.55665841,7.27228554 4.53222113,7.30854431 C4.63065324,7.39506 4.73307543,7.49326064 4.83771688,7.60357464 L4.83771688,7.30753027 L4.60965497,7.19522692 Z M5.41517314,8.321464 C5.71385193,8.7578028 5.96072353,9.24354894 6.14579345,9.77959983 L7.31915519,10.3573923 L9.05758958,9.501344 L9.05758958,7.53813193 L7.31915519,6.6820836 L5.41517314,7.61965171 L5.41517314,8.321464 Z M6.37362401,10.6109991 C6.47767629,11.1125433 6.53283589,11.6512652 6.53283589,12.2277275 C6.53283589,12.6012298 6.50958987,12.9549486 6.46473303,13.2892506 L7.06018317,12.9651227 L7.06018317,10.9847214 L6.37362401,10.6109991 Z M6.30688834,14.0909171 C6.11668363,14.8086623 5.81212346,15.4184294 5.41517314,15.9251462 L5.41517314,16.3301924 L7.31915519,17.2677605 L9.05758958,16.4117122 L9.05758958,14.4485001 L7.31915519,13.5924518 L6.30688834,14.0909171 Z M4.83771688,16.5369156 C4.74737728,16.6157992 4.65830445,16.6864513 4.57150773,16.7493301 C4.57558394,16.7552929 4.57969423,16.7612929 4.58383858,16.7673298 L4.83771688,16.6423138 L4.83771688,16.5369171 Z M4.89994015,17.2064353 C5.27872852,17.7089449 5.71601402,18.2082858 6.20893517,18.6770427 C6.48533757,18.9398952 6.76912149,19.1840334 7.06018317,19.4079363 L7.06018317,17.9036842 L5.32174877,17.0476359 L4.89994007,17.2064354 Z M10.3852979,20.9511687 C10.7928673,21.0268981 11.2103244,21.0660634 11.6374916,21.0660634 C12.071781,21.0660634 12.4960338,21.0255812 12.9100635,20.9473503 L11.6515578,20.3276308 L10.3852979,20.9511687 Z M16.2429325,19.3862145 C16.5241548,19.1682698 16.798558,18.9314197 17.066048,18.6770427 C17.5715354,18.1963356 18.0185143,17.6834653 18.4038987,17.1679977 L17.9813669,17.0476359 L16.2429325,17.9036842 L16.2429325,19.3862145 Z M18.6982457,16.7569734 C18.7062979,16.7452156 18.714219,16.7336003 18.7220089,16.7221301 C18.5679461,16.6015697 18.40532,16.4558384 18.2403389,16.2830244 L18.2403389,16.5314887 L18.6982457,16.7569734 Z M17.6628826,15.559316 C17.39823,15.1587023 17.1839576,14.7118553 17.0289358,14.2178487 L15.7589006,13.5924518 L14.0204662,14.4485001 L14.0204662,16.4117122 L15.7589006,17.2677605 L17.6628826,16.3301924 L17.6628826,15.559316 Z M16.8214046,13.3149768 C16.7692815,12.9730662 16.7421473,12.6126407 16.7421473,12.2334762 C16.7421473,11.6458557 16.8070903,11.0917533 16.9287509,10.5713891 L16.2429325,10.9769409 L16.2429325,12.9729032 L16.8214046,13.3149768 Z M17.2203571,9.6377348 C17.3459332,9.32027745 17.4942438,9.01774792 17.6628826,8.73021056 L17.6628826,7.61965171 L15.7589006,6.6820836 L14.0204662,7.53813193 L14.0204662,9.501344 L15.7589006,10.3573923 L17.2203571,9.6377348 Z M18.2403389,7.89563279 C18.4197214,7.67341906 18.5952104,7.48552817 18.7579794,7.3311885 C18.7312093,7.29123658 18.7027046,7.24932007 18.6724752,7.20556068 L18.2403389,7.41835536 L18.2403389,7.89563279 Z M18.2352186,14.168181 L18.2403389,14.1707023 L18.2403389,14.1811069 C18.3999778,14.5822009 18.6109571,14.9356416 18.864027,15.2455198 C19.2168449,15.6775371 19.561386,15.9291033 19.7650812,16.0274849 L20.3164873,16.2938055 L20.0183078,16.8286553 C19.9190809,17.0066403 19.7321984,17.3041861 19.4594847,17.6818096 C19.008426,18.3063854 18.4756091,18.9303437 17.8619233,19.513945 C16.0886658,21.200273 14.0067933,22.2209759 11.6374916,22.2209759 C9.26818991,22.2209759 7.18631733,21.200273 5.41305989,19.513945 C4.79937413,18.9303437 4.26655723,18.3063854 3.81549852,17.6818096 C3.54278482,17.3041861 3.3559023,17.0066403 3.25667543,16.8286553 L2.93144984,16.2452925 L3.55568048,16.0077637 C3.74542684,15.9355625 4.0761493,15.7221825 4.41852755,15.3200416 C5.01460546,14.6199173 5.37792336,13.616206 5.37792336,12.2277275 C5.37792336,10.8271229 5.00616719,9.72293824 4.39037167,8.87184037 C4.0298524,8.37356265 3.67831059,8.07378427 3.46832347,7.95029628 L2.9818878,7.66423605 L3.25667543,7.1713447 C3.3559023,6.99335974 3.54278482,6.69581389 3.81549852,6.31819039 C4.26655723,5.69361462 4.79937413,5.06965634 5.41305989,4.48605498 C7.18631733,2.79972705 9.26818991,1.77902411 11.6374916,1.77902411 C14.0067933,1.77902411 16.0886658,2.79972705 17.8619233,4.48605498 C18.4756091,5.06965634 19.008426,5.69361462 19.4594847,6.31819039 C19.7321984,6.69581389 19.9190809,6.99335974 20.0183078,7.1713447 L20.2728714,7.62795986 L19.8437441,7.92653956 C19.7976997,7.95857651 19.6998319,8.03703817 19.5672353,8.16206989 C19.3379991,8.37822758 19.1070197,8.64170092 18.8907832,8.95249242 C18.2696785,9.84519122 17.8970598,10.9333346 17.8970598,12.2334762 C17.8970598,12.9751759 18.0177388,13.6165574 18.2352186,14.168181 Z M15.4999286,17.9036842 L13.7614942,17.0476359 L12.0230598,17.9036842 L12.0230598,19.8668963 L13.7614942,20.7229446 L15.4999286,19.8668963 L15.4999286,17.9036842 Z M11.2800559,19.8668963 L11.2800559,17.9036842 L9.54162148,17.0476359 L7.80318708,17.9036842 L7.80318708,19.8668963 L9.54162148,20.7229446 L11.2800559,19.8668963 Z M13.2774623,14.4485001 L11.5390279,13.5924518 L9.8005935,14.4485001 L9.8005935,16.4117122 L11.5390279,17.2677605 L13.2774623,16.4117122 L13.2774623,14.4485001 Z M13.2774623,9.501344 L13.2774623,7.53813193 L11.5390279,6.6820836 L9.8005935,7.53813193 L9.8005935,9.501344 L11.5390279,10.3573923 L13.2774623,9.501344 Z M15.4999286,10.993316 L13.7614942,10.1372677 L12.0230598,10.993316 L12.0230598,12.9565281 L13.7614942,13.8125764 L15.4999286,12.9565281 L15.4999286,10.993316 Z M11.2800559,12.9565281 L11.2800559,10.993316 L9.54162148,10.1372677 L7.80318708,10.993316 L7.80318708,12.9565281 L9.54162148,13.8125764 L11.2800559,12.9565281 Z" id="path-1"></path>
    </defs>
    <g id="icon-/-Rendering-/-Mesh" stroke="none" stroke-width="1" fill="none" fill-rule="evenodd">
        <mask id="mask-2" fill="white">
            <use xlink:href="#path-1"></use>
        </mask>
        <use id="Combined-Shape" fill="#B29EDF" fill-rule="nonzero" xlink:href="#path-1"></use>
    </g>
</svg>