<?xml version="1.0" encoding="UTF-8"?>
<svg width="24px" height="24px" viewBox="0 0 24 24" version="1.1" xmlns="http://www.w3.org/2000/svg" xmlns:xlink="http://www.w3.org/1999/xlink">
    <!-- Generator: Sketch 53.2 (72643) - https://sketchapp.com -->
    <title>icon / Shapes / Tube Shape</title>
    <desc>Created with Sketch.</desc>
    <defs>
        <path d="M10.1781802,7.93073964 L5.28680804,7.93073964 C4.68484467,7.93073964 4.10047782,8.59720404 3.72130603,9.64798692 L9.37381828,9.64798692 C9.57281877,8.97779752 9.84623869,8.39194211 10.1781802,7.93073964 L10.1781802,7.93073964 Z M12,7.93073964 C11.3980364,7.93073964 10.8136695,8.59720404 10.4344977,9.64798692 L16.08701,9.64798692 C16.2860105,8.97779752 16.5594304,8.39194211 16.8913719,7.93073964 L11.9999997,7.93073964 L12,7.93073964 Z M10.1781802,16.7145504 C9.81241599,16.2063544 9.5177069,15.5468086 9.31532243,14.7898551 L3.65073953,14.7898551 C4.02537972,15.9595973 4.64612743,16.7145504 5.28680828,16.7145504 L10.1781802,16.7145504 L10.1781802,16.7145504 Z M12,16.7145504 L16.8913719,16.7145504 C16.5256077,16.2063544 16.2308986,15.5468086 16.0285141,14.7898551 L10.3639313,14.7898551 C10.7385714,15.9595973 11.3593191,16.7145504 12,16.7145504 Z M9.0971436,13.6918788 C9.03763115,13.2529364 9.00632989,12.7939129 9.00632989,12.322645 C9.00632989,11.7765811 9.04835542,11.2469565 9.12759923,10.7459633 L3.43004281,10.7459633 C3.34093831,11.2330699 3.29102821,11.7640026 3.29102821,12.322645 C3.29102821,12.8029542 3.32792277,13.2627798 3.39490136,13.6918788 L9.0971436,13.6918788 L9.0971436,13.6918788 Z M10.1080931,13.6918788 L15.8103353,13.6918788 C15.7508229,13.2529364 15.7195216,12.7939129 15.7195216,12.322645 C15.7195216,11.7765811 15.7615471,11.2469565 15.8407909,10.7459633 L10.1432345,10.7459633 C10.05413,11.2330699 10.0042199,11.7640026 10.0042199,12.322645 C10.0042199,12.8029542 10.0411145,13.2627798 10.1080931,13.6918788 L10.1080931,13.6918788 Z M4.78786327,6.90400294 L19.2121367,6.90400294 C20.682433,7.33128057 21.7068618,9.62659575 21.7068618,12.322645 C21.7068618,15.2360187 20.5106213,17.6814493 18.8481934,17.8074312 L18.8481934,17.8125268 L4.78786327,17.7412871 C3.31756701,17.3140095 2.29313818,15.0186943 2.29313818,12.322645 C2.29313818,9.62659575 3.31756701,7.33128057 4.78786327,6.90400294 Z M18.7131917,16.7145504 C19.736508,16.7145504 20.7089718,14.7885506 20.7089718,12.322645 C20.7089718,9.85673945 19.736508,7.93073964 18.7131917,7.93073964 C17.6898754,7.93073964 16.7174116,9.85673945 16.7174116,12.322645 C16.7174116,14.7885506 17.6898754,16.7145504 18.7131917,16.7145504 Z" id="path-1"></path>
    </defs>
    <g id="icon-/-Shapes-/-Tube-Shape" stroke="none" stroke-width="1" fill="none" fill-rule="evenodd">
        <mask id="mask-2" fill="white">
            <use xlink:href="#path-1"></use>
        </mask>
        <use id="Shape" fill="#5A69A1" fill-rule="nonzero" xlink:href="#path-1"></use>
    </g>
</svg>