<?xml version="1.0" encoding="UTF-8"?>
<svg width="24px" height="24px" viewBox="0 0 24 24" version="1.1" xmlns="http://www.w3.org/2000/svg" xmlns:xlink="http://www.w3.org/1999/xlink">
    <!-- Generator: Sketch 53.2 (72643) - https://sketchapp.com -->
    <title>icon / UI / UI Canvas on Mesh</title>
    <desc>Created with Sketch.</desc>
    <defs>
        <path d="M8.96762013,14.6957827 L14.7960146,14.6957827 C14.9439007,14.6957827 15.0652597,14.7243614 15.1102889,14.8083267 L16.2651395,16.9617574 C16.306698,17.0392509 16.2856955,17.1886928 16.1143084,17.2581838 C15.9429212,17.3276747 15.7627306,17.2501379 15.7219987,17.1741857 L14.6939169,15.2571387 L9.06971789,15.2571387 L8.04163613,17.1741857 C8.00090418,17.2501379 7.81228528,17.3276747 7.64089817,17.2581838 C7.46951106,17.1886928 7.4569368,17.0392509 7.49849531,16.9617574 L8.65334591,14.8083267 C8.70811089,14.7361015 8.79683596,14.6957827 8.96762013,14.6957827 Z M11.6011394,6.32752295 C11.6011394,6.17144365 11.7313367,6.04491638 11.8818174,6.04491638 C12.0368316,6.04491638 12.1624954,6.16910872 12.1624954,6.32752295 L12.1624954,6.93809269 L11.6011394,6.93809269 L11.6011394,6.32752295 Z M8.96960264,16.1078171 C8.96960264,15.952803 9.09833117,15.8271391 9.25044064,15.8271391 L14.5551048,15.8271391 C14.7102073,15.8271391 14.8359428,15.9573364 14.8359428,16.1078171 C14.8359428,16.2628313 14.7072142,16.3884951 14.5551048,16.3884951 L9.25044064,16.3884951 C9.0953381,16.3884951 8.96960264,16.2582978 8.96960264,16.1078171 Z M8.33190933,7.20823716 L15.5219129,7.20823716 C16.0741976,7.20823716 16.5219129,7.65595241 16.5219129,8.20823716 L16.5219129,13.1370358 C16.5219129,13.6893206 16.0741976,14.1370358 15.5219129,14.1370358 L8.33190933,14.1370358 C7.77962458,14.1370358 7.33190933,13.6893206 7.33190933,13.1370358 L7.33190933,8.20823716 C7.33190933,7.65595241 7.77962458,7.20823716 8.33190933,7.20823716 Z M11.9269111,2.35934119 L3.83694144,7.13131095 L3.83694144,16.6964071 L11.9269111,21.4683769 L20.0168807,16.6964071 L20.0168807,7.13131095 L11.9269111,2.35934119 Z M21.147179,6.48574709 L21.147179,17.341971 L11.9269111,22.7806613 L2.70664322,17.341971 L2.70664322,6.48574709 L11.9269111,1.04705679 L21.147179,6.48574709 Z" id="path-1"></path>
    </defs>
    <g id="icon-/-UI-/-UI-Canvas-on-Mesh" stroke="none" stroke-width="1" fill="none" fill-rule="evenodd">
        <mask id="mask-2" fill="white">
            <use xlink:href="#path-1"></use>
        </mask>
        <use id="Combined-Shape" fill="#BD5F8B" xlink:href="#path-1"></use>
    </g>
</svg>