<?xml version="1.0" encoding="UTF-8"?>
<svg width="24px" height="24px" viewBox="0 0 24 24" version="1.1" xmlns="http://www.w3.org/2000/svg" xmlns:xlink="http://www.w3.org/1999/xlink">
    <title>icon / UI / UI CanvasProxyRef</title>
    <defs>
        <path d="M20.2187493,13.4748383 C20.4158221,13.4748383 20.577545,13.5129223 20.6375509,13.6248143 L22.176504,16.4944746 C22.2318848,16.5977423 22.2038969,16.7968885 21.9755065,16.8894921 C21.7471162,16.9820957 21.5069943,16.8787702 21.4527149,16.7775564 L20.0826939,14.2229009 L16.7089653,14.2227 L16.7089653,13.4747 L20.2187493,13.4748383 Z M19.897713,14.982483 C20.1044025,14.982483 20.2719575,15.1559839 20.2719575,15.3565143 C20.2719575,15.5630861 20.1004139,15.7305457 19.897713,15.7305457 L16.7089653,15.7297 L16.7089653,14.9817 L19.897713,14.982483 Z M21.51868,3.49694043 C22.0709648,3.49694043 22.51868,3.94465568 22.51868,4.49694043 L22.51868,11.7302526 C22.51868,12.2825373 22.0709648,12.7302526 21.51868,12.7302526 L16.7089653,12.7297 L16.7093234,8.06897608 C16.7093234,7.01461429 15.8934456,6.15081096 14.8585858,6.07446182 L14.7093234,6.06897608 L10.2719653,6.0687 L10.2720879,4.49694043 C10.2720879,3.94465568 10.7198031,3.49694043 11.2720879,3.49694043 L21.51868,3.49694043 Z M16.3352921,1.9467 C16.5418639,1.9467 16.7093234,2.11219862 16.7093234,2.32330131 L16.7093234,3.13694611 L15.9612608,3.13694611 L15.9612608,2.32330131 C15.9612608,2.11531015 16.1347616,1.9467 16.3352921,1.9467 Z" id="path-1"></path>
    </defs>
    <g id="icon-/-UI-/-UI-CanvasProxyRef" stroke="none" stroke-width="1" fill="none" fill-rule="evenodd">
        <path d="M12.7084595,17.9100205 C12.9055323,17.9100205 13.0672552,17.9481045 13.1272611,18.0599965 L14.6662142,20.9296568 C14.721595,21.0329245 14.6936071,21.2320707 14.4652168,21.3246743 C14.2368264,21.4172779 13.9967045,21.3139525 13.9424251,21.2127386 L12.5724041,18.6580831 L5.07760055,18.6580831 L3.70757952,21.2127386 C3.65330017,21.3139525 3.40194675,21.4172779 3.17355641,21.3246743 C2.94516606,21.2320707 2.92840962,21.0329245 2.98379046,20.9296568 L4.52274354,18.0599965 C4.59572332,17.9637494 4.71395828,17.9100205 4.94154514,17.9100205 L12.7084595,17.9100205 Z M12.3874232,19.4176653 C12.5941127,19.4176653 12.7616677,19.5911661 12.7616677,19.7916966 C12.7616677,19.9982684 12.5901242,20.1657279 12.3874232,20.1657279 L5.31843156,20.1657279 C5.11174201,20.1657279 4.94418703,19.9922271 4.94418703,19.7916966 C4.94418703,19.5851248 5.11573058,19.4176653 5.31843156,19.4176653 L12.3874232,19.4176653 Z M3.20057791,15.258117 L3.20057791,15.8439035 C3.20057791,16.1200459 3.42443554,16.3439035 3.70057791,16.3439035 L3.70057791,16.3439035 L5.31724075,16.3439035 L5.31724075,17.3439035 L3.70057791,17.3439035 L3.5561179,17.3370369 C2.79546599,17.2643522 2.20057791,16.6235996 2.20057791,15.8439035 L2.20057791,15.8439035 L2.20057791,15.258117 L3.20057791,15.258117 Z M15.3290638,15.258117 L15.3290638,15.8439035 C15.3290638,16.6235996 14.7341757,17.2643522 13.9735238,17.3370369 L13.8290638,17.3439035 L12.2124009,17.3439035 L12.2124009,16.3439035 L13.8290638,16.3439035 C14.1052061,16.3439035 14.3290638,16.1200459 14.3290638,15.8439035 L14.3290638,15.258117 L15.3290638,15.258117 Z M11.2124009,16.3010103 L11.2124009,17.3010103 L9.21240093,17.3010103 L9.21240093,16.3010103 L11.2124009,16.3010103 Z M8.31724075,16.3010103 L8.31724075,17.3010103 L6.31724075,17.3010103 L6.31724075,16.3010103 L8.31724075,16.3010103 Z M15.44717,12.473128 L15.44717,14.473128 L14.44717,14.473128 L14.44717,12.473128 L15.44717,12.473128 Z M3.20057791,12.473128 L3.20057791,14.473128 L2.20057791,14.473128 L2.20057791,12.473128 L3.20057791,12.473128 Z M15.44717,9.83475542 L15.44717,11.8347554 L14.44717,11.8347554 L14.44717,9.83475542 L15.44717,9.83475542 Z M3.20057791,9.83475542 L3.20057791,11.8347554 L2.20057791,11.8347554 L2.20057791,9.83475542 L3.20057791,9.83475542 Z M13.94717,7.11059642 L14.0916301,7.117463 C14.852282,7.19014774 15.44717,7.8309003 15.44717,8.61059642 L15.44717,8.61059642 L15.44717,9.19638285 L14.44717,9.19638285 L14.44717,8.61059642 C14.44717,8.33445404 14.2233124,8.11059642 13.94717,8.11059642 L13.94717,8.11059642 L12.3305072,8.11059642 L12.3305072,7.11059642 L13.94717,7.11059642 Z M5.31724075,7.11059642 L5.31724075,8.11059642 L3.70057791,8.11059642 C3.42443554,8.11059642 3.20057791,8.33445404 3.20057791,8.61059642 L3.20057791,9.19638285 L2.20057791,9.19638285 L2.20057791,8.61059642 C2.20057791,7.8309003 2.79546599,7.19014774 3.5561179,7.117463 L3.70057791,7.11059642 L5.31724075,7.11059642 Z M8.31724075,7.11059642 L8.31724075,8.11059642 L6.31724075,8.11059642 L6.31724075,7.11059642 L8.31724075,7.11059642 Z M11.3305072,7.11059642 L11.3305072,8.11059642 L9.33050721,8.11059642 L9.33050721,7.11059642 L11.3305072,7.11059642 Z" id="Combined-Shape" fill="#BD5F8B"></path>
        <mask id="mask-2" fill="white">
            <use xlink:href="#path-1"></use>
        </mask>
        <use id="Combined-Shape-Copy" fill-opacity="0.75" fill="#BD5F8B" xlink:href="#path-1"></use>
    </g>
</svg>