<?xml version="1.0" encoding="UTF-8"?>
<svg width="24px" height="24px" viewBox="0 0 24 24" version="1.1" xmlns="http://www.w3.org/2000/svg" xmlns:xlink="http://www.w3.org/1999/xlink">
    <!-- Generator: Sketch 53.2 (72643) - https://sketchapp.com -->
    <title>icon / UI / UI Canvas Asset Ref</title>
    <desc>Created with Sketch.</desc>
    <defs>
        <path d="M5.91385633,16.995352 L16.2965623,16.995352 C16.5600066,16.995352 16.7761956,17.0462622 16.8564106,17.195838 L18.9136623,21.031961 C18.9876946,21.1700079 18.9502807,21.4362238 18.6449716,21.560015 C18.3396625,21.6838063 18.0186708,21.5456822 17.9461108,21.4103809 L16.1146853,17.995352 L6.09573336,17.995352 L4.2643078,21.4103809 C4.19174789,21.5456822 3.85574204,21.6838063 3.55043293,21.560015 C3.24512381,21.4362238 3.22272403,21.1700079 3.29675638,21.031961 L5.35400802,17.195838 C5.4515664,17.067176 5.6096213,16.995352 5.91385633,16.995352 Z M10.6052093,2.08812845 C10.6052093,1.81008868 10.8371429,1.58469292 11.1052093,1.58469292 C11.3813517,1.58469292 11.6052093,1.80592923 11.6052093,2.08812845 L11.6052093,3.1757978 L10.6052093,3.1757978 L10.6052093,2.08812845 Z M5.91738797,19.5107512 C5.91738797,19.2346088 6.14670507,19.0107512 6.41767299,19.0107512 L15.8674053,19.0107512 C16.1437051,19.0107512 16.3676903,19.2426848 16.3676903,19.5107512 C16.3676903,19.7868935 16.1383732,20.0107512 15.8674053,20.0107512 L6.41767299,20.0107512 C6.14137321,20.0107512 5.91738797,19.7788176 5.91738797,19.5107512 Z M4,3.65703333 L18.3710785,3.65703333 C18.9233633,3.65703333 19.3710785,4.10474858 19.3710785,4.65703333 L19.3710785,15 C19.3710785,15.5522847 18.9233633,16 18.3710785,16 L4,16 C3.44771525,16 3,15.5522847 3,15 L3,4.65703333 C3,4.10474858 3.44771525,3.65703333 4,3.65703333 Z" id="path-1"></path>
    </defs>
    <g id="icon-/-UI-/-UI-Canvas-Asset-Ref" stroke="none" stroke-width="1" fill="none" fill-rule="evenodd">
        <mask id="mask-2" fill="white">
            <use xlink:href="#path-1"></use>
        </mask>
        <use id="Combined-Shape" fill="#BD5F8B" xlink:href="#path-1"></use>
    </g>
</svg>