<?xml version="1.0" encoding="UTF-8"?>
<svg width="24px" height="24px" viewBox="0 0 24 24" version="1.1" xmlns="http://www.w3.org/2000/svg" xmlns:xlink="http://www.w3.org/1999/xlink">
    <!-- Generator: Sketch 53.2 (72643) - https://sketchapp.com -->
    <title>icon / VR / VR Preview</title>
    <desc>Created with Sketch.</desc>
    <defs>
        <path d="M3.52611385,3.71323478 C3.52611385,3.37928545 3.52973254,3.20508105 3.84387168,3.20508105 C3.94109127,3.20508105 4.1499038,3.20508105 4.47030929,3.20508105 C4.47030929,2.85310651 4.47030929,2.62412785 4.47030929,2.51814508 C4.47030929,2.22143022 4.87065672,2.28495093 5.15496619,2.28495093 C6.14768163,2.28495093 16.9678352,2.28495093 18.3385148,2.28495093 C18.6650005,2.28495093 18.8790257,2.28495093 18.8790257,2.58217943 C18.8790257,2.64640748 18.8790257,2.79000623 18.8790257,3.01297567 C19.278709,3.01297567 19.5253021,3.01297567 19.6188049,3.01297567 C19.9559661,3.01297567 19.9559661,3.2947172 19.9559661,3.60156025 C19.9559661,4.90657591 19.9559661,8.250284 19.9559661,8.9377088 C19.9559661,9.494082 19.7929935,10.114419 19.1793605,10.114419 C18.5657275,10.114419 18.5209821,10.114419 18.0079756,10.114419 C17.6643532,10.114419 17.4696665,10.9805518 17.1368059,10.9805518 C15.4113616,10.9805518 14.9323753,10.9805518 14.291725,10.9805518 C13.6510748,10.9805518 13.2578451,11.1788833 12.9040466,10.6014467 C12.5502482,10.0240101 12.5192587,9.46054823 12.1955143,9.31461529 C11.8717698,9.16868235 11.6215077,9.16868235 11.3380608,9.31461529 C11.0546139,9.46054823 10.9714044,9.82799628 10.596953,10.3502039 C10.2225017,10.8724116 10.2225017,10.9805518 9.54826979,10.9805518 C8.87403792,10.9805518 7.47967704,10.9805518 6.81741358,10.9805518 C6.18396611,10.9805518 6.359686,10.114419 5.8682708,10.114419 C5.32002907,10.114419 5.00269124,10.114419 4.47030929,10.114419 C3.74418012,10.114419 3.52611385,9.62969469 3.52611385,9.16868235 C3.52611385,8.16084854 3.52611385,4.56982928 3.52611385,3.71323478 Z M4.61268549,5.50463454 C4.61268549,6.14691948 4.63170859,7.58191213 4.63170859,8.33759815 C4.63170859,8.6832708 4.82655365,9.1234178 5.44241973,9.1234178 C5.8939592,9.1234178 6.16310911,9.1234178 6.62810005,9.1234178 C7.0448936,9.1234178 6.89366652,9.72460303 7.43092466,9.72460303 C7.99262307,9.72460303 8.7379626,9.71673753 9.30981202,9.71673753 C9.88166143,9.71673753 9.88166143,9.63565267 10.1992522,9.24409504 C10.5168429,8.85253741 10.3787418,8.98994424 10.8278223,8.46759812 C11.2769028,7.945252 12.5131865,8.0431303 12.9493111,8.46759812 C13.3854357,8.89206593 13.2501785,8.99951096 13.5502525,9.43247993 C13.8503264,9.8654489 14.1888135,9.74628199 14.7321807,9.74628199 C15.2755479,9.74628199 15.7824721,9.73364591 16.6181631,9.71673753 C16.9001242,9.71103266 17.0754943,9.14399548 17.3669374,9.14399548 C17.8020436,9.14399548 17.8399945,9.14399548 18.360447,9.14399548 C18.8808994,9.14399548 18.8875825,8.60216443 18.8875825,8.18498906 C18.8875825,7.6695496 18.8685594,6.29811272 18.8685594,5.31959614 C18.8685594,5.15492602 18.8386066,5.02584807 18.5900153,5.02584807 C18.3414239,5.02584807 17.9111425,5.02584807 17.6856414,5.02584807 C17.4500501,5.02584807 17.2188483,5.04830418 17.2188483,4.88140982 C17.2188483,4.78322441 17.2349576,4.440876 17.2289695,4.27610302 C17.2198705,4.0257283 17.2198705,4.00272595 16.879185,4.00272595 C15.6801755,4.00272595 7.57994098,4.01731774 6.7379699,4.01731774 C6.49683297,4.01731774 6.35003617,4.18487523 6.35003617,4.53388203 C6.35003617,4.74483389 6.24039468,4.99704685 6.01862979,4.99704685 C5.7968649,4.99704685 5.31005437,4.99704685 5.13266594,4.99704685 C4.68422302,4.99704685 4.61268549,5.25423528 4.61268549,5.50463454 Z M8.08202795,14.4258852 L8.99277132,15.2711402 C5.25154432,15.6794021 2.55724136,16.806685 2.55724136,17.9436548 C2.55724136,19.3676663 6.78368972,20.7764824 12,20.7764824 C17.2163103,20.7764824 21.4427586,19.3676663 21.4427586,17.9436548 C21.4427586,16.785342 18.6463522,15.6370832 14.7954437,15.2489135 L15.7077452,14.3974798 C19.6128497,14.9078542 22.3870345,16.2241752 22.3870345,17.9436548 C22.3870345,20.1702074 17.7353821,21.7207583 12,21.7207583 C6.26461793,21.7207583 1.61296549,20.1702074 1.61296549,17.9436548 C1.61296549,16.255194 4.28796226,14.9554774 8.08202795,14.4258852 Z M10.6710302,11.5763978 L12.8322063,11.5763978 L12.8322063,12.4311569 L14.850272,12.4311569 L14.850272,13.1625386 C13.1980102,14.8512889 12.2798056,15.7773227 12.095658,15.9406401 C11.8194366,16.1856162 11.4665742,16.245118 11.1852894,15.9358406 C10.9977662,15.7296556 10.1466057,14.8068236 8.631808,13.1673445 L8.631808,12.4311569 L10.6710302,12.4311569 L10.6710302,11.5763978 Z" id="path-1"></path>
    </defs>
    <g id="icon-/-VR-/-VR-Preview" stroke="none" stroke-width="1" fill="none" fill-rule="evenodd">
        <mask id="mask-2" fill="white">
            <use xlink:href="#path-1"></use>
        </mask>
        <use id="Combined-Shape" fill="#7D5BB6" fill-rule="nonzero" xlink:href="#path-1"></use>
    </g>
</svg>