<?xml version="1.0" encoding="UTF-8"?>
<svg width="24px" height="24px" viewBox="0 0 24 24" version="1.1" xmlns="http://www.w3.org/2000/svg" xmlns:xlink="http://www.w3.org/1999/xlink">
    <!-- Generator: Sketch 53.2 (72643) - https://sketchapp.com -->
    <title>icon / Environmental / Water Volume</title>
    <desc>Created with Sketch.</desc>
    <defs>
        <path d="M19.4231257,16.6288125 C18.3855007,16.6288125 17.8248757,16.3010625 17.3745007,16.0378125 C16.9927507,15.8146875 16.7167507,15.6538125 16.0338757,15.6538125 C15.2748757,15.6538125 14.8125007,15.8611875 14.2766257,16.1019375 C13.7265007,16.3486875 13.1028757,16.6288125 12.2201257,16.6288125 C11.3126257,16.6288125 10.5915007,16.3333125 9.95512573,16.0726875 C9.40650073,15.8480625 8.93250073,15.6538125 8.38800073,15.6538125 C7.85212573,15.6538125 7.44150073,15.8465625 6.96562573,16.0700625 C6.40762573,16.3318125 5.77537573,16.6288125 4.91662573,16.6288125 C3.82950073,16.6288125 2.92687573,16.3678125 2.23425073,15.8536875 C1.83975073,15.5604375 1.75762573,15.0035625 2.05050073,14.6090625 C2.34337573,14.2149375 2.89987573,14.1324375 3.29475073,14.4253125 C3.67387573,14.7069375 4.21987573,14.8498125 4.91662573,14.8498125 C5.37862573,14.8498125 5.74537573,14.6776875 6.21000073,14.4598125 C6.76500073,14.1991875 7.45537573,13.8748125 8.38800073,13.8748125 C9.28237573,13.8748125 9.99825073,14.1680625 10.6293757,14.4268125 C11.1840007,14.6536875 11.6628757,14.8498125 12.2201257,14.8498125 C12.7218757,14.8498125 13.0687507,14.6945625 13.5483757,14.4789375 C14.1480007,14.2100625 14.8942507,13.8748125 16.0338757,13.8748125 C17.1982507,13.8748125 17.7933757,14.2228125 18.2715007,14.5018125 C18.6431257,14.7189375 18.8673757,14.8498125 19.4231257,14.8498125 C20.5755007,14.8498125 20.8061257,14.6023125 20.8076257,14.5996875 C21.1121257,14.2179375 21.6723757,14.1463125 22.0560007,14.4463125 C22.4403757,14.7459375 22.5172507,15.2919375 22.2213757,15.6793125 C21.7335007,16.3183125 20.8181257,16.6288125 19.4231257,16.6288125 Z M19.4231257,13.2538125 C18.3855007,13.2538125 17.8248757,12.9260625 17.3741257,12.6628125 C16.9927507,12.4396875 16.7167507,12.2784375 16.0338757,12.2784375 C15.2748757,12.2784375 14.8125007,12.4861875 14.2766257,12.7265625 C13.7265007,12.9736875 13.1028757,13.2538125 12.2201257,13.2538125 C11.3126257,13.2538125 10.5915007,12.9583125 9.95512573,12.6976875 C9.40650073,12.4726875 8.93250073,12.2784375 8.38800073,12.2784375 C7.85212573,12.2784375 7.44150073,12.4715625 6.96600073,12.6946875 C6.40762573,12.9568125 5.77537573,13.2538125 4.91662573,13.2538125 C3.82912573,13.2538125 2.92650073,12.9928125 2.23387573,12.4783125 C1.83975073,12.1850625 1.75762573,11.6281875 2.05050073,11.2336875 C2.34337573,10.8399375 2.90025073,10.7578125 3.29475073,11.0503125 C3.67387573,11.3319375 4.21987573,11.4748125 4.91662573,11.4748125 C5.37862573,11.4748125 5.74537573,11.3026875 6.21000073,11.0844375 C6.76500073,10.8241875 7.45537573,10.4998125 8.38800073,10.4998125 C9.28237573,10.4998125 9.99825073,10.7930625 10.6293757,11.0514375 C11.1840007,11.2786875 11.6628757,11.4748125 12.2201257,11.4748125 C12.7215007,11.4748125 13.0687507,11.3191875 13.5483757,11.1039375 C14.1480007,10.8346875 14.8942507,10.4998125 16.0338757,10.4998125 C17.1982507,10.4998125 17.7933757,10.8474375 18.2718757,11.1268125 C18.6431257,11.3439375 18.8673757,11.4748125 19.4231257,11.4748125 C20.5755007,11.4748125 20.8057507,11.2269375 20.8076257,11.2243125 C21.1113757,10.8433125 21.6716257,10.7705625 22.0560007,11.0705625 C22.4403757,11.3705625 22.5172507,11.9165625 22.2213757,12.3039375 C21.7335007,12.9429375 20.8185007,13.2538125 19.4231257,13.2538125 Z M19.4231257,9.878625 C18.3855007,9.878625 17.8248757,9.550875 17.3741257,9.287625 C16.9927507,9.064875 16.7167507,8.903625 16.0338757,8.903625 C15.2748757,8.903625 14.8125007,9.111375 14.2766257,9.35175 C13.7265007,9.5985 13.1028757,9.878625 12.2201257,9.878625 C11.3126257,9.878625 10.5915007,9.583125 9.95512573,9.3225 C9.40650073,9.0975 8.93250073,8.903625 8.38800073,8.903625 C7.85212573,8.903625 7.44150073,9.096375 6.96600073,9.319875 C6.40762573,9.581625 5.77537573,9.878625 4.91662573,9.878625 C3.82912573,9.878625 2.92650073,9.617625 2.23387573,9.103125 C1.83975073,8.81025 1.75762573,8.253375 2.05050073,7.858875 C2.34337573,7.46475 2.90025073,7.382625 3.29475073,7.6755 C3.67387573,7.957125 4.21987573,8.1 4.91662573,8.1 C5.37862573,8.1 5.74537573,7.9275 6.21000073,7.709625 C6.76500073,7.449 7.45537573,7.125 8.38800073,7.125 C9.28237573,7.125 9.99825073,7.417875 10.6293757,7.676625 C11.1840007,7.903875 11.6628757,8.1 12.2201257,8.1 C12.7215007,8.1 13.0687507,7.944375 13.5483757,7.729125 C14.1480007,7.459875 14.8942507,7.125 16.0338757,7.125 C17.1982507,7.125 17.7933757,7.472625 18.2718757,7.752 C18.6431257,7.969125 18.8673757,8.1 19.4231257,8.1 C20.5755007,8.1 20.8057507,7.852125 20.8076257,7.8495 C21.1113757,7.468125 21.6716257,7.395375 22.0560007,7.69575 C22.4403757,7.99575 22.5172507,8.541375 22.2213757,8.92875 C21.7335007,9.56775 20.8185007,9.878625 19.4231257,9.878625 Z" id="path-1"></path>
    </defs>
    <g id="icon-/-Environmental-/-Water-Volume" stroke="none" stroke-width="1" fill="none" fill-rule="evenodd">
        <mask id="mask-2" fill="white">
            <use xlink:href="#path-1"></use>
        </mask>
        <use id="Combined-Shape" fill="#8BDD15" xlink:href="#path-1"></use>
    </g>
</svg>