<?xml version="1.0" encoding="UTF-8"?>
<svg width="24px" height="24px" viewBox="0 0 24 24" version="1.1" xmlns="http://www.w3.org/2000/svg" xmlns:xlink="http://www.w3.org/1999/xlink">
    <!-- Generator: Sketch 53.2 (72643) - https://sketchapp.com -->
    <title>icon / Physics / Cry / Wind Volume</title>
    <desc>Created with Sketch.</desc>
    <defs>
        <path d="M3.65853255,7.9606685 C7.75740842,7.9606685 10.1410792,7.9606685 10.8095449,7.9606685 C11.8122434,7.9606685 12.4070359,7.14306591 12.4070359,6.50100003 C12.4070359,5.85893414 12.0960054,5.34982222 11.2228104,5.34982222 C10.7330427,5.34982222 10.1991176,5.67019309 10.1991176,6.18828913 C10.1991176,6.44823752 10.1991176,6.71433614 10.1991176,6.98658499 C9.88647308,6.98658499 9.41729542,6.98658499 8.79158458,6.98658499 C8.79158458,6.66795417 8.79158458,6.64236059 8.79158458,6.18828913 C8.79158458,4.92726427 9.96433212,3.78391289 11.3698148,3.78391289 C13.4218485,3.78391289 14.1481433,5.36526368 14.1481433,6.71064776 C14.1481433,8.05603185 13.0027246,9.88694058 10.6501004,9.88694058 C9.08168429,9.88694058 6.75017915,9.88826484 3.65558499,9.89091337 L3.65853255,7.9606685 Z M2.00294756,11.0121823 C11.7278124,11.0148309 16.9244777,11.0161551 17.5929434,11.0161551 C18.5956419,11.0161551 19.1904344,10.1985525 19.1904344,9.55648666 C19.1904344,8.91442078 18.8794039,8.40530886 18.0062089,8.40530886 C17.5164412,8.40530886 16.982516,8.72567973 16.982516,9.24377577 C16.982516,9.50372416 16.982516,9.76982278 16.982516,10.0420716 C16.6698715,10.0420716 16.2006939,10.0420716 15.574983,10.0420716 C15.574983,9.7234408 15.574983,9.69784722 15.574983,9.24377577 C15.574983,7.9827509 16.7477306,6.83939952 18.1532132,6.83939952 C20.205247,6.83939952 20.9315418,8.42075031 20.9315418,9.7661344 C20.9315418,11.1115185 19.7861231,12.9424272 17.4334989,12.9424272 C15.8650828,12.9424272 10.7205831,12.9424272 2,12.9424272 L2.00294756,11.0121823 Z M5.98752294,16.2668057 L5.98457538,14.3365608 C10.4793936,14.3392093 13.5110108,14.3405336 15.0794269,14.3405336 C17.4320511,14.3405336 18.5774699,16.1714423 18.5774699,17.5168264 C18.5774699,18.8622105 17.851175,20.4435613 15.7991413,20.4435613 C14.3936586,20.4435613 13.2209111,19.3002099 13.2209111,18.039185 C13.2209111,17.5851136 13.2209111,17.55952 13.2209111,17.2408892 C13.8466219,17.2408892 14.3157996,17.2408892 14.6284441,17.2408892 C14.6284441,17.513138 14.6284441,17.7792366 14.6284441,18.039185 C14.6284441,18.5572811 15.1623692,18.877652 15.6521369,18.877652 C16.525332,18.877652 16.8363624,18.36854 16.8363624,17.7264741 C16.8363624,17.0844083 16.2415699,16.2668057 15.2388714,16.2668057 C14.5704057,16.2668057 11.4866229,16.2668057 5.98752294,16.2668057 Z" id="path-1"></path>
    </defs>
    <g id="icon-/-Physics-/-Cry-/-Wind-Volume" stroke="none" stroke-width="1" fill="none" fill-rule="evenodd">
        <mask id="mask-2" fill="white">
            <use xlink:href="#path-1"></use>
        </mask>
        <use id="Combined-Shape" fill="#DD7F6D" fill-rule="nonzero" xlink:href="#path-1"></use>
    </g>
</svg>