<svg width="24" height="24" viewBox="0 0 24 24" fill="none" xmlns="http://www.w3.org/2000/svg">
<path d="M21.4629 11.2764C20.6447 10.508 19.5748 10.0719 18.4419 10.0719C17.8965 10.0719 17.351 10.1758 16.8475 10.3834C16.5748 9.26204 15.9664 8.2237 15.1063 7.37226C13.8685 6.16779 12.6717 5.47607 10.4147 5.47607C7.92095 5.47607 6.586 6.16779 5.32725 7.37226C4.08949 8.57673 3.30673 10.1907 3.30673 11.8935C3.30673 12.1635 3.32771 12.4335 3.34869 12.7035C2.84519 12.8281 2.49509 13.0831 2.13844 13.4362C1.57201 13.9761 1.25732 14.7029 1.25732 15.4713C1.25732 17.1534 2.66292 18.5032 4.3832 18.5032L18.2741 18.524C20.7286 18.524 22.7426 16.5927 22.7426 14.2045C22.7217 13.1039 22.2811 12.0656 21.4629 11.2764ZM17.2975 16.6659L4.65419 16.6867C3.62622 16.6867 3.45969 16.0387 3.37771 15.6437C3.30673 15.3017 3.37861 14.7882 3.53455 14.5799C3.74825 14.2944 4.10093 14.1649 4.5273 14.1216C4.76182 14.0979 5.1687 14.0552 5.32721 13.8355C5.43211 13.6901 5.47406 13.5032 5.45308 13.3163C5.36917 12.901 5.32721 12.5272 5.32721 12.1119C5.32721 10.7413 5.6315 9.73925 6.63849 8.76321C7.64549 7.78717 8.98815 7.24724 10.4147 7.24724C11.8413 7.24724 12.9769 7.56395 13.9839 8.53999C14.865 9.39143 15.3895 10.4921 15.5154 11.655C15.5363 11.8627 15.6622 12.0703 15.872 12.1534C16.0608 12.2365 16.3126 12.2365 16.4804 12.1119C17.6342 11.3643 18.848 11.1981 19.876 12.1742C20.4424 12.7141 20.7426 13.4362 20.7426 14.2045C20.7426 15.9074 19.0808 16.6659 17.2975 16.6659Z" fill="white"/>
</svg>
