<?xml version="1.0" encoding="UTF-8"?>
<svg width="12px" height="13px" viewBox="0 0 12 13" version="1.1" xmlns="http://www.w3.org/2000/svg" xmlns:xlink="http://www.w3.org/1999/xlink">
    <title>Icons / Toolbar / Selection Copy 22</title>
    <g id="Page-1" stroke="none" stroke-width="1" fill="none" fill-rule="evenodd">
        <g id="Lens-Flare-Editor-Tool-Bar-Redesign" transform="translate(-141.000000, -102.000000)">
            <g id="Sub-Toolbar" transform="translate(34.000000, 95.000000)">
                <g id="Group-7" transform="translate(7.000000, 1.000000)">
                    <g id="Group" transform="translate(16.000000, 4.000000)">
                        <g transform="translate(82.000000, 0.000000)" id="Sky-Icon-/-Editor-File-/-Material-Copy">
                            <rect id="Icon-Background" x="0" y="0" width="16" height="16"></rect>
                            <path d="M12.6666667,6 L12.6666667,14.6666667 L3.33333333,14.6666667 L3.33333333,6 L12.6666667,6 Z M6.66666667,7.33333333 L5.33333333,7.33333333 L5.33333333,13.3333333 L6.66666667,13.3333333 L6.66666667,7.33333333 Z M10.6666667,7.33333333 L9.33333333,7.33333333 L9.33333333,13.3333333 L10.6666667,13.3333333 L10.6666667,7.33333333 Z" id="Combined-Shape" fill="#FFFFFF"></path>
                            <path d="M5.33333333,2 L10.6666667,2 L10.6666667,3.33333333 L14,3.33333333 L14,4.66666667 L2,4.66666667 L2,3.33333333 L5.33333333,3.33333333 L5.33333333,2 Z" id="Combined-Shape" fill="#FFFFFF"></path>
                        </g>
                    </g>
                </g>
            </g>
        </g>
    </g>
</svg>
