<?xml version="1.0" encoding="utf-8"?>
<!-- Generator: Adobe Illustrator 24.2.1, SVG Export Plug-In . SVG Version: 6.00 Build 0)  -->
<svg version="1.1" id="Layer_1" xmlns="http://www.w3.org/2000/svg" xmlns:xlink="http://www.w3.org/1999/xlink" x="0px" y="0px"
	 viewBox="0 0 12 12" style="enable-background:new 0 0 12 12;" xml:space="preserve">
<style type="text/css">
	.st0{fill-rule:evenodd;clip-rule:evenodd;fill:#FFFFFF;}
</style>
<path class="st0" d="M6,10c-2.2,0-4-1.8-4-4s1.8-4,4-4c1,0,1.9,0.4,2.5,0.9L6.2,3.6L10,5.3L12,2l-2,0.5c-1-1.1-2.4-1.9-4-1.9
	C3.1,0.7,0.7,3.1,0.7,6s2.4,5.3,5.3,5.3c2,0,3.8-1.2,4.7-2.8c-0.4-0.2-0.8-0.4-1.2-0.6C8.9,9.1,7.5,10,6,10z"/>
</svg>
