<?xml version="1.0" encoding="utf-8"?>
<!-- Generator: Adobe Illustrator 24.2.1, SVG Export Plug-In . SVG Version: 6.00 Build 0)  -->
<svg version="1.1" id="Layer_1" xmlns="http://www.w3.org/2000/svg" xmlns:xlink="http://www.w3.org/1999/xlink" x="0px" y="0px"
	 viewBox="0 0 12 12" style="enable-background:new 0 0 12 12;" xml:space="preserve">
<style type="text/css">
	.st0{fill-rule:evenodd;clip-rule:evenodd;fill:#FFFFFF;}
</style>
<path class="st0" d="M3.2,7.9C2.8,8.1,2.4,8.3,2,8.5c0.9,1.6,2.7,2.8,4.7,2.8C9.6,11.3,12,8.9,12,6S9.6,0.7,6.7,0.6
	c-1.6,0-3,0.8-4,1.9L0.7,2l2,3.3l3.8-1.7L4.2,2.9C4.8,2.4,5.7,2,6.7,2c2.2,0,4,1.8,4,4s-1.8,4-4,4C5.2,10,3.8,9.1,3.2,7.9z"/>
</svg>
