<?xml version="1.0" encoding="UTF-8"?>
<svg width="14px" height="12px" viewBox="0 0 14 12" version="1.1" xmlns="http://www.w3.org/2000/svg" xmlns:xlink="http://www.w3.org/1999/xlink">
    <title>Icons / Toolbar / Selection Copy 12</title>
    <g id="Page-1" stroke="none" stroke-width="1" fill="none" fill-rule="evenodd">
        <g id="Lens-Flare-Editor-Tool-Bar-Redesign" transform="translate(-58.000000, -102.000000)">
            <g id="Sub-Toolbar" transform="translate(34.000000, 95.000000)">
                <g id="Group-7" transform="translate(7.000000, 1.000000)">
                    <g id="Sky-Icon-/-Editor-File-/-Material-Copy" transform="translate(16.000000, 4.000000)">
                        <rect id="Icon-Background" x="0" y="0" width="16" height="16"></rect>
                        <path d="M4.12164343,13.3333335 C3.56935868,13.3333335 3.12164343,12.8856182 3.12164343,12.3333335 C3.12164343,12.2233972 3.13977159,12.1142132 3.17529838,12.0101755 L4.76887194,7.34350885 C4.9070995,6.93871931 5.28747708,6.6666668 5.71521699,6.6666668 L13.5456211,6.6666668 C14.0979058,6.6666668 14.5456211,7.11438205 14.5456211,7.6666668 C14.5456211,7.76852071 14.5300603,7.86977684 14.4994772,7.96693082 L13.0304589,12.6335975 C12.899359,13.0500658 12.5132183,13.3333335 12.0766028,13.3333335 L4.12164343,13.3333335 Z M6.11977839,2.66666667 C6.45472994,2.66666667 6.76743744,2.83436246 6.95276423,3.11337236 L7.32802442,3.67832744 C7.39409962,3.77780381 7.42924829,3.88881044 7.4357579,4.00000962 L11.6666667,4.00000014 C12.2189514,4.00000014 12.6666667,4.44771539 12.6666667,5.00000014 L12.6663333,5.33266667 L4.72730007,5.33333333 C4.33626883,5.33333333 3.98506297,5.56065359 3.82199829,5.90848473 L3.77887144,6.01634259 L1.7735076,12.0163426 C1.73935123,12.1185376 1.72193623,12.2255814 1.72193623,12.3333333 C1.72193623,12.8461692 2.10797642,13.2688405 2.60531511,13.3266056 L2.68833333,13.3306667 L2.33333333,13.3325853 C1.78104858,13.3325853 1.33333333,12.88487 1.33333333,12.3325853 L1.33333333,3.34110718 L1.38750947,3.34114881 C1.52255728,2.94867426 1.8950121,2.66666667 2.33333333,2.66666667 L6.11977839,2.66666667 Z" id="Combined-Shape" fill="#FFFFFF"></path>
                    </g>
                </g>
            </g>
        </g>
    </g>
</svg>
