<?xml version="1.0" encoding="utf-8"?>
<!-- Generator: Adobe Illustrator 24.2.1, SVG Export Plug-In . SVG Version: 6.00 Build 0)  -->
<svg version="1.1" id="Layer_1" xmlns="http://www.w3.org/2000/svg" xmlns:xlink="http://www.w3.org/1999/xlink" x="0px" y="0px"
	 viewBox="0 0 14 14" style="enable-background:new 0 0 14 14;" xml:space="preserve">
<style type="text/css">
	.st0{fill-rule:evenodd;clip-rule:evenodd;fill:#D8D8D8;fill-opacity:0;}
	.st1{fill:#FFFFFF;}
</style>
<g id="Page-1">
	<g id="Lens-Flare-Editor-Tool-Bar-Redesign" transform="translate(-534.000000, -101.000000)">
		<g id="Sub-Toolbar" transform="translate(34.000000, 95.000000)">
			<g id="Group-7" transform="translate(7.000000, 1.000000)">
				<g id="Group_1_" transform="translate(16.000000, 4.000000)">
					<g id="Icons-_x2F_-Asset-processor-_x2F_-Copy" transform="translate(476.000000, 0.000000)">
						<rect id="Rectangle-18" class="st0" width="16" height="16"/>
						<g>
							<polygon class="st1" points="8.7,13.5 11,14.8 11,11.8 8.7,10.5 							"/>
							<polygon class="st1" points="11.4,8.7 8.8,9.8 11.4,11.3 14,9.8 							"/>
							<polygon class="st1" points="11.7,11.8 11.7,14.8 14.1,13.5 14.1,10.5 							"/>
							<path class="st1" d="M8,5.4C8,5.4,8.1,5.4,8,5.4C8.4,6.9,9.7,8,11.3,8c1.8,0,3.3-1.5,3.3-3.3s-1.5-3.3-3.3-3.3
								c-1.6,0-2.9,1.1-3.2,2.6c0,0-0.1,0-0.1,0H1.2v8.8H5l0,1.6L7.7,12L5,9.7l0,1.6H2.8V5.4H8z M11.3,3.3c0.7,0,1.3,0.6,1.3,1.3
								c0,0.7-0.6,1.3-1.3,1.3S10,5.4,10,4.7C10,3.9,10.6,3.3,11.3,3.3z"/>
						</g>
					</g>
				</g>
			</g>
		</g>
	</g>
</g>
</svg>
