<?xml version="1.0" encoding="UTF-8"?>
<svg width="13px" height="14px" viewBox="0 0 13 14" version="1.1" xmlns="http://www.w3.org/2000/svg" xmlns:xlink="http://www.w3.org/1999/xlink">
    <title>Icons / System / Paste Item</title>
    <defs>
        <polygon id="path-1" points="0.2214 0 4.6654 0 4.6654 3.11273333 0.2214 3.11273333"></polygon>
        <polygon id="path-3" points="0 0.00173333333 3.23506667 0.00173333333 3.23506667 10.6670667 0 10.6670667"></polygon>
    </defs>
    <g id="Page-1" stroke="none" stroke-width="1" fill="none" fill-rule="evenodd">
        <g id="Lens-Flare-Editor-Tool-Bar-Redesign" transform="translate(-416.000000, -101.000000)">
            <g id="Sub-Toolbar" transform="translate(34.000000, 95.000000)">
                <g id="Group-7" transform="translate(7.000000, 1.000000)">
                    <g id="Group" transform="translate(16.000000, 4.000000)">
                        <g transform="translate(357.000000, 0.000000)" id="Icons-/-System-/-Paste">
                            <rect id="Icon-Background" x="0" y="0" width="16" height="16"></rect>
                            <g id="Group-12" transform="translate(2.000000, 1.333333)">
                                <g id="Group-3" transform="translate(2.000000, 0.000000)">
                                    <mask id="mask-2" fill="white">
                                        <use xlink:href="#path-1"></use>
                                    </mask>
                                    <g id="Clip-2"></g>
                                    <path d="M3.77673333,2.22406667 L1.11006667,2.22406667 L1.11006667,1.7794 L1.55473333,1.7794 C1.80006667,1.7794 1.9994,1.58073333 1.9994,1.3354 C1.9994,1.09006667 2.19806667,0.890733333 2.4434,0.890733333 C2.6894,0.890733333 2.88806667,1.09006667 2.88806667,1.3354 C2.88806667,1.58073333 3.08673333,1.7794 3.33206667,1.7794 L3.77673333,1.7794 L3.77673333,2.22406667 Z M4.2214,0.890733333 L3.7014,0.890733333 C3.45673333,0.196066667 2.6954,-0.1686 2.0014,0.0760666667 C1.62006667,0.210066667 1.32006667,0.510066667 1.18606667,0.890733333 L0.666066667,0.890733333 C0.420733333,0.890733333 0.2214,1.09006667 0.2214,1.3354 L0.2214,2.66873333 C0.2214,2.91406667 0.420733333,3.11273333 0.666066667,3.11273333 L4.2214,3.11273333 C4.46673333,3.11273333 4.6654,2.91406667 4.6654,2.66873333 L4.6654,1.3354 C4.6654,1.09006667 4.46673333,0.890733333 4.2214,0.890733333 L4.2214,0.890733333 Z" id="Fill-1" fill="#FFFFFF" mask="url(#mask-2)"></path>
                                </g>
                                <path d="M8.8874,3.11306667 L8.8874,1.77973333 C8.8874,1.5344 8.68806667,1.33506667 8.44273333,1.33506667 L7.11006667,1.33506667 L7.11006667,2.6684 C7.10806667,2.82506667 7.0654,2.9784 6.9854,3.11306667 L8.8874,3.11306667 Z" id="Fill-4" fill="#FFFFFF"></path>
                                <g id="Group-8" transform="translate(0.000000, 1.333333)">
                                    <mask id="mask-4" fill="white">
                                        <use xlink:href="#path-3"></use>
                                    </mask>
                                    <g id="Clip-7"></g>
                                    <path d="M3.1104,2.6684 C3.11173333,2.51173333 3.15506667,2.3584 3.23506667,2.22373333 L2.66573333,2.22373333 C2.17573333,2.22373333 1.77706667,1.82573333 1.77706667,1.33506667 L1.77706667,0.00173333333 L0.4444,0.00173333333 C0.199066667,0.00173333333 -0.000266666667,0.201066667 -0.000266666667,0.4464 L-0.000266666667,10.2224 C-0.000266666667,10.4677333 0.199066667,10.6670667 0.4444,10.6670667 L3.1104,10.6670667 L3.1104,2.6684 Z" id="Fill-6" fill="#FFFFFF" mask="url(#mask-4)"></path>
                                </g>
                                <g id="Group-11" transform="translate(4.000000, 4.000000)" fill="#FFFFFF">
                                    <path d="M5.99813333,2.66773333 L2.44346667,2.66773333 C2.19813333,2.66773333 1.9988,2.46906667 1.9988,2.22306667 C1.9988,1.97773333 2.19813333,1.77906667 2.44346667,1.77906667 L5.99813333,1.77906667 C6.24346667,1.77906667 6.4428,1.97773333 6.4428,2.22306667 C6.4428,2.46906667 6.24346667,2.66773333 5.99813333,2.66773333 M5.99813333,4.88973333 L2.44346667,4.88973333 C2.19813333,4.88973333 1.9988,4.69106667 1.9988,4.44573333 C1.9988,4.19973333 2.19813333,4.00106667 2.44346667,4.00106667 L5.99813333,4.00106667 C6.24346667,4.00106667 6.4428,4.19973333 6.4428,4.44573333 C6.4428,4.69106667 6.24346667,4.88973333 5.99813333,4.88973333 M5.99813333,7.11173333 L2.44346667,7.11173333 C2.19813333,7.11173333 1.9988,6.9124 1.9988,6.66706667 C1.9988,6.42173333 2.19813333,6.22306667 2.44346667,6.22306667 L5.99813333,6.22306667 C6.24346667,6.22306667 6.4428,6.42173333 6.4428,6.66706667 C6.4428,6.9124 6.24346667,7.11173333 5.99813333,7.11173333 M0.666133333,0 C0.4208,0 0.221466667,0.190307329 0.221466667,0.424531733 L0.221466667,8.90943808 C0.221466667,9.14366248 0.4208,9.33333333 0.666133333,9.33333333 L7.77613333,9.33333333 C8.02146667,9.33333333 8.22013333,9.14366248 8.22013333,8.90943808 L8.22013333,0.424531733 C8.22013333,0.190307329 8.02146667,0 7.77613333,0 L0.666133333,0 Z" id="Fill-9"></path>
                                </g>
                            </g>
                        </g>
                    </g>
                </g>
            </g>
        </g>
    </g>
</svg>
