<?xml version="1.0" encoding="UTF-8"?>
<svg width="24px" height="24px" viewBox="0 0 24 24" version="1.1" xmlns="http://www.w3.org/2000/svg" xmlns:xlink="http://www.w3.org/1999/xlink">
    <!-- Generator: Sketch 60.1 (88133) - https://sketch.com -->
    <title>icon / Preferences / Debug</title>
    <desc>Created with Sketch.</desc>
    <g id="icon-/-Preferences-/-Debug" stroke="none" stroke-width="1" fill="none" fill-rule="evenodd">
        <g id="Shape-2" fill="#FFFFFF" fill-rule="nonzero">
            <path d="M17.7659895,14.3437915 C17.7659895,13.8510917 17.6838729,13.3583919 17.6017563,12.9478088 C17.5196396,12.6193423 17.437523,12.2908757 17.2732898,11.8802926 C17.8534322,11.8802926 18.2885391,11.8802926 18.5786103,11.8802926 C18.7730643,11.8802926 19.3909109,11.3103973 19.4923119,11.0588273 C19.8411382,10.1934098 20.0868637,9.5913208 20.2294885,9.25256041 C20.5056155,8.59670739 18.9374702,8.08014063 18.7513891,8.59562737 C18.627335,8.93928519 18.4083574,9.4867294 18.0944561,10.23796 L16.6984733,10.23796 C16.4521234,9.7452602 16.2878902,9.33467704 16.0415403,8.92409389 C16.0415403,8.677744 16.1236569,8.43139411 16.1236569,8.18504421 C16.1236569,7.44599454 15.7916216,6.35006708 15.2989218,5.77525067 C15.6273883,5.28255088 15.8358527,5.07492851 16.4927858,5.07492851 C16.9854855,5.07492851 17.3779881,4.89855839 17.3779881,4.4058586 C17.3779881,3.91315882 17.071171,3.78947368 16.5784712,3.78947368 C15.4288384,3.78947368 14.8097908,4.16132931 14.1528578,5.06461225 C13.4959247,4.73614573 12.8389917,4.48979584 12.0178254,4.48979584 C11.1966591,4.48979584 10.4576094,4.73614573 9.80067637,5.06461225 C9.14374332,4.16132931 8.4037885,3.87689738 7.25415567,3.87689738 C6.76145589,3.87689738 6.49569595,4.04162791 6.49569595,4.5343277 C6.49569595,5.02702748 7.08358702,5.1538589 7.57628681,5.1538589 C8.23321985,5.1538589 8.56259152,5.27405757 8.89105804,5.84887399 C8.48047489,6.4236904 7.91199386,7.44599454 7.91199386,8.18504421 C7.91199386,8.43139411 7.99411049,8.677744 8.07622712,8.92409389 C7.82987723,9.33467704 7.58352734,9.7452602 7.41929408,10.23796 L6.02331136,10.23796 C5.68058181,9.47306757 5.43423191,8.92562337 5.28426168,8.59562737 C4.88976112,7.98868731 3.62688117,8.42478715 3.80616233,9.25256041 C4.01922728,9.86947661 4.31987943,10.6207442 4.7081188,11.506363 C4.76164079,11.6284529 5.14605217,11.8802926 5.28223899,11.8802926 C5.611155,11.8802926 6.10452901,11.8802926 6.76236103,11.8802926 C6.6802444,12.2087591 6.51601114,12.5372256 6.43389451,12.9478088 C6.35177788,13.3583919 6.26966125,13.8510917 6.26966125,14.3437915 C5.91296428,14.3437915 5.64544155,14.3437915 5.46709307,14.3437915 C5.26928822,14.3437915 4.69604361,14.7846858 4.5420281,15.1658747 C4.18294938,16.0545958 3.93766079,16.6564788 3.80616233,16.9715237 C3.55317855,17.577624 4.99543131,18.2836587 5.28426168,17.6284567 C5.47681526,17.1916554 5.69579295,16.6442112 5.94119473,15.9861241 L6.43389451,15.9861241 C6.59812777,16.6430572 6.98489602,17.6182782 7.47759581,18.1930947 C8.31491201,19.2098358 11.4314385,20.3300491 12.0066732,20.5114278 C12.4388183,20.3340039 15.8240922,19.2259251 16.6746584,18.1930947 C17.0852416,17.6182782 17.3554064,16.6430572 17.6017563,15.9861241 L18.0944561,15.9861241 C18.4036037,16.7515884 18.6225814,17.2990326 18.7513891,17.6284567 C18.9446007,18.1225929 20.5487893,17.7750481 20.2294885,16.9715237 C20.0678657,16.564798 19.8238221,15.9619365 19.4973577,15.162939 C19.3938482,14.9096071 18.981754,14.3437915 18.6213335,14.3437915 C18.0511042,14.3437915 17.7659895,14.3437915 17.7659895,14.3437915 Z M9.23055977,10.1220554 C10.1749532,10.4189366 11.095853,10.5689503 11.9932592,10.5720967 C12.8906653,10.575243 13.8179867,10.4254807 14.7752233,10.1228099 C15.7584502,12.1016139 16.2186143,13.5457702 16.1557154,14.4552788 C16.0613672,15.8195416 15.5719302,17.6853475 12.0014002,18.9963434 C8.7651056,18.0334244 7.85192855,15.9667657 7.8588464,14.3845892 C7.8635108,13.3298048 8.32074859,11.9089602 9.23055977,10.1220554 Z M12.0178254,6.13212845 C13.4138081,6.13212845 14.4813243,7.03541138 14.4813243,8.18504421 C14.4813243,8.43139411 14.3161808,8.59705797 13.9819454,8.72612627 C13.0548384,8.9831843 12.3701492,9.11171331 11.927878,9.11171331 C11.4942385,9.11171331 10.8001619,8.94511494 9.84564811,8.61191821 C9.60291104,8.48866218 9.55432647,8.43139411 9.55432647,8.18504421 C9.55432647,7.03541138 10.6218427,6.13212845 12.0178254,6.13212845 Z" id="Shape" transform="translate(12.023963, 12.150451) rotate(-45.000000) translate(-12.023963, -12.150451) "></path>
        </g>
    </g>
</svg>
