<?xml version="1.0" encoding="UTF-8"?>
<svg width="24px" height="24px" viewBox="0 0 24 24" version="1.1" xmlns="http://www.w3.org/2000/svg" xmlns:xlink="http://www.w3.org/1999/xlink">
    <!-- Generator: Sketch 60.1 (88133) - https://sketch.com -->
    <title>icon / Preferences / Experimental</title>
    <desc>Created with Sketch.</desc>
    <g id="icon-/-Preferences-/-Experimental" stroke="none" stroke-width="1" fill="none" fill-rule="evenodd">
        <path d="M15.132336,4.99076918 C15.5178274,4.99076918 15.8485779,5.34903984 16.0413236,5.67028261 C16.2340693,5.99152539 16.201945,6.90832486 16.0413236,7.26169192 C15.7410536,7.67565898 15.559016,8.029019 15.4952109,8.32177196 C15.4376576,8.58583981 15.4590738,9.15831061 15.5594594,10.0391844 C17.8081589,11.0992855 19.0519645,13.4443578 18.9234674,15.9500515 C18.7979586,19.0877716 16.2512974,21.8956839 13.1394393,22.1143917 L12.9162275,22.1255798 L12.1999856,22.1255798 C8.79481215,22.1255798 6,19.0982307 6,15.660933 C6,13.3376593 7.08822219,11.2234803 9.09581042,10.1537076 L9.3226506,10.0391844 L9.16202921,8.06479886 L8.71228932,7.26169192 C8.55166793,6.90832486 8.64804077,5.99152539 8.84078643,5.67028261 C9.04316938,5.38116412 9.51285982,5.06205304 9.88579726,5.00112201 L10.0060269,4.99076918 L15.132336,4.99076918 Z M14.5477747,9.22030884 L10.3382049,9.22030884 L10.3087674,10.5056283 C10.3087674,10.5645034 10.2793298,10.6233785 10.2204547,10.6528161 C8.30701393,11.5065051 7.07063679,13.4199459 7.07063679,15.5394495 C7.07063679,18.5420797 9.54339107,20.9853965 12.5754588,20.8970838 C15.3720262,20.8382087 17.6681551,18.5715173 17.7859053,15.8043875 C17.9036555,13.6260087 16.6378408,11.5359426 14.6360874,10.6528161 C14.5919311,10.6307379 14.5643334,10.5921011 14.5532943,10.5493247 L14.5477747,10.5056283 L14.5477747,9.22030884 Z M16.248292,15.5813393 C16.4333656,15.5813393 16.5920002,15.6606566 16.6977565,15.792852 C16.8035128,15.9250474 16.856391,16.1101211 16.8299519,16.2951947 C16.6977565,17.00905 16.4069265,18.0137353 15.6930712,18.806908 C14.4693191,20.1581342 12.6801281,20.2309765 12.4827708,20.2344561 L12.4146244,20.2346187 C12.0973553,20.2346187 10.4581319,20.1553014 9.29481208,18.806908 C8.50163946,17.8815399 8.2108095,16.9297328 8.10505315,16.2951947 C8.07861407,16.1101211 8.10505315,15.9250474 8.23724859,15.792852 C8.32185367,15.6870957 8.44030078,15.6321024 8.57905311,15.6007985 L8.68671307,15.5813393 L16.248292,15.5813393 Z M13.525066,16.4273901 C12.9962843,16.4273901 12.5468198,16.8768546 12.5468198,17.4056363 C12.5203807,17.9344181 12.9698452,18.3838826 13.525066,18.3838826 C14.0538478,18.3838826 14.5033123,17.9344181 14.5033123,17.4056363 C14.5033123,16.8768546 14.0538478,16.4273901 13.525066,16.4273901 Z M10.5110101,16.5331465 C10.1144238,16.5331465 9.79715474,16.8239764 9.82359382,17.2205627 C9.82359382,17.5907099 10.1408629,17.907979 10.5110101,17.907979 C10.8811573,17.907979 11.1984264,17.5907099 11.1984264,17.2205627 C11.1984264,16.8504155 10.8811573,16.5331465 10.5110101,16.5331465 Z M11.0960618,12.7156002 C11.6351612,12.7156002 12.0891397,13.1695787 12.0891397,13.7086781 C12.0891397,14.2477775 11.6351612,14.701756 11.0960618,14.701756 C10.5569624,14.701756 10.1029839,14.2477775 10.1029839,13.7086781 C10.1029839,13.1695787 10.5569624,12.7156002 11.0960618,12.7156002 Z M12.4296236,10.4173342 C12.8268547,10.4173342 13.1389649,10.7294444 13.1389649,11.1266755 C13.1389649,11.5239067 12.8268547,11.8360169 12.4296236,11.8360169 C12.0323924,11.8360169 11.7202822,11.5239067 11.7202822,11.1266755 C11.7202822,10.7294444 12.0323924,10.4173342 12.4296236,10.4173342 Z M14.4300245,6.23718344 L10.39708,6.23718344 C10.1615796,6.23718344 9.95551678,6.35493364 9.83776658,6.5609965 C9.73964141,6.73271554 9.72328721,6.92487734 9.77166837,7.10341063 L9.80832903,7.20862262 L10.39708,8.09174915 L10.39708,8.60845497 L14.5919794,8.60845497 L14.5919794,8.09174915 L15.0187755,7.20862262 C15.1365257,7.00255976 15.1070882,6.76705935 14.989338,6.5609965 C14.8715878,6.35493364 14.6655249,6.23718344 14.4300245,6.23718344 Z M12.3728762,6.5763594 C12.7984811,6.5763594 13.1389649,6.91684325 13.1389649,7.34244807 C13.1389649,7.76805289 12.7984811,8.10853674 12.3728762,8.10853674 C11.9472714,8.10853674 11.6067876,7.76805289 11.6067876,7.34244807 C11.6067876,6.91684325 11.9472714,6.5763594 12.3728762,6.5763594 Z M14.9336824,2 C15.6430238,2 16.2388706,2.53909944 16.2388706,3.27681446 C16.2388706,4.01452947 15.6430238,4.58200257 14.9336824,4.58200257 C14.2243411,4.58200257 13.6284943,4.04290313 13.6284943,3.30518811 C13.6284943,2.56747309 14.2243411,2 14.9336824,2 Z" id="Combined-Shape" fill="#FFFFFF" fill-rule="nonzero"></path>
    </g>
</svg>
