<?xml version="1.0" encoding="UTF-8" standalone="no"?>
<svg width="64px" height="51px" viewBox="0 0 64 51" version="1.1" xmlns="http://www.w3.org/2000/svg" xmlns:xlink="http://www.w3.org/1999/xlink">
    <!-- Generator: Sketch 3.8.3 (29802) - http://www.bohemiancoding.com/sketch -->
    <title>eye on</title>
    <desc>Created with Sketch.</desc>
    <defs></defs>
    <g id="Page-1" stroke="none" stroke-width="1" fill="none" fill-rule="evenodd">
        <path d="M62.399886,20.262032 C61.0656979,18.1619773 49.0033003,3.55271368e-15 32.0083577,3.55271368e-15 C15.013415,3.55271368e-15 2.9510174,18.1619773 1.54996795,20.262032 C-0.516655982,23.4470641 -0.516655982,27.7140347 1.54996795,30.9720066 C2.9510174,32.9991215 15.013415,50.9422798 32.0083577,50.9422798 C49.0033003,50.9422798 61.0656979,32.9991215 62.399886,30.9720066 C64.5333713,27.7140347 64.5333713,23.4470641 62.399886,20.262032 L62.399886,20.262032 Z M32.0083577,39.9435857 C24.6110597,39.9435857 18.6786333,33.5036209 18.6786333,25.4711399 C18.6786333,17.5115986 24.6110597,10.9986941 32.0083577,10.9986941 C32.7407935,10.9986941 33.4732293,11.0716338 34.141843,11.2175131 L34.141843,23.1553055 L45.1405371,23.1553055 C45.2712206,23.8786238 45.338082,24.6748819 45.338082,25.4711399 C45.338082,33.5036209 39.3387943,39.9435857 32.0083577,39.9435857 L32.0083577,39.9435857 Z" id="Shape" fill="#CCCCCC"></path>
    </g>
</svg>
