<?xml version="1.0" encoding="UTF-8"?>
<svg width="16px" height="16px" viewBox="0 0 16 16" version="1.1" xmlns="http://www.w3.org/2000/svg" xmlns:xlink="http://www.w3.org/1999/xlink">
    <!-- Generator: Sketch 52.4 (67378) - http://www.bohemiancoding.com/sketch -->
    <title>Artboard</title>
    <desc>Created with Sketch.</desc>
    <g id="Artboard" stroke="none" stroke-width="1" fill="none" fill-rule="evenodd" opacity="0.15">
        <g id="icon-/-outliner-/-lock-/-on" transform="translate(2.273363, 1.159526)" fill="#FFFFFF" fill-rule="nonzero">
            <path d="M2.67967027,6.35318256 L2.67967027,3.76591282 C2.67967027,1.97977579 4.12762042,0.531825644 5.91375745,0.531825644 C7.69989447,0.531825644 9.14784462,1.97977579 9.14784462,3.76591282 L9.14784462,6.35318256 L11.0882969,6.35318256 L11.0882969,13.4681744 L0.739217962,13.4681744 L0.739217962,6.35318256 L2.67967027,6.35318256 Z M5.26694001,8.94045231 L5.26694001,10.8809046 L6.56057488,10.8809046 L6.56057488,8.94045231 L5.26694001,8.94045231 Z M5.91375745,1.82546052 C4.84207523,1.82546052 3.97330514,2.69423061 3.97330514,3.76591282 L3.97330514,6.35318256 L7.85420975,6.35318256 L7.85420975,3.76591282 C7.85420975,2.69423061 6.98543966,1.82546052 5.91375745,1.82546052 Z" id="Combined-Shape-Copy"></path>
        </g>
    </g>
</svg>
