<?xml version="1.0" encoding="UTF-8"?>
<svg width="16px" height="16px" viewBox="0 0 16 16" version="1.1" xmlns="http://www.w3.org/2000/svg" xmlns:xlink="http://www.w3.org/1999/xlink">
    <!-- Generator: Sketch 52.4 (67378) - http://www.bohemiancoding.com/sketch -->
    <title>Artboard</title>
    <desc>Created with Sketch.</desc>
    <g id="Artboard" stroke="none" stroke-width="1" fill="none" fill-rule="evenodd">
        <g id="lock_on_NotTransparent" transform="translate(3.000000, 1.000000)" fill="#E9E9E9" fill-rule="nonzero">
            <path d="M1.95303227,6.15898956 L1.95303227,3.57171982 C1.95303227,1.78558279 3.40098242,0.337632644 5.18711945,0.337632644 C6.97325647,0.337632644 8.42120662,1.78558279 8.42120662,3.57171982 L8.42120662,6.15898956 L10.3616589,6.15898956 L10.3616589,13.2739814 L0.012579962,13.2739814 L0.012579962,6.15898956 L1.95303227,6.15898956 Z M4.54030201,8.74625931 L4.54030201,10.6867116 L5.83393688,10.6867116 L5.83393688,8.74625931 L4.54030201,8.74625931 Z M5.18711945,1.63126752 C4.11543723,1.63126752 3.24666714,2.50003761 3.24666714,3.57171982 L3.24666714,6.15898956 L7.12757175,6.15898956 L7.12757175,3.57171982 C7.12757175,2.50003761 6.25880166,1.63126752 5.18711945,1.63126752 Z" id="Combined-Shape-Copy"></path>
        </g>
    </g>
</svg>
