<?xml version="1.0" encoding="UTF-8"?>
<svg width="12px" height="14px" viewBox="0 0 12 14" version="1.1" xmlns="http://www.w3.org/2000/svg" xmlns:xlink="http://www.w3.org/1999/xlink">
    <!-- Generator: Sketch 52.2 (67145) - http://www.bohemiancoding.com/sketch -->
    <title>icon / outliner / lock / on</title>
    <desc>Created with Sketch.</desc>
    <g id="All-use-case" stroke="none" stroke-width="1" fill="none" fill-rule="evenodd">
        <g id="Slice---search-1" transform="translate(-382.000000, -232.000000)" fill="#FFFFFF">
            <g id="Menu-/-Outliner-/-Filter---ALL" transform="translate(370.884338, 167.997591)">
                <g id="icon-/-outliner-/-lock-/-on" transform="translate(11.819254, 63.600257)">
                    <path d="M2.08595272,6.35318256 L2.08595272,3.76591282 C2.08595272,1.97977579 3.53390287,0.531825644 5.3200399,0.531825644 C7.10617693,0.531825644 8.55412708,1.97977579 8.55412708,3.76591282 L8.55412708,6.35318256 L10.4945794,6.35318256 L10.4945794,13.4681744 L0.145500414,13.4681744 L0.145500414,6.35318256 L2.08595272,6.35318256 Z M4.67322246,8.94045231 L4.67322246,10.8809046 L5.96685733,10.8809046 L5.96685733,8.94045231 L4.67322246,8.94045231 Z M5.3200399,1.82546052 C4.24835768,1.82546052 3.37958759,2.69423061 3.37958759,3.76591282 L3.37958759,6.35318256 L7.26049221,6.35318256 L7.26049221,3.76591282 C7.26049221,2.69423061 6.39172212,1.82546052 5.3200399,1.82546052 Z" id="Combined-Shape-Copy"></path>
                </g>
            </g>
        </g>
    </g>
</svg>
