<?xml version="1.0" encoding="utf-8"?>
<!-- Generator: Adobe Illustrator 26.2.1, SVG Export Plug-In . SVG Version: 6.00 Build 0)  -->
<svg version="1.1" id="Layer_1" xmlns="http://www.w3.org/2000/svg" xmlns:xlink="http://www.w3.org/1999/xlink" x="0px" y="0px"
	 viewBox="0 0 24 21" style="enable-background:new 0 0 24 21;" xml:space="preserve">
<style type="text/css">
	.st0{fill:#FFFFFF;}
</style>
<path id="Gem_O_00000040543555270303941330000018412676031352635038_" class="st0" d="M22.483,10.494c0-0.35-0.018-0.713-0.055-1.07
	l0,0l0,0c-0.148-1.439-0.59-2.803-1.316-4.051l0,0l0,0c-0.713-1.236-1.703-2.33-2.852-3.166l0,0l0,0l0,0l0,0
	c-1.174-0.855-2.484-1.439-3.891-1.734l0,0l0,0c-1.396-0.295-2.865-0.295-4.26,0l0,0l0,0C8.694,0.774,7.385,1.358,6.217,2.207l0,0
	l0,0c-1.15,0.836-2.139,1.936-2.852,3.166l0,0l0,0C2.639,6.627,2.196,7.986,2.049,9.424l0,0l0,0l0,0
	c-0.037,0.363-0.055,0.719-0.055,1.07c0,1.082,0.166,2.146,0.498,3.166l0,0l0,0c0.449,1.371,1.162,2.613,2.133,3.689l0,0l0,0
	c0.971,1.076,2.127,1.918,3.449,2.508l0,0l0,0c1.316,0.59,2.717,0.885,4.168,0.885s2.852-0.295,4.168-0.885l0,0l0,0
	c1.316-0.59,2.477-1.432,3.449-2.508l0,0l0,0c0.971-1.076,1.684-2.318,2.133-3.689l0,0l0,0
	C22.317,12.639,22.483,11.576,22.483,10.494z M22.096,9.191l-2.471-1.1l1.352-2.342C21.561,6.818,21.936,7.979,22.096,9.191z
	 M17.233,10.494c0,2.76-2.238,5.004-5.004,5.004s-5.004-2.238-5.004-5.004S9.463,5.49,12.229,5.49S17.233,7.727,17.233,10.494z
	 M4.514,10.494c0,0.154,0.006,0.307,0.012,0.461L2.479,9.467l2.305-1.027C4.612,9.092,4.514,9.781,4.514,10.494z M5.381,14.047
	l-2.471-0.523L4.6,11.643C4.729,12.498,4.993,13.309,5.381,14.047z M19.858,11.643l1.691,1.881l-2.471,0.523
	C19.465,13.309,19.735,12.498,19.858,11.643z M19.668,8.441l2.305,1.027l-2.047,1.488c0.006-0.154,0.012-0.307,0.012-0.461
	C19.944,9.781,19.852,9.092,19.668,8.441z M19.452,7.777c-0.301-0.799-0.732-1.537-1.266-2.189h1.217h1.316L19.452,7.777z
	 M18.137,4.063L18.291,2.6c0.959,0.738,1.789,1.66,2.422,2.693h-2.705L18.137,4.063z M17.848,3.897l-0.123,1.18
	c-0.59-0.602-1.285-1.107-2.047-1.488l0.996-0.443l1.316-0.584L17.848,3.897z M17.866,2.287l-1.285,0.572l-1.186,0.529l-0.037-0.105
	l-0.805-2.471C15.745,1.1,16.858,1.592,17.866,2.287z M15.051,3.307c-0.768-0.301-1.605-0.486-2.471-0.523l1.691-1.881L15.051,3.307
	z M14.043,0.707l-1.814,2.01l-1.814-2.01C11.608,0.486,12.85,0.486,14.043,0.707z M10.194,0.904l1.691,1.881
	c-0.867,0.037-1.703,0.221-2.471,0.523L10.194,0.904z M9.905,0.811L9.094,3.32L9.069,3.393L9.045,3.381L6.598,2.293
	C7.606,1.592,8.713,1.1,9.905,0.811z M7.901,3.203L8.78,3.59C8.018,3.971,7.329,4.475,6.733,5.078L6.641,4.18L6.469,2.557
	L7.901,3.203z M6.167,2.6L6.45,5.293H3.745C4.379,4.26,5.208,3.338,6.167,2.6z M6.272,5.594C5.737,6.246,5.307,6.984,5.006,7.783
	l-1.26-2.189H6.272z M3.481,5.748L4.833,8.09l0,0l-2.471,1.1C2.522,7.979,2.897,6.818,3.481,5.748z M2.276,10.494
	c0-0.258,0.012-0.516,0.031-0.781L2.43,9.805l2.066,1.5l-1.807,2.01C2.417,12.406,2.276,11.453,2.276,10.494z M2.848,13.82
	l2.65,0.559l-0.836,2.576C3.862,16.021,3.254,14.969,2.848,13.82z M4.944,17.053l0.781-2.404c0.455,0.713,1.033,1.352,1.691,1.875
	L4.944,17.053z M5.012,17.342l2.65-0.566l0.283,2.693C6.838,18.947,5.854,18.234,5.012,17.342z M7.981,16.93
	c0.701,0.461,1.475,0.811,2.305,1.027l-2.041,1.488L7.981,16.93z M8.424,19.691l2.189-1.592l0.221,0.387l1.131,1.961
	C10.741,20.41,9.549,20.158,8.424,19.691z M10.969,18.105c0.412,0.068,0.836,0.105,1.266,0.105c0.43,0,0.855-0.037,1.266-0.105
	l-1.273,2.189L10.969,18.105z M12.493,20.441l0.221-0.387l1.131-1.961l2.189,1.592C14.909,20.158,13.717,20.41,12.493,20.441z
	 M16.219,19.445l-2.041-1.488c0.83-0.215,1.611-0.566,2.305-1.027L16.219,19.445z M16.514,19.476l0.283-2.693l2.65,0.566
	C18.604,18.234,17.621,18.947,16.514,19.476z M17.043,16.525c0.664-0.529,1.236-1.162,1.691-1.875l0.781,2.404L17.043,16.525z
	 M19.797,16.955l-0.836-2.576l2.65-0.559C21.205,14.969,20.596,16.021,19.797,16.955z M21.776,13.316l-1.814-2.01l2.189-1.592
	c0.018,0.264,0.031,0.523,0.031,0.781C22.182,11.453,22.047,12.406,21.776,13.316z"/>
</svg>
