<?xml version="1.0" encoding="UTF-8"?>
<svg width="24px" height="21px" viewBox="0 0 24 21" version="1.1" xmlns="http://www.w3.org/2000/svg" xmlns:xlink="http://www.w3.org/1999/xlink">
    <title>o3de icon</title>
    <g id="o3de-icon" stroke="none" stroke-width="1" fill="none" fill-rule="evenodd">
        <g id="Mono-Reversed" transform="translate(0.000000, 0.000000)" fill="#000000" fill-rule="nonzero">
            <path d="M21.1541405,17.6979529 C19.3400003,19.4999226 16.9380429,20.4923077 14.3913014,20.4923077 L14.390648,20.4923077 L14.3450938,20.4923077 C11.7797759,20.4803636 9.3640962,19.4651168 7.54323489,17.6334736 C5.11112576,15.1866169 4.27677437,11.7429896 5.03495316,8.61000159 L8.51135509,8.61000159 C8.23037526,9.33504454 8.08409772,10.1140225 8.08885851,10.9163286 C8.09866013,12.5958715 8.76171652,14.1683842 9.95574077,15.3439429 C11.1512586,16.5210879 12.7239055,17.1693342 14.3843003,17.1693342 L14.4020365,17.1692408 C16.0735398,17.163922 17.6458133,16.505038 18.8316229,15.3138961 C20.0308746,14.109317 20.6859031,12.5198213 20.6761947,10.8382256 C20.6663931,9.15513684 19.9919482,7.57151988 18.7770139,6.37907152 C17.5971786,5.2210557 16.046842,4.58577998 14.4049303,4.58577998 C14.3803796,4.58577998 14.3559222,4.5859666 14.3311848,4.58624655 C13.4169268,4.59604442 12.5319804,4.80254636 11.7229265,5.18298395 L11.7229265,1.63624556 C12.5795883,1.3889658 13.4737762,1.25879399 14.3867273,1.25879399 L14.4338684,1.25879399 C17.005814,1.27120464 19.4248544,2.29568939 21.2452489,4.14366241 C23.038479,5.96410807 24.0166808,8.37475921 23.9997847,10.9315387 C23.9828886,13.4891581 22.9722947,15.8920641 21.1541405,17.6979529 L21.1541405,17.6979529 Z M1.11066379,1.9110527 L3.02244681,1.9110527 L3.02244681,0 L1.11066379,0 L1.11066379,1.9110527 Z M0,7.6534488 L2.99948301,7.6534488 L2.99948301,4.65511162 L0,4.65511162 L0,7.6534488 Z M4.90426487,6.43272657 L9.52867009,6.43272657 L9.52867009,1.8100879 L4.90426487,1.8100879 L4.90426487,6.43272657 Z" id="Fill-2"></path>
        </g>
    </g>
</svg>