<?xml version="1.0" encoding="UTF-8" standalone="no"?>
<svg width="47px" height="65px" viewBox="0 0 47 65" version="1.1" xmlns="http://www.w3.org/2000/svg" xmlns:xlink="http://www.w3.org/1999/xlink">
    <!-- Generator: Sketch 3.8.3 (29802) - http://www.bohemiancoding.com/sketch -->
    <title>lock on</title>
    <desc>Created with Sketch.</desc>
    <defs></defs>
    <g id="Page-1" stroke="none" stroke-width="1" fill="none" fill-rule="evenodd">
        <path d="M20.5374922,46.3066538 L20.5374922,50.0076402 C20.5374922,51.6072344 21.839993,52.9006775 23.4395872,52.9006775 C25.0391815,52.9006775 26.3326246,51.6072344 26.3326246,50.0076402 L26.3326246,46.3066538 C28.0608385,45.3012463 29.2347196,43.4480358 29.2347196,41.3104128 C29.2347196,38.1039782 26.6369641,35.5152804 23.4395872,35.5152804 C20.2331526,35.5152804 17.6444549,38.1039782 17.6444549,41.3104128 C17.6444549,43.4480358 18.8110898,45.3012463 20.5374922,46.3066538 L20.5374922,46.3066538 Z M6.04513238,58.7048676 L40.8249844,58.7048676 L40.8249844,29.720148 L6.04513238,29.720148 L6.04513238,58.7048676 Z M11.8402648,16.4706177 C11.8402648,10.9813094 17.0357757,6.53056076 23.4395872,6.53056076 C29.8433987,6.53056076 35.029852,10.9813094 35.029852,16.4706177 L35.029852,23.9159579 L11.8402648,23.9159579 L11.8402648,16.4706177 Z M40.8249844,17.8944549 C40.8249844,8.28420876 33.0425872,0.5 23.4395872,0.5 C13.8293411,0.5 6.04513238,8.28420876 6.04513238,17.8944549 L6.04513238,23.9159579 C2.8477555,23.9159579 0.25,26.5137134 0.25,29.7129018 L0.25,58.7048676 C0.25,61.9022445 2.8477555,64.5 6.04513238,64.5 L40.8249844,64.5 C44.031419,64.5 46.6291745,61.9022445 46.6291745,58.7048676 L46.6291745,29.7129018 C46.6291745,26.5137134 44.031419,23.9159579 40.8249844,23.9159579 L40.8249844,17.8944549 Z" fill="#CCCCCC"></path>
    </g>
</svg>
