<svg width="80" height="80" viewBox="0 0 80 80" fill="none" xmlns="http://www.w3.org/2000/svg">
<path fill-rule="evenodd" clip-rule="evenodd" d="M66.5521 56.4173C67.6477 55.8373 68.3333 54.7018 68.3333 53.4673V26.7354C68.3333 25.5349 67.6845 24.4298 66.6354 23.8436L43.3726 10.8459C41.3553 9.71877 38.8921 9.71625 36.864 10.8393L13.3922 23.8368C12.3277 24.4263 11.6667 25.5448 11.6667 26.7566L11.6667 53.4761C11.6667 54.7059 12.3472 55.833 13.4365 56.4069L38.5039 69.6154C39.4808 70.1301 40.6518 70.128 41.6307 69.6099L66.5521 56.4173ZM41.6732 24.9691V15.5861L63.1725 27.4054V50.7711L54.6523 46.3625V33.5544L41.6732 40.9791V54.6525L53.2689 48.8595L62.0294 53.1073L40.06 64.8887L17.9082 53.1073L26.7317 48.8595L38.7801 54.6525V40.9791L25.3812 33.5544V46.3625L16.9475 50.7711V27.4054L38.7801 15.5861V24.9691L26.7317 31.6915L40.4377 38.4731L53.2689 31.6915L41.6732 24.9691Z" fill="white"/>
</svg>
