<?xml version="1.0" encoding="UTF-8"?>
<svg width="16px" height="16px" viewBox="0 0 16 16" version="1.1" xmlns="http://www.w3.org/2000/svg" xmlns:xlink="http://www.w3.org/1999/xlink">
    <!-- Generator: Sketch 50.2 (55047) - http://www.bohemiancoding.com/sketch -->
    <title>icon / outliner / slice /  Editor only - Updated</title>
    <desc>Created with Sketch.</desc>
    <defs></defs>
    <g id="icon-/-outliner-/-slice-/--Editor-only---Updated" stroke="none" stroke-width="1" fill="none" fill-rule="evenodd">
        <path d="M7.25368097,13.5611291 L7.25368097,7.25189338 L13.5608912,7.25189338 C13.195151,4.50707896 10.8448497,2.38966546 8,2.38966546 C4.90149779,2.38966546 2.38966546,4.90149779 2.38966546,8 C2.38966546,10.8454672 4.50799833,13.1961713 7.25368097,13.5611291 Z M13.5603854,8.75189338 L8.75368097,8.75189338 L8.75368097,13.5601456 C11.2498679,13.2249873 13.2260107,11.2483286 13.5603854,8.75189338 Z M8,15.0527342 C4.10488248,15.0527342 0.947265844,11.8951175 0.947265844,8 C0.947265844,4.10488248 4.10488248,0.947265844 8,0.947265844 C11.8951175,0.947265844 15.0527342,4.10488248 15.0527342,8 C15.0527342,10.4066867 13.8472615,12.5318201 12.0071807,13.8045357 C10.8691709,14.5916549 9.48843085,15.0527342 8,15.0527342 Z" id="Combined-Shape" fill="#FF7B00"></path>
    </g>
</svg>
