<?xml version="1.0" encoding="UTF-8"?>
<svg width="16px" height="16px" viewBox="0 0 16 16" version="1.1" xmlns="http://www.w3.org/2000/svg" xmlns:xlink="http://www.w3.org/1999/xlink">
    <!-- Generator: Sketch 50.2 (55047) - http://www.bohemiancoding.com/sketch -->
    <title>icon / outliner / slice / not active - saved copy</title>
    <desc>Created with Sketch.</desc>
    <defs></defs>
    <g id="icon-/-outliner-/-slice-/-not-active---saved-copy" stroke="none" stroke-width="1" fill="none" fill-rule="evenodd">
        <g id="Group" transform="translate(0.000000, 1.000000)" fill="#FF7B00">
            <path d="M3.11645814,1.98491547 C1.81085731,3.25648192 1,5.03354803 1,7 C1,10.691145 3.85693233,13.7150177 7.48016927,13.9809903 C7.55923919,13.9867947 7.54332969,11.4601372 7.43244079,6.40101795 C4.76920501,3.70741298 3.33054412,2.23537882 3.11645814,1.98491547 Z" id="Combined-Shape"></path>
            <path d="M11.9163232,8.99067789 C14.1440956,10.9827781 14.0076988,13.0093902 14.0076988,13.0093902 L8.00932211,13.0093902 L8.00932211,12.9006685 C8.00932211,12.9006685 11.6508403,9.25628813 11.9163232,8.99067789 Z" id="Triangle-2" transform="translate(11.009322, 11.000034) rotate(90.000000) translate(-11.009322, -11.000034) "></path>
            <path d="M14.9826165,6.50282053 C14.7276121,2.86884654 11.6988335,0 8,0 C6.82153133,0 5.71107957,0.29121506 4.73668211,0.80560781 C5.52211072,1.57704166 8.92915737,4.97484587 10.4514738,6.5045222 C10.82345,6.50282053 14.7260401,6.5045222 14.9826165,6.50282053 Z" id="Combined-Shape"></path>
            <path d="M12.344955,7.6097276 C12.344955,7.6097276 13.3370708,7.73374209 14.6080362,8.42756253 C14.2393452,8.76237994 12.344955,10.6534218 12.344955,10.6534218 L12.344955,7.6097276 Z" id="Triangle-2" transform="translate(13.476496, 9.131575) rotate(90.000000) translate(-13.476496, -9.131575) "></path>
            <rect id="Rectangle-22-Copy-2" transform="translate(7.409295, 7.712904) rotate(-45.000000) translate(-7.409295, -7.712904) " x="6.40929495" y="-1.28709556" width="2" height="18"></rect>
        </g>
    </g>
</svg>
