<?xml version="1.0" encoding="UTF-8"?>
<svg width="16px" height="16px" viewBox="0 0 16 16" version="1.1" xmlns="http://www.w3.org/2000/svg" xmlns:xlink="http://www.w3.org/1999/xlink">
    <title>source control - warning v2</title>
    <g id="source-control---warning-v2" stroke="none" stroke-width="1" fill="none" fill-rule="evenodd">
        <path d="M8,0.5 C12.1421356,0.5 15.5,3.85786438 15.5,8 C15.5,12.1421356 12.1421356,15.5 8,15.5 C3.85786438,15.5 0.5,12.1421356 0.5,8 C0.5,3.85786438 3.85786438,0.5 8,0.5 Z M11.5122768,7 L8.98772321,7 L8.98772321,10.0032093 L7,10.0032093 L10.2209821,14 L13.5,10.0032093 L11.5122768,10.0032093 L11.5122768,7 Z M6.23549107,2 L3,6.00296835 L4.98772321,6.00296835 L4.98772321,9 L7.51227679,9 L7.51227679,6.00296835 L9.5,6.00296835 L6.23549107,2 Z" id="Oval-2" fill="#F0C32D"></path>
    </g>
</svg>
