<?xml version="1.0" encoding="UTF-8"?>
<svg width="12px" height="14px" viewBox="0 0 12 14" version="1.1" xmlns="http://www.w3.org/2000/svg" xmlns:xlink="http://www.w3.org/1999/xlink">
    <!-- Generator: Sketch 52.2 (67145) - http://www.bohemiancoding.com/sketch -->
    <title>Group 13</title>
    <desc>Created with Sketch.</desc>
    <g id="All-use-case" stroke="none" stroke-width="1" fill="none" fill-rule="evenodd">
        <g id="Slice---search-1" transform="translate(-382.000000, -213.000000)" fill="#FFFFFF">
            <g id="Menu-/-Outliner-/-Filter---ALL" transform="translate(370.884338, 167.997591)">
                <g id="Group-13" transform="translate(11.013222, 44.757702)">
                    <path d="M8.08136488,6.34823575 L8.08136488,3.74117875 C8.08136488,2.66130038 7.20595049,1.78588599 6.12607212,1.78588599 C5.71835302,1.78588599 5.12932063,1.90054702 4.64441752,2.34844343 C4.51544969,2.46756874 4.38413609,2.71832946 4.25047672,3.10072562 L2.88389656,3.10072562 C2.93284339,2.87757947 2.97466945,2.7202004 3.00937473,2.62858842 C3.08964423,2.41669999 3.30022431,2.0404071 3.36717202,1.94801197 C4.28116316,0.686604579 5.23052437,0.482357492 6.12607212,0.482357492 C7.92586941,0.482357492 9.38489338,1.94138146 9.38489338,3.74117875 L9.38489338,6.34823575 L11.3401861,6.34823575 L11.3401861,13.5176425 L0.911958118,13.5176425 L0.911958118,6.34823575 L8.08136488,6.34823575 Z M2.21548662,7.65176425 L2.21548662,12.214114 L10.0366576,12.214114 L10.0366576,7.65176425 L2.21548662,7.65176425 Z M5.47430787,8.95529275 L6.77783638,8.95529275 L6.77783638,10.9105855 L5.47430787,10.9105855 L5.47430787,8.95529275 Z" id="Combined-Shape-Copy-4"></path>
                </g>
            </g>
        </g>
    </g>
</svg>
