<?xml version="1.0" encoding="UTF-8"?>
<svg width="24px" height="24px" viewBox="0 0 24 24" version="1.1" xmlns="http://www.w3.org/2000/svg" xmlns:xlink="http://www.w3.org/1999/xlink">
    <!-- Generator: Sketch 60.1 (88133) - https://sketch.com -->
    <title>icon / Preferences / viewport</title>
    <desc>Created with Sketch.</desc>
    <g id="icon-/-Preferences-/-viewport" stroke="none" stroke-width="1" fill="none" fill-rule="evenodd">
        <g id="icon-/-Not-Used-/-expermental" transform="translate(2.000000, 2.000000)" fill="#FFFFFF">
            <path d="M3.77906954,9.55094715 L2.9818592,12.0518151 L6.15475936,12.0518151 L5.96862363,14.2062037 L0.856386372,14.2062037 L2.3791766,9.55094715 L3.77906954,9.55094715 Z M17.3251321,9.73403193 L19.1419514,14.2062037 L14.0297142,14.2062037 L13.5495493,12.2348998 L16.7224495,12.2348998 L15.9252392,9.73403193 L17.3251321,9.73403193 Z M13.5187207,6.64514611 L14.7725461,11.2589534 L5.06685425,11.2589534 L6.15727307,6.64514611 L13.5187207,6.64514611 Z M7.51660873,4.46244382 L7.15148167,5.58633129 L4.82105884,5.58633129 L4.28279801,7.10253223 L3.27175476,7.10253223 L4.31626264,4.46244382 L7.51660873,4.46244382 Z M15.5109385,4.55262612 L16.3797351,7.10253223 L15.3686919,7.10253223 L14.830431,5.58633129 L12.5000082,5.58633129 L12.3105924,4.55262612 L15.5109385,4.55262612 Z" id="Combined-Shape"></path>
        </g>
    </g>
</svg>
