<?xml version="1.0" encoding="UTF-8"?>
<svg width="16px" height="16px" viewBox="0 0 16 16" version="1.1" xmlns="http://www.w3.org/2000/svg" xmlns:xlink="http://www.w3.org/1999/xlink">
    <!-- Generator: Sketch 52.4 (67378) - http://www.bohemiancoding.com/sketch -->
    <title>Artboard</title>
    <desc>Created with Sketch.</desc>
    <g id="Artboard" stroke="none" stroke-width="1" fill="none" fill-rule="evenodd">
        <g id="Sky-Icon-/-System-/-View" transform="translate(-1.000000, -1.000000)">
            <g id="Group">
                <rect id="Icon-Background" x="0" y="0" width="17.8181885" height="17.8181885"></rect>
            </g>
            <path d="M7.06342091,12.9074237 L7.88176629,12.0890784 C8.20542356,12.1935613 8.55066739,12.2500046 8.90909425,12.2500046 C10.7542281,12.2500046 12.2500046,10.7542281 12.2500046,8.90909425 C12.2500046,8.55066739 12.1935613,8.20542356 12.0890784,7.88176629 L13.4371592,6.53368547 C14.3190221,7.17645386 15.2844155,7.96825679 16.3333395,8.90909425 C13.0224727,11.8787923 10.5438307,13.3636414 8.89741345,13.3636414 C8.37051833,13.3636414 7.75918749,13.2115688 7.06342091,12.9074237 Z M5.69216773,12.1787833 C4.48306461,11.4370945 3.08062505,10.3471982 1.48484904,8.90909425 C4.78014139,5.93939617 7.25099619,4.45454713 8.89741345,4.45454713 C9.76312087,4.45454713 10.8589211,4.865077 12.1848142,5.68613676 L11.2977095,6.57324152 C10.6911676,5.95308542 9.8450802,5.56818391 8.90909425,5.56818391 C7.06396042,5.56818391 5.56818391,7.06396042 5.56818391,8.90909425 C5.56818391,9.8450802 5.95308542,10.6911676 6.57324152,11.2977095 L5.69216773,12.1787833 Z M8.83584308,11.1350016 L11.1461965,8.82464811 C11.1472437,8.85266758 11.1477719,8.88081938 11.1477719,8.90909425 C11.1477719,10.1391835 10.1480347,11.1363678 8.91479629,11.1363678 C8.88836881,11.1363678 8.86204856,11.1359099 8.83584308,11.1350016 Z M7.3616286,10.5093224 C6.94241377,10.1044297 6.68182069,9.53711663 6.68182069,8.90909425 C6.68182069,7.67900503 7.68155792,6.68182069 8.91479629,6.68182069 C9.54237304,6.68182069 10.1094814,6.94005568 10.5151444,7.35580661 L7.3616286,10.5093224 Z" id="Combined-Shape" fill="#E9E9E9"></path>
            <polygon id="Rectangle-25" fill="#E9E9E9" transform="translate(8.582044, 8.280986) rotate(45.000000) translate(-8.582044, -8.280986) " points="7.7813425 0.916636365 9.38274632 0.913653421 9.35823763 15.6483178 7.7813425 15.6158919"></polygon>
        </g>
    </g>
</svg>
