<?xml version="1.0" encoding="UTF-8"?>
<svg width="14px" height="9px" viewBox="0 0 14 9" version="1.1" xmlns="http://www.w3.org/2000/svg" xmlns:xlink="http://www.w3.org/1999/xlink">
    <!-- Generator: Sketch 52.2 (67145) - http://www.bohemiancoding.com/sketch -->
    <title>icon / outliner / visible / mixed state - hover</title>
    <desc>Created with Sketch.</desc>
    <g id="All-use-case" stroke="none" stroke-width="1" fill="none" fill-rule="evenodd">
        <g id="Slice---search-1" transform="translate(-381.000000, -253.000000)" fill="#FFFFFF">
            <g id="Menu-/-Outliner-/-Filter---ALL" transform="translate(370.884338, 167.997591)">
                <g id="icon-/-outliner-/-visible-/-mixed-state---hover" transform="translate(9.851086, 85.062930)">
                    <g id="Group-9" transform="translate(0.500000, 0.000000)">
                        <path d="M6.77758009,8.52962629 C5.27948639,8.52962629 3.03122764,7.17854533 0.0328038309,4.47638343 C3.03122764,1.77422153 5.27948639,0.423140577 6.77758009,0.423140577 C8.27567379,0.423140577 10.5310182,1.77422153 13.5436133,4.47638343 C10.5310182,7.17854533 8.27567379,8.52962629 6.77758009,8.52962629 Z M6.78820859,7.51631557 C8.46711675,7.51631557 9.82814073,6.15529159 9.82814073,4.47638343 C9.82814073,2.79747527 8.46711675,1.43645129 6.78820859,1.43645129 C5.10930043,1.43645129 3.74827645,2.79747527 3.74827645,4.47638343 C3.74827645,6.15529159 5.10930043,7.51631557 6.78820859,7.51631557 Z M6.78820859,6.50300486 C5.66893648,6.50300486 4.76158716,5.59565554 4.76158716,4.47638343 C4.76158716,3.35711132 5.66893648,2.449762 6.78820859,2.449762 C7.9074807,2.449762 8.81483001,3.35711132 8.81483001,4.47638343 C8.81483001,5.59565554 7.9074807,6.50300486 6.78820859,6.50300486 Z" id="Combined-Shape-Copy-2"></path>
                    </g>
                </g>
            </g>
        </g>
    </g>
</svg>
