<?xml version="1.0" encoding="UTF-8"?>
<svg width="24px" height="24px" viewBox="0 0 24 24" version="1.1" xmlns="http://www.w3.org/2000/svg" xmlns:xlink="http://www.w3.org/1999/xlink">
    <!-- Generator: Sketch 57.1 (83088) - https://sketch.com -->
    <title>Sky Icon / System / Windows - Pop Out</title>
    <desc>Created with Sketch.</desc>
    <g id="Sky-Icon-/-System-/-Windows---Pop-Out" stroke="none" stroke-width="1" fill="none" fill-rule="evenodd">
        <rect id="Icon-Background" x="0" y="0" width="24" height="24"></rect>
        <path d="M21,3 L21,17 L7,17 L7,3 L21,3 Z M19,5 L9,5 L9,15 L19,15 L19,5 Z" id="Combined-Shape" fill="#FFFFFF"></path>
        <path d="M6,7 L6,9 L5,9 L5,19 L15,19 L15,18 L17,18 L17,21 L3,21 L3,7 L6,7 Z" id="Combined-Shape" fill="#FFFFFF"></path>
        <path d="M17.0303301,7 L17.0303301,12 L15.06,10.03 L12.044835,13.045 L10.985835,11.984 L14,8.97 L12.0303301,7 L17.0303301,7 Z" id="Combined-Shape" fill="#FFFFFF" fill-rule="nonzero"></path>
    </g>
</svg>
