<?xml version="1.0" encoding="UTF-8"?>
<svg width="13px" height="12px" viewBox="0 0 13 12" version="1.1" xmlns="http://www.w3.org/2000/svg" xmlns:xlink="http://www.w3.org/1999/xlink">
    <!-- Generator: Sketch 61 (89581) - https://sketch.com -->
    <title>sort manually</title>
    <desc>Created with Sketch.</desc>
    <g id="Symbols" stroke="none" stroke-width="1" fill="none" fill-rule="evenodd">
        <g id="Menu-/-Outliner-/-menu" transform="translate(-186.000000, -6.000000)" fill-rule="nonzero">
            <g id="Group-14">
                <g id="sort-manually" transform="translate(184.000000, 4.000000)">
                    <rect id="Rectangle-2" fill-opacity="0" fill="#D8D8D8" x="0" y="0" width="16" height="16"></rect>
                    <g id="manual-sort" transform="translate(1.000000, 2.000000)" fill="#FFFFFF">
                        <g id="Group-3" transform="translate(0.863227, 0.500000)">
                            <path d="M3.78314642,0.285229 L3.99871527,0.501168483 C4.54521539,1.04243432 5.84355982,2.30793018 5.99117352,2.45613715 C6.16646479,2.63213293 6.22339812,2.81002208 6.22339812,3.01406623 L6.22339812,4.42964999 L6.22339812,4.42964999 C6.22339812,4.56650134 6.0433514,4.73531991 5.85612747,4.54334053 C5.7331288,4.41721771 5.20061175,3.90020525 4.25857636,2.99230315 L4.25781117,8.41304244 L4.25781117,8.41304244 L4.7527864,7.9189506 C5.4031325,7.27048871 5.77346675,6.90467415 5.86378917,6.82150693 C6.03053823,6.66796746 6.22339825,6.72300742 6.22339825,6.93519747 L6.22339825,8.35078124 L6.22339825,8.35078124 C6.22339825,8.64297738 6.15774659,8.70625132 6.04282315,8.84644911 C5.92789971,8.98664689 4.05015641,10.8449721 3.81194346,11.0796185 C3.57373051,11.3142648 3.38021,11.3229832 3.14547558,11.0796185 L2.92990673,10.863679 C2.38340661,10.3224131 1.08506218,9.05691728 0.93744848,8.90871031 C0.76215721,8.73271453 0.70522388,8.55482538 0.70522388,8.35078124 L0.70522388,6.93519747 L0.70522388,6.93519747 C0.70522388,6.79834612 0.8852706,6.62952755 1.07249453,6.82150693 C1.1954932,6.94762975 1.72801025,7.46464221 2.67004564,8.37254431 L2.67081083,2.95180502 L2.67081083,2.95180502 L2.3308861,3.29123439 C1.58412088,4.03640712 1.16210312,4.45377584 1.06483283,4.54334053 C0.89808377,4.69688 0.705223747,4.64184004 0.705223747,4.42964999 L0.705223747,3.01406623 L0.705223747,3.01406623 C0.705223747,2.72187008 0.770875412,2.65859614 0.88579885,2.51839835 C1.00072229,2.37820057 2.87846559,0.519875361 3.11667854,0.285229 C3.35489149,0.0505826389 3.548412,0.0418643091 3.78314642,0.285229 Z M12.8441776,7.75 L12.8441776,9.25 L7.32600318,9.25 L7.32600318,7.75 L12.8441776,7.75 Z M12.8441776,5 L12.8441776,6.5 L7.32600318,6.5 L7.32600318,5 L12.8441776,5 Z M12.8441776,2.25 L12.8441776,3.75 L7.32600318,3.75 L7.32600318,2.25 L12.8441776,2.25 Z" id="Combined-Shape"></path>
                        </g>
                    </g>
                </g>
            </g>
        </g>
    </g>
</svg>
