<?xml version="1.0" encoding="UTF-8"?>
<svg width="16px" height="16px" viewBox="0 0 16 16" version="1.1" xmlns="http://www.w3.org/2000/svg" xmlns:xlink="http://www.w3.org/1999/xlink">
    <title>icon / outliner / prefab / level Prefab</title>
    <g id="primary-use-cases" stroke="none" stroke-width="1" fill="none" fill-rule="evenodd">
        <g id="Screen-1-Copy-44" transform="translate(-427.000000, -142.000000)" fill="#FFFFFF" fill-rule="nonzero">
            <g id="icon-/-outliner-/-prefab-/-level-Prefab" transform="translate(426.638066, 142.332031)">
                <path d="M8.45913462,0 C12.5813561,0 15.9230769,3.35786438 15.9230769,7.5 C15.9230769,11.6421356 12.5813561,15 8.45913462,15 C4.33691311,15 0.995192308,11.6421356 0.995192308,7.5 C0.995192308,3.35786438 4.33691311,0 8.45913462,0 Z M12.4781875,6.42341812 C12.1577463,6.12366506 11.7335666,6.01332743 11.0049987,6.42341812 L11.0049987,6.42341812 L11.0049987,8.5884518 C10.9225379,8.84150459 10.2293378,8.5394054 10.2293378,8.80373936 L10.2293378,8.80373936 L10.2293378,9.61283472 C10.2293378,9.8724019 10.6363004,9.87340934 11.0632828,9.85548853 L11.2958421,9.84527667 C11.3724731,9.8422072 11.4474403,9.8399523 11.5184178,9.8399523 C11.8202034,9.98137083 11.7335666,10.5633178 11.7335666,10.7147591 C11.3974631,10.7147591 11.406871,11.5024317 10.347606,11.5024317 C10.120375,11.5024317 9.86212133,11.73704 9.57284497,12.2062566 C9.25606746,12.2972904 9.04520507,12.2972904 8.94025779,12.2062566 C8.6919805,11.9908948 8.76144856,11.9447647 8.76144856,11.5024317 C8.4582395,11.427466 7.9700545,11.3862527 7.29689357,11.3787916 L7.29689357,11.3787916 L7.29689357,10.7147591 L7.29689357,10.7147591 L6.50331329,10.7147591 C6.25842964,10.8556917 6.06673768,11.1182492 5.92823742,11.5024317 L5.92823742,11.5024317 L4.32384946,11.5024317 C4.32384946,12.2062566 5.11206649,12.0138682 5.11206649,12.7313714 C5.11206649,13.0235129 6.3820214,12.6422073 6.50331329,13.3247017 C6.62460519,14.0071961 8.7929955,13.9159194 10.2293378,13.5316567 C12.9916521,12.7926586 14.3647991,10.5448429 14.6749365,9.03922292 C14.9850739,7.53360298 14.8096021,7.06131987 14.0965778,7.06131987 L14.0965778,7.06131987 L13.2150471,7.06131987 C12.7615506,7.06131987 13.3411333,7.80149555 13.0226466,7.80149555 C12.7041599,7.80149555 12.4781875,7.84963702 12.4781875,7.25399166 L12.4781875,7.25399166 Z M8.18597597,1.10362141 C5.99378924,1.09010136 4.38473194,1.4582995 2.30893707,6.22880934 C2.30893707,6.57041835 2.37964352,6.89184944 2.62737519,6.94097096 C2.83058673,6.98126479 3.50368835,6.94097096 3.71286415,6.94097096 C4.21204852,6.94097096 4.32384946,6.94097096 4.32384946,7.6729245 C4.32384946,8.07126931 5.09535986,8.26110208 5.09535986,8.80373936 C5.09535986,9.34637664 5.57949854,9.58156941 5.92823742,9.98572953 L6.60830023,9.98572953 L6.60830023,9.98572953 L6.60830023,8.55478831 L6.60830023,8.55478831 C6.60830023,8.44191446 7.29689357,8.44191446 7.65766186,8.47402488 C8.12521281,8.47402488 8.12521281,7.83709225 7.90273662,7.79145294 C7.48753541,7.70627755 6.60830023,7.79145294 6.60830023,7.40685414 L6.60830023,5.86401782 L6.60830023,5.86401782 C6.60830023,5.19613008 7.29689357,5.80054608 7.29689357,5.13265834 L7.29689357,3.04914378 L7.29689357,3.04914378 C7.29689357,2.40618145 7.63609351,2.49749036 8.18597597,2.49749036 C8.94025779,2.06128603 8.63256884,1.4582995 8.18597597,1.10362141 Z M9.59207621,4.09495214 C8.94025779,3.95848535 8.53851535,3.95848535 8.01186009,4.09495214 C7.86636214,4.39916713 7.86636214,4.59057831 8.01186009,4.74551536 C8.94025779,4.73716976 9.59207621,4.91772237 9.59207621,5.44762078 C9.72972592,5.60421378 10.0703113,5.60421378 10.347606,5.44762078 C10.3212129,4.94907566 10.3212129,4.50502476 9.59207621,4.09495214 Z" id="Oval-6"></path>
            </g>
        </g>
    </g>
</svg>