<?xml version="1.0" encoding="UTF-8"?>
<svg width="16px" height="16px" viewBox="0 0 16 16" version="1.1" xmlns="http://www.w3.org/2000/svg" xmlns:xlink="http://www.w3.org/1999/xlink">
    <title>ABC_16</title>
    <g id="ABC_16" stroke="none" stroke-width="1" fill="none" fill-rule="evenodd">
        <path d="M14.4419719,9.56945845 C14.3496862,9.45056282 12.3266563,6.79949272 8.3728822,1.61624815 C8.1591499,1.33154417 7.82922859,1.33154417 7.62831727,1.61624815 L1.59814195,9.56945845 C1.40171159,9.80071581 1.40171159,10.1268219 1.60194035,10.2143334 L7.62831727,14.269043 C7.86069011,14.4629778 8.15016349,14.4629778 8.3728822,14.269043 L14.4419719,10.2143334 C14.5804005,10.097098 14.5804005,9.7478019 14.4419719,9.56945845 Z M7.83895335,9.43700649 L7.83895335,8.76699253 L2.79142373,9.48210002 L7.61019152,2.97715609 L7.61019152,12.9006348 L2.79142373,10.152114 L7.83895335,9.43700649 Z M8.3345554,2.97228194 L12.9014431,9.45604846 L8.11980246,8.71000176 L8.11980246,9.42374104 L12.897391,10.1694519 L8.3345554,12.8676758 L8.3345554,2.97228194 Z" id="Shape" fill="#FFFFFF" fill-rule="nonzero"></path>
    </g>
</svg>