<svg width="80" height="80" viewBox="0 0 80 80" fill="none" xmlns="http://www.w3.org/2000/svg">
<path fill-rule="evenodd" clip-rule="evenodd" d="M44.9999 6.66663H13.3333V73.3333H66.6666V28.3333H44.9999V6.66663ZM43.3333 40C43.3333 41.8409 41.8409 43.3333 39.9999 43.3333C38.159 43.3333 36.6666 41.8409 36.6666 40C36.6666 38.159 38.159 36.6666 39.9999 36.6666C41.8409 36.6666 43.3333 38.159 43.3333 40ZM37.3333 47.9047C37.3333 46.8527 38.186 46 39.238 46H40.7618C41.8138 46 42.6666 46.8527 42.6666 47.9047V61.4285C42.6666 62.4805 41.8138 63.3333 40.7618 63.3333H39.238C38.186 63.3333 37.3333 62.4805 37.3333 61.4285C37.3333 60.3766 37.3333 47.9047 37.3333 47.9047Z" fill="white"/>
<path d="M49.9999 6.66663L66.6666 23.3333H49.9999V6.66663Z" fill="white"/>
</svg>
