<?xml version="1.0" encoding="UTF-8"?>
<svg width="16px" height="16px" viewBox="0 0 16 16" version="1.1" xmlns="http://www.w3.org/2000/svg" xmlns:xlink="http://www.w3.org/1999/xlink">
    <title>Audio_16</title>
    <defs>
        <path d="M3.74663036,13.6410112 C3.08122817,13.7468821 2.7098735,13.643217 2.16781825,13.1520037 C1.39146473,12.4484681 0.855168994,11.7258776 0.508046565,10.5581215 C0.160924135,9.39036543 0.00957569857,7.98143548 1.02238047,6.88141073 C1.22085058,6.66579554 1.1783441,6.22197687 1.24162442,5.88241524 C1.83703474,2.68756635 4.34875223,0.564015048 7.52587191,0.57035501 C10.8046236,0.577248914 13.4278807,2.96870531 13.8018099,6.28911453 C13.8245013,6.48955918 13.8139546,6.72260433 13.9123906,6.88141073 C14.8596779,8.40685585 14.5956903,9.97071146 13.9280509,11.456455 C13.5860815,12.2172409 13.0415809,12.9162759 12.3751262,13.4909198 C11.9676734,13.8422418 11.16359,13.7813382 10.6263889,13.4347073 C10.6780172,13.3175891 11.491341,11.4063629 11.8109758,10.2860045 C12.1629637,9.05217262 12.4172878,8.04330273 12.6343867,6.88141073 C12.6918149,6.5740607 12.4821734,6.18950562 12.4348909,5.94374291 C11.7148376,2.20307775 7.14459198,0.599843319 4.26565685,3.07522179 C3.2896058,3.91411978 2.69898945,4.96960127 2.52225198,6.26748846 C2.50982006,6.35882317 2.40899774,6.59368548 2.44683378,6.8018581 C2.65817494,7.96465032 3.01428101,9.05217262 3.36626888,10.2860045 C3.69000223,11.4207287 4.01493586,12.1963361 4.34190035,12.999847 C4.38309867,13.1011125 4.41929256,13.1846457 4.45135794,13.2526466 C4.28158187,13.4395658 4.06949262,13.5896909 3.74663036,13.6410112 Z M4.3765042,11.3014994 C3.94251517,9.93317787 3.50570885,8.57876828 3.06756516,7.25031987 C3.04397038,7.17878403 3.01687534,7.10604542 2.98897628,7.03772317 C3.0250492,7.04286708 3.16605279,7.04286708 3.39300384,7.09159168 C3.66793919,7.15061814 3.94440972,7.32804954 4.04955733,7.59046742 C4.57529537,8.90287958 4.87756466,10.0061046 5.30838222,11.3536994 C5.38380725,11.5902951 5.34656071,12.1684336 5.17544126,12.406633 C5.04805451,12.5839562 4.9938952,12.6125875 4.84491803,12.7719468 C4.78790312,12.6252976 4.45266807,11.5417423 4.3765042,11.3014994 Z M9.68180552,12.373282 C9.52420491,12.0538123 9.62186146,11.4726915 9.85925394,10.78992 C10.2283892,9.72572356 10.5818641,8.6541032 11.0056505,7.61217834 C11.1069629,7.36267155 11.4271635,7.06621205 11.6767428,7 C11.9263221,6.93378795 12.1096796,6.94441015 12.228077,6.94441015 C12.1867608,7.03702574 12.144425,7.14497692 12.1096796,7.25031987 C11.6715359,8.57876828 11.2347296,9.93317787 10.8007405,11.3014994 C10.7245767,11.5417423 10.5773784,11.9484384 10.5061194,12.1608097 C10.4348604,12.3731809 10.2628497,12.904393 10.218708,13.0480642 C10.0379293,12.9346512 9.83940613,12.6927517 9.68180552,12.373282 Z" id="path-1"></path>
    </defs>
    <g id="Audio_16" stroke="none" stroke-width="1" fill="none" fill-rule="evenodd">
        <g id="icon-/-Audio-/-Audio-Animation" transform="translate(0.500000, 1.000000)">
            <mask id="mask-2" fill="white">
                <use xlink:href="#path-1"></use>
            </mask>
            <use id="Stroke-2" fill="#FFFFFF" xlink:href="#path-1"></use>
        </g>
    </g>
</svg>