<svg width="80" height="80" viewBox="0 0 80 80" fill="none" xmlns="http://www.w3.org/2000/svg">
<path d="M40.0013 15.9989C50.7327 15.9734 61.195 23.0271 63.4728 34.4772C63.5844 35.0381 63.9303 35.5541 64.2496 36.0303C64.6004 36.5535 64.9191 37.0288 64.8596 37.4632C64.2514 41.8995 62.8085 46.6904 61.3864 51.4126C61.0996 52.3649 60.8136 53.3144 60.5355 54.2577C59.1021 59.119 57.6638 62.5334 56.2171 65.9674L55.9423 66.6202C55.5146 67.6375 55.2014 68.262 54.9586 68.6011C57.4877 70.1801 61.4744 70.63 63.1915 68.8572L63.5302 68.5079C66.1749 65.782 68.9586 62.9129 70.5025 59.5895C73.6457 52.8214 74.8885 45.6975 70.4288 38.7486C70.0753 38.1969 70.0203 37.4484 69.9667 36.7192C69.9501 36.4924 69.9335 36.2671 69.9081 36.0505C68.1477 20.9249 55.4374 10.0322 40.0013 10.0012C39.881 10.001 40.1213 10.0002 40.0013 10.0012V15.9989Z" fill="white"/>
<path d="M52.968 66.8421C53.0133 66.5265 53.0647 66.197 53.1182 65.8631L53.2059 65.3208C53.3304 64.5544 53.4544 63.7911 53.5303 63.14C53.6383 62.214 54.0953 60.1129 54.4539 58.9559C56.497 52.3659 58.5535 45.8429 60.6162 39.445C60.7273 39.1005 60.8549 38.7501 60.9862 38.4211C60.8164 38.4459 60.6352 38.4659 60.4421 38.4813C59.1436 38.5839 57.329 39.9767 56.8339 41.2406C54.3588 47.5613 52.1335 53.9939 50.1052 60.4841C49.7501 61.6236 50.3475 63.6444 51.2081 64.5119C51.813 65.1217 52.2987 65.8454 52.7863 66.5719L52.968 66.8421Z" fill="white"/>
<path d="M40.0013 15.9989C29.27 15.9734 18.8051 23.0271 16.5272 34.4772C16.4157 35.0381 16.0697 35.5541 15.7504 36.0303C15.3996 36.5535 15.0809 37.0288 15.1405 37.4632C15.7487 41.8995 17.1915 46.6904 18.6137 51.4126C18.9005 52.3649 19.1864 53.3144 19.4645 54.2577C20.8979 59.119 22.3363 62.5334 23.7829 65.9674L24.0577 66.6202C24.4855 67.6375 24.7986 68.262 25.0414 68.6011C22.5123 70.1801 18.5256 70.63 16.8086 68.8572L16.4699 68.5079C13.8251 65.782 11.0414 62.9129 9.49756 59.5895C6.35438 52.8214 5.11155 45.6975 9.57128 38.7486C9.92473 38.1969 9.97973 37.4484 10.0333 36.7192C10.05 36.4924 10.0665 36.2671 10.0919 36.0505C11.8523 20.9249 24.5653 10.0322 40.0013 10.0012C39.881 10.001 40.1213 10.0002 40.0013 10.0012V15.9989Z" fill="white"/>
<path d="M27.032 66.8421C26.9867 66.5265 26.9353 66.197 26.8819 65.8631L26.7942 65.3208C26.6697 64.5544 26.5457 63.7911 26.4697 63.14C26.3617 62.214 25.9047 60.1129 25.5462 58.9559C23.503 52.3659 21.4466 45.8429 19.3838 39.445C19.2727 39.1005 19.1452 38.7501 19.0138 38.4211C19.1837 38.4459 19.3648 38.4659 19.558 38.4813C20.8565 38.5839 22.6711 39.9767 23.1661 41.2406C25.6412 47.5613 27.8666 53.9939 29.8948 60.4841C30.2499 61.6236 29.6526 63.6444 28.7919 64.5119C28.1871 65.1217 27.7013 65.8454 27.2137 66.5719L27.032 66.8421Z" fill="white"/>
</svg>
