<?xml version="1.0" encoding="utf-8"?>
<svg version="1.1" id="Layer_1" xmlns="http://www.w3.org/2000/svg" xmlns:xlink="http://www.w3.org/1999/xlink" x="0px" y="0px"
	 viewBox="0 0 24 24" style="enable-background:new 0 0 24 24;" xml:space="preserve">
<path d="M3.145,8.433c0-1.47,1.196-2.666,2.666-2.666h9.544c-0.158-0.819-0.88-1.443-1.744-1.443H3.487
	c-0.978,0-1.778,0.8-1.778,1.778v5.356c0,0.861,0.62,1.582,1.436,1.743V8.433z" fill="#FFFFFF"/>
<g>
	<path d="M6.833,11.654c0-1.47,1.196-2.666,2.666-2.666h9.069c-0.158-0.819-0.88-1.443-1.744-1.443H6.7
		c-0.978,0-1.778,0.8-1.778,1.778v5.356c0,0.978,0.8,1.778,1.778,1.778h0.133V11.654z" fill="#FFFFFF"/>
</g>
<path d="M20.513,10.765H10.388c-0.978,0-1.778,0.8-1.778,1.777v5.356c0,0.978,0.8,1.778,1.778,1.778h10.125
	c0.978,0,1.778-0.8,1.778-1.778v-5.356C22.29,11.565,21.49,10.765,20.513,10.765z M19.332,15.967h-7.763
	c-0.264,0-0.478-0.355-0.478-0.793c0-0.438,0.214-0.793,0.478-0.793h7.763c0.264,0,0.478,0.355,0.478,0.793
	C19.81,15.612,19.597,15.967,19.332,15.967z" fill="#FFFFFF"/>
</svg>