<svg width="80" height="80" viewBox="0 0 80 80" fill="none" xmlns="http://www.w3.org/2000/svg">
<path d="M39.5051 56.5586H40.1692C40.5425 56.5586 40.8181 56.654 40.996 56.845C41.174 57.0316 41.2629 57.2747 41.2629 57.5742C41.2629 57.8606 41.2043 58.0907 41.0872 58.2643C40.9743 58.4336 40.8224 58.5573 40.6314 58.6354C40.4405 58.7092 40.2343 58.7461 40.0129 58.7461H39.5051V56.5586Z" fill="white"/>
<path d="M48.1963 56.5586H48.8603C49.2336 56.5586 49.5092 56.654 49.6872 56.845C49.8651 57.0316 49.9541 57.2747 49.9541 57.5742C49.9541 57.8606 49.8955 58.0907 49.7783 58.2643C49.6655 58.4336 49.5135 58.5573 49.3226 58.6354C49.1316 58.7092 48.9254 58.7461 48.7041 58.7461H48.1963V56.5586Z" fill="white"/>
<path fill-rule="evenodd" clip-rule="evenodd" d="M44.9999 6.66663H13.3333V73.3333H66.6666V28.3333H44.9999V6.66663ZM31.4325 56.6497C31.6712 56.5195 31.9425 56.4544 32.2463 56.4544C32.6456 56.4544 33.0232 56.5108 33.3791 56.6237C33.735 56.7365 34.0866 56.8754 34.4338 57.0403L35.2215 55.0156C34.7354 54.7812 34.2363 54.6119 33.7241 54.5078C33.2163 54.3993 32.7324 54.345 32.2723 54.345C31.5301 54.345 30.8704 54.4665 30.2931 54.7096C29.7202 54.9483 29.2385 55.289 28.8478 55.7317C28.4572 56.1701 28.1599 56.6888 27.9559 57.2877C27.7563 57.8867 27.6564 58.5464 27.6564 59.2669C27.6564 60.2304 27.8105 61.0768 28.1187 61.8059C28.4312 62.5351 28.9151 63.1059 29.5705 63.5182C30.2302 63.9262 31.0766 64.1302 32.1096 64.1302C32.6043 64.1302 33.0709 64.0889 33.5093 64.0065C33.952 63.924 34.3839 63.7895 34.8049 63.6028V61.4283C34.4056 61.5933 34.0084 61.7343 33.6135 61.8515C33.2228 61.9687 32.8148 62.0273 32.3895 62.0273C31.9208 62.0273 31.5301 61.9231 31.2176 61.7148C30.9095 61.5065 30.6794 61.1983 30.5275 60.7903C30.3756 60.3823 30.2997 59.8789 30.2997 59.2799C30.2997 58.8372 30.3431 58.4422 30.4299 58.095C30.521 57.7434 30.6512 57.4461 30.8205 57.2031C30.9898 56.96 31.1938 56.7756 31.4325 56.6497ZM42.9361 55.2695C42.3372 54.7443 41.4344 54.4817 40.2278 54.4817H36.9335V64H39.5051V60.8424H40.2278C40.9049 60.8424 41.4734 60.7513 41.9335 60.569C42.3979 60.3867 42.769 60.1393 43.0468 59.8268C43.3289 59.5143 43.5307 59.1584 43.6523 58.7591C43.7781 58.3598 43.8411 57.9431 43.8411 57.5091C43.8411 56.5412 43.5394 55.7947 42.9361 55.2695ZM51.6273 55.2695C51.0283 54.7443 50.1255 54.4817 48.9189 54.4817H45.6247V64H48.1963V60.8424H48.9189C49.596 60.8424 50.1646 60.7513 50.6247 60.569C51.0891 60.3867 51.4602 60.1393 51.7379 59.8268C52.0201 59.5143 52.2219 59.1584 52.3434 58.7591C52.4693 58.3598 52.5322 57.9431 52.5322 57.5091C52.5322 56.5412 52.2306 55.7947 51.6273 55.2695Z" fill="white"/>
<path d="M49.9999 6.66663L66.6666 23.3333H49.9999V6.66663Z" fill="white"/>
</svg>
