<?xml version="1.0" encoding="UTF-8"?>
<svg width="16px" height="16px" viewBox="0 0 16 16" version="1.1" xmlns="http://www.w3.org/2000/svg" xmlns:xlink="http://www.w3.org/1999/xlink">
    <title>FBX_16</title>
    <g id="FBX_16" stroke="none" stroke-width="1" fill="none" fill-rule="evenodd">
        <g id="Icons-/-Editor-/-FBX">
            <rect id="Icon-Background" x="0" y="0" width="16" height="16"></rect>
            <path d="M8.33333333,7.33333333 C9.99018758,7.33333333 11.3333333,8.67647908 11.3333333,10.3333333 C11.3333333,11.9901876 9.99018758,13.3333333 8.33333333,13.3333333 C6.67647908,13.3333333 5.33333333,11.9901876 5.33333333,10.3333333 C5.33333333,8.67647908 6.67647908,7.33333333 8.33333333,7.33333333 Z M5.33333333,2.66666667 L7.39454539,6.44411326 C5.74287843,6.84136196 4.49028751,8.26341016 4.34702406,10.0000065 L1.33333333,10 L5.33333333,2.66666667 Z M14.6666667,4.66666667 L14.6666667,10 L12.3196426,10.0000065 C12.1593478,8.05696075 10.6102902,6.50769657 8.66733573,6.34707985 L8.66666667,4.66666667 L14.6666667,4.66666667 Z" id="Combined-Shape" fill="#FFFFFF"></path>
        </g>
    </g>
</svg>