<?xml version="1.0" encoding="UTF-8"?>
<svg width="16px" height="16px" viewBox="0 0 16 16" version="1.1" xmlns="http://www.w3.org/2000/svg" xmlns:xlink="http://www.w3.org/1999/xlink">
    <title>Font_16</title>
    <g id="Font_16" stroke="none" stroke-width="1" fill="none" fill-rule="evenodd">
        <g id="Group-2" transform="translate(0.500000, 1.500000)" fill="#FFFFFF" fill-rule="nonzero">
            <path d="M5.12843243,2.19079945 C5.43467377,2.19079945 5.71132697,2.37365568 5.83134857,2.65539771 L8.45200333,8.76771202 L10.2420106,12.9775685 L8.5971708,12.9775685 L7.24482126,9.82208624 L3.0120436,9.82208624 L1.65969406,12.9775685 L-8.56203997e-13,12.9775685 L1.80486152,8.76771202 L4.42551628,2.65539771 C4.54553789,2.37365568 4.82219109,2.19079945 5.12843243,2.19079945 Z M5.12843243,4.88639244 L3.66911739,8.29400767 L6.58774747,8.29400767 L5.12843243,4.88639244 Z" id="Combined-Shape"></path>
            <path d="M9.83605419,4.16555679e-13 C10.1422955,4.16555679e-13 10.4189487,0.18285623 10.5389703,0.464598265 L12.2198568,4.39176021 L14.0449439,8.63718245 L12.2198568,8.63718245 L11.0941854,5.96897887 L8.51677968,5.96897887 L8.34907536,6.59020005 L7.44211057,4.48568348 L9.13313804,0.464598265 C9.25315965,0.18285623 9.52981285,4.16555679e-13 9.83605419,4.16555679e-13 Z M9.83313753,1.90899779 L8.87608278,4.71055394 L10.6439509,4.71055394 L9.83313753,1.90899779 Z" id="Combined-Shape"></path>
        </g>
    </g>
</svg>