<svg width="80" height="80" viewBox="0 0 80 80" fill="none" xmlns="http://www.w3.org/2000/svg">
<path d="M32.6738 38.3159L39.8271 53.9538L46.9799 38.3159H32.6738Z" fill="white"/>
<path d="M43.7712 52.2695L50.0841 38.4685H55.8143L43.7712 52.2695Z" fill="white"/>
<path d="M55.8144 35.112L50.0369 29.0598H46.0291L50.1219 35.112H55.8144Z" fill="white"/>
<path d="M42.4492 28.953L46.6884 35.2221H32.966L37.2051 28.953H42.4492Z" fill="white"/>
<path d="M33.6253 29.0598H29.6179L23.84 35.1121H29.5325L33.6253 29.0598Z" fill="white"/>
<path d="M29.5638 38.3219L36.0118 52.4175L23.7112 38.3219H29.5638Z" fill="white"/>
<path fill-rule="evenodd" clip-rule="evenodd" d="M10.0001 13.3334C8.15913 13.3334 6.66675 14.8258 6.66675 16.6667V63.3334C6.66675 65.1743 8.15913 66.6667 10.0001 66.6667H70.0001C71.841 66.6667 73.3334 65.1743 73.3334 63.3334V23.3334C73.3334 21.4924 71.841 20 70.0001 20H37.0831L34.2709 14.8076C33.6517 13.8861 32.6144 13.3334 31.5042 13.3334H10.0001ZM39.2117 59.6162L20.2041 37.1235C19.9222 36.7602 19.9335 36.253 20.2312 35.9022L27.7734 27.0172C27.9619 26.795 28.2407 26.6667 28.5346 26.6667H51.466C51.7599 26.6667 52.0387 26.795 52.2272 27.0172L59.769 35.9022C60.0666 36.253 60.0779 36.7602 59.7961 37.1235L40.7884 59.6162C40.6007 59.8581 40.3092 60 40.0001 60C39.691 60 39.3995 59.8581 39.2117 59.6162Z" fill="white"/>
</svg>
