<?xml version="1.0" encoding="UTF-8"?>
<svg width="16px" height="16px" viewBox="0 0 16 16" version="1.1" xmlns="http://www.w3.org/2000/svg" xmlns:xlink="http://www.w3.org/1999/xlink">
    <title>Image_16</title>
    <g id="Image_16" stroke="none" stroke-width="1" fill="none" fill-rule="evenodd">
        <g id="Sky-Icon-/-Editor-File-/-Image">
            <rect id="Icon-Background" x="0" y="0" width="16" height="16"></rect>
            <g id="picture" transform="translate(2.000000, 2.000000)" fill="#FFFFFF" fill-rule="nonzero">
                <path d="M10,7.73333333 L8,5.73333333 L7.33333333,6.4 L5.33333333,4.4 L2,7.73333333 L2,10 L10,10 L10,7.73333333 Z M9,2 C9.55228475,2 10,2.44771525 10,3 C10,3.55228475 9.55228475,4 9,4 C8.44771525,4 8,3.55228475 8,3 C8,2.44771525 8.44771525,2 9,2 Z M0,5.92118946e-16 L0,12 L12,12 L12,5.92118946e-16 L0,5.92118946e-16 Z M10.6666667,10.6666667 L1.33333333,10.6666667 L1.33333333,1.33333333 L10.6666667,1.33333333 L10.6666667,10.6666667 Z" id="Shape"></path>
            </g>
        </g>
    </g>
</svg>