<?xml version="1.0" encoding="UTF-8"?>
<svg width="16px" height="16px" viewBox="0 0 16 16" version="1.1" xmlns="http://www.w3.org/2000/svg" xmlns:xlink="http://www.w3.org/1999/xlink">
    <title>InputBindings_16</title>
    <g id="InputBindings_16" stroke="none" stroke-width="1" fill="none" fill-rule="evenodd">
        <g id="Group" fill="#FFFFFF" fill-rule="nonzero">
            <g id="Combined-Shape" transform="translate(2.968018, 1.985777)">
                <path d="M5.14801938,1.11022302e-14 C6.53565002,1.11022302e-14 7.66054691,1.12489689 7.66054691,2.51252753 C7.66054691,3.63431734 6.92537662,4.58439894 5.91055064,4.90725773 L5.91,7.488 L8.19869753,7.4887082 C9.30666495,7.4887082 10.213971,8.34784173 10.2907727,9.43626588 L10.2960388,9.58604943 L10.2960388,12.035532 L-1.44773082e-13,12.035532 L-1.44773082e-13,9.58604943 C-1.44773082e-13,8.42771985 0.939011653,7.4887082 2.09734123,7.4887082 L2.09734123,7.4887082 L4.385,7.488 L4.38548812,4.90725773 C3.42087488,4.60037373 2.70892773,3.72680028 2.64083618,2.6777269 L2.63549185,2.51252753 C2.63549185,1.12489689 3.76038874,1.11022302e-14 5.14801938,1.11022302e-14 Z M8.19869753,8.63271251 L2.09734123,8.63271251 C1.57082779,8.63271251 1.14400431,9.05953598 1.14400431,9.58604943 L1.14400431,9.58604943 L1.14400431,10.8909966 L9.15203445,10.8909966 L9.15203445,9.58604943 C9.15203445,9.09244307 8.77689663,8.68645485 8.29617069,8.63763448 L8.29617069,8.63763448 L8.19869753,8.63271251 Z M5.14801938,1.14400431 C4.39220488,1.14400431 3.77949616,1.75671302 3.77949616,2.51252753 C3.77949616,3.26834203 4.39220488,3.88105074 5.14801938,3.88105074 C5.90383388,3.88105074 6.5165426,3.26834203 6.5165426,2.51252753 C6.5165426,1.75671302 5.90383388,1.14400431 5.14801938,1.14400431 Z"></path>
            </g>
        </g>
    </g>
</svg>