<svg width="80" height="80" viewBox="0 0 80 80" fill="none" xmlns="http://www.w3.org/2000/svg">
<path d="M39.0396 60.7057C38.9094 60.2934 38.8443 59.8007 38.8443 59.2278C38.8443 58.6549 38.9072 58.1601 39.0331 57.7434C39.1633 57.3268 39.3695 57.0056 39.6516 56.7799C39.9381 56.5542 40.3135 56.4414 40.7779 56.4414C41.4767 56.4414 41.9693 56.6909 42.2558 57.1901C42.5422 57.6892 42.6855 58.3684 42.6855 59.2278C42.6855 59.8007 42.6225 60.2934 42.4967 60.7057C42.3751 61.118 42.1733 61.4349 41.8912 61.6562C41.6134 61.8776 41.238 61.9882 40.7649 61.9882C40.3092 61.9882 39.9402 61.8776 39.6581 61.6562C39.376 61.4349 39.1698 61.118 39.0396 60.7057Z" fill="white"/>
<path fill-rule="evenodd" clip-rule="evenodd" d="M45 6.66663H13.3334V73.3333H66.6667V28.3333H45V6.66663ZM22.048 66.9427C22.265 66.973 22.5189 66.9882 22.8097 66.9882C23.4781 66.9882 24.0662 66.8602 24.574 66.6041C25.0818 66.348 25.4789 65.9336 25.7654 65.3606C26.0519 64.7877 26.1951 64.0238 26.1951 63.069V54.4817H23.6105V63.2903C23.6105 63.6679 23.5757 63.9826 23.5063 64.2343C23.4368 64.4861 23.3153 64.6749 23.1417 64.8007C22.9724 64.9266 22.7337 64.9895 22.4256 64.9895C22.2433 64.9895 22.074 64.9722 21.9177 64.9375C21.7615 64.9071 21.6139 64.8789 21.475 64.8528V66.8515C21.6356 66.8862 21.8266 66.9166 22.048 66.9427ZM34.3589 62.5807C34.6193 62.1163 34.7495 61.6258 34.7495 61.1093C34.7495 60.6145 34.6627 60.2 34.4891 59.8658C34.3198 59.5273 34.0724 59.2387 33.7469 59C33.4214 58.7569 33.0264 58.5312 32.562 58.3229C32.0933 58.1059 31.7222 57.9301 31.4487 57.7955C31.1796 57.6566 30.9865 57.5286 30.8693 57.4114C30.7565 57.2942 30.7 57.1618 30.7 57.0143C30.7 56.8971 30.7326 56.7929 30.7977 56.7018C30.8671 56.6106 30.9713 56.539 31.1102 56.4869C31.2534 56.4305 31.4357 56.4023 31.6571 56.4023C31.9956 56.4023 32.3624 56.4587 32.7573 56.5716C33.1523 56.6801 33.5538 56.8276 33.9618 57.0143L34.7495 55.0286C34.3546 54.8507 33.9075 54.6922 33.4084 54.5533C32.9136 54.4145 32.3559 54.345 31.7352 54.345C31.0277 54.345 30.4027 54.4492 29.8602 54.6575C29.322 54.8658 28.901 55.1783 28.5972 55.595C28.2977 56.0073 28.148 56.5195 28.148 57.1315C28.148 57.5395 28.2022 57.8932 28.3107 58.1927C28.4192 58.4921 28.5733 58.7547 28.773 58.9804C28.9769 59.2018 29.22 59.3993 29.5021 59.5729C29.7886 59.7465 30.1076 59.9158 30.4592 60.0807C30.8715 60.2673 31.2035 60.4236 31.4552 60.5494C31.707 60.6753 31.8893 60.7968 32.0021 60.914C32.1193 61.0269 32.1779 61.1658 32.1779 61.3307C32.1779 61.4696 32.1388 61.5933 32.0607 61.7018C31.9826 61.8059 31.8611 61.8884 31.6961 61.9492C31.5355 62.0099 31.3272 62.0403 31.0711 62.0403C30.6458 62.0403 30.1705 61.973 29.6454 61.8385C29.1202 61.6996 28.5993 61.5 28.0829 61.2395V63.5312C28.3867 63.6744 28.6796 63.7916 28.9618 63.8828C29.2439 63.9696 29.5477 64.0325 29.8732 64.0716C30.2031 64.1106 30.585 64.1302 31.0191 64.1302C31.8871 64.1302 32.5946 63.9869 33.1414 63.7005C33.6927 63.414 34.0985 63.0408 34.3589 62.5807ZM45.1269 61.233C45.3048 60.6297 45.3938 59.9613 45.3938 59.2278C45.3938 58.2382 45.2354 57.3767 44.9185 56.6432C44.6017 55.9097 44.1026 55.3411 43.4211 54.9375C42.7441 54.5338 41.863 54.332 40.7779 54.332C39.7102 54.332 38.8335 54.5338 38.1477 54.9375C37.4619 55.3368 36.9541 55.9032 36.6243 56.6367C36.2987 57.3658 36.136 58.2252 36.136 59.2148C36.136 59.957 36.2271 60.6297 36.4094 61.233C36.5917 61.8363 36.8717 62.355 37.2493 62.789C37.6269 63.2187 38.1065 63.5507 38.6881 63.7851C39.274 64.0151 39.9663 64.1302 40.7649 64.1302C41.5809 64.1302 42.2818 64.0151 42.8677 63.7851C43.4537 63.5507 43.9333 63.2165 44.3066 62.7825C44.6798 62.3485 44.9533 61.832 45.1269 61.233ZM53.0693 64H56.4417V54.4817H54.15V58.7851C54.15 59.0021 54.1544 59.2517 54.1631 59.5338C54.1685 59.6519 54.174 59.7696 54.1794 59.8869C54.187 60.0499 54.1946 60.2122 54.2021 60.3737C54.2151 60.6471 54.2282 60.888 54.2412 61.0963H54.2021L50.7386 54.4817H47.3792V64H49.6579V59.7096C49.6579 59.4709 49.6513 59.204 49.6383 58.9088C49.6253 58.6093 49.6101 58.3164 49.5928 58.0299C49.5754 57.7434 49.5559 57.4982 49.5342 57.2942H49.5928L53.0693 64Z" fill="white"/>
<path d="M50 6.66663L66.6667 23.3333H50V6.66663Z" fill="white"/>
</svg>
