<?xml version="1.0" encoding="UTF-8"?>
<svg width="16px" height="16px" viewBox="0 0 16 16" version="1.1" xmlns="http://www.w3.org/2000/svg" xmlns:xlink="http://www.w3.org/1999/xlink">
    <title>LegacyMesh_16</title>
    <defs>
        <path d="M7.10130959,0.566562987 C8.84711083,0.566562987 10.3811222,1.3088924 11.6877329,2.53531271 C12.1399225,2.95975006 12.5325244,3.41353791 12.8648834,3.86777483 C13.0658304,4.1424101 13.2035333,4.35880708 13.2766478,4.48825069 L13.464221,4.82033445 L13.148022,5.03748332 C13.1140945,5.06078292 13.0419814,5.11784595 12.9442786,5.2087781 C12.7753678,5.36598369 12.6051724,5.55760067 12.4458403,5.78363085 C11.9881841,6.43286634 11.713623,7.22424336 11.713623,8.16980087 C11.713623,8.71025992 11.802888,9.17747843 11.9637213,9.57918105 L11.9665655,9.57869261 C12.0834729,9.87677119 12.2392199,10.1344891 12.4261251,10.360378 C12.6860963,10.6745725 12.9399686,10.8575297 13.0900598,10.9290799 L13.4963591,11.1227676 L13.2766478,11.5117493 C13.2035333,11.6411929 13.0658304,11.8575899 12.8648834,12.1322252 C12.5325244,12.5864621 12.1399225,13.0402499 11.6877329,13.4646873 C10.3811222,14.6911076 8.84711083,15.433437 7.10130959,15.433437 C5.35550835,15.433437 3.82149698,14.6911076 2.51488624,13.4646873 C2.06269673,13.0402499 1.6700948,12.5864621 1.33773575,12.1322252 C1.13678881,11.8575899 0.999085903,11.6411929 0.925971366,11.5117493 L0.686331463,11.0874855 L1.14629088,10.9147372 C1.28610399,10.8622272 1.52979422,10.7070418 1.78207293,10.4145757 C2.22128823,9.90539443 2.48899616,9.17542254 2.48899616,8.16562004 C2.48899616,7.14699849 2.21507056,6.34395508 1.7613265,5.72497481 C1.49568072,5.36259102 1.23664991,5.14457038 1.08192256,5.05476093 L0.723496271,4.84671713 L0.925971366,4.48825069 C0.999085903,4.35880708 1.13678881,4.1424101 1.33773575,3.86777483 C1.6700948,3.41353791 2.06269673,2.95975006 2.51488624,2.53531271 C3.82149698,1.3088924 5.35550835,0.566562987 7.10130959,0.566562987 Z M7.11146325,14.0561181 L6.18000228,14.5101904 C6.47988469,14.5651028 6.78703052,14.5935006 7.10130959,14.5935006 C7.42083832,14.5935006 7.7329935,14.5641462 8.03763834,14.5074165 L7.11146325,14.0561181 Z M5.55698425,11.6710079 L4.27546325,12.2931181 L4.27546325,13.7201181 L5.55698425,14.3439597 L6.83746325,13.7201181 L6.83746325,12.2931181 L5.55698425,11.6710079 Z M8.66636414,11.6710079 L7.38446325,12.2931181 L7.38446325,13.7201181 L8.66636414,14.3439597 L9.94646325,13.7201181 L9.94646325,12.2931181 L8.66636414,11.6710079 Z M2.44760436,11.6710079 L2.13733146,11.785563 L2.21621671,11.8889342 C2.47651725,12.2196762 2.77207544,12.5469926 3.10132065,12.8560311 C3.3050461,13.0472533 3.5142138,13.2248571 3.72874722,13.3877352 L3.72846325,12.2931181 L2.44760436,11.6710079 Z M11.775744,11.6710079 L10.4944632,12.2931181 L10.4949728,13.3716544 C10.7021262,13.2131872 10.9042578,13.0409788 11.1012985,12.8560311 C11.4738481,12.5063459 11.8032664,12.1332587 12.0872781,11.7582865 L11.775744,11.6710079 Z M3.91937751,9.15814674 L3.17272688,9.52353021 C3.0327665,10.0433875 2.80917077,10.4852783 2.5179529,10.8527484 L2.51644337,11.1492308 L3.91937751,11.8310985 L5.19946325,11.2081181 L5.19946325,9.78011814 L3.91937751,9.15814674 Z M7.0287574,9.15814674 L5.74746325,9.78011814 L5.74746325,11.2081181 L7.0287574,11.8310985 L8.30946325,11.2081181 L8.30946325,9.78011814 L7.0287574,9.15814674 Z M10.1381373,9.15814674 L8.85646325,9.78011814 L8.85646325,11.2081181 L10.1381373,11.8310985 L11.5410714,11.1492308 L11.5404512,10.5876665 C11.3457511,10.2965811 11.1880932,9.97194958 11.0739907,9.61310046 L10.1381373,9.15814674 Z M5.55698425,6.64528559 L4.27546325,7.26811814 L4.27546325,8.69511814 L5.55698425,9.3182374 L6.83746325,8.69511814 L6.83746325,7.26811814 L5.55698425,6.64528559 Z M8.66636414,6.64528559 L7.38446325,7.26811814 L7.38446325,8.69511814 L8.66636414,9.3182374 L9.94646325,8.69511814 L9.94646325,7.26811814 L8.66636414,6.64528559 Z M11.0005218,6.95936698 L10.4944632,7.25611814 L10.4944632,8.70711814 L10.9211004,8.95677054 C10.8826512,8.70798234 10.8626348,8.44571353 10.8626348,8.16980087 C10.8626348,7.7418219 10.9106262,7.33829037 11.0005218,6.95936698 Z M3.33998434,8.16562004 C3.33998434,8.43738771 3.32283934,8.69475364 3.28975594,8.93798499 L3.72846325,8.70211814 L3.72846325,7.26111814 L3.22215878,6.98738679 C3.29915963,7.35283618 3.33998434,7.74544327 3.33998434,8.16562004 Z M3.91937751,4.13242443 L2.51644337,4.81429215 L2.51633146,5.32856299 L2.58524004,5.42699051 C2.77403886,5.71654962 2.93191012,6.0346913 3.05364429,6.38187724 L3.91937751,6.80537624 L5.19946325,6.18211814 L5.19946325,4.75511814 L3.91937751,4.13242443 Z M7.0287574,4.13242443 L5.74746325,4.75511814 L5.74746325,6.18211814 L7.0287574,6.80537624 L8.30946325,6.18211814 L8.30946325,4.75511814 L7.0287574,4.13242443 Z M10.1381373,4.13242443 L8.85646325,4.75511814 L8.85646325,6.18211814 L10.1381373,6.80537624 L11.2161428,6.27914002 C11.3080998,6.05012112 11.4165453,5.83179312 11.5397469,5.62420178 L11.5410714,4.81429215 L10.1381373,4.13242443 Z M3.10132065,3.14396895 C2.76278223,3.46173031 2.45985935,3.79881592 2.19425944,4.13908008 L2.44760436,4.29251509 L3.72846325,3.66911814 L3.72874722,2.6122648 C3.5142138,2.77514294 3.3050461,2.95274671 3.10132065,3.14396895 Z M5.3802454,1.70389512 L4.27546325,2.24211814 L4.27546325,3.66911814 L5.55698425,4.29251509 L6.83746325,3.66911814 L6.83746325,2.24211814 L5.58995064,1.63443221 C5.51961634,1.6561111 5.44971397,1.67927435 5.3802454,1.70389512 Z M8.62565208,1.63845246 L7.38446325,2.24211814 L7.38446325,3.66911814 L8.66636414,4.29251509 L9.94646325,3.66911814 L9.94736934,2.24935287 C9.92418878,2.23495717 9.90095094,2.22073004 9.87765593,2.20667272 L8.90204915,1.73284177 C8.81067436,1.69882995 8.71854057,1.6673462 8.62565208,1.63845246 Z M10.4949728,2.62834564 L10.4944632,3.66911814 L11.775744,4.29251509 L12.0343315,4.17356299 L11.9864025,4.11106584 C11.7261019,3.78032382 11.4305437,3.45300744 11.1012985,3.14396895 C10.9042578,2.95902119 10.7021262,2.78681285 10.4949728,2.62834564 Z M7.10130959,1.40649937 C6.80627924,1.40649937 6.51753511,1.43152513 6.23518488,1.4800187 L7.11146325,1.90611814 L7.98250031,1.4826296 C7.69535768,1.43242365 7.4015896,1.40649937 7.10130959,1.40649937 Z" id="path-1"></path>
    </defs>
    <g id="LegacyMesh_16" stroke="none" stroke-width="1" fill="none" fill-rule="evenodd">
        <g id="icon-/-Rendering-/-Mesh" transform="translate(1.000000, 0.000000)">
            <mask id="mask-2" fill="white">
                <use xlink:href="#path-1"></use>
            </mask>
            <use id="Combined-Shape" fill="#FEFDFF" fill-rule="nonzero" xlink:href="#path-1"></use>
        </g>
    </g>
</svg>