<?xml version="1.0" encoding="UTF-8"?>
<svg width="16px" height="16px" viewBox="0 0 16 16" version="1.1" xmlns="http://www.w3.org/2000/svg" xmlns:xlink="http://www.w3.org/1999/xlink">
    <title>LensFlare_16</title>
    <defs>
        <path d="M5.22062244,6.18588526 L4.5949163,5.54746563 C4.29609026,5.95315794 4.11882693,6.45801337 4.11882693,7.00563733 C4.11882693,7.52551355 4.27858173,8.00684553 4.55043588,8.40138411 L5.20375654,7.79761254 C5.06674132,7.56649143 4.98788508,7.29546042 4.98788508,7.00563733 C4.98788508,6.70412159 5.07323244,6.42294481 5.22062244,6.18588526 L5.22062244,6.18588526 Z M5.68633349,5.7107116 C5.83333211,5.61556453 5.99763908,5.54575761 6.17335213,5.50731304 L6.17335213,4.60152644 C5.75870475,4.65812996 5.37773662,4.82443089 5.05943767,5.07107813 L5.68633349,5.7107116 L5.68633349,5.7107116 Z M7.75889961,7.82538941 L8.38460575,8.46380903 C8.68343179,8.05811672 8.86069512,7.5532613 8.86069512,7.00563733 C8.86069512,6.39478171 8.64013287,5.83714139 8.2763171,5.41098829 L7.63002062,6.0082684 C7.85543794,6.27631049 7.99163697,6.62474524 7.99163697,7.00563733 C7.99163697,7.30715308 7.90628961,7.58832985 7.75889961,7.82538941 L7.75889961,7.82538941 Z M7.29318856,8.30056306 C7.06505702,8.44822464 6.79523858,8.5348548 6.50579473,8.5379438 L6.50579473,9.43111968 C7.03655125,9.42752053 7.52628139,9.24535122 7.92008438,8.94019654 L7.29318856,8.30056306 L7.29318856,8.30056306 Z M8.38826418,9.41788911 C7.87242114,9.83938134 7.21835722,10.0929202 6.50579474,10.0966696 L6.50579473,12.0756762 L6.17335213,12.0756762 L6.17335213,10.0801343 C5.42399108,10.0011569 4.75598812,9.64476566 4.2695757,9.11385071 L3.03223319,10.2573508 L2.80672091,10.0128524 L4.05805912,8.85641806 C3.67858702,8.34028471 3.45394171,7.69946788 3.45394171,7.00563733 C3.45394171,6.27215862 3.70499479,5.59792555 4.12461634,5.06760983 L0.0121339,0.871567424 L0.486754756,0.405484611 L4.59125787,4.59338556 C5.03370495,4.23186472 5.57783804,3.99390337 6.17335213,3.93114039 L6.17335213,1.93559851 L6.50579473,1.93559851 L6.50579473,3.914602 C7.28717784,3.91871654 7.99821692,4.22319791 8.53378764,4.72013741 L9.49394251,3.83280252 C9.30674419,3.61663283 9.19313773,3.33256216 9.19313773,3.02141815 C9.19313773,2.34436477 9.73106794,1.79550456 10.3946385,1.79550456 C11.058209,1.79550456 11.5961392,2.34436477 11.5961392,3.02141815 C11.5961392,3.69847153 11.058209,4.24733174 10.3946385,4.24733174 C10.1555229,4.24733174 9.93272162,4.17606228 9.74552623,4.0532068 L8.76510342,4.95927246 C9.23846021,5.50459808 9.52558034,6.22123918 9.52558034,7.00563733 C9.52558034,7.73911605 9.27452726,8.41334912 8.85490571,8.94366484 L12.9673882,13.1397072 L12.4927673,13.6057901 L8.38826418,9.41788911 L8.38826418,9.41788911 Z M5.40453781,8.06496631 L4.75808736,8.66238871 C5.12297097,9.06129812 5.6179487,9.33393009 6.17335213,9.40974822 L6.17335213,8.50396163 C5.87436317,8.4385453 5.6083989,8.28232375 5.40453781,8.06496631 L5.40453781,8.06496631 Z M7.38896099,5.7781382 L8.0433488,5.17338042 C7.63080125,4.80702981 7.09344463,4.58413994 6.50579473,4.58015499 L6.50579473,5.47333086 C6.83686425,5.4768641 7.14225771,5.58969484 7.38896099,5.7781382 L7.38896099,5.7781382 Z M1.68375799,12.2157701 C1.18608008,12.2157701 0.782632423,11.8041249 0.782632423,11.2963349 C0.782632423,10.7885449 1.18608008,10.3768997 1.68375799,10.3768997 C2.1814359,10.3768997 2.58488356,10.7885449 2.58488356,11.2963349 C2.58488356,11.8041249 2.1814359,12.2157701 1.68375799,12.2157701 Z M12.79764,7.31211573 C13.4612106,7.31211573 13.9991408,7.86097594 13.9991408,8.53802933 C13.9991408,9.21508271 13.4612106,9.76394292 12.79764,9.76394292 C12.1340695,9.76394292 11.5961392,9.21508271 11.5961392,8.53802933 C11.5961392,7.86097594 12.1340695,7.31211573 12.79764,7.31211573 Z" id="path-1"></path>
    </defs>
    <g id="LensFlare_16" stroke="none" stroke-width="1" fill="none" fill-rule="evenodd">
        <g id="icon-/-Rendering-/-Lens-Flare" transform="translate(1.000000, 1.000000)">
            <ellipse id="Oval-242" fill-opacity="0.25" fill="#FFFFFF" cx="6.48976103" cy="7.00563733" rx="3.90487746" ry="3.98421918"></ellipse>
            <mask id="mask-2" fill="white">
                <use xlink:href="#path-1"></use>
            </mask>
            <use id="Shape" fill="#FFFFFF" xlink:href="#path-1"></use>
        </g>
    </g>
</svg>