<svg width="80" height="80" viewBox="0 0 80 80" fill="none" xmlns="http://www.w3.org/2000/svg">
<path d="M27.6512 62.8006C26.3263 61.7704 25.6639 60.1131 25.6639 57.8286V50.4642C25.6639 45.6489 23.1388 40.9293 18.0885 40.0559V39.6527C23.1388 38.7793 25.6639 33.1402 25.6639 28.325V21.91C25.6639 17.5874 29.8474 15.5047 35.0563 15.3703V10C30.9345 10 25.7424 11.2121 23.2965 13.1382C20.8506 15.0643 18.3567 17.3225 18.3567 20.794V29.6696C18.3567 31.8197 17.7 33.4098 16.3865 34.44C15.0729 35.4703 12.9441 36.0078 10 36.0526V42.9925C12.7177 42.9925 14.7898 43.4908 16.2166 44.4875C17.6434 45.4841 18.3567 47.1471 18.3567 49.4763V58.8567C18.3567 62.3057 20.8053 65.4226 23.1606 67.3263C25.5159 69.23 30.7533 69.9552 35.0563 70V64.5589C32.4971 64.5141 28.976 63.8309 27.6512 62.8006Z" fill="white"/>
<path d="M52.3488 62.8006C53.6737 61.7704 54.3361 60.1131 54.3361 57.8286V50.4642C54.3361 45.6489 56.8612 40.9293 61.9115 40.0559V39.6527C56.8612 38.7793 54.3361 33.1402 54.3361 28.325V21.91C54.3361 17.5874 50.1526 15.5047 44.9437 15.3703V10C49.0655 10 54.2576 11.2121 56.7035 13.1382C59.1494 15.0643 61.6433 17.3225 61.6433 20.794V29.6696C61.6433 31.8197 62.3 33.4098 63.6135 34.44C64.9271 35.4703 67.0559 36.0078 70 36.0526V42.9925C67.2823 42.9925 65.2102 43.4908 63.7834 44.4875C62.3566 45.4841 61.6433 47.1471 61.6433 49.4763V58.8567C61.6433 62.3057 59.1947 65.4226 56.8394 67.3263C54.4841 69.23 49.2467 69.9552 44.9437 70V64.5589C47.5029 64.5141 51.0239 63.8309 52.3488 62.8006Z" fill="white"/>
</svg>
