<?xml version="1.0" encoding="UTF-8"?>
<svg width="16px" height="16px" viewBox="0 0 16 16" version="1.1" xmlns="http://www.w3.org/2000/svg" xmlns:xlink="http://www.w3.org/1999/xlink">
    <title>Material_16</title>
    <g id="Material_16" stroke="none" stroke-width="1" fill="none" fill-rule="evenodd">
        <g id="Icons-/-Editor-/-Base-Material">
            <rect id="Icon-Background" x="0" y="0" width="16" height="16"></rect>
            <rect id="Icon-Background" x="0" y="0" width="16" height="16"></rect>
            <g id="community" transform="translate(1.333333, 1.333333)" fill="#FFFFFF" fill-rule="nonzero">
                <path d="M6.66666667,-3.90798505e-14 C2.96969697,-3.90798505e-14 -5.68434189e-14,2.96969697 -5.68434189e-14,6.66666667 C-5.68434189e-14,10.3636364 2.96969697,13.3333333 6.66666667,13.3333333 C10.3636364,13.3333333 13.3333333,10.3636364 13.3333333,6.66666667 C13.3333333,2.96969697 10.3636364,-3.90798505e-14 6.66666667,-3.90798505e-14 Z M11.5757576,4.24242424 L9.51515152,4.24242424 C9.33333333,3.27272727 9.09090909,2.3030303 8.72727273,1.57575758 C9.93939394,2.12121212 10.969697,3.03030303 11.5757576,4.24242424 Z M8.48484848,6.66666667 C8.48484848,7.09090909 8.48484848,7.51515152 8.42424242,7.87878788 L4.90909091,7.87878788 C4.84848485,7.51515152 4.84848485,7.09090909 4.84848485,6.66666667 C4.84848485,6.24242424 4.84848485,5.81818182 4.90909091,5.45454545 L8.42424242,5.45454545 C8.48484848,5.81818182 8.48484848,6.24242424 8.48484848,6.66666667 Z M6.66666667,12.1212121 C6.12121212,12.1212121 5.39393939,10.969697 5.03030303,9.09090909 L8.24242424,9.09090909 C7.93939394,10.969697 7.21212121,12.1212121 6.66666667,12.1212121 Z M5.03030303,4.24242424 C5.39393939,2.36363636 6.12121212,1.21212121 6.66666667,1.21212121 C7.21212121,1.21212121 7.93939394,2.36363636 8.3030303,4.24242424 L5.03030303,4.24242424 Z M4.66666667,1.57575758 C4.3030303,2.3030303 4,3.27272727 3.81818182,4.24242424 L1.75757576,4.24242424 C2.36363636,3.03030303 3.39393939,2.12121212 4.66666667,1.57575758 Z M1.33333333,5.45454545 L3.63636364,5.45454545 C3.63636364,5.87878788 3.63636364,6.24242424 3.63636364,6.66666667 C3.63636364,7.09090909 3.63636364,7.45454545 3.6969697,7.87878788 L1.33333333,7.87878788 C1.27272727,7.51515152 1.21212121,7.09090909 1.21212121,6.66666667 C1.21212121,6.24242424 1.27272727,5.81818182 1.33333333,5.45454545 Z M1.75757576,9.09090909 L3.81818182,9.09090909 C4,10.0606061 4.24242424,11.030303 4.60606061,11.7575758 C3.39393939,11.2121212 2.36363636,10.3030303 1.75757576,9.09090909 Z M8.66666667,11.7575758 C9.03030303,11.030303 9.33333333,10.1212121 9.45454545,9.09090909 L11.5151515,9.09090909 C10.969697,10.3030303 9.93939394,11.2121212 8.66666667,11.7575758 Z M12,7.87878788 L9.6969697,7.87878788 C9.75757576,7.45454545 9.75757576,7.09090909 9.75757576,6.66666667 C9.75757576,6.24242424 9.75757576,5.87878788 9.6969697,5.45454545 L12,5.45454545 C12.0606061,5.81818182 12.1212121,6.24242424 12.1212121,6.66666667 C12.1212121,7.09090909 12.0606061,7.51515152 12,7.87878788 Z" id="Shape"></path>
            </g>
            <path d="M14.6666667,13.889493 C14.6666667,12.0713112 14.6666667,11.5107852 14.6666667,7.82888691 C14.6666667,4.14698858 14.6666667,3.58646267 14.6666667,1.76828085 C14.6666667,-0.0499009695 8,4.19252327 8,7.82888691 C8,11.4652505 14.6666667,15.7076748 14.6666667,13.889493 Z" id="Path" fill="#FFFFFF" fill-rule="nonzero" transform="translate(11.333333, 7.828887) scale(-1, 1) translate(-11.333333, -7.828887) "></path>
        </g>
    </g>
</svg>