<svg width="80" height="80" viewBox="0 0 80 80" fill="none" xmlns="http://www.w3.org/2000/svg">
<path d="M34.8276 56.5586H35.4916C35.8649 56.5586 36.1405 56.654 36.3184 56.845C36.4964 57.0316 36.5854 57.2747 36.5854 57.5742C36.5854 57.8606 36.5268 58.0907 36.4096 58.2643C36.2967 58.4336 36.1448 58.5573 35.9539 58.6354C35.7629 58.7092 35.5567 58.7461 35.3354 58.7461H34.8276V56.5586Z" fill="white"/>
<path fill-rule="evenodd" clip-rule="evenodd" d="M44.9999 6.66663H13.3333V73.3333H66.6666V28.3333H44.9999V6.66663ZM38.2586 55.2695C37.6596 54.7443 36.7568 54.4817 35.5502 54.4817H32.2559V64H34.8276V60.8424H35.5502C36.2273 60.8424 36.7959 60.7513 37.2559 60.569C37.7204 60.3867 38.0915 60.1393 38.3692 59.8268C38.6513 59.5143 38.8532 59.1584 38.9747 58.7591C39.1006 58.3598 39.1635 57.9431 39.1635 57.5091C39.1635 56.5412 38.8619 55.7947 38.2586 55.2695ZM45.9862 54.4817L44.3455 58.0104L42.7179 54.4817H39.9184L43.05 60.3606V64H45.6411V60.2825L48.7726 54.4817H45.9862Z" fill="white"/>
<path d="M49.9999 6.66663L66.6666 23.3333H49.9999V6.66663Z" fill="white"/>
</svg>
