<svg width="80" height="80" viewBox="0 0 80 80" fill="none" xmlns="http://www.w3.org/2000/svg">
<path fill-rule="evenodd" clip-rule="evenodd" d="M29.3544 52.4636C29.3544 58.1632 33.4999 61.518 42.2386 61.518V66.5309C42.2386 68.4422 43.646 70 45.3821 70H66.8565C68.608 70 70 68.4468 70 66.5309V49.2891C70 47.3778 68.5926 45.82 66.8565 45.82H45.3821C43.6306 45.82 42.2386 47.3732 42.2386 49.2891V56.8487C36.1147 56.4805 34.5478 56.2031 33.9232 52.4636C32.8176 45.8441 38.6925 41.3166 41.2877 39.3167L41.3159 39.2949C41.7188 38.9845 42.2843 38.6064 42.9484 38.1625C46.5386 35.7624 53.0084 31.4375 52.21 25.4667C51.2312 18.1472 45.792 16.8615 42.2614 16.8615C41.8268 16.8615 41.2309 16.8669 40.6166 16.8724C39.329 16.8839 37.9606 16.8962 37.8274 16.8615V13.4691C37.8274 11.5578 36.42 10 34.6839 10H13.1435C11.392 10 10 11.5532 10 13.4691V29.6756C10 31.5868 11.4074 33.1447 13.1435 33.1447H34.6839C36.4354 33.1447 37.8274 31.5915 37.8274 29.6756V20.6248H41.3159C41.5435 20.6248 41.7832 20.6184 42.0314 20.6118C44.3638 20.5498 47.4498 20.4677 48.3389 25.4667C48.9956 29.1583 44.5871 32.2349 41.2601 34.5567C40.3363 35.2014 39.4959 35.7879 38.8704 36.3132C38.3595 36.7423 37.8526 37.1553 37.3544 37.5613C33.0283 41.0865 29.3544 44.0802 29.3544 52.4636ZM34.8369 17.5529H12.7466V27.9012C12.7466 28.8608 13.4548 29.6431 14.3238 29.6431H33.2597C34.1394 29.6431 34.8369 28.8707 34.8369 27.9012V17.5529ZM44.9521 53.3046V64.5176C44.9521 65.4772 45.6603 66.2595 46.5293 66.2595H65.4653C66.3449 66.2595 67.0425 65.4871 67.0425 64.5176V53.3046H44.9521Z" fill="white"/>
</svg>
