<svg width="80" height="80" viewBox="0 0 80 80" fill="none" xmlns="http://www.w3.org/2000/svg">
<path fill-rule="evenodd" clip-rule="evenodd" d="M10.6089 40.6089C10.6089 24.0667 24.0668 10.6088 40.609 10.6088C57.1509 10.6088 70.6089 24.0667 70.6089 40.6089C70.6089 57.1508 57.1509 70.6088 40.609 70.6088C24.0668 70.6088 10.6089 57.1508 10.6089 40.6089ZM40.609 14.8942C26.4301 14.8942 14.8947 26.4296 14.8947 40.6084C14.8947 48.3389 18.324 55.2837 23.7413 60.0016C43.4811 59.8358 59.4728 42.9332 59.4728 23.154C59.4476 23.4207 59.4728 22.8518 59.4728 23.154C54.7729 18.0775 48.056 14.8942 40.609 14.8942Z" fill="white"/>
</svg>
