<svg width="25" height="25" viewBox="0 0 25 25" fill="none" xmlns="http://www.w3.org/2000/svg">
<g id="Components / UI / UiCanvasRef">
<path id="Combined Shape" fill-rule="evenodd" clip-rule="evenodd" d="M12.8362 2.41431C12.5681 2.41431 12.3362 2.6397 12.3362 2.91774V4.00541H13.3362V2.91774C13.3362 2.63554 13.1123 2.41431 12.8362 2.41431ZM18.5874 18.0255C18.5072 17.8759 18.291 17.825 18.0275 17.825H7.64481C7.34058 17.825 7.18252 17.8968 7.08497 18.0255L5.02771 21.8616C4.95368 21.9996 4.97608 22.2658 5.28139 22.3896C5.5867 22.5134 5.9227 22.3753 5.99526 22.24L7.82669 18.825H17.8456L19.6771 22.24C19.7496 22.3753 20.0706 22.5134 20.3759 22.3896C20.6812 22.2658 20.7187 21.9996 20.6446 21.8616L18.5874 18.0255ZM7.64834 20.3404C7.64834 20.0642 7.87766 19.8404 8.14863 19.8404H17.5984C17.8747 19.8404 18.0986 20.0723 18.0986 20.3404C18.0986 20.6165 17.8693 20.8404 17.5984 20.8404H8.14863C7.87233 20.8404 7.64834 20.6084 7.64834 20.3404ZM5.73096 4.48665C5.17867 4.48665 4.73096 4.93436 4.73096 5.48665V15.8296C4.73096 16.3819 5.17867 16.8296 5.73096 16.8296H20.102C20.6543 16.8296 21.102 16.3819 21.102 15.8296V5.48665C21.102 4.93436 20.6543 4.48665 20.102 4.48665H5.73096Z" fill="#FFFFFF"/>
<g mask="url(#mask0_651_48131)">
</g>
</g>
</svg>
