<svg width="80" height="80" viewBox="0 0 80 80" fill="none" xmlns="http://www.w3.org/2000/svg">
<path d="M42.9101 58.5442L43.3203 60.1067H41.2956L41.7057 58.5442C41.7621 58.3359 41.8272 58.0755 41.901 57.763C41.9791 57.4505 42.0529 57.1358 42.1224 56.819C42.1962 56.4978 42.2526 56.2287 42.2916 56.0117C42.335 56.2287 42.3958 56.5065 42.4739 56.845C42.5564 57.1792 42.6389 57.5047 42.7213 57.8216C42.8038 58.1341 42.8667 58.375 42.9101 58.5442Z" fill="white"/>
<path fill-rule="evenodd" clip-rule="evenodd" d="M45 6.66663H13.3333V73.3333H66.6666V28.3333H45V6.66663ZM34.6422 64L36.9859 54.4817H34.5054L33.4508 59.2669C33.416 59.4275 33.3661 59.6662 33.301 59.983C33.2403 60.2955 33.1795 60.6189 33.1187 60.9531C33.058 61.2829 33.0146 61.5564 32.9885 61.7734C32.9581 61.513 32.9126 61.2113 32.8518 60.8684C32.791 60.5212 32.7238 60.1697 32.65 59.8138C32.5805 59.4579 32.5111 59.128 32.4416 58.8242C32.3765 58.516 32.3223 58.2686 32.2789 58.082L31.4651 54.4817H29.0823L28.2424 58.082C28.1947 58.273 28.1383 58.5204 28.0732 58.8242C28.0081 59.128 27.9386 59.4579 27.8648 59.8138C27.7954 60.1653 27.7303 60.5125 27.6695 60.8554C27.6131 61.1983 27.5675 61.5043 27.5328 61.7734C27.5154 61.6171 27.485 61.4218 27.4416 61.1875C27.3982 60.9531 27.3505 60.71 27.2984 60.4583C27.2507 60.2022 27.2029 59.9678 27.1552 59.7552C27.1118 59.5382 27.0771 59.3711 27.051 59.2539L26.0159 54.4817H23.5354L25.8922 64H28.9325L29.8505 59.8528C29.8679 59.7747 29.8961 59.6423 29.9351 59.4557C29.9785 59.2691 30.0219 59.0564 30.0653 58.8177C30.1131 58.579 30.1565 58.3446 30.1956 58.1145C30.2346 57.8802 30.2628 57.6827 30.2802 57.5221C30.2975 57.6827 30.3236 57.8802 30.3583 58.1145C30.3974 58.3446 30.4386 58.579 30.482 58.8177C30.5298 59.0564 30.571 59.2691 30.6057 59.4557C30.6448 59.6423 30.673 59.7747 30.6903 59.8528L31.6018 64H34.6422ZM43.8541 62.2161L44.3229 64H47.1354L43.9909 54.4427H40.5599L37.4544 64H40.2799L40.7617 62.2161H43.8541ZM53.5414 64L56.6599 54.4817H53.7823L52.4607 59.332C52.4086 59.5143 52.3521 59.7465 52.2914 60.0286C52.235 60.3064 52.1829 60.5842 52.1351 60.8619C52.0874 61.1397 52.0548 61.3676 52.0375 61.5455C52.0245 61.3676 51.9897 61.1375 51.9333 60.8554C51.8812 60.5733 51.8226 60.2912 51.7575 60.0091C51.6968 59.7226 51.6425 59.4882 51.5948 59.3059L50.2992 54.4817H47.4086L50.514 64H53.5414Z" fill="white"/>
<path d="M50 6.66663L66.6666 23.3333H50V6.66663Z" fill="white"/>
</svg>
