<svg width="80" height="80" viewBox="0 0 80 80" fill="none" xmlns="http://www.w3.org/2000/svg">
<path d="M34.1406 56.5586H34.8047C35.178 56.5586 35.4536 56.654 35.6315 56.845C35.8095 57.0316 35.8984 57.2747 35.8984 57.5742C35.8984 57.8606 35.8398 58.0907 35.7227 58.2643C35.6098 58.4336 35.4579 58.5573 35.2669 58.6354C35.076 58.7092 34.8698 58.7461 34.6484 58.7461H34.1406V56.5586Z" fill="white"/>
<path d="M42.5651 56.4283H43.0729C43.5373 56.4283 43.8737 56.5151 44.082 56.6888C44.2904 56.8624 44.3945 57.1033 44.3945 57.4114C44.3945 57.8585 44.2687 58.1688 44.0169 58.3424C43.7652 58.516 43.4418 58.6028 43.0469 58.6028H42.5651V56.4283Z" fill="white"/>
<path d="M51.569 60.7057C51.4388 60.2934 51.3737 59.8007 51.3737 59.2278C51.3737 58.6549 51.4366 58.1601 51.5625 57.7434C51.6927 57.3268 51.8989 57.0056 52.181 56.7799C52.4674 56.5542 52.8429 56.4414 53.3073 56.4414C54.0061 56.4414 54.4987 56.6909 54.7852 57.1901C55.0716 57.6892 55.2148 58.3684 55.2148 59.2278C55.2148 59.8007 55.1519 60.2934 55.026 60.7057C54.9045 61.118 54.7027 61.4349 54.4206 61.6562C54.1428 61.8776 53.7674 61.9882 53.2943 61.9882C52.8385 61.9882 52.4696 61.8776 52.1875 61.6562C51.9054 61.4349 51.6992 61.118 51.569 60.7057Z" fill="white"/>
<path fill-rule="evenodd" clip-rule="evenodd" d="M45 6.66663H13.3333V73.3333H66.6666V28.3333H45V6.66663ZM27.9948 64L30.3385 54.4817H27.8581L26.8034 59.2669C26.7687 59.4275 26.7188 59.6662 26.6536 59.983C26.5929 60.2955 26.5321 60.6189 26.4714 60.9531C26.4106 61.2829 26.3672 61.5564 26.3411 61.7734C26.3108 61.513 26.2652 61.2113 26.2044 60.8684C26.1437 60.5212 26.0764 60.1697 26.0026 59.8138C25.9332 59.4579 25.8637 59.128 25.7943 58.8242C25.7292 58.516 25.6749 58.2686 25.6315 58.082L24.8177 54.4817H22.4349L21.5951 58.082C21.5473 58.273 21.4909 58.5204 21.4258 58.8242C21.3607 59.128 21.2912 59.4579 21.2174 59.8138C21.148 60.1653 21.0829 60.5125 21.0221 60.8554C20.9657 61.1983 20.9201 61.5043 20.8854 61.7734C20.8681 61.6171 20.8377 61.4218 20.7943 61.1875C20.7509 60.9531 20.7031 60.71 20.651 60.4583C20.6033 60.2022 20.5556 59.9678 20.5078 59.7552C20.4644 59.5382 20.4297 59.3711 20.4036 59.2539L19.3685 54.4817H16.888L19.2448 64H22.2852L23.2031 59.8528C23.2205 59.7747 23.2487 59.6423 23.2878 59.4557C23.3312 59.2691 23.3746 59.0564 23.418 58.8177C23.4657 58.579 23.5091 58.3446 23.5482 58.1145C23.5872 57.8802 23.6155 57.6827 23.6328 57.5221C23.6502 57.6827 23.6762 57.8802 23.7109 58.1145C23.75 58.3446 23.7912 58.579 23.8346 58.8177C23.8824 59.0564 23.9236 59.2691 23.9583 59.4557C23.9974 59.6423 24.0256 59.7747 24.043 59.8528L24.9544 64H27.9948ZM37.5716 55.2695C36.9727 54.7443 36.0699 54.4817 34.8633 54.4817H31.569V64H34.1406V60.8424H34.8633C35.5404 60.8424 36.1089 60.7513 36.569 60.569C37.0334 60.3867 37.4045 60.1393 37.6823 59.8268C37.9644 59.5143 38.1662 59.1584 38.2878 58.7591C38.4136 58.3598 38.4766 57.9431 38.4766 57.5091C38.4766 56.5412 38.1749 55.7947 37.5716 55.2695ZM45.2669 54.8007C44.694 54.5881 43.9757 54.4817 43.112 54.4817H39.9935V64H42.5651V60.5364H43.2161L45.2344 64H48.151L45.3776 59.8528C45.7118 59.6662 45.9983 59.4492 46.237 59.2018C46.48 58.95 46.6667 58.6658 46.7969 58.3489C46.9271 58.0321 46.9922 57.6805 46.9922 57.2942C46.9922 56.6736 46.8468 56.1549 46.556 55.7382C46.2695 55.3216 45.8398 55.0091 45.2669 54.8007ZM57.6562 61.233C57.8342 60.6297 57.9232 59.9613 57.9232 59.2278C57.9232 58.2382 57.7648 57.3767 57.4479 56.6432C57.1311 55.9097 56.6319 55.3411 55.9505 54.9375C55.2734 54.5338 54.3924 54.332 53.3073 54.332C52.2396 54.332 51.3628 54.5338 50.6771 54.9375C49.9913 55.3368 49.4835 55.9032 49.1536 56.6367C48.8281 57.3658 48.6654 58.2252 48.6654 59.2148C48.6654 59.957 48.7565 60.6297 48.9388 61.233C49.1211 61.8363 49.401 62.355 49.7786 62.789C50.1562 63.2187 50.6358 63.5507 51.2174 63.7851C51.8034 64.0151 52.4957 64.1302 53.2943 64.1302C54.1102 64.1302 54.8112 64.0151 55.3971 63.7851C55.9831 63.5507 56.4627 63.2165 56.8359 62.7825C57.2092 62.3485 57.4826 61.832 57.6562 61.233ZM58.1315 66.9427C58.3485 66.973 58.6024 66.9882 58.8932 66.9882C59.5616 66.9882 60.1497 66.8602 60.6576 66.6041C61.1654 66.348 61.5625 65.9336 61.849 65.3606C62.1354 64.7877 62.2786 64.0238 62.2786 63.069V54.4817H59.694V63.2903C59.694 63.6679 59.6593 63.9826 59.5898 64.2343C59.5204 64.4861 59.3989 64.6749 59.2253 64.8007C59.056 64.9266 58.8173 64.9895 58.5091 64.9895C58.3268 64.9895 58.1576 64.9722 58.0013 64.9375C57.8451 64.9071 57.6975 64.8789 57.5586 64.8528V66.8515C57.7192 66.8862 57.9102 66.9166 58.1315 66.9427Z" fill="white"/>
<path d="M50 6.66663L66.6666 23.3333H50V6.66663Z" fill="white"/>
</svg>
