<svg width="80" height="80" viewBox="0 0 80 80" fill="none" xmlns="http://www.w3.org/2000/svg">
<path fill-rule="evenodd" clip-rule="evenodd" d="M45 6.66663H13.3333V73.3333H66.6667V28.3333H45V6.66663ZM32.1422 64L34.486 54.4817H32.0055L30.9508 59.2669C30.9161 59.4275 30.8662 59.6662 30.8011 59.983C30.7403 60.2955 30.6795 60.6189 30.6188 60.9531C30.558 61.2829 30.5146 61.5564 30.4886 61.7734C30.4582 61.513 30.4126 61.2113 30.3518 60.8684C30.2911 60.5212 30.2238 60.1697 30.15 59.8138C30.0806 59.4579 30.0111 59.128 29.9417 58.8242C29.8766 58.516 29.8223 58.2686 29.7789 58.082L28.9651 54.4817H26.5823L25.7425 58.082C25.6947 58.273 25.6383 58.5204 25.5732 58.8242C25.5081 59.128 25.4386 59.4579 25.3649 59.8138C25.2954 60.1653 25.2303 60.5125 25.1695 60.8554C25.1131 61.1983 25.0676 61.5043 25.0328 61.7734C25.0155 61.6171 24.9851 61.4218 24.9417 61.1875C24.8983 60.9531 24.8505 60.71 24.7985 60.4583C24.7507 60.2022 24.703 59.9678 24.6552 59.7552C24.6118 59.5382 24.5771 59.3711 24.5511 59.2539L23.5159 54.4817H21.0354L23.3922 64H26.4326L27.3505 59.8528C27.3679 59.7747 27.3961 59.6423 27.4352 59.4557C27.4786 59.2691 27.522 59.0564 27.5654 58.8177C27.6131 58.579 27.6565 58.3446 27.6956 58.1145C27.7347 57.8802 27.7629 57.6827 27.7802 57.5221C27.7976 57.6827 27.8236 57.8802 27.8583 58.1145C27.8974 58.3446 27.9386 58.579 27.982 58.8177C28.0298 59.0564 28.071 59.2691 28.1057 59.4557C28.1448 59.6423 28.173 59.7747 28.1904 59.8528L29.1018 64H32.1422ZM46.263 64L48.6068 54.4817H46.1263L45.0716 59.2669C45.0369 59.4275 44.987 59.6662 44.9219 59.983C44.8611 60.2955 44.8004 60.6189 44.7396 60.9531C44.6788 61.2829 44.6354 61.5564 44.6094 61.7734C44.579 61.513 44.5334 61.2113 44.4727 60.8684C44.4119 60.5212 44.3446 60.1697 44.2708 59.8138C44.2014 59.4579 44.132 59.128 44.0625 58.8242C43.9974 58.516 43.9432 58.2686 43.8998 58.082L43.086 54.4817H40.7031L39.8633 58.082C39.8156 58.273 39.7591 58.5204 39.694 58.8242C39.6289 59.128 39.5595 59.4579 39.4857 59.8138C39.4162 60.1653 39.3511 60.5125 39.2904 60.8554C39.234 61.1983 39.1884 61.5043 39.1537 61.7734C39.1363 61.6171 39.1059 61.4218 39.0625 61.1875C39.0191 60.9531 38.9714 60.71 38.9193 60.4583C38.8715 60.2022 38.8238 59.9678 38.7761 59.7552C38.7327 59.5382 38.6979 59.3711 38.6719 59.2539L37.6367 54.4817H35.1563L37.513 64H40.5534L41.4714 59.8528C41.4887 59.7747 41.5169 59.6423 41.556 59.4557C41.5994 59.2691 41.6428 59.0564 41.6862 58.8177C41.734 58.579 41.7774 58.3446 41.8164 58.1145C41.8555 57.8802 41.8837 57.6827 41.9011 57.5221C41.9184 57.6827 41.9445 57.8802 41.9792 58.1145C42.0182 58.3446 42.0595 58.579 42.1029 58.8177C42.1506 59.0564 42.1919 59.2691 42.2266 59.4557C42.2656 59.6423 42.2939 59.7747 42.3112 59.8528L43.2227 64H46.263ZM58.1964 60.2109V54.4817H55.6248V60.0546C55.6248 60.506 55.5727 60.875 55.4685 61.1614C55.3687 61.4479 55.2081 61.6584 54.9867 61.7929C54.7654 61.9231 54.4789 61.9882 54.1274 61.9882C53.6369 61.9882 53.2658 61.8363 53.0141 61.5325C52.7623 61.2287 52.6365 60.7404 52.6365 60.0677V54.4817H50.0518V60.2695C50.0518 61.4978 50.3969 62.4483 51.087 63.1211C51.7771 63.7938 52.7775 64.1302 54.0883 64.1302C55.0041 64.1302 55.7658 63.9717 56.3735 63.6549C56.9811 63.3337 57.4368 62.8802 57.7406 62.2942C58.0445 61.704 58.1964 61.0095 58.1964 60.2109Z" fill="white"/>
<path d="M50 6.66663L66.6667 23.3333H50V6.66663Z" fill="white"/>
</svg>
