<svg width="80" height="80" viewBox="0 0 80 80" fill="none" xmlns="http://www.w3.org/2000/svg">
<path fill-rule="evenodd" clip-rule="evenodd" d="M45 6.66663H13.3334V73.3333H66.6667V28.3333H45V6.66663ZM31.2112 64H34.1864L30.9442 59.332L33.9586 54.4817H31.0224L29.3687 57.4244L27.65 54.4817H24.7984L27.7671 59.1302L24.6096 64H27.5197L29.3557 61.0247L31.2112 64ZM37.7278 57.1445L39.6744 64H42.1224L44.0429 57.1575H44.1015C44.0885 57.3355 44.0733 57.5785 44.0559 57.8867C44.0429 58.1905 44.0299 58.516 44.0169 58.8632C44.0082 59.2061 44.0039 59.5273 44.0039 59.8268V64H46.3671V54.4817H42.9362L40.9895 61.2395H40.9375L38.9518 54.4817H35.5273V64H37.8059V59.8658C37.8059 59.5403 37.7973 59.2018 37.7799 58.8502C37.7625 58.4987 37.743 58.171 37.7213 57.8671C37.704 57.5633 37.6866 57.3224 37.6692 57.1445H37.7278ZM48.6846 54.4817V64H54.9216V61.9231H51.2562V54.4817H48.6846Z" fill="white"/>
<path d="M50 6.66663L66.6667 23.3333H50V6.66663Z" fill="white"/>
</svg>
