<?xml version="1.0" encoding="UTF-8"?>
<svg width="445px" height="24px" viewBox="0 0 445 24" version="1.1" xmlns="http://www.w3.org/2000/svg" xmlns:xlink="http://www.w3.org/1999/xlink">
    <!-- Generator: Sketch 63.1 (92452) - https://sketch.com -->
    <title>Artboard 2</title>
    <desc>Created with Sketch.</desc>
    <g id="Artboard-2" stroke="none" stroke-width="1" fill="none" fill-rule="evenodd">
        <g id="error-conclict-state-copy" transform="translate(-25.000000, 0.000000)" fill="#252525" fill-rule="nonzero">
            <path d="M147.568746,0 L128.451099,24 L118.568746,24 L137.686393,0 L147.568746,0 Z M264.52968,0 L245.41203,24 L235.52968,24 L254.64732,0 L264.52968,0 Z M381.49061,0 L362.37296,24 L352.49061,24 L371.60826,0 L381.49061,0 Z M124.176559,0 L105.058912,24 L95.176559,24 L114.294206,0 L124.176559,0 Z M241.13749,0 L222.01984,24 L212.13749,24 L231.25514,0 L241.13749,0 Z M358.09842,0 L338.98078,24 L329.09842,24 L348.21607,0 L358.09842,0 Z M475.05936,0 L471.68567,4.235276 L455.94171,24 L446.05936,24 L465.177,0 L475.05936,0 Z M100.784373,0 L81.666726,24 L71.784373,24 L90.90202,0 L100.784373,0 Z M217.74531,0 L198.62766,24 L188.74531,24 L207.86295,0 L217.74531,0 Z M334.70624,0 L315.58859,24 L305.70624,24 L324.82388,0 L334.70624,0 Z M451.66717,0 L432.54952,24 L422.66717,24 L441.78482,0 L451.66717,0 Z M77.392186,0 L58.274539,24 L48.392186,24 L67.509833,0 L77.392186,0 Z M194.353119,0 L175.23547,24 L165.353119,24 L184.47077,0 L194.353119,0 Z M311.31405,0 L292.1964,24 L282.31405,24 L301.4317,0 L311.31405,0 Z M428.27498,0 L409.15734,24 L399.27498,24 L418.39263,0 L428.27498,0 Z M54,0 L34.882353,24 L25,24 L44.117647,0 L54,0 Z M29.9228244,0 L10.8051774,24 L0.922824416,24 L20.0404714,0 L29.9228244,0 Z M170.960932,0 L151.843285,24 L141.960932,24 L161.078579,0 L170.960932,0 Z M287.92186,0 L268.80422,24 L258.92186,24 L278.03951,0 L287.92186,0 Z M404.8828,0 L385.76515,24 L375.8828,24 L395.00044,0 L404.8828,0 Z" id="Combined-Shape"></path>
        </g>
    </g>
</svg>
