<?xml version="1.0" encoding="UTF-8"?>
<svg width="16px" height="16px" viewBox="0 0 16 16" version="1.1" xmlns="http://www.w3.org/2000/svg" xmlns:xlink="http://www.w3.org/1999/xlink">
    <!-- Generator: Sketch 57.1 (83088) - https://sketch.com -->
    <title>Icons / System / Help / Hover</title>
    <desc>Created with Sketch.</desc>
    <g id="Icons-/-System-/-Help-/-Hover" stroke="none" stroke-width="1" fill="none" fill-rule="evenodd">
        <path d="M5,4.62525321 L5,2.7778528 C5.89001709,2.25928167 6.84323133,2 7.8596713,2 C8.84576979,2 9.61567359,2.25928167 10.1694058,2.7778528 C10.723138,3.29642393 11,4.00944853 11,4.91694801 C11,5.67859935 10.7926696,6.34300864 10.3780025,6.91019581 C9.96333547,7.47738298 9.29077583,8.02025399 8.36030341,8.53882512 L8.36030341,9.94868332 L6.58533502,9.94868332 L6.40328698,7.70425388 L7.20733249,7.24240378 C7.77876392,6.92369861 8.18583949,6.60634864 8.42857143,6.29034436 C8.67130336,5.97434008 8.79266751,5.60027225 8.79266751,5.16812964 C8.79266751,4.76839773 8.6763602,4.46050074 8.4437421,4.24442944 C8.21112399,4.02835814 7.87737259,3.92032411 7.44247788,3.92032411 C6.71933899,3.92032411 5.90518784,4.15529812 5,4.62525321 Z M6.10745891,12.5010128 C6.10745891,12.0580667 6.23640832,11.6988535 6.494311,11.4233626 C6.75221368,11.1478717 7.0884935,11.0101283 7.50316056,11.0101283 C7.91782761,11.0101283 8.25537164,11.1478717 8.51580278,11.4233626 C8.77623392,11.6988535 8.90644753,12.0580667 8.90644753,12.5010128 C8.90644753,12.943959 8.77623392,13.3045226 8.51580278,13.5827144 C8.25537164,13.8609062 7.91782761,14 7.50316056,14 C7.0884935,14 6.75221368,13.8609062 6.494311,13.5827144 C6.23640832,13.3045226 6.10745891,12.943959 6.10745891,12.5010128 Z" id="?" fill="#FFFFFF"></path>
    </g>
</svg>
