<?xml version="1.0" encoding="UTF-8"?>
<svg width="24px" height="24px" viewBox="0 0 24 24" version="1.1" xmlns="http://www.w3.org/2000/svg" xmlns:xlink="http://www.w3.org/1999/xlink">
    <title>Asset Editor icon</title>
    <g id="Asset-Editor-icon" stroke="none" stroke-width="1" fill="none" fill-rule="evenodd">
        <path d="M15.9860086,2 L21.0547888,7.65093732 L21.0547888,19.8573598 C21.0547888,21.3071072 19.8795363,22.4823598 18.4297888,22.4823598 L18.4297888,22.4823598 L14.4922888,22.4823598 L14.4922888,19.8573598 L18.4297888,19.8573598 L18.4297888,9.39834532 L14.4922888,9.39834532 L14.4922888,4.39834532 L6.61728879,4.39834532 L6.61728879,9.39834532 L3.99228879,9.39834532 L3.99228879,4.625 C3.99228879,3.17525253 5.16754132,2 6.61728879,2 L6.61728879,2 L15.9860086,2 Z M11.9720779,11.5111613 L11.9720779,22.4823598 L3.99403128,22.4823598 C2.89373128,22.4823598 2,21.5871399 2,20.4828299 L2,20.4828299 L2,13.5106911 C2,12.4089803 2.89275834,11.5111613 3.99403128,11.5111613 L3.99403128,11.5111613 L11.9720779,11.5111613 Z M5.17089634,17.6663021 L4.40036064,18.4676192 C4.18355844,18.6930823 4.18043717,19.0553841 4.39605961,19.2796209 L6.20782094,21.1637586 C6.63740095,21.610499 7.33388742,21.610499 7.76346744,21.1637586 L9.57522877,19.2796209 C9.7896555,19.0566276 9.79105801,18.6965433 9.57092774,18.4676192 L8.80039204,17.6663021 C8.58358984,17.4408391 8.23344799,17.4394206 8.01921651,17.6622102 L6.98564419,18.7447072 L5.95207186,17.6622102 C5.73744273,17.439007 5.39102661,17.437378 5.17089634,17.6663021 Z M7.76346744,12.8297629 C7.33388742,12.3830219 6.63740095,12.3830219 6.20782094,12.8297629 L6.20782094,12.8297629 L4.39605961,14.7139006 C4.18043717,14.9381368 4.18355844,15.3004386 4.40036064,15.5259017 L4.40036064,15.5259017 L5.17089634,16.3272188 C5.39102661,16.5561429 5.73744273,16.5545139 5.95207186,16.3313107 L5.95207186,16.3313107 L6.98564419,15.2447072 L8.01921651,16.3313107 C8.23344799,16.5541009 8.58358984,16.5526818 8.80039204,16.3272188 L8.80039204,16.3272188 L9.57092774,15.5259017 C9.79105801,15.2969782 9.7896555,14.9368933 9.57522877,14.7139006 L9.57522877,14.7139006 Z" id="Combined-Shape" fill="#FFFFFF" fill-rule="nonzero"></path>
    </g>
</svg>