<?xml version="1.0" encoding="UTF-8"?>
<svg width="24px" height="24px" viewBox="0 0 24 24" version="1.1" xmlns="http://www.w3.org/2000/svg" xmlns:xlink="http://www.w3.org/1999/xlink">
    <title>audio edit </title>
    <g id="audio-edit-" stroke="none" stroke-width="1" fill="none" fill-rule="evenodd">
        <path d="M13.671871,7.50274987 C13.8711246,7.36985092 14.1146568,7.32555128 14.3360497,7.41415057 C16.9554394,8.10079513 18.9091859,8.10079513 22.0258713,7.41415057 C22.249462,7.36489076 22.4907963,7.39200075 22.6679107,7.5248997 C22.845025,7.65779864 22.9557214,7.87929688 23,8.10079513 L23,8.10079513 L22.9572844,18.8481815 C22.9572844,20.1328713 21.7174842,21.173913 20.1013161,21.173913 C18.485148,21.173913 17.2453478,20.1550211 17.2453478,18.8481815 C17.2453478,17.5634917 18.5294265,16.5224499 20.1013161,16.5224499 C20.3669876,16.5224499 20.632659,16.5445998 20.8761912,16.6110492 C21.1861413,16.6996485 21.473952,16.4560005 21.473952,16.1459029 L21.473952,16.1459029 L21.473952,10.6858818 C18.8420026,11.3725264 17.0164667,11.3725264 14.7803985,10.7080316 L14.7803985,10.7080316 L14.7803985,11.8540584 C14.2459139,11.4245036 13.671871,10.911155 13.3192054,10.5828292 C13.3192054,9.943716 13.3334439,9.11637131 13.3619209,8.10079513 C13.3619209,7.85714706 13.4726174,7.63564882 13.671871,7.50274987 Z M13.0212906,15.3812912 C13.4908418,15.7574122 13.9909547,16.3565034 14.4824837,16.7283004 L14.4824837,16.7283004 L14.4824837,18.6657679 C14.4824837,19.9504578 13.2426835,20.9914995 11.6265154,20.9914995 C10.0103472,20.9914995 8.77054704,19.9726076 8.77054704,18.6657679 C8.77054704,17.3810781 10.0546258,16.3400364 11.6486547,16.3621862 C11.9143261,16.3621862 12.1799976,16.384336 12.4235298,16.4507855 C12.7334799,16.5393848 13.0212906,16.2957367 13.0212906,15.9856392 L13.0212906,15.9856392 Z M4.87344064,2.00000241 C6.46039809,2.00000241 7.74688128,3.28766393 7.74688128,4.87607492 C7.74688128,5.24562866 7.67724533,5.59890316 7.55039064,5.92346979 L9.18715351,7.56781732 L9.19255594,7.56260027 L10.6736079,9.04725227 L10.6664504,9.05409316 L17.0762969,15.3611124 L17.0762969,16.1842691 L14.856515,16.1842691 L9.10274173,10.5856018 L7.50474928,12.1508361 C7.66044683,12.5049585 7.74688128,12.8964744 7.74688128,13.3081966 C7.74688128,14.8966076 6.46039809,16.1842691 4.87344064,16.1842691 C3.2864832,16.1842691 2,14.8966076 2,13.3081966 C2,11.7197856 3.2864832,10.4321241 4.87344064,10.4321241 C5.28086048,10.4321241 5.66847595,10.5169943 6.01960261,10.6700351 L7.61573544,9.10677758 L6.01608448,7.51576697 C5.66588747,7.66784294 5.27950023,7.75214743 4.87344064,7.75214743 C3.2864832,7.75214743 2,6.4644859 2,4.87607492 C2,3.28766393 3.2864832,2.00000241 4.87344064,2.00000241 Z M4.87344064,11.902843 C4.09799553,11.902843 3.46937306,12.5320412 3.46937306,13.3081966 C3.46937306,14.084352 4.09799553,14.7135502 4.87344064,14.7135502 C5.64888576,14.7135502 6.27750823,14.084352 6.27750823,13.3081966 C6.27750823,12.5320412 5.64888576,11.902843 4.87344064,11.902843 Z M9.03871317,8.66478868 C8.79573029,8.66478868 8.59875374,8.86185896 8.59875374,9.10495747 C8.59875374,9.34805597 8.79573029,9.54512625 9.03871317,9.54512625 C9.28169606,9.54512625 9.47867261,9.34805597 9.47867261,9.10495747 C9.47867261,8.86185896 9.28169606,8.66478868 9.03871317,8.66478868 Z M17.0763008,2 L17.0763008,2.68379615 L11.1730797,8.47119228 L9.69202779,6.98654029 L14.856519,2 L17.0763008,2 Z M4.87344064,3.4707213 C4.09799553,3.4707213 3.46937306,4.09991955 3.46937306,4.87607492 C3.46937306,5.65223028 4.09799553,6.28142853 4.87344064,6.28142853 C5.64888576,6.28142853 6.27750823,5.65223028 6.27750823,4.87607492 C6.27750823,4.09991955 5.64888576,3.4707213 4.87344064,3.4707213 Z" id="Combined-Shape-Copy-6" fill="#FFFFFF" fill-rule="nonzero"></path>
    </g>
</svg>