<?xml version="1.0" encoding="UTF-8"?>
<svg width="20px" height="20px" viewBox="0 0 20 20" version="1.1" xmlns="http://www.w3.org/2000/svg" xmlns:xlink="http://www.w3.org/1999/xlink">
    <title>Camera </title>
    <g id="Camera-" stroke="none" stroke-width="1" fill="none" fill-rule="evenodd">
        <g id="Icon-2" fill="#FFFFFF" transform="translate(1.666667, 4.166667)">
            <path d="M11.5739175,9.2927927 C11.5739175,9.54639717 11.3384276,9.99926232 10.8312187,9.99926232 C10.3240097,9.99926232 2.37169783,10.0264342 2.13620796,10.0264342 C1.74674394,10.0264342 1.33916531,9.69131402 1.33916531,9.09353203 C1.33916531,8.76746913 1.35126587,5.13853395 1.35126587,4.84870026 C1.35126587,4.37772052 1.35727992,4.13013009 1.81014506,4.13013009 C2.2630102,4.13013009 10.840276,4.11201548 10.840276,4.11201548 C11.4199434,4.11201548 11.5829748,4.51959411 11.5829748,4.86377162 C11.5829748,5.20794912 11.5739175,9.03918822 11.5739175,9.2927927 L11.5739175,9.2927927 Z M2.65247422,1.24990779 C2.65247422,1.09593364 2.65247422,0.941959493 2.77927646,0.941959493 L9.83491536,0.941959493 C10.0070041,0.941959493 10.2062648,0.978188705 10.2062648,1.16839206 C10.2062648,1.35859542 10.1972075,2.73530545 10.1972075,2.73530545 L2.64943097,2.7111768 L2.65247422,1.24990779 Z M16.9539554,4.02144245 L16.374288,4.03049976 L14.6896297,5.50684012 L14.2548791,5.50684012 C14.2548791,5.50684012 13.1317736,3.56857731 13.0049713,3.31497283 C12.8781691,3.06136835 12.4615332,2.77153466 12.2622725,2.77153466 L11.139167,2.77153466 C11.139167,2.77153466 11.1210524,0.905730282 11.1210524,0.579667381 C11.1210524,0.253604479 10.8131041,2.81996648e-13 10.4145827,2.81996648e-13 L2.22678099,2.81996648e-13 C1.86144562,2.81996648e-13 1.66522821,0.208317965 1.66522821,0.45887919 L1.66522821,2.69907624 C1.3325716,2.7055975 1.26148988,2.70509029 1.06744623,2.70509029 C0.626681643,2.70509029 0.43343503,2.86812174 0.43343503,3.51423349 L0.43343503,9.83623086 C0.43343503,10.5698724 0.804784446,10.8778207 1.36633722,10.8778207 C1.72862933,10.8778207 11.5920321,10.8687634 12.0992411,10.8687634 C12.60645,10.8687634 12.8238253,10.4340129 13.0049713,10.198523 C13.1861174,9.9630331 14.309223,8.11534333 14.309223,8.11534333 L14.8164319,8.09722872 L16.4558037,9.60074099 L16.97207,9.60074099 L16.9539554,4.02144245 Z" id="Icon"></path>
        </g>
    </g>
</svg>