<?xml version="1.0" encoding="UTF-8"?>
<svg width="20px" height="20px" viewBox="0 0 20 20" version="1.1" xmlns="http://www.w3.org/2000/svg" xmlns:xlink="http://www.w3.org/1999/xlink">
    <title>debug</title>
    <g id="debug" stroke="none" stroke-width="1" fill="none" fill-rule="evenodd">
        <path d="M11.3615865,7.917238 L15.2274672,9.63843901 L16.4675037,9.16172668 C16.6979214,9.07292417 16.9553551,9.18924382 17.0442998,9.41972476 C17.1330234,9.64993705 17.0253844,9.89284574 16.7952509,9.98177479 L16.7952509,9.98177479 L15.3951151,10.4956726 C15.2842902,10.5384499 15.1889358,10.4726675 15.0806503,10.4244557 L15.0806503,10.4244557 L14.1703124,10.0191471 C14.3857263,10.9664393 14.4599954,12.0211666 14.2565873,12.952264 L14.2565873,12.952264 L15.6721159,13.5824979 C15.8976398,13.6829076 15.9908466,13.9650071 15.8904369,14.190531 C15.7900905,14.4159128 15.5180189,14.5355501 15.292495,14.4351404 L15.292495,14.4351404 L13.9556938,13.8399581 C13.6322377,14.54733 13.1335636,15.1766897 12.5630158,15.6037725 L12.5630158,15.6037725 L12.8756514,15.7429668 C12.983937,15.7911787 13.0605157,15.8995144 13.1027401,16.0104336 L13.1027401,16.0104336 L13.6353002,17.4447605 C13.7234077,17.6752093 13.6080984,17.9334334 13.3776496,18.021541 C13.2626228,18.0653422 13.1408059,18.058613 13.0364993,18.0121727 C12.9319085,17.9656059 12.8452864,17.8786807 12.8011855,17.7631798 L12.8011855,17.7631798 L12.3264968,16.520128 L11.644667,16.2165578 C10.4621412,16.7117239 8.87932984,16.9345084 7.56328989,16.4483518 L7.56328989,16.4483518 L11.3615865,7.917238 Z M5.52878415,4.3232224 C5.75937506,4.23517812 6.01946614,4.34552927 6.10779463,4.57624672 L6.10779463,4.57624672 L6.58675456,5.80894035 L10.4526353,7.53014136 L6.6529468,16.0643815 C5.4063142,15.4223335 4.43289769,14.215203 4.07288375,12.8629772 L4.07288375,12.8629772 L3.41379116,12.5695302 L2.17275891,13.0473317 C2.05755786,13.0919067 1.93523585,13.0847824 1.83064504,13.0382156 C1.72633845,12.9917753 1.64104404,12.9033978 1.59654788,12.7884022 C1.5078242,12.5581899 1.62471629,12.294881 1.85492858,12.2061574 L1.85492858,12.2061574 L3.27301757,11.6515537 C3.38384243,11.6087763 3.51545059,11.5931314 3.62387829,11.6414065 L3.62387829,11.6414065 L3.91988732,11.7731982 C3.85933759,11.0651327 3.99592287,10.2745607 4.30516824,9.5608618 L4.30516824,9.5608618 L2.97859873,8.970235 C2.7530748,8.86982528 2.6599312,8.58758374 2.76027765,8.36220193 C2.86068737,8.13667801 3.13269567,8.01718285 3.35821959,8.11759257 L3.35821959,8.11759257 L4.7450425,8.73504591 C5.26222301,7.94364898 6.01359598,7.25652125 6.89624338,6.79811742 L6.89624338,6.79811742 L6.10101221,6.4440577 C5.99258451,6.39578258 5.88032145,6.36759526 5.83803372,6.25681811 L5.83803372,6.25681811 L5.26971048,4.90243425 C5.18174504,4.67204872 5.29833534,4.41132994 5.52878415,4.3232224 Z M10.8942352,2.34455584 C11.1427316,2.24942103 11.4210854,2.3733521 11.5165098,2.62161032 L11.5165098,2.62161032 L11.9777045,3.8224019 C12.2035494,3.86678469 12.4283918,3.93403345 12.6476126,4.03163684 C12.8668334,4.12924023 13.0677354,4.25026013 13.2518379,4.38839772 L13.2518379,4.38839772 L14.4533966,3.92589245 C14.7019612,3.83060445 14.9816108,3.95162483 15.0770352,4.19988305 C15.1723915,4.44829447 15.0509158,4.72113321 14.8025726,4.81633622 L14.8025726,4.81633622 L13.9775725,5.12324418 C14.5520125,5.98310253 14.7248639,7.02632912 14.247419,8.09868801 L14.247419,8.09868801 L8.55503156,5.56427385 C9.03247651,4.49191495 9.9234901,3.92253515 10.946252,3.77379694 L10.946252,3.77379694 L10.6171125,2.96698358 C10.5217563,2.71857217 10.6457388,2.43969065 10.8942352,2.34455584 Z" id="Combined-Shape" fill="#FFFFFF"></path>
    </g>
</svg>