<?xml version="1.0" encoding="UTF-8"?>
<svg width="24px" height="24px" viewBox="0 0 24 24" version="1.1" xmlns="http://www.w3.org/2000/svg" xmlns:xlink="http://www.w3.org/1999/xlink">
    <title>EMFX header icon</title>
    <g id="EMFX-header-icon" stroke="none" stroke-width="1" fill="none" fill-rule="evenodd">
        <path d="M15.4402141,6.47369367 C15.8338027,6.6892261 16.1509659,7.03456112 16.3277603,7.4597408 L18.6714707,10.7388937 L20.9265998,13.1099302 L19.5883386,14.5962199 L17.1067913,11.9890965 L17.0892351,12 L16.9863785,11.8625904 L16.7718452,11.6372009 L16.7984797,11.6115701 L15.7677139,10.2345359 L14.2649089,13.609891 L16.9897118,16 L17,16 L17,22 L15,22 L15,16.9335637 L12.0517866,14.4145916 L11.7885832,14.2974059 L10.4131448,17.3866912 L9.63999106,19.1359308 L4,15.6954658 L5.05983853,13.9993696 L8.74227212,16.2223461 L9.96149233,13.4839327 L9.94559534,13.4768549 L12.0486395,8.75334034 L10.4719503,9.12452852 L8.88365054,12.0950967 L7.13441112,11.1254774 L9.14411801,7.42096143 L9.13441112,7.3871095 L14.1957216,6.24191249 L14.1971157,6.24907236 L14.2372583,6.24373869 L14.2372583,6.24373869 C14.6690994,6.19071527 15.0856649,6.27953958 15.4402141,6.47369367 Z M16.1344111,2 C17.2389806,2 18.1344111,2.8954305 18.1344111,4 C18.1344111,5.1045695 17.2389806,6 16.1344111,6 C15.0298416,6 14.1344111,5.1045695 14.1344111,4 C14.1344111,2.8954305 15.0298416,2 16.1344111,2 Z" id="Combined-Shape" fill="#FFFFFF"></path>
    </g>
</svg>