<?xml version="1.0" encoding="utf-8"?>
<!-- Generator: Adobe Illustrator 25.3.1, SVG Export Plug-In . SVG Version: 6.00 Build 0)  -->
<svg version="1.1" id="Layer_1" xmlns="http://www.w3.org/2000/svg" xmlns:xlink="http://www.w3.org/1999/xlink" x="0px" y="0px"
	 viewBox="0 0 16 16" style="enable-background:new 0 0 16 16;" xml:space="preserve">
<style type="text/css">
	.st0{fill-rule:evenodd;clip-rule:evenodd;fill:#FFFFFF;}
</style>
<path class="st0" d="M8,5.511C6.626,5.511,5.511,6.626,5.511,8S6.626,10.489,8,10.489S10.489,9.374,10.489,8S9.374,5.511,8,5.511z
	 M8,9.694C7.064,9.694,6.306,8.936,6.306,8S7.064,6.306,8,6.306S9.694,7.064,9.694,8S8.936,9.694,8,9.694z"/>
<path class="st0" d="M8,0C3.582,0,0,3.582,0,8s3.582,8,8,8s8-3.582,8-8S12.418,0,8,0z M8,12.463c-4,0-7.242-2.915-7.242-4.463
	S4,3.537,8,3.537c4,0,7.242,2.915,7.242,4.463S12,12.463,8,12.463z"/>
</svg>
