<?xml version="1.0" encoding="UTF-8"?>
<svg width="24px" height="24px" viewBox="0 0 24 24" version="1.1" xmlns="http://www.w3.org/2000/svg" xmlns:xlink="http://www.w3.org/1999/xlink">
    <title>Veg editor icon </title>
    <g id="Veg-editor-icon-" stroke="none" stroke-width="1" fill="none" fill-rule="evenodd">
        <path d="M16.5148429,21.0425016 C16.8177068,21.0425016 17.1645673,21.2855646 17.1645673,21.7481048 C17.1645673,22.210645 16.8118623,22.453708 16.5148429,22.453708 L6.15659085,22.453708 C5.85372694,22.453708 5.50764574,22.2526162 5.50764574,21.7481048 C5.50764574,21.2435934 5.85957142,21.0425016 6.15659085,21.0425016 L16.5148429,21.0425016 Z M18.1293894,18.4805694 C18.5248398,18.4805694 18.783369,18.6215806 18.9803251,18.9179529 L21.3973486,21.6296028 C21.4913398,21.7733953 21.4260987,22.1575312 20.8849279,22.3133932 C20.3437571,22.4692552 19.8091487,22.2405042 19.7170269,22.0995716 L17.4957603,19.8222461 L5.51575322,19.8222461 L3.44599506,21.9708965 C3.25806678,22.2076933 2.65210839,22.4704438 2.11187863,22.3133932 C1.57164887,22.1563426 1.52319993,21.8555986 1.69847744,21.6296028 L4.15746187,18.8359298 C4.28086857,18.6216874 4.5612908,18.4805694 4.9475464,18.4805694 L18.1293894,18.4805694 Z M21.3923287,1.54629195 C21.9446135,1.54629195 22.3923287,1.9940072 22.3923287,2.54629195 L22.3923287,16.2168743 C22.3923287,16.7691591 21.9446135,17.2168743 21.3923287,17.2168743 L2.60767126,17.2168743 C2.05538651,17.2168743 1.60767126,16.7691591 1.60767126,16.2168743 L1.60767126,2.54629195 C1.60767126,1.9940072 2.05538651,1.54629195 2.60767126,1.54629195 L21.3923287,1.54629195 Z M8.80560763,15.9289985 C10.9624477,16.6479451 13.9204397,15.7983494 14.9166545,13.4126851 C15.9128692,11.0270207 15.0674988,8.36538278 17.161329,6.13505487 C18.5572159,4.6481696 19.9059881,3.55165429 21.2076457,2.84550893 C16.9581675,2.13086389 13.1202976,2.89580396 9.69403597,5.14032913 C6.83818733,7.01117991 5.46885511,9.11359981 5.50848138,11.7074507 C5.5219145,12.586754 6.05429493,13.5504113 7.10562269,14.5984226 C7.4393775,12.4421149 8.06340659,10.8285044 8.97770995,9.75759115 C9.89201332,8.68667789 11.2404975,7.64534569 13.0231626,6.63359455 C10.5695597,8.98708856 9.15459202,10.979178 8.77825968,12.6098629 C8.40192735,14.2405478 8.41104333,15.3469263 8.80560763,15.9289985 Z" id="Combined-Shape-Copy-2" fill="#FFFFFF"></path>
    </g>
</svg>