<?xml version="1.0" encoding="UTF-8"?>
<svg width="24px" height="24px" viewBox="0 0 24 24" version="1.1" xmlns="http://www.w3.org/2000/svg" xmlns:xlink="http://www.w3.org/1999/xlink">
    <title>Lua icon</title>
    <defs>
        <path d="M10.3520891,2 L10.3520891,3.79011197 C8.61581127,3.83490503 7.22130691,4.52914353 7.22130691,5.96998687 L7.22130691,8.10833137 C7.22130691,9.71341592 6.37960225,11.5930873 4.69616767,11.8842422 L4.69616767,12.0186207 C6.37960225,12.3097756 7.22130691,13.8829731 7.22130691,15.4880576 L7.22130691,17.9428759 C7.22130691,18.7043579 7.44211284,19.2567973 7.88373133,19.6002108 C8.32534982,19.9436242 9.49904825,20.1713623 10.3520891,20.1862933 L10.3520891,22 C8.91777263,21.985069 7.17196328,21.7433437 6.38686374,21.1087754 C5.60176421,20.4742071 4.78557962,19.4352441 4.78557962,18.2855557 L4.78557962,15.1587647 C4.78557962,14.3823517 4.54778861,13.8280459 4.07219947,13.4958308 C3.59661033,13.1636156 2.90588408,12.9975105 2,12.9975105 L2,10.684195 C2.98137442,10.669264 3.69097297,10.4900945 4.12881694,10.146681 C4.56666091,9.80326759 4.78557962,9.27322436 4.78557962,8.55653545 L4.78557962,5.59798567 C4.78557962,4.4408317 5.61686205,3.68809925 6.43215772,3.04606543 C7.24745339,2.40403161 8.9781649,2 10.3520891,2 Z M13.6479109,2 C15.0218351,2 16.7525466,2.40403161 17.5678423,3.04606543 C18.383138,3.68809925 19.2144204,4.4408317 19.2144204,5.59798567 L19.2144204,5.59798567 L19.2144204,8.55653545 C19.2144204,9.27322436 19.4333391,9.80326759 19.8711831,10.146681 C20.309027,10.4900945 21.0186256,10.669264 22,10.684195 L22,10.684195 L22,12.9975105 C21.0941159,12.9975105 20.4033897,13.1636156 19.9278005,13.4958308 C19.4522114,13.8280459 19.2144204,14.3823517 19.2144204,15.1587647 L19.2144204,15.1587647 L19.2144204,18.2855557 C19.2144204,19.4352441 18.3982358,20.4742071 17.6131363,21.1087754 C16.8280367,21.7433437 15.0822274,21.985069 13.6479109,22 L13.6479109,22 L13.6479109,20.1862933 C14.5009518,20.1713623 15.6746502,19.9436242 16.1162687,19.6002108 C16.5578872,19.2567973 16.7786931,18.7043579 16.7786931,17.9428759 L16.7786931,17.9428759 L16.7786931,15.4880576 C16.7786931,13.8829731 17.6203978,12.3097756 19.3038323,12.0186207 L19.3038323,12.0186207 L19.3038323,11.8842422 C17.6203978,11.5930873 16.7786931,9.71341592 16.7786931,8.10833137 L16.7786931,8.10833137 L16.7786931,5.96998687 C16.7786931,4.52914353 15.3841887,3.83490503 13.6479109,3.79011197 L13.6479109,3.79011197 Z" id="path-1"></path>
    </defs>
    <g id="Lua-icon" stroke="none" stroke-width="1" fill="none" fill-rule="evenodd">
        <mask id="mask-2" fill="white">
            <use xlink:href="#path-1"></use>
        </mask>
        <use id="Combined-Shape" fill="#FFFFFF" xlink:href="#path-1"></use>
    </g>
</svg>