<svg width="24" height="25" viewBox="0 0 24 25" fill="none" xmlns="http://www.w3.org/2000/svg">
<path fill-rule="evenodd" clip-rule="evenodd" d="M1.5 3.5C1.5 2.94771 1.94772 2.5 2.5 2.5H21.5C22.0523 2.5 22.5 2.94772 22.5 3.5V17.24C22.5 17.7923 22.0523 18.24 21.5 18.24H2.5C1.94772 18.24 1.5 17.7923 1.5 17.24V3.5ZM18.1929 19.5093H4.87448C4.48422 19.5093 4.20089 19.651 4.07621 19.8662L1.59175 22.6722C1.41465 22.8992 1.4636 23.2013 2.00943 23.3591C2.55526 23.5168 3.16749 23.2529 3.35737 23.0151L5.44857 20.8569H17.5527L19.797 23.1443C19.8901 23.2859 20.4302 23.5156 20.977 23.3591C21.5238 23.2025 21.5897 22.8167 21.4947 22.6722L19.0526 19.9486C18.8536 19.6509 18.5924 19.5093 18.1929 19.5093ZM6.0961 22.0825C5.796 22.0825 5.44043 22.2845 5.44043 22.7913C5.44043 23.298 5.7901 23.5 6.0961 23.5H16.5617C16.8618 23.5 17.2181 23.2559 17.2181 22.7913C17.2181 22.3267 16.8677 22.0825 16.5617 22.0825H6.0961ZM5 10.5293C5 6.64741 8.11819 3.52925 12 3.52925C12.1256 3.52925 12.2503 3.53251 12.3742 3.53896C12.5217 3.51603 12.7076 3.5342 12.9227 3.58881C16.1877 4.01396 18.7273 6.66682 18.9794 9.98518C18.993 10.1071 19 10.2287 19 10.3496C19 10.3737 18.9997 10.3978 18.9992 10.422C18.9997 10.4577 19 10.4935 19 10.5293C19 14.4111 15.8818 17.5293 12 17.5293C8.11819 17.5293 5 14.4111 5 10.5293ZM10.2818 7.98383C10.6636 6.01107 11.4273 4.80198 12 4.80198L12 7.98383H10.2818ZM10.1545 9.25652H12V11.802H10.1545C10.0909 11.4202 10.0909 10.9747 10.0909 10.5293C10.0909 10.0838 10.0909 9.63833 10.1545 9.25652ZM10.2818 13.0747H12L12 16.2565C11.4273 16.2565 10.6636 15.0474 10.2818 13.0747ZM9.0091 7.98384C9.19998 6.96563 9.51815 5.94743 9.90001 5.1838C8.56365 5.75654 7.48185 6.7111 6.84547 7.98384H9.0091ZM6.40001 9.25652H8.81817V10.5293C8.81817 10.9747 8.81817 11.3565 8.88181 11.802H6.40001C6.33637 11.4202 6.27272 10.9747 6.27272 10.5293C6.27272 10.0838 6.33637 9.63833 6.40001 9.25652ZM9.0091 13.0747H6.84547C7.48185 14.3474 8.56365 15.302 9.83637 15.8747C9.45456 15.1111 9.19998 14.0929 9.0091 13.0747Z" fill="white"/>
</svg>
