<?xml version="1.0" encoding="UTF-8"?>
<svg width="24px" height="24px" viewBox="0 0 24 24" version="1.1" xmlns="http://www.w3.org/2000/svg" xmlns:xlink="http://www.w3.org/1999/xlink">
    <title>Material editor icon</title>
    <g id="Material-editor-icon" stroke="none" stroke-width="1" fill="none" fill-rule="evenodd">
        <g id="Matieral-editor" transform="translate(2.000000, 2.000000)" fill="#FFFFFF" fill-rule="nonzero">
            <path d="M10.0000677,0 C4.45458426,0 0,4.45451651 0,10.0000677 C0,15.5454835 4.45458426,20 10.0000677,20 C15.5455512,20 20.0000677,15.5454835 20.0000677,10.0000677 C20.0000677,4.45451651 15.5455512,0 10.0000677,0 L10.0000677,0 Z M17.3636715,6.36369179 L14.2727451,6.36369179 C14.0000542,4.90911431 13.6364437,3.45453683 13.0909263,2.3636376 C14.9091143,3.1818459 16.4546114,4.54550382 17.3636715,6.36369179 L17.3636715,6.36369179 Z M12.7273158,10.0000677 C12.7273158,10.6363692 12.7273158,11.2727384 12.6363963,11.818188 L7.36367147,11.818188 C7.27275191,11.2727384 7.27275191,10.6363692 7.27275191,10.0000677 C7.27275191,9.36363082 7.27275191,8.72726164 7.36367147,8.18181202 L12.6363963,8.18181202 C12.7273158,8.72726164 12.7273158,9.36363082 12.7273158,10.0000677 L12.7273158,10.0000677 Z M10.0000677,18.181812 C9.18185945,18.181812 8.09096021,16.4545436 7.54551059,13.636376 L12.3637053,13.636376 C11.9091753,16.4545436 10.8182083,18.181812 10.0000677,18.181812 L10.0000677,18.181812 Z M7.54551059,6.36369179 C8.09096021,3.54545639 9.18185945,1.81818798 10.0000677,1.81818798 C10.8182083,1.81818798 11.9091753,3.54545639 12.4545572,6.36369179 L7.54551059,6.36369179 Z M7.00006097,2.3636376 C6.45454361,3.45453683 6.00001355,4.90911431 5.72732262,6.36369179 L2.63639628,6.36369179 C3.54552414,4.54550382 5.09095344,3.1818459 7.00006097,2.3636376 L7.00006097,2.3636376 Z M2.0000271,8.18181202 L5.45456393,8.18181202 L5.45456393,10.0000677 C5.45456393,10.6363692 5.45456393,11.181812 5.54548349,11.818188 L2.0000271,11.818188 C1.90910754,11.2727384 1.81818798,10.6363692 1.81818798,10.0000677 C1.81818798,9.36363082 1.90910754,8.72726164 2.0000271,8.18181202 L2.0000271,8.18181202 Z M2.63639628,13.636376 L5.72732262,13.636376 C6.00001355,15.0908857 6.36369179,16.5454632 6.90914141,17.6363624 C5.09095344,16.8181541 3.54552414,15.4545639 2.63639628,13.636376 L2.63639628,13.636376 Z M13.0000068,17.6363624 C13.5454564,16.5454632 14.0000542,15.181873 14.1818933,13.636376 L17.2727519,13.636376 C16.4546114,15.4545639 14.9091143,16.8181541 13.0000068,17.6363624 L13.0000068,17.6363624 Z M18.0000406,11.818188 L14.5455038,11.818188 C14.6364234,11.181812 14.6364234,10.6363692 14.6364234,10.0000677 C14.6364234,9.36363082 14.6364234,8.8181812 14.5455038,8.18181202 L18.0000406,8.18181202 C18.0909602,8.72726164 18.1818798,9.36363082 18.1818798,10.0000677 C18.1818798,10.6363692 18.0909602,11.2727384 18.0000406,11.818188 L18.0000406,11.818188 Z" id="Fill-4"></path>
            <path d="M10.0000677,18.8342378 L10.0000677,9.74336565 L10.0000677,0.652425764 C10.0000677,-2.07482233 20.0000677,4.28880172 20.0000677,9.74336565 C20.0000677,15.1978618 10.0000677,21.5615536 10.0000677,18.8342378" id="Fill-6"></path>
        </g>
    </g>
</svg>