<?xml version="1.0" encoding="UTF-8"?>
<svg width="24px" height="24px" viewBox="0 0 24 24" version="1.1" xmlns="http://www.w3.org/2000/svg" xmlns:xlink="http://www.w3.org/1999/xlink">
    <title>SC icon</title>
    <g id="SC-icon" stroke="none" stroke-width="1" fill="none" fill-rule="evenodd">
        <path d="M10.6929214,4.51764023 L2.96130718,4.51764023 L2.96130718,7.96706695 C2.96130718,8.28694683 3.20917431,8.54770094 3.51331968,8.54770094 L10.1409089,8.54770094 C10.4487844,8.54770094 10.6929214,8.29023965 10.6929214,7.96706695 L10.6929214,4.51764023 Z M14.2332467,16.4348559 L14.2332467,20.1725393 C14.2332467,20.4924192 14.4811138,20.7531733 14.7852592,20.7531733 L21.4128484,20.7531733 C21.7207239,20.7531733 21.9648609,20.495712 21.9648609,20.1725393 L21.9648609,16.4348559 L14.2332467,16.4348559 Z M13.2835051,19.1726688 C10.2249629,19.1726688 8.77405507,18.054406 8.77405507,16.1545309 C8.77405507,13.0382457 10.3731227,12.1561574 12.1046383,10.771073 C13.1119101,9.96532998 15.7122691,8.72781013 15.4186287,7.15556325 C15.0742932,5.31187844 13.7887132,5.54159503 12.960578,5.54159503 C12.5216884,5.54159503 12.3086302,5.54159503 11.7395986,5.54159503 L11.7395986,8.55852782 C11.7395986,9.19716613 11.2523897,9.71488477 10.6393701,9.71488477 L3.10022852,9.71488477 C2.49258909,9.71488477 2,9.19561124 2,8.55852782 L2,3.15635695 C2,2.51771864 2.48720892,2 3.10022852,2 L10.6393701,2 C11.2470095,2 11.7395986,2.51927353 11.7395986,3.15635695 L11.7395986,4.28718075 C11.8084605,4.30424636 12.8206778,4.28718075 13.2914795,4.28718075 C14.5272025,4.28718075 16.430931,4.71571873 16.7735044,7.15556325 C17.1046429,9.5139666 13.8637795,11.1020402 12.960578,11.7649711 C12.0573765,12.4279019 9.98473571,13.9400026 10.3731227,16.1545309 C10.5917354,17.4010303 11.1401369,17.4935013 13.2835051,17.616248 L13.2835051,15.0963595 C13.2835051,14.4577212 13.770714,13.9400026 14.3837336,13.9400026 L21.8997715,13.9400026 C22.5074109,13.9400026 23,14.4592761 23,15.0963595 L23,20.8436431 C23,21.4822814 22.5127911,22 21.8997715,22 L14.3837336,22 C13.7760942,22 13.2835051,21.4807265 13.2835051,20.8436431 L13.2835051,19.1726688 Z" fill="#FFFFFF" fill-rule="nonzero"></path>
    </g>
</svg>