<?xml version="1.0" encoding="UTF-8"?>
<svg width="24px" height="24px" viewBox="0 0 24 24" version="1.1" xmlns="http://www.w3.org/2000/svg" xmlns:xlink="http://www.w3.org/1999/xlink">
    <title>trackview icon</title>
    <g id="trackview-icon" stroke="none" stroke-width="1" fill="none" fill-rule="evenodd">
        <path d="M16.823,12.203 L21.02,17.385 L22.2679088,17.3858875 C22.5440511,17.3858875 22.7679088,17.6097451 22.7679088,17.8858875 L22.7679088,21.8858875 C22.7679088,22.1620299 22.5440511,22.3858875 22.2679088,22.3858875 L18.2679088,22.3858875 C17.9917664,22.3858875 17.7679088,22.1620299 17.7679088,21.8858875 L17.7679088,17.8858875 C17.7679088,17.6097451 17.9917664,17.3858875 18.2679088,17.3858875 L18.446,17.385 L15.6897008,13.9821947 C16.0317886,13.6205494 16.3299516,13.0552321 16.7322326,12.3605204 L16.823,12.203 Z M21.2679088,18.3858875 L19.2679088,18.3858875 C19.0224489,18.3858875 18.8183004,18.5627627 18.7759644,18.7960119 L18.7679088,18.8858875 L18.7679088,20.8858875 C18.7679088,21.1313474 18.9447839,21.3354959 19.1780331,21.3778318 L19.2679088,21.3858875 L21.2679088,21.3858875 C21.5133687,21.3858875 21.7175171,21.2090124 21.7598531,20.9757631 L21.7679088,20.8858875 L21.7679088,18.8858875 C21.7679088,18.6097451 21.5440511,18.3858875 21.2679088,18.3858875 Z M6.5,7.5 C6.77614237,7.5 7,7.72385763 7,8 L7,12 C7,12.0920475 6.97512693,12.1782855 6.93173534,12.2523596 L8.899,14.864 L12.509852,11.9428149 C12.7234766,12.2722403 12.9272144,12.5724038 13.1110529,12.8336411 C13.2808268,13.0748924 13.4477424,13.3538315 13.6273782,13.6099678 L8.64746364,17.6429264 L8.587,17.568 L8.48965074,17.6429264 L4.614,12.5 L2.5,12.5 C2.22385763,12.5 2,12.2761424 2,12 L2,8 C2,7.72385763 2.22385763,7.5 2.5,7.5 L6.5,7.5 Z M14.7503327,2 C16.9804584,2 19.2448408,4.31018839 18.680341,6.52966995 C18.3107266,7.98290763 16.9879633,10.228611 16.3314778,11.3623164 C15.7632532,12.3436012 15.4564503,13 14.7503327,13 C14.1697909,13 13.8202563,12.2587581 13.4539789,11.7382724 C12.5819908,10.499164 11.1465939,8.15794141 10.8399585,6.34792109 C10.456795,4.08616686 12.520207,2 14.7503327,2 Z M5.5,8.5 L3.5,8.5 C3.25454011,8.5 3.05039163,8.67687516 3.00805567,8.91012437 L3,9 L3,11 C3,11.2454599 3.17687516,11.4496084 3.41012437,11.4919443 L3.5,11.5 L5.5,11.5 C5.74545989,11.5 5.94960837,11.3231248 5.99194433,11.0898756 L6,11 L6,9 C6,8.72385763 5.77614237,8.5 5.5,8.5 Z M14.7630032,3.64006918 C13.4587768,3.64006918 12.2520482,4.86010532 12.4761306,6.1828288 C12.6554577,7.24136838 13.4949093,8.61056669 14.0048671,9.33522446 C14.2190741,9.63961592 14.4234896,10.0731104 14.7630032,10.0731104 C15.1759562,10.0731104 15.3553813,9.68923405 15.6876915,9.11535718 C16.0716186,8.45234135 16.8451996,7.13900479 17.0613582,6.28911952 C17.3914901,4.99111802 16.0672296,3.64006918 14.7630032,3.64006918 Z" id="Combined-Shape" fill="#FFFFFF" fill-rule="nonzero"></path>
    </g>
</svg>