<?xml version="1.0" encoding="UTF-8"?>
<svg width="24px" height="24px" viewBox="0 0 24 24" version="1.1" xmlns="http://www.w3.org/2000/svg" xmlns:xlink="http://www.w3.org/1999/xlink">
    <title>UI editor icon</title>
    <g id="UI-editor-icon" stroke="none" stroke-width="1" fill="none" fill-rule="evenodd">
        <path d="M17.2586018,20.75 C17.5703793,20.75 17.9274484,21.0083567 17.9274484,21.5 C17.9274484,21.9916433 17.5643628,22.25 17.2586018,22.25 L6.59549278,22.25 C6.28371519,22.25 5.92744838,22.0362554 5.92744838,21.5 C5.92744838,20.9637446 6.28973169,20.75 6.59549278,20.75 L17.2586018,20.75 Z M18.761301,18.25 C19.1702062,18.25 19.4375316,18.3951808 19.6411889,18.7003165 L22.1404492,21.4921472 C22.2376383,21.6401916 22.1701774,22.035686 21.6105938,22.1961567 C21.0510103,22.3566274 20.4982123,22.1211124 20.4029562,21.9760125 L18.1061133,19.6313487 L5.71849881,19.6313487 L3.57831926,21.8435327 C3.38399691,22.0873313 2.7574214,22.3578511 2.19881088,22.1961567 C1.64020036,22.0344623 1.590103,21.7248255 1.77134414,21.4921472 L4.31399299,18.6158681 C4.44159848,18.3952908 4.73156178,18.25 5.13095934,18.25 L18.761301,18.25 Z M21.3225516,1.75 C21.8748364,1.75 22.3225516,2.19771525 22.3225516,2.75 L22.3225516,16.25 C22.3225516,16.8022847 21.8748364,17.25 21.3225516,17.25 L2.82255162,17.25 C2.27026687,17.25 1.82255162,16.8022847 1.82255162,16.25 L1.82255162,2.75 C1.82255162,2.19771525 2.27026687,1.75 2.82255162,1.75 L21.3225516,1.75 Z M6.34022315,10.6954321 L8.86065341,14.1918975 L8.10519831,14.7407678 C8.03763155,14.7755937 7.97006479,14.8104197 7.8973133,14.8299937 L7.78364943,14.8460092 L5.1111786,14.9475958 C4.69666668,14.954558 4.37144365,14.5550509 4.4333144,14.158968 L4.46000935,14.0513382 L5.3853134,11.5175921 C5.41340273,11.4329953 5.45293841,11.364153 5.51491033,11.3030805 L5.58476804,11.2443023 L6.34022315,10.6954321 Z M16.6597247,8.52554056 L9.81373289,13.4994447 L7.28027754,10.0124426 L14.1262693,5.03853841 L16.6597247,8.52554056 Z M18.9647934,6.05595685 C19.168837,6.31373009 19.1620706,6.6550625 18.9646323,6.84607209 L18.8917853,6.90385362 L17.5997791,7.84255106 L15.0663237,4.35554892 L16.3583299,3.41685147 C16.5750186,3.25941794 16.9000316,3.31183746 17.1130757,3.52293254 L17.1872884,3.60943115 L18.9647934,6.05595685 Z" id="Combined-Shape-Copy-9" fill="#FFFFFF"></path>
    </g>
</svg>