<?xml version="1.0" encoding="UTF-8"?>
<svg width="18px" height="18px" viewBox="0 0 18 18" version="1.1" xmlns="http://www.w3.org/2000/svg" xmlns:xlink="http://www.w3.org/1999/xlink">
    <!-- Generator: Sketch 63.1 (92452) - https://sketch.com -->
    <title>Artboard Copy</title>
    <desc>Created with Sketch.</desc>
    <g id="Artboard-Copy" stroke="none" stroke-width="1" fill="none" fill-rule="evenodd">
        <g id="Group-32">
            <polygon id="Path-Copy" fill="#E9E9E9" points="1.37935481 1.5746806 6.01145047 1.61089503 4.36995258 3.25239292 5.74810814 4.63054848 4.43490983 5.94374678 3.05675427 4.56559123 1.41525639 6.20708911"></polygon>
            <polygon id="Path-Copy-3" fill="#E9E9E9" points="16.5197855 1.57779642 11.8908053 1.61712625 13.5300777 3.2563987 12.1519222 4.63455426 13.4633401 5.94597222 14.8414957 4.56781666 16.4807681 6.20708911"></polygon>
            <path d="M9,4.36519182 C10.2081229,4.36519182 11.1875,5.33380654 11.1875,6.52865336 L11.1875,7.74019182 L12.5,7.74019182 L12.5,11.8651918 L5.5,11.8651918 L5.5,7.74019182 L6.8125,7.74019182 L6.8125,6.52865336 C6.8125,5.33380654 7.79187711,4.36519182 9,4.36519182 Z M9.4375,9.24019182 L8.5625,9.24019182 L8.5625,10.3651918 L9.4375,10.3651918 L9.4375,9.24019182 Z M9,5.11519182 C8.32345118,5.11519182 7.76646016,5.62145445 7.69520157,6.27182896 L7.6875,6.41326874 L7.6875,7.74019182 L10.3125,7.74019182 L10.3125,6.41326874 C10.3125,5.69636065 9.72487373,5.11519182 9,5.11519182 Z" id="Shape" fill="#E9E9E9"></path>
            <polygon id="Path-Copy-2" fill="#E9E9E9" points="1.37935481 16.4976003 6.01145047 16.4613859 4.36995258 14.819888 5.74810814 13.4417325 4.43490983 12.1285341 3.05675427 13.5066897 1.41525639 11.8651918"></polygon>
            <polygon id="Path-Copy-4" fill="#E9E9E9" points="16.5197855 16.4976003 11.8876899 16.4613859 13.5291878 14.819888 12.1510322 13.4417325 13.4642305 12.1285341 14.8423861 13.5066897 16.483884 11.8651918"></polygon>
        </g>
    </g>
</svg>
