<?xml version="1.0" encoding="UTF-8"?>
<svg width="18px" height="18px" viewBox="0 0 18 18" version="1.1" xmlns="http://www.w3.org/2000/svg" xmlns:xlink="http://www.w3.org/1999/xlink">
    <!-- Generator: Sketch 63.1 (92452) - https://sketch.com -->
    <title>Artboard Copy</title>
    <desc>Created with Sketch.</desc>
    <g id="Artboard-Copy" stroke="none" stroke-width="1" fill="none" fill-rule="evenodd">
        <g id="Group-41" transform="translate(0.000000, -1.000000)">
            <g id="icon-/-perspective-/-unlink-camera-and-character" transform="translate(0.617688, 0.597246)" fill="#E9E9E9">
                <g id="Group" transform="translate(8.333333, 9.166667) scale(-1, 1) translate(-8.333333, -9.166667) translate(0.333333, 0.666667)">
                    <path d="M8.3881132,2.78919842 C8.87825849,2.78919842 11.7218657,2.8250404 11.9469357,2.8250404 C12.1720058,2.8250404 12.5467889,3.06731691 12.5467889,3.47790278 C12.5467889,3.75162669 12.5467889,4.07735152 12.5467889,4.45507728 L12.9979684,4.45507728 L14.6241883,2.8250404 L14.974882,2.8250404 L14.974882,7.39529444 L14.6241883,7.39529444 L12.9979684,6.07009891 L12.5467889,6.07009891 C12.5467889,6.32653634 12.5467889,6.5523904 12.5467889,6.74766111 C12.5467889,7.04056717 12.3807398,7.55906983 11.9469357,7.55906983 C11.8498931,7.55906983 8.53850859,7.52196424 8.38913886,7.52196424 C8.07091176,7.52196424 7.74386736,7.16824824 7.74386736,6.83806117 C7.74386736,6.5078741 7.7428417,3.77626687 7.7428417,3.47790278 C7.7428417,3.17953868 7.8979679,2.78919842 8.3881132,2.78919842 Z" id="Path-21" fill-rule="nonzero" transform="translate(11.358862, 5.174134) scale(-1, -1) rotate(-45.000000) translate(-11.358862, -5.174134) "></path>
                    <path d="M6.35534769,16.250564 L0.50314893,16.250564 L0.494082137,15.7789293 C0.484964084,14.8648558 0.529939217,14.1259587 0.629007538,13.5622379 C0.796398839,12.6097441 1.62204268,11.6951537 2.57287078,11.6481879 L2.67519996,11.6465136 L2.67519996,11.3502089 C2.35901901,11.3502089 1.10490518,10.9914649 1.10490518,9.5628986 C1.10490518,8.17762223 2.09249195,7.32417812 3.16634152,7.27372629 L3.22183312,7.27135723 L3.22183312,7.27135723 L3.59125648,7.27135723 C4.70331605,7.27135723 5.75359143,8.13433235 5.75359143,9.5628986 C5.75359143,10.9914649 4.49947761,11.3502089 4.18329666,11.3502089 L4.18329666,11.6465136 C5.17663977,11.6298742 6.05611952,12.5757264 6.22948908,13.5622379 C6.34506879,14.2199122 6.38702165,15.1160209 6.35534769,16.250564 Z" id="Path"></path>
                </g>
            </g>
        </g>
    </g>
</svg>
