<?xml version="1.0" encoding="UTF-8"?>
<svg width="24px" height="24px" viewBox="0 0 24 24" version="1.1" xmlns="http://www.w3.org/2000/svg" xmlns:xlink="http://www.w3.org/1999/xlink">
    <title>icon / Animation / Animation - box</title>
    <defs>
        <linearGradient x1="50%" y1="0%" x2="50%" y2="100%" id="linearGradient-1">
            <stop stop-color="#ADADAD" stop-opacity="0" offset="0%"></stop>
            <stop stop-color="#9D9D9D" offset="100%"></stop>
        </linearGradient>
        <path d="M20.924815,0 C23.1021676,0 23.9566542,1.77846722 23.9566542,3.01865122 C23.9566542,4.25883521 23.9566542,18.7815894 23.9566542,20.6420628 C23.9566542,22.3929727 22.7281352,23.9566542 20.924815,23.9566542 C19.1214948,23.9566542 4.64929841,23.9566542 2.80929064,23.9566542 C1.38661643,23.9566542 0,22.5147712 0,21.1586662 C0,19.8025612 0,4.03532882 0,2.67255351 C0,1.3097782 1.36539793,0 2.60955829,0 C3.85371865,0 18.9601214,0 20.924815,0 Z" id="path-2"></path>
    </defs>
    <g id="icon-/-Animation-/-Animation---box" stroke="none" stroke-width="1" fill="none" fill-rule="evenodd">
        <g id="icon/general/color/-box-template">
            <mask id="mask-3" fill="white">
                <use xlink:href="#path-2"></use>
            </mask>
            <use id="Path-3" fill="url(#linearGradient-1)" xlink:href="#path-2"></use>
            <g id="Group" mask="url(#mask-3)" fill="#5AA9D2">
                <g id="icon/color/AI" style="mix-blend-mode: multiply;">
                    <rect id="UI" x="0" y="0" width="24" height="24"></rect>
                </g>
            </g>
        </g>
        <path d="M14.305803,6.47369367 C14.6993916,6.6892261 15.0165548,7.03456112 15.1933492,7.4597408 L17.5370596,10.7388937 L19.7921887,13.1099302 L18.4539274,14.5962199 L15.9723802,11.9890965 L15.954824,12 L15.8519674,11.8625904 L15.6374341,11.6372009 L15.6640685,11.6115701 L14.6333027,10.2345359 L13.1304978,13.609891 L15.8553007,16 L15.8655889,16 L15.8655889,22 L13.8655889,22 L13.8655889,16.9335637 L10.9173755,14.4145916 L10.6541721,14.2974059 L9.2787337,17.3866912 L8.50557994,19.1359308 L2.86558888,15.6954658 L3.92542741,13.9993696 L7.607861,16.2223461 L8.82708121,13.4839327 L8.81118422,13.4768549 L10.9142284,8.75334034 L9.33753914,9.12452852 L7.74923941,12.0950967 L6,11.1254774 L8.00970689,7.42096143 L8,7.3871095 L13.0613105,6.24191249 L13.0627046,6.24907236 L13.1028472,6.24373869 L13.1028472,6.24373869 C13.5346882,6.19071527 13.9512538,6.27953958 14.305803,6.47369367 Z M15,2 C16.1045695,2 17,2.8954305 17,4 C17,5.1045695 16.1045695,6 15,6 C13.8954305,6 13,5.1045695 13,4 C13,2.8954305 13.8954305,2 15,2 Z" id="Combined-Shape" fill="#FFFFFF"></path>
    </g>
</svg>