<?xml version="1.0" encoding="UTF-8"?>
<svg width="24px" height="24px" viewBox="0 0 24 24" version="1.1" xmlns="http://www.w3.org/2000/svg" xmlns:xlink="http://www.w3.org/1999/xlink">
    <title>icon / Audio / AudioAnimationEventsProxy - box</title>
    <defs>
        <linearGradient x1="50%" y1="0%" x2="50%" y2="100%" id="linearGradient-1">
            <stop stop-color="#ADADAD" stop-opacity="0" offset="0%"></stop>
            <stop stop-color="#9D9D9D" offset="100%"></stop>
        </linearGradient>
        <path d="M20.924815,0 C23.1021676,0 23.9566542,1.77846722 23.9566542,3.01865122 C23.9566542,4.25883521 23.9566542,18.7815894 23.9566542,20.6420628 C23.9566542,22.3929727 22.7281352,23.9566542 20.924815,23.9566542 C19.1214948,23.9566542 4.64929841,23.9566542 2.80929064,23.9566542 C1.38661643,23.9566542 0,22.5147712 0,21.1586662 C0,19.8025612 0,4.03532882 0,2.67255351 C0,1.3097782 1.36539793,0 2.60955829,0 C3.85371865,0 18.9601214,0 20.924815,0 Z" id="path-2"></path>
    </defs>
    <g id="icon-/-Audio-/-AudioAnimationEventsProxy---box" stroke="none" stroke-width="1" fill="none" fill-rule="evenodd">
        <g id="icon/general/color/-box-template">
            <mask id="mask-3" fill="white">
                <use xlink:href="#path-2"></use>
            </mask>
            <use id="Path-3" fill="url(#linearGradient-1)" xlink:href="#path-2"></use>
            <g id="Group" mask="url(#mask-3)" fill="#DF9557">
                <g id="icon/color/AI" style="mix-blend-mode: multiply;">
                    <rect id="Rectangle-2" x="0" y="0" width="24" height="24"></rect>
                </g>
            </g>
        </g>
        <path d="M10.6,18.8501837 L10.6,20.8501837 L13.4,20.8501837 L13.4,18.8501837 L10.6,18.8501837 Z M14.5560317,18.8501837 L14.5560317,20.8501837 L17.3560317,20.8501837 L16.4479179,19.8501837 L17.3560317,18.8501837 L14.5560317,18.8501837 Z M3.79702045,17.37531 L6.27189419,19.8501837 L3.79702045,22.3250574 L1.32214672,19.8501837 L3.79702045,17.37531 Z M20.2029795,17.37531 L22.6778533,19.8501837 L20.2029795,22.3250574 L17.7281058,19.8501837 L20.2029795,17.37531 Z M9.44396834,18.8501837 L9.44396834,20.8501837 L6.64396834,20.8501837 L7.55208208,19.8501837 L6.64396834,18.8501837 L9.44396834,18.8501837 Z M12,2.9629324 L7.1028973,4.31152442 L7.1028973,13.6712754 L12,16.1201934 L12,6.45443512 L16.8971027,4.31152442 L12,2.9629324 Z M18.1520313,3.68396613 L18.1520313,14.2988336 L12,17.37531 L5.84796867,14.2988336 L5.84796867,3.68396613 L12,2.09479475 L18.1520313,3.68396613 Z M12.4082377,6.84868858 L12.4082377,16.713906 L11.7807734,16.713906 L11.7807734,6.84333874 L6.49900254,4.80708901 L6.7953934,4.26394696 L12.0997358,6.31207657 L17.0541547,4.26817209 L17.3660694,4.80286388 L12.4082377,6.84868858 Z M15.2193583,9.04081364 C15.9258956,8.83320244 16.3715544,8.18503342 16.2751635,7.3648751 C16.1787726,6.54471679 15.6858976,6.07643165 15.0252764,6.21423905 C14.3646553,6.35204645 13.8983017,7.05393555 13.8983017,7.82030812 C13.8983017,8.58668069 14.5128209,9.24842484 15.2193583,9.04081364 Z M15.4020263,14.2751389 C16.5178205,13.9472703 17.221624,12.923654 17.0693993,11.6284247 C16.9171747,10.3331955 16.1388053,9.59365951 15.095524,9.81129087 C14.0522426,10.0289222 13.315757,11.1373757 13.315757,12.3476641 C13.315757,13.5579526 14.2862322,14.6030074 15.4020263,14.2751389 Z" id="Shape" fill="#FFFFFF" fill-rule="nonzero"></path>
    </g>
</svg>