<?xml version="1.0" encoding="UTF-8"?>
<svg width="24px" height="24px" viewBox="0 0 24 24" version="1.1" xmlns="http://www.w3.org/2000/svg" xmlns:xlink="http://www.w3.org/1999/xlink">
    <title>icon / Audio / AudioMultiPosition - box</title>
    <defs>
        <linearGradient x1="50%" y1="0%" x2="50%" y2="100%" id="linearGradient-1">
            <stop stop-color="#ADADAD" stop-opacity="0" offset="0%"></stop>
            <stop stop-color="#9D9D9D" offset="100%"></stop>
        </linearGradient>
        <path d="M20.924815,0 C23.1021676,0 23.9566542,1.77846722 23.9566542,3.01865122 C23.9566542,4.25883521 23.9566542,18.7815894 23.9566542,20.6420628 C23.9566542,22.3929727 22.7281352,23.9566542 20.924815,23.9566542 C19.1214948,23.9566542 4.64929841,23.9566542 2.80929064,23.9566542 C1.38661643,23.9566542 0,22.5147712 0,21.1586662 C0,19.8025612 0,4.03532882 0,2.67255351 C0,1.3097782 1.36539793,0 2.60955829,0 C3.85371865,0 18.9601214,0 20.924815,0 Z" id="path-2"></path>
    </defs>
    <g id="icon-/-Audio-/-AudioMultiPosition---box" stroke="none" stroke-width="1" fill="none" fill-rule="evenodd">
        <g id="icon/general/color/-box-template">
            <mask id="mask-3" fill="white">
                <use xlink:href="#path-2"></use>
            </mask>
            <use id="Path-3" fill="url(#linearGradient-1)" xlink:href="#path-2"></use>
            <g id="Group" mask="url(#mask-3)" fill="#DF9557">
                <g id="icon/color/AI" style="mix-blend-mode: multiply;">
                    <rect id="Rectangle-2" x="0" y="0" width="24" height="24"></rect>
                </g>
            </g>
        </g>
        <path d="M18.8634151,13.8021518 C21.0935523,13.8021518 22.9014357,15.6100352 22.9014357,17.8401724 L22.9014357,22.9950937 L17.9194412,22.9950937 C15.5671121,22.9950937 13.6601727,21.0881542 13.6601727,18.7358252 L13.6601727,18.2891057 C13.6601727,16.0589685 16.050667,13.8021518 18.2808042,13.8021518 L18.8634151,13.8021518 Z M12.9712395,1.04989456 C13.2857356,1.05234146 13.5428007,1.05606524 13.7424349,1.0610659 C14.445831,2.3405871 14.8435686,3.79404612 14.8435686,5.33807451 C14.8435686,5.81843088 14.8050729,6.29002133 14.7308539,6.75033555 C15.4163722,6.54643488 16.1279706,6.39562305 16.8590453,6.30240747 C16.8676223,6.15091877 16.8711488,5.99729491 16.8711488,5.84292062 C16.8711488,4.14299317 16.4435338,2.53405947 15.6820367,1.10435279 L17.0629971,1.08901478 C17.7388397,2.54545721 18.1136166,4.15271135 18.1136166,5.84292062 C18.1136166,5.96321114 18.1117183,6.08308149 18.1079484,6.20250721 C18.2731481,6.19481383 18.4403758,6.1917938 18.6083494,6.1917938 C19.9413536,6.1917938 21.2273749,6.38198525 22.436718,6.73503124 L22.8865693,6.87500389 L22.8776557,8.18747427 C21.5572524,7.70152738 20.116946,7.43426166 18.6083494,7.43426166 C18.4037933,7.43426166 18.2004927,7.43917551 17.9985763,7.44888209 C17.9015978,8.12973246 17.7426226,8.79225348 17.5277609,9.43153348 C18.0089826,9.36289595 18.5020805,9.3279473 19.003591,9.3279473 C20.3877705,9.3279473 21.7078654,9.59417624 22.9076829,10.0757573 L22.8691091,12.8044696 C21.7439646,12.1758306 20.4218626,11.812883 19.003591,11.812883 C17.946632,11.812883 16.9430846,12.0144602 16.0346649,12.3773602 C15.0316952,13.8132317 13.7075828,15.0333533 12.1585133,15.9514907 C11.7654265,16.783616 11.5487839,17.7007528 11.5487839,18.6619255 C11.5487839,20.2805315 12.1631445,21.7742592 13.1926851,22.9509074 L10.9361773,22.9501054 C10.6216813,22.9476585 10.3646161,22.9439348 10.164982,22.9389341 C9.46158582,21.6594129 9.06384821,20.2059539 9.06384821,18.6619255 C9.06384821,18.181702 9.10232269,17.7102397 9.17650138,17.2500466 C8.49104462,17.4535651 7.77944622,17.6043769 7.04837152,17.6975925 C7.03979458,17.8490812 7.0362681,18.0027051 7.0362681,18.1570794 C7.0362681,19.8570068 7.4638831,21.4659405 8.22538017,22.8956472 L6.84441979,22.9109852 C6.16857714,21.4545428 5.79380024,19.8472887 5.79380024,18.1570794 C5.79380024,18.0371249 5.79568791,17.9175882 5.79943689,17.7984936 C5.6342687,17.8051862 5.46704108,17.8082062 5.29906742,17.8082062 C3.96606326,17.8082062 2.68004191,17.6180147 1.47069888,17.2649688 L1.02084754,17.1249961 L1.02976113,15.8125257 C2.35016445,16.2984726 3.79047084,16.5657383 5.29906742,16.5657383 C5.50362356,16.5657383 5.70692415,16.5608245 5.9088405,16.5511179 C6.00576825,15.8706216 6.16462894,15.2084357 6.37932071,14.569464 C5.89843422,14.637104 5.40533631,14.6720527 4.90382581,14.6720527 C3.51964631,14.6720527 2.19955149,14.4058238 0.999733965,13.9242427 L1.03830772,11.1955304 C2.16345222,11.8241694 3.48555421,12.187117 4.90382581,12.187117 C5.96078483,12.187117 6.96433229,11.9855398 7.87275199,11.6226398 C8.87512523,10.1873075 10.1995274,8.96681061 11.7489988,8.04845281 C12.1420738,7.21603057 12.3586329,6.29906203 12.3586329,5.33807451 C12.3586329,3.71946854 11.7442723,2.22574081 10.7147317,1.0490926 L12.9712395,1.04989456 Z M19.5695488,15.0688395 L14.9515749,19.6868134 C14.5092787,20.1291095 14.6528476,20.56431 15.2721805,20.6514684 L17.9364826,21.0281297 L19.1072665,22.1989136 C19.3583815,22.4467753 19.7625639,22.4451898 20.0117271,22.1953662 L22.0954859,20.1116073 C22.3443071,19.8627862 22.348091,19.4557314 22.0992699,19.2069102 L20.9036511,18.0157854 L20.5332577,15.3901546 C20.4462176,14.7707035 20.0118449,14.6265433 19.5695488,15.0688395 Z M16.7202487,7.57798318 L16.5257194,7.60736371 C15.7822444,7.73252367 15.0637103,7.92348455 14.377329,8.1734575 C13.3909314,11.0851001 10.9275848,13.3672535 7.82577081,14.2619377 C7.5340867,14.9503564 7.31860301,15.6737763 7.18699222,16.4230179 C8.00042053,16.3001509 8.78460966,16.0980906 9.53079366,15.8262854 C10.5164855,12.9148999 12.9798321,10.6327465 16.081646,9.73806235 C16.3732009,9.04995044 16.5886219,8.32686802 16.7202487,7.57798318 Z M5.98797568,1.00490631 C8.3403047,1.00490631 10.2472442,2.91184576 10.2472442,5.26417479 L10.2472442,5.71089432 C10.2472442,7.94103147 7.85674983,10.1978482 5.62661267,10.1978482 L5.04400171,10.1978482 C2.81386455,10.1978482 1.00598118,8.38996479 1.00598118,6.15982764 L1.00598118,1.00490631 L5.98797568,1.00490631 Z M3.89568979,1.80463384 L1.81193093,3.8883927 C1.56310978,4.13721385 1.55932583,4.54426863 1.80814698,4.79308977 L2.98851005,5.97345284 L3.00376571,5.98421459 L3.37415917,8.60984537 C3.46119927,9.2292965 3.89557193,9.37345666 4.33786808,8.93116051 L8.95584197,4.31318663 C9.39813812,3.87089048 9.25456926,3.43568999 8.63523639,3.34853163 L5.97093427,2.97187034 L4.80015034,1.80108641 C4.54903537,1.55322471 4.14485294,1.55481015 3.89568979,1.80463384 Z" id="Combined-Shape" fill="#FFFFFF"></path>
    </g>
</svg>