<?xml version="1.0" encoding="UTF-8"?>
<svg width="24px" height="24px" viewBox="0 0 24 24" version="1.1" xmlns="http://www.w3.org/2000/svg" xmlns:xlink="http://www.w3.org/1999/xlink">
    <title>icon / Audio / AudioTrigger - box</title>
    <defs>
        <linearGradient x1="50%" y1="0%" x2="50%" y2="100%" id="linearGradient-1">
            <stop stop-color="#ADADAD" stop-opacity="0" offset="0%"></stop>
            <stop stop-color="#9D9D9D" offset="100%"></stop>
        </linearGradient>
        <path d="M20.924815,0 C23.1021676,0 23.9566542,1.77846722 23.9566542,3.01865122 C23.9566542,4.25883521 23.9566542,18.7815894 23.9566542,20.6420628 C23.9566542,22.3929727 22.7281352,23.9566542 20.924815,23.9566542 C19.1214948,23.9566542 4.64929841,23.9566542 2.80929064,23.9566542 C1.38661643,23.9566542 0,22.5147712 0,21.1586662 C0,19.8025612 0,4.03532882 0,2.67255351 C0,1.3097782 1.36539793,0 2.60955829,0 C3.85371865,0 18.9601214,0 20.924815,0 Z" id="path-2"></path>
    </defs>
    <g id="icon-/-Audio-/-AudioTrigger---box" stroke="none" stroke-width="1" fill="none" fill-rule="evenodd">
        <g id="icon/general/color/-box-template">
            <mask id="mask-3" fill="white">
                <use xlink:href="#path-2"></use>
            </mask>
            <use id="Path-3" fill="url(#linearGradient-1)" xlink:href="#path-2"></use>
            <g id="Group" mask="url(#mask-3)" fill="#DF9557">
                <g id="icon/color/AI" style="mix-blend-mode: multiply;">
                    <rect id="Rectangle-2" x="0" y="0" width="24" height="24"></rect>
                </g>
            </g>
        </g>
        <path d="M21.9554951,13.501167 C21.9573625,13.5240734 21.9586219,13.7625648 21.9594249,14.1468542 L21.960005,14.5103232 C21.9600842,14.5763097 21.960155,14.6448648 21.9602178,14.715785 L21.9601473,17.349457 C21.9600945,17.447333 21.9600381,17.5455394 21.9599787,17.6438729 L21.9593709,18.5268103 C21.9592966,18.6240748 21.9592206,18.7208559 21.9591432,18.8169502 L21.9581771,19.9240934 C21.9580959,20.0114378 21.9580151,20.0972816 21.9579351,20.1814212 L21.9572502,20.8871735 C21.9571794,20.9592574 21.9571106,21.0290267 21.9570445,21.096278 L21.9562181,22.1518785 L19.1544961,20.0429916 L18.9469777,19.8867902 L16.4757199,19.8977378 C16.4242384,19.8977378 16.3767275,19.8496775 16.3767275,19.791673 L16.3767275,19.791673 L16.3767275,15.8950515 C16.3766507,15.8365552 16.4230543,15.7897881 16.4805667,15.7894132 L16.4805667,15.7894132 L18.9135751,15.789429 Z M19.7506558,1.98900188 C20.2878552,1.98900188 20.8060413,2.23433146 20.8060413,2.79139563 C20.8060413,3.11184775 21.4042135,7.8038927 21.935398,11.8450373 C21.6650107,11.8912719 21.38135,12.0145654 21.1029374,12.2242836 L20.7491343,12.4904408 L19.6223863,2.99245521 L3.52626836,2.99245521 L1.83946785,17.0427884 L14.876728,17.0427884 L14.8767278,18.5250305 L1.9499277,18.48765 L2.70628013,20.0494329 L14.9011203,20.0494329 C14.9684446,20.4316845 15.1710412,20.7685564 15.4577514,21.0072269 L2.15867295,21.0072269 C1.88666786,21.0072269 1.64108984,20.9266265 1.51893361,20.6223196 C1.39677739,20.3180128 0.868937176,18.7750726 0.789326883,18.5664813 C0.709716591,18.3578899 0.642346124,17.9863238 0.676031358,17.7102078 C0.692312554,17.5767517 1.08975107,14.0945182 1.50721219,10.5007016 L1.59375069,9.75662304 C2.01225591,6.16281252 2.42587788,2.68067361 2.47348189,2.54740049 C2.57197294,2.27166301 2.82155936,1.98900188 3.28727912,1.98900188 L19.7506558,1.98900188 Z M16.496181,5.90732527 C16.7588103,6.12328418 16.9543036,6.2994488 17.0826612,6.43581913 C17.525792,6.90661273 17.8905798,7.41118062 18.0133077,7.64492603 C18.2773857,8.14788451 18.680364,8.89887112 18.625427,10.2536773 C18.5704899,11.6084835 16.6086107,15.3546527 11.6716268,15.3546527 C6.73464296,15.3546527 4.80327155,12.403868 4.80327155,10.1219695 C4.80327155,8.60070381 5.43427349,7.27990002 6.69627737,6.15955814 C6.1549366,7.07416029 5.95333067,8.13885984 6.09145957,9.35365679 C6.29865294,11.1758522 8.29995097,13.3172976 11.6716268,13.3172976 C15.0433027,13.3172976 17.239707,11.0500209 17.239707,8.96429485 C17.239707,7.87934003 17.080924,7.01242691 16.7633579,6.36355548 L16.496181,5.90732527 Z M11.6912052,3.37099816 C14.5767197,3.37099816 16.2157462,4.96355875 16.2157462,7.12201477 L16.2157462,8.88089522 C16.2157462,10.5260021 14.6530785,12.572228 11.5589119,12.572228 C8.55888206,12.572228 6.90801002,10.7304621 6.90801002,8.31014104 L6.90801002,7.12201477 C6.90801002,4.96355875 8.80569069,3.37099816 11.6912052,3.37099816 Z M15.0124524,5.47035497 C15.0755044,5.87553282 15.2049024,6.14040559 15.0755044,6.6142278 C14.9461065,7.08805001 14.0861119,8.89757799 11.5618781,8.89757799 C9.03764427,8.89757799 8.29842716,7.11392019 8.12776671,6.6142278 C8.01399308,6.28109954 8.04159614,5.9498999 8.2105759,5.62062888 C8.12476007,5.64229708 8.06058283,5.73394207 8.01804417,5.89556384 C7.93792591,6.19996594 7.90644937,6.55794173 7.89270344,6.81937171 C7.85444388,7.54701928 8.5778855,9.8546201 11.6187129,9.76258641 C14.6595402,9.67055273 15.2323647,7.34316617 15.2323647,6.97716126 C15.2323647,6.61115634 15.2443677,5.97183782 15.0124524,5.47035497 Z" id="Combined-Shape" fill="#FFFFFF"></path>
    </g>
</svg>