<?xml version="1.0" encoding="UTF-8"?>
<svg width="24px" height="24px" viewBox="0 0 24 24" version="1.1" xmlns="http://www.w3.org/2000/svg" xmlns:xlink="http://www.w3.org/1999/xlink">
    <title>icon / Audio / AudioListener - box</title>
    <defs>
        <linearGradient x1="50%" y1="0%" x2="50%" y2="100%" id="linearGradient-1">
            <stop stop-color="#ADADAD" stop-opacity="0" offset="0%"></stop>
            <stop stop-color="#9D9D9D" offset="100%"></stop>
        </linearGradient>
        <path d="M20.924815,0 C23.1021676,0 23.9566542,1.77846722 23.9566542,3.01865122 C23.9566542,4.25883521 23.9566542,18.7815894 23.9566542,20.6420628 C23.9566542,22.3929727 22.7281352,23.9566542 20.924815,23.9566542 C19.1214948,23.9566542 4.64929841,23.9566542 2.80929064,23.9566542 C1.38661643,23.9566542 0,22.5147712 0,21.1586662 C0,19.8025612 0,4.03532882 0,2.67255351 C0,1.3097782 1.36539793,0 2.60955829,0 C3.85371865,0 18.9601214,0 20.924815,0 Z" id="path-2"></path>
    </defs>
    <g id="icon-/-Audio-/-AudioListener---box" stroke="none" stroke-width="1" fill="none" fill-rule="evenodd">
        <g id="icon/general/color/-box-template">
            <mask id="mask-3" fill="white">
                <use xlink:href="#path-2"></use>
            </mask>
            <use id="Path-3" fill="url(#linearGradient-1)" xlink:href="#path-2"></use>
            <g id="Group" mask="url(#mask-3)" fill="#DF9557">
                <g id="icon/color/AI" style="mix-blend-mode: multiply;">
                    <rect id="Rectangle-2" x="0" y="0" width="24" height="24"></rect>
                </g>
            </g>
        </g>
        <path d="M4.10041385,9.80566392 L4.41978753,10.2090112 C4.35375385,10.2612972 4.24266874,10.3778241 4.12904125,10.5554631 C3.63821291,11.3227976 3.6622782,12.341479 4.58996878,13.6569395 L4.16952511,13.9534453 C3.12147055,12.4673093 3.0920482,11.221864 3.69564225,10.2782378 C3.84283396,10.0481263 3.99256806,9.8910571 4.10041385,9.80566392 Z M2.24380753,8.48742944 L2.66465763,8.78335808 C2.57598915,8.90945651 2.43551499,9.166404 2.29283365,9.54353432 C1.80543457,10.8318105 1.72721767,12.4049741 2.32442068,14.2172793 L1.83578798,14.3782969 C1.2000228,12.4489687 1.28421881,10.7555482 1.81164157,9.36148285 C1.97045646,8.94170889 2.13147853,8.64717631 2.24380753,8.48742944 Z M6.57665767,18.642551 C6.85348308,19.0948391 7.9276686,19.592857 8.56161817,19.592857 C8.61064636,19.592857 8.65295957,19.5933546 8.74501071,19.5947526 C9.19493421,19.6014458 9.42606213,19.5858936 9.68205745,19.5112326 C10.1635461,19.3708064 10.5172696,19.0323263 10.7606959,18.3442911 C11.1599395,17.215844 11.9013761,16.6404893 13.6967589,15.708131 C13.8090485,15.6498641 13.8090485,15.6498641 13.9207646,15.5918453 C14.6479144,15.2137449 15.0397195,14.987665 15.4155975,14.7090914 C16.8670422,13.6333853 17.2570973,12.7228619 17.2570971,10.2362182 C17.2570969,7.02015982 15.4756113,4.5767267 12.1311429,4.5767267 C10.4193504,4.5767267 9.22451797,5.09663107 8.42742551,5.95709796 C8.15227965,6.25411984 7.94501337,6.57202117 7.79665689,6.88829732 C7.71037976,7.0722286 7.66423119,7.20859248 7.6487538,7.27296505 L6.64830699,7.03242312 C6.76015877,6.56721627 7.06842971,5.91002389 7.67257585,5.2578439 C8.66475288,4.18678185 10.1333181,3.54776886 12.1311429,3.54776886 C16.1267536,3.54776886 18.286055,6.50940259 18.286055,10.2362181 C18.286055,13.0285324 17.7626343,14.2503778 16.0282681,15.5357648 C15.5959808,15.856145 15.1686717,16.1027113 14.3954598,16.5047629 C14.2827528,16.5632965 14.2827528,16.5632965 14.1709746,16.6212979 C12.606314,17.4338401 12.0107647,17.8959863 11.7307317,18.687489 C11.3776754,19.6853892 10.771679,20.2652707 9.97015048,20.4990365 C9.58628265,20.6109916 9.27778303,20.63175 8.72970525,20.6235966 C8.63937677,20.6222365 8.60351686,20.6218148 8.56161817,20.6218148 C7.5945769,20.6218148 6.18039374,19.966166 5.69903562,19.1797044 C5.1823534,18.335529 5.18842083,17.6160844 5.50317901,16.7902536 C5.46926822,16.8792507 5.62813758,16.4752195 5.64369041,16.421539 L6.63200291,16.7078826 C6.60246216,16.8098423 6.42184741,17.2704868 6.45733135,17.1760656 C6.25329791,17.7182142 6.25289236,18.1135707 6.57665767,18.642551 Z M10.4301379,8.00166743 L10.8769786,7.74667335 C10.9402408,7.85753129 11.0658777,8.03357607 11.2409257,8.20868131 C11.5197934,8.48764016 11.8208237,8.64968484 12.1290397,8.64968484 C13.0881459,8.64968484 14.256743,9.1831326 14.6677462,9.81981431 C14.8862434,10.1582865 15.0129769,10.6916344 14.9701013,11.1355779 C14.9141899,11.714498 14.5806875,12.1061168 14.0020178,12.1061168 C12.884071,12.1061168 11.4428305,12.584971 11.2154326,13.1318 C10.8310859,14.0560472 9.87477382,15.3242971 9.28379878,15.5698746 C8.85022885,15.7500429 8.09982192,15.513894 7.6607661,15.0168781 C7.09405059,14.3753501 7.05501759,13.4209938 7.67451611,12.2547403 C8.11149397,11.432096 8.67473189,10.9174382 9.34191828,10.6680151 C9.96046411,10.436776 10.5552082,10.4448122 11.3161388,10.5950442 C11.3800712,10.6076665 11.6050222,10.6544867 11.6521947,10.6636178 C11.7467483,10.6819204 11.8067325,10.6901833 11.8406735,10.6901833 L11.8406735,11.2046622 C11.7646592,11.2046622 11.6794902,11.1929301 11.5544229,11.168721 C11.5028069,11.1587298 11.2765912,11.1116463 11.2164878,11.09978 C10.5408848,10.9663944 10.0314049,10.9595103 9.52207506,11.1499198 C8.97624446,11.3539749 8.5085359,11.7813428 8.12887242,12.4960884 C7.60351937,13.4851058 7.63310494,14.2084726 8.0463446,14.6762643 C8.34914461,15.0190371 8.87239501,15.1837011 9.08637594,15.0947822 C9.52173002,14.9138724 10.4034119,13.7445962 10.740391,12.9342548 C11.0751433,12.1292683 12.6932867,11.5916379 14.0020178,11.5916379 C14.2831999,11.5916379 14.425298,11.4247777 14.4580052,11.0861202 C14.4898279,10.7566199 14.3906266,10.339139 14.2355058,10.0988426 C13.9275472,9.62178654 12.9250561,9.16416376 12.1290397,9.16416376 C11.6618919,9.16416376 11.2434672,8.93892572 10.8770747,8.57241338 C10.6649666,8.3602359 10.5142136,8.14899796 10.4301379,8.00166743 Z M19.723529,9.80566392 C19.8313748,9.8910571 19.9811089,10.0481263 20.1283006,10.2782378 C20.7318947,11.221864 20.7024723,12.4673093 19.6544177,13.9534453 L19.2339741,13.6569395 C20.1616646,12.341479 20.1857299,11.3227976 19.6949016,10.5554631 C19.5812741,10.3778241 19.470189,10.2612972 19.4041553,10.2090112 L19.723529,9.80566392 Z M21.5832463,8.48742944 C21.6955753,8.64717631 21.8565974,8.94170889 22.0154123,9.36148285 C22.542835,10.7555482 22.6270311,12.4489687 21.9912659,14.3782969 L21.5026332,14.2172793 C22.0998362,12.4049741 22.0216193,10.8318105 21.5342202,9.54353432 C21.3915389,9.166404 21.2510647,8.90945651 21.1623962,8.78335808 L21.5832463,8.48742944 Z" id="Combined-Shape" fill="#FFFFFF" fill-rule="nonzero"></path>
    </g>
</svg>