<?xml version="1.0" encoding="UTF-8"?>
<svg width="24px" height="24px" viewBox="0 0 24 24" version="1.1" xmlns="http://www.w3.org/2000/svg" xmlns:xlink="http://www.w3.org/1999/xlink">
    <title>icon / Shapes / Capsule - box</title>
    <defs>
        <linearGradient x1="50%" y1="0%" x2="50%" y2="100%" id="linearGradient-1">
            <stop stop-color="#ADADAD" stop-opacity="0" offset="0%"></stop>
            <stop stop-color="#9D9D9D" offset="100%"></stop>
        </linearGradient>
        <path d="M20.924815,0 C23.1021676,0 23.9566542,1.77846722 23.9566542,3.01865122 C23.9566542,4.25883521 23.9566542,18.7815894 23.9566542,20.6420628 C23.9566542,22.3929727 22.7281352,23.9566542 20.924815,23.9566542 C19.1214948,23.9566542 4.64929841,23.9566542 2.80929064,23.9566542 C1.38661643,23.9566542 0,22.5147712 0,21.1586662 C0,19.8025612 0,4.03532882 0,2.67255351 C0,1.3097782 1.36539793,0 2.60955829,0 C3.85371865,0 18.9601214,0 20.924815,0 Z" id="path-2"></path>
    </defs>
    <g id="icon-/-Shapes-/-Capsule---box" stroke="none" stroke-width="1" fill="none" fill-rule="evenodd">
        <g id="icon/general/color/-box-template">
            <mask id="mask-3" fill="white">
                <use xlink:href="#path-2"></use>
            </mask>
            <use id="Path-3" fill="url(#linearGradient-1)" xlink:href="#path-2"></use>
            <g id="Group" mask="url(#mask-3)" fill="#5A69A1">
                <g id="icon/color/AI" style="mix-blend-mode: multiply;">
                    <rect id="Rectangle-2" x="0" y="0" width="24" height="24"></rect>
                </g>
            </g>
        </g>
        <path d="M18.1690143,16.0244823 L15.444714,12.4017835 C14.6352822,13.340816 13.5726735,14.2676139 12.5054186,14.9651968 L15.1717325,18.6135269 C16.2528883,17.9230289 17.3550742,16.9692392 18.1690143,16.0244823 L18.1690143,16.0244823 Z M18.4345733,16.4498033 C17.606154,17.3930032 16.5291353,18.3174468 15.4560945,19.0026208 L15.9423005,19.6678987 C15.9504964,19.6694829 16.0321813,19.7350696 16.1528185,19.8157378 C16.6958785,20.1788736 17.3435072,20.3982029 18.0675896,20.3597291 C18.236709,20.2647428 18.401477,20.1573496 18.5606762,20.0373844 C18.739299,19.9027825 18.9046566,19.7570803 19.0564932,19.6019933 C19.1299377,19.3579096 19.1607501,19.0906484 19.1521512,18.8016514 C19.1354309,18.2396999 18.9708189,17.6286159 18.7059937,17.0133187 C18.6193531,16.812017 18.5272468,16.6228174 18.4345733,16.4498033 L18.4345733,16.4498033 Z M12.8684437,19.6136635 C13.4210801,19.531436 14.0779047,19.2583597 14.7592348,18.8645972 L12.0952656,15.2217172 C11.4172255,15.6263957 10.7502294,15.9267663 10.1585281,16.0667348 L12.5432626,19.2313844 C12.6452424,19.3667161 12.7538958,19.4941778 12.8684437,19.6136635 L12.8684437,19.6136635 Z M13.307268,20.011006 C14.3763105,20.8493735 15.7929587,21.1192485 17.0993837,20.7585311 C16.6570396,20.6540414 16.2499702,20.4663695 15.884742,20.2221471 C15.7420988,20.1267638 15.6410187,20.0456042 15.5847239,19.9934231 L15.0439743,19.2539679 C14.4379725,19.60591 13.8436838,19.8716894 13.307268,20.011006 L13.307268,20.011006 Z M19.3983818,13.9696798 L16.7159827,10.410016 C16.5335823,10.9093392 16.1980662,11.4601589 15.7614039,12.0171031 L18.48509,15.6392312 C18.9514493,15.0401441 19.2828048,14.459919 19.3983818,13.9696798 L19.3983818,13.9696798 Z M19.7385812,14.4768728 C19.5412601,14.9695772 19.2020644,15.5082288 18.7689713,16.050941 C18.7858037,16.0804186 18.8039665,16.1127657 18.8232947,16.1478532 C18.9362894,16.3529776 19.049119,16.5807323 19.1544811,16.8255315 C19.4410098,17.4912548 19.6204138,18.1572507 19.6391678,18.7875543 C19.6398687,18.8111084 19.640341,18.8345643 19.6405836,18.8579208 C20.4591901,17.5405472 20.525762,15.852631 19.7385812,14.4768728 L19.7385812,14.4768728 Z M15.1497228,12.0095124 L12.2863454,8.20187271 C11.495596,9.12387204 10.4590141,10.0356948 9.41171764,10.7320709 L12.2210337,14.5760716 C13.2851065,13.8798338 14.359326,12.9380319 15.1497228,12.0095124 L15.1497228,12.0095124 Z M9.83902839,15.6427443 C10.4155977,15.5500304 11.1023333,15.2539619 11.8106608,14.8325307 L9.00263316,10.9926561 C8.30487191,11.4174064 7.61596278,11.7344135 7.00567848,11.882762 L9.83902839,15.6427443 L9.83902839,15.6427443 Z M16.3532727,9.92868356 L13.5481721,6.20618931 C13.3704406,6.70542196 13.0376533,7.25728564 12.6023111,7.81594421 L15.4638792,11.6214362 C15.9327625,11.0099586 16.2580225,10.4203527 16.3532727,9.92868356 L16.3532727,9.92868356 Z M11.9912431,7.80945381 L10.7793547,6.19791826 C10.7263694,6.1339984 10.623575,6.01863287 10.4779403,5.86908504 C10.2341547,5.61874906 9.96122598,5.36829936 9.66645468,5.13502716 C8.73691817,4.39942285 7.81036713,4.00210355 6.97345173,4.1057669 C6.91876921,4.11254007 6.86452356,4.12146231 6.8107185,4.13257103 C6.37458953,5.01619718 6.48097788,6.05346894 6.98587544,7.16970735 C7.14596669,7.52364054 7.33501472,7.85686599 7.53536759,8.1586617 C7.65499084,8.33885268 7.75089455,8.46739928 7.80529075,8.53398921 L9.12729664,10.3428962 C10.1722859,9.64694568 11.2196602,8.720818 11.9912431,7.80945381 L11.9912431,7.80945381 Z M6.68738466,11.4603718 C7.28169525,11.3592411 7.99039934,11.0456358 8.71809464,10.6035601 L7.42509648,8.83543266 C7.36907914,8.76740792 7.26382606,8.62632969 7.13490883,8.43213899 C6.92102759,8.10996522 6.71938412,7.75453841 6.54778961,7.37517358 C6.06640077,6.31090874 5.91063233,5.2847275 6.19740261,4.36689142 C6.14869598,4.39484428 6.1004164,4.42498621 6.05256723,4.4573512 C4.55823339,5.9522198 4.33999323,8.3452782 5.63263875,10.0606767 L6.68738466,11.4603718 L6.68738466,11.4603718 Z M13.181837,5.7200463 L12.5338993,4.86020389 C11.2918943,3.21200751 9.06001813,2.73116198 7.24573027,3.60857538 C8.13991747,3.60867877 9.06216243,4.0406856 9.9713639,4.76019743 C10.2837311,5.00739446 10.5717956,5.27173324 10.8293283,5.53618573 C10.9844845,5.69551098 11.095747,5.82038008 11.1636166,5.90267831 L12.304587,7.42001216 C12.7735626,6.80417763 13.0954767,6.2115492 13.181837,5.7200463 L13.181837,5.7200463 Z M4.85440635,10.6471169 C3.11735775,8.34197557 3.6072803,5.04298443 5.93806432,3.28661269 C8.27360069,1.5266598 11.5796688,1.97470779 13.3121317,4.27376372 L20.2227556,13.4444714 C21.9598042,15.7496127 21.4698817,19.0486038 19.1390976,20.8049756 C16.8035613,22.5649285 13.4974931,22.1168805 11.7650302,19.8178246 L4.85440635,10.6471169 Z" id="Shape" fill="#FFFFFF" fill-rule="nonzero"></path>
    </g>
</svg>