<?xml version="1.0" encoding="UTF-8"?>
<svg width="24px" height="24px" viewBox="0 0 24 24" version="1.1" xmlns="http://www.w3.org/2000/svg" xmlns:xlink="http://www.w3.org/1999/xlink">
    <title>icon / Physics / Cry / CharacterPhysics - box</title>
    <defs>
        <linearGradient x1="50%" y1="0%" x2="50%" y2="100%" id="linearGradient-1">
            <stop stop-color="#ADADAD" stop-opacity="0" offset="0%"></stop>
            <stop stop-color="#9D9D9D" offset="100%"></stop>
        </linearGradient>
        <path d="M20.924815,0 C23.1021676,0 23.9566542,1.77846722 23.9566542,3.01865122 C23.9566542,4.25883521 23.9566542,18.7815894 23.9566542,20.6420628 C23.9566542,22.3929727 22.7281352,23.9566542 20.924815,23.9566542 C19.1214948,23.9566542 4.64929841,23.9566542 2.80929064,23.9566542 C1.38661643,23.9566542 0,22.5147712 0,21.1586662 C0,19.8025612 0,4.03532882 0,2.67255351 C0,1.3097782 1.36539793,0 2.60955829,0 C3.85371865,0 18.9601214,0 20.924815,0 Z" id="path-2"></path>
    </defs>
    <g id="icon-/-Physics-/-Cry-/-CharacterPhysics---box" stroke="none" stroke-width="1" fill="none" fill-rule="evenodd">
        <g id="icon/general/color/-box-template">
            <mask id="mask-3" fill="white">
                <use xlink:href="#path-2"></use>
            </mask>
            <use id="Path-3" fill="url(#linearGradient-1)" xlink:href="#path-2"></use>
            <g id="Group" mask="url(#mask-3)" fill="#DD7F6D">
                <g id="icon/color/AI" style="mix-blend-mode: multiply;">
                    <rect id="Rectangle-2" x="0" y="0" width="24" height="24"></rect>
                </g>
            </g>
        </g>
        <path d="M14.5909091,20.409636 C14.5909091,20.9047092 14.2190616,21.3127409 13.7333174,21.3685053 L13.6193182,21.375 C13.0827233,21.375 12.6477273,20.9330841 12.6477273,20.409636 L12.6473457,16.1218184 C12.4918792,16.1614973 12.3306121,16.187193 12.1649174,16.1974831 L12,16.2025862 C11.7762378,16.2025862 11.5591008,16.1741021 11.3519887,16.1205776 L11.3522727,20.409636 C11.3522727,20.9047092 10.9804253,21.3127409 10.4946811,21.3685053 L10.3806818,21.375 C9.84408698,21.375 9.40909091,20.9330841 9.40909091,20.409636 L9.40909091,9.74472291 C9.40909091,9.51853084 9.4377616,9.29910096 9.49172108,9.08993696 L5.85446021,9.09051724 C5.31351927,9.09051724 4.875,8.66004489 4.875,8.12068966 C4.875,7.58506867 5.3171002,7.15086207 5.85446021,7.15086207 L18.1455398,7.15086207 C18.6478421,7.15086207 19.0618318,7.52203466 19.1184105,8.00689731 L19.125,8.12068966 C19.125,8.65631064 18.6828998,9.09051724 18.1455398,9.09051724 L14.5073892,9.09011263 C14.5618969,9.29933306 14.5909091,9.51872391 14.5909091,9.74472291 L14.5909091,20.409636 Z M12,2.625 C13.0731897,2.625 13.9431818,3.4934132 13.9431818,4.56465517 C13.9431818,5.63589714 13.0731897,6.50431034 12,6.50431034 C10.9268103,6.50431034 10.0568182,5.63589714 10.0568182,4.56465517 C10.0568182,3.4934132 10.9268103,2.625 12,2.625 Z" id="Combined-Shape" fill="#FFFFFF"></path>
    </g>
</svg>