<?xml version="1.0" encoding="UTF-8"?>
<svg width="24px" height="24px" viewBox="0 0 24 24" version="1.1" xmlns="http://www.w3.org/2000/svg" xmlns:xlink="http://www.w3.org/1999/xlink">
    <title>icon / Physics / PhysX / Cloth2 - box</title>
    <defs>
        <linearGradient x1="50%" y1="0%" x2="50%" y2="100%" id="linearGradient-1">
            <stop stop-color="#ADADAD" stop-opacity="0" offset="0%"></stop>
            <stop stop-color="#9D9D9D" offset="100%"></stop>
        </linearGradient>
        <path d="M20.924815,0 C23.1021676,0 23.9566542,1.77846722 23.9566542,3.01865122 C23.9566542,4.25883521 23.9566542,18.7815894 23.9566542,20.6420628 C23.9566542,22.3929727 22.7281352,23.9566542 20.924815,23.9566542 C19.1214948,23.9566542 4.64929841,23.9566542 2.80929064,23.9566542 C1.38661643,23.9566542 0,22.5147712 0,21.1586662 C0,19.8025612 0,4.03532882 0,2.67255351 C0,1.3097782 1.36539793,0 2.60955829,0 C3.85371865,0 18.9601214,0 20.924815,0 Z" id="path-2"></path>
    </defs>
    <g id="icon-/-Physics-/-PhysX-/-Cloth2---box" stroke="none" stroke-width="1" fill="none" fill-rule="evenodd">
        <g id="icon/general/color/-box-template">
            <mask id="mask-3" fill="white">
                <use xlink:href="#path-2"></use>
            </mask>
            <use id="Path-3" fill="url(#linearGradient-1)" xlink:href="#path-2"></use>
            <g id="Group" mask="url(#mask-3)" fill="#DD7F6D">
                <g id="icon/color/AI" style="mix-blend-mode: multiply;">
                    <rect id="Rectangle-2" x="0" y="0" width="24" height="24"></rect>
                </g>
            </g>
        </g>
        <path d="M10.0036651,1.43413916 C11.5801714,1.9207849 12.5534224,2.38199852 13.2745607,3.18045828 C13.995699,3.97891803 14.7589632,5.02940622 14.9639393,6.61100176 C15.1689154,8.1925973 15.3492023,10.5905861 16.2680667,12.3021417 C16.8185123,13.3274489 17.9272393,14.6068897 19.2921748,15.6581332 C20.20574,16.3617412 19.6027081,16.991228 21.6348189,17.7234653 C22.4122445,17.9381522 22.4122445,18.0666767 22.1995296,18.1867803 C21.7218053,18.4565143 21.1292076,18.6447025 20.556022,18.7546421 C19.6026723,18.4065461 18.769502,18.0094137 18.0543121,17.5633487 C16.7703016,16.7625094 16.5215153,16.6040214 15.3656152,15.1716466 C14.2097151,13.7392719 13.0029241,10.471132 12.4389642,9.39990351 C12.3465911,9.80491152 12.3465911,10.233545 12.4389642,10.6858041 C12.9688285,12.6237369 13.5172039,14.1235751 14.0840904,15.1853188 C14.9344201,16.7779342 15.8814004,17.461732 16.9673883,18.0875012 C17.4779306,18.3816864 18.1026722,18.6623445 18.8416131,18.9294753 C18.1532009,19.1583622 18.0432914,19.9807069 17.7730145,20.405422 C17.4526496,20.9088459 17.007063,22.0970993 14.0799126,21.6970259 C11.1527622,21.2969524 11.7891197,21.1162211 10.998486,21.3621412 C10.2078524,21.6080613 10.50009,21.9890996 10.50009,22.7041122 C10.0615126,22.8296089 9.08078899,22.5979137 8.44749691,22.0598448 C7.35870611,21.1347668 5.97335754,18.6086859 5.59653892,16.8969726 C5.00054483,14.1896462 5.29460466,12.6885919 4.94500601,11.867106 C4.71194025,11.3194487 4.26993415,10.6379216 3.61898773,9.82252478 C4.27295213,8.93334384 4.34883673,8.08396692 3.84664154,7.27439402 C3.48238237,6.68718338 2.95594454,6.2533723 2.55814516,5.97816604 C2.38079973,5.85547461 2.08790193,5.536538 1.67945175,5.02135619 C1.6843009,4.63689465 1.75478156,4.40996588 1.89089374,4.34056986 C2.03177682,4.26874144 2.21993574,4.24850344 2.4902665,4.29455 C3.26679969,4.64922153 3.96231386,5.13647883 4.57975575,5.75601992 C5.0816712,6.2596418 5.39690701,6.75678187 5.69870041,7.45668928 C5.97934739,8.10755474 6.07973814,8.94041832 6.16387851,9.80787143 C6.32737014,11.4934038 6.83171543,13.0923038 7.32068468,14.4975295 C7.80965394,15.9027553 8.75249953,16.8032098 9.81473619,17.8701613 C9.61176459,17.0407211 8.84379666,15.5674553 8.3920348,14.4975295 C7.94027293,13.4276038 7.18352528,11.2001604 7.18352528,9.23525328 C7.18352528,7.27034618 6.5093995,6.17776937 5.69870041,5.33656753 C5.10481843,4.7203406 3.77190328,4.2209447 2.74539169,3.95220774 C2.86286709,3.41204512 3.21732457,3.00980873 3.61898773,2.7866107 C3.97984688,2.58608683 5.00371059,2.49658133 5.94863828,2.54057189 L6.14845175,2.55153773 L6.20586466,2.60137258 C6.63362577,2.96324468 7.01186019,3.25364053 7.34056792,3.47256013 C7.91580644,3.85566942 8.11792663,4.05698899 8.91103352,5.05877677 C9.25014289,5.48711199 9.54075889,5.99377608 9.71197379,6.70139568 C9.91636869,7.54614583 9.92964689,8.67620582 9.92964689,9.25117666 C9.92964689,10.2556168 10.3209417,11.9488057 10.8252257,12.9050738 C11.3295097,13.8613418 12.1505465,15.0249785 12.7656674,15.5798301 C12.4677309,14.7351306 11.8732377,13.2736878 11.5547955,12.400629 C11.2363533,11.5275702 10.8252257,10.1730251 10.8252257,9.1636979 C10.8252257,8.6077794 10.8189891,7.27352415 10.5947827,6.56228442 C10.4119193,5.98219528 10.2533199,5.51659601 9.97596209,5.04085701 C9.65465119,4.48972725 9.12066154,3.84073108 8.07165254,3.20428248 C7.82114634,3.05229683 7.4427027,2.83989621 6.93632164,2.56708063 C7.16769872,2.6045404 7.45993643,2.67030338 7.81114876,2.76368433 C8.94945302,3.06633869 9.27816849,3.24240498 10.2770799,4.07361693 C11.2759914,4.90482888 11.7748326,5.89517785 12.3696844,6.6083092 C12.3696844,5.95730958 11.9168827,4.80145962 11.2791592,4.07361693 C10.6414356,3.34577424 10.2312433,3.07926521 9.36269629,2.6488596 C8.83242542,2.38608564 7.94849849,2.22230044 6.71091547,2.15750397 C6.76082242,2.06828755 6.83019598,1.9625711 6.91751628,1.84092988 C7.92394467,1.24530558 8.95266096,1.10970867 10.0036651,1.43413916 Z" id="Combined-Shape" fill="#FFFFFF" fill-rule="nonzero"></path>
    </g>
</svg>