<?xml version="1.0" encoding="UTF-8"?>
<svg width="24px" height="24px" viewBox="0 0 24 24" version="1.1" xmlns="http://www.w3.org/2000/svg" xmlns:xlink="http://www.w3.org/1999/xlink">
    <title>icon / Other / Comment - box</title>
    <defs>
        <linearGradient x1="50%" y1="0%" x2="50%" y2="100%" id="linearGradient-1">
            <stop stop-color="#ADADAD" stop-opacity="0" offset="0%"></stop>
            <stop stop-color="#9D9D9D" offset="100%"></stop>
        </linearGradient>
        <path d="M20.924815,0 C23.1021676,0 23.9566542,1.77846722 23.9566542,3.01865122 C23.9566542,4.25883521 23.9566542,18.7815894 23.9566542,20.6420628 C23.9566542,22.3929727 22.7281352,23.9566542 20.924815,23.9566542 C19.1214948,23.9566542 4.64929841,23.9566542 2.80929064,23.9566542 C1.38661643,23.9566542 0,22.5147712 0,21.1586662 C0,19.8025612 0,4.03532882 0,2.67255351 C0,1.3097782 1.36539793,0 2.60955829,0 C3.85371865,0 18.9601214,0 20.924815,0 Z" id="path-2"></path>
    </defs>
    <g id="icon-/-Other-/-Comment---box" stroke="none" stroke-width="1" fill="none" fill-rule="evenodd">
        <g id="icon/general/color/-box-template">
            <mask id="mask-3" fill="white">
                <use xlink:href="#path-2"></use>
            </mask>
            <use id="Path-3" fill="url(#linearGradient-1)" xlink:href="#path-2"></use>
            <g id="Group" mask="url(#mask-3)" fill="#CCCCCC">
                <g id="icon/color/AI" style="mix-blend-mode: multiply;">
                    <rect id="Rectangle-2" x="0" y="0" width="24" height="24"></rect>
                </g>
            </g>
        </g>
        <path d="M7.02749543,18.2117232 C7.8834099,18.0387856 8.54248262,17.8471758 8.88341584,17.6633902 L9.13660094,17.5269066 L9.41318015,17.6058648 C10.2365316,17.8409162 11.1075671,17.9625414 12,17.9625414 C16.3237915,17.9625414 19.7799758,15.1162719 19.7799758,11.6803149 C19.7799758,8.24435789 16.3237915,5.39808842 12,5.39808842 C7.67620852,5.39808842 4.22002417,8.24435789 4.22002417,11.6803149 C4.22002417,13.43386 5.11977547,15.0821543 6.6930318,16.269688 L7.21492385,16.6636253 L6.12154393,18.3763334 C6.43148919,18.3255971 6.73578148,18.270664 7.02749543,18.2117232 Z M3.94487569,20.0540483 L5.67352379,17.3462342 C3.80549981,15.9362024 2.63427705,13.910191 2.63427705,11.6589 C2.63427705,7.3991563 6.82745404,3.94595171 12,3.94595171 C17.172546,3.94595171 21.3657229,7.3991563 21.3657229,11.6589 C21.3657229,15.9186438 17.172546,19.3718483 12,19.3718483 C10.9251584,19.3718483 9.89260571,19.2227398 8.93117829,18.9482703 C7.61917454,19.6555273 3.94487569,20.0540483 3.94487569,20.0540483 Z" id="Combined-Shape" fill="#FFFFFF" fill-rule="nonzero"></path>
    </g>
</svg>