<?xml version="1.0" encoding="UTF-8"?>
<svg width="24px" height="24px" viewBox="0 0 24 24" version="1.1" xmlns="http://www.w3.org/2000/svg" xmlns:xlink="http://www.w3.org/1999/xlink">
    <title>icon / Shapes / Cylinder_Shape - box</title>
    <defs>
        <linearGradient x1="50%" y1="0%" x2="50%" y2="100%" id="linearGradient-1">
            <stop stop-color="#ADADAD" stop-opacity="0" offset="0%"></stop>
            <stop stop-color="#9D9D9D" offset="100%"></stop>
        </linearGradient>
        <path d="M20.924815,0 C23.1021676,0 23.9566542,1.77846722 23.9566542,3.01865122 C23.9566542,4.25883521 23.9566542,18.7815894 23.9566542,20.6420628 C23.9566542,22.3929727 22.7281352,23.9566542 20.924815,23.9566542 C19.1214948,23.9566542 4.64929841,23.9566542 2.80929064,23.9566542 C1.38661643,23.9566542 0,22.5147712 0,21.1586662 C0,19.8025612 0,4.03532882 0,2.67255351 C0,1.3097782 1.36539793,0 2.60955829,0 C3.85371865,0 18.9601214,0 20.924815,0 Z" id="path-2"></path>
    </defs>
    <g id="icon-/-Shapes-/-Cylinder_Shape---box" stroke="none" stroke-width="1" fill="none" fill-rule="evenodd">
        <g id="icon/general/color/-box-template">
            <mask id="mask-3" fill="white">
                <use xlink:href="#path-2"></use>
            </mask>
            <use id="Path-3" fill="url(#linearGradient-1)" xlink:href="#path-2"></use>
            <g id="Group" mask="url(#mask-3)" fill="#5A69A1">
                <g id="icon/color/AI" style="mix-blend-mode: multiply;">
                    <rect id="Rectangle-2" x="0" y="0" width="24" height="24"></rect>
                </g>
            </g>
        </g>
        <path d="M20.9868292,5.35754848 L20.565056,19.2227347 L20.5638581,19.2259355 L20.553863,19.2508839 C20.4107275,19.5950398 18.8240013,22.9792395 11.7744186,22.9792395 C9.87704932,22.9792395 8.34565478,22.734089 7.11707334,22.3690406 C4.40054385,21.7944597 2.48091577,20.679065 2.48091577,19.309197 C2.48091577,19.190405 2.4953723,19.0731931 2.52353014,18.9577824 L2.3684924,5.35754848 C2.45004589,5.35754848 2.66272237,5.52805531 3.03985592,5.78381556 L3.22571636,5.90760182 C4.44536357,6.70445158 7.03875276,8.08565782 11.7744186,8.08565782 C18.4299489,8.08565782 20.9868292,5.35754848 20.9868292,5.35754848 Z M11.388955,16.7327468 C7.59729509,16.7327468 4.15134701,17.8934316 3.59878434,19.0052446 C3.63454664,19.0513645 3.67554212,19.1044532 3.72303415,19.1628088 C4.01965636,19.527282 4.42066207,19.8994586 4.94157226,20.253123 C5.58098064,20.68724 6.33460611,21.0521123 7.21259297,21.3312397 C8.43944842,21.5999366 9.88075706,21.7673841 11.388955,21.7673841 C15.3448746,21.7673841 19.2561806,19.9847641 19.2561806,18.6692189 C19.2561806,17.6323607 15.8915641,16.7327468 11.388955,16.7327468 Z M3.27191021,7.27712046 L3.51548242,17.6392532 C5.05184999,16.4787454 8.10979255,15.7079343 11.388955,15.7079343 C15.2216264,15.7079343 18.2809268,16.2633417 19.5970598,17.3532931 L19.900698,7.35772914 C19.7155573,7.4556365 19.5178978,7.55381291 19.3074817,7.65136136 C17.3325493,8.56693589 14.8341095,9.1104703 11.7744186,9.1104703 C8.72055866,9.1104703 6.1621305,8.56943281 4.08196184,7.66071773 C3.78965989,7.53302655 3.51974504,7.40446577 3.27191021,7.27712046 Z M10.9717037,2.00735637 C15.9983759,2.00735637 20.9590851,3.42994384 20.9590851,5.40166751 C20.9590851,6.68469771 18.8559935,7.74326951 16.0079822,8.32708473 L16.0075005,21.7326934 L14.982688,21.7326934 L14.9828717,8.51164385 C13.7161719,8.70971499 12.3451503,8.81813985 10.9717037,8.81813985 C9.52024888,8.81813985 8.14668788,8.68592984 6.94074968,8.44383282 L6.94135645,21.7295047 L5.91654398,21.7295047 L5.91657296,8.20063214 C5.89049889,8.19339099 5.86453414,8.1860917 5.83867991,8.17873456 L5.81278229,8.18863157 L5.80493363,8.16908073 C3.7245079,7.570781 2.3684924,6.5959324 2.3684924,5.40166751 C2.3684924,3.3814089 6.24636431,2.00735637 10.9717037,2.00735637 Z M11.1844924,5.94235637 L7.47520026,7.4941899 C8.52277815,7.68193711 9.71262598,7.79332738 10.9717037,7.79332738 C12.4059675,7.79332738 13.8581059,7.65256297 15.163871,7.42578214 L11.1844924,5.94235637 Z M3.39330488,5.40166751 C3.39330488,6.01010842 4.31445848,6.63217326 5.7845445,7.08932783 L9.7804924,5.41835637 L5.49419244,3.82029659 C4.19327993,4.26202142 3.39330488,4.83648141 3.39330488,5.40166751 Z M16.4258431,3.64705002 L16.4632524,3.73630187 L12.5674924,5.36335637 L17.0138437,7.02214027 C18.7531767,6.55452427 19.9342727,5.94516188 19.9342727,5.40166751 C19.9342727,4.80102097 18.4831322,4.12333639 16.4258431,3.64705002 Z M10.9717037,3.03216885 C9.61058506,3.03216885 8.33219927,3.15993052 7.22703563,3.37248167 L11.1634924,4.84035637 L14.7765088,3.33103015 C13.5752957,3.14486995 12.2673304,3.03216885 10.9717037,3.03216885 Z" id="Combined-Shape" fill="#FFFFFF" fill-rule="nonzero"></path>
    </g>
</svg>