<?xml version="1.0" encoding="UTF-8"?>
<svg width="24px" height="24px" viewBox="0 0 24 24" version="1.1" xmlns="http://www.w3.org/2000/svg" xmlns:xlink="http://www.w3.org/1999/xlink">
    <title>icon / Other / DebugDrawLine - box</title>
    <defs>
        <linearGradient x1="50%" y1="0%" x2="50%" y2="100%" id="linearGradient-1">
            <stop stop-color="#ADADAD" stop-opacity="0" offset="0%"></stop>
            <stop stop-color="#9D9D9D" offset="100%"></stop>
        </linearGradient>
        <path d="M20.924815,0 C23.1021676,0 23.9566542,1.77846722 23.9566542,3.01865122 C23.9566542,4.25883521 23.9566542,18.7815894 23.9566542,20.6420628 C23.9566542,22.3929727 22.7281352,23.9566542 20.924815,23.9566542 C19.1214948,23.9566542 4.64929841,23.9566542 2.80929064,23.9566542 C1.38661643,23.9566542 0,22.5147712 0,21.1586662 C0,19.8025612 0,4.03532882 0,2.67255351 C0,1.3097782 1.36539793,0 2.60955829,0 C3.85371865,0 18.9601214,0 20.924815,0 Z" id="path-2"></path>
    </defs>
    <g id="icon-/-Other-/-DebugDrawLine---box" stroke="none" stroke-width="1" fill="none" fill-rule="evenodd">
        <g id="icon/general/color/-box-template">
            <mask id="mask-3" fill="white">
                <use xlink:href="#path-2"></use>
            </mask>
            <use id="Path-3" fill="url(#linearGradient-1)" xlink:href="#path-2"></use>
            <g id="Group" mask="url(#mask-3)" fill="#CCCCCC">
                <g id="icon/color/AI" style="mix-blend-mode: multiply;">
                    <rect id="Rectangle-2" x="0" y="0" width="24" height="24"></rect>
                </g>
            </g>
        </g>
        <path d="M22.2617674,7.2962465 L22.2617674,11.5410941 L18.874379,11.5410941 L11.3484071,19.9956154 L11.3484071,23.3830038 L7.10355942,23.3830038 L7.10355942,19.1381562 L10.4909478,19.1381562 L18.0169198,10.6836349 L18.0169198,7.2962465 L22.2617674,7.2962465 Z M6.90881443,1.96021433 C7.18462425,1.68440451 7.42561637,1.5818885 7.7014262,1.85769832 C7.97723602,2.13350815 7.85624661,2.45195904 7.58043678,2.72776887 C7.21269035,3.0955153 7.212219,3.32843769 7.30415561,3.78812073 C7.90174356,3.83408904 8.70110694,4.26171041 9.11482168,4.67542515 C9.25272659,4.81333006 9.3446632,4.99720328 9.48256811,5.13510819 C9.85031455,5.2270448 10.1720927,5.36494971 10.5858074,5.50285462 L10.5858074,5.50285462 L11.3672686,4.72139345 C11.1224548,4.12514021 10.9385816,3.69610271 10.8156489,3.43428093 C10.63125,3.04154827 11.7982569,2.45288212 12.0108248,2.97459789 C12.1206202,3.24407388 12.3201099,3.71867438 12.609294,4.3983994 C12.6933575,4.59599005 12.6665147,5.26087948 12.5576608,5.36973343 C12.395281,5.53211324 12.1517112,5.77568295 11.8269516,6.10044258 C12.1487298,6.23834749 12.3785713,6.3762524 12.6084128,6.51415731 C12.8842226,6.69803053 13.2060008,6.92787205 13.4818106,7.20368188 C13.4818106,7.20368188 13.5133375,7.17215493 13.5763914,7.10910105 L13.7714644,6.91402809 C13.8266365,6.85885594 13.8896904,6.79580205 13.960626,6.72486643 C14.1623869,6.5231056 14.7098138,6.60915772 14.9095711,6.69302722 C15.5395966,6.95754789 16.0136881,7.15841165 16.3318454,7.29561849 C16.9603951,7.5666834 16.2569348,8.65924984 15.8721624,8.49079439 C15.6156475,8.37849076 15.18661,8.19461755 14.5850499,7.93917474 L14.5850499,7.93917474 L14.3092401,8.21498457 C14.5390816,8.72063592 14.9337671,9.41779404 15.0257037,9.96941369 C15.1277339,11.0237257 13.8529763,13.5390725 13.7103852,13.8803049 L13.7103852,13.8803049 L13.5578602,13.956779 C12.8844549,14.2859248 10.8248905,15.2095706 9.87725359,15.1178638 C9.27966564,15.0718955 8.51723373,14.7424838 8.05755068,14.4666739 L8.05755068,14.4666739 L7.78174086,14.7424838 C8.01275917,15.2482504 8.19663239,15.6772879 8.33336051,16.0295963 C8.53845269,16.5580588 7.33585669,16.9701884 7.1381846,16.4892793 C7.03543661,16.2393075 6.83581761,15.7650669 6.53932761,15.0665575 C6.41215755,14.7669539 6.48624631,14.1992462 6.59697605,14.0885164 C6.63691133,14.0485811 6.68483367,14.0006588 6.74074307,13.9447494 L6.93243243,13.75306 L6.93243243,13.75306 L7.04624799,13.6392445 C6.77043817,13.3634346 6.54059664,13.0416565 6.35672343,12.7658467 C6.17285021,12.4900369 6.0809136,12.214227 5.94300869,11.9843855 L5.94300869,11.9843855 L5.19899404,12.7284002 L5.19899404,12.7284002 L5.11444693,12.8129473 C5.03821051,12.8891837 4.6820417,12.9633964 4.58373545,12.9250126 C3.87063868,12.6465831 3.28178153,12.3943318 2.817164,12.1682587 C2.25342212,11.8052375 2.71624773,10.8541607 3.27684705,10.9730828 C3.54552872,11.07386 3.989889,11.2424104 4.60992787,11.4787342 L4.60992787,11.4787342 L5.39138904,10.697273 C5.20751582,10.3295266 5.11557921,9.96178013 5.02364261,9.5940337 C4.83976939,9.50209709 4.65589617,9.41016048 4.51799126,9.27225557 C4.10427652,8.85854083 3.85022958,7.96803064 3.75829297,7.41641099 C3.25264163,7.27850608 3.00097536,7.39559963 2.63322892,7.76334606 C2.3574191,8.03915589 1.95732254,8.29725379 1.68151272,8.02144396 C1.40570289,7.74563414 1.46225844,7.50464864 1.73806826,7.22883882 C2.38162452,6.58528256 2.95506892,6.3302841 3.8284667,6.46818901 C4.01233991,5.91656936 4.28814974,5.36494971 4.74783278,4.90526667 C5.20751582,4.44558362 5.71316717,4.2157421 6.26478682,4.03186889 C6.12688191,3.15847111 6.26525817,2.60377059 6.90881443,1.96021433 Z M9.44472557,6.51501606 C9.07830433,7.22030328 8.64303228,7.82324702 8.13890941,8.32384728 C7.63478655,8.82444754 7.03529678,9.25598406 6.34044012,9.61845684 C6.83143088,11.1280592 7.37085109,12.1793963 7.95870075,12.7724682 C8.84051933,13.6620319 10.5086101,14.3077427 12.8593,13.0351232 C14.124171,10.3024798 13.3536895,8.98403166 12.6428004,8.1675116 C12.1688743,7.6231649 11.1028494,7.07233305 9.44472557,6.51501606 Z M8.1954556,5.59479123 C7.55189934,4.95123497 6.44866004,5.04317158 5.66719887,5.82463275 C4.88573769,6.60609392 4.79380109,7.70933322 5.43735734,8.35288948 C5.57526226,8.49079439 5.63451781,8.49565536 5.83939814,8.42877072 C6.56024928,8.08096189 7.04204901,7.78568332 7.28479734,7.54293499 C7.53237759,7.29535474 7.84371206,6.84012102 8.21880074,6.17723384 C8.3336518,5.91787976 8.33336051,5.73269614 8.1954556,5.59479123 Z" id="Combined-Shape" fill="#FFFFFF" fill-rule="nonzero"></path>
    </g>
</svg>