<?xml version="1.0" encoding="UTF-8"?>
<svg width="24px" height="24px" viewBox="0 0 24 24" version="1.1" xmlns="http://www.w3.org/2000/svg" xmlns:xlink="http://www.w3.org/1999/xlink">
    <title>icon / Rendering / Decal - box</title>
    <defs>
        <linearGradient x1="50%" y1="0%" x2="50%" y2="100%" id="linearGradient-1">
            <stop stop-color="#ADADAD" stop-opacity="0" offset="0%"></stop>
            <stop stop-color="#9D9D9D" offset="100%"></stop>
        </linearGradient>
        <path d="M20.924815,0 C23.1021676,0 23.9566542,1.77846722 23.9566542,3.01865122 C23.9566542,4.25883521 23.9566542,18.7815894 23.9566542,20.6420628 C23.9566542,22.3929727 22.7281352,23.9566542 20.924815,23.9566542 C19.1214948,23.9566542 4.64929841,23.9566542 2.80929064,23.9566542 C1.38661643,23.9566542 0,22.5147712 0,21.1586662 C0,19.8025612 0,4.03532882 0,2.67255351 C0,1.3097782 1.36539793,0 2.60955829,0 C3.85371865,0 18.9601214,0 20.924815,0 Z" id="path-2"></path>
    </defs>
    <g id="icon-/-Rendering-/-Decal---box" stroke="none" stroke-width="1" fill="none" fill-rule="evenodd">
        <g id="icon/general/color/-box-template">
            <mask id="mask-3" fill="white">
                <use xlink:href="#path-2"></use>
            </mask>
            <use id="Path-3" fill="url(#linearGradient-1)" xlink:href="#path-2"></use>
            <g id="Group" mask="url(#mask-3)" fill="#B29EDF">
                <g id="icon/color/AI" style="mix-blend-mode: multiply;">
                    <rect id="Rectangle-2" x="0" y="-0.00055502734" width="24" height="24"></rect>
                </g>
            </g>
        </g>
        <path d="M10.3601087,17.8244045 L11.9375,14.8823836 L13.5148913,17.8244045 L13.4099418,14.487844 L16.2470132,16.2470132 L14.487844,13.4099418 L17.8244045,13.5148913 L14.8823836,11.9375 L17.8244045,10.3601087 L14.487844,10.4650582 L16.2470132,7.62798682 L13.4099418,9.38715598 L13.5148913,6.05059552 L11.9375,8.99261638 L10.3601087,6.05059552 L10.4650582,9.38715598 L7.62798682,7.62798682 L9.38715598,10.4650582 L6.05059552,10.3601087 L8.99261638,11.9375 L6.05059552,13.5148913 L9.38715598,13.4099418 L7.62798682,16.2470132 L10.4650582,14.487844 L10.3601087,17.8244045 Z M11.9375,17.114281 L9.16461986,22.2860296 L9.34910951,16.4207238 L4.36185057,19.5131494 L7.45427616,14.5258905 L1.58897043,14.7103801 L6.76071902,11.9375 L1.58897043,9.16461986 L7.45427616,9.34910951 L4.36185057,4.36185057 L9.34910951,7.45427616 L9.16461986,1.58897043 L11.9375,6.76071902 L14.7103801,1.58897043 L14.5258905,7.45427616 L19.5131494,4.36185057 L16.4207238,9.34910951 L22.2860296,9.16461986 L17.114281,11.9375 L22.2860296,14.7103801 L16.4207238,14.5258905 L19.5131494,19.5131494 L14.5258905,16.4207238 L14.7103801,22.2860296 L11.9375,17.114281 Z" id="Star-1" fill="#FFFFFF" fill-rule="nonzero"></path>
    </g>
</svg>