<?xml version="1.0" encoding="UTF-8"?>
<svg width="24px" height="24px" viewBox="0 0 24 24" version="1.1" xmlns="http://www.w3.org/2000/svg" xmlns:xlink="http://www.w3.org/1999/xlink">
    <title>icon / Shapes / Disk_shape - box</title>
    <defs>
        <linearGradient x1="50%" y1="0%" x2="50%" y2="100%" id="linearGradient-1">
            <stop stop-color="#ADADAD" stop-opacity="0" offset="0%"></stop>
            <stop stop-color="#9D9D9D" offset="100%"></stop>
        </linearGradient>
        <path d="M20.924815,0 C23.1021676,0 23.9566542,1.77846722 23.9566542,3.01865122 C23.9566542,4.25883521 23.9566542,18.7815894 23.9566542,20.6420628 C23.9566542,22.3929727 22.7281352,23.9566542 20.924815,23.9566542 C19.1214948,23.9566542 4.64929841,23.9566542 2.80929064,23.9566542 C1.38661643,23.9566542 0,22.5147712 0,21.1586662 C0,19.8025612 0,4.03532882 0,2.67255351 C0,1.3097782 1.36539793,0 2.60955829,0 C3.85371865,0 18.9601214,0 20.924815,0 Z" id="path-2"></path>
    </defs>
    <g id="icon-/-Shapes-/-Disk_shape---box" stroke="none" stroke-width="1" fill="none" fill-rule="evenodd">
        <g id="icon/general/color/-box-template">
            <mask id="mask-3" fill="white">
                <use xlink:href="#path-2"></use>
            </mask>
            <use id="Path-3" fill="url(#linearGradient-1)" xlink:href="#path-2"></use>
            <g id="Group" mask="url(#mask-3)" fill="#5A69A1">
                <g id="icon/color/AI" style="mix-blend-mode: multiply;">
                    <rect id="Rectangle-2" x="0" y="0" width="24" height="24"></rect>
                </g>
            </g>
        </g>
        <path d="M11.2949674,2.86381314 C14.965583,2.86381314 17.9412049,7.01769439 17.9412049,12.1417666 C17.9412049,17.2658388 14.965583,21.4197201 11.2949674,21.4197201 C7.62435182,21.4197201 4.64872995,17.2658388 4.64872995,12.1417666 C4.64872995,7.01769439 7.62435182,2.86381314 11.2949674,2.86381314 Z M11.229071,4.5041143 C8.37024708,4.5041143 6.05271243,7.92360771 6.05271243,12.1417666 C6.05271243,16.3599255 8.37024708,19.7794189 11.229071,19.7794189 C14.0878948,19.7794189 16.4054295,16.3599255 16.4054295,12.1417666 C16.4054295,7.92360771 14.0878948,4.5041143 11.229071,4.5041143 Z M8.43336452,11.5810482 L11.0006639,11.591655 C11.1656209,11.7447723 11.2412282,11.9410219 11.2274857,12.1804038 C11.2137433,12.4197856 11.138136,12.5938127 11.0006639,12.7024851 L8.43336452,12.6918782 L8.43336452,11.5810482 Z" id="Combined-Shape" fill="#FFFFFF" fill-rule="nonzero" transform="translate(11.294967, 12.141767) rotate(28.000000) translate(-11.294967, -12.141767) "></path>
    </g>
</svg>