<?xml version="1.0" encoding="UTF-8"?>
<svg width="24px" height="24px" viewBox="0 0 24 24" version="1.1" xmlns="http://www.w3.org/2000/svg" xmlns:xlink="http://www.w3.org/1999/xlink">
    <title>icon / Rendering / EnvironmentProbe - box</title>
    <defs>
        <linearGradient x1="50%" y1="0%" x2="50%" y2="100%" id="linearGradient-1">
            <stop stop-color="#ADADAD" stop-opacity="0" offset="0%"></stop>
            <stop stop-color="#9D9D9D" offset="100%"></stop>
        </linearGradient>
        <path d="M20.924815,0 C23.1021676,0 23.9566542,1.77846722 23.9566542,3.01865122 C23.9566542,4.25883521 23.9566542,18.7815894 23.9566542,20.6420628 C23.9566542,22.3929727 22.7281352,23.9566542 20.924815,23.9566542 C19.1214948,23.9566542 4.64929841,23.9566542 2.80929064,23.9566542 C1.38661643,23.9566542 0,22.5147712 0,21.1586662 C0,19.8025612 0,4.03532882 0,2.67255351 C0,1.3097782 1.36539793,0 2.60955829,0 C3.85371865,0 18.9601214,0 20.924815,0 Z" id="path-2"></path>
    </defs>
    <g id="icon-/-Rendering-/-EnvironmentProbe---box" stroke="none" stroke-width="1" fill="none" fill-rule="evenodd">
        <g id="icon/general/color/-box-template">
            <mask id="mask-3" fill="white">
                <use xlink:href="#path-2"></use>
            </mask>
            <use id="Path-3" fill="url(#linearGradient-1)" xlink:href="#path-2"></use>
            <g id="Group" mask="url(#mask-3)" fill="#B29EDF">
                <g id="icon/color/AI" style="mix-blend-mode: multiply;">
                    <rect id="Rectangle-2" x="0" y="-0.00055502734" width="24" height="24"></rect>
                </g>
            </g>
        </g>
        <path d="M11.9429909,15.4250285 C13.8345623,15.4250285 15.3679839,13.8916069 15.3679839,12.0000355 C15.3679839,10.1084641 13.8345623,8.57504255 11.9429909,8.57504255 C10.0514195,8.57504255 8.51799793,10.1084641 8.51799793,12.0000355 C8.51799793,13.8916069 10.0514195,15.4250285 11.9429909,15.4250285 Z" id="Path" fill-opacity="0.25" fill="#FFFFFF" fill-rule="nonzero"></path>
        <path d="M14.4537214,20.5180654 L14.7043395,21.3697485 C13.8150213,21.6314413 12.8877441,21.765741 11.9429909,21.765741 L11.9429909,20.8779496 C12.8026863,20.8779496 13.6455771,20.7558717 14.4537214,20.5180654 Z M7.40468432,19.6319874 C8.13338373,20.0662862 8.92119595,20.3942662 9.74681506,20.6043301 L9.52790705,21.4647096 C8.61910894,21.2334823 7.75198645,20.872484 6.95016905,20.3946075 L7.40468432,19.6319874 Z M18.670864,17.7927808 L19.343367,18.3723611 C18.7334295,19.0800885 18.0249346,19.6979001 17.2405469,20.2053186 L16.7583378,19.4599006 C17.4716446,18.9984642 18.1160775,18.436515 18.670864,17.7927808 Z M3.99005267,15.9503114 C4.36859938,16.710883 4.85508854,17.4134975 5.43304627,18.036484 L4.78220258,18.6402854 C4.14671211,17.9552837 3.61169769,17.1825863 3.1952623,16.3458892 L3.99005267,15.9503114 Z M11.8974849,7.59650149 C14.3295053,7.59650149 16.3010473,9.56804354 16.3010473,12.0000639 C16.3010473,14.4320843 14.3295053,16.4036263 11.8974849,16.4036263 C9.46546454,16.4036263 7.49392249,14.4320843 7.49392249,12.0000639 C7.49392249,9.56804354 9.46546454,7.59650149 11.8974849,7.59650149 Z M20.738106,13.2179682 L21.6176659,13.3385837 C21.4898859,14.2703883 21.229054,15.1718618 20.8452452,16.0204419 L20.0363454,15.6545803 C20.3850496,14.8836144 20.6219907,14.0647112 20.738106,13.2179682 Z M11.8974849,8.57507092 C10.0059135,8.57507092 8.47249192,10.1084925 8.47249192,12.0000639 C8.47249192,13.8916353 10.0059135,15.4250569 11.8974849,15.4250569 C13.7890563,15.4250569 15.3224779,13.8916353 15.3224779,12.0000639 C15.3224779,10.1084925 13.7890563,8.57507092 11.8974849,8.57507092 Z M11.9429909,10.0428967 C13.0238889,10.0428967 13.9001298,10.9191376 13.9001298,12.0000355 C13.9001298,13.0809335 13.0238889,13.9571744 11.9429909,13.9571744 C10.862093,13.9571744 9.98585207,13.0809335 9.98585207,12.0000355 C9.98585207,10.9191376 10.862093,10.0428967 11.9429909,10.0428967 Z M2.23904308,10.8959898 L3.1212618,10.995306 C3.08455294,11.3213881 3.06573361,11.6507804 3.06509454,11.9816784 C3.06507785,12.5194604 3.1096535,13.0353621 3.19869359,13.5434779 L2.32422705,13.6967157 C2.22629139,13.1378366 2.17728485,12.5706535 2.17730395,11.9808084 C2.17800679,11.6164394 2.19868775,11.2544632 2.23904308,10.8959898 Z M20.7799773,7.83834929 C21.1774359,8.68091117 21.4526819,9.57811335 21.5952528,10.507212 L20.7177328,10.641868 C20.5881869,9.79764977 20.338154,8.98263344 19.9770394,8.21711618 L20.7799773,7.83834929 Z M4.41709312,5.77630839 L5.10094889,6.34244872 C4.55907419,6.99699341 4.11317846,7.72583049 3.77847363,8.50711492 L2.9624149,8.15751268 C3.33070231,7.29783812 3.82118533,6.49612107 4.41709312,5.77630839 Z M17.0932806,3.70133925 C17.886601,4.1946823 18.6059071,4.79981046 19.2283235,5.4965952 L18.5662221,6.08803009 C18.0000858,5.45424999 17.3458403,4.90385519 16.6244496,4.45524311 L17.0932806,3.70133925 Z M8.9822993,2.69131867 L9.25117773,3.5374144 C8.44018228,3.79513841 7.67240414,4.16861156 6.96951726,4.64487108 L6.47152202,3.90990555 C7.2447667,3.38597325 8.08966373,2.97498687 8.9822993,2.69131867 Z M11.9777531,2.23438676 C12.8518663,2.23743957 13.7108985,2.35548777 14.5386751,2.58316907 L14.3032304,3.43917103 C13.5509812,3.23226367 12.7700716,3.12495108 11.9759444,3.12217929 C11.8849543,3.12212591 11.8218372,3.12269124 11.7560794,3.12404805 L11.737765,2.23644557 L11.8103134,2.23523569 L11.9777531,2.23438676 Z" id="Combined-Shape" fill="#FFFFFF" fill-rule="nonzero"></path>
    </g>
</svg>