<?xml version="1.0" encoding="UTF-8"?>
<svg width="24px" height="24px" viewBox="0 0 24 24" version="1.1" xmlns="http://www.w3.org/2000/svg" xmlns:xlink="http://www.w3.org/1999/xlink">
    <title>icon / Animation /Flipbook - box</title>
    <defs>
        <linearGradient x1="50%" y1="0%" x2="50%" y2="100%" id="linearGradient-1">
            <stop stop-color="#ADADAD" stop-opacity="0" offset="0%"></stop>
            <stop stop-color="#9D9D9D" offset="100%"></stop>
        </linearGradient>
        <path d="M20.924815,0 C23.1021676,0 23.9566542,1.77846722 23.9566542,3.01865122 C23.9566542,4.25883521 23.9566542,18.7815894 23.9566542,20.6420628 C23.9566542,22.3929727 22.7281352,23.9566542 20.924815,23.9566542 C19.1214948,23.9566542 4.64929841,23.9566542 2.80929064,23.9566542 C1.38661643,23.9566542 0,22.5147712 0,21.1586662 C0,19.8025612 0,4.03532882 0,2.67255351 C0,1.3097782 1.36539793,0 2.60955829,0 C3.85371865,0 18.9601214,0 20.924815,0 Z" id="path-2"></path>
    </defs>
    <g id="icon-/-Animation-/Flipbook---box" stroke="none" stroke-width="1" fill="none" fill-rule="evenodd">
        <g id="icon/general/color/-box-template">
            <mask id="mask-3" fill="white">
                <use xlink:href="#path-2"></use>
            </mask>
            <use id="Path-3" fill="url(#linearGradient-1)" xlink:href="#path-2"></use>
            <g id="Group" mask="url(#mask-3)" fill="#5AA9D2">
                <g id="icon/color/AI" style="mix-blend-mode: multiply;">
                    <rect id="UI" x="0" y="0" width="24" height="24"></rect>
                </g>
            </g>
        </g>
        <path d="M18.7583385,1.55822613 L17.9475152,3.48465786 C17.5934425,4.32589772 17.0344275,5.4154016 16.269496,6.7556582 L21.0435615,5.31475484 L19.0226076,8.91963824 L23.0770355,8.59903146 L15.6987792,22.4417739 L1.37757354,14.6332938 L0.922964453,14.3927945 L1.24960107,13.9594044 L2.32837812,12.5064868 C2.68671375,12.0524718 3.58118336,10.7440834 4.99897904,8.59903146 L6.93060967,5.65543727 L7.26298437,5.6449364 C10.4921893,5.54291461 13.2363716,4.67442854 16.5493904,2.83248769 L17.0014381,2.5758993 L18.7583385,1.55822613 Z M18.4056654,10.0861244 L13.8655783,17.6964495 L3.90526287,14.6745106 L3.90526287,15.1332285 L15.0121996,20.3242713 L20.9131636,10.0861244 L18.4056654,10.0861244 Z M18.5744706,7.14261293 L15.5763834,7.77584609 L11.881489,13.2844975 L11.6795377,13.5774949 C10.377706,13.9725847 7.97068485,14.1344087 3.93956523,13.9031352 C3.93956523,14.0414864 3.93956523,14.1344087 3.93956523,14.2469303 L12.9702595,16.0187498 L18.5744706,7.14261293 Z" id="Shape" fill="#FFFFFF" fill-rule="nonzero"></path>
    </g>
</svg>