<?xml version="1.0" encoding="UTF-8"?>
<svg width="24px" height="24px" viewBox="0 0 24 24" version="1.1" xmlns="http://www.w3.org/2000/svg" xmlns:xlink="http://www.w3.org/1999/xlink">
    <title>icon / Rendering / LensFlare - box</title>
    <defs>
        <linearGradient x1="50%" y1="0%" x2="50%" y2="100%" id="linearGradient-1">
            <stop stop-color="#ADADAD" stop-opacity="0" offset="0%"></stop>
            <stop stop-color="#9D9D9D" offset="100%"></stop>
        </linearGradient>
        <path d="M20.924815,0 C23.1021676,0 23.9566542,1.77846722 23.9566542,3.01865122 C23.9566542,4.25883521 23.9566542,18.7815894 23.9566542,20.6420628 C23.9566542,22.3929727 22.7281352,23.9566542 20.924815,23.9566542 C19.1214948,23.9566542 4.64929841,23.9566542 2.80929064,23.9566542 C1.38661643,23.9566542 0,22.5147712 0,21.1586662 C0,19.8025612 0,4.03532882 0,2.67255351 C0,1.3097782 1.36539793,0 2.60955829,0 C3.85371865,0 18.9601214,0 20.924815,0 Z" id="path-2"></path>
    </defs>
    <g id="icon-/-Rendering-/-LensFlare---box" stroke="none" stroke-width="1" fill="none" fill-rule="evenodd">
        <g id="icon/general/color/-box-template">
            <mask id="mask-3" fill="white">
                <use xlink:href="#path-2"></use>
            </mask>
            <use id="Path-3" fill="url(#linearGradient-1)" xlink:href="#path-2"></use>
            <g id="Group" mask="url(#mask-3)" fill="#B29EDF">
                <g id="icon/color/AI" style="mix-blend-mode: multiply;">
                    <rect id="Rectangle-2" x="0" y="-0.00055502734" width="24" height="24"></rect>
                </g>
            </g>
        </g>
        <ellipse id="Oval-242" fill-opacity="0.25" fill="#FAFAFA" cx="11.2093678" cy="12" rx="5.9846165" ry="6.10621564"></ellipse>
        <path d="M9.26428558,10.7436477 L8.30532815,9.76520557 C7.84734726,10.3869697 7.57567341,11.1607113 7.57567341,12 C7.57567341,12.7967625 7.82051368,13.534452 8.23715744,14.139122 L9.2384369,13.2137815 C9.02844732,12.8595652 8.90759222,12.444183 8.90759222,12 C8.90759222,11.5378969 9.03839562,11.1069653 9.26428558,10.7436477 L9.26428558,10.7436477 Z M9.97803449,10.0153964 C10.2033246,9.86957396 10.4551415,9.76258785 10.7244394,9.70366769 L10.7244394,8.31545885 C10.0889507,8.40220943 9.50507883,8.65708229 9.01725375,9.03509392 L9.97803449,10.0153964 L9.97803449,10.0153964 Z M13.15445,13.2563523 L14.1134075,14.2347944 C14.5713883,13.6130303 14.8430622,12.8392887 14.8430622,12 C14.8430622,11.0638025 14.5050284,10.2091627 13.9474442,9.55604035 L12.95693,10.471432 C13.3024047,10.8822334 13.5111434,11.4162447 13.5111434,12 C13.5111434,12.4621031 13.38034,12.8930347 13.15445,13.2563523 L13.15445,13.2563523 Z M12.4407011,13.9846036 C12.0910666,14.2109098 11.6775428,14.3436792 11.2339411,14.3484134 L11.2339411,15.717295 C12.0473787,15.711779 12.7979393,15.4325863 13.4014818,14.9649061 L12.4407011,13.9846036 L12.4407011,13.9846036 Z M14.1190144,15.6970179 C13.3284332,16.342997 12.3260146,16.7315708 11.2339411,16.7373171 L11.2339411,19.7703432 L10.7244394,19.7703432 L10.7244394,16.711975 C9.57596844,16.5909343 8.55218686,16.044729 7.80671104,15.2310485 L5.91035949,16.9835771 L5.56473929,16.6088588 L7.48254065,14.8365072 C6.90096158,14.045481 6.55667011,13.0633649 6.55667011,12 C6.55667011,10.8758703 6.94143414,9.84254045 7.58454627,9.0297784 L1.28175431,2.59892242 L2.0091584,1.88460374 L8.29972123,8.30298213 C8.97781578,7.74891517 9.81175433,7.38421553 10.7244394,7.28802497 L10.7244394,4.22965681 L11.2339411,4.22965681 L11.2339411,7.26267823 C12.4314891,7.26898417 13.5212278,7.73563241 14.3420437,8.49724206 L15.8135774,7.13731231 C15.5266771,6.80601057 15.3525638,6.37064377 15.3525638,5.89378436 C15.3525638,4.85613212 16.1769959,4.01494877 17.1939843,4.01494877 C18.2109727,4.01494877 19.0354048,4.85613212 19.0354048,5.89378436 C19.0354048,6.9314366 18.2109727,7.77261994 17.1939843,7.77261994 C16.8275156,7.77261994 16.4860503,7.66339234 16.1991546,7.47510399 L14.6965583,8.86374052 C15.4220251,9.69950674 15.8620655,10.7978311 15.8620655,12 C15.8620655,13.1241297 15.4773015,14.1574595 14.8341893,14.9702216 L21.1369813,21.4010776 L20.4095772,22.1153963 L14.1190144,15.6970179 L14.1190144,15.6970179 Z M9.54615434,13.6235279 L8.55540417,14.5391377 C9.11462491,15.1505064 9.87322794,15.5683423 10.7244394,15.6845411 L10.7244394,14.2963323 C10.2662088,14.1960752 9.85859191,13.95665 9.54615434,13.6235279 L9.54615434,13.6235279 Z M12.587482,10.1187344 L13.5903969,9.19188244 C12.9581264,8.63041339 12.1345735,8.28881229 11.2339411,8.28270495 L11.2339411,9.65158659 C11.7413383,9.65700163 12.2093844,9.82992607 12.587482,10.1187344 L12.587482,10.1187344 Z M3.84368595,19.9850512 C3.08094462,19.9850512 2.46262061,19.3541637 2.46262061,18.5759245 C2.46262061,17.7976854 3.08094462,17.1667979 3.84368595,17.1667979 C4.60642728,17.1667979 5.2247513,17.7976854 5.2247513,18.5759245 C5.2247513,19.3541637 4.60642728,19.9850512 3.84368595,19.9850512 Z M20.8768252,12.4697089 C21.8938137,12.4697089 22.7182457,13.3108922 22.7182457,14.3485445 C22.7182457,15.3861967 21.8938137,16.2273801 20.8768252,16.2273801 C19.8598368,16.2273801 19.0354048,15.3861967 19.0354048,14.3485445 C19.0354048,13.3108922 19.8598368,12.4697089 20.8768252,12.4697089 Z" id="Shape" fill="#FFFFFF"></path>
    </g>
</svg>