<?xml version="1.0" encoding="UTF-8"?>
<svg width="24px" height="24px" viewBox="0 0 24 24" version="1.1" xmlns="http://www.w3.org/2000/svg" xmlns:xlink="http://www.w3.org/1999/xlink">
    <title>icon / Gameplay / LookAt - box</title>
    <defs>
        <linearGradient x1="50%" y1="0%" x2="50%" y2="100%" id="linearGradient-1">
            <stop stop-color="#ADADAD" stop-opacity="0" offset="0%"></stop>
            <stop stop-color="#9D9D9D" offset="100%"></stop>
        </linearGradient>
        <path d="M20.924815,0 C23.1021676,0 23.9566542,1.77846722 23.9566542,3.01865122 C23.9566542,4.25883521 23.9566542,18.7815894 23.9566542,20.6420628 C23.9566542,22.3929727 22.7281352,23.9566542 20.924815,23.9566542 C19.1214948,23.9566542 4.64929841,23.9566542 2.80929064,23.9566542 C1.38661643,23.9566542 0,22.5147712 0,21.1586662 C0,19.8025612 0,4.03532882 0,2.67255351 C0,1.3097782 1.36539793,0 2.60955829,0 C3.85371865,0 18.9601214,0 20.924815,0 Z" id="path-2"></path>
    </defs>
    <g id="icon-/-Gameplay-/-LookAt---box" stroke="none" stroke-width="1" fill="none" fill-rule="evenodd">
        <g id="icon/general/color/-box-template">
            <mask id="mask-3" fill="white">
                <use xlink:href="#path-2"></use>
            </mask>
            <use id="Path-3" fill="url(#linearGradient-1)" xlink:href="#path-2"></use>
            <g id="Group" mask="url(#mask-3)" fill="#65C98C">
                <g id="icon/color/AI" style="mix-blend-mode: multiply;">
                    <rect id="Rectangle-2" x="0" y="0" width="24" height="24"></rect>
                </g>
            </g>
        </g>
        <path d="M14.2559026,1.88023205 L13.5099928,4.87817679 L11.7612182,6.17233976 C12.9270679,7.45423212 13.5099928,9.39678553 13.5099928,12 C13.5099928,14.6032145 12.6987801,16.7035556 11.0763549,18.3010235 L12.5635715,19.7320409 L12.5635715,22.119768 C10.3199503,20.7494942 8.48824877,19.4765794 7.06846702,18.3010235 C5.64868527,17.1254676 3.59849,15.184236 0.917881228,12.4773286 L0.917881228,11.0627198 L8.38092366,4.87817679 L14.2559026,1.88023205 Z M14.7911976,14.2690899 L21.4147725,17.806502 L21.2804047,18.3614758 L21.2804047,18.3614758 L21.1349228,18.9262701 L14.7096043,15.0462071 C14.7437593,14.884978 14.7709571,14.6259389 14.7911976,14.2690899 Z M10.7928135,6.83802235 C9.39839605,7.21963409 8.24864656,7.72828887 7.34356504,8.36398667 C6.43848353,8.99968447 5.13842613,10.2116889 3.44339286,12 C4.76069149,13.7430881 5.78817532,14.9100279 6.52584433,15.5008192 C7.20204094,16.042378 8.15329421,16.5151387 9.37960415,16.9191013 L9.72087191,17.0275671 L10.7928135,15.5008192 C8.97633095,14.8213606 8.06808967,13.6544208 8.06808967,12 C8.06808967,10.4092107 9.04677789,9.36673997 11.0041543,8.87258771 L11.2437372,8.81592137 L10.7928135,6.83802235 Z M20.0532593,9.50362742 L23.16934,12.1431311 L20.0532593,14.7826347 L20.0528122,12.8258067 L15.0330202,12.7807274 L15.0330202,11.158635 L20.0528122,11.158635 L20.0532593,9.50362742 Z M20.8714732,5.07372992 C21.0284802,5.56712123 21.1711523,6.04841163 21.2994894,6.51760113 L14.7870726,9.83956091 C14.7712654,9.58161554 14.7515774,9.37795191 14.7280086,9.22857002 L14.7096043,9.12671142 L20.8714732,5.07372992 Z" id="Combined-Shape" fill="#FFFFFF"></path>
    </g>
</svg>