<?xml version="1.0" encoding="UTF-8"?>
<svg width="24px" height="24px" viewBox="0 0 24 24" version="1.1" xmlns="http://www.w3.org/2000/svg" xmlns:xlink="http://www.w3.org/1999/xlink">
    <title>icon / Scripting / Lua Script - box</title>
    <defs>
        <linearGradient x1="50%" y1="0%" x2="50%" y2="100%" id="linearGradient-1">
            <stop stop-color="#ADADAD" stop-opacity="0" offset="0%"></stop>
            <stop stop-color="#9D9D9D" offset="100%"></stop>
        </linearGradient>
        <path d="M20.924815,0 C23.1021676,0 23.9566542,1.77846722 23.9566542,3.01865122 C23.9566542,4.25883521 23.9566542,18.7815894 23.9566542,20.6420628 C23.9566542,22.3929727 22.7281352,23.9566542 20.924815,23.9566542 C19.1214948,23.9566542 4.64929841,23.9566542 2.80929064,23.9566542 C1.38661643,23.9566542 0,22.5147712 0,21.1586662 C0,19.8025612 0,4.03532882 0,2.67255351 C0,1.3097782 1.36539793,0 2.60955829,0 C3.85371865,0 18.9601214,0 20.924815,0 Z" id="path-2"></path>
        <path d="M10.2240613,1.73746441 L10.2240613,3.52757639 C8.48778345,3.57236944 7.09327909,4.26660794 7.09327909,5.70745128 L7.09327909,7.84579578 C7.09327909,9.45088033 6.25157443,11.3305517 4.56813985,11.6217066 L4.56813985,11.7560851 C6.25157443,12.04724 7.09327909,13.6204375 7.09327909,15.2255221 L7.09327909,17.6803403 C7.09327909,18.4418223 7.31408502,18.9942617 7.75570351,19.3376752 C8.197322,19.6810886 9.37102043,19.9088267 10.2240613,19.9237577 L10.2240613,21.7374644 C8.78974481,21.7225334 7.04393546,21.4808081 6.25883592,20.8462398 C5.47373639,20.2116715 4.6575518,19.1727085 4.6575518,18.0230201 L4.6575518,14.8962291 C4.6575518,14.1198161 4.41976079,13.5655104 3.94417165,13.2332952 C3.46858251,12.90108 2.77785626,12.7349749 1.87197218,12.7349749 L1.87197218,10.4216594 C2.8533466,10.4067284 3.56294515,10.2275589 4.00078912,9.88414543 C4.43863309,9.540732 4.6575518,9.01068877 4.6575518,8.29399986 L4.6575518,5.33545009 C4.6575518,4.17829611 5.48883423,3.42556366 6.3041299,2.78352984 C7.11942557,2.14149602 8.85013708,1.73746441 10.2240613,1.73746441 Z M13.5198831,1.73746441 C14.8938073,1.73746441 16.6245188,2.14149602 17.4398145,2.78352984 C18.2551101,3.42556366 19.0863926,4.17829611 19.0863926,5.33545009 L19.0863926,5.33545009 L19.0863926,8.29399986 C19.0863926,9.01068877 19.3053113,9.540732 19.7431552,9.88414543 C20.1809992,10.2275589 20.8905978,10.4067284 21.8719722,10.4216594 L21.8719722,10.4216594 L21.8719722,12.7349749 C20.9660881,12.7349749 20.2753619,12.90108 19.7997727,13.2332952 C19.3241836,13.5655104 19.0863926,14.1198161 19.0863926,14.8962291 L19.0863926,14.8962291 L19.0863926,18.0230201 C19.0863926,19.1727085 18.270208,20.2116715 17.4851084,20.8462398 C16.7000089,21.4808081 14.9541996,21.7225334 13.5198831,21.7374644 L13.5198831,21.7374644 L13.5198831,19.9237577 C14.3729239,19.9088267 15.5466224,19.6810886 15.9882408,19.3376752 C16.4298593,18.9942617 16.6506653,18.4418223 16.6506653,17.6803403 L16.6506653,17.6803403 L16.6506653,15.2255221 C16.6506653,13.6204375 17.4923699,12.04724 19.1758045,11.7560851 L19.1758045,11.7560851 L19.1758045,11.6217066 C17.4923699,11.3305517 16.6506653,9.45088033 16.6506653,7.84579578 L16.6506653,7.84579578 L16.6506653,5.70745128 C16.6506653,4.26660794 15.2561609,3.57236944 13.5198831,3.52757639 L13.5198831,3.52757639 Z" id="path-4"></path>
    </defs>
    <g id="icon-/-Scripting-/-Lua-Script---box" stroke="none" stroke-width="1" fill="none" fill-rule="evenodd">
        <g id="icon/general/color/-box-template">
            <mask id="mask-3" fill="white">
                <use xlink:href="#path-2"></use>
            </mask>
            <use id="Path-3" fill="url(#linearGradient-1)" xlink:href="#path-2"></use>
            <g id="Group" mask="url(#mask-3)" fill="#D8D872">
                <g id="icon/color/AI" style="mix-blend-mode: multiply;">
                    <rect id="Rectangle-2" x="0" y="0" width="24" height="24"></rect>
                </g>
            </g>
        </g>
        <mask id="mask-5" fill="white">
            <use xlink:href="#path-4"></use>
        </mask>
        <use id="Combined-Shape" fill="#FFFFFF" xlink:href="#path-4"></use>
    </g>
</svg>