<?xml version="1.0" encoding="UTF-8"?>
<svg width="24px" height="24px" viewBox="0 0 24 24" version="1.1" xmlns="http://www.w3.org/2000/svg" xmlns:xlink="http://www.w3.org/1999/xlink">
    <title>icon / Animation / MannequinScopeContext - box</title>
    <defs>
        <linearGradient x1="50%" y1="0%" x2="50%" y2="100%" id="linearGradient-1">
            <stop stop-color="#ADADAD" stop-opacity="0" offset="0%"></stop>
            <stop stop-color="#9D9D9D" offset="100%"></stop>
        </linearGradient>
        <path d="M20.924815,0 C23.1021676,0 23.9566542,1.77846722 23.9566542,3.01865122 C23.9566542,4.25883521 23.9566542,18.7815894 23.9566542,20.6420628 C23.9566542,22.3929727 22.7281352,23.9566542 20.924815,23.9566542 C19.1214948,23.9566542 4.64929841,23.9566542 2.80929064,23.9566542 C1.38661643,23.9566542 0,22.5147712 0,21.1586662 C0,19.8025612 0,4.03532882 0,2.67255351 C0,1.3097782 1.36539793,0 2.60955829,0 C3.85371865,0 18.9601214,0 20.924815,0 Z" id="path-2"></path>
    </defs>
    <g id="icon-/-Animation-/-MannequinScopeContext---box" stroke="none" stroke-width="1" fill="none" fill-rule="evenodd">
        <g id="icon/general/color/-box-template">
            <mask id="mask-3" fill="white">
                <use xlink:href="#path-2"></use>
            </mask>
            <use id="Path-3" fill="url(#linearGradient-1)" xlink:href="#path-2"></use>
            <g id="Group" mask="url(#mask-3)" fill="#5AA9D2">
                <g id="icon/color/AI" style="mix-blend-mode: multiply;">
                    <rect id="UI" x="0" y="0" width="24" height="24"></rect>
                </g>
            </g>
        </g>
        <path d="M6.71043557,1.91955821 C8.39862389,1.92172212 11.5404652,3.82413825 14.407489,6.69099562 L15.7314734,5.1977263 C15.6504098,4.90443229 15.6931888,4.43419644 15.9643442,4.10694558 C16.9645733,2.89964624 18.6940425,4.3879219 17.6971425,5.56176375 C17.4191624,5.88901462 16.964074,6.05630206 16.5153108,5.9496043 L15.1488804,7.43238694 C18.1357519,10.7052285 19.6609806,14.00953 18.6334529,15.0477109 C18.0087466,15.6727501 16.059723,16.0008332 13.8250624,15.6727501 L18.3369962,20.5552131 L18.3369962,22.0804418 L7.83034595,22.0804418 L7.83034595,20.3434821 L10.1495658,14.4652843 C6.45476043,12.4355299 3.63001622,4.47347986 5.80724983,2.22134143 C6.01948017,2.01693448 6.32509186,1.91989112 6.70494255,1.91955821 L6.71043557,1.91955821 Z M13.6869558,7.42442617 C10.6838022,4.42127258 7.32479749,2.60351307 6.31732897,3.61113685 C5.35892195,4.56954388 7.01878417,7.81955753 10.0219378,10.8227111 C13.0348726,13.8359565 16.2752603,15.4956634 17.2830393,14.5274752 C18.1722013,13.6383132 16.8976892,10.8624571 14.388411,8.12588137 L11.9379141,11.0312233 C11.9107439,11.0599461 11.8696006,11.0729877 11.8203838,11.0729877 C11.5305173,11.0728325 10.9622734,10.6180821 11.3254216,10.2210876 L13.6869558,7.42442617 Z M13.4204037,16.2811437 C13.2014693,16.244559 13.0278712,16.1715331 12.845378,16.0619224 L11.8868584,20.3434821 L17.163379,20.3434821 L13.4204037,16.2811437 Z" id="Shape" fill="#FFFFFF"></path>
    </g>
</svg>