<?xml version="1.0" encoding="UTF-8"?>
<svg width="24px" height="24px" viewBox="0 0 24 24" version="1.1" xmlns="http://www.w3.org/2000/svg" xmlns:xlink="http://www.w3.org/1999/xlink">
    <title>icon / Physics / Cry / MeshCollider - box</title>
    <defs>
        <linearGradient x1="50%" y1="0%" x2="50%" y2="100%" id="linearGradient-1">
            <stop stop-color="#ADADAD" stop-opacity="0" offset="0%"></stop>
            <stop stop-color="#9D9D9D" offset="100%"></stop>
        </linearGradient>
        <path d="M20.924815,0 C23.1021676,0 23.9566542,1.77846722 23.9566542,3.01865122 C23.9566542,4.25883521 23.9566542,18.7815894 23.9566542,20.6420628 C23.9566542,22.3929727 22.7281352,23.9566542 20.924815,23.9566542 C19.1214948,23.9566542 4.64929841,23.9566542 2.80929064,23.9566542 C1.38661643,23.9566542 0,22.5147712 0,21.1586662 C0,19.8025612 0,4.03532882 0,2.67255351 C0,1.3097782 1.36539793,0 2.60955829,0 C3.85371865,0 18.9601214,0 20.924815,0 Z" id="path-2"></path>
    </defs>
    <g id="icon-/-Physics-/-Cry-/-MeshCollider---box" stroke="none" stroke-width="1" fill="none" fill-rule="evenodd">
        <g id="icon/general/color/-box-template">
            <mask id="mask-3" fill="white">
                <use xlink:href="#path-2"></use>
            </mask>
            <use id="Path-3" fill="url(#linearGradient-1)" xlink:href="#path-2"></use>
            <g id="Group" mask="url(#mask-3)" fill="#DD7F6D">
                <g id="icon/color/AI" style="mix-blend-mode: multiply;">
                    <rect id="Rectangle-2" x="0" y="0" width="24" height="24"></rect>
                </g>
            </g>
        </g>
        <path d="M21.4017278,2.55458948 C21.6565254,2.7943201 21.8126781,3.09535399 21.873713,3.44308416 C21.8903519,3.53789527 21.8960303,3.63278305 21.8933807,3.72897434 C21.8943391,4.16867858 21.7295219,4.54247893 21.4299066,4.85739135 C21.3224821,4.97029823 21.1966168,5.06610613 21.054496,5.13419531 C20.9948029,5.16279582 20.9715698,5.1972238 20.9715698,5.265543 C20.9732951,9.75421433 20.9732567,14.2428473 20.9719149,18.7315187 C20.9718765,18.7970775 20.9911608,18.8324639 21.0508922,18.8653583 C21.5132545,19.1198876 21.7904801,19.5097135 21.873368,20.0310404 C21.9576743,20.5611468 21.8055088,21.0257327 21.437766,21.4093094 C21.1897159,21.6680559 20.8803625,21.8258572 20.517412,21.8756589 C19.9918678,21.9477736 19.5412371,21.794803 19.1555135,21.4409386 C19.0379677,21.3331308 18.939016,21.2055019 18.8707352,21.0598923 C18.8386458,20.9914197 18.798007,20.9704869 18.7236303,20.970717 L17.3961982,20.9726003 L17.3961982,20.9726003 L16.068766,20.9724422 C12.4810494,20.9724422 8.89329444,20.9728256 5.3055778,20.9703719 C5.21429384,20.9702952 5.16736752,20.9962504 5.12021117,21.077298 C4.85786083,21.5279287 4.46999024,21.8000937 3.94858667,21.8748921 C3.41928537,21.9508407 2.95949177,21.79718 2.58304606,21.4285936 C2.09031968,20.9460653 1.9729272,20.2171738 2.25287491,19.6098536 C2.31594174,19.4730235 2.3915836,19.3441678 2.49463748,19.2327945 C2.55099507,19.1718746 2.5712378,19.1033254 2.57116112,19.0169488 L2.56913877,14.2727322 L2.56913877,14.2727322 L2.56901417,9.52851559 C2.56901417,8.01100117 2.56843909,6.49348675 2.57050937,4.97597232 C2.57062438,4.88702701 2.54509094,4.82204326 2.48570461,4.75399242 C2.25394839,4.48845999 2.13141855,4.1747744 2.11017902,3.82321037 C2.08594909,3.42245805 2.19080488,3.05755223 2.43766647,2.74014781 C2.74905175,2.33977887 3.16042383,2.12523664 3.66978912,2.10890444 C4.1004838,2.09510258 4.47819468,2.22993908 4.79697929,2.52265351 C4.83175231,2.55462782 4.87062755,2.57191848 4.91839732,2.56850635 C4.93748989,2.5671645 4.95673581,2.56831466 4.97590506,2.56831466 C9.65941264,2.56831466 14.3429202,2.56804629 19.0264661,2.57007823 C19.1169066,2.57011657 19.181507,2.53998251 19.2481777,2.48304984 C19.5214161,2.24979842 19.839894,2.12680852 20.1992024,2.10855939 C20.6642484,2.08490454 21.066726,2.23948536 21.4017278,2.55458948 Z M5.43746184,3.74137553 C5.44620512,3.86913295 5.44390624,3.9976441 5.4215958,4.12551457 C5.36193799,4.46755773 5.20791305,4.7633218 4.95872956,4.99939037 C4.62784162,5.31279174 4.22859027,5.46263348 3.76798522,5.44032304 C3.64079781,5.43418955 3.63179544,5.41922681 3.63153215,5.52189728 L3.6315599,18.4139944 L3.6315599,18.4139944 C3.6315599,18.4328376 3.63359497,18.4519447 3.63122072,18.4704865 C3.62292968,18.5357596 3.64833041,18.5582962 3.71552554,18.5557335 C3.86570645,18.5498544 4.0172064,18.5432592 4.16493769,18.5786846 C4.82241729,18.7364028 5.24333841,19.1380661 5.40260178,19.7988998 C5.42510065,19.8922494 5.46124206,19.9118466 5.55063456,19.9118466 L11.9991666,19.9099668 L11.9991666,19.9099668 L18.4947973,19.9101505 C18.5493674,19.9173487 18.5655727,19.8942845 18.578273,19.8396767 C18.7337301,19.1693836 19.142403,18.7436386 19.8157864,18.5859958 C19.9029177,18.5656074 19.9119248,18.5286745 19.9118871,18.4540929 L19.9105728,15.2274785 L19.9105728,15.2274785 L19.9105304,7.71440503 C19.9105304,6.98897657 19.9086084,6.2635858 19.9130258,5.53819502 C19.9135453,5.45128983 19.888333,5.42031148 19.8059879,5.40489768 C19.4741201,5.34294099 19.1930161,5.17896679 18.9690449,4.93227062 C18.6745999,4.60790245 18.5341044,4.22097461 18.553023,3.77842142 C18.5590576,3.63662576 18.576172,3.63012542 18.4673,3.63071589 L5.58142448,3.63084087 L5.58142448,3.63084087 C5.57200284,3.63084087 5.56235508,3.63212222 5.55315956,3.63061475 C5.4650484,3.61610543 5.43101744,3.64670691 5.43746184,3.74137553 Z M9.35789975,4.46855086 L9.35789975,6.97840081 C9.85924947,7.18134202 10.2595793,7.58167183 10.4625205,8.08302155 L12.7358213,8.08302155 C12.9387625,7.58167183 13.3390923,7.18134202 13.8404421,6.97840081 L13.8404421,4.46855086 L15.3404421,4.46855086 L15.3404421,6.97840081 C15.8417918,7.18134202 16.2421216,7.58167183 16.4450628,8.08302155 L19.160537,8.08302155 L19.160537,9.58302155 L16.4450628,9.58302155 C16.2421216,10.0843713 15.8417918,10.4847011 15.3404421,10.6876423 L15.3404421,12.741147 C15.8417918,12.9440882 16.2421216,13.344418 16.4450628,13.8457678 L19.2763345,13.8457678 L19.2763345,15.3457678 L16.4450628,15.3457678 C16.2421216,15.8471175 15.8417918,16.2474473 15.3404421,16.4503885 L15.3246535,19.0602275 L13.8246535,19.0602275 L13.8404421,16.4503885 C13.3390923,16.2474473 12.9387625,15.8471175 12.7358213,15.3457678 L10.4625205,15.3457678 C10.2595793,15.8471175 9.85924947,16.2474473 9.35789975,16.4503885 L9.3421112,19.0602275 L7.8421112,19.0602275 L7.85789975,16.4503885 C7.35655002,16.2474473 6.95622022,15.8471175 6.75327901,15.3457678 L4.4013749,15.3457678 L4.4013749,13.8457678 L6.75327901,13.8457678 C6.95622022,13.344418 7.35655002,12.9440882 7.85789975,12.741147 L7.85789975,10.6876423 C7.35655002,10.4847011 6.95622022,10.0843713 6.75327901,9.58302155 L4.28557734,9.58302155 L4.28557734,8.08302155 L6.75327901,8.08302155 C6.95622022,7.58167183 7.35655002,7.18134202 7.85789975,6.97840081 L7.85789975,4.46855086 L9.35789975,4.46855086 Z M12.7358213,9.58302155 L10.4625205,9.58302155 C10.2595793,10.0843713 9.85924947,10.4847011 9.35789975,10.6876423 L9.35789975,12.741147 C9.85924947,12.9440882 10.2595793,13.344418 10.4625205,13.8457678 L12.7358213,13.8457678 C12.9387625,13.344418 13.3390923,12.9440882 13.8404421,12.741147 L13.8404421,10.6876423 C13.3390923,10.4847011 12.9387625,10.0843713 12.7358213,9.58302155 Z" id="Combined-Shape" fill="#FFFFFF"></path>
    </g>
</svg>