<?xml version="1.0" encoding="UTF-8"?>
<svg width="24px" height="24px" viewBox="0 0 24 24" version="1.1" xmlns="http://www.w3.org/2000/svg" xmlns:xlink="http://www.w3.org/1999/xlink">
    <title>icon / AI / NavigationArea - box</title>
    <defs>
        <linearGradient x1="50%" y1="0%" x2="50%" y2="100%" id="linearGradient-1">
            <stop stop-color="#ADADAD" stop-opacity="0" offset="0%"></stop>
            <stop stop-color="#9D9D9D" offset="100%"></stop>
        </linearGradient>
        <path d="M20.924815,0 C23.1021676,0 23.9566542,1.77846722 23.9566542,3.01865122 C23.9566542,4.25883521 23.9566542,18.7815894 23.9566542,20.6420628 C23.9566542,22.3929727 22.7281352,23.9566542 20.924815,23.9566542 C19.1214948,23.9566542 4.64929841,23.9566542 2.80929064,23.9566542 C1.38661643,23.9566542 0,22.5147712 0,21.1586662 C0,19.8025612 0,4.03532882 0,2.67255351 C0,1.3097782 1.36539793,0 2.60955829,0 C3.85371865,0 18.9601214,0 20.924815,0 Z" id="path-2"></path>
    </defs>
    <g id="icon-/-AI-/-NavigationArea---box" stroke="none" stroke-width="1" fill="none" fill-rule="evenodd">
        <g id="icon/general/color/-box-template">
            <mask id="mask-3" fill="white">
                <use xlink:href="#path-2"></use>
            </mask>
            <use id="Path-3" fill="url(#linearGradient-1)" xlink:href="#path-2"></use>
            <g id="Group" mask="url(#mask-3)" fill="#65C9C9">
                <g id="icon/color/AI" style="mix-blend-mode: multiply;">
                    <rect id="Rectangle-2" x="0" y="0" width="24" height="24"></rect>
                </g>
            </g>
        </g>
        <path d="M20.7255907,11.98644 C20.6698294,11.98644 20.614135,11.986373 20.5584406,11.98644 C20.048288,11.987511 20.048288,11.987511 20.0328248,12.4954546 C20.0150856,13.0828563 20.0150856,13.0828563 20.7250552,13.1908312 C21.3362208,13.2838783 21.3406389,13.2802635 21.3679505,12.6685624 C21.3984754,11.9846326 21.3984754,11.9846326 20.7255907,11.98644 M3.30502783,12.0733955 C3.39379077,12.0733955 3.48429416,12.0618818 3.57084806,12.0754707 C3.87141034,12.1224628 3.98480733,12.0283446 4.00154242,11.6971906 C4.03936374,10.9485964 4.06312757,10.9498013 3.28769028,10.8601012 C2.7409213,10.7968426 2.7409213,10.7968426 2.67264212,11.3264079 C2.57564552,12.0780813 2.57564552,12.0780813 3.30502783,12.0733955 M6.78960899,18.158811 C6.74837372,18.0035093 6.61703671,17.944334 6.51937071,17.8609263 C6.3354855,17.7038842 6.20066759,17.3809639 5.9888013,17.4008452 C5.78891735,17.4196554 5.61179312,17.6844715 5.425565,17.84225 C4.98248666,18.2175847 4.98275442,18.2178524 5.40869602,18.6417858 C5.93785968,19.1684057 5.93819438,19.1687404 6.41614865,18.6199632 C6.51127092,18.5107835 6.60364864,18.3991939 6.69562471,18.2873365 C6.73029982,18.2450971 6.76035605,18.1991091 6.78960899,18.158811 M5.8705846,6.81074413 C5.76361389,6.6294696 5.60021243,6.52925986 5.45702697,6.40957047 C4.84927532,5.90182773 4.84860592,5.90256408 4.39126928,6.55302369 C4.07952796,6.99630285 4.0757793,7.00239442 4.54603543,7.28635549 C4.76319,7.41749168 4.97097292,7.67963018 5.20104698,7.64448649 C5.43808285,7.60833868 5.50140844,7.25911075 5.67833185,7.07576107 C5.75323813,6.9980433 5.80699125,6.89990871 5.8705846,6.81074413 M17.1426072,19.8334583 C17.1656347,19.8221454 17.1983685,19.8119035 17.2242075,19.7925578 C17.4991986,19.5871847 17.7714451,19.3781299 18.0480427,19.1748989 C18.1619752,19.0912235 18.1309818,19.0231451 18.0524608,18.9350516 C17.8385863,18.6953381 17.6282596,18.4521437 17.4226188,18.2053346 C17.3358641,18.1013092 17.2678527,18.0899294 17.1467575,18.1695884 C16.3353063,18.7037726 16.3332312,18.7006264 16.8646038,19.5152238 C16.9130687,19.5893937 16.962136,19.663229 17.0100653,19.7378005 C17.0402554,19.7848596 17.0711149,19.8301113 17.1426072,19.8334583 M4.16086051,9.78470412 C4.26046779,9.81134639 4.30029731,9.75371073 4.32955026,9.67224429 C4.42293208,9.41198012 4.51464039,9.15091266 4.61585424,8.89359386 C4.66525623,8.76801372 4.61170393,8.70857067 4.50694225,8.66231487 C4.22338282,8.53700249 3.9394887,8.41235951 3.65787055,8.28276295 C3.52519472,8.22178027 3.42572133,8.2264661 3.3696253,8.38223635 C3.26466279,8.67369473 3.1547467,8.96341267 3.05092218,9.25533964 C3.01524296,9.35561632 3.00613907,9.45803509 3.13961817,9.49659275 C3.47967527,9.59479428 3.82080342,9.68938103 4.16086051,9.78470412 M6.66088266,5.97378864 C6.74569611,5.93034433 6.77742585,5.91956693 6.80266237,5.90022117 C7.03213397,5.72450268 7.25778997,5.54356285 7.49034083,5.37206162 C7.59952058,5.29153235 7.58445899,5.21722853 7.51885743,5.11996417 C7.33845312,4.85260431 7.15764717,4.58517752 6.98889049,4.31045423 C6.91137353,4.18427162 6.84423234,4.1688084 6.72849243,4.26044977 C6.48442783,4.45370663 6.23440553,4.63966699 5.98458406,4.82549346 C5.86897803,4.91151184 5.82031238,4.9862173 5.94529006,5.11621551 C6.16873703,5.34856554 6.37705547,5.5957094 6.58818541,5.83970707 C6.62373075,5.88080846 6.64160383,5.93723919 6.66088266,5.97378864 M15.8602974,20.3721945 C15.7177144,20.0788617 15.6079991,19.6742072 15.3560356,19.4003541 C15.2012694,19.232066 14.9078028,19.5431379 14.6602573,19.5836369 C14.5844808,19.5960878 14.5134571,19.6349132 14.4388186,19.6568027 C14.3145772,19.6933521 14.2977752,19.7643089 14.3359982,19.8834628 C14.4346013,20.1903175 14.5244353,20.5001845 14.6094496,20.8111225 C14.6407777,20.9257244 14.6845567,21.0008315 14.8148896,20.952032 C15.1375422,20.8312046 15.458856,20.7068963 15.7805714,20.583726 C15.8488506,20.5575524 15.8973154,20.5177898 15.8602974,20.3721945 M9.17295407,3.06964746 C9.04462937,3.11463139 8.88638232,3.16764816 8.72987573,3.22535077 C8.05250609,3.47530612 8.05263997,3.47577471 8.34121992,4.11304706 C8.35956158,4.15354599 8.37924205,4.19350939 8.39798536,4.23394138 C8.61761672,4.70774535 8.61714814,4.70660736 9.09316114,4.52084782 C9.22777823,4.46829963 9.36326555,4.4138771 9.50303705,4.37960363 C9.66704096,4.33930553 9.68558345,4.24384856 9.64300937,4.10534892 C9.55163576,3.80766508 9.46608596,3.50810691 9.36975876,3.21202963 C9.34606187,3.13906463 9.3409744,3.01897359 9.17295407,3.06964746 M15.9313211,3.47296321 C15.8841951,3.50810691 15.8357972,3.52544446 15.8209365,3.55804443 C15.6606143,3.91155654 15.4187587,4.25877626 15.3821423,4.62594421 C15.3607883,4.839484 15.8024609,4.87643509 16.008972,5.035954 C16.0439149,5.06293097 16.0880286,5.07805949 16.1226367,5.10537117 C16.2614711,5.21461786 16.3563925,5.17907252 16.442344,5.03146899 C16.5653134,4.82013823 16.6815219,4.5995697 16.8378277,4.41434569 C17.0605383,4.15046673 16.9921922,4.00902172 16.7020726,3.87996068 C16.4394655,3.76314973 16.19192,3.61226613 15.9313211,3.47296321 M19.9081818,14.2796163 C19.7957889,14.251903 19.7212843,14.2724537 19.6788441,14.3999082 C19.5915538,14.6621136 19.4898714,14.9195663 19.3906658,15.1776884 C19.3566601,15.2660497 19.3723241,15.3235515 19.4630953,15.3631802 C19.8163396,15.5178124 20.1836415,15.8456864 20.5185441,15.7737924 C20.7997607,15.7133453 20.8053167,15.1981722 20.9344447,14.885092 C20.9470964,14.8545003 20.9563342,14.8223689 20.9657728,14.7906392 C21.0029916,14.6651929 20.9795625,14.5818521 20.8336994,14.5437631 C20.5233639,14.4626313 20.2165092,14.3684462 19.9081818,14.2796163 M18.8275634,16.3603909 C18.6792235,16.4082533 18.63598,16.5459496 18.5669645,16.6513138 C18.4336862,16.8544109 18.1441691,17.0198205 18.1686693,17.2402552 C18.194776,17.476287 18.5059818,17.5957755 18.6922099,17.7654024 C19.1101187,18.1460254 19.1156078,18.1400008 19.4631622,17.6914333 C19.9430578,17.0719671 19.9431916,17.0716993 19.2778043,16.6435487 C19.1289289,16.5478909 18.9781792,16.4550446 18.8275634,16.3603909 M4.64510718,15.4515415 C4.31770181,15.6084497 3.96559544,15.774261 3.6168361,15.9468333 C3.53905138,15.985324 3.56234663,16.0600964 3.59641928,16.1209452 C3.76497514,16.4215075 3.93513757,16.7211995 4.10536694,17.0208916 C4.15249297,17.1038307 4.21842924,17.1250508 4.29889157,17.0684862 C4.61538565,16.8462442 5.0722537,16.7262201 5.21570693,16.3893761 C5.31203412,16.1632515 4.94834707,15.8659693 4.82979567,15.5804017 C4.81714394,15.5498769 4.79391563,15.523971 4.77898793,15.4941825 C4.7555588,15.4476589 4.71987958,15.4326643 4.64510718,15.4515415 M8.71119937,19.4892509 C8.74714635,19.3153398 8.64318795,19.2951239 8.56948659,19.2546919 C8.36511763,19.1425667 8.1515109,19.0454363 7.95564337,18.9203247 C7.79163945,18.815563 7.70983831,18.8567313 7.62100844,19.0149784 C7.47983119,19.2666073 7.32124944,19.5087975 7.16173053,19.7495151 C7.07597991,19.8788439 7.04264361,19.9711547 7.2200356,20.0569053 C7.49964554,20.1920579 7.7676748,20.3509744 8.04507571,20.4910136 C8.10304607,20.5201996 8.1946205,20.6086948 8.24609765,20.5030629 C8.41592538,20.1539688 8.57095928,19.7977122 8.71119937,19.4892509 M2.77111141,13.5845744 C2.80638899,13.7476412 2.83825261,13.9115112 2.87734579,14.0735739 C3.07528847,14.8936604 2.98893539,14.7319324 3.67688161,14.535931 C4.29922627,14.3586729 4.29621395,14.3482302 4.17217344,13.7221369 C4.14834266,13.6021128 4.11989301,13.4826912 4.10349261,13.3615961 C4.08762775,13.2447851 4.03139783,13.2188122 3.92007599,13.2380911 C3.59146569,13.2951912 3.26158353,13.3461328 2.93129973,13.3927903 C2.81207892,13.4096592 2.74098824,13.4499573 2.77111141,13.5845744 M20.1947536,10.8061473 C20.3373366,10.7823165 20.479384,10.7542685 20.6227034,10.7353913 C21.3062985,10.6453565 21.3063654,10.6462267 21.1708111,9.98592688 C21.0337842,9.31839747 21.0339181,9.31866524 20.3975829,9.51165433 C20.2592171,9.55362595 20.1221902,9.60724519 19.9804774,9.62933551 C19.7459184,9.66581801 19.732865,9.7997657 19.7824009,9.98914002 C19.8330078,10.1823969 19.8763851,10.3784652 19.9081818,10.5756046 C19.9357613,10.7472398 20.0005595,10.8489891 20.1947536,10.8061473 M13.1097175,3.8620876 C13.0564329,3.99375932 13.1366944,4.05139498 13.2649522,4.07582822 C13.4175762,4.1048134 13.5717399,4.12710454 13.7232929,4.16084249 C14.2143006,4.27029 14.2139659,4.27182963 14.3528671,3.77064705 C14.3558125,3.75986965 14.3587579,3.74915919 14.3617702,3.73851567 C14.5814685,2.96314532 14.5838114,2.95049359 13.7941828,2.80382723 C13.2294738,2.69893167 13.2663579,2.58332564 13.2003547,3.21899143 C13.1785991,3.42878256 13.1419158,3.63703407 13.1097175,3.8620876 M10.9618017,20.1982164 C11.0145507,20.0326729 10.9607306,19.9631218 10.8215616,19.9374167 C10.5598247,19.8890858 10.2988242,19.8362029 10.0389617,19.7784334 C9.91820125,19.7516572 9.86069947,19.7934949 9.8135065,19.9063564 C9.35436248,21.0045802 9.39117968,21.0733949 10.5604941,21.2579495 C10.5823836,21.2614304 10.6040723,21.2672542 10.6252924,21.2738813 C10.787422,21.3244882 10.8433842,21.2521926 10.8577763,21.0958868 C10.8862929,20.7863546 10.9285992,20.4780941 10.9618017,20.1982164 M18.1444368,4.91733022 C18.0459006,4.91666625 18.0098867,4.97791669 17.9673126,5.02671623 C17.8798885,5.12699291 17.7971502,5.23128601 17.7093244,5.33122799 C17.2399385,5.86527829 17.2396038,5.86501053 17.72211,6.35842802 C18.0472394,6.69092086 18.0472394,6.69092086 18.4046341,6.38861813 C19.0998099,5.80068083 19.1002784,5.80014531 18.4322805,5.16775959 C18.336288,5.07678763 18.2326643,4.99378156 18.1444368,4.91733022 M12.0086822,20.6726229 C12.0086822,21.3835966 12.0086822,21.3835966 12.4905859,21.3681333 C13.3944149,21.3391482 13.3944149,21.3391482 13.2344274,20.4444901 C13.1439909,19.939358 13.1430538,19.9329987 12.6205841,20.0128585 C12.4263901,20.0425801 12.1724853,19.9402952 12.0509885,20.0905763 C11.9250067,20.2464804 12.0291659,20.4968374 12.0086822,20.6726229 M20.4858103,7.98106269 C20.3180577,7.64549059 20.1463557,7.28414645 19.9045001,6.96383677 C19.8494751,6.8909387 19.7826017,6.96430535 19.7315931,6.99710613 C19.4606854,7.17121804 19.1964718,7.35624124 18.9209452,7.52252113 C18.7813076,7.60679906 18.7754168,7.68270944 18.8578874,7.81284153 C19.0174063,8.06453733 19.1066378,8.4534609 19.3274741,8.54918564 C19.5783666,8.65803069 19.8828114,8.35934274 20.1669733,8.2455441 C20.249243,8.21267638 20.3266261,8.16775939 20.4070215,8.13020584 C20.4609754,8.10503626 20.5021438,8.07350734 20.4858103,7.98106269 M11.9775549,3.32850588 C11.9736054,2.5971823 11.9736054,2.5971823 11.3481815,2.64618265 C10.6416928,2.70160928 10.6417597,2.70154234 10.7259038,3.39404051 C10.731259,3.43822116 10.7316607,3.48300427 10.7373506,3.52705103 C10.8086421,4.07837195 10.808776,4.07837195 11.3675942,4.00031948 C11.3785724,3.99877985 11.3892829,3.99536589 11.4003281,3.9938932 C11.980768,3.91697871 11.980768,3.91697871 11.9775549,3.32850588 M11.6454637,17.8755193 C11.6702986,17.8785986 11.6950665,17.8817448 11.7198345,17.884891 C13.179871,14.5990558 14.6399744,11.3132206 16.1000109,8.02738542 C16.0789916,8.00890988 16.0579054,7.99043434 16.0368192,7.97189185 C12.7533938,9.43125894 9.4699685,10.8905591 6.18661011,12.3499262 C6.52044175,12.4640595 6.83800689,12.5023494 7.15597366,12.5372254 C8.4060182,12.6743862 9.6559958,12.8122164 10.9065759,12.9447583 C11.0601371,12.9610918 11.1114134,13.034927 11.1265419,13.1795182 C11.2373283,14.2421297 11.3526665,15.3042726 11.4695444,16.3662817 C11.5249041,16.8696733 11.5866901,17.3724624 11.6454637,17.8755193" id="Fill-1" fill="#FFFFFF"></path>
    </g>
</svg>