<?xml version="1.0" encoding="UTF-8"?>
<svg width="24px" height="24px" viewBox="0 0 24 24" version="1.1" xmlns="http://www.w3.org/2000/svg" xmlns:xlink="http://www.w3.org/1999/xlink">
    <title>icon / AI / Navigation - box</title>
    <defs>
        <linearGradient x1="50%" y1="0%" x2="50%" y2="100%" id="linearGradient-1">
            <stop stop-color="#ADADAD" stop-opacity="0" offset="0%"></stop>
            <stop stop-color="#9D9D9D" offset="100%"></stop>
        </linearGradient>
        <path d="M20.924815,0 C23.1021676,0 23.9566542,1.77846722 23.9566542,3.01865122 C23.9566542,4.25883521 23.9566542,18.7815894 23.9566542,20.6420628 C23.9566542,22.3929727 22.7281352,23.9566542 20.924815,23.9566542 C19.1214948,23.9566542 4.64929841,23.9566542 2.80929064,23.9566542 C1.38661643,23.9566542 0,22.5147712 0,21.1586662 C0,19.8025612 0,4.03532882 0,2.67255351 C0,1.3097782 1.36539793,0 2.60955829,0 C3.85371865,0 18.9601214,0 20.924815,0 Z" id="path-2"></path>
    </defs>
    <g id="icon-/-AI-/-Navigation---box" stroke="none" stroke-width="1" fill="none" fill-rule="evenodd">
        <g id="icon/general/color/-box-template">
            <mask id="mask-3" fill="white">
                <use xlink:href="#path-2"></use>
            </mask>
            <use id="Path-3" fill="url(#linearGradient-1)" xlink:href="#path-2"></use>
            <g id="Group" mask="url(#mask-3)" fill="#65C9C9">
                <g id="icon/color/AI" style="mix-blend-mode: multiply;">
                    <rect id="Rectangle-2" x="0" y="0" width="24" height="24"></rect>
                </g>
            </g>
        </g>
        <path d="M11.9996038,2.679588 C17.1471131,2.679588 21.3199938,6.85246872 21.3199938,11.999978 C21.3199938,17.1474872 17.1471131,21.3203679 11.9996038,21.3203679 C6.85209459,21.3203679 2.67921387,17.1474872 2.67921387,11.999978 C2.67921387,6.85246872 6.85209459,2.679588 11.9996038,2.679588 Z M11.9996038,3.71518688 C7.42404006,3.71518688 3.71481276,7.42441419 3.71481276,11.999978 C3.71481276,16.5755417 7.42404006,20.284769 11.9996038,20.284769 C16.5751676,20.284769 20.2843949,16.5755417 20.2843949,11.999978 C20.2843949,7.42441419 16.5751676,3.71518688 11.9996038,3.71518688 Z M16.1789855,7.98940493 L11.8219983,17.7926263 L11.2773748,12.8910156 L6.37576417,12.3463922 L16.1789855,7.98940493 Z" id="Combined-Shape" fill="#FFFFFF" fill-rule="nonzero"></path>
    </g>
</svg>