<?xml version="1.0" encoding="UTF-8"?>
<svg width="24px" height="24px" viewBox="0 0 24 24" version="1.1" xmlns="http://www.w3.org/2000/svg" xmlns:xlink="http://www.w3.org/1999/xlink">
    <title>icon / Rendering / Particle - box</title>
    <defs>
        <linearGradient x1="50%" y1="0%" x2="50%" y2="100%" id="linearGradient-1">
            <stop stop-color="#ADADAD" stop-opacity="0" offset="0%"></stop>
            <stop stop-color="#9D9D9D" offset="100%"></stop>
        </linearGradient>
        <path d="M20.924815,0 C23.1021676,0 23.9566542,1.77846722 23.9566542,3.01865122 C23.9566542,4.25883521 23.9566542,18.7815894 23.9566542,20.6420628 C23.9566542,22.3929727 22.7281352,23.9566542 20.924815,23.9566542 C19.1214948,23.9566542 4.64929841,23.9566542 2.80929064,23.9566542 C1.38661643,23.9566542 0,22.5147712 0,21.1586662 C0,19.8025612 0,4.03532882 0,2.67255351 C0,1.3097782 1.36539793,0 2.60955829,0 C3.85371865,0 18.9601214,0 20.924815,0 Z" id="path-2"></path>
    </defs>
    <g id="icon-/-Rendering-/-Particle---box" stroke="none" stroke-width="1" fill="none" fill-rule="evenodd">
        <g id="icon/general/color/-box-template">
            <mask id="mask-3" fill="white">
                <use xlink:href="#path-2"></use>
            </mask>
            <use id="Path-3" fill="url(#linearGradient-1)" xlink:href="#path-2"></use>
            <g id="Group" mask="url(#mask-3)" fill="#B29EDF">
                <g id="icon/color/AI" style="mix-blend-mode: multiply;">
                    <rect id="Rectangle-2" x="0" y="-0.00055502734" width="24" height="24"></rect>
                </g>
            </g>
        </g>
        <path d="M14.0607748,19.0077454 L12.5882256,14.7159203 L13.3721675,13.9391315 L14.8686626,18.3876527 C15.4569114,18.1911862 16.1312298,18.358455 16.556226,18.8616128 C17.1120869,19.5194676 17.032266,20.5039239 16.3769848,21.0632398 C15.7184448,21.6253006 14.7293206,21.5442661 14.1705679,20.883013 C13.7115388,20.3393449 13.6862516,19.5730825 14.0607748,19.0077454 L14.0607748,19.0077454 Z M6.70784344,17.4937914 L10.9791027,13.898116 L10.9791027,14.7159203 L7.48427807,18.2611839 C7.53158448,18.4230605 7.54266836,18.5980057 7.50988404,18.7750335 C7.39702096,19.3842955 6.80692818,19.7876511 6.19192888,19.6758092 C5.57692958,19.5639674 5.16989096,18.9792139 5.28275405,18.3699519 C5.3957913,17.7605173 5.98570991,17.3571617 6.60070921,17.4690036 C6.63717337,17.4756348 6.67290646,17.4839286 6.70784344,17.4937914 L6.70784344,17.4937914 Z M16.2369563,15.9893799 L14.1561094,14.3275259 L14.1561094,13.550737 L16.7853999,15.4116656 C17.2396953,15.1911429 17.8036928,15.2940023 18.145978,15.6936091 C18.5508334,16.1658886 18.4926485,16.8739626 18.0158459,17.2751239 C17.5392175,17.6761127 16.8246232,17.6184587 16.4197678,17.1461792 C16.1353749,16.8141599 16.079577,16.3657744 16.2369563,15.9893799 L16.2369563,15.9893799 Z M9.55246117,5.69297913 L11.4123128,10.0551872 L11.0203419,10.3939945 L8.91100116,5.96730759 C8.555728,6.00005841 8.19047397,5.86632225 7.94194336,5.57640172 C7.53709038,5.10395248 7.59544914,4.3960554 8.07207468,3.99489646 C8.54870022,3.59373752 9.26329012,3.65156379 9.6681431,4.12384041 C10.068868,4.59130141 10.0157793,5.28977142 9.55246117,5.69297913 L9.55246117,5.69297913 Z M4.99956189,12.3855538 L8.66851642,12.3855538 L8.66851642,13.1704917 L5.06179681,13.1704917 C5.00241245,13.3760301 4.8831922,13.5670143 4.70640294,13.7157495 C4.2296003,14.1169161 3.51500605,14.0592613 3.11032482,13.5868031 C2.70546938,13.1145174 2.76365428,12.4064342 3.24045692,12.0054402 C3.71708536,11.6042736 4.4316796,11.6619284 4.83653504,12.134214 C4.90347526,12.2123656 4.95775052,12.2969643 4.99956189,12.3855538 L4.99956189,12.3855538 Z M19.9625055,12.0494813 L19.6597344,12.0494813 L14.1561094,13.1623427 L14.1561094,12.3855537 L19.3107922,11.2042104 C19.1250468,10.6214645 19.2920162,9.95842172 19.7858247,9.53677702 C20.4443704,8.97446927 21.4335414,9.05550183 21.9922329,9.71690359 C22.5480348,10.3746849 22.4681422,11.3591276 21.8130386,11.9184962 C21.2784046,12.3750003 20.5257761,12.4073876 19.9625055,12.0494813 L19.9625055,12.0494813 Z M14.1333272,4.61615825 C13.638189,5.03273576 12.8961148,4.97286619 12.4758715,4.48225833 C12.0554473,3.99182972 12.1160506,3.25654531 12.6110079,2.8399678 C13.1059652,2.42339028 13.8480393,2.4834391 14.2684635,2.97386771 C14.6888878,3.46447557 14.6282845,4.19975998 14.1333272,4.61615825 Z M17.7383366,5.01414199 C17.2730252,4.92952189 16.8259059,5.23512336 16.7401927,5.69782375 C16.6543736,6.1612269 16.9634601,6.6052397 17.4292913,6.68995431 C17.8946238,6.77457824 18.3417179,6.46895352 18.4274352,6.00609996 C18.5132476,5.54273285 18.2042044,5.09886325 17.7383366,5.01414199 Z M17.3295563,7.22094766 C16.5654122,7.08198278 16.0603938,6.35650756 16.2003077,5.60100512 C16.3403252,4.84515676 17.0734229,4.34409199 17.8380716,4.48314864 C18.6022317,4.62211641 19.1072311,5.34743212 18.9673227,6.10290532 C18.8273181,6.85889785 18.0942457,7.3600117 17.3295563,7.22094766 Z M3.97138085,4.30919868 C3.60899647,3.88033673 2.97242051,3.82813666 2.54663301,4.19170078 C2.11731296,4.55828122 2.06458226,5.20807999 2.4297559,5.64024289 C2.79214028,6.06910485 3.42871624,6.12130492 3.85450374,5.7577408 C4.28382379,5.39116036 4.33655449,4.74136158 3.97138085,4.30919868 Z M4.39335388,3.96396912 C4.94917304,4.62175049 4.86928515,5.60620646 4.21417534,6.16558038 C3.55569591,6.7278315 2.56652971,6.64671856 2.00778288,5.98547246 C1.45196371,5.32769109 1.5318516,4.34323512 2.18696141,3.7838612 C2.84544084,3.22161008 3.83460704,3.30272301 4.39335388,3.96396912 Z M16.1342345,19.2068204 C15.7720108,18.7779642 15.1354671,18.7257628 14.7096473,19.0893545 C14.2802562,19.4558617 14.2275364,20.1054767 14.5926095,20.5378646 C14.9549316,20.9666529 15.5915275,21.0188064 16.0173948,20.6553305 C16.4467921,20.2888181 16.4994709,19.6390577 16.1342345,19.2068204 Z M21.5702441,10.0621145 C21.2078949,9.63313746 20.5713583,9.58098886 20.1454963,9.9446166 C19.7161635,10.3112079 19.6634428,10.9608346 20.0286192,11.3931587 C20.3910035,11.8220207 21.0275795,11.8742207 21.453367,11.5106566 C21.882687,11.1440762 21.9354177,10.4942774 21.5702441,10.0621145 Z M12.3497248,10.5442764 L12.7271783,5.2176906 L13.3736468,5.2176906 L12.7271783,10.5442764 L12.3497248,10.5442764 Z M3.96486518,6.94803173 L4.74880704,6.17124285 L9.4524582,10.831976 L9.06048727,11.6087649 L3.96486518,6.94803173 Z M14.1560889,10.8319761 L14.1560889,11.3675821 L13.3721675,10.8319761 L16.5079349,6.92709002 L17.2918769,7.72482056 L14.1560889,10.8319761 Z" id="Shape" fill="#FFFFFF"></path>
    </g>
</svg>