<?xml version="1.0" encoding="UTF-8"?>
<svg width="24px" height="24px" viewBox="0 0 24 24" version="1.1" xmlns="http://www.w3.org/2000/svg" xmlns:xlink="http://www.w3.org/1999/xlink">
    <title>icon / Physics  / PhysX /  PrimitiveCollider - box</title>
    <defs>
        <linearGradient x1="50%" y1="0%" x2="50%" y2="100%" id="linearGradient-1">
            <stop stop-color="#ADADAD" stop-opacity="0" offset="0%"></stop>
            <stop stop-color="#9D9D9D" offset="100%"></stop>
        </linearGradient>
        <path d="M20.924815,0 C23.1021676,0 23.9566542,1.77846722 23.9566542,3.01865122 C23.9566542,4.25883521 23.9566542,18.7815894 23.9566542,20.6420628 C23.9566542,22.3929727 22.7281352,23.9566542 20.924815,23.9566542 C19.1214948,23.9566542 4.64929841,23.9566542 2.80929064,23.9566542 C1.38661643,23.9566542 0,22.5147712 0,21.1586662 C0,19.8025612 0,4.03532882 0,2.67255351 C0,1.3097782 1.36539793,0 2.60955829,0 C3.85371865,0 18.9601214,0 20.924815,0 Z" id="path-2"></path>
    </defs>
    <g id="icon-/-Physics--/-PhysX-/--PrimitiveCollider---box" stroke="none" stroke-width="1" fill="none" fill-rule="evenodd">
        <g id="icon/general/color/-box-template">
            <mask id="mask-3" fill="white">
                <use xlink:href="#path-2"></use>
            </mask>
            <use id="Path-3" fill="url(#linearGradient-1)" xlink:href="#path-2"></use>
            <g id="Group" mask="url(#mask-3)" fill="#DD7F6D">
                <g id="icon/color/AI" style="mix-blend-mode: multiply;">
                    <rect id="Rectangle-2" x="0" y="0" width="24" height="24"></rect>
                </g>
            </g>
        </g>
        <path d="M21.4907699,10.5433391 C21.3020512,11.2024573 20.6814268,12.5978913 19.6288966,14.7296411 L19.6288966,14.7296411 L22.5610808,15.3982147 L19.6288966,17.2525258 L22.1909472,21.4161022 L18.0064794,19.1661022 L16.2208527,22.1367553 L15.6543753,19.1661022 C13.1041804,20.4389108 11.618329,21.0753151 11.1968212,21.0753151 C11.8299803,20.3253151 13.1725928,18.8802813 14.0309227,17.7622709 C14.8892526,16.6442604 14.8595823,15.0680195 14.7587637,14.2497659 C15.4011037,14.3875886 17.2043991,14.151932 18.3840142,13.2963327 C19.5933693,12.4191624 21.0084367,10.9161022 21.4907699,10.5433391 Z M22.3790759,1.90353749 C19.8097725,3.14674644 19.6777979,5.24734988 19.6739828,6.94059186 L19.6739465,7.57297641 C19.6715755,7.97737876 19.6578963,8.34378364 19.5932228,8.65045446 C19.3047236,10.0184689 19.0411048,10.4176579 19.0411048,10.4176579 C19.0411048,10.4176579 19.0421558,10.3901126 19.0428316,10.3391328 C18.3466128,12.0890837 16.5938037,13.2831335 14.6086839,13.1790978 C14.1703378,13.1561251 13.7498731,13.0713888 13.3552808,12.9337641 C13.7029408,13.6163616 13.881436,14.3966813 13.838464,15.2166358 C13.7692038,16.5381994 13.1385421,17.6972294 12.1896873,18.4747399 L12.1963718,18.4733283 C11.6414797,19.13201 9.60351024,20.09961 8.95986008,20.3085147 C5.56742949,21.4095705 2.28865841,21.5392397 1.78172358,21.5126723 C5.16300325,20.2460801 4.26326515,16.6375199 4.61088524,14.9891643 C4.89938446,13.6211499 5.16300325,13.2219608 5.16300325,13.2219608 L5.16273593,13.2300006 C5.87988102,11.5235982 7.60945094,10.3672474 9.56430092,10.4696968 C10.002647,10.4926695 10.4231118,10.5774058 10.8177041,10.7150305 C10.4700441,10.032433 10.2915489,9.25211326 10.3345209,8.43215881 C10.40524,7.08275773 11.0612604,5.90280964 12.043679,5.12543204 C12.6455376,4.46828516 14.6137828,3.53572943 15.244248,3.33110407 C17.009147,2.75828401 18.7315616,2.38790865 20.0493963,2.16811396 C21.2646599,1.96542655 22.135872,1.89079171 22.3790759,1.90353749 Z M6.31530622,14.8223638 C6.22810928,16.4861805 7.50621217,17.9056576 9.17002893,17.9928546 C10.8338457,18.0800515 12.2533227,16.8019486 12.3405197,15.1381319 C12.4277166,13.4743151 11.1496137,12.054838 9.48579698,11.9676411 C7.82198023,11.8804441 6.40250316,13.158547 6.31530622,14.8223638 Z M7.98683911,1.52934685 L8.55331654,4.5 C11.1035114,3.22719138 12.5893628,2.59078707 13.0108706,2.59078707 C12.3777116,3.34078707 11.035099,4.78582089 10.1767691,5.90383133 C9.31843918,7.02184178 9.34810954,8.59808265 9.44892816,9.41633625 C8.80658814,9.27851364 7.00329275,9.5141702 5.82367767,10.3697694 C4.61432252,11.2469398 3.19925517,12.75 2.71692188,13.1227631 C2.90564063,12.4636449 3.52626507,11.0682109 4.57879521,8.93646111 L4.57879521,8.93646111 L1.646611,8.26788751 L4.57879521,6.41357644 L2.01674464,2.25 L6.20121245,4.5 L7.98683911,1.52934685 Z M11.8324652,8.51066274 C11.7452682,10.1744795 13.0233711,11.5939566 14.6871879,11.6811535 C16.3510046,11.7683504 17.7704817,10.4902476 17.8576786,8.8264308 C17.9448756,7.16261404 16.6667727,5.74313698 15.0029559,5.65594004 C13.3391392,5.5687431 11.9196621,6.84684599 11.8324652,8.51066274 Z" id="Combined-Shape" fill="#FFFFFF"></path>
    </g>
</svg>