<svg fill="none" height="24" viewBox="0 0 24 24" width="24" xmlns="http://www.w3.org/2000/svg" xmlns:xlink="http://www.w3.org/1999/xlink"><clipPath id="a"><path d="m0 0h24v24h-24z"/></clipPath><g clip-path="url(#a)"><rect fill="#dd7f6d" height="24" rx="3" width="24"/><g fill="#fff"><path d="m9.71505 9.88907c-.08677-.71473-.1123-2.09153.62645-3.06808.4979-.65819 1.1851-1.44614 1.7471-2.09051.2718-.31168.5144-.58977.692-.80334-.5441 0-3.83636 1.66764-3.83636 1.66764l-.48753-2.59478-1.5368 2.59478-3.60135-1.96531 2.20502 3.63677-2.52358 1.61969 2.52358.58398s-1.35879 2.79299-1.60242 3.65659c.14931-.1171.40248-.3619.71392-.6631.5544-.5362 1.29346-1.2509 1.9599-1.7415 1.01524-.74738 2.56724-.95322 3.12007-.83283z"/><path clip-rule="evenodd" d="m11.9481 6.1407c.518-.574 2.212-1.38856 2.7546-1.56729 1.5189-.50035 3.0013-.82386 4.1355-1.01584 1.0459-.17705 1.7957-.24224 2.0051-.2311-2.335 1.14662-2.331 3.12825-2.328 4.64429.0009.47549.0017.90519-.0697 1.24895-.2483 1.19489-.4752 1.54359-.4752 1.54359s.0009-.024.0015-.0686c-.5992 1.5286-2.1077 2.5715-3.8162 2.4807-.3773-.0201-.7392-.0941-1.0788-.2143.2993.5962.4529 1.2778.4159 1.994-.0596 1.1543-.6024 2.1667-1.419 2.8459l.0057-.0013c-.4775.5754-2.23151 1.4205-2.78547 1.603-2.91969.9617-5.74156 1.075-6.17785 1.0518 2.23895-.8512 2.29694-2.9133 2.34085-4.4748.01317-.4681.02507-.8912.09406-1.2233.2483-1.1949.47518-1.5436.47518-1.5436l-.00023.007c.61721-1.4905 2.10576-2.5005 3.7882-2.411.37726.02.73916.094 1.07876.2143-.2992-.5963-.4529-1.27786-.4159-1.99406.0609-1.17867.6255-2.20932 1.471-2.88834zm-2.47327 11.2392c1.43197.0761 2.65367-1.0402 2.72867-2.4935.0751-1.4533-1.0249-2.6932-2.4569-2.7694-1.43196-.0761-2.65363 1.0402-2.72868 2.4935s1.02495 2.6932 2.45691 2.7694zm4.74847-5.5127c1.432.0761 2.6536-1.0402 2.7287-2.49354.075-1.45329-1.025-2.69317-2.4569-2.76933-1.432-.07617-2.6537 1.04022-2.7287 2.49352-.075 1.45325 1.025 2.69315 2.4569 2.76935z" fill-rule="evenodd"/><path d="m13.6586 17.1791c.7387-.9765.7132-2.3533.6264-3.068.5528.1203 2.1048-.0855 3.1201-.8328.6664-.4906 1.4054-1.2054 1.9598-1.7415.3115-.3012.5647-.5461.714-.6632-.2437.8636-1.6024 3.6566-1.6024 3.6566l2.5235.584-2.5235 1.6197 2.205 3.6368-3.6014-1.9654-1.5368 2.5948-.4875-2.5948s-3.2922 1.6677-3.8364 1.6677c.1777-.2136.4202-.4917.692-.8033.5621-.6444 1.2493-1.4324 1.7472-2.0906z"/></g></g></svg>