<svg width="25" height="25" viewBox="0 0 25 25" fill="none" xmlns="http://www.w3.org/2000/svg">
<g id="Components / PhysX / RigidPhysics - box">
<g id="Vector">
<path fill-rule="evenodd" clip-rule="evenodd" d="M21.6997 0.343262C23.8771 0.343262 24.7316 2.12173 24.7316 3.36191C24.7316 4.6021 24.7316 19.1249 24.7316 20.9853C24.7316 22.7362 23.503 24.2999 21.6997 24.2999C19.8964 24.2999 5.4242 24.2999 3.58419 24.2999C2.16152 24.2999 0.774902 22.858 0.774902 21.5019C0.774902 20.1458 0.774902 4.37859 0.774902 3.01582C0.774902 1.65304 2.1403 0.343262 3.38446 0.343262C4.62862 0.343262 19.735 0.343262 21.6997 0.343262Z" fill="url(#paint0_linear_651_47047)"/>
<path fill-rule="evenodd" clip-rule="evenodd" d="M21.6997 0.343262C23.8771 0.343262 24.7316 2.12173 24.7316 3.36191C24.7316 4.6021 24.7316 19.1249 24.7316 20.9853C24.7316 22.7362 23.503 24.2999 21.6997 24.2999C19.8964 24.2999 5.4242 24.2999 3.58419 24.2999C2.16152 24.2999 0.774902 22.858 0.774902 21.5019C0.774902 20.1458 0.774902 4.37859 0.774902 3.01582C0.774902 1.65304 2.1403 0.343262 3.38446 0.343262C4.62862 0.343262 19.735 0.343262 21.6997 0.343262Z" fill="url(#paint1_linear_651_47047)"/>
<path d="M0.774902 0.343262H24.7749V24.3433H0.774902V0.343262Z" fill="#DD7F6D"/>
<path fill-rule="evenodd" clip-rule="evenodd" d="M12.9624 21.3433C8.09539 21.3433 4.1499 17.3978 4.1499 12.5308C4.1499 7.66375 8.09539 3.71826 12.9624 3.71826C17.8294 3.71826 21.7749 7.66375 21.7749 12.5308C21.7749 17.3978 17.8294 21.3433 12.9624 21.3433ZM12.1499 11.7183V4.38305C8.27687 4.76453 5.19617 7.84523 4.81469 11.7183H12.1499ZM13.3999 20.7068C17.5735 20.487 20.9187 17.1418 21.1384 12.9683H13.3999V20.7068Z" fill="white"/>
</g>
</g>
<defs>
<linearGradient id="paint0_linear_651_47047" x1="0.774902" y1="0.343262" x2="0.774902" y2="24.3433" gradientUnits="userSpaceOnUse">
<stop stop-color="#ADADAD" stop-opacity="0.01"/>
<stop offset="1" stop-color="#9D9D9D"/>
</linearGradient>
<linearGradient id="paint1_linear_651_47047" x1="0.774902" y1="0.343262" x2="0.774902" y2="24.3433" gradientUnits="userSpaceOnUse">
<stop stop-color="#ADADAD" stop-opacity="0.01"/>
<stop offset="1" stop-color="#9D9D9D"/>
</linearGradient>
</defs>
</svg>
