<svg fill="none" height="24" viewBox="0 0 24 24" width="24" xmlns="http://www.w3.org/2000/svg" xmlns:xlink="http://www.w3.org/1999/xlink"><clipPath id="a"><path d="m0 0h24v24h-24z"/></clipPath><g clip-path="url(#a)"><rect fill="#dd7f6d" height="24" rx="3" width="24"/><path d="m20.375 12v-.5h-.5-7.375v-7.375-.5h-.5c-4.62538 0-8.375 3.74962-8.375 8.375v.5h.5 7.375v7.375.5h.5c4.6254 0 8.375-3.7496 8.375-8.375zm-8.375-8.5c2.3357 0 4.4506.94145 5.9875 2.46677l.0229.02282v.00001l.0228.0229c1.5253 1.53689 2.4668 3.65177 2.4668 5.9875 0 4.6944-3.8056 8.5-8.5 8.5-2.3404 0-4.45906-.9452-5.9967-2.4759l-.0133-.0133-.00081-.0008-.01327-.0133c-.00004 0-.00008-.0001-.00013-.0001-1.53062-1.5377-2.47579-3.6563-2.47579-5.9966 0-4.69442 3.80558-8.5 8.5-8.5z" fill="#fff" stroke="#fff"/></g></svg>