<?xml version="1.0" encoding="UTF-8"?>
<svg width="24px" height="24px" viewBox="0 0 24 24" version="1.1" xmlns="http://www.w3.org/2000/svg" xmlns:xlink="http://www.w3.org/1999/xlink">
    <title>icon / Physics  / PhysX / RigidBody Copy</title>
    <defs>
        <linearGradient x1="50%" y1="0%" x2="50%" y2="100%" id="linearGradient-1">
            <stop stop-color="#ADADAD" stop-opacity="0" offset="0%"></stop>
            <stop stop-color="#9D9D9D" offset="100%"></stop>
        </linearGradient>
        <path d="M20.924815,0 C23.1021676,0 23.9566542,1.77846722 23.9566542,3.01865122 C23.9566542,4.25883521 23.9566542,18.7815894 23.9566542,20.6420628 C23.9566542,22.3929727 22.7281352,23.9566542 20.924815,23.9566542 C19.1214948,23.9566542 4.64929841,23.9566542 2.80929064,23.9566542 C1.38661643,23.9566542 0,22.5147712 0,21.1586662 C0,19.8025612 0,4.03532882 0,2.67255351 C0,1.3097782 1.36539793,0 2.60955829,0 C3.85371865,0 18.9601214,0 20.924815,0 Z" id="path-2"></path>
    </defs>
    <g id="icon-/-Physics--/-PhysX-/-RigidBody-Copy" stroke="none" stroke-width="1" fill="none" fill-rule="evenodd">
        <g id="icon/general/color/-box-template">
            <mask id="mask-3" fill="white">
                <use xlink:href="#path-2"></use>
            </mask>
            <use id="Path-3" fill="url(#linearGradient-1)" xlink:href="#path-2"></use>
            <g id="Group" mask="url(#mask-3)" fill="#DD7F6D">
                <g id="icon/color/AI" style="mix-blend-mode: multiply;">
                    <rect id="Rectangle-2" x="0" y="0" width="24" height="24"></rect>
                </g>
            </g>
        </g>
        <path d="M6.06439372,8.73059848 C7.22282584,5.73027271 7.55858573,3.38869793 7.55858573,3.38869793 C7.55858573,3.38869793 8.89765488,5.85207938 10.1148668,4.88869793 C11.3320787,3.92531647 12.0146389,2.11938257 12.8782346,-0.136094256 C13.8148347,2.12073764 14.58533,3.97848317 15.5185091,4.88869793 C16.4402663,5.78777178 18.1538916,3.38869793 18.1538916,3.38869793 C18.1538916,3.38869793 18.0136947,6.6788915 18.756118,9.18514995 C19.4985412,11.6914084 20.301079,14.4141943 19.5359438,17.0754207 C18.7708086,19.7366471 14.9530868,22.318147 11.1960571,21.7094659 C7.84115704,21.1659343 5.42910667,19.2503752 4.92957605,16.5004335 C4.43004543,13.7504917 4.90596161,11.7309242 6.06439372,8.73059848 Z M11.5949964,19.3302867 C14.7115962,19.6562263 17.0251698,17.782465 17.5363628,15.8533337 C18.0475558,13.9242024 17.2703097,9.58251059 16.7093989,8.34953951 C16.2518243,9.01292591 15.6065529,11.1812624 14.1901866,10.2479022 C13.2254196,9.61213784 12.7921825,7.20926102 12.4042465,5.68763021 C11.5404379,6.73156683 11.4873114,9.52009101 10.2642116,10.4417628 C9.0411118,11.3634346 8.71984249,9.24689167 8.35379103,8.73986737 C7.35918322,9.98195405 6.86909773,14.1090906 7.00166792,15.6648395 C7.1342381,17.2205884 8.47839668,19.0043471 11.5949964,19.3302867 Z" id="Shape" fill="#FFFFFF" transform="translate(12.289158, 10.831691) rotate(37.000000) translate(-12.289158, -10.831691) "></path>
    </g>
</svg>