<?xml version="1.0" encoding="UTF-8"?>
<svg width="24px" height="24px" viewBox="0 0 24 24" version="1.1" xmlns="http://www.w3.org/2000/svg" xmlns:xlink="http://www.w3.org/1999/xlink">
    <title>icon / Physics  / PhysX / character Copy</title>
    <defs>
        <linearGradient x1="50%" y1="0%" x2="50%" y2="100%" id="linearGradient-1">
            <stop stop-color="#ADADAD" stop-opacity="0" offset="0%"></stop>
            <stop stop-color="#9D9D9D" offset="100%"></stop>
        </linearGradient>
        <path d="M20.924815,0 C23.1021676,0 23.9566542,1.77846722 23.9566542,3.01865122 C23.9566542,4.25883521 23.9566542,18.7815894 23.9566542,20.6420628 C23.9566542,22.3929727 22.7281352,23.9566542 20.924815,23.9566542 C19.1214948,23.9566542 4.64929841,23.9566542 2.80929064,23.9566542 C1.38661643,23.9566542 0,22.5147712 0,21.1586662 C0,19.8025612 0,4.03532882 0,2.67255351 C0,1.3097782 1.36539793,0 2.60955829,0 C3.85371865,0 18.9601214,0 20.924815,0 Z" id="path-2"></path>
    </defs>
    <g id="icon-/-Physics--/-PhysX-/-character-Copy" stroke="none" stroke-width="1" fill="none" fill-rule="evenodd">
        <g id="icon/general/color/-box-template">
            <mask id="mask-3" fill="white">
                <use xlink:href="#path-2"></use>
            </mask>
            <use id="Path-3" fill="url(#linearGradient-1)" xlink:href="#path-2"></use>
            <g id="Group" mask="url(#mask-3)" fill="#DD7F6D">
                <g id="icon/color/AI" style="mix-blend-mode: multiply;">
                    <rect id="Rectangle-2" x="0" y="0" width="24" height="24"></rect>
                </g>
            </g>
        </g>
        <path d="M11.9299461,1.54397367 C18.2973073,1.54397367 21.0275184,6.44688647 21.0275184,10.557283 C21.0275184,12.5177179 21.0183642,14.9310325 21.0087878,17.0502739 C21.0083113,17.1557314 21.0079255,17.2409955 21.0076175,17.3101316 L21.0067131,17.5261023 C21.0066612,17.5410523 21.0066239,17.5534948 21.0065996,17.5639381 L21.0066871,17.6176701 C21.0067261,17.6206918 21.0067731,17.6232389 21.0068265,17.6258194 L21.0076759,17.6909194 C21.0077553,17.7018992 21.0078347,17.7149452 21.0079125,17.7305658 L21.0086646,18.0741104 C21.0087424,18.1628048 21.0087878,18.2699282 21.0087878,18.3995459 C21.0087878,19.2468139 20.77724,20.1614587 19.908171,20.8625721 C19.3812347,21.2876731 18.0671789,21.7442976 17.0548061,21.7442976 C17.7740175,20.7435047 18.074528,20.7435047 18.2518198,19.9845099 C18.4291116,19.2255151 18.074528,18.75 17.4617905,18.75 C16.849053,18.75 16.1818378,19.2445658 15.5063168,19.9845099 C14.7604361,20.8015237 13.4749913,21.7442976 12.5541786,21.7442976 C11.6456442,21.7442976 12.7433421,20.7502874 12.7433421,19.9845099 C12.7433421,19.2187324 12.3634471,18.75 11.5724934,18.75 C10.7815398,18.75 10.5858251,19.4364611 9.91899292,20.2442976 C9.25216069,21.0521342 8.46,21.7442976 7.28342994,21.7442976 C6.10685987,21.7442976 7.47521771,20.9732427 7.55343393,19.9845099 C7.59678872,19.4364611 7.59678872,18.75 6.66266994,18.75 C5.73129927,18.75 5.17803306,19.5807078 4.6267821,20.2442976 C4.00304832,20.9951415 3.30956388,21.375 1.78270399,21.375 C2.40648486,20.4932745 2.08814236,20.9548149 2.6362088,19.9845099 C2.99733829,19.3451609 3.00844573,18.7140819 3.00844573,18 L3.00771272,17.3738173 C3.0076617,17.362536 3.00761107,17.3526159 3.00756197,17.3435054 L3.00770006,16.7615098 C3.00789338,16.6653607 3.00813887,16.5503875 3.00844573,16.4121779 C3.01015712,15.6413734 3.01118394,14.8509316 3.01180004,14.0596901 L3.01268996,11.7024044 C3.01272419,11.3154029 3.01272419,10.9329108 3.01272419,10.557283 C3.01272419,6.59272982 5.56258483,1.54397367 11.9299461,1.54397367 Z M9.95989699,8.35430322 L8.80742414,8.35430322 C8.53128176,8.35430322 8.30742414,8.57816085 8.30742414,8.85430322 L8.30742414,8.85430322 L8.30742414,11.9400639 C8.30742414,12.2162063 8.53128176,12.4400639 8.80742414,12.4400639 L8.80742414,12.4400639 L9.95989699,12.4400639 C10.2360394,12.4400639 10.459897,12.2162063 10.459897,11.9400639 L10.459897,11.9400639 L10.459897,8.85430322 C10.459897,8.57816085 10.2360394,8.35430322 9.95989699,8.35430322 L9.95989699,8.35430322 Z M15.7312221,8.35430322 L14.5787492,8.35430322 C14.3026068,8.35430322 14.0787492,8.57816085 14.0787492,8.85430322 L14.0787492,8.85430322 L14.0787492,11.8460459 C14.0787492,12.1221883 14.3026068,12.3460459 14.5787492,12.3460459 L14.5787492,12.3460459 L15.7312221,12.3460459 C16.0073644,12.3460459 16.2312221,12.1221883 16.2312221,11.8460459 L16.2312221,11.8460459 L16.2312221,8.85430322 C16.2312221,8.57816085 16.0073644,8.35430322 15.7312221,8.35430322 L15.7312221,8.35430322 Z" id="Combined-Shape" fill="#FFFFFF" fill-rule="nonzero"></path>
    </g>
</svg>