<?xml version="1.0" encoding="UTF-8"?>
<svg width="24px" height="24px" viewBox="0 0 24 24" version="1.1" xmlns="http://www.w3.org/2000/svg" xmlns:xlink="http://www.w3.org/1999/xlink">
    <title>icon / Physics / PhysX / PhysicsConstraint - box</title>
    <defs>
        <linearGradient x1="50%" y1="0%" x2="50%" y2="100%" id="linearGradient-1">
            <stop stop-color="#ADADAD" stop-opacity="0" offset="0%"></stop>
            <stop stop-color="#9D9D9D" offset="100%"></stop>
        </linearGradient>
        <path d="M20.924815,0 C23.1021676,0 23.9566542,1.77846722 23.9566542,3.01865122 C23.9566542,4.25883521 23.9566542,18.7815894 23.9566542,20.6420628 C23.9566542,22.3929727 22.7281352,23.9566542 20.924815,23.9566542 C19.1214948,23.9566542 4.64929841,23.9566542 2.80929064,23.9566542 C1.38661643,23.9566542 0,22.5147712 0,21.1586662 C0,19.8025612 0,4.03532882 0,2.67255351 C0,1.3097782 1.36539793,0 2.60955829,0 C3.85371865,0 18.9601214,0 20.924815,0 Z" id="path-2"></path>
    </defs>
    <g id="icon-/-Physics-/-PhysX-/-PhysicsConstraint---box" stroke="none" stroke-width="1" fill="none" fill-rule="evenodd">
        <g id="icon/general/color/-box-template">
            <mask id="mask-3" fill="white">
                <use xlink:href="#path-2"></use>
            </mask>
            <use id="Path-3" fill="url(#linearGradient-1)" xlink:href="#path-2"></use>
            <g id="Group" mask="url(#mask-3)" fill="#DD7F6D">
                <g id="icon/color/AI" style="mix-blend-mode: multiply;">
                    <rect id="Rectangle-2" x="0" y="0" width="24" height="24"></rect>
                </g>
            </g>
        </g>
        <path d="M8.64922765,13.850432 C8.82859372,14.2018836 8.97089521,14.5546589 9.17673598,14.8650747 C9.38059114,15.1708575 9.64930931,15.432957 10.015322,15.8625089 C8.32954569,15.8115451 6.78143782,15.8916311 5.27039453,15.687114 C3.34303664,15.4263383 2.00076953,13.6737134 2.08350296,11.8343839 C2.16756012,9.96593216 3.60844547,8.35428502 5.55367378,8.22786834 C7.4439671,8.10476101 9.35477831,8.10807034 11.2450716,8.23382515 C13.075135,8.35627062 14.527934,9.91364463 14.6808253,11.639133 C14.747674,12.3929999 14.4491718,12.8635877 13.8501817,12.951616 C13.2458968,13.0396444 12.8567188,12.6901784 12.7051511,11.9230741 C12.5105621,10.9395391 11.9909962,10.2981896 11.0226842,10.2485495 C9.25682193,10.1572118 7.48103168,10.1499313 5.71384569,10.2280317 C4.74685741,10.271053 4.10616976,11.0719126 4.08829934,11.938297 C4.06910518,12.8364511 4.70714537,13.6015698 5.7178169,13.7187204 C6.6702441,13.8292522 7.63657052,13.8107199 8.64922765,13.850432 Z M14.2608705,8.27678034 C15.5614399,8.24434884 16.9070164,8.1192559 18.2400173,8.20000373 C20.3765253,8.328406 21.9358849,10.0148442 21.9201204,12.0136837 C21.905439,13.9807537 20.3619642,15.6380697 18.2519309,15.7558821 C16.459594,15.8564859 14.6520341,15.8545003 12.8596972,15.745954 C10.9376342,15.6294654 9.4636555,14.0892999 9.31076413,12.2777688 C9.256491,11.6317862 9.48086405,11.1770833 10.1294941,11.0275013 C10.6900958,10.8984371 11.1361944,11.2823202 11.2824671,11.9594106 C11.5419192,13.1600381 12.1270099,13.7398339 13.3468316,13.7841791 C14.8903064,13.8410996 16.4384142,13.8338191 17.9825509,13.7815316 C19.1090492,13.7431433 19.8933621,12.9667728 19.9105707,12.0176549 C19.9284411,11.0414005 19.224876,10.315332 18.0513851,10.2021526 C17.2975181,10.1286854 16.5323994,10.1829585 15.7738994,10.1432464 C15.5852672,10.1333184 15.3317719,10.0280815 15.2331537,9.88180881 C14.8697885,9.34768181 14.5587108,8.77847584 14.2608705,8.27678034 Z" id="Shape" fill="#FFFFFF"></path>
    </g>
</svg>