<?xml version="1.0" encoding="UTF-8"?>
<svg width="24px" height="24px" viewBox="0 0 24 24" version="1.1" xmlns="http://www.w3.org/2000/svg" xmlns:xlink="http://www.w3.org/1999/xlink">
    <title>icon / Physics  / PhysX / ragdoll - box</title>
    <defs>
        <linearGradient x1="50%" y1="0%" x2="50%" y2="100%" id="linearGradient-1">
            <stop stop-color="#ADADAD" stop-opacity="0" offset="0%"></stop>
            <stop stop-color="#9D9D9D" offset="100%"></stop>
        </linearGradient>
        <path d="M20.924815,0 C23.1021676,0 23.9566542,1.77846722 23.9566542,3.01865122 C23.9566542,4.25883521 23.9566542,18.7815894 23.9566542,20.6420628 C23.9566542,22.3929727 22.7281352,23.9566542 20.924815,23.9566542 C19.1214948,23.9566542 4.64929841,23.9566542 2.80929064,23.9566542 C1.38661643,23.9566542 0,22.5147712 0,21.1586662 C0,19.8025612 0,4.03532882 0,2.67255351 C0,1.3097782 1.36539793,0 2.60955829,0 C3.85371865,0 18.9601214,0 20.924815,0 Z" id="path-2"></path>
    </defs>
    <g id="icon-/-Physics--/-PhysX-/-ragdoll---box" stroke="none" stroke-width="1" fill="none" fill-rule="evenodd">
        <g id="icon/general/color/-box-template">
            <mask id="mask-3" fill="white">
                <use xlink:href="#path-2"></use>
            </mask>
            <use id="Path-3" fill="url(#linearGradient-1)" xlink:href="#path-2"></use>
            <g id="Group" mask="url(#mask-3)" fill="#DD7F6D">
                <g id="icon/color/AI" style="mix-blend-mode: multiply;">
                    <rect id="Rectangle-2" x="0" y="0" width="24" height="24"></rect>
                </g>
            </g>
        </g>
        <path d="M11.8480332,6.39683902 L9.34536997,7.30773395 L9.34536997,15.1456379 L10.4834726,15.8790622 L14.3629618,17.9906933 L16.7337828,17.5833364 L17.7664808,15.8790622 L17.7664808,8.58434379 L11.8480332,6.39683902 Z M18.8912,8.8798081 L18.8912,14.2867823 L20.4881928,15.1884775 L18.08798,19.4236113 L14.3173821,19.9400493 L13.0576372,22.6306649 L5.65749546,22.6306649 L9.33128484,17.2716353 L7.7728097,16.2555343 L4.57245497,18.3184106 L3.54439439,16.6574545 L4.57245497,16.040176 L4.57245497,9.04493294 L4.237333,9.16690736 L3.51180719,7.17354158 L8.74690658,5.26812123 L3.51180719,3.36270088 L4.237333,1.3693351 L11.8480332,4.13940344 L19.6921966,1.3693351 L20.4821716,3.36270088 L14.9491599,5.26812123 L20.4881928,7.17354158 L19.8243289,9.16690736 L18.8912,8.8798081 Z M8.20737156,7.70511516 L5.76528005,8.64195487 L5.76528005,15.4875756 L8.20737156,13.9411036 L8.20737156,7.70511516 Z M13.0576372,16.241668 C11.886078,16.241668 10.9363416,15.2919316 10.9363416,14.1203724 C10.9363416,12.9488133 11.886078,11.9990769 13.0576372,11.9990769 C14.2291964,11.9990769 15.1789328,12.9488133 15.1789328,14.1203724 C15.1789328,15.2919316 14.2291964,16.241668 13.0576372,16.241668 Z" id="Shape" fill="#FFFFFF"></path>
    </g>
</svg>