<?xml version="1.0" encoding="UTF-8"?>
<svg width="24px" height="24px" viewBox="0 0 24 24" version="1.1" xmlns="http://www.w3.org/2000/svg" xmlns:xlink="http://www.w3.org/1999/xlink">
    <title>icon / Rendering / PointLight - box</title>
    <defs>
        <linearGradient x1="50%" y1="0%" x2="50%" y2="100%" id="linearGradient-1">
            <stop stop-color="#ADADAD" stop-opacity="0" offset="0%"></stop>
            <stop stop-color="#9D9D9D" offset="100%"></stop>
        </linearGradient>
        <path d="M20.924815,0 C23.1021676,0 23.9566542,1.77846722 23.9566542,3.01865122 C23.9566542,4.25883521 23.9566542,18.7815894 23.9566542,20.6420628 C23.9566542,22.3929727 22.7281352,23.9566542 20.924815,23.9566542 C19.1214948,23.9566542 4.64929841,23.9566542 2.80929064,23.9566542 C1.38661643,23.9566542 0,22.5147712 0,21.1586662 C0,19.8025612 0,4.03532882 0,2.67255351 C0,1.3097782 1.36539793,0 2.60955829,0 C3.85371865,0 18.9601214,0 20.924815,0 Z" id="path-2"></path>
    </defs>
    <g id="icon-/-Rendering-/-PointLight---box" stroke="none" stroke-width="1" fill="none" fill-rule="evenodd">
        <g id="icon/general/color/-box-template">
            <mask id="mask-3" fill="white">
                <use xlink:href="#path-2"></use>
            </mask>
            <use id="Path-3" fill="url(#linearGradient-1)" xlink:href="#path-2"></use>
            <g id="Group" mask="url(#mask-3)" fill="#B29EDF">
                <g id="icon/color/AI" style="mix-blend-mode: multiply;">
                    <rect id="Rectangle-2" x="0" y="-0.00055502734" width="24" height="24"></rect>
                </g>
            </g>
        </g>
        <path d="M11.0039744,20.4705948 C11.5393978,21.1503288 13.4649954,21.1240649 13.8493579,20.4705948 L11.0039744,20.4705948 Z M12.4098795,18.9471874 C12.8523277,18.9471874 13.2948542,18.9522206 13.7372241,18.9438844 C13.8589659,18.941525 14.0228008,19.0217422 14.031329,18.6233302 C14.0400136,18.2162672 13.8775088,18.2727339 13.7527939,18.2719474 C12.8678975,18.2672288 11.9829228,18.2675433 11.0980264,18.2713183 C10.9715903,18.2719474 10.8095548,18.2255473 10.8223862,18.6296217 C10.8348264,19.0218995 10.9994438,18.9401094 11.1214984,18.9424688 C11.5508805,18.9506478 11.9804191,18.9456145 12.4098795,18.9471874 L12.4098795,18.9471874 Z M12.3797874,20.0090599 C12.8486026,20.0090599 13.3174177,20.0104378 13.7861546,20.0079576 C13.9060968,20.0074065 14.0347237,20.0052019 14.033173,19.7053785 C14.0316723,19.4032128 13.9001506,19.4123067 13.7822426,19.4120312 C12.8838106,19.4096888 11.9852222,19.4089999 11.086712,19.4112044 C10.9719336,19.41148 10.8321184,19.3802025 10.8209301,19.6778212 C10.8080204,20.0246298 10.9597281,20.0071309 11.090624,20.0080954 C11.5203973,20.0109889 11.9500923,20.0091977 12.3797874,20.0090599 L12.3797874,20.0090599 Z M13.2607657,13.4947637 C12.8423777,14.33615 12.9912741,15.5980916 12.9993731,16.7900821 C13.0002814,16.9251159 13.0659817,16.9582688 13.1924623,16.9452498 C13.596201,16.9036951 14.1723547,16.6033321 14.2230681,16.1863474 C14.3123841,15.4519879 14.5085766,14.7623622 14.9058059,14.1261747 C15.1081294,13.8022149 15.4106261,13.4539499 15.7053802,13.1295359 C16.2802575,12.5331621 16.3863751,11.6125545 16.282181,11.1194792 C16.1343075,10.4197004 15.8025237,9.83930799 15.3809974,9.26465773 C14.5181894,8.08848671 13.3847841,7.39764992 11.9494452,7.51746964 C10.1519223,7.66756599 8.93608888,8.752453 8.22519383,10.380654 C7.93143491,11.0536276 7.82338977,11.8171831 8.09064542,12.4952166 C8.27274784,12.7688913 8.44538055,13.0085133 8.64543332,13.2286243 C9.38138228,14.0383725 9.92726975,14.9343334 10.0408828,16.0513893 C10.097273,16.606057 10.243509,16.7726541 10.7758477,16.9037519 C11.0066313,16.9606719 10.9940011,16.9911189 11.2299317,17.0267696 C11.4405056,17.0586358 11.5379963,17.0083766 11.5475335,16.75428 C11.5882555,15.6633377 11.4969715,14.6108467 11.0690872,13.5781111 C10.865931,13.0877813 10.6415761,12.4372614 10.5233511,12.1323409 C10.4051261,11.8274204 10.3156207,11.6908656 10.6150333,11.5694299 C10.9144459,11.4479943 11.0056578,11.7906463 11.0802895,12.0394533 C11.0986069,12.2095322 11.1946594,12.2732645 11.3625433,12.2645599 C11.5379206,12.2554013 12.013591,12.2747973 12.1886866,12.2747973 C12.6309555,12.2747973 12.5785397,12.2645599 13.0031142,12.2645599 C13.1924623,12.2747973 13.2726196,12.0804781 13.3015338,12.0270399 C13.4098484,11.8264572 13.3755601,11.4516327 13.7381227,11.5354232 C14.1248308,11.624815 13.9705714,11.9055741 13.8822394,12.1594244 C13.7618604,12.4690754 13.6791537,12.6533774 13.2607657,13.4947637 Z M13.059965,12.9584771 C13.1175824,12.7896262 13.1342274,12.6776725 12.8985565,12.6807935 C12.4208926,12.6871154 11.9430688,12.6852748 11.465405,12.6815937 C11.2670253,12.6800733 11.2473679,12.7651457 11.3079976,12.9322292 C11.465405,13.3660132 11.770323,14.3349715 11.9334121,14.7679018 C11.9334121,15.4766571 11.9554987,15.6348818 11.9334121,16.3511774 C11.9260499,16.5900493 11.9317316,16.7591709 11.9334121,16.9983629 C11.9343724,17.1280819 11.9744652,17.3020965 12.1866091,17.3078583 C12.415398,17.3141002 12.4692272,17.1912714 12.4683469,17.0392256 C12.4637856,16.2821977 12.4609847,15.5250098 12.4576237,14.7679018 C12.6576839,14.1645202 12.8543832,13.5599381 13.059965,12.9584771 Z M17.0110834,10.4301747 C17.1345606,10.9103993 17.1209393,11.2191923 17.0895699,11.7117406 C16.9279743,13.2144364 16.112733,13.7535753 15.5561654,14.6554468 C15.1950967,15.240503 14.9633469,15.8726933 14.8982874,16.562661 C14.8592356,16.977906 14.6707695,17.3160081 14.3141021,17.5263114 C14.0276159,17.6951623 13.8810512,17.659675 13.5698375,17.7839524 C13.7525325,17.7839524 13.9012002,17.815694 14.0804475,17.868768 C14.3564163,17.9504805 14.6827562,18.109812 14.5827261,18.6695005 C14.4963,19.1523659 14.4265891,18.9822162 14.5827261,19.4085753 C14.6799129,19.673961 14.5116974,20.4812898 14.0804475,20.9316398 C13.6491977,21.3819899 13.2534311,21.4608118 12.9315742,21.4766565 C12.3888508,21.5035446 11.8342986,21.5614912 11.3081402,21.3752751 C10.5694378,21.1139964 10.101697,20.2008415 10.2788703,19.4271686 C10.3137608,19.2748828 10.274549,19.1440434 10.2396585,19 C10.101857,18.4315889 10.4387848,17.9814882 10.9349341,17.8158383 C10.5318528,17.7075657 10.1458966,17.6426662 9.83916424,17.38971 C9.63086153,17.2178983 9.4278404,17.0252803 9.40751428,16.7446358 C9.3265299,15.6241385 8.8586658,14.593961 8.16377984,13.8166343 C7.76979732,13.37591 7.49372655,13 7.25810683,12.2575729 C6.6568058,10.4026945 7.85144581,8.63443412 9.21073504,7.62597051 C12.1994748,5.40874298 16.1994791,7.27202395 17.0110834,10.4301747 Z M21.2967102,11.0432284 C21.5148559,11.0458692 21.654818,11.2283241 21.6396935,11.4563128 C21.6252891,11.6753387 21.5081338,11.832586 21.2600592,11.8329061 C20.3166551,11.8337864 19.3732511,11.8365873 18.4298471,11.8313057 C18.0502928,11.829145 18.0241516,11.7207879 18.0339946,11.4371825 C18.0438376,11.1535771 18.1457663,11.0432284 18.3706075,11.0432284 C19.36705,11.0432284 20.3012105,11.0310647 21.2967102,11.0432284 Z M2.81444431,11.0548988 C3.85907881,11.0568194 4.56656903,11.0568194 5.69165542,11.1146174 C5.89611697,11.1146174 6.0342204,11.2710548 6.00509137,11.5007759 C5.97596234,11.730497 5.75573959,11.8351247 5.5327827,11.8344341 C4.62666687,11.8316273 3.7206154,11.834194 2.81444431,11.834194 C2.62377423,11.834194 2.54911919,11.8220304 2.47218127,11.747768 C2.39524335,11.6735056 2.36086775,11.3551863 2.46689968,11.1441627 C2.53994244,11.0398749 2.74050205,11.0548188 2.81444431,11.0548988 Z M20.4365886,4.47417829 C20.5631867,4.54291898 20.627366,4.65543286 20.6171229,4.84276926 C20.5991975,4.88030056 20.5814322,4.96624643 20.5296566,5.01866221 C19.8412093,5.7158321 19.1502813,6.4106813 18.4542317,7.1002489 C18.2899423,7.26293788 18.092923,7.28454439 17.9255926,7.10585059 C17.757382,6.9261965 17.8048362,6.7388601 17.9664049,6.57657124 C18.6327655,5.90692964 19.3012868,5.23936866 19.9689278,4.57092742 C20.1037684,4.4360068 20.2574946,4.37686899 20.4365886,4.47417829 Z M4.75616242,4.5290507 C5.51255014,5.21325669 6.22180367,5.94587725 6.92177441,6.68714042 C6.96282677,6.73067353 6.96866853,6.80741663 6.98083219,6.8408667 C6.98043207,7.02028072 6.91065106,7.13047389 6.78189229,7.19233251 C6.59991751,7.27971882 6.45155284,7.21097813 6.31751249,7.07597748 C5.85897444,6.61391838 5.3971554,6.15506023 4.93685682,5.6946016 C4.7208718,5.47853655 4.49976523,5.2671129 4.29194266,5.04336554 C4.14517848,4.88523793 4.14229761,4.70582392 4.2910624,4.54313494 C4.43670625,4.38372695 4.62108175,4.40685391 4.75616242,4.5290507 Z M12.381869,1.32250507 C12.6513101,1.34379148 12.8546513,1.513764 12.8546513,1.78536442 C12.8546513,2.6733431 12.7846302,4.59108912 12.7508601,4.67367398 C12.6693955,4.87293397 12.5000646,4.93871378 12.2980037,4.91478657 C12.0927419,4.89037922 12.0012744,4.75041709 12.0005542,4.55755902 C11.9971932,3.58814717 11.9995139,2.61881534 11.9988737,1.64940349 C11.9987136,1.40653037 12.1484387,1.33346837 12.381869,1.32250507 Z" id="Combined-Shape" fill="#FFFFFF"></path>
    </g>
</svg>