<?xml version="1.0" encoding="UTF-8"?>
<svg width="24px" height="24px" viewBox="0 0 24 24" version="1.1" xmlns="http://www.w3.org/2000/svg" xmlns:xlink="http://www.w3.org/1999/xlink">
    <title>icon / Gameplay / RandomTimedSpawner - box</title>
    <defs>
        <linearGradient x1="50%" y1="0%" x2="50%" y2="100%" id="linearGradient-1">
            <stop stop-color="#ADADAD" stop-opacity="0" offset="0%"></stop>
            <stop stop-color="#9D9D9D" offset="100%"></stop>
        </linearGradient>
        <path d="M20.924815,0 C23.1021676,0 23.9566542,1.77846722 23.9566542,3.01865122 C23.9566542,4.25883521 23.9566542,18.7815894 23.9566542,20.6420628 C23.9566542,22.3929727 22.7281352,23.9566542 20.924815,23.9566542 C19.1214948,23.9566542 4.64929841,23.9566542 2.80929064,23.9566542 C1.38661643,23.9566542 0,22.5147712 0,21.1586662 C0,19.8025612 0,4.03532882 0,2.67255351 C0,1.3097782 1.36539793,0 2.60955829,0 C3.85371865,0 18.9601214,0 20.924815,0 Z" id="path-2"></path>
    </defs>
    <g id="icon-/-Gameplay-/-RandomTimedSpawner---box" stroke="none" stroke-width="1" fill="none" fill-rule="evenodd">
        <g id="icon/general/color/-box-template">
            <mask id="mask-3" fill="white">
                <use xlink:href="#path-2"></use>
            </mask>
            <use id="Path-3" fill="url(#linearGradient-1)" xlink:href="#path-2"></use>
            <g id="Group" mask="url(#mask-3)" fill="#65C98C">
                <g id="icon/color/AI" style="mix-blend-mode: multiply;">
                    <rect id="Rectangle-2" x="0" y="0" width="24" height="24"></rect>
                </g>
            </g>
        </g>
        <path d="M11.4717187,1.26147319 C15.9746763,1.26147319 19.6250446,10.0571346 19.6250446,14.5690256 C19.6250446,19.0809165 15.9746763,22.7385268 11.4717187,22.7385268 C6.96876116,22.7385268 3.31839282,19.0809165 3.31839282,14.5690256 C3.31839282,10.0571346 6.96876116,1.26147319 11.4717187,1.26147319 Z M15.732635,8.81821428 L15.7323928,10.2574732 L13.0488627,10.2575935 L10.8383928,12.5534732 L8.77491792,10.4091071 L5.50021567,10.4091071 C5.17385404,10.4091071 4.90928568,10.6641948 4.90928568,10.9788614 C4.90928568,11.293528 5.17385404,11.5486157 5.50021567,11.5486157 L5.50021567,11.5486157 L8.25921963,11.5486157 L10.0323928,13.3914732 L8.25921963,15.2354468 L5.50021567,15.2354468 C5.17385404,15.2354468 4.90928568,15.4905345 4.90928568,15.8052011 C4.90928568,16.1198677 5.17385404,16.3749554 5.50021567,16.3749554 L8.77491792,16.3749554 L10.8383928,14.2294732 L13.0488627,16.526469 L15.7323928,16.5254732 L15.732635,17.9658482 L18.0341518,15.9867018 L15.732635,14.127035 L15.7323928,15.3864732 L13.564561,15.3869604 L11.6443928,13.3914732 L13.564561,11.3971021 L15.7323928,11.3964732 L15.732635,12.6570275 L18.0341518,10.7973608 L15.732635,8.81821428 Z" id="Icon" fill="#FFFFFF"></path>
    </g>
</svg>