<?xml version="1.0" encoding="UTF-8"?>
<svg width="24px" height="24px" viewBox="0 0 24 24" version="1.1" xmlns="http://www.w3.org/2000/svg" xmlns:xlink="http://www.w3.org/1999/xlink">
    <title>icon / Gameplay / SimpleState - box</title>
    <defs>
        <linearGradient x1="50%" y1="0%" x2="50%" y2="100%" id="linearGradient-1">
            <stop stop-color="#ADADAD" stop-opacity="0" offset="0%"></stop>
            <stop stop-color="#9D9D9D" offset="100%"></stop>
        </linearGradient>
        <path d="M20.924815,0 C23.1021676,0 23.9566542,1.77846722 23.9566542,3.01865122 C23.9566542,4.25883521 23.9566542,18.7815894 23.9566542,20.6420628 C23.9566542,22.3929727 22.7281352,23.9566542 20.924815,23.9566542 C19.1214948,23.9566542 4.64929841,23.9566542 2.80929064,23.9566542 C1.38661643,23.9566542 0,22.5147712 0,21.1586662 C0,19.8025612 0,4.03532882 0,2.67255351 C0,1.3097782 1.36539793,0 2.60955829,0 C3.85371865,0 18.9601214,0 20.924815,0 Z" id="path-2"></path>
    </defs>
    <g id="icon-/-Gameplay-/-SimpleState---box" stroke="none" stroke-width="1" fill="none" fill-rule="evenodd">
        <g id="icon/general/color/-box-template">
            <mask id="mask-3" fill="white">
                <use xlink:href="#path-2"></use>
            </mask>
            <use id="Path-3" fill="url(#linearGradient-1)" xlink:href="#path-2"></use>
            <g id="Group" mask="url(#mask-3)" fill="#65C98C">
                <g id="icon/color/AI" style="mix-blend-mode: multiply;">
                    <rect id="Rectangle-2" x="0" y="0" width="24" height="24"></rect>
                </g>
            </g>
        </g>
        <path d="M2.39750293,6.23957535 C2.39750293,6.9288074 2.95867953,7.48957535 3.64750293,7.48957535 C4.33632633,7.48957535 4.89750293,6.9288074 4.89750293,6.23957535 C4.89750293,5.5503433 4.33632633,4.98957535 3.64750293,4.98957535 C2.95867953,4.98957535 2.39750293,5.5503433 2.39750293,6.23957535 Z M5.64750293,6.23957535 C5.64750293,7.34226888 4.75069712,8.23957535 3.64750293,8.23957535 C2.54430874,8.23957535 1.64750293,7.34226888 1.64750293,6.23957535 C1.64750293,5.13688182 2.54430874,4.23957535 3.64750293,4.23957535 C4.75069712,4.23957535 5.64750293,5.13688182 5.64750293,6.23957535 Z M21.8747157,6.23957535 C21.8747157,7.34226888 20.9779099,8.23957535 19.8747157,8.23957535 C18.7715215,8.23957535 17.8747157,7.34226888 17.8747157,6.23957535 C17.8747157,5.13688182 18.7715215,4.23957535 19.8747157,4.23957535 C20.9779099,4.23957535 21.8747157,5.13688182 21.8747157,6.23957535 Z M18.6247157,6.23957535 C18.6247157,6.9288074 19.1858923,7.48957535 19.8747157,7.48957535 C20.5635391,7.48957535 21.1247157,6.9288074 21.1247157,6.23957535 C21.1247157,5.5503433 20.5635391,4.98957535 19.8747157,4.98957535 C19.1858923,4.98957535 18.6247157,5.5503433 18.6247157,6.23957535 Z M17.2405032,6.64341836 L11.8632089,15.7085814 L6.44979209,6.64341836 L17.2405032,6.64341836 Z M14.0504317,18.7526036 C14.0504317,19.8552971 13.1536259,20.7526036 12.0504317,20.7526036 C10.9472375,20.7526036 10.0504317,19.8552971 10.0504317,18.7526036 C10.0504317,17.64991 10.9472375,16.7526036 12.0504317,16.7526036 C13.1536259,16.7526036 14.0504317,17.64991 14.0504317,18.7526036 Z M10.8004317,18.7526036 C10.8004317,19.4418356 11.3616083,20.0026036 12.0504317,20.0026036 C12.7392551,20.0026036 13.3004317,19.4418356 13.3004317,18.7526036 C13.3004317,18.0633715 12.7392551,17.5026036 12.0504317,17.5026036 C11.3616083,17.5026036 10.8004317,18.0633715 10.8004317,18.7526036 Z" id="Combined-Shape" fill="#FFFFFF" fill-rule="nonzero"></path>
    </g>
</svg>