<?xml version="1.0" encoding="UTF-8"?>
<svg width="24px" height="24px" viewBox="0 0 24 24" version="1.1" xmlns="http://www.w3.org/2000/svg" xmlns:xlink="http://www.w3.org/1999/xlink">
    <title>icon / Gameplay / Spawner - box</title>
    <defs>
        <linearGradient x1="50%" y1="0%" x2="50%" y2="100%" id="linearGradient-1">
            <stop stop-color="#ADADAD" stop-opacity="0" offset="0%"></stop>
            <stop stop-color="#9D9D9D" offset="100%"></stop>
        </linearGradient>
        <path d="M20.924815,0 C23.1021676,0 23.9566542,1.77846722 23.9566542,3.01865122 C23.9566542,4.25883521 23.9566542,18.7815894 23.9566542,20.6420628 C23.9566542,22.3929727 22.7281352,23.9566542 20.924815,23.9566542 C19.1214948,23.9566542 4.64929841,23.9566542 2.80929064,23.9566542 C1.38661643,23.9566542 0,22.5147712 0,21.1586662 C0,19.8025612 0,4.03532882 0,2.67255351 C0,1.3097782 1.36539793,0 2.60955829,0 C3.85371865,0 18.9601214,0 20.924815,0 Z" id="path-2"></path>
    </defs>
    <g id="icon-/-Gameplay-/-Spawner---box" stroke="none" stroke-width="1" fill="none" fill-rule="evenodd">
        <g id="icon/general/color/-box-template">
            <mask id="mask-3" fill="white">
                <use xlink:href="#path-2"></use>
            </mask>
            <use id="Path-3" fill="url(#linearGradient-1)" xlink:href="#path-2"></use>
            <g id="Group" mask="url(#mask-3)" fill="#65C98C">
                <g id="icon/color/AI" style="mix-blend-mode: multiply;">
                    <rect id="Rectangle-2" x="0" y="0" width="24" height="24"></rect>
                </g>
            </g>
        </g>
        <path d="M18.4882988,9.38492584 C19.1320276,11.2084531 19.5,13.031262 19.5,14.4222488 C19.5,18.6763608 16.058189,22.125 11.8125,22.125 C7.56681099,22.125 4.125,18.6763608 4.125,14.4222488 C4.125,13.1547199 4.43055184,11.5286207 4.9718788,9.87015258 L8.99000427,13.574806 L12,10.5132013 L14.9996797,13.574806 Z M11.8125,1.875 C14.3034043,1.875 16.5176094,4.72954269 17.9224059,7.94824717 L14.9996797,11.038324 L12,8 L8.99000427,11.038324 L5.69035715,7.97634103 C7.09451301,4.74617164 9.31435097,1.875 11.8125,1.875 Z" id="Combined-Shape" fill="#FFFFFF"></path>
    </g>
</svg>