<?xml version="1.0" encoding="UTF-8"?>
<svg width="24px" height="24px" viewBox="0 0 24 24" version="1.1" xmlns="http://www.w3.org/2000/svg" xmlns:xlink="http://www.w3.org/1999/xlink">
    <title>icon / Shapes / Tube_Shape - box</title>
    <defs>
        <linearGradient x1="50%" y1="0%" x2="50%" y2="100%" id="linearGradient-1">
            <stop stop-color="#ADADAD" stop-opacity="0" offset="0%"></stop>
            <stop stop-color="#9D9D9D" offset="100%"></stop>
        </linearGradient>
        <path d="M20.924815,0 C23.1021676,0 23.9566542,1.77846722 23.9566542,3.01865122 C23.9566542,4.25883521 23.9566542,18.7815894 23.9566542,20.6420628 C23.9566542,22.3929727 22.7281352,23.9566542 20.924815,23.9566542 C19.1214948,23.9566542 4.64929841,23.9566542 2.80929064,23.9566542 C1.38661643,23.9566542 0,22.5147712 0,21.1586662 C0,19.8025612 0,4.03532882 0,2.67255351 C0,1.3097782 1.36539793,0 2.60955829,0 C3.85371865,0 18.9601214,0 20.924815,0 Z" id="path-2"></path>
    </defs>
    <g id="icon-/-Shapes-/-Tube_Shape---box" stroke="none" stroke-width="1" fill="none" fill-rule="evenodd">
        <g id="icon/general/color/-box-template">
            <mask id="mask-3" fill="white">
                <use xlink:href="#path-2"></use>
            </mask>
            <use id="Path-3" fill="url(#linearGradient-1)" xlink:href="#path-2"></use>
            <g id="Group" mask="url(#mask-3)" fill="#5A69A1">
                <g id="icon/color/AI" style="mix-blend-mode: multiply;">
                    <rect id="Rectangle-2" x="0" y="0" width="24" height="24"></rect>
                </g>
            </g>
        </g>
        <path d="M10.1781802,7.93073964 L5.28680804,7.93073964 C4.68484467,7.93073964 4.10047782,8.59720404 3.72130603,9.64798692 L9.37381828,9.64798692 C9.57281877,8.97779752 9.84623869,8.39194211 10.1781802,7.93073964 L10.1781802,7.93073964 Z M12,7.93073964 C11.3980364,7.93073964 10.8136695,8.59720404 10.4344977,9.64798692 L16.08701,9.64798692 C16.2860105,8.97779752 16.5594304,8.39194211 16.8913719,7.93073964 L11.9999997,7.93073964 L12,7.93073964 Z M10.1781802,16.7145504 C9.81241599,16.2063544 9.5177069,15.5468086 9.31532243,14.7898551 L3.65073953,14.7898551 C4.02537972,15.9595973 4.64612743,16.7145504 5.28680828,16.7145504 L10.1781802,16.7145504 L10.1781802,16.7145504 Z M12,16.7145504 L16.8913719,16.7145504 C16.5256077,16.2063544 16.2308986,15.5468086 16.0285141,14.7898551 L10.3639313,14.7898551 C10.7385714,15.9595973 11.3593191,16.7145504 12,16.7145504 Z M9.0971436,13.6918788 C9.03763115,13.2529364 9.00632989,12.7939129 9.00632989,12.322645 C9.00632989,11.7765811 9.04835542,11.2469565 9.12759923,10.7459633 L3.43004281,10.7459633 C3.34093831,11.2330699 3.29102821,11.7640026 3.29102821,12.322645 C3.29102821,12.8029542 3.32792277,13.2627798 3.39490136,13.6918788 L9.0971436,13.6918788 L9.0971436,13.6918788 Z M10.1080931,13.6918788 L15.8103353,13.6918788 C15.7508229,13.2529364 15.7195216,12.7939129 15.7195216,12.322645 C15.7195216,11.7765811 15.7615471,11.2469565 15.8407909,10.7459633 L10.1432345,10.7459633 C10.05413,11.2330699 10.0042199,11.7640026 10.0042199,12.322645 C10.0042199,12.8029542 10.0411145,13.2627798 10.1080931,13.6918788 L10.1080931,13.6918788 Z M4.78786327,6.90400294 L19.2121367,6.90400294 C20.682433,7.33128057 21.7068618,9.62659575 21.7068618,12.322645 C21.7068618,15.2360187 20.5106213,17.6814493 18.8481934,17.8074312 L18.8481934,17.8125268 L4.78786327,17.7412871 C3.31756701,17.3140095 2.29313818,15.0186943 2.29313818,12.322645 C2.29313818,9.62659575 3.31756701,7.33128057 4.78786327,6.90400294 Z M18.7131917,16.7145504 C19.736508,16.7145504 20.7089718,14.7885506 20.7089718,12.322645 C20.7089718,9.85673945 19.736508,7.93073964 18.7131917,7.93073964 C17.6898754,7.93073964 16.7174116,9.85673945 16.7174116,12.322645 C16.7174116,14.7885506 17.6898754,16.7145504 18.7131917,16.7145504 Z" id="Shape" fill="#FFFFFF" fill-rule="nonzero"></path>
    </g>
</svg>