<?xml version="1.0" encoding="UTF-8"?>
<svg width="24px" height="24px" viewBox="0 0 24 24" version="1.1" xmlns="http://www.w3.org/2000/svg" xmlns:xlink="http://www.w3.org/1999/xlink">
    <title>icon / UI / UiCanvasOnMesh - box</title>
    <defs>
        <linearGradient x1="50%" y1="0%" x2="50%" y2="100%" id="linearGradient-1">
            <stop stop-color="#ADADAD" stop-opacity="0" offset="0%"></stop>
            <stop stop-color="#9D9D9D" offset="100%"></stop>
        </linearGradient>
        <path d="M20.924815,0 C23.1021676,0 23.9566542,1.77846722 23.9566542,3.01865122 C23.9566542,4.25883521 23.9566542,18.7815894 23.9566542,20.6420628 C23.9566542,22.3929727 22.7281352,23.9566542 20.924815,23.9566542 C19.1214948,23.9566542 4.64929841,23.9566542 2.80929064,23.9566542 C1.38661643,23.9566542 0,22.5147712 0,21.1586662 C0,19.8025612 0,4.03532882 0,2.67255351 C0,1.3097782 1.36539793,0 2.60955829,0 C3.85371865,0 18.9601214,0 20.924815,0 Z" id="path-2"></path>
    </defs>
    <g id="icon-/-UI-/-UiCanvasOnMesh---box" stroke="none" stroke-width="1" fill="none" fill-rule="evenodd">
        <g id="icon/general/color/-box-template">
            <mask id="mask-3" fill="white">
                <use xlink:href="#path-2"></use>
            </mask>
            <use id="Path-3" fill="url(#linearGradient-1)" xlink:href="#path-2"></use>
            <g id="Group" mask="url(#mask-3)" fill="#BD5F8B">
                <g id="icon/color/AI" style="mix-blend-mode: multiply;">
                    <rect id="UI" x="0" y="0" width="24" height="24"></rect>
                </g>
            </g>
        </g>
        <path d="M11.9269111,1.04705679 L21.147179,6.48574709 L21.147179,17.341971 L11.9269111,22.7806613 L2.70664322,17.341971 L2.70664322,6.48574709 L11.9269111,1.04705679 Z M11.9269111,2.35934119 L3.83694144,7.13131095 L3.83694144,16.6964071 L11.9269111,21.4683769 L20.0168807,16.6964071 L20.0168807,7.13131095 L11.9269111,2.35934119 Z M14.7960146,14.6957827 C14.9439007,14.6957827 15.0652597,14.7243614 15.1102889,14.8083267 L16.2651395,16.9617574 C16.306698,17.0392509 16.2856955,17.1886928 16.1143084,17.2581838 C15.9429212,17.3276747 15.7627306,17.2501379 15.7219987,17.1741857 L14.6939169,15.2571387 L9.06971789,15.2571387 L8.04163613,17.1741857 C8.00090418,17.2501379 7.81228528,17.3276747 7.64089817,17.2581838 C7.46951106,17.1886928 7.4569368,17.0392509 7.49849531,16.9617574 L8.65334591,14.8083267 C8.70811089,14.7361015 8.79683596,14.6957827 8.96762013,14.6957827 L14.7960146,14.6957827 Z M14.5551048,15.8271391 C14.7102073,15.8271391 14.8359428,15.9573364 14.8359428,16.1078171 C14.8359428,16.2628313 14.7072142,16.3884951 14.5551048,16.3884951 L9.25044064,16.3884951 C9.0953381,16.3884951 8.96960264,16.2582978 8.96960264,16.1078171 C8.96960264,15.952803 9.09833117,15.8271391 9.25044064,15.8271391 L14.5551048,15.8271391 Z M15.5219129,7.20823716 C16.0741976,7.20823716 16.5219129,7.65595241 16.5219129,8.20823716 L16.5219129,13.1370358 C16.5219129,13.6893206 16.0741976,14.1370358 15.5219129,14.1370358 L8.33190933,14.1370358 C7.77962458,14.1370358 7.33190933,13.6893206 7.33190933,13.1370358 L7.33190933,8.20823716 C7.33190933,7.65595241 7.77962458,7.20823716 8.33190933,7.20823716 L15.5219129,7.20823716 Z M11.8818174,6.04491638 C12.0368316,6.04491638 12.1624954,6.16910872 12.1624954,6.32752295 L12.1624954,6.93809269 L11.6011394,6.93809269 L11.6011394,6.32752295 C11.6011394,6.17144365 11.7313367,6.04491638 11.8818174,6.04491638 Z" id="Combined-Shape" fill="#FFFFFF"></path>
    </g>
</svg>