<?xml version="1.0" encoding="UTF-8"?>
<svg width="24px" height="24px" viewBox="0 0 24 24" version="1.1" xmlns="http://www.w3.org/2000/svg" xmlns:xlink="http://www.w3.org/1999/xlink">
    <title>icon / VR / VRPreview - box</title>
    <defs>
        <linearGradient x1="50%" y1="0%" x2="50%" y2="100%" id="linearGradient-1">
            <stop stop-color="#ADADAD" stop-opacity="0" offset="0%"></stop>
            <stop stop-color="#9D9D9D" offset="100%"></stop>
        </linearGradient>
        <path d="M20.924815,0 C23.1021676,0 23.9566542,1.77846722 23.9566542,3.01865122 C23.9566542,4.25883521 23.9566542,18.7815894 23.9566542,20.6420628 C23.9566542,22.3929727 22.7281352,23.9566542 20.924815,23.9566542 C19.1214948,23.9566542 4.64929841,23.9566542 2.80929064,23.9566542 C1.38661643,23.9566542 0,22.5147712 0,21.1586662 C0,19.8025612 0,4.03532882 0,2.67255351 C0,1.3097782 1.36539793,0 2.60955829,0 C3.85371865,0 18.9601214,0 20.924815,0 Z" id="path-2"></path>
    </defs>
    <g id="icon-/-VR-/-VRPreview---box" stroke="none" stroke-width="1" fill="none" fill-rule="evenodd">
        <g id="icon/general/color/-box-template">
            <mask id="mask-3" fill="white">
                <use xlink:href="#path-2"></use>
            </mask>
            <use id="Path-3" fill="url(#linearGradient-1)" xlink:href="#path-2"></use>
            <g id="Group" mask="url(#mask-3)" fill="#7D5BB6">
                <g id="icon/color/AI" style="mix-blend-mode: multiply;">
                    <rect id="Lights" x="0" y="0" width="24" height="24"></rect>
                </g>
            </g>
        </g>
        <path d="M15.7077452,14.3974798 C19.6128497,14.9078542 22.3870345,16.2241752 22.3870345,17.9436548 C22.3870345,20.1702074 17.7353821,21.7207583 12,21.7207583 C6.26461793,21.7207583 1.61296549,20.1702074 1.61296549,17.9436548 C1.61296549,16.255194 4.28796226,14.9554774 8.08202795,14.4258852 L8.99277132,15.2711402 C5.25154432,15.6794021 2.55724136,16.806685 2.55724136,17.9436548 C2.55724136,19.3676663 6.78368972,20.7764824 12,20.7764824 C17.2163103,20.7764824 21.4427586,19.3676663 21.4427586,17.9436548 C21.4427586,16.785342 18.6463522,15.6370832 14.7954437,15.2489135 L15.7077452,14.3974798 Z M12.8322063,11.5763978 L12.8322063,12.4311569 L14.850272,12.4311569 L14.850272,13.1625386 C13.8176084,14.2180075 13.0716858,14.9755403 12.6125043,15.435137 L12.4441246,15.6030858 C12.2655232,15.7804878 12.1493677,15.8930059 12.095658,15.9406401 C11.8194366,16.1856162 11.4665742,16.245118 11.1852894,15.9358406 C10.9977662,15.7296556 10.1466057,14.8068236 8.631808,13.1673445 L8.631808,12.4311569 L10.6710302,12.4311569 L10.6710302,11.5763978 L12.8322063,11.5763978 Z M5.15496619,2.28495093 L18.3385148,2.28495093 C18.6650005,2.28495093 18.8790257,2.28495093 18.8790257,2.58217943 L18.8790257,3.01297567 L19.6188049,3.01297567 C19.9253151,3.01297567 19.9531797,3.24581991 19.9557128,3.51869095 L19.9559661,8.9377088 C19.9559661,9.494082 19.7929935,10.114419 19.1793605,10.114419 L18.0079756,10.114419 C17.6643532,10.114419 17.4696665,10.9805518 17.1368059,10.9805518 L14.291725,10.9805518 C13.6510748,10.9805518 13.2578451,11.1788833 12.9040466,10.6014467 C12.5502482,10.0240101 12.5192587,9.46054823 12.1955143,9.31461529 C11.8717698,9.16868235 11.6215077,9.16868235 11.3380608,9.31461529 C11.0546139,9.46054823 10.9714044,9.82799628 10.596953,10.3502039 C10.2225017,10.8724116 10.2225017,10.9805518 9.54826979,10.9805518 L6.81741358,10.9805518 C6.18396611,10.9805518 6.359686,10.114419 5.8682708,10.114419 L4.47030929,10.114419 C3.74418012,10.114419 3.52611385,9.62969469 3.52611385,9.16868235 L3.52611385,3.71323478 C3.52611385,3.37928545 3.52973254,3.20508105 3.84387168,3.20508105 L4.47030929,3.20508105 L4.47030929,2.51814508 C4.47030929,2.22143022 4.87065672,2.28495093 5.15496619,2.28495093 Z M16.879185,4.00272595 L16.3443433,4.00311551 C16.2855429,4.00317818 16.2234588,4.00324784 16.1582965,4.00332405 L15.4942715,4.00417579 C15.248924,4.00451115 14.9814197,4.00489415 14.6973056,4.00531335 L14.1085747,4.00619664 C13.5009845,4.00712142 12.8417472,4.00816053 12.1752391,4.00922251 L11.5079508,4.01028872 C10.6193845,4.01171146 9.74418911,4.01312065 8.98755258,4.01429949 L8.44394853,4.01513705 L8.31614996,4.01533056 L8.31614996,4.01533056 L7.73347592,4.01618696 L7.62928346,4.01633378 L7.62928346,4.01633378 L6.91135551,4.01721696 L6.84265483,4.01727245 L6.84265483,4.01727245 L6.7379699,4.01731774 L6.7379699,4.01731774 C6.49683297,4.01731774 6.35003617,4.18487523 6.35003617,4.53388203 C6.35003617,4.71846491 6.2660919,4.93463831 6.09654069,4.98579755 L6.01862979,4.99704685 L5.13266594,4.99704685 C4.68422302,4.99704685 4.61268549,5.25423528 4.61268549,5.50463454 C4.61268549,6.14691948 4.63170859,7.58191213 4.63170859,8.33759815 C4.63170859,8.6585799 4.79971275,9.06102167 5.3168102,9.11687569 L5.44241973,9.1234178 L6.62810005,9.1234178 C7.0448936,9.1234178 6.89366652,9.72460303 7.43092466,9.72460303 C7.99262307,9.72460303 8.7379626,9.71673753 9.30981202,9.71673753 C9.83400731,9.71673753 9.87769025,9.64860373 10.1259562,9.33564902 L10.1992522,9.24409504 C10.225718,9.21146524 10.2490194,9.1825088 10.2697598,9.15653781 L10.3682979,9.03103395 C10.4844912,8.88000627 10.4910119,8.85935771 10.8278223,8.46759812 C11.2769028,7.945252 12.5131865,8.0431303 12.9493111,8.46759812 C13.3854357,8.89206593 13.2501785,8.99951096 13.5502525,9.43247993 C13.8253203,9.82936816 14.1326658,9.76230886 14.6005109,9.74837614 L14.7321807,9.74628199 L15.0930343,9.74450176 C15.517083,9.74045497 15.9681812,9.72988849 16.6181631,9.71673753 C16.864879,9.71174577 17.0299863,9.27698396 17.2626523,9.1683715 L17.3669374,9.14399548 L18.360447,9.14399548 C18.8437243,9.14399548 18.8840065,8.67680442 18.8872954,8.27604889 L18.8873052,8.06189089 C18.884962,7.47563474 18.8685594,6.22821867 18.8685594,5.31959614 C18.8685594,5.17550979 18.8456268,5.05867369 18.6733569,5.03171601 L18.5900153,5.02584807 L17.6856414,5.02584807 C17.4500501,5.02584807 17.2188483,5.04830418 17.2188483,4.88140982 C17.2188483,4.78322441 17.2349576,4.440876 17.2289695,4.27610302 C17.2198705,4.0257283 17.2198705,4.00272595 16.879185,4.00272595 Z" id="Combined-Shape" fill="#FFFFFF" fill-rule="nonzero"></path>
    </g>
</svg>