<?xml version="1.0" encoding="utf-8"?>
<!-- Generator: Adobe Illustrator 24.2.1, SVG Export Plug-In . SVG Version: 6.00 Build 0)  -->
<svg version="1.1" id="Layer_1" xmlns="http://www.w3.org/2000/svg" xmlns:xlink="http://www.w3.org/1999/xlink" x="0px" y="0px"
	 viewBox="0 0 20 20" style="enable-background:new 0 0 20 20;" xml:space="preserve">
<style type="text/css">
	.st0{filter:url(#filter-1);}
	.st1{fill-rule:evenodd;clip-rule:evenodd;fill:#FFFFFF;}
</style>
<filter  id="filter-1">
	<feColorMatrix  in="SourceGraphic" type="matrix" values="0 0 0 0 1.000000 0 0 0 0 1.000000 0 0 0 0 1.000000 0 0 0 1.000000 0">
		</feColorMatrix>
</filter>
<g id="Working-Design-Page-v2">
	<g id="_x32_A---Normal-Mode---Pre-Edit-Mode" transform="translate(-343.000000, -156.000000)">
		<g id="Tool-Bar-Copy-2" transform="translate(336.000000, 140.000000)">
			<g id="Icons-_x2F_-Toolbar-_x2F_-Move" transform="translate(5.000000, 14.000000)" class="st0">
				<g>
					<g id="Group_1_" transform="translate(2.000000, 2.000000)">
						<path id="Combined-Shape_1_" class="st1" d="M11,13.9v2l3.2,0L10,20l-4.1-4.1l3.2,0v-2H11z M15.9,5.9L20,10l-4.1,4.1l0-3.2h-2
							V9h2L15.9,5.9z M4.1,5.9l0,3.2h2v2h-2l0,3.2L0,10L4.1,5.9z M10,0l4.1,4.1l-3.2,0v2H9v-2l-3.2,0L10,0z"/>
						<rect id="Rectangle_1_" x="7" y="7" class="st1" width="6" height="6"/>
					</g>
				</g>
			</g>
		</g>
	</g>
</g>
</svg>
