<svg width="20" height="20" viewBox="0 0 20 20" fill="none" xmlns="http://www.w3.org/2000/svg">
<path fill-rule="evenodd" clip-rule="evenodd" d="M11.4269 7.8214C11.4269 7.8214 12.6255 6.27773 12.8609 6.02547C13.0293 5.84491 14.1454 4.95195 14.9384 4.31753C15.2533 4.06559 15.5172 3.85442 15.6506 3.74483C16.1199 3.35928 16.641 3.13818 17.2255 3.74483C17.8099 4.35147 17.3625 5.10073 16.8033 5.67442C16.4439 6.04308 15.9287 6.49427 15.5302 6.84322L15.5302 6.84322C15.3086 7.03729 15.1231 7.19973 15.0206 7.29877C14.7338 7.5759 14.2625 8.22295 14.0335 8.74303C13.9456 8.9427 13.8228 9.16114 13.6827 9.4103L13.6827 9.41032C13.4579 9.81015 13.1886 10.2891 12.9478 10.8965C12.7627 11.3634 12.4937 11.7765 12.1308 12.2282C12.0913 12.2773 12.0536 12.3246 12.017 12.3705C11.6557 12.8232 11.4071 13.1346 10.7588 13.6254C10.0447 14.166 6.74534 14.9971 6.74534 14.9971C6.74534 14.9971 6.98327 15.7024 7.10856 15.9497C7.20359 16.1372 7.24121 16.1496 7.41502 16.2068C7.47036 16.225 7.53949 16.2478 7.62868 16.2822C7.75016 16.329 7.94883 16.3968 8.17081 16.4725L8.17084 16.4725L8.17085 16.4725C8.62378 16.627 9.17377 16.8146 9.36315 16.9251C9.64537 17.0898 9.97063 17.3637 9.77437 17.9882C9.57811 18.6128 8.96822 18.506 8.48317 18.3465C7.99813 18.187 6.04685 17.514 5.81126 17.348C5.57568 17.1819 4.32521 15.3857 4.17413 15.0921C4.13911 15.024 4.10216 14.9588 4.06607 14.8951C3.94648 14.6841 3.83626 14.4896 3.83626 14.2614C3.83626 14.1241 3.87951 13.9778 3.92603 13.8205C3.98015 13.6375 4.0387 13.4395 4.0387 13.2232C4.0387 13.0163 3.90319 12.8538 3.77158 12.696C3.64736 12.547 3.52663 12.4022 3.52663 12.2282C3.52663 11.9343 3.55916 11.8631 3.59064 11.7941C3.59755 11.779 3.60441 11.7639 3.61086 11.7467C3.64672 11.6509 4.35338 10.131 4.35338 10.131C4.35338 10.131 3.12952 8.85465 2.94331 8.60871C2.75711 8.36277 2.43868 7.58759 3.16886 7.06113C3.8827 6.54645 4.65399 7.40232 4.91489 7.69183L4.93199 7.71079C5.17467 7.97938 6.35551 9.43751 6.50345 9.62038C6.64569 9.79621 6.60715 9.93615 6.55938 10.1096L6.55361 10.1306C6.50345 10.3139 6.02748 11.3099 6.02748 11.3099C6.02748 11.3099 6.1427 11.3732 6.39787 11.4726C6.60128 11.5518 7.53847 11.0864 8.12319 10.796L8.12328 10.796C8.27202 10.7221 8.39794 10.6596 8.48317 10.6202C8.90348 10.4261 9.15762 10.131 9.36315 9.62038C9.56869 9.1098 9.4415 8.80203 9.3784 8.65731C9.35205 8.59689 9.16644 8.27655 8.95338 7.90884L8.95333 7.90875C8.6561 7.39576 8.30545 6.79058 8.25924 6.67026C8.17992 6.46367 8.09485 6.23437 8.15593 6.02547C8.19433 5.89415 8.83847 4.63444 9.3602 3.61412L9.3603 3.61394C9.66843 3.01133 9.93386 2.49227 10.0065 2.33854C10.2023 1.92451 10.7588 0.850153 11.7019 1.39513C12.6028 1.91562 12.3262 2.45513 12.1542 2.79069L12.1308 2.83667C12.0611 2.97491 11.8164 3.48307 11.5455 4.0457C11.1682 4.82924 10.74 5.71843 10.6627 5.86125C10.5299 6.10662 10.5299 6.36487 10.6627 6.60696C10.7955 6.84905 11.4269 7.8214 11.4269 7.8214ZM3.13219 13.5711C3.13219 14.4484 2.43102 15.1596 1.56609 15.1596C0.701164 15.1596 0 14.4484 0 13.5711C0 12.6937 0.701164 11.9825 1.56609 11.9825C2.43102 11.9825 3.13219 12.6937 3.13219 13.5711ZM12.9648 15.9768V18.7555H19.1409V12.939L15.4061 12.886V15.9768H12.9648Z" fill="white"/>
</svg>
