<svg width="20" height="20" viewBox="0 0 20 20" fill="none" xmlns="http://www.w3.org/2000/svg">
<path fill-rule="evenodd" clip-rule="evenodd" d="M8.12983 4.16329C6.81686 3.34641 6.01039 2.54443 6.01039 2.54443C6.01039 2.54443 6.20899 3.8778 5.46285 3.86008C4.72439 3.84254 3.94822 3.35658 2.97819 2.74924L2.94781 2.73023L2.94857 2.73317C3.24161 3.86944 3.4828 4.80465 3.38793 5.42364C3.29414 6.03559 1.94195 5.61022 1.94195 5.61022C1.94195 5.61022 2.94781 6.83304 3.38793 8.01023C3.82804 9.18741 4.30773 10.4651 5.37156 11.2656C6.4354 12.0661 8.64831 11.9527 9.91483 10.6318C11.0458 9.45238 11.4177 8.0189 10.8138 6.81843C10.2099 5.61795 9.44281 4.98018 8.12983 4.16329ZM9.07317 9.83372C7.97075 10.8607 6.5402 10.8106 5.78571 10.2178C5.03121 9.62493 4.07338 7.73289 3.932 7.09715C4.005 7.12144 4.09802 7.16637 4.20236 7.21678C4.62351 7.42023 5.22921 7.71283 5.44864 7.09715C5.60759 6.65114 5.24682 5.82393 4.95642 5.15806C4.9061 5.04269 4.8579 4.93216 4.81488 4.8293C5.09022 4.89487 5.4021 5.13116 5.72717 5.37745C6.15031 5.69805 6.59582 6.03559 7.01224 6.03559C7.56857 6.03559 7.42541 5.51861 7.3195 5.13619L7.3195 5.13618C7.28524 5.01244 7.25487 4.90279 7.25337 4.8293C7.99468 5.01845 9.37707 6.4614 9.77633 7.09715C10.1756 7.73289 10.1756 8.80676 9.07317 9.83372ZM1.94189 17.5156L3.60736 14.1847L9.55832 14.1847L9.56011 14.1803L9.57692 14.2139L13.5488 5.13493L18.9654 17.5156H1.94189ZM13.5489 7.45629L12.0013 11.3253H15.0964L13.5489 7.45629Z" fill="white"/>
</svg>
