<svg width="20" height="20" viewBox="0 0 20 20" fill="none" xmlns="http://www.w3.org/2000/svg">
<path fill-rule="evenodd" clip-rule="evenodd" d="M15.5676 0.529297H6.78311L2.63574 5.02201V16.9368C2.63574 18.1569 3.62487 19.146 4.84503 19.146H15.5676C16.7878 19.146 17.7769 18.1569 17.7769 16.9368V2.73858C17.7769 1.51843 16.7878 0.529297 15.5676 0.529297ZM7.96801 1.73534L15.5676 1.73436C16.1222 1.73436 16.5718 2.18397 16.5718 2.73858V16.9368C16.5718 17.4914 16.1222 17.941 15.5676 17.941H4.84503C4.29041 17.941 3.84081 17.4914 3.84081 16.9368L3.80704 5.85621L6.66097 5.85666C7.21559 5.85666 7.96835 5.2147 7.96835 4.66008L7.96801 1.73534ZM6.83922 1.9977L4.18348 4.83897H6.33922C6.61536 4.83897 6.83922 4.61511 6.83922 4.33897V1.9977ZM12.381 14.5657C12.1494 14.3268 12.1553 13.9453 12.3942 13.7137L14.7845 11.396L12.7709 8.91353C12.5612 8.6551 12.6008 8.27565 12.8592 8.06602C13.1177 7.85638 13.4971 7.89594 13.7067 8.15438L15.8362 10.7796C16.1639 11.1836 16.1289 11.771 15.7554 12.1332L13.233 14.5788C12.9941 14.8105 12.6127 14.8046 12.381 14.5657ZM8.01845 13.7137C8.25735 13.9453 8.26324 14.3268 8.03159 14.5657C7.79995 14.8046 7.41849 14.8105 7.17958 14.5788L4.65726 12.1332C4.28377 11.771 4.24869 11.1836 4.57642 10.7796L6.7059 8.15438C6.91553 7.89594 7.29498 7.85638 7.55341 8.06602C7.81185 8.27565 7.85141 8.6551 7.64178 8.91353L5.6281 11.396L8.01845 13.7137ZM9.13087 14.0179C9.04729 14.3929 9.33262 14.7488 9.71684 14.7488C9.99382 14.7488 10.2349 14.5593 10.3002 14.2901L11.7246 8.42598C11.8251 8.01197 11.5115 7.61308 11.0855 7.61308C10.7774 7.61308 10.5106 7.82697 10.4436 8.12769L9.13087 14.0179Z" fill="white"/>
</svg>
