<svg width="21" height="19" viewBox="0 0 21 19" fill="none" xmlns="http://www.w3.org/2000/svg">
<path fill-rule="evenodd" clip-rule="evenodd" d="M7.21847 0.97168L10.3768 3.67879H8.12114V7.28844H11.7307V5.03255L14.4378 8.19084L11.7307 11.3491V9.09318H8.12114V12.7024H10.3768L7.21847 15.4095L4.06017 12.7024H6.3164V9.09318H2.70711V11.3491L0 8.19084L2.70711 5.03255V7.28844H6.3164V3.67879H4.06017L7.21847 0.97168Z" fill="white"/>
<mask id="path-2-outside-1_1307_7212" maskUnits="userSpaceOnUse" x="7.4248" y="3.56348" width="14" height="15" fill="black">
<rect fill="white" x="7.4248" y="3.56348" width="14" height="15"/>
<path fill-rule="evenodd" clip-rule="evenodd" d="M17.3282 17.0282L16.4378 15.2475L15.5475 17.0282H11.9862V16.1054C11.9862 15.3764 9.13694 13.3453 9.13694 13.3453C8.74364 13.053 8.4248 12.4232 8.4248 11.9269V8.71839C8.4248 7.69859 9.2221 6.87176 10.2055 6.87176V9.6417H11.0958V5.33306C11.0958 4.90787 11.4279 4.56348 11.8379 4.56348C12.6575 4.56348 13.3217 5.25227 13.3217 6.10218V5.79472C13.3217 5.36953 13.6538 5.02513 14.0638 5.02513C14.8833 5.02513 15.5475 5.71393 15.5475 6.56384V6.25637C15.5475 5.83119 15.8796 5.48679 16.2896 5.45381C17.1092 5.48679 17.7734 6.17558 17.7734 7.02549V6.71803C17.7734 6.29284 18.1055 5.94845 18.5155 5.94845C19.335 5.94845 19.9992 6.63724 19.9992 7.48715V11.69C19.9992 12.1796 19.7879 12.9159 19.5314 13.3398C19.5314 13.3398 18.2185 15.3764 18.2185 16.1054V17.0282H17.3282ZM13.767 9.90534H14.6573V13.4667H13.767V9.90534ZM15.5477 9.90534H16.4381V13.4667H15.5477V9.90534ZM17.3285 9.90534H18.2188V13.4667H17.3285V9.90534Z"/>
</mask>
<path fill-rule="evenodd" clip-rule="evenodd" d="M17.3282 17.0282L16.4378 15.2475L15.5475 17.0282H11.9862V16.1054C11.9862 15.3764 9.13694 13.3453 9.13694 13.3453C8.74364 13.053 8.4248 12.4232 8.4248 11.9269V8.71839C8.4248 7.69859 9.2221 6.87176 10.2055 6.87176V9.6417H11.0958V5.33306C11.0958 4.90787 11.4279 4.56348 11.8379 4.56348C12.6575 4.56348 13.3217 5.25227 13.3217 6.10218V5.79472C13.3217 5.36953 13.6538 5.02513 14.0638 5.02513C14.8833 5.02513 15.5475 5.71393 15.5475 6.56384V6.25637C15.5475 5.83119 15.8796 5.48679 16.2896 5.45381C17.1092 5.48679 17.7734 6.17558 17.7734 7.02549V6.71803C17.7734 6.29284 18.1055 5.94845 18.5155 5.94845C19.335 5.94845 19.9992 6.63724 19.9992 7.48715V11.69C19.9992 12.1796 19.7879 12.9159 19.5314 13.3398C19.5314 13.3398 18.2185 15.3764 18.2185 16.1054V17.0282H17.3282ZM13.767 9.90534H14.6573V13.4667H13.767V9.90534ZM15.5477 9.90534H16.4381V13.4667H15.5477V9.90534ZM17.3285 9.90534H18.2188V13.4667H17.3285V9.90534Z" fill="white"/>
<path d="M17.3282 17.0282L16.4338 17.4754L16.7102 18.0282H17.3282V17.0282ZM16.4378 15.2475L17.3323 14.8003L16.4378 13.0115L15.5434 14.8003L16.4378 15.2475ZM15.5475 17.0282V18.0282H16.1655L16.4419 17.4754L15.5475 17.0282ZM11.9862 17.0282H10.9862V18.0282H11.9862V17.0282ZM9.13694 13.3453L8.54046 14.1479L8.5484 14.1538L8.55646 14.1596L9.13694 13.3453ZM10.2055 6.87176H11.2055V5.87176H10.2055V6.87176ZM10.2055 9.6417H9.20548V10.6417H10.2055V9.6417ZM11.0958 9.6417V10.6417H12.0958V9.6417H11.0958ZM16.2896 5.45381L16.3298 4.45462L16.2696 4.4522L16.2094 4.45703L16.2896 5.45381ZM19.5314 13.3398L20.3719 13.8816L20.3795 13.8697L20.3868 13.8577L19.5314 13.3398ZM18.2185 17.0282V18.0282H19.2185V17.0282H18.2185ZM14.6573 9.90534H15.6573V8.90534H14.6573V9.90534ZM14.6573 13.4667V14.4667H15.6573V13.4667H14.6573ZM13.767 13.4667H12.767V14.4667H13.767V13.4667ZM16.4381 9.90534H17.4381V8.90534H16.4381V9.90534ZM16.4381 13.4667V14.4667H17.4381V13.4667H16.4381ZM15.5477 13.4667H14.5477V14.4667H15.5477V13.4667ZM18.2188 9.90534H19.2188V8.90534H18.2188V9.90534ZM18.2188 13.4667V14.4667H19.2188V13.4667H18.2188ZM17.3285 13.4667H16.3285V14.4667H17.3285V13.4667ZM18.2226 16.581L17.3323 14.8003L15.5434 15.6948L16.4338 17.4754L18.2226 16.581ZM15.5434 14.8003L14.6531 16.581L16.4419 17.4754L17.3323 15.6948L15.5434 14.8003ZM15.5475 16.0282H11.9862V18.0282H15.5475V16.0282ZM12.9862 17.0282V16.1054H10.9862V17.0282H12.9862ZM12.9862 16.1054C12.9862 15.7274 12.818 15.4184 12.713 15.2495C12.5901 15.0518 12.4343 14.8621 12.2799 14.6928C11.9689 14.3517 11.5738 13.9965 11.2051 13.6866C10.8313 13.3723 10.4605 13.0843 10.1849 12.8761C10.0466 12.7717 9.93109 12.6863 9.84958 12.6267C9.8088 12.5969 9.77647 12.5735 9.75399 12.5573C9.74275 12.5492 9.73396 12.5429 9.72781 12.5384C9.72473 12.5362 9.72231 12.5345 9.72057 12.5333C9.7197 12.5326 9.719 12.5321 9.71848 12.5318C9.71821 12.5316 9.71799 12.5314 9.71781 12.5313C9.71773 12.5312 9.71763 12.5312 9.71758 12.5311C9.71749 12.5311 9.71741 12.531 9.13694 13.3453C8.55646 14.1596 8.55641 14.1595 8.55636 14.1595C8.55636 14.1595 8.55632 14.1595 8.55632 14.1595C8.55632 14.1595 8.55636 14.1595 8.55644 14.1595C8.5566 14.1597 8.55693 14.1599 8.55743 14.1603C8.55843 14.161 8.5601 14.1622 8.56242 14.1638C8.56704 14.1671 8.57426 14.1723 8.58388 14.1793C8.60314 14.1932 8.63202 14.2141 8.66915 14.2412C8.74346 14.2956 8.85051 14.3746 8.97932 14.4719C9.23801 14.6674 9.5795 14.9328 9.918 15.2174C10.2616 15.5063 10.5788 15.7956 10.8021 16.0404C10.9148 16.164 10.9816 16.2526 11.0145 16.3055C11.0653 16.3872 10.9862 16.3011 10.9862 16.1054H12.9862ZM9.73341 12.5426C9.69336 12.5129 9.60552 12.4198 9.52661 12.263C9.44782 12.1065 9.4248 11.9796 9.4248 11.9269H7.4248C7.4248 12.3705 7.5612 12.8067 7.74016 13.1622C7.91899 13.5175 8.18721 13.8854 8.54046 14.1479L9.73341 12.5426ZM9.4248 11.9269V8.71839H7.4248V11.9269H9.4248ZM9.4248 8.71839C9.4248 8.21628 9.80835 7.87176 10.2055 7.87176V5.87176C8.63585 5.87176 7.4248 7.18089 7.4248 8.71839H9.4248ZM9.20548 6.87176V9.6417H11.2055V6.87176H9.20548ZM10.2055 10.6417H11.0958V8.6417H10.2055V10.6417ZM12.0958 9.6417V5.33306H10.0958V9.6417H12.0958ZM12.0958 5.33306C12.0958 5.42557 12.0142 5.56348 11.8379 5.56348V3.56348C10.8417 3.56348 10.0958 4.39018 10.0958 5.33306H12.0958ZM11.8379 5.56348C12.0712 5.56348 12.3217 5.76996 12.3217 6.10218H14.3217C14.3217 4.73457 13.2437 3.56348 11.8379 3.56348V5.56348ZM14.3217 6.10218V5.79472H12.3217V6.10218H14.3217ZM14.3217 5.79472C14.3217 5.88722 14.24 6.02513 14.0638 6.02513V4.02513C13.0675 4.02513 12.3217 4.85184 12.3217 5.79472H14.3217ZM14.0638 6.02513C14.2971 6.02513 14.5475 6.23162 14.5475 6.56384H16.5475C16.5475 5.19623 15.4696 4.02513 14.0638 4.02513V6.02513ZM16.5475 6.56384V6.25637H14.5475V6.56384H16.5475ZM16.5475 6.25637C16.5475 6.36572 16.4659 6.44287 16.3698 6.4506L16.2094 4.45703C15.2933 4.53072 14.5475 5.29665 14.5475 6.25637H16.5475ZM16.2494 6.45301C16.5228 6.46401 16.7734 6.70219 16.7734 7.02549H18.7734C18.7734 5.64897 17.6956 4.50958 16.3298 4.45462L16.2494 6.45301ZM18.7734 7.02549V6.71803H16.7734V7.02549H18.7734ZM18.7734 6.71803C18.7734 6.81054 18.6917 6.94845 18.5155 6.94845V4.94845C17.5192 4.94845 16.7734 5.77515 16.7734 6.71803H18.7734ZM18.5155 6.94845C18.7488 6.94845 18.9992 7.15493 18.9992 7.48715H20.9992C20.9992 6.11954 19.9213 4.94845 18.5155 4.94845V6.94845ZM18.9992 7.48715V11.69H20.9992V7.48715H18.9992ZM18.9992 11.69C18.9992 11.8119 18.9691 12.0218 18.8997 12.2658C18.8306 12.5086 18.7442 12.7092 18.6759 12.8219L20.3868 13.8577C20.5751 13.5466 20.7226 13.1671 20.8233 12.8133C20.9236 12.4608 20.9992 12.0577 20.9992 11.69H18.9992ZM19.5314 13.3398C18.6908 12.798 18.6908 12.7981 18.6907 12.7982C18.6907 12.7982 18.6907 12.7983 18.6906 12.7984C18.6905 12.7985 18.6904 12.7987 18.6903 12.7989C18.69 12.7993 18.6896 12.7999 18.6892 12.8006C18.6883 12.8019 18.6871 12.8037 18.6857 12.8061C18.6827 12.8107 18.6785 12.8172 18.6732 12.8256C18.6626 12.8423 18.6474 12.8662 18.6283 12.8966C18.5901 12.9573 18.5363 13.0438 18.4719 13.1497C18.3436 13.3606 18.1712 13.6518 17.9975 13.9695C17.8256 14.284 17.6434 14.6406 17.5015 14.9789C17.3775 15.2745 17.2185 15.7031 17.2185 16.1054H19.2185C19.2185 16.1431 19.2236 16.0438 19.3458 15.7525C19.4501 15.504 19.5961 15.2147 19.7524 14.929C19.9069 14.6463 20.0627 14.3829 20.1806 14.1891C20.2392 14.0926 20.2879 14.0144 20.3216 13.9609C20.3384 13.9341 20.3514 13.9136 20.36 13.9001C20.3643 13.8934 20.3675 13.8884 20.3695 13.8853C20.3705 13.8837 20.3712 13.8826 20.3716 13.882C20.3718 13.8817 20.3719 13.8815 20.372 13.8814C20.372 13.8814 20.372 13.8814 20.372 13.8814C20.372 13.8814 20.3719 13.8815 20.3719 13.8815C20.3719 13.8815 20.3719 13.8816 19.5314 13.3398ZM17.2185 16.1054V17.0282H19.2185V16.1054H17.2185ZM18.2185 16.0282H17.3282V18.0282H18.2185V16.0282ZM13.767 10.9053H14.6573V8.90534H13.767V10.9053ZM13.6573 9.90534V13.4667H15.6573V9.90534H13.6573ZM14.6573 12.4667H13.767V14.4667H14.6573V12.4667ZM14.767 13.4667V9.90534H12.767V13.4667H14.767ZM15.5477 10.9053H16.4381V8.90534H15.5477V10.9053ZM15.4381 9.90534V13.4667H17.4381V9.90534H15.4381ZM16.4381 12.4667H15.5477V14.4667H16.4381V12.4667ZM16.5477 13.4667V9.90534H14.5477V13.4667H16.5477ZM17.3285 10.9053H18.2188V8.90534H17.3285V10.9053ZM17.2188 9.90534V13.4667H19.2188V9.90534H17.2188ZM18.2188 12.4667H17.3285V14.4667H18.2188V12.4667ZM18.3285 13.4667V9.90534H16.3285V13.4667H18.3285Z" fill="#333333" mask="url(#path-2-outside-1_1307_7212)"/>
</svg>
