<svg width="24" height="24" viewBox="0 0 24 24" fill="none" xmlns="http://www.w3.org/2000/svg">
<path fill-rule="evenodd" clip-rule="evenodd" d="M17.3903 20.6462C17.195 20.8414 16.8836 20.8364 16.6947 20.635L3.79247 6.8774C3.60357 6.67598 3.60873 6.3544 3.80399 6.15914L6.60973 3.3534C6.80499 3.15814 7.11642 3.16314 7.30532 3.36456L20.2076 17.1222C20.3965 17.3236 20.3913 17.6452 20.196 17.8404L17.3903 20.6462Z" fill="#E25243"/>
<path fill-rule="evenodd" clip-rule="evenodd" d="M3.3536 17.3901C3.15834 17.1948 3.16333 16.8834 3.36475 16.6945L17.1224 3.79223C17.3238 3.60333 17.6454 3.60849 17.8406 3.80375L20.6464 6.60949C20.8416 6.80475 20.8366 7.11617 20.6352 7.30507L6.8776 20.2073C6.67617 20.3962 6.3546 20.3911 6.15934 20.1958L3.3536 17.3901Z" fill="#E25243"/>
</svg>
