<?xml version="1.0" encoding="UTF-8"?>
<svg width="24px" height="24px" viewBox="0 0 24 24" version="1.1" xmlns="http://www.w3.org/2000/svg" xmlns:xlink="http://www.w3.org/1999/xlink">
    <!-- Generator: Sketch 49 (51002) - http://www.bohemiancoding.com/sketch -->
    <title>Info</title>
    <desc>Created with Sketch.</desc>
    <defs></defs>
    <g id="Info" stroke="none" stroke-width="1" fill="none" fill-rule="evenodd">
        <g id="Group"></g>
        <g id="Group-2">
            <rect id="Icon-Background" x="0" y="0" width="24" height="24"></rect>
            <path d="M12,22 C6.4771525,22 2,17.5228475 2,12 C2,6.4771525 6.4771525,2 12,2 C17.5228475,2 22,6.4771525 22,12 C22,17.5228475 17.5228475,22 12,22 Z M11.3858254,8.76567573 L13.1910567,8.76567573 L13.1910567,7 L11.3858254,7 L11.3858254,8.76567573 Z M13.2078469,9.67170696 L12.3052313,9.67170696 L11.4026156,9.67170696 L10.5,9.67170696 L10.5,11.4373827 L11.4026156,11.4373827 L11.4026156,14.9687341 L10.5,14.9687341 L10.5,16.7344099 L11.4026156,16.7344099 L13.2078469,16.7344099 L14.1104625,16.7344099 L14.1104625,14.9687341 L13.2078469,14.9687341 L13.2078469,9.67170696 Z" id="Combined-Shape" fill="#E9E9E9"></path>
        </g>
    </g>
</svg>
