<?xml version="1.0" encoding="UTF-8"?>
<svg width="24px" height="24px" viewBox="0 0 24 24" version="1.1" xmlns="http://www.w3.org/2000/svg" xmlns:xlink="http://www.w3.org/1999/xlink">
    <!-- Generator: Sketch 49 (51002) - http://www.bohemiancoding.com/sketch -->
    <title>Info</title>
    <desc>Created with Sketch.</desc>
    <defs></defs>
    <g id="Info" stroke="none" stroke-width="1" fill="none" fill-rule="evenodd">
        <g id="Group"></g>
        <g id="Group-2" transform="translate(2.000000, 2.000000)"></g>
        <g id="Group-3">
            <rect id="Icon-Background" x="0" y="0" width="24" height="24"></rect>
            <path d="M12,22 C6.4771525,22 2,17.5228475 2,12 C2,6.4771525 6.4771525,2 12,2 C17.5228475,2 22,6.4771525 22,12 C22,17.5228475 17.5228475,22 12,22 Z M4,10 L4,14 L8,14 L8,10 L4,10 Z M10,10 L10,14 L14,14 L14,10 L10,10 Z M16,10 L16,14 L20,14 L20,10 L16,10 Z" id="Combined-Shape" fill="#4285F4"></path>
        </g>
    </g>
</svg>
