<svg width="24" height="24" viewBox="0 0 24 24" fill="none" xmlns="http://www.w3.org/2000/svg">
<path fill-rule="evenodd" clip-rule="evenodd" d="M3.70117 21C3.04583 21 2.80883 20.4181 3.16648 19.7108L11.3471 3.53226C11.7072 2.82023 12.2933 2.82494 12.651 3.53226L20.8316 19.7108C21.1917 20.4228 20.9564 21 20.2969 21H3.70117ZM12.7107 15.75H11.2974L10.875 7.5H13.125L12.7107 15.75ZM11.1705 17.159C10.9735 17.3484 10.875 17.625 10.875 17.9889C10.875 18.3529 10.9747 18.6332 11.1742 18.8299C11.3737 19.0266 11.6528 19.125 12.0114 19.125C12.3649 19.125 12.6389 19.023 12.8333 18.8189C13.0278 18.6148 13.125 18.3381 13.125 17.9889C13.125 17.6398 13.029 17.3668 12.8371 17.1701C12.6452 16.9734 12.37 16.875 12.0114 16.875C11.6477 16.875 11.3674 16.9697 11.1705 17.159Z" fill="#F0C32D"/>
</svg>
