<?xml version="1.0" encoding="UTF-8"?>
<svg width="12px" height="12px" viewBox="0 0 12 12" version="1.1" xmlns="http://www.w3.org/2000/svg" xmlns:xlink="http://www.w3.org/1999/xlink">
    <!-- Generator: Sketch 56.3 (81716) - https://sketch.com -->
    <title>Icons / System / Text Field / Warning</title>
    <desc>Created with Sketch.</desc>
    <g id="All-use-case" stroke="none" stroke-width="1" fill="none" fill-rule="evenodd">
        <g id="checkmark-4" transform="translate(-2.000000, -2.000000)" fill="#F0C32D">
            <g id="Icons-/-System-/-Text-Field-/-Warning">
                <g transform="translate(2.000000, 2.000000)" id="Warning-Icon">
                    <path d="M0.467444546,12 C0.0305532584,12 -0.127449405,11.6120483 0.110986351,11.1405042 L5.56476196,0.354837428 C5.80478716,-0.119849002 6.1955341,-0.116706675 6.43396986,0.354837428 L11.8877455,11.1405042 C12.1277707,11.6151906 11.9709251,12 11.5312873,12 L0.467444546,12 Z M6.47382671,8.5 L6.75,3 L5.25,3 L5.53158845,8.5 L6.47382671,8.5 Z M5.25,9.99262295 C5.25,10.2352471 5.31649765,10.4221305 5.44949495,10.5532787 C5.58249225,10.6844269 5.76851732,10.75 6.00757576,10.75 C6.24326717,10.75 6.42592528,10.6819679 6.55555556,10.5459016 C6.68518583,10.4098354 6.75,10.225411 6.75,9.99262295 C6.75,9.7598349 6.68602758,9.57786951 6.55808081,9.44672131 C6.43013404,9.31557311 6.24663419,9.25 6.00757576,9.25 C5.7651503,9.25 5.57828348,9.31311412 5.4469697,9.43934426 C5.31565591,9.5655744 5.25,9.74999879 5.25,9.99262295 Z"></path>
                </g>
            </g>
        </g>
    </g>
</svg>
