<?xml version="1.0" encoding="UTF-8"?>
<svg width="18px" height="18px" viewBox="0 0 18 18" version="1.1" xmlns="http://www.w3.org/2000/svg" xmlns:xlink="http://www.w3.org/1999/xlink">
    <!-- Generator: Sketch 63.1 (92452) - https://sketch.com -->
    <title>Artboard Copy</title>
    <desc>Created with Sketch.</desc>
    <g id="Artboard-Copy" stroke="none" stroke-width="1" fill="none" fill-rule="evenodd">
        <g id="Group-39" transform="translate(0.000000, -0.500000)">
            <g id="icon-/-perspective-/-no-camera-through-floor" transform="translate(1.000000, 1.552805)" fill="#E9E9E9">
                <path d="M8.93592588,13.9045869 L8.3063971,14.4987123 L8.3063971,15.4471952 L0.583256901,15.4195047 L0.583256901,13.9045869 L8.93592588,13.9045869 Z M10.6353774,13.9045869 L15.4409654,13.9322774 L15.4409654,15.3158592 L12.0589839,15.3158592 L10.6353774,13.9045869 Z" id="Combined-Shape" transform="translate(8.012111, 14.675891) scale(1, -1) translate(-8.012111, -14.675891) "></path>
                <path d="M5.71051626,0.645867704 C6.1285413,0.227842669 6.99040089,0.194075749 7.3932843,0.59695916 C7.58239009,0.786064954 11.8216617,4.93138341 11.9445202,5.05424184 C12.4937268,5.60344852 12.0475119,6.47010808 11.6766856,6.84093443 C11.528355,6.98926497 11.3660855,7.15153446 11.1898771,7.32774289 L10.818875,7.69874502 L11.3900795,8.26994951 L15.1266447,8.65105378 L15.5706316,9.0950407 L9.78457642,14.8810959 L9.3405895,14.437109 L9.34542195,10.314607 L8.77421746,9.74340253 C8.29600726,10.2216127 7.88363153,10.6339885 7.53709025,10.9805297 C7.01727834,11.5003417 6.23606552,11.332585 5.95112127,11.0476407 C5.66617702,10.7626965 2.02072278,7.20799591 1.40018665,6.58745979 C0.779650519,5.96692366 1.07743737,5.27634957 1.45517373,4.89861321 C1.83291008,4.52087686 5.29249123,1.06389274 5.71051626,0.645867704 Z M6.76572915,2.50114762 C4.90176812,2.50114762 3.39072915,4.01218659 3.39072915,5.87614762 C3.39072915,7.74010865 4.90176812,9.25114762 6.76572915,9.25114762 C8.62969018,9.25114762 10.1407291,7.74010865 10.1407291,5.87614762 C10.1407291,4.01218659 8.62969018,2.50114762 6.76572915,2.50114762 Z M8.72713171,4.94616945 C8.86101367,5.22803719 8.93592588,5.54334406 8.93592588,5.87614762 C8.93592588,7.07471418 7.96429571,8.04634436 6.76572915,8.04634436 C6.43292559,8.04634436 6.11761871,7.97143215 5.83575097,7.83755018 L5.83575097,7.83755018 Z M6.76572915,3.70595089 C7.10327013,3.70595089 7.42281275,3.78301101 7.70772401,3.92049824 L7.70772401,3.92049824 L4.81007977,6.81814248 C4.67259253,6.53323122 4.59553241,6.2136886 4.59553241,5.87614762 C4.59553241,4.67758106 5.56716259,3.70595089 6.76572915,3.70595089 Z" id="Path-22" fill-rule="nonzero"></path>
            </g>
        </g>
    </g>
</svg>
