<?xml version="1.0" encoding="UTF-8"?>
<svg width="22px" height="18px" viewBox="0 0 22 18" version="1.1" xmlns="http://www.w3.org/2000/svg" xmlns:xlink="http://www.w3.org/1999/xlink">
    <!-- Generator: Sketch 63.1 (92452) - https://sketch.com -->
    <title>Artboard</title>
    <desc>Created with Sketch.</desc>
    <g id="Artboard" stroke="none" stroke-width="1" fill="none" fill-rule="evenodd">
        <g id="Group-36">
            <g id="Icons-/-System-/-Carrot---Arrow-Down-" transform="translate(15.500000, 5.750000)">
                <rect id="Icon-Background" x="0" y="0" width="6.5" height="6.5"></rect>
                <polygon id="Triangle" fill="#FFFFFF" fill-rule="evenodd" transform="translate(3.250000, 3.250000) rotate(180.000000) translate(-3.250000, -3.250000) " points="3.25 2.4375 5.14583333 4.0625 1.35416667 4.0625"></polygon>
            </g>
            <g id="Group-33" transform="translate(2.000000, 1.000000)" fill="#E9E9E9" fill-rule="nonzero">
                <path d="M3.07645321,6.30456299 L6.60321599,12.8074691 L10.0872286,6.40908658 L10.1291235,6.30263925 C10.4093493,5.74646261 10.5512791,5.15245228 10.5512791,4.53663949 C10.5512791,2.35981287 8.7803631,0.588683119 6.60353648,0.588683119 C4.42670986,0.588683119 2.65579386,2.35981287 2.65579386,4.53663949 C2.65579386,5.15181103 2.79772364,5.74603511 3.07773571,6.30263925 L3.07645321,6.30456299 Z M6.60346046,2.89185375 C7.43058529,2.89185375 8.10353648,3.564687 8.10353648,4.39185375 C8.10353648,5.21886845 7.43058529,5.89185375 6.60346046,5.89185375 C5.77633563,5.89185375 5.10353648,5.2190205 5.10353648,4.39185375 C5.10353648,3.564687 5.77633563,2.89185375 6.60346046,2.89185375 Z" id="Shape"></path>
                <path d="M6.61034677,15.499308 C10.5584099,15.499308 13.3031488,13.6101256 12.8021582,12.3451275 C12.4337369,11.4148661 11.0399433,10.9164677 8.5452709,10.6452193 L8.34964418,10.6452193 L8.09820502,11.2676033 L8.34964418,11.2785045 C10.5799082,11.5211104 11.1311058,11.9323369 11.1311058,12.4393511 C11.1311058,13.0942801 9.29542369,14.0845823 6.52843424,14.0845823 C3.76165853,14.0845823 1.92597638,13.0942801 1.92597638,12.4393511 C1.92597638,11.9323369 2.61993345,11.4965292 4.85041124,11.254137 L5.17284099,11.2432358 L4.89287311,10.6208519 L4.63195908,10.6452193 C2.265109,10.9434001 0.659953542,11.4092977 0.40491475,12.3451275 C-0.0639262271,14.0654751 3.17872107,15.499308 6.61034677,15.499308 Z" id="Path"></path>
            </g>
        </g>
    </g>
</svg>
