<?xml version="1.0" encoding="UTF-8"?>
<svg width="18px" height="18px" viewBox="0 0 18 18" version="1.1" xmlns="http://www.w3.org/2000/svg" xmlns:xlink="http://www.w3.org/1999/xlink">
    <!-- Generator: Sketch 63.1 (92452) - https://sketch.com -->
    <title>Group 30</title>
    <desc>Created with Sketch.</desc>
    <g id="Page-1" stroke="none" stroke-width="1" fill="none" fill-rule="evenodd">
        <g id="Artboard-Copy">
            <g id="Group-30">
                <g id="icon-/-outliner-/-entity-/-Default" transform="translate(1.660279, 0.468387)" fill="#E9E9E9" fill-rule="nonzero">
                    <path d="M12.2342723,3.58742756 L6.56048193,6.86568046 L0.886691601,3.58742756 L6.54264228,0.822349384 L12.2342723,3.58742756 Z M5.79299536,8.16320049 L5.79299536,15.1094915 L0.533931982,12.0642558 L0.533931982,5.13366853 L5.79299536,8.16320049 Z M7.28624789,10.0713222 L7.28624789,8.16627945 L12.5451341,5.14005117 L12.5546566,7.3151305 L12.3938836,7.39923963 C12.3938836,7.39923963 11.4280941,6.56784425 9.82108316,7.23682388 C8.21407218,7.90580352 8.06974053,9.66143454 8.06974053,9.66143454 L7.28624789,10.0713222 Z" id="Shape"></path>
                </g>
                <path d="M12.7613334,8.46838687 C13.996514,8.46838687 14.9978257,9.46969858 14.9978257,10.7048792 L14.9978257,11.9573149 L16.3397211,11.9573149 L16.3397211,16.2215602 L9.18294571,16.2215602 L9.18294571,11.9573149 L10.5248411,11.9573149 L10.5248411,10.7048792 C10.5248411,9.46969858 11.5261528,8.46838687 12.7613334,8.46838687 Z M13.2086319,13.5079496 L12.314035,13.5079496 L12.314035,14.6709256 L13.2086319,14.6709256 L13.2086319,13.5079496 Z M12.7613334,9.2437042 C12.0202251,9.2437042 11.419438,9.84449123 11.419438,10.5855996 L11.419438,10.5855996 L11.419438,11.9573149 L14.1032288,11.9573149 L14.1032288,10.5855996 C14.1032288,9.84449123 13.5024418,9.2437042 12.7613334,9.2437042 Z" id="Combined-Shape-Copy" fill="#E9E9E9"></path>
            </g>
        </g>
    </g>
</svg>
