<?xml version="1.0" encoding="UTF-8"?>
<svg width="18px" height="18px" viewBox="0 0 18 18" version="1.1" xmlns="http://www.w3.org/2000/svg" xmlns:xlink="http://www.w3.org/1999/xlink">
    <!-- Generator: Sketch 63.1 (92452) - https://sketch.com -->
    <title>Artboard Copy</title>
    <desc>Created with Sketch.</desc>
    <g id="Artboard-Copy" stroke="none" stroke-width="1" fill="none" fill-rule="evenodd">
        <g id="Group-43">
            <g id="Icons-/-Toolbar-/-AI/Physics---Play" transform="translate(1.000000, 1.000000)">
                <rect id="Icon-Background" x="0" y="0" width="16" height="16"></rect>
                <polygon id="Triangle" fill="#E9E9E9" transform="translate(7.000000, 8.000000) rotate(90.000000) translate(-7.000000, -8.000000) " points="7 5.66666667 9.66666667 10.3333333 4.33333333 10.3333333"></polygon>
                <rect id="Rectangle" fill="#E9E9E9" x="10.3333333" y="4.66666667" width="1" height="6.66666667"></rect>
                <path d="M8,1.33333333 C11.6818983,1.33333333 14.6666667,4.31810167 14.6666667,8 C14.6666667,11.6818983 11.6818983,14.6666667 8,14.6666667 C4.31810167,14.6666667 1.33333333,11.6818983 1.33333333,8 C1.33333333,4.31810167 4.31810167,1.33333333 8,1.33333333 Z M8,2 C4.6862915,2 2,4.6862915 2,8 C2,11.3137085 4.6862915,14 8,14 C11.3137085,14 14,11.3137085 14,8 C14,4.6862915 11.3137085,2 8,2 Z" id="Oval" fill="#E9E9E9" fill-rule="nonzero"></path>
            </g>
        </g>
    </g>
</svg>
