<?xml version="1.0" encoding="UTF-8"?>
<svg width="24px" height="24px" viewBox="0 0 24 24" version="1.1" xmlns="http://www.w3.org/2000/svg" xmlns:xlink="http://www.w3.org/1999/xlink">
    <title>Icons / Toolbar / AI/Physics - Play Copy 17</title>
    <g id="Icons-/-Toolbar-/-AI/Physics---Play-Copy-17" stroke="none" stroke-width="1" fill="none" fill-rule="evenodd">
        <path d="M20.8908455,1.51690668 C22.7511907,2.59097746 23.388592,4.9697916 22.3145212,6.83013676 C21.2728704,8.63432893 19.0040527,9.28829017 17.1711171,8.34640787 C16.6242846,8.01669527 16.3899336,7.87600415 15.9021726,7.308463 C14.9363172,6.09448053 14.7549641,4.36545621 15.5776154,2.94058239 C16.6516862,1.08023722 19.0305003,0.442835896 20.8908455,1.51690668 Z M20.876785,3.2022654 C20.6082547,3.79054138 20.548446,4.23293264 20.1975025,4.85798428 C19.5315247,6.04413103 18.4525377,6.41714 17.4554634,6.66573856 C16.4583891,6.91433711 18.0253037,8.25550286 19.4961374,7.88878284 C20.9669711,7.52206282 21.7901559,6.26012018 22.1021698,5.18207064 C22.513259,3.76170234 21.1453153,2.61398942 20.876785,3.2022654 Z" id="Combined-Shape" fill="#FFFFFF" fill-rule="nonzero"></path>
        <path d="M19.6406332,9.42028326 C20.8139604,9.42028326 20.8139604,10.6209779 20.4859379,11.3932251 C19.6406332,14.0192981 18.7412879,15.4686743 18.3060349,19.9239901 L16.0752876,19.9239901 C15.6402194,18.0305969 15.0659314,16.3687826 14.3891024,14.9163292 L15.9572475,13.5706403 C16.3909441,14.5062862 16.7306412,15.4810157 16.9554849,16.4814782 C17.3519121,12.8710587 17.6418906,12.4530393 17.9739628,10.9644258 C18.3060349,9.47581233 18.9455759,9.42028326 19.6406332,9.42028326 Z M15.3182224,12.3353946 L13.7527712,13.6641641 C12.8103204,11.9605998 11.7174197,10.5902058 10.5513669,9.50615966 L11.8086055,7.97207729 C13.1741479,9.22483634 14.3855744,10.7058783 15.3182224,12.3353946 Z M10.6119799,6.96276089 L9.33989669,8.49807168 C8.11468911,7.58968709 6.84116904,6.96002125 5.60021458,6.56008282 L6.20591959,4.49912188 C7.71049749,5.03763502 9.21674996,5.88289751 10.6119799,6.96276089 Z M2.64679474,3.83258421 C3.34711618,3.83258421 4.06953882,3.92011037 4.80080832,4.08667729 L4.16967353,6.1943994 C3.46998,6.0615892 2.79194907,6 2.15148153,6 C1.14350203,6 0.943333181,5.66684171 0.943333181,4.88535958 C0.943333181,4.10387744 1.73713061,3.83258421 2.64679474,3.83258421 Z" id="Path-2" fill="#FFFFFF" fill-rule="nonzero"></path>
        <polygon id="Triangle-Copy" fill="#FFFFFF" transform="translate(7.444445, 16.179878) rotate(90.000000) translate(-7.444445, -16.179878) " points="7.44444464 10.735433 13.6243223 21.6243223 1.26456703 21.6243223"></polygon>
        <ellipse id="Oval" fill="#FFFFFF" cx="17.5" cy="21.75" rx="4.5" ry="1"></ellipse>
    </g>
</svg>
