<?xml version="1.0" encoding="UTF-8"?>
<svg width="18px" height="18px" viewBox="0 0 18 18" version="1.1" xmlns="http://www.w3.org/2000/svg" xmlns:xlink="http://www.w3.org/1999/xlink">
    <!-- Generator: Sketch 63.1 (92452) - https://sketch.com -->
    <title>Artboard Copy</title>
    <desc>Created with Sketch.</desc>
    <g id="Artboard-Copy" stroke="none" stroke-width="1" fill="none" fill-rule="evenodd">
        <g id="Group-35">
            <path d="M2.98709706,4.50588292 L15.0233117,4.50588292 L15.0233117,4.50588292 C15.3213841,4.50588292 15.5167832,4.50588292 15.5167832,4.81215681 L15.5167832,5.25606321 L15.5167832,5.25606321 L16.1921812,5.25606321 L16.1921812,5.25606321 C16.5,5.25606321 16.5,5.54637881 16.5,5.86255983 L16.5,11.3611002 L16.5,11.3611002 C16.5,11.9344052 16.3512105,12.5736205 15.7909806,12.5736205 L14.7215386,12.5736205 L14.7215386,12.5736205 C14.4078209,12.5736205 14.2300773,13.4661118 13.9261848,13.4661118 L11.3287048,13.4661118 L11.3287048,13.4661118 C10.7438088,13.4661118 10.384801,13.6704791 10.0617929,13.0754697 C9.73878471,12.4804603 9.71049212,11.8998509 9.41492242,11.7494769 C9.11935271,11.5991028 8.89087034,11.5991028 8.63209115,11.7494769 C8.37331196,11.8998509 8.29734401,12.2784813 7.9554803,12.816581 C7.61361658,13.3546806 7.61361658,13.4661118 6.99806156,13.4661118 L4.50486548,13.4661118 L4.50486548,13.4661118 C3.92654549,13.4661118 4.08697288,12.5736205 3.63832441,12.5736205 L2.36202428,12.5736205 L2.36202428,12.5736205 C1.69908846,12.5736205 1.5,12.0741449 1.5,11.5991028 L1.5,5.97763289 C1.5,5.63352068 1.50330376,5.45401482 1.7901041,5.45401482 L2.36202428,5.45401482 L2.36202428,5.45401482 L2.36202428,4.74617373 L2.36202428,4.74617373 C2.36202428,4.44042913 2.7275304,4.50588292 2.98709706,4.50588292 Z M13.690984,6.27593397 C12.744249,6.27593397 7.08469989,6.28718066 5.07510251,6.2902203 L4.4323356,6.29096983 C4.21218427,6.29096983 4.07816285,6.46362649 4.07816285,6.82325441 C4.07816285,7.04062604 3.97806321,7.30051444 3.77559801,7.30051444 L3.77559801,7.30051444 L2.96673756,7.30051444 C2.55732159,7.30051444 2.49200981,7.56552974 2.49200981,7.82354925 C2.49200981,8.48538047 2.50937737,9.96404339 2.50937737,10.7427268 C2.50937737,11.0989191 2.68726552,11.5524608 3.24953419,11.5524608 L3.24953419,11.5524608 L4.33202747,11.5524608 C4.71254843,11.5524608 4.5744823,12.1719415 5.0649841,12.1719415 C5.57779919,12.1719415 6.25827353,12.1638367 6.78035621,12.1638367 C7.30243888,12.1638367 7.30243888,12.0802842 7.59239041,11.6768105 C7.88234194,11.2733369 7.75625948,11.4149253 8.16625755,10.8766829 C8.57625562,10.3384406 9.70494837,10.4392975 10.1031181,10.8766829 C10.5012877,11.3140683 10.3778017,11.4247832 10.6517609,11.8709284 C10.9257201,12.3170737 11.2347494,12.1942802 11.7308286,12.1942802 C12.2269078,12.1942802 12.6897156,12.1812596 13.4526783,12.1638367 C13.7101009,12.1579582 13.870209,11.5736647 14.1362885,11.5736647 L14.1362885,11.5736647 L15.0433352,11.5736647 C15.5184939,11.5736647 15.5245954,11.0153444 15.5245954,10.5854734 L15.5243422,10.4586291 C15.5222029,9.85453173 15.5072278,8.56915379 15.5072278,7.63287969 C15.5072278,7.46319826 15.4798817,7.33019216 15.2529247,7.33019216 L15.2529247,7.33019216 L14.3471906,7.33085055 C14.162696,7.3329284 14.0010872,7.33183499 14.0010872,7.1813583 C14.0010872,7.08018487 14.0157946,6.72741798 14.0103276,6.55763056 C14.0020205,6.29963634 14.0020205,6.27593397 13.690984,6.27593397 Z" id="Combined-Shape" fill="#E9E9E9" fill-rule="nonzero"></path>
        </g>
    </g>
</svg>
