<svg width="13" height="13" viewBox="0 0 13 13" fill="none" xmlns="http://www.w3.org/2000/svg">
<path d="M11.0708 0.87087L11.0708 0.87074C10.4286 0.371024 9.61107 0.13517 8.79265 0.213464C7.97422 0.291757 7.21961 0.678004 6.6897 1.28985L5.76756 2.36366C5.63378 2.51944 5.56909 2.72055 5.58771 2.92273C5.60634 3.12492 5.70675 3.31163 5.86686 3.44178C6.02698 3.57194 6.23368 3.63488 6.44149 3.61676C6.6493 3.59864 6.8412 3.50094 6.97498 3.34516L7.89716 2.27122C8.03184 2.11488 8.19736 1.98639 8.38395 1.89334C8.57053 1.8003 8.7744 1.74459 8.98349 1.7295C9.19258 1.71442 9.40266 1.74027 9.60131 1.80552C9.79996 1.87078 9.98315 1.97411 10.1401 2.10942C10.4422 2.38256 10.6244 2.75851 10.6488 3.15904C10.6732 3.55957 10.5379 3.95383 10.2711 4.25978L8.35381 6.49309L8.33616 6.51209C8.23375 6.62767 8.11374 6.72729 7.98031 6.80749C7.67189 6.99364 7.30661 7.06983 6.94686 7.02305C6.58711 6.97626 6.25522 6.8094 6.00789 6.55097C5.86556 6.40288 5.66865 6.31578 5.46039 6.30879C5.25213 6.30179 5.04952 6.37546 4.89703 6.51365C4.74453 6.65183 4.65462 6.84323 4.64701 7.04584C4.6394 7.24845 4.71472 7.44572 4.85645 7.59436C5.21222 7.96578 5.65746 8.24515 6.15198 8.40726C6.6465 8.56937 7.17473 8.60911 7.68898 8.52289C7.84983 8.49539 8.00828 8.45599 8.16298 8.40505C8.70939 8.22568 9.19408 7.90261 9.56335 7.47165L11.4758 5.24457C11.7478 4.92529 11.9523 4.55683 12.0773 4.16038C12.2024 3.76394 12.2457 3.34735 12.2046 2.93457C12.1671 2.53429 12.0475 2.1454 11.8527 1.79092C11.658 1.43644 11.3921 1.12358 11.0708 0.87087Z" fill="#3F3F3F"/>
<path d="M5.40958 9.14055L4.58546 10.1003C4.32342 10.4101 3.94867 10.6097 3.53919 10.6576C3.12972 10.7054 2.71706 10.5977 2.3871 10.357C2.22234 10.2309 2.08525 10.0738 1.98392 9.89526C1.8826 9.71668 1.81911 9.52014 1.79719 9.31727C1.77528 9.1144 1.79539 8.90932 1.85634 8.71414C1.91729 8.51896 2.01784 8.33765 2.15204 8.18093L4.10231 5.90975L4.11666 5.89415C4.21908 5.77861 4.3391 5.67903 4.47254 5.59887C4.75216 5.42921 5.07976 5.34988 5.4085 5.37222C5.73725 5.39457 6.05033 5.51745 6.30299 5.72329C6.3635 5.77246 6.42015 5.82595 6.47246 5.88333C6.54738 5.9658 6.63971 6.03156 6.74316 6.07611C6.84661 6.12066 6.95872 6.14295 7.07184 6.14146C7.18361 6.13992 7.29372 6.11492 7.39465 6.06817C7.49558 6.02143 7.58495 5.95403 7.65666 5.8706L7.66607 5.85958C7.78641 5.72083 7.85132 5.54454 7.8489 5.36301C7.84647 5.18148 7.77687 5.00689 7.65286 4.87124C7.35341 4.54132 6.98422 4.27825 6.57057 4.10003C6.15692 3.92182 5.70858 3.83266 5.25623 3.83866C4.80388 3.84467 4.35821 3.94569 3.94971 4.13482C3.54122 4.32395 3.17954 4.59672 2.88945 4.93446L0.944626 7.19943C0.420065 7.81564 0.163643 8.60683 0.230025 9.40433C0.296406 10.2018 0.68034 10.9426 1.29998 11.4686C1.61272 11.7312 1.97644 11.9301 2.3696 12.0535C2.76277 12.1769 3.17738 12.2223 3.5889 12.187C3.687 12.1793 3.78434 12.1672 3.88093 12.1507C4.62877 12.0232 5.30663 11.6437 5.79562 11.0786L6.617 10.1221C6.75077 9.96628 6.81547 9.76517 6.79684 9.56299C6.77822 9.3608 6.6778 9.17409 6.51769 9.04394C6.35758 8.91378 6.15088 8.85084 5.94306 8.86896C5.73525 8.88708 5.54335 8.98477 5.40957 9.14055H5.40958Z" fill="#3F3F3F"/>
</svg>
