<svg width="17" height="17" viewBox="0 0 17 17" fill="none" xmlns="http://www.w3.org/2000/svg">
<path fill-rule="evenodd" clip-rule="evenodd" d="M7.47186 7.17224L13.1457 3.89398L7.45402 1.12891L1.79807 3.89398L7.47186 7.17224ZM6.70438 15.416V8.46976L1.44531 5.44023V12.3708L6.70438 15.416Z" fill="white"/>
<path fill-rule="evenodd" clip-rule="evenodd" d="M9.59315 8.88893C9.59315 7.64183 10.6041 6.63086 11.8512 6.63086C13.0983 6.63086 14.1093 7.64183 14.1093 8.88893V10.5839H15.4641V15.4155H8.23828V10.5839H9.59315V8.88893ZM12.3147 11.9021H11.253V14.3173H12.3147V11.9021ZM11.8508 7.50932C11.1767 7.50932 10.6302 8.05579 10.6302 8.7299V10.584L13.0714 10.584V8.7299C13.0714 8.05579 12.5249 7.50932 11.8508 7.50932Z" fill="white"/>
</svg>
