<svg width="16" height="16" viewBox="0 0 16 16" fill="none" xmlns="http://www.w3.org/2000/svg">
<path d="M12.5881 13.0353C12.5881 13.6396 12.0964 14.1007 11.5094 14.1007H2.97474C2.37192 14.1007 1.896 13.6237 1.896 13.0353V4.44876C1.896 3.86042 2.38778 3.38339 2.97474 3.38339H7.33725L8.71739 2H2.97474C1.61046 2 0.5 3.09717 0.5 4.44876V13.0353C0.5 14.4028 1.61046 15.5 2.97474 15.5H11.5253C12.8895 15.5 14 14.4028 14 13.0353V7.26325L12.6199 8.64664V13.0353H12.5881Z" fill="white"/>
<path d="M15.1805 2.87326L13.1392 0.850975C12.9217 0.633705 12.6205 0.5 12.3193 0.5C12.0014 0.5 11.717 0.616992 11.4995 0.834262L3.83621 8.41708C3.63543 8.61764 3.5183 8.88505 3.50157 9.16917L3.50157 11.2632C3.48484 11.5975 3.60196 11.9318 3.83621 12.1657C4.05373 12.383 4.3549 12.5 4.65608 12.5C4.67281 12.5 4.70628 12.5 4.72301 12.5H6.69739C6.98183 12.4833 7.24954 12.3663 7.45033 12.1657L15.1638 4.52786C15.3813 4.31059 15.4984 4.00975 15.4984 3.70891C15.5152 3.39137 15.398 3.09053 15.1805 2.87326ZM10.3784 4.02646L12.0014 5.64763L8.23673 9.39136L6.61373 7.77019L10.3784 4.02646ZM6.69739 10.929L4.97399 11.0292L5.07438 9.3078L5.55961 8.82312L7.18261 10.4443L6.69739 10.929ZM13.0221 4.59471L11.4158 2.99025L12.3193 2.08774L13.9423 3.70891L13.0221 4.59471Z" fill="white"/>
</svg>
