<svg width="16" height="16" viewBox="0 0 16 16" fill="none" xmlns="http://www.w3.org/2000/svg">
<path fill-rule="evenodd" clip-rule="evenodd" d="M13.6693 1.57316L14.8431 2.71772C14.9688 2.84013 15.0487 2.99767 15.0613 3.15487C15.0813 3.30481 14.9648 3.56574 14.8681 3.65992L9.81872 8.58334C9.72943 8.67027 9.60047 8.71111 9.45618 8.70099C9.28102 8.69914 9.08464 8.69254 8.88451 8.68582C8.69221 8.67936 8.49646 8.67278 8.31273 8.67019C8.11598 8.66741 7.97816 8.59012 7.8411 8.45652C7.69284 8.31198 7.63566 8.16218 7.62197 7.99665L7.57086 6.86268C7.5605 6.72215 7.5815 6.57591 7.67078 6.48897L12.7201 1.56555C12.8169 1.47137 13.0535 1.33498 13.216 1.35561C13.3699 1.37515 13.5437 1.45075 13.6693 1.57316ZM1.93652 2.64564H10.552L7.219 5.85961C7.10336 5.97095 7.03886 6.12371 7.03048 6.29601H2.43649C2.16034 6.29601 1.93649 6.51987 1.93649 6.79601V8.79601C1.93649 9.07215 2.16034 9.29601 2.43649 9.29601H13.4365C13.7126 9.29601 13.9365 9.07215 13.9365 8.79601V6.79601C13.9365 6.51987 13.7126 6.29601 13.4365 6.29601H13.245L14.9365 4.66493V13.6456C14.9365 14.1979 14.4888 14.6456 13.9365 14.6456L1.93652 14.6456C1.38424 14.6456 0.936523 14.1979 0.936523 13.6456V3.64564C0.936523 3.09336 1.38424 2.64564 1.93652 2.64564ZM1.93649 10.6535C1.93649 10.3773 2.16034 10.1535 2.43649 10.1535H13.4365C13.7126 10.1535 13.9365 10.3773 13.9365 10.6535V12.6535C13.9365 12.9296 13.7126 13.1535 13.4365 13.1535H2.43649C2.16034 13.1535 1.93649 12.9296 1.93649 12.6535V10.6535Z" fill="white"/>
</svg>
