<svg width="16" height="16" viewBox="0 0 16 16" fill="none" xmlns="http://www.w3.org/2000/svg">
<path fill-rule="evenodd" clip-rule="evenodd" d="M9.58087 1.8457C8.88135 1.8457 7.99903 2.19115 6.93392 2.88204L6.92893 2.87676C6.30965 3.2791 5.82426 3.79917 5.22899 4.43697L5.22899 4.43697C4.86895 4.82273 4.46872 5.25156 3.97436 5.72345L4.40762 6.13135C6.90029 8.44469 8.28286 9.60136 9.56289 9.60136C10.2624 9.60136 11.1447 9.25592 12.2098 8.56503L12.2148 8.57031C12.9369 8.10117 13.5717 7.47196 14.368 6.68268L14.3681 6.68264C14.6677 6.38563 14.9902 6.06596 15.3489 5.72362L14.9156 5.31571C12.4229 3.00237 10.8609 1.8457 9.58087 1.8457ZM7.6529 3.64381L7.65238 3.64325C8.14738 3.13093 8.82452 2.81518 9.57127 2.81518C11.0878 2.81518 12.3171 4.11733 12.3171 5.72362C12.3171 6.53856 12.0007 7.27522 11.4909 7.80326L11.4914 7.80381C10.9964 8.31614 10.3192 8.63189 9.57249 8.63189C8.05599 8.63189 6.82663 7.32973 6.82663 5.72345C6.82663 4.90851 7.14307 4.17185 7.6529 3.64381ZM9.56659 3.78466C9.05074 3.78466 8.58461 4.0095 8.25119 4.37149L8.25649 4.3771C7.93789 4.72586 7.74192 5.20047 7.74192 5.72345C7.74192 6.79431 8.56359 7.66241 9.57717 7.66241C10.093 7.66241 10.5592 7.43756 10.8926 7.07558L10.8873 7.06997C11.2059 6.72121 11.4018 6.24659 11.4018 5.72362C11.4018 4.65276 10.5802 3.78466 9.56659 3.78466ZM2.97474 1.99964H6.70318C6.07867 2.40803 5.53108 2.87237 5.07056 3.38303H2.97474C2.38778 3.38303 1.896 3.86007 1.896 4.44841V13.035C1.896 13.6233 2.37192 14.1003 2.97474 14.1003H11.5094C12.0964 14.1003 12.5881 13.6392 12.5881 13.035H12.6199V9.26317C13.1109 8.93674 13.5803 8.5478 14 8.10987V13.035C14 14.4025 12.8895 15.4996 11.5253 15.4996H2.97474C1.61046 15.4996 0.5 14.4025 0.5 13.035V4.44841C0.5 3.09681 1.61046 1.99964 2.97474 1.99964Z" fill="white"/>
</svg>
