<svg width="17" height="17" viewBox="0 0 17 17" fill="none" xmlns="http://www.w3.org/2000/svg">
<path fill-rule="evenodd" clip-rule="evenodd" d="M7.38527 14.9187L1.98649 12.0079C1.65963 11.8316 1.45508 11.4885 1.45508 11.1163V5.18393C1.45508 4.82357 1.64698 4.49237 1.95784 4.31623L6.93117 1.49825C7.53839 1.15419 8.28268 1.15703 8.89259 1.50572L13.7972 4.30977C14.1119 4.48968 14.3068 4.82603 14.3068 5.18921V6.21264H13.1363V5.20812L8.26035 2.46529V4.64274L10.828 6.21264H8.38527C7.83298 6.21264 7.38527 6.66035 7.38527 7.21264V11.6352L4.87169 10.1869L2.87058 11.1726L7.38527 13.6296V14.9187ZM4.5654 6.44247L7.60421 4.64274V2.46529L2.65269 5.20812V10.6305L4.5654 9.60741V6.44247Z" fill="white"/>
<path fill-rule="evenodd" clip-rule="evenodd" d="M9.75722 9.11517C9.75722 7.93728 10.7121 6.98242 11.89 6.98242C13.0678 6.98242 14.0227 7.93728 14.0227 9.11517V10.6693H9.75722V9.11517ZM15.3023 10.6695H8.47754V15.1757H15.3023V10.6695ZM12.3275 11.8984H11.3248V14.1509H12.3275V11.8984ZM11.8894 7.80163C11.2527 7.80163 10.7365 8.31778 10.7365 8.95447V10.6692L13.0422 10.6692V8.95447C13.0422 8.31778 12.526 7.80163 11.8894 7.80163Z" fill="white"/>
</svg>
