<?xml version="1.0" encoding="UTF-8"?>
<svg width="16px" height="16px" viewBox="0 0 16 16" version="1.1" xmlns="http://www.w3.org/2000/svg" xmlns:xlink="http://www.w3.org/1999/xlink">
    <title>icon  / prefab / default</title>
    <g id="icon-/-prefab-/-default" stroke="none" stroke-width="1" fill="none" fill-rule="evenodd">
        <path d="M9.01093446,0.257293069 L14.9911739,3.62370791 C15.3058938,3.80087098 15.5006326,4.13396751 15.5006326,4.49512584 L15.5006328,11.4931225 C15.5006328,11.8624338 15.2970852,12.2016805 14.9712226,12.3754746 L8.48752208,15.8334626 C8.19400447,15.990006 7.84185823,15.9903446 7.54804013,15.8343659 L1.03174045,12.3750698 C0.70493456,12.2015789 0.500632643,11.861816 0.500632639,11.4918144 L0.500632563,4.49769236 C0.500632559,4.13516649 0.696835902,3.80103179 1.01342467,3.62440633 L7.05543612,0.253556938 C7.66348099,-0.0856724221 8.40419027,-0.0842572398 9.01093446,0.257293069 Z M8.44349404,1.4553223 L8.44349404,3.95766864 L11.5129336,5.75047713 L8.11643669,7.55905296 L4.48837667,5.75047713 L7.67766332,3.95766864 L7.67766332,1.4553223 L1.898437,4.60740364 L1.898437,10.8388369 L4.13088856,9.66309228 L4.13088856,6.24729579 L7.67766332,8.22739656 L7.67766332,11.8739531 L4.48837667,10.3290206 L2.15275043,11.4618665 L8.01645,14.6038628 L13.831895,11.4618665 L11.5129336,10.3290206 L8.44349404,11.8739531 L8.44349404,8.22739656 L11.8791162,6.24729579 L11.8791162,9.66309228 L14.134463,10.8388369 L14.134463,4.60740364 L8.44349404,1.4553223 Z" id="Combined-Shape-Copy" fill="#1E70EB"></path>
    </g>
</svg>
