<svg width="16" height="16" viewBox="0 0 16 16" fill="none" xmlns="http://www.w3.org/2000/svg">
<path fill-rule="evenodd" clip-rule="evenodd" d="M6.38947 2H2.97474C1.61046 2 0.5 3.09717 0.5 4.44876V13.0353C0.5 14.4028 1.61046 15.5 2.97474 15.5H11.5253C12.8895 15.5 14 14.4028 14 13.0353V9.61053C13.5767 9.88652 13.1131 10.1058 12.6199 10.2576V13.0353H12.5881C12.5881 13.6396 12.0964 14.1007 11.5094 14.1007H2.97474C2.37192 14.1007 1.896 13.6237 1.896 13.0353V4.44876C1.896 3.86042 2.38778 3.38339 2.97474 3.38339H5.74142C5.89324 2.88897 6.11287 2.42422 6.38947 2Z" fill="white"/>
<path d="M11 0.5C8.51446 0.5 6.5 2.51471 6.5 5C6.5 7.48529 8.51446 9.5 11 9.5C13.485 9.5 15.5 7.48529 15.5 5C15.5 2.51471 13.485 0.5 11 0.5ZM13.8633 6.39526C13.9155 6.43923 13.8975 6.54774 13.8221 6.63723L13.1024 7.49454C13.0276 7.58429 12.9237 7.62106 12.8715 7.57708L11.0003 6.00697L9.12903 7.57683C9.07683 7.62106 8.97346 7.58403 8.89811 7.49454L8.17837 6.63723C8.10354 6.54749 8.08503 6.43897 8.13723 6.39526L9.80017 4.99974L8.13723 3.60449C8.08503 3.56026 8.10303 3.452 8.17837 3.36251L8.8976 2.5052C8.97294 2.4152 9.07631 2.37869 9.12903 2.42266L11.0003 3.99277L12.8715 2.42266C12.9242 2.37869 13.0276 2.41546 13.1029 2.5052L13.8221 3.36251C13.8975 3.452 13.9155 3.56051 13.8633 3.60449L12.2003 5L13.8633 6.39526Z" fill="white"/>
</svg>
