<svg width="18" height="14" viewBox="0 0 18 14" fill="none" xmlns="http://www.w3.org/2000/svg">
<path d="M12.9045 11.4924C12.9045 12.0966 12.4128 12.5577 11.8258 12.5577H3.29114C2.68832 12.5577 2.21241 12.0807 2.21241 11.4924V2.90579C2.21241 2.31746 2.70419 1.84042 3.29114 1.84042H7.06865L9.0338 0.457031H3.29114C1.92686 0.457031 0.816406 1.5542 0.816406 2.90579V11.4924C0.816406 12.8599 1.92686 13.957 3.29114 13.957H11.8417C13.2059 13.957 14.3164 12.8599 14.3164 11.4924V9.37588L12.9045 10.3112L12.9363 11.4924H12.9045Z" fill="white"/>
<path fill-rule="evenodd" clip-rule="evenodd" d="M8.1081 2.41744C9.26822 1.70686 10.2292 1.35156 10.9911 1.35156C12.3848 1.35156 14.4386 2.54055 17.1526 4.91852L17.6244 5.33782C16.1962 6.62491 14.941 7.60032 13.8589 8.26404L13.8532 8.25831C12.6931 8.9689 11.7321 9.32419 10.9702 9.32419C9.57652 9.32419 7.52267 8.1352 4.80864 5.75723L4.33691 5.33793C5.76512 4.05084 7.02027 3.07543 8.10237 2.41171L8.1081 2.41744ZM8.89054 3.2001L8.89062 3.20019C8.33552 3.74298 7.99098 4.50022 7.99098 5.33793C7.99098 6.98909 9.32951 8.32762 10.9807 8.32762C11.7941 8.32762 12.5317 8.00274 13.0708 7.47565L13.0707 7.47556C13.6258 6.93277 13.9703 6.17553 13.9703 5.33782C13.9703 3.68666 12.6318 2.34813 10.9806 2.34813C10.1672 2.34813 9.42957 2.67301 8.89054 3.2001ZM9.54331 3.94792C9.90633 3.57582 10.4139 3.34469 10.9755 3.34469C12.0791 3.34469 12.9737 4.23704 12.9737 5.33782C12.9737 5.8758 12.7601 6.364 12.4127 6.72257L12.418 6.72783C12.055 7.09993 11.5474 7.33106 10.9858 7.33106C9.88218 7.33106 8.98755 6.43871 8.98755 5.33793C8.98755 4.79995 9.20123 4.31175 9.54857 3.95318L9.54331 3.94792Z" fill="white"/>
</svg>
