<svg width="16" height="16" viewBox="0 0 16 16" fill="none" xmlns="http://www.w3.org/2000/svg">
<path fill-rule="evenodd" clip-rule="evenodd" d="M0.936523 3.64551C0.936523 3.09322 1.38424 2.64551 1.93652 2.64551H13.9365C14.4888 2.64551 14.9365 3.09322 14.9365 3.64551L14.9365 13.6455C14.9365 14.1978 14.4888 14.6455 13.9365 14.6455L1.93652 14.6455C1.38424 14.6455 0.936523 14.1978 0.936523 13.6455V3.64551ZM1.93652 6.66309C1.93652 6.38694 2.16038 6.16309 2.43652 6.16309H13.4365C13.7127 6.16309 13.9365 6.38694 13.9365 6.66309V8.66309C13.9365 8.93923 13.7127 9.16309 13.4365 9.16309H2.43652C2.16038 9.16309 1.93652 8.93923 1.93652 8.66309V6.66309ZM1.93652 10.6631C1.93652 10.3869 2.16038 10.1631 2.43652 10.1631H13.4365C13.7127 10.1631 13.9365 10.3869 13.9365 10.6631V12.6631C13.9365 12.9392 13.7127 13.1631 13.4365 13.1631H2.43652C2.16038 13.1631 1.93652 12.9392 1.93652 12.6631V10.6631Z" fill="white"/>
</svg>
