<svg width="12" height="12" viewBox="0 0 12 12" fill="none" xmlns="http://www.w3.org/2000/svg">
<path fill-rule="evenodd" clip-rule="evenodd" d="M3 4.60547C3 2.94862 4.34315 1.60547 6 1.60547C7.65685 1.60547 9 2.94862 9 4.60547V5.84076H10V6.60547C10 7.53544 10 8.00043 9.89778 8.38193C9.62038 9.4172 8.81173 10.2258 7.77646 10.5032C7.39496 10.6055 6.92997 10.6055 6 10.6055C5.07003 10.6055 4.60504 10.6055 4.22354 10.5032C3.18827 10.2258 2.37962 9.4172 2.10222 8.38193C2 8.00043 2 7.53544 2 6.60547V5.84076H3V4.60547ZM5.25 6.89953V9.54659H6.75V6.89953H5.25ZM6 2.66429C4.89543 2.66429 4 3.55972 4 4.66429V5.84076L8 5.84076V4.66429C8 3.55972 7.10457 2.66429 6 2.66429Z" fill="white"/>
</svg>
