<?xml version="1.0" encoding="utf-8"?>
<!-- Generator: Adobe Illustrator 18.1.1, SVG Export Plug-In . SVG Version: 6.00 Build 0)  -->
<!DOCTYPE svg PUBLIC "-//W3C//DTD SVG 1.1//EN" "http://www.w3.org/Graphics/SVG/1.1/DTD/svg11.dtd">
<svg version="1.1" id="Layer_1" xmlns:sketch="http://www.bohemiancoding.com/sketch/ns"
	 xmlns="http://www.w3.org/2000/svg" xmlns:xlink="http://www.w3.org/1999/xlink" x="0px" y="0px" viewBox="-283 285 32 32"
	 enable-background="new -283 285 32 32" xml:space="preserve">
<title></title>
<desc></desc>
<path fill="#EDAF14" d="M-268.6,290.1c0.9-1.4,2.3-1.4,3.2,0l10.8,17.4c1.2,1.9,0.3,3.4-1.9,3.4h-20.9c-2.2,0-3.1-1.5-1.9-3.4
	L-268.6,290.1L-268.6,290.1z M-267.6,290.5 M-267,305.9c-0.8,0-1.4,0.6-1.4,1.4s0.6,1.4,1.4,1.4s1.4-0.6,1.4-1.4
	S-266.2,305.9-267,305.9z M-265.6,303V297c0-0.8-0.6-1.4-1.4-1.4l0,0c-0.8,0-1.4,0.6-1.4,1.4v6.1c0,0.8,0.6,1.4,1.4,1.4l0,0
	C-266.2,304.4-265.6,303.8-265.6,303z"/>
</svg>
