<svg width="400" height="100" xmlns="http://www.w3.org/2000/svg">
 <style type="text/css">.st0{fill:#FFFFFF;}
	.st1{fill:#0073BB;}
	.st2{fill:none;}
	.st3{fill-rule:evenodd;clip-rule:evenodd;fill:#FF9900;}
	.st4{fill-rule:evenodd;clip-rule:evenodd;fill:#FFFFFF;}</style>

 <g>
  <title>background</title>
  <rect fill="none" id="canvas_background" height="102" width="402" y="-1" x="-1"/>
 </g>
 <g>
  <title>Layer 1</title>
  <g id="svg_1">
   <path id="svg_2" d="m217.92846,62.61927c-2.03,0.63 -4.175,0.657 -5.882,0.076c-0.863,-0.294 -2.383,-1.017 -2.859,-2.553c-0.476,-1.536 0.369,-2.991 0.915,-3.723c1.079,-1.445 2.862,-2.635 4.894,-3.265c1.081,-0.335 2.166,-0.492 3.189,-0.492c2.708,0 4.975,1.108 5.553,2.97c0.793,2.566 -1.867,5.765 -5.81,6.987m-9.63,-19.234c-0.314,2.83 -0.709,5.352 -1.358,7.593c-0.161,0.557 -0.942,0.553 -1.096,-0.006c-0.544,-1.984 -0.956,-4.187 -1.231,-6.597c-1.563,-13.681 0.43,-17.58 1.359,-18.622c0.438,-0.491 0.803,-0.554 1.071,-0.554c0.608,0 0.64,0.035 0.755,0.164c0.522,0.586 2.105,3.613 0.5,18.022m-90.557,9.482c-0.608,-1.905 -1.109,-4.169 -1.437,-6.859c-1.528,-12.532 0.365,-16.21 1.249,-17.209c0.359,-0.406 0.735,-0.595 1.183,-0.595c0.687,0 1.097,0.024 1.54,0.522c0.783,0.882 2.448,4.24 1.008,16.355c-0.343,2.886 -1.246,5.517 -2.464,7.875c-0.237,0.459 -0.922,0.404 -1.079,-0.089m59.76,12.42c0.001,0.094 0.084,0.388 0.381,0.388l0.115,0l3.368,0l0.307,0c0.337,0 0.356,-0.292 0.359,-0.436c0.103,-7.574 2.897,-12.382 4.832,-12.382c1.796,0 3.468,2.278 4.257,5.805c1.298,5.801 5.392,8.114 8.463,8.33c0.062,0.005 0.212,0.017 0.434,0.017c0.996,0 3.42,-0.222 5.54,-2.16c0.159,-0.146 0.311,-0.3 0.455,-0.459c0.229,-0.251 0.608,-0.26 0.842,-0.014c0.987,1.038 2.286,1.857 3.81,2.378c1.273,0.433 2.653,0.649 4.075,0.649c1.467,0 2.977,-0.23 4.458,-0.689c6.375,-1.976 10.168,-7.4 8.634,-12.35c-1.533,-4.95 -7.729,-7.279 -14.104,-5.303c-0.46,0.142 -0.909,0.304 -1.351,0.486c-0.316,0.13 -0.645,-0.151 -0.58,-0.487c0.317,-1.632 0.559,-3.36 0.764,-5.2c1.721,-15.453 0.065,-19.531 -1.567,-21.355c-1.425,-1.592 -3.13,-1.592 -3.949,-1.592c-1.139,0 -2.805,0.344 -4.271,1.986c-2.94,3.296 -3.731,10.48 -2.419,21.964c0.608,5.318 1.86,9.786 3.708,13.328c0.127,0.242 0.169,0.522 0.098,0.787c-0.309,1.144 -0.796,2.046 -1.453,2.666c-1.22,1.151 -2.712,1.077 -2.783,1.075c-3.517,-0.248 -4.576,-4.801 -4.62,-4.995c-1.284,-5.731 -4.439,-9.155 -8.44,-9.155c-2.755,0 -5.151,2.064 -6.795,5.456c-0.122,0.25 -0.483,0.25 -0.605,0c-1.645,-3.392 -4.04,-5.456 -6.795,-5.456c-1.802,0 -3.45,0.884 -4.835,2.444l0,-0.059c0,-0.585 -0.475,-1.06 -1.06,-1.06l-2.316,0c-0.498,0 -0.91,0.396 -0.92,0.895c-0.156,7.688 -2.306,11.924 -3.809,11.924c-1.808,0 -4.513,-4.814 -4.672,-12.141c-0.007,-0.375 -0.309,-0.678 -0.684,-0.678l-2.948,0c-0.367,0 -0.661,0.296 -0.671,0.664c-0.194,7.197 -3.526,12.155 -6.526,12.155c-3.002,0 -6.337,-4.966 -6.526,-12.172c-0.01,-0.358 -0.296,-0.647 -0.654,-0.647l-3.097,0c-0.293,-0.007 -0.543,0.269 -0.543,0.553l-0.002,0.262c-0.027,5.272 -1.158,9.045 -3.273,10.917c-1.717,1.52 -3.58,1.312 -3.626,1.309l-0.101,-0.015c-0.195,-0.023 -2.962,-0.425 -5.61,-3.903c-0.203,-0.268 -0.203,-0.635 -0.016,-0.914c2.333,-3.484 4.188,-7.665 4.764,-12.517c1.243,-10.463 0.588,-16.725 -2.061,-19.708c-1.743,-1.962 -3.846,-1.962 -4.745,-1.962c-1.692,0 -3.211,0.706 -4.393,2.041c-2.842,3.208 -3.593,9.938 -2.295,20.571c0.582,4.768 1.691,8.439 3.04,11.262c0.127,0.266 0.09,0.581 -0.101,0.805c-3.583,4.198 -7.658,6.924 -9.395,7.983c-0.478,0.292 -0.643,0.903 -0.381,1.397l0.526,0.996l0.488,0.929c0.283,0.538 0.96,0.728 1.482,0.415c1.786,-1.063 5.696,-3.627 9.418,-7.624c0.317,-0.341 0.856,-0.344 1.166,0.003c3.414,3.82 6.983,4.409 7.612,4.485c0.571,0.078 3.883,0.393 6.952,-2.241c1.034,-0.887 1.902,-1.995 2.605,-3.314c0.17,-0.319 0.627,-0.33 0.811,-0.018c1.962,3.337 4.778,5.395 7.954,5.395c3.188,0 6.011,-2.074 7.974,-5.433c0.203,-0.346 0.705,-0.327 0.879,0.034c1.615,3.355 3.956,5.398 6.649,5.398c1.439,0 2.721,-0.543 3.818,-1.569c0,0.586 0.475,1.061 1.061,1.061l1.835,0l0.653,0c0.41,-0.016 0.735,-0.376 0.737,-0.785l0.001,-0.279c0.06,-7.684 2.884,-12.57 4.834,-12.57c1.926,0 4.703,4.765 4.831,12.279" class="st0"/>
   <path id="svg_3" d="m384.61146,49.71627c-0.17,0.661 -1.119,0.651 -1.281,-0.011c-0.499,-2.031 -0.88,-4.265 -1.14,-6.695c-1.599,-14.945 0.496,-19.081 1.472,-20.166c0.405,-0.452 0.725,-0.51 0.957,-0.51c0.555,0 0.58,0.027 0.685,0.144c0.546,0.605 2.202,3.801 0.569,19.473c-0.299,2.874 -0.671,5.453 -1.262,7.765m-18.516,9.868l0,-0.38c0.214,-2.595 2.271,-4.306 4.37,-5.464l0.149,-0.081c0.446,-0.207 0.912,-0.388 1.392,-0.536c1.081,-0.335 2.166,-0.493 3.188,-0.493c2.398,0 4.449,0.871 5.287,2.364l0.021,0.044c0.095,0.253 0.186,0.511 0.284,0.757l0.015,0.043c0.568,2.522 -2.039,5.563 -5.862,6.748c-2.03,0.631 -4.175,0.658 -5.882,0.076c-0.863,-0.294 -2.383,-1.016 -2.859,-2.553c-0.052,-0.168 -0.077,-0.329 -0.1,-0.494m-43.049,-0.292c-1.079,1.445 -2.863,2.635 -4.895,3.264c-2.031,0.631 -4.175,0.658 -5.882,0.076c-0.863,-0.294 -2.383,-1.016 -2.859,-2.553c-0.333,-1.074 -0.056,-2.26 0.664,-3.364l0.117,-0.161c0.567,-0.801 1.073,-1.195 1.446,-1.538l0.098,-0.092c0.958,-0.77 2.143,-1.416 3.483,-1.831c1.06,-0.328 2.148,-0.492 3.191,-0.492c0.956,0 1.874,0.138 2.69,0.417c0.863,0.293 2.384,1.017 2.859,2.553c0.479,1.534 -0.366,2.99 -0.912,3.721m-28.552,29.89c-1.007,2.223 -4.11,2.363 -5.253,0.207l-0.079,-0.156c-0.929,-1.914 -1.536,-6.437 4.832,-15.217c0.224,-0.31 0.793,-1.051 1.062,-1.392c0.268,-0.342 0.672,-0.358 0.895,-0.065c0.162,0.213 0.191,0.647 0.191,0.961c0.143,9.002 -0.643,13.446 -1.648,15.662m-57.203,-34.945c0.084,-0.335 0.45,-0.729 0.679,-0.929c2.25,-1.612 5.059,-1.903 6.66,-0.514l0.113,0.096c0.185,0.182 0.444,0.513 0.385,0.891c-0.103,0.649 -1.57,1.888 -3.568,1.899l-0.224,-0.007c-1.166,-0.034 -2.438,-0.08 -3.781,-0.829c-0.143,-0.118 -0.332,-0.333 -0.264,-0.607m161.337,4.127l-2.206,-0.493c-0.504,-0.113 -1.018,0.162 -1.19,0.648c-0.489,1.378 -1.746,3.937 -4.377,4.138l-0.052,0.002c-0.207,0.003 -1.548,-0.007 -2.673,-1.036c-0.952,-0.872 -1.554,-2.326 -1.783,-4.242c-0.027,-0.227 0.023,-0.458 0.133,-0.659c2.183,-4.006 3.064,-8.692 3.654,-14.358c1.734,-16.651 0.03,-20.924 -1.649,-22.787c-1.405,-1.561 -3.068,-1.561 -3.868,-1.561c-1.1,0 -2.712,0.335 -4.146,1.931c-3.041,3.384 -3.874,11.066 -2.545,23.488c0.154,1.458 0.358,2.85 0.6,4.184c0.098,0.537 -0.379,0.989 -0.916,0.893c-0.873,-0.158 -1.791,-0.225 -2.738,-0.2l0,-0.002l-0.172,0.007c-0.173,0.007 -0.345,0.009 -0.52,0.022c-2.198,0.095 -3.975,0.624 -5.429,1.429c-2.065,0.966 -3.828,2.352 -5.076,4.023c-0.855,1.145 -1.43,2.383 -1.708,3.634c-0.186,0.833 -0.466,1.646 -0.923,2.366c-1.202,1.892 -2.389,2.867 -4.576,2.867c-0.838,0 -1.429,-0.243 -1.916,-0.788c-1.582,-1.771 -1.537,-5.98 -1.388,-7.453c0.414,-2.025 -0.279,-3.341 -0.943,-4.093c-2.084,-2.363 -6.316,-2.104 -9.916,-1.767l-0.138,-0.166c-0.576,-0.661 -1.639,-1.449 -3.418,-1.449c-1.268,0 -2.027,0.531 -2.439,0.976c-0.555,0.597 -0.824,1.391 -0.761,2.235c0.103,1.372 1.199,2.43 2.82,2.751c0.092,0.029 0.185,0.053 0.284,0.074c0.219,0.046 0.381,0.237 0.381,0.462c-0.018,3.665 -0.835,6.371 -2.386,7.865c-1.549,1.49 -3.398,1.369 -3.45,1.364l-0.079,-0.007c-4.504,-0.298 -4.733,-4.582 -4.733,-5.438l0,-7.386c0,-0.569 -0.46,-1.03 -1.029,-1.03l-2.228,0c-0.568,0 -1.029,0.461 -1.029,1.029c-0.41,-0.273 -1.046,-0.672 -1.657,-0.875c-2.59,-0.863 -5.574,-0.869 -8.493,0.037c-3.005,0.931 -5.435,2.629 -7.005,4.681c-0.186,0.222 -0.369,0.438 -0.555,0.658c-0.827,0.854 -1.783,1.826 -2.809,2.869c-0.479,0.487 -0.97,0.986 -1.468,1.494c-0.616,0.628 -1.684,0.192 -1.684,-0.687l0,-7.718c0,-0.436 -0.354,-0.789 -0.789,-0.789l-2.974,0c-0.605,0 -0.559,0.672 -0.559,0.672c-0.112,7.353 -3.493,12.444 -6.533,12.444c-3.025,0 -6.502,-5.042 -6.531,-12.339l-0.001,-0.058c0,-0.752 -0.811,-0.718 -0.811,-0.718l-2.817,0c-0.553,0 -1.012,0.436 -1.028,0.988c-0.202,6.81 -2.493,11.831 -5.486,11.831c-4.134,0 -5.239,-6.48 -5.525,-9.373c-0.035,-2.242 -1.117,-3.472 -2.026,-4.11c-1.609,-1.131 -3.845,-1.225 -6.076,-0.867c-0.352,0.057 -0.706,-0.089 -0.927,-0.37l-0.098,-0.119c-0.639,-0.741 -1.532,-1.148 -2.518,-1.148c-2.121,0 -3.412,0.752 -4.062,2.369c-0.47,1.17 -0.153,2.67 0.768,3.649c0.408,0.434 0.904,0.74 1.452,0.912c0.354,0.11 0.548,0.487 0.401,0.829c-3.739,8.706 -12.391,8.723 -12.82,8.708c-4.828,0 -6.551,-2.553 -6.655,-3.844c0.021,-0.16 0.11,-0.55 0.459,-0.471c2.311,1.36 4.473,1.426 5.94,1.468l0.319,0.01c3.839,0 7.353,-2.476 7.833,-5.519c0.283,-1.796 -0.438,-3.629 -1.929,-4.905l-0.597,-0.454l-0.079,-0.061c-3.684,-2.515 -9.355,-1.562 -13.065,2.336c-2.05,2.153 -3.179,4.807 -3.179,7.468c0,3.43 3.398,8.258 10.908,8.258l0.238,0.002c4.804,0 14.32,-2.886 17.513,-13.969l0.061,-0.276c0.02,-0.128 0.042,-0.304 0.062,-0.514c1.814,-0.377 3.103,-0.324 3.587,0.016c0.051,0.035 0.204,0.144 0.204,0.716l0.01,0.205c0.384,4.011 2.108,13.341 9.802,13.341c2.953,0 5.417,-1.749 7.134,-4.795c0.385,-0.682 1.361,-0.665 1.772,0c1.953,3.158 4.692,5.093 7.772,5.093c2.418,0 4.626,-1.194 6.409,-3.236l0.158,0.058l0,0.777c0,0.259 -0.1,0.51 -0.275,0.699c-2.137,2.308 -4.051,4.507 -5.345,6.291c-7.641,10.536 -6.879,16.81 -4.894,20.217c1.567,2.69 4.105,3.56 6.005,3.56c0.142,0 0.279,-0.007 0.411,-0.021c5.311,-0.597 8.662,-4.061 8.385,-21.767l0,-6.465c0,-0.265 0.1,-0.519 0.282,-0.71c1.194,-1.259 2.416,-2.519 3.592,-3.722c0.479,-0.488 1.305,-0.404 1.641,0.19c0.997,1.768 2.73,3.155 4.942,3.909c1.272,0.434 2.652,0.649 4.075,0.649c1.466,0 2.977,-0.229 4.458,-0.688c2.075,-0.644 3.938,-1.692 5.429,-3.029c0.436,-0.391 1.105,-0.362 1.475,0.092c1.429,1.755 3.568,3.023 6.483,3.225c0.098,0.008 0.278,0.021 0.522,0.021c1.174,0 3.842,-0.273 6.196,-2.476c2.452,-2.294 3.725,-5.901 3.793,-10.734c0.007,-0.555 0.452,-1.009 1.005,-1.043c2.344,-0.141 3.78,-0.062 4.389,0.249l0.049,0.021c0.171,0.079 0.223,0.225 0.214,0.374c-0.003,0.076 -0.009,0.079 -0.027,0.251l-0.032,0.229c-0.086,0.738 -0.746,7.317 2.433,10.888c1.298,1.457 3.068,2.228 5.12,2.228c2.781,0 4.74,-1.001 6.228,-2.421c0.384,-0.367 1.005,-0.364 1.386,0.007c0.957,0.935 2.175,1.678 3.591,2.159c1.272,0.434 2.652,0.649 4.075,0.649c1.467,0 2.977,-0.229 4.458,-0.688c2.497,-0.774 4.59,-2.08 6.128,-3.678c0.425,-0.443 1.158,-0.382 1.491,0.134c0.405,0.627 0.875,1.187 1.411,1.678c2.128,1.947 4.562,2.162 5.53,2.162c0.211,0 0.351,-0.01 0.405,-0.015c2.912,-0.205 6.686,-2.248 8.222,-7.272c0.171,-0.581 -0.18,-1.168 -0.769,-1.3" class="st0"/>
  </g>
  <g id="svg_4">
   <polygon id="svg_5" points="3.48945814371109,25.789274215698242 3.48945814371109,68.51627349853516 40.49245339632034,89.8792724609375 77.4944561123848,68.51627349853516 77.4944561123848,25.789274215698242 40.49245339632034,4.425273895263672 " class="st1"/>
   <polyline id="svg_6" points="0.05045706033706665,23.803274154663086 0.05045706033706665,70.50027465820312 40.49245339632034,93.85027313232422 80.93345910310745,70.50027465820312 80.93345910310745,23.803274154663086 40.49245339632034,0.4552746117115021 0.05045706033706665,23.803274154663086 " class="st2"/>
   <g id="svg_7">
    <path id="svg_8" d="m42.67146,22.27127l0.268,0.195c0.381,0.269 0.71,0.584 1.036,0.856l0.447,0.43l0.208,0.208l0.193,0.209c0.509,0.537 0.879,1.038 1.137,1.395l0.169,0.248l0.228,0.363l-2.248,1.564l-0.09,-0.096l-0.25,-0.24l-0.281,-0.25c-0.16,-0.138 -0.348,-0.294 -0.566,-0.456l-0.228,-0.163c-0.228,-0.175 -0.505,-0.329 -0.777,-0.508l-0.595,-0.327c-0.103,-0.054 -0.208,-0.105 -0.318,-0.152c-0.214,-0.103 -0.434,-0.202 -0.662,-0.291l-0.346,-0.126c-0.34,-0.143 -0.709,-0.225 -1.064,-0.328c-0.356,-0.103 -0.73,-0.144 -1.081,-0.221c-0.36,-0.05 -0.719,-0.071 -1.057,-0.11c-0.344,-0.016 -0.681,-0.004 -0.993,-0.011c-0.233,-0.012 -0.463,0.02 -0.679,0.042l-0.725,0.062l-0.651,0.116c-1.325,0.936 -2.479,2.105 -3.392,3.493c-0.978,1.487 -1.628,3.125 -1.937,4.832l0.014,-0.006c1.811,-0.729 3.707,-1.245 5.633,-1.572c0.965,-0.147 1.937,-0.268 2.912,-0.312l0.341,-0.012l0.341,-0.006l0,-0.023l1.174,-0.047l1.046,-0.03l2.122,-0.024l1.17,0.011c1.014,0.014 2.12,0.04 3.279,0.075c1.623,0.041 3.348,0.15 5.071,0.254l2.265,0.155c0.375,0.026 0.747,0.053 1.115,0.081c-1.875,-5.232 -6.76,-8.85 -12.229,-9.278z" class="st2"/>
    <path id="svg_9" d="m7.77046,50.51727c2.57,-2.375 5.119,-4.737 7.6,-7.144c0.825,-0.804 1.643,-1.612 2.452,-2.426l1.207,-1.226l1.844,-1.915c0.546,-0.547 1.144,-1.065 1.772,-1.56c-0.194,-3.936 0.842,-7.803 3.037,-11.142c2.802,-4.262 7.141,-7.149 12.216,-8.126c10.255,-1.976 20.427,4.578 22.865,14.655l0.088,0.38l-0.426,0.093l1.741,0.232c0.501,0.071 0.952,0.139 1.345,0.202l1.18,0.199l0.542,0.104l-0.459,4.634l-0.788,-0.002l-1.218,-0.018c-0.629,-0.012 -1.384,-0.033 -2.233,-0.063l-0.87,-0.023c-0.15,-0.005 -0.302,-0.01 -0.455,-0.016c0.635,0.467 1.259,0.963 1.855,1.526c1.35,1.277 2.63,2.879 3.382,4.895l0.196,0.557l0.04,0.122l0.055,0.205l0.007,0.038c0.025,0.137 0.037,0.217 0.043,0.28l0.012,0.179l0.001,0.203l-0.007,0.131l-0.032,0.269l-0.038,0.199l-0.067,0.268l-0.328,1.12l-0.332,0.94c-0.148,0.436 -0.31,0.784 -0.47,1.171c-0.157,0.384 -0.342,0.736 -0.515,1.102c-0.352,0.724 -0.733,1.405 -1.118,2.059c-0.381,0.655 -0.757,1.276 -1.13,1.879c-0.364,0.596 -0.699,1.189 -1.019,1.763l-0.308,0.577l-0.425,0.865l-0.126,0.291c-0.075,0.196 -0.172,0.389 -0.256,0.584l-0.34,0.893c-0.036,0.101 -0.069,0.202 -0.095,0.305c-0.082,0.31 -0.206,0.611 -0.286,0.928l-0.12,0.477l-0.133,0.479l-3.816,-0.288c-0.023,-0.65 -0.024,-1.308 0.025,-1.967l0.047,-0.495c0.021,-0.294 0.073,-0.583 0.124,-0.874c-0.793,0.154 -1.913,0.551 -3.13,1.542l-0.263,0.222c-2.69,2.356 -5.978,7.812 -7.05,20.41l0.196,0.142c0.984,0.717 1.963,1.428 2.943,2.114c0.225,0.157 0.449,0.31 0.673,0.465l27.527,-15.893l0,-39.77l-34.44,-19.885l-34.442,19.885l0,24.841l1.72,-1.592z" class="st2"/>
    <path id="svg_10" d="m37.70546,82.30927c-0.631,-0.501 -1.264,-0.997 -1.897,-1.486l-0.951,-0.731l-1.433,-1.072l-1.445,-1.044l-1.464,-1.004l-1.484,-0.967c-0.999,-0.625 -2.01,-1.23 -3.042,-1.796c-0.774,-0.424 -1.555,-0.839 -2.349,-1.228l-0.798,-0.379c-0.353,-0.175 -0.71,-0.339 -1.07,-0.498l-0.542,-0.234c-0.361,-0.16 -0.723,-0.319 -1.085,-0.466l-0.542,-0.209c-0.634,-0.259 -1.313,-0.502 -2.005,-0.742l-1.392,-0.481l0.755,-2.8l1.806,0.353c0.296,0.056 0.604,0.132 0.916,0.212l0.936,0.242c0.421,0.101 0.831,0.216 1.237,0.337l0.606,0.185c0.608,0.183 1.219,0.363 1.813,0.587c1.202,0.417 2.381,0.896 3.551,1.397c0.873,0.388 1.732,0.8 2.584,1.228l0.849,0.434l1.67,0.913l1.635,0.964c1.074,0.663 2.141,1.332 3.179,2.034l0.628,0.438c1.312,-10.489 4.429,-17.714 9.297,-21.481c3.802,-2.941 7.347,-2.722 8.254,-2.605l0.207,-0.436c0.33,-0.681 0.667,-1.337 0.992,-1.965l0.313,-0.625l0.148,-0.309c0.096,-0.202 0.202,-0.405 0.299,-0.606l0.407,-0.899l0.121,-0.298c0.085,-0.219 0.189,-0.451 0.27,-0.664l0.29,-0.816l0.112,-0.391c-0.382,-0.835 -1.029,-1.679 -1.853,-2.449c-1.03,-0.977 -2.314,-1.833 -3.688,-2.573c-2.768,-1.476 -5.914,-2.488 -9.098,-3.096c-1.317,-0.254 -2.69,-0.428 -4.001,-0.521l-0.778,-0.046l-0.82,-0.027l-0.398,0.003c-0.387,-0.003 -0.775,0.006 -1.16,0.033c-0.774,0.034 -1.542,0.132 -2.306,0.247c-1.522,0.262 -3.024,0.668 -4.46,1.25c-0.539,0.216 -1.069,0.453 -1.589,0.71l-0.516,0.265l-0.505,0.277l-0.432,0.253l0.035,0.067c0.115,0.203 0.244,0.532 0.476,0.908c0.256,0.359 0.508,0.846 0.936,1.308c0.383,0.5 0.904,1.001 1.514,1.523c0.619,0.513 1.35,1.031 2.201,1.496c0.319,0.175 0.646,0.355 0.994,0.519l0.355,0.156c0.469,0.225 0.97,0.42 1.492,0.602c1.033,0.387 2.158,0.68 3.316,0.952c1.168,0.24 2.373,0.452 3.597,0.585c0.508,0.059 1.018,0.109 1.527,0.151l0.764,0.056l0.03,2.438c-0.787,0.055 -1.584,0.093 -2.385,0.109c-1.309,0.036 -2.631,-0.012 -3.943,-0.103c-1.311,-0.123 -2.612,-0.281 -3.872,-0.563c-0.421,-0.086 -0.837,-0.181 -1.246,-0.292l-0.609,-0.179c-0.61,-0.161 -1.195,-0.381 -1.768,-0.602c-1.144,-0.438 -2.203,-0.979 -3.146,-1.566c-0.935,-0.595 -1.774,-1.214 -2.441,-1.856c-0.71,-0.6 -1.207,-1.245 -1.656,-1.745l-0.146,-0.182l-0.134,-0.175l-0.301,0.313c-1.242,1.277 -2.501,2.529 -3.769,3.768c-1.905,1.853 -3.835,3.666 -5.765,5.459l-4.126,3.824c-1.127,1.047 -2.247,2.094 -3.354,3.146l0,7.196l34.441,19.885l1.756,-1.014l-1.68,-1.318l-2.865,-2.284zm5.562,-36.9c-1.919,0.067 -3.533,-0.876 -3.605,-2.106c-0.073,-1.231 1.423,-2.283 3.341,-2.35c1.919,-0.066 3.533,0.877 3.606,2.107c0.073,1.23 -1.423,2.282 -3.342,2.349z" class="st2"/>
    <path id="svg_11" d="m43.79046,80.35027l-0.196,-0.142c1.072,-12.599 4.36,-18.054 7.05,-20.41l0.263,-0.222c1.217,-0.991 2.337,-1.388 3.13,-1.542c-0.051,0.291 -0.103,0.58 -0.124,0.874l-0.047,0.495c-0.05,0.659 -0.048,1.316 -0.025,1.967l3.816,0.288l0.133,-0.479l0.12,-0.477c0.08,-0.316 0.204,-0.618 0.286,-0.928c0.026,-0.103 0.059,-0.204 0.095,-0.305l0.34,-0.893c0.084,-0.195 0.181,-0.388 0.256,-0.584l0.126,-0.291l0.425,-0.865l0.308,-0.577c0.32,-0.573 0.655,-1.167 1.019,-1.763c0.373,-0.603 0.749,-1.224 1.13,-1.879c0.385,-0.654 0.766,-1.335 1.118,-2.059c0.173,-0.366 0.358,-0.718 0.515,-1.102c0.16,-0.387 0.322,-0.735 0.47,-1.171l0.332,-0.94l0.328,-1.12l0.067,-0.268l0.038,-0.199l0.032,-0.269l0.007,-0.131l-0.001,-0.203l-0.012,-0.179c-0.006,-0.063 -0.018,-0.143 -0.043,-0.28l-0.007,-0.038l-0.055,-0.205l-0.04,-0.122l-0.196,-0.557c-0.752,-2.015 -2.032,-3.617 -3.382,-4.895c-0.596,-0.562 -1.22,-1.059 -1.855,-1.526c0.153,0.006 0.305,0.011 0.455,0.016l0.87,0.023c0.849,0.03 1.604,0.051 2.233,0.063l1.218,0.018l0.788,0.002l0.459,-4.634l-0.542,-0.104l-1.18,-0.199c-0.392,-0.063 -0.844,-0.131 -1.345,-0.202l-1.741,-0.232l0.426,-0.093l-0.088,-0.38c-2.439,-10.075 -12.611,-16.629 -22.866,-14.653c-5.075,0.978 -9.414,3.864 -12.216,8.126c-2.195,3.339 -3.231,7.206 -3.037,11.142c-0.628,0.495 -1.226,1.013 -1.772,1.56l-1.844,1.915l-1.207,1.226c-0.809,0.814 -1.627,1.623 -2.452,2.426c-2.48,2.407 -5.03,4.769 -7.6,7.144l-1.842,1.701l0,7.732c1.108,-1.052 2.35,-2.21 3.477,-3.256l4.126,-3.824c1.93,-1.793 3.86,-3.605 5.765,-5.459c1.268,-1.239 2.527,-2.491 3.769,-3.768l0.301,-0.313l0.134,0.175l0.146,0.182c0.45,0.5 0.946,1.145 1.656,1.745c0.667,0.642 1.505,1.261 2.441,1.856c0.943,0.586 2.003,1.128 3.146,1.566c0.573,0.221 1.158,0.441 1.768,0.602l0.609,0.179c0.409,0.111 0.825,0.206 1.246,0.292c1.26,0.282 2.562,0.44 3.872,0.563c1.312,0.091 2.634,0.139 3.943,0.103c0.802,-0.017 1.599,-0.054 2.385,-0.109l-0.03,-2.438l-0.764,-0.056c-0.509,-0.042 -1.019,-0.092 -1.527,-0.151c-1.224,-0.133 -2.429,-0.344 -3.597,-0.585c-1.158,-0.272 -2.284,-0.565 -3.316,-0.952c-0.521,-0.181 -1.022,-0.376 -1.492,-0.602l-0.355,-0.156c-0.348,-0.163 -0.675,-0.343 -0.994,-0.519c-0.852,-0.465 -1.583,-0.983 -2.201,-1.496c-0.61,-0.522 -1.131,-1.023 -1.514,-1.523c-0.428,-0.462 -0.68,-0.949 -0.936,-1.308c-0.232,-0.376 -0.361,-0.705 -0.476,-0.908l-0.035,-0.067l0.432,-0.253l0.505,-0.277l0.516,-0.265c0.52,-0.257 1.05,-0.494 1.589,-0.71c1.436,-0.581 2.938,-0.987 4.46,-1.25c0.764,-0.115 1.532,-0.213 2.306,-0.247c0.386,-0.027 0.773,-0.037 1.16,-0.033l0.398,-0.003l0.82,0.027l0.778,0.046c1.311,0.093 2.684,0.267 4.001,0.521c3.184,0.608 6.33,1.62 9.098,3.096c1.373,0.741 2.658,1.597 3.688,2.573c0.824,0.771 1.471,1.614 1.853,2.449l-0.112,0.391l-0.29,0.816c-0.081,0.213 -0.185,0.445 -0.27,0.664l-0.121,0.298l-0.407,0.899c-0.098,0.201 -0.204,0.404 -0.299,0.606l-0.148,0.309l-0.313,0.625c-0.324,0.628 -0.661,1.285 -0.992,1.965l-0.207,0.436c-0.907,-0.116 -4.452,-0.336 -8.254,2.605c-4.869,3.768 -7.985,10.992 -9.297,21.481l-0.628,-0.438c-1.039,-0.702 -2.105,-1.371 -3.179,-2.034l-1.635,-0.964l-1.67,-0.913l-0.849,-0.434c-0.852,-0.428 -1.711,-0.84 -2.584,-1.228c-1.169,-0.502 -2.349,-0.98 -3.551,-1.397c-0.594,-0.224 -1.205,-0.404 -1.813,-0.587l-0.606,-0.185c-0.406,-0.121 -0.816,-0.236 -1.237,-0.337l-0.936,-0.242c-0.312,-0.08 -0.62,-0.156 -0.916,-0.212l-1.806,-0.353l-0.755,2.8l1.392,0.481c0.692,0.24 1.371,0.483 2.005,0.742l0.542,0.209c0.362,0.147 0.724,0.306 1.085,0.466l0.542,0.234c0.36,0.159 0.717,0.323 1.07,0.498l0.798,0.379c0.794,0.389 1.575,0.804 2.349,1.228c1.033,0.565 2.044,1.171 3.042,1.796l1.484,0.967l1.464,1.004l1.445,1.044l1.433,1.072l0.951,0.731c0.634,0.489 1.266,0.985 1.897,1.486l2.863,2.28l1.862,1.461l5.158,-2.978c-0.224,-0.155 -0.63,-0.452 -0.855,-0.608c-0.978,-0.682 -1.957,-1.393 -2.941,-2.11zm9.995,-48.88l-2.265,-0.155c-1.723,-0.104 -3.448,-0.213 -5.071,-0.254c-1.16,-0.036 -2.266,-0.061 -3.279,-0.075l-1.17,-0.011l-2.122,0.024l-1.046,0.03l-1.174,0.047l0,0.023l-0.341,0.006l-0.342,0.012c-0.975,0.044 -1.946,0.165 -2.912,0.312c-1.926,0.327 -3.822,0.842 -5.633,1.572l-0.014,0.006c0.309,-1.707 0.959,-3.345 1.937,-4.832c0.913,-1.388 2.067,-2.557 3.392,-3.493l0.651,-0.116l0.725,-0.062c0.215,-0.022 0.446,-0.054 0.679,-0.042c0.312,0.007 0.649,-0.005 0.993,0.011c0.338,0.039 0.697,0.06 1.057,0.11c0.351,0.076 0.726,0.118 1.081,0.221c0.355,0.104 0.724,0.186 1.064,0.328l0.346,0.126c0.228,0.089 0.447,0.188 0.662,0.291c0.11,0.046 0.216,0.098 0.318,0.152l0.595,0.327c0.272,0.179 0.549,0.333 0.777,0.508l0.228,0.163c0.218,0.162 0.407,0.317 0.566,0.456l0.281,0.25l0.25,0.24l0.09,0.096l2.248,-1.564l-0.228,-0.363l-0.169,-0.248c-0.257,-0.358 -0.628,-0.859 -1.137,-1.395l-0.193,-0.209l-0.208,-0.208l-0.447,-0.43c-0.325,-0.271 -0.654,-0.587 -1.036,-0.856l-0.268,-0.195c5.469,0.428 10.354,4.045 12.229,9.28c-0.368,-0.03 -0.74,-0.056 -1.114,-0.083z" class="st0"/>
    <path id="svg_12" d="m46.60946,43.06027c-0.073,-1.23 -1.688,-2.174 -3.606,-2.107c-1.918,0.067 -3.414,1.119 -3.341,2.35c0.072,1.23 1.687,2.173 3.605,2.106c1.919,-0.067 3.415,-1.119 3.342,-2.349z" class="st0"/>
    <path id="svg_13" d="m0.05046,70.50027l40.441,23.35l7.064,-4.079l5.609,-3.238l27.768,-16.032l0,-46.698l-40.44,-23.348l-40.442,23.348l0,33.98l0,8.033l0,4.684zm40.442,-63.117l34.441,19.885l0,39.769l-27.528,15.893l-5.158,2.978l-1.756,1.014l-34.441,-19.885l0,-7.196l0,-7.732l0,-24.841l34.442,-19.885z" class="st0"/>
   </g>
   <path id="svg_14" d="m314.36646,81.10427c0.17,0.235 0.255,0.518 0.255,0.846c0,0.339 -0.086,0.611 -0.257,0.816c-0.096,0.115 -0.236,0.221 -0.423,0.316c0.283,0.103 0.496,0.266 0.641,0.488c0.144,0.224 0.216,0.494 0.216,0.812c0,0.329 -0.082,0.624 -0.247,0.885c-0.104,0.173 -0.235,0.318 -0.393,0.437c-0.177,0.135 -0.386,0.228 -0.627,0.278c-0.24,0.05 -0.501,0.075 -0.783,0.075l-2.498,0l0,-5.545l2.68,0c0.676,0.011 1.155,0.208 1.436,0.592zm-3.01,0.372l0,1.223l1.348,0c0.241,0 0.436,-0.046 0.587,-0.138c0.149,-0.091 0.225,-0.254 0.225,-0.487c0,-0.258 -0.099,-0.429 -0.298,-0.512c-0.171,-0.058 -0.39,-0.086 -0.655,-0.086l-1.207,0zm0,2.141l0,1.479l1.347,0c0.24,0 0.428,-0.033 0.562,-0.099c0.242,-0.12 0.364,-0.351 0.364,-0.691c0,-0.289 -0.118,-0.487 -0.354,-0.595c-0.131,-0.061 -0.316,-0.092 -0.554,-0.094l-1.365,0z" class="st0"/>
   <polygon id="svg_15" points="319.03546410799026,80.51327514648438 320.3484829068184,80.51327514648438 318.49347192049026,83.9792709350586 318.49347192049026,86.05827331542969 317.33548241853714,86.05827331542969 317.33548241853714,83.9792709350586 315.417483150959,80.51327514648438 316.782473385334,80.51327514648438 317.93448144197464,82.92826843261719 " class="st0"/>
   <path id="svg_16" d="m370.69846,92.45827c-3.861,2.85 -9.458,4.364 -14.278,4.364c-6.755,0 -12.839,-2.497 -17.441,-6.653c-0.361,-0.326 -0.039,-0.772 0.396,-0.52c4.966,2.89 11.108,4.631 17.451,4.631c4.279,0 8.983,-0.889 13.311,-2.725c0.653,-0.275 1.2,0.432 0.561,0.903z" class="st3"/>
   <path id="svg_17" d="m372.30546,90.62427c-0.493,-0.633 -3.264,-0.3 -4.509,-0.15c-0.377,0.045 -0.436,-0.285 -0.096,-0.523c2.21,-1.552 5.832,-1.104 6.253,-0.584c0.424,0.524 -0.112,4.154 -2.183,5.888c-0.319,0.266 -0.622,0.124 -0.481,-0.228c0.467,-1.164 1.51,-3.77 1.016,-4.403z" class="st3"/>
   <path id="svg_18" d="m367.88446,78.98527l0,-1.508c0.001,-0.23 0.174,-0.383 0.383,-0.382l6.76,-0.001c0.217,0 0.39,0.157 0.39,0.381l0,1.293c-0.002,0.218 -0.185,0.5 -0.509,0.95l-3.502,4.999c1.3,-0.03 2.675,0.165 3.856,0.829c0.266,0.15 0.338,0.37 0.358,0.588l0,1.609c0,0.222 -0.243,0.479 -0.498,0.345c-2.081,-1.09 -4.842,-1.209 -7.143,0.014c-0.235,0.125 -0.482,-0.128 -0.482,-0.35l0,-1.53c0,-0.245 0.005,-0.663 0.252,-1.036l4.057,-5.82l-3.532,-0.001c-0.215,0 -0.389,-0.154 -0.39,-0.38z" class="st4"/>
   <path id="svg_19" d="m381.25546,79.05527c-1.517,0 -1.612,2.064 -1.612,3.354c0,1.288 -0.02,4.042 1.594,4.042c1.594,0 1.67,-2.221 1.67,-3.575c0,-0.889 -0.038,-1.955 -0.308,-2.799c-0.231,-0.734 -0.692,-1.022 -1.344,-1.022zm-0.019,-2.155c3.053,0 4.703,2.621 4.703,5.953c0,3.221 -1.823,5.775 -4.703,5.775c-2.995,0 -4.627,-2.622 -4.627,-5.887c0,-3.286 1.651,-5.841 4.627,-5.841z" class="st4"/>
   <path id="svg_20" d="m364.56946,88.37927c-0.137,0.122 -0.385,0.126 -0.486,0.048c-0.703,-0.544 -1.179,-1.37 -1.179,-1.37c-1.129,1.149 -1.929,1.495 -3.391,1.495c-1.732,0 -3.079,-1.069 -3.079,-3.206c0,-1.67 0.904,-2.805 2.193,-3.361c1.116,-0.49 2.675,-0.579 3.867,-0.713c0,0 0.1,-1.288 -0.25,-1.759c-0.271,-0.363 -0.731,-0.534 -1.154,-0.534c-0.763,-0.003 -1.5,0.412 -1.647,1.21c-0.041,0.229 -0.21,0.42 -0.388,0.401l-1.97,-0.214c-0.15,-0.018 -0.355,-0.173 -0.307,-0.43c0.458,-2.419 2.642,-3.149 4.6,-3.149c1,0 2.309,0.268 3.098,1.024c1,0.935 0.904,2.182 0.904,3.54l0,3.204c0,0.964 0.399,1.387 0.775,1.905c0.131,0.188 0.161,0.41 -0.006,0.547c-0.418,0.354 -1.58,1.362 -1.58,1.362zm-2.074,-5.014c0,0.802 0.02,1.469 -0.385,2.182c-0.327,0.579 -0.847,0.936 -1.424,0.936c-0.788,0 -1.25,-0.602 -1.25,-1.492c0,-1.752 1.571,-2.07 3.059,-2.07l0,0.444z" class="st4"/>
   <path id="svg_21" d="m337.60746,88.37927c-0.136,0.122 -0.385,0.126 -0.486,0.048c-0.703,-0.544 -1.179,-1.37 -1.179,-1.37c-1.129,1.149 -1.929,1.495 -3.391,1.495c-1.731,0 -3.078,-1.069 -3.078,-3.206c0,-1.67 0.903,-2.805 2.193,-3.361c1.115,-0.49 2.674,-0.579 3.866,-0.713c0,0 0.1,-1.288 -0.25,-1.759c-0.271,-0.363 -0.732,-0.534 -1.154,-0.534c-0.763,-0.003 -1.5,0.412 -1.645,1.21c-0.042,0.229 -0.211,0.42 -0.388,0.401l-1.97,-0.214c-0.151,-0.018 -0.356,-0.173 -0.308,-0.43c0.458,-2.419 2.642,-3.149 4.6,-3.149c1,0 2.309,0.268 3.098,1.024c1,0.935 0.904,2.182 0.904,3.54l0,3.204c0,0.964 0.399,1.387 0.775,1.905c0.132,0.188 0.161,0.41 -0.006,0.547c-0.419,0.354 -1.581,1.362 -1.581,1.362zm-2.074,-5.014c0,0.802 0.019,1.469 -0.385,2.182c-0.326,0.579 -0.847,0.936 -1.424,0.936c-0.788,0 -1.25,-0.602 -1.25,-1.492c0,-1.752 1.571,-2.07 3.059,-2.07l0,0.444z" class="st4"/>
   <path id="svg_22" d="m343.62246,82.43027c0,-1.222 -0.059,-2.909 1.42,-2.909c1.459,0 1.268,1.732 1.268,2.909l0.002,5.597c0,0.202 0.162,0.365 0.369,0.379l2.055,0c0.219,0 0.396,-0.169 0.396,-0.38l0,-5.596c0,-0.6 -0.019,-1.487 0.192,-2.021c0.211,-0.532 0.729,-0.866 1.229,-0.866c0.595,0 1.056,0.2 1.209,0.911c0.096,0.423 0.058,1.533 0.058,1.977l0.001,5.597c0,0.202 0.162,0.365 0.368,0.379l2.055,0c0.22,0 0.397,-0.169 0.397,-0.38l0.002,-6.661c0,-1.133 0.134,-2.421 -0.519,-3.31c-0.576,-0.8 -1.517,-1.155 -2.381,-1.155c-1.209,0 -2.342,0.622 -2.841,1.955c-0.576,-1.333 -1.383,-1.955 -2.669,-1.955c-1.267,0 -2.208,0.622 -2.707,1.955l-0.038,0l0,-1.349c0,-0.212 -0.172,-0.384 -0.385,-0.384l-1.919,0c-0.212,0 -0.384,0.172 -0.384,0.384l0,10.516c0,0.212 0.172,0.384 0.384,0.384l2.054,0c0.212,0 0.385,-0.172 0.385,-0.384l0,-5.593l-0.001,0z" class="st4"/>
   <path id="svg_23" d="m390.30046,88.02227c0,0.212 -0.172,0.384 -0.385,0.384l-2.054,0c-0.212,0 -0.384,-0.172 -0.384,-0.384l0,-10.516c0,-0.212 0.172,-0.384 0.384,-0.384l1.899,0c0.223,0 0.384,0.179 0.384,0.3l0,1.61l0.04,0c0.576,-1.444 1.382,-2.133 2.803,-2.133c0.922,0 1.824,0.333 2.4,1.244c0.537,0.844 0.537,2.265 0.537,3.287l0,6.643c-0.023,0.187 -0.191,0.332 -0.395,0.332l-2.062,0c-0.19,-0.013 -0.344,-0.152 -0.366,-0.332l0.004,-6.378c0,-2.135 -0.818,-2.197 -1.29,-2.197c-0.549,0 -0.99,0.429 -1.184,0.829c-0.287,0.644 -0.333,1.303 -0.333,2.015l0,5.68l0.002,0z" class="st4"/>
  </g>
 </g>
</svg>