<?xml version="1.0" encoding="UTF-8"?>
<svg width="323px" height="98px" viewBox="0 0 323 98" version="1.1" xmlns="http://www.w3.org/2000/svg" xmlns:xlink="http://www.w3.org/1999/xlink">
    <title>Group 12</title>
    <defs>
        <polygon id="path-1" points="0 97.741 322.084 97.741 322.084 0 0 0"></polygon>
    </defs>
    <g id="Page-1" stroke="none" stroke-width="1" fill="none" fill-rule="evenodd">
        <g id="Group-12" transform="translate(0.000000, 0.000000)">
            <path d="M99.7068,20.425 C91.1008,11.686 79.6658,6.841 67.5068,6.782 L67.2838,6.781 C62.9678,6.781 58.7408,7.396 54.6908,8.566 L54.6908,25.339 C58.5158,23.54 62.6988,22.563 67.0218,22.517 C67.1388,22.516 67.2538,22.515 67.3698,22.515 C75.1318,22.515 82.4608,25.519 88.0388,30.996 C93.7828,36.635 96.9708,44.124 97.0168,52.084 C97.0628,60.037 93.9658,67.554 88.2968,73.251 C82.6908,78.884 75.2578,82 67.3558,82.025 L67.2718,82.025 C59.4228,82.025 51.9878,78.959 46.3368,73.393 C40.6918,67.833 37.5578,60.397 37.5108,52.453 C37.4888,48.659 38.1798,44.975 39.5088,41.546 L23.0748,41.546 C19.4908,56.362 23.4348,72.648 34.9328,84.219 C43.5408,92.882 54.9608,97.683 67.0878,97.738 L67.3028,97.738 L67.3058,97.738 C79.3458,97.738 90.7008,93.045 99.2768,84.524 C107.8718,75.984 112.6488,64.62 112.7288,52.524 C112.8088,40.435 108.1838,29.035 99.7068,20.425" id="Fill-1" fill="#FFFFFF"></path>
            <path d="M175.6326,27.8629 C175.6326,33.3889 173.9586,38.0879 170.6116,41.9599 C167.2646,45.8319 162.5656,48.4939 156.5146,49.9459 L156.5146,50.3089 C163.6536,51.1969 169.0586,53.3629 172.7296,56.8129 C176.3996,60.2619 178.2356,64.9099 178.2356,70.7579 C178.2356,79.2689 175.1496,85.8939 168.9786,90.6319 C162.8076,95.3719 153.9936,97.7409 142.5386,97.7409 C132.9386,97.7409 124.4286,96.1489 117.0076,92.9609 L117.0076,77.0489 C120.4356,78.7839 124.2076,80.1959 128.3216,81.2839 C132.4356,82.3729 136.5096,82.9179 140.5426,82.9179 C146.7146,82.9179 151.2716,81.8699 154.2156,79.7719 C157.1596,77.6749 158.6326,74.3079 158.6326,69.6679 C158.6326,65.5139 156.9386,62.5699 153.5506,60.8349 C150.1626,59.1009 144.7576,58.2329 137.3366,58.2329 L130.6206,58.2329 L130.6206,43.8939 L137.4576,43.8939 C144.3146,43.8939 149.3246,42.9979 152.4916,41.2019 C155.6576,39.4079 157.2406,36.3319 157.2406,31.9759 C157.2406,25.2809 153.0456,21.9329 144.6566,21.9329 C141.7526,21.9329 138.7986,22.4169 135.7936,23.3849 C132.7886,24.3529 129.4506,26.0279 125.7806,28.4069 L117.1306,15.5199 C125.1956,9.7119 134.8166,6.8079 145.9886,6.8079 C155.1446,6.8079 162.3736,8.6639 167.6786,12.3739 C172.9806,16.0869 175.6326,21.2499 175.6326,27.8629" id="Fill-3" fill="#FFFFFF"></path>
            <path d="M241.8563,51.9425 C241.8563,32.9455 233.4653,23.4465 216.6883,23.4465 L206.7053,23.4465 L206.7053,81.0435 L214.7523,81.0435 C232.8213,81.0435 241.8563,71.3435 241.8563,51.9425 M261.3363,51.4595 C261.3363,66.0195 257.1933,77.1715 248.9043,84.9165 C240.6153,92.6605 228.6463,96.5325 212.9973,96.5325 L187.9503,96.5325 L187.9503,8.0815 L215.7193,8.0815 C230.1593,8.0815 241.3723,11.8925 249.3583,19.5155 C257.3433,27.1365 261.3363,37.7855 261.3363,51.4595" id="Fill-5" fill="#FFFFFF"></path>
            <mask id="mask-2" fill="white">
                <use xlink:href="#path-1"></use>
            </mask>
            <g id="Clip-8"></g>
            <polygon id="Fill-7" fill="#FFFFFF" mask="url(#mask-2)" points="23.185 30.421 45.046 30.421 45.046 8.56 23.185 8.56"></polygon>
            <polygon id="Fill-9" fill="#FFFFFF" mask="url(#mask-2)" points="5.251 9.038 14.289 9.038 14.289 0 5.251 0"></polygon>
            <polygon id="Fill-10" fill="#FFFFFF" mask="url(#mask-2)" points="0 36.195 14.18 36.195 14.18 22.015 0 22.015"></polygon>
            <polygon id="Fill-11" fill="#FFFFFF" mask="url(#mask-2)" points="322.0838 96.4337 271.0538 96.4337 271.0538 7.8287 322.0838 7.8287 322.0838 23.2227 289.8418 23.2227 289.8418 42.6767 319.8418 42.6767 319.8418 58.0707 289.8418 58.0707 289.8418 80.9187 322.0838 80.9187"></polygon>
        </g>
    </g>
</svg>
