<?xml version="1.0" encoding="UTF-8"?>
<svg width="24px" height="24px" viewBox="-4, -4, 28, 28" version="1.1" xmlns="http://www.w3.org/2000/svg" xmlns:xlink="http://www.w3.org/1999/xlink">
    <title>Icons / System / Unlink</title>
    <g id="All-use-case" stroke="none" stroke-width="1" fill="none" fill-rule="evenodd">
        <g id="Use-case---Main-page-" transform="translate(-1296.000000, -310.000000)">
            <g id="Group" transform="translate(1294.000000, 308.240103)">
                <rect id="Icon-Background" fill-opacity="0" fill="#D8D8D8" x="0" y="0" width="24" height="24"></rect>
                <path d="M8.5,8.5 L3,8.5 L3,7 L7,7 L7,3 L8.5,3 L8.5,8.5 Z" id="Combined-Shape" fill="#FFFFFF"></path>
                <path d="M21,21 L15.5,21 L15.5,19.5 L19.5,19.5 L19.5,15.5 L21,15.5 L21,21 Z" id="Combined-Shape" fill="#FFFFFF" transform="translate(18.250000, 18.250000) rotate(180.000000) translate(-18.250000, -18.250000) "></path>
                <path d="M21,8.75 L21.25,15 L14.75,15.25 L20.75,14.75 L20.75,9.25 L14.75,9.25 L14.75,8.75 L21,8.75 Z M9.25,8.75 L9.25,9.25 L3.25,9.25 L3.25,14.75 L9.25,14.75 L9.25,15.25 L3,15.25 L2.75,9 L9.25,8.75 Z" id="Link" stroke="#FFFFFF" stroke-width="1.5" transform="translate(12.000000, 12.000000) rotate(-45.000000) translate(-12.000000, -12.000000) "></path>
            </g>
        </g>
    </g>
</svg>
