<?xml version="1.0" encoding="utf-8"?>
<!-- Generator: Adobe Illustrator 25.4.1, SVG Export Plug-In . SVG Version: 6.00 Build 0)  -->
<svg version="1.1" id="Layer_1" xmlns="http://www.w3.org/2000/svg" xmlns:xlink="http://www.w3.org/1999/xlink" x="0px" y="0px"
	 viewBox="0 0 24 24" style="enable-background:new 0 0 24 24;" xml:space="preserve">
<style type="text/css">
	.st0{fill:#FFFFFF;}
</style>
<g>
	<path class="st0" d="M16.9,16.7c0,0.7-0.6,1.3-1.3,1.3h-7c-0.7,0-1.3-0.6-1.3-1.3v-0.5h-2v0.5c0,1.8,1.5,3.3,3.3,3.3h2
		c-0.2,0.5-0.1,1.2,0.3,1.6c0.6,0.6,1.5,0.6,2.1,0c0.4-0.4,0.5-1,0.3-1.6h2.3c1.8,0,3.3-1.5,3.3-3.3v-0.5l-2,0V16.7z M12.3,20.9
		c-0.2,0.2-0.6,0.2-0.8,0c-0.2-0.2-0.2-0.5,0-0.8c0.2-0.2,0.5-0.2,0.8,0c0,0,0,0,0,0C12.5,20.3,12.5,20.7,12.3,20.9z"/>
	<rect x="6.5" y="8" transform="matrix(0.9939 -0.1101 0.1101 0.9939 -0.8771 1.3776)" class="st0" width="11" height="1.4"/>
	<rect x="6.5" y="10.6" transform="matrix(0.9939 -0.1101 0.1101 0.9939 -1.1681 1.3937)" class="st0" width="11" height="1.4"/>
	<rect x="6.5" y="13.2" transform="matrix(0.9939 -0.1101 0.1101 0.9939 -1.4588 1.4055)" class="st0" width="11" height="1.4"/>
	<path class="st0" d="M13.3,4c0.1-0.2,0.1-0.3,0.1-0.5c0-0.8-0.6-1.4-1.4-1.4s-1.4,0.6-1.4,1.4c0,0.2,0,0.4,0.1,0.5H5.2v2.3h13.6V4
		H13.3z M12,4c-0.3,0-0.6-0.3-0.6-0.6c0-0.3,0.3-0.6,0.6-0.6s0.6,0.3,0.6,0.6C12.6,3.7,12.3,4,12,4z"/>
</g>
</svg>
