<?xml version="1.0" encoding="utf-8"?>
<!-- Generator: Adobe Illustrator 25.4.1, SVG Export Plug-In . SVG Version: 6.00 Build 0)  -->
<svg version="1.1" id="Layer_1" xmlns="http://www.w3.org/2000/svg" xmlns:xlink="http://www.w3.org/1999/xlink" x="0px" y="0px"
	 viewBox="0 0 24 24" style="enable-background:new 0 0 24 24;" xml:space="preserve">
<style type="text/css">
	.st0{fill:#FFFFFF;}
</style>
<g>
	<path class="st0" d="M3,17.9v1.3c5.9,1.2,12.1,1.2,18,0v-1.3C15.1,19.1,8.9,19.1,3,17.9z"/>
	<path class="st0" d="M3,15.9v1.3c5.9,1.2,12.1,1.2,18,0v-1.3C15.1,17.2,8.9,17.2,3,15.9z"/>
	<path class="st0" d="M3,14v1.3c5.9,1.2,12.1,1.2,18-0.1v-1.3C15.1,15.2,8.9,15.3,3,14z"/>
	<path class="st0" d="M6.5,11.5c0.1,0.1,0.2,0.2,0.4,0.2c0.1,0,0.3-0.1,0.4-0.2l2-2.1c0.2-0.2,0.2-0.5,0-0.8c-0.2-0.2-0.5-0.2-0.7,0
		c0,0,0,0,0,0L7.4,9.9V3.3C7.4,3.2,7.3,3,7.2,3c0,0,0,0,0,0H6.7C6.5,3,6.4,3.1,6.4,3.3v0.2v6.4L5.3,8.7C5,8.5,4.7,8.5,4.5,8.7
		C4.4,8.8,4.4,8.9,4.3,9.1c0,0.1,0.1,0.3,0.2,0.4L6.5,11.5z"/>
	<path class="st0" d="M16.7,11.5c0.1,0.1,0.2,0.2,0.4,0.2c0.1,0,0.3-0.1,0.4-0.2l2-2.1c0.2-0.2,0.2-0.5,0-0.8
		c-0.2-0.2-0.5-0.2-0.7,0c0,0,0,0,0,0l-1.1,1.1V3.3c0-0.2-0.1-0.3-0.2-0.3c0,0,0,0,0,0h-0.5c-0.2,0-0.3,0.1-0.3,0.3v0.2v6.4
		l-1.1-1.2c-0.2-0.2-0.6-0.2-0.8,0c-0.1,0.1-0.1,0.2-0.1,0.4c0,0.1,0.1,0.3,0.1,0.4L16.7,11.5z"/>
	<path class="st0" d="M9.6,11.3l2,2.1c0.1,0.1,0.2,0.2,0.4,0.2c0.1,0,0.3-0.1,0.4-0.2l2-2.1c0.2-0.2,0.2-0.5,0-0.8c0,0,0,0,0,0
		c-0.2-0.2-0.5-0.2-0.7,0c0,0,0,0,0,0l-1.1,1.1V5.1c0-0.2-0.1-0.3-0.3-0.3c0,0,0,0,0,0h-0.5c-0.2,0-0.3,0.1-0.3,0.3v0.1v6.4
		l-1.1-1.1c-0.2-0.2-0.5-0.2-0.7,0c0,0,0,0,0,0c-0.1,0.1-0.2,0.2-0.2,0.4C9.4,11,9.5,11.2,9.6,11.3z"/>
</g>
</svg>
