<?xml version="1.0" encoding="utf-8"?>
<!-- Generator: Adobe Illustrator 25.4.1, SVG Export Plug-In . SVG Version: 6.00 Build 0)  -->
<svg version="1.1" id="Layer_1" xmlns="http://www.w3.org/2000/svg" xmlns:xlink="http://www.w3.org/1999/xlink" x="0px" y="0px"
	 viewBox="0 0 24 24" style="enable-background:new 0 0 24 24;" xml:space="preserve">
<style type="text/css">
	.st0{fill:#FFFFFF;}
</style>
<path class="st0" d="M12,12.2c-5.9,0-7-1.6-7-1.6v7.2c0.1,1,3,1.9,6.7,1.9V21c0,0.2,0.1,0.3,0.3,0.3s0.3-0.1,0.3-0.3v-1.3
	c3.6,0,6.5-0.9,6.7-1.9v-7.2C19,10.6,17.9,12.2,12,12.2z"/>
<path class="st0" d="M12.3,7.6V6.9l0.8,0.4V6.6c2.7-0.1,5.2-0.7,5.2-1.4c0-0.8-2.7-1.2-6-1.2V3c0-0.2-0.1-0.3-0.3-0.3
	c-0.2,0-0.3,0.1-0.3,0.3v1c-3.3,0-6,0.4-6,1.2c0,0.2,0.5,0.4,0.8,0.5C7.2,5.9,8,6.1,8.8,6.1c0.3,0,0.5,0,0.8,0C9.4,6,9.2,6,9,6
	C7.6,5.9,7.2,5.5,7.2,5.2c0-0.5,1.8-0.7,4.4-0.7v1.1l-1,0.5l1,0.5v1.1C8,7.7,5,8.5,5,9.6c0,1.1,3.1,2,7,2s7-0.9,7-2
	C19,8.5,16,7.7,12.3,7.6z M12.3,4.6c2.6,0,4.5,0.2,4.5,0.7c0,0.5-1.7,0.6-3.6,0.7v-1l-0.9,0.4V4.6z M8.4,9.6c0-0.5,1.4-0.9,3.2-1v2
	C9.8,10.6,8.4,10.1,8.4,9.6z M12.3,10.6v-2c1.8,0,3.2,0.5,3.2,1C15.6,10.1,14.2,10.6,12.3,10.6z"/>
</svg>
