<?xml version="1.0" encoding="utf-8"?>
<!-- Generator: Adobe Illustrator 25.4.1, SVG Export Plug-In . SVG Version: 6.00 Build 0)  -->
<svg version="1.1" id="Layer_1" xmlns="http://www.w3.org/2000/svg" xmlns:xlink="http://www.w3.org/1999/xlink" x="0px" y="0px"
	 viewBox="0 0 24 24" style="enable-background:new 0 0 24 24;" xml:space="preserve">
<style type="text/css">
	.st0{fill:#FFFFFF;}
</style>
<g>
	<path class="st0" d="M19.6,11.7l-2.2-2.2l0,0l-1.7-1.7l0,0h0l0,0l0,0h0l0,0L13.4,10l-0.1,0.1l0,0l0,0l1.7,1.7l0,0l1.6,1.6
		c1,0.8,1.1,2.2,0.4,3.2c-0.3,0.3-0.8,0.5-1.2,0.5c-0.7,0-1.5-0.3-2-0.8l-1.6-1.6l0,0L10.5,13l-0.7,0.7l-1.7,1.7l3.9,3.9
		c2.2,2,5.6,1.7,7.6-0.5C21.3,16.7,21.3,13.7,19.6,11.7z M18.4,18.5c-1.6,1.4-4.1,1.4-5.7,0l-2.2-2.2l0.9-0.9L13,17
		c0.7,0.7,1.7,1.1,2.7,1.1c0.7,0,1.5-0.3,2-0.8c1.2-1.4,1-3.5-0.3-4.7l-1.6-1.6l0.9-0.9l2.2,2.2C20.4,14.2,20.2,16.9,18.4,18.5z"/>
	<path class="st0" d="M7.1,9.5l2.1,2.1v-1.2c2.3-0.3,4-1.4,4-3.4c0-2.3-2.2-3.5-5-3.5s-5,1.2-5,3.5c0,0.5,0.2,1.1,0.6,1.5
		C4.3,9,5,9.4,5.8,9.5c0.4,0.1,0.6,0.2,0.6,0.1S6.2,9.4,5.9,9.2C5,8.9,4.4,8,4.5,7c0-1.4,1.5-2,3.7-2S12,5.6,12,7
		c0,1.2-1.1,2-2.8,2.2V7.4L7.1,9.5z"/>
</g>
</svg>
