<?xml version="1.0" encoding="utf-8"?>
<!-- Generator: Adobe Illustrator 25.4.1, SVG Export Plug-In . SVG Version: 6.00 Build 0)  -->
<svg version="1.1" id="Layer_1" xmlns="http://www.w3.org/2000/svg" xmlns:xlink="http://www.w3.org/1999/xlink" x="0px" y="0px"
	 viewBox="0 0 24 24" style="enable-background:new 0 0 24 24;" xml:space="preserve">
<style type="text/css">
	.st0{fill:#FFFFFF;}
</style>
<g>
	<path class="st0" d="M19.6,11.7l-2.2-2.2l0,0l-1.7-1.7l0,0h0l0,0l0,0h0l0,0L13.4,10l-0.1,0.1l0,0l0,0l1.7,1.7l0,0l1.6,1.6
		c1,0.8,1.1,2.2,0.4,3.2c-0.3,0.3-0.8,0.5-1.2,0.5c-0.7,0-1.5-0.3-2-0.8l-1.6-1.6l0,0L10.5,13l-0.7,0.7l-1.7,1.7l3.9,3.9
		c2.2,2,5.6,1.7,7.6-0.5C21.3,16.7,21.3,13.7,19.6,11.7z M18.4,18.5c-1.6,1.4-4.1,1.4-5.7,0l-2.2-2.2l0.9-0.9L13,17
		c0.7,0.7,1.7,1.1,2.7,1.1c0.7,0,1.5-0.3,2-0.8c1.2-1.4,1-3.5-0.3-4.7l-1.6-1.6l0.9-0.9l2.2,2.2C20.4,14.2,20.2,16.9,18.4,18.5z"/>
	<polygon class="st0" points="6.1,7.5 5.1,7.5 5.1,5.9 3,8 5.1,10.1 5.1,8.5 6.1,8.5 	"/>
	<polygon class="st0" points="7.5,6.1 8.5,6.1 8.5,5.1 10.1,5.1 8,3 5.9,5.1 7.5,5.1 	"/>
	<polygon class="st0" points="8.5,11 8.5,10 7.5,10 7.5,10.9 5.9,10.9 8,13 10.1,11 	"/>
	<polygon class="st0" points="10,7.5 10,8.5 10.9,8.5 10.9,10.1 13,8 10.9,5.9 11,7.5 	"/>
	<rect x="6.5" y="6.5" class="st0" width="3" height="3"/>
</g>
</svg>
