<?xml version="1.0" encoding="utf-8"?>
<!-- Generator: Adobe Illustrator 25.4.1, SVG Export Plug-In . SVG Version: 6.00 Build 0)  -->
<svg version="1.1" id="Layer_1" xmlns="http://www.w3.org/2000/svg" xmlns:xlink="http://www.w3.org/1999/xlink" x="0px" y="0px"
	 viewBox="0 0 24 24" style="enable-background:new 0 0 24 24;" xml:space="preserve">
<style type="text/css">
	.st0{fill:#FFFFFF;}
</style>
<g>
	<path class="st0" d="M14.5,11.3L14.5,11.3c-0.1,0-0.2,0-0.3,0.1c-0.2,0.1-0.4,0.2-0.6,0.4c-0.5,0.4-1,0.6-1.6,0.7
		c-0.6-0.1-1.2-0.4-1.6-0.7c-0.2-0.1-0.4-0.3-0.6-0.4c-0.1,0-0.2-0.1-0.3-0.1H9.5c-2.4,0-3,1-3,1c-0.1,0.2-0.2,0.3-0.3,0.5v1.5
		c0,0.4,0.5,0.8,0.5,0.8l1.6,1.6c0.5,0.5,0.8,1.3,0.9,2V21c0,0.4,0.3,0.7,0.7,0.7c0,0,0,0,0,0h4.1c0.4,0,0.7-0.3,0.7-0.7
		c0,0,0,0,0,0v-2.3c0-0.7,0.3-1.5,0.9-2l1.6-1.6c0,0,0.5-0.4,0.5-0.8v-1.5c-0.1-0.2-0.2-0.4-0.3-0.5C17.5,12.3,16.9,11.3,14.5,11.3z
		"/>
	<path class="st0" d="M9.5,10.3c0.2,0,0.3,0.1,0.5,0.1c0.6,0.3,1.3,1.1,2.1,1.1s1.5-0.8,2.1-1.1c0.1-0.1,0.3-0.1,0.5-0.1
		c2.7,0,3.3,1.1,3.3,1.1V11c0-0.6-0.3-1.2-0.7-1.7l-1.5-1.6c-0.5-0.7-0.7-1.5-0.7-2.4V3c0-0.6-0.4-1-1-1h-3.8c-0.6,0-1,0.4-1,1v2.3
		C9.1,6.2,8.9,7,8.4,7.7L6.9,9.3C6.5,9.7,6.2,10.4,6.2,11v0.5C6.2,11.5,6.8,10.3,9.5,10.3z"/>
	<path class="st0" d="M19.6,7.8c-0.1-0.2-0.3-0.2-0.5-0.1C19,7.7,18.9,7.9,19,8.1c1.4,2.5,1.4,5.4,0,7.9c0,0,0,0,0,0
		c-0.1,0.2,0,0.4,0.1,0.4c0.1,0,0.1,0,0.2,0c0.1,0,0.2,0,0.3-0.1C21.1,13.7,21.1,10.4,19.6,7.8z"/>
	<path class="st0" d="M4.1,11.7c0-1.2,0.3-2.4,0.8-3.4c0.1-0.2,0-0.4-0.2-0.4C4.5,7.8,4.3,7.8,4.3,8c-1.2,2.5-1.1,5.4,0.2,7.8
		C4.5,15.9,4.6,16,4.7,16c0,0,0.1,0,0.1,0c0,0,0,0,0,0C5,15.9,5.1,15.7,5,15.5C4.4,14.3,4.1,13,4.1,11.7z"/>
</g>
</svg>
