<?xml version="1.0" encoding="utf-8"?>
<!-- Generator: Adobe Illustrator 25.4.1, SVG Export Plug-In . SVG Version: 6.00 Build 0)  -->
<svg version="1.1" id="Layer_1" xmlns="http://www.w3.org/2000/svg" xmlns:xlink="http://www.w3.org/1999/xlink" x="0px" y="0px"
	 viewBox="0 0 24 24" style="enable-background:new 0 0 24 24;" xml:space="preserve">
<style type="text/css">
	.st0{fill:#FFFFFF;}
</style>
<g>
	<path class="st0" d="M19.3,10.7l0.1-2.5c0-0.2-0.2-0.4-0.4-0.4c-0.3,0-0.5,0.2-0.5,0.5l-0.1,1.6L18,9.5l0,0
		c-0.1-0.1-0.2-0.2-0.2-0.2c-0.4-0.4-0.9-0.7-1.3-0.9L17,6.7c0.1-0.3,0-0.6-0.3-0.7c0,0-0.1,0-0.1,0l-3.1-0.6
		c-0.3-0.1-0.6,0.1-0.7,0.4c0,0,0,0.1,0,0.1l-0.1,1.4C10.3,7,7.9,7.8,6,9.5l0,0L5.6,9.8V8.2c0-0.3-0.2-0.5-0.5-0.5c0,0,0,0,0,0
		c-0.2,0-0.5,0.2-0.5,0.4c0,0,0,0,0,0v2.5c0,0.3,0.2,0.5,0.5,0.5l2.5,0.1c0.3,0,0.5-0.2,0.5-0.5c0-0.3-0.2-0.5-0.5-0.5l-1.5-0.1
		C6.3,10,6.4,9.8,6.6,9.7c1.8-1.5,4-2.1,6.1-1.9l-0.1,1.9c0,0.4,0.3,0.7,0.6,0.8l0.3,0.1l-1.8,9.2c-0.6,0.1-1.1,0.6-1.1,1.2
		c0,0.7,0.6,1.3,1.3,1.3s1.3-0.6,1.3-1.3c0-0.4-0.2-0.8-0.6-1l1.8-9.2l0.3,0.1c0.4,0.1,0.7-0.1,0.9-0.5l0.5-1.4
		c0.6,0.3,1.1,0.7,1.6,1.2l0.1,0.1c0,0,0.1,0.1,0.1,0.1h-1.6c-0.1,0-0.3,0-0.3,0.1c-0.1,0.1-0.1,0.2-0.2,0.3c0,0.2,0.2,0.4,0.4,0.5
		c0,0,0,0,0,0h2.5C19.1,11.2,19.3,11,19.3,10.7z"/>
	<path class="st0" d="M2.8,10.1c-0.1-0.1-0.3-0.1-0.4,0c-0.1,0.1-0.1,0.3,0,0.4l2.9,2.7c0.1,0,0.1,0.1,0.2,0.1c0.1,0,0.2,0,0.2-0.1
		c0.1-0.1,0.1-0.3,0-0.4L2.8,10.1z"/>
	<path class="st0" d="M21.5,10c-0.1-0.1-0.3-0.1-0.4,0l-2.7,2.9c0,0.1-0.1,0.1-0.1,0.2c0,0.1,0,0.1,0.1,0.2c0.1,0.1,0.3,0.1,0.4,0
		l2.6-2.9C21.6,10.3,21.6,10.1,21.5,10z"/>
</g>
</svg>
