<?xml version="1.0" encoding="utf-8"?>
<!-- Generator: Adobe Illustrator 25.4.1, SVG Export Plug-In . SVG Version: 6.00 Build 0)  -->
<svg version="1.1" id="Layer_1" xmlns="http://www.w3.org/2000/svg" xmlns:xlink="http://www.w3.org/1999/xlink" x="0px" y="0px"
	 viewBox="0 0 24 24" style="enable-background:new 0 0 24 24;" xml:space="preserve">
<style type="text/css">
	.st0{fill:#FFFFFF;}
</style>
<g>
	<path class="st0" d="M17.5,18.1c-0.1,0-0.1,0-0.2,0H6.9l7.4-7.3c0.3-0.2,0.3-0.6,0-0.9c0,0,0,0,0,0c-0.1-0.1-0.3-0.2-0.5-0.2
		c-0.2,0-0.3,0.1-0.5,0.2L6,17.2V6.9c0-0.4-0.3-0.7-0.7-0.7C5,6.2,4.7,6.5,4.7,6.9c0,0,0,0,0,0L4.6,17.1c0,0,0,0,0,0
		c-1.3,0-2.3,1-2.3,2.3s1,2.3,2.3,2.3s2.3-1,2.3-2.3h10.4c0.4,0,0.7-0.2,0.7-0.6C18.1,18.5,17.9,18.1,17.5,18.1z"/>
	<path class="st0" d="M21.8,13.2c-0.2-0.2-0.6-0.2-0.9,0l-1.3,1.3V14c-0.1-5.2-4.3-9.4-9.5-9.4H9.6l1.3-1.2c0.2-0.2,0.2-0.6,0-0.9
		c-0.1-0.1-0.3-0.2-0.4-0.2c-0.2,0-0.3,0.1-0.4,0.2L7.7,4.8C7.6,4.9,7.5,5.1,7.5,5.2c0,0.2,0.1,0.3,0.2,0.4l2.3,2.3
		c0.2,0.2,0.6,0.2,0.9,0c0.2-0.2,0.2-0.6,0-0.8L9.6,5.8h0.5c4.6,0,8.3,3.6,8.3,8.2c0,0,0,0,0,0v0.5l-1.3-1.3
		c-0.1-0.1-0.3-0.2-0.4-0.2c-0.2,0-0.3,0.1-0.4,0.2c-0.2,0.2-0.2,0.6,0,0.8c0,0,0,0,0,0l2.4,2.3c0.2,0.2,0.6,0.2,0.9,0l2.3-2.3
		C22.1,13.8,22.1,13.4,21.8,13.2z"/>
</g>
</svg>
