<?xml version="1.0" encoding="UTF-8"?>
<svg width="24px" height="24px" viewBox="0 0 24 24" version="1.1" xmlns="http://www.w3.org/2000/svg" xmlns:xlink="http://www.w3.org/1999/xlink">
    <!-- Generator: Sketch 62 (91390) - https://sketch.com -->
    <title>Icons / System / Audio</title>
    <desc>Created with Sketch.</desc>
    <g id="Icons-/-System-/-Audio" stroke="none" stroke-width="1" fill="none" fill-rule="evenodd">
        <rect id="Icon-Background" x="0" y="0" width="24" height="24"></rect>
        <g id="Audio-Animation" transform="translate(12.000000, 3.000000)" fill="#FFFFFF" fill-rule="nonzero">
            <path d="M0.108499898,1.97873436e-05 C4.7393071,0.00934295916 8.44431392,3.2775112 8.97243987,7.81518789 C9.00448858,8.08911589 8.9895927,8.40759576 9.12862078,8.62462088 C10.4665399,10.7092967 10.093692,12.8464643 9.15073885,14.8768839 C8.66775181,15.9165752 7.78031964,16.8080542 6.95743618,17.6571868 C6.44232861,18.189048 5.24630011,18.0540731 4.4875738,17.5803668 C4.56041536,17.478643 4.65436576,17.2913006 4.78269616,16.9860859 C5.24449063,15.8880067 5.70341678,14.8280604 6.16064769,13.2773444 C6.65778448,11.5911876 7.23860658,9.8382837 7.45786858,8.23899116 C7.49200259,7.99007894 7.11206304,7.69634652 7.0418461,7.34320249 C6.35845462,3.90803869 3.21954063,1.79188262 6.33959089e-06,1.79970162 L-0.000267862373,0.000378287015 C0.035925872,6.8625371e-05 0.0721821043,-5.11301972e-05 0.108499898,1.97873436e-05 Z M6.295855,8.5263262 C6.25645124,8.62504025 6.21818303,8.73013522 6.18485851,8.83349243 C5.56603796,10.7528755 4.94910626,12.709768 4.33615364,14.6867609 C4.22858215,15.0338714 4.0914945,15.6642013 4.05909228,15.9420056 C4.03091796,16.1834635 3.98071486,16.4764256 3.93544053,16.7589221 C3.91940099,16.8591091 3.90398426,16.957949 3.89040744,17.0526326 C3.72518838,16.8079754 3.56637982,16.5591829 3.36243112,16.3535586 C3.1042362,16.0933306 2.92503448,15.4870647 3.03156246,15.1452239 C3.6400358,13.1981774 4.30764119,11.2683862 5.05017729,9.37217282 C5.19868451,8.99302341 5.74306051,8.57516624 6.13260984,8.54438663 C6.1905523,8.53976383 6.24490673,8.53375829 6.295855,8.5263262 Z" id="Combined-Shape"></path>
        </g>
        <g id="Left" transform="translate(7.000000, 12.000000) scale(-1, 1) translate(-7.000000, -12.000000) translate(2.000000, 3.000000)" fill="#FFFFFF" fill-rule="nonzero">
            <path d="M0.108499898,1.97873436e-05 C4.7393071,0.00934295916 8.44431392,3.2775112 8.97243987,7.81518789 C9.00448858,8.08911589 8.9895927,8.40759576 9.12862078,8.62462088 C10.4665399,10.7092967 10.093692,12.8464643 9.15073885,14.8768839 C8.66775181,15.9165752 7.78031964,16.8080542 6.95743618,17.6571868 C6.44232861,18.189048 5.24630011,18.0540731 4.4875738,17.5803668 C4.56041536,17.478643 4.65436576,17.2913006 4.78269616,16.9860859 C5.24449063,15.8880067 5.70341678,14.8280604 6.16064769,13.2773444 C6.65778448,11.5911876 7.23860658,9.8382837 7.45786858,8.23899116 C7.49200259,7.99007894 7.11206304,7.69634652 7.0418461,7.34320249 C6.35845462,3.90803869 3.21954063,1.79188262 6.33959089e-06,1.79970162 L-0.000267862373,0.000378287015 C0.035925872,6.8625371e-05 0.0721821043,-5.11301972e-05 0.108499898,1.97873436e-05 Z M6.295855,8.5263262 C6.25645124,8.62504025 6.21818303,8.73013522 6.18485851,8.83349243 C5.56603796,10.7528755 4.94910626,12.709768 4.33615364,14.6867609 C4.22858215,15.0338714 4.0914945,15.6642013 4.05909228,15.9420056 C4.03091796,16.1834635 3.98071486,16.4764256 3.93544053,16.7589221 C3.91940099,16.8591091 3.90398426,16.957949 3.89040744,17.0526326 C3.72518838,16.8079754 3.56637982,16.5591829 3.36243112,16.3535586 C3.1042362,16.0933306 2.92503448,15.4870647 3.03156246,15.1452239 C3.6400358,13.1981774 4.30764119,11.2683862 5.05017729,9.37217282 C5.19868451,8.99302341 5.74306051,8.57516624 6.13260984,8.54438663 C6.1905523,8.53976383 6.24490673,8.53375829 6.295855,8.5263262 Z" id="Combined-Shape"></path>
        </g>
    </g>
</svg>
