<svg width="24" height="24" viewBox="0 0 24 24" fill="none" xmlns="http://www.w3.org/2000/svg">
<path d="M17.4 10.2L21 8.39999L17.4 6.59999L15.6001 3L13.8001 6.59999L10.2001 8.35943L13.8001 10.2L15.6406 13.8L17.4 10.2ZM6.62035 10.2L7.5 8.39999L9.29998 7.49999L7.5 6.59999L6.60001 4.8L5.70001 6.59999L3.90003 7.47977L5.70001 8.39999L6.62035 10.2ZM17.3999 13.8L16.4999 15.6L14.6999 16.4798L16.4999 17.4L17.4201 19.2L18.2999 17.4L20.0998 16.5L18.2999 15.6L17.3999 13.8ZM8.39995 10.2L6.59997 13.8L3 15.5594L6.59997 17.4L8.44026 21L10.1999 17.4L13.7999 15.6L10.1999 13.8L8.39995 10.2Z" fill="white"/>
</svg>
