<svg width="16" height="17" viewBox="0 0 16 17" fill="none" xmlns="http://www.w3.org/2000/svg">
<path fill-rule="evenodd" clip-rule="evenodd" d="M15.1908 1.58609C15.9159 2.31364 16.5629 3.02613 15.2162 4.40101L15.2162 4.401C14.1652 5.47483 13.9683 5.67586 13.7685 5.87982C13.6683 5.98211 13.5674 6.08515 13.3576 6.29942C13.1018 6.56074 13.2201 6.86495 13.3604 7.22586C13.5649 7.75216 13.8164 8.39903 13.0229 9.20928C12.8514 9.3844 12.6983 9.54066 12.5618 9.68003L13.0994 10.2313C13.1958 10.3301 13.1958 10.4904 13.0994 10.5892L12.3171 11.3913C12.2207 11.4901 12.0644 11.4901 11.968 11.3913L5.52891 4.78918C5.4325 4.69033 5.4325 4.53008 5.52891 4.43123L6.31117 3.62917C6.40757 3.53032 6.56388 3.53032 6.66028 3.62917L7.27564 4.2601C7.40946 4.1234 7.55906 3.97059 7.7262 3.79984C8.51938 2.98949 9.15284 3.24651 9.66818 3.4556C10.0214 3.59893 10.3192 3.71974 10.5748 3.45879C10.8623 3.16539 10.9455 3.08036 11.1021 2.92037C11.2879 2.73049 11.5771 2.435 12.4337 1.56021C13.7812 0.184867 14.4777 0.845598 15.1908 1.58609Z" fill="white"/>
<path fill-rule="evenodd" clip-rule="evenodd" d="M1.03092 12.59L1.02178 12.5799L6.10878 7.38379L9.28478 10.6272L4.19617 15.8237L4.19366 15.8204C4.09968 15.911 3.97726 15.9689 3.83893 15.9689L0.523721 16.7604C0.234085 16.7599 -0.000294106 16.5156 0 16.214L0.913654 12.9196C0.913654 12.7931 0.96227 12.6816 1.03092 12.59ZM5.93084 8.99902L7.7447 10.7632L5.60075 12.8947C5.50006 12.9949 5.36155 13.0474 5.21979 13.0394L2.09386 12.8613L5.93084 8.99902Z" fill="white"/>
</svg>
