<?xml version="1.0" encoding="UTF-8"?>
<svg width="24px" height="24px" viewBox="0 0 24 24" version="1.1" xmlns="http://www.w3.org/2000/svg" xmlns:xlink="http://www.w3.org/1999/xlink">
    <!-- Generator: Sketch 62 (91390) - https://sketch.com -->
    <title>Icons / Miscellaneous / Get Physics State</title>
    <desc>Created with Sketch.</desc>
    <defs>
        <path d="M16.9569507,9.12146634 C17.1970959,8.46765876 17.4065249,7.8312251 17.5489366,7.24325549 C18.0320194,5.22331013 17.8421371,3.90380757 17.0006981,3.42739674 C16.7959231,3.31035147 16.5613627,3.25 16.3035324,3.25 C15.1949551,3.25 13.6228417,4.40399323 12.0004654,6.29043382 C11.7193652,5.96490166 11.4419882,5.66954523 11.165542,5.38973388 C11.2660679,5.20410739 11.3368083,5.001107 11.3368083,4.77616062 C11.3368083,4.04097 10.7289989,3.44477065 9.98063946,3.44477065 C9.66416903,3.44477065 9.38679201,3.56730242 9.15688556,3.74378474 C8.61702425,3.42922557 8.12184111,3.25 7.69646763,3.25 C7.43956811,3.25 7.20407688,3.31035147 7.0002327,3.42739674 C6.15786289,3.90380757 5.96798064,5.22331013 6.45292502,7.24325549 C6.59440592,7.8312251 6.80383488,8.46765876 7.04491088,9.12146634 C4.18457672,9.62165199 2,10.5735592 2,11.9369538 C2,13.2976051 4.18364593,14.2467691 7.0402569,14.7469547 C6.85782101,15.2416539 6.70423977,15.7244656 6.57672081,16.1862458 C5.91027133,16.2731153 5.38809513,16.8117065 5.38809513,17.48746 C5.38809513,18.0324521 5.72504305,18.502462 6.20626425,18.7091201 C6.2369805,19.5266081 6.47619491,20.1484111 7.0002327,20.4455964 C7.20407688,20.5608128 7.43770652,20.6184211 7.69553684,20.6184211 C8.80132173,20.6184211 10.3752967,19.4653422 12.0004654,17.5761584 C13.6247033,19.4653422 15.1986783,20.6184211 16.305394,20.6184211 C16.5622935,20.6184211 16.7959231,20.5608128 17.0006981,20.444682 C18.2004933,19.7625275 17.947317,17.428023 16.9606739,14.7469547 C17.5265975,14.6491122 18.0645972,14.5329813 18.5662959,14.3985621 C18.8110951,14.7378106 19.1945828,14.9764732 19.6534649,14.9764732 C20.4018244,14.9764732 21.0124261,14.3775306 21.0124261,13.6414255 C21.0124261,13.5618713 20.9779867,13.4923757 20.9668171,13.418308 C21.6118583,12.9967621 22,12.5038918 22,11.9369538 C22,10.5735592 19.8144925,9.62348082 16.9569507,9.12146634 L16.9569507,9.12146634 Z M16.3035324,4.01353752 C16.4263974,4.01353752 16.5269233,4.03731234 16.6134872,4.08760523 C16.9932517,4.30249303 17.2408433,5.19862089 16.7921999,7.068602 C16.6469959,7.66845901 16.4282589,8.32409542 16.1750826,8.99802015 C15.4304463,8.89103346 14.6560246,8.81239366 13.8657793,8.76667286 C13.4143436,8.09183371 12.957323,7.48283253 12.4993717,6.90857916 C14.0705543,5.05871522 15.5011868,4.01353752 16.3035324,4.01353752 L16.3035324,4.01353752 Z M8.73244287,12.7672437 C8.87392377,13.0278523 9.00516591,13.2857177 9.15874715,13.5463263 C9.31139759,13.8069349 9.47242519,14.0474263 9.6297296,14.2988908 C9.09638386,14.2586565 8.57793084,14.2101924 8.10043282,14.1470977 C8.28379951,13.7072635 8.50160562,13.2427401 8.73244287,12.7672437 L8.73244287,12.7672437 Z M8.7259273,11.0828891 C8.50160562,10.6211089 8.29217666,10.166644 8.10601759,9.72132335 C8.58072323,9.65548539 9.10010704,9.610679 9.62786801,9.56953027 C9.47242519,9.8200803 9.31139759,10.0605718 9.15874715,10.3230092 C9.01075069,10.5735592 8.8674082,10.8268525 8.7259273,11.0828891 L8.7259273,11.0828891 Z M9.15874715,11.9369538 C9.37283008,11.5327818 9.58132824,11.1295243 9.8317122,10.7043208 C10.0765114,10.287347 10.3241029,9.90054893 10.5726253,9.51832296 C11.0398846,9.49729139 11.4996975,9.47443098 12.0004654,9.47443098 C12.5012333,9.47443098 12.9601154,9.49729139 13.4273747,9.51832296 C13.6758971,9.90054893 13.9244194,10.287347 14.1692186,10.7043208 C14.4196026,11.1295243 14.6281007,11.5327818 14.8431144,11.9369538 C14.6271699,12.3456978 14.4102946,12.7544418 14.1692186,13.1650147 C13.921627,13.5838173 13.6721739,13.9669577 13.4199283,14.3510125 C12.957323,14.3711297 12.4984409,14.3949045 12.0004654,14.3949045 C11.5024899,14.3949045 11.0436078,14.3711297 10.5810025,14.3510125 C10.3287569,13.9669577 10.0765114,13.5819885 9.8317122,13.1650147 C9.5906362,12.7544418 9.37469167,12.3456978 9.15874715,11.9369538 L9.15874715,11.9369538 Z M14.8431144,13.5463263 C14.9948341,13.2857177 15.1242146,13.0278523 15.2703495,12.7672437 C15.5011868,13.2427401 15.7189929,13.7072635 15.8995672,14.1470977 C15.423,14.2101924 14.9045469,14.2586565 14.3712012,14.2988908 C14.5285056,14.0474263 14.6895332,13.8069349 14.8431144,13.5463263 L14.8431144,13.5463263 Z M14.8431144,10.3230092 C14.6895332,10.0605718 14.5285056,9.8200803 14.372132,9.56953027 C14.9008238,9.610679 15.4192768,9.65548539 15.8939824,9.72132335 C15.7068925,10.166644 15.4993252,10.6211089 15.2731419,11.0828891 C15.1344534,10.8268525 14.9892493,10.5735592 14.8431144,10.3230092 L14.8431144,10.3230092 Z M12.8875134,8.72278088 C12.5924512,8.71455113 12.2964583,8.71089347 12.0004654,8.71089347 C11.7044725,8.71089347 11.4075488,8.71455113 11.1134174,8.72278088 C11.4094103,8.29666294 11.7044725,7.89889189 12.0004654,7.52581009 C12.2936659,7.89889189 12.5905897,8.29666294 12.8875134,8.72278088 L12.8875134,8.72278088 Z M7.38744357,4.08760523 C7.47400754,4.03731234 7.57360264,4.01353752 7.69646763,4.01353752 C7.96546749,4.01353752 8.31358496,4.15161436 8.70544981,4.37290308 C8.66263322,4.50183576 8.62167822,4.63351169 8.62167822,4.77616062 C8.62167822,5.51500889 9.23134919,6.11029383 9.98063946,6.11029383 C10.2133383,6.11029383 10.4227673,6.03622612 10.6154419,5.93472592 C10.9030577,6.22825352 11.1999814,6.5547001 11.5015591,6.90857916 C11.0436078,7.48283253 10.5847256,8.09183371 10.1351515,8.76667286 C9.34397543,8.81239366 8.56955368,8.89103346 7.82584819,8.99802015 C7.57267185,8.32409542 7.35207335,7.66845901 7.20780007,7.068602 C6.76008749,5.19862089 7.00674827,4.30249303 7.38744357,4.08760523 L7.38744357,4.08760523 Z M2.77721413,11.9369538 C2.77721413,11.2319389 4.45264579,10.3476984 7.32787267,9.85208487 C7.6033881,10.5314961 7.91334295,11.2264524 8.27635314,11.9351249 C7.92265091,12.6309957 7.6033881,13.3286952 7.32508028,14.0154218 C4.45264579,13.5225514 2.77721413,12.6401398 2.77721413,11.9369538 L2.77721413,11.9369538 Z M7.38744357,19.7853879 C7.15381393,19.6509687 7.01698702,19.2970897 6.98720156,18.774958 C7.61828082,18.6588272 8.10601759,18.1385244 8.10601759,17.48746 C8.10601759,16.9699005 7.79420114,16.5346384 7.35765812,16.3124352 C7.47959231,15.8643713 7.63782752,15.3843028 7.82864057,14.8722297 C8.57141527,14.9764732 9.34769861,15.0560274 10.1370131,15.1008338 C10.5810025,15.7701864 11.0370922,16.3764444 11.4922511,16.9461256 C9.67440778,19.0758009 8.04644669,20.1511544 7.38744357,19.7853879 L7.38744357,19.7853879 Z M11.1162098,15.1447258 C11.4094103,15.1520411 11.7044725,15.1575276 12.0004654,15.1575276 C12.2936659,15.1575276 12.5905897,15.1520411 12.884721,15.1447258 C12.5896589,15.5662716 12.2936659,15.971358 12.0004654,16.3407821 C11.7072649,15.971358 11.4112719,15.5662716 11.1162098,15.1447258 L11.1162098,15.1447258 Z M16.6134872,19.7853879 C15.9600689,20.161213 14.326523,19.0812874 12.5077489,16.9461256 C12.961977,16.3764444 13.4180667,15.7711008 13.8639177,15.1008338 C14.6532322,15.0560274 15.4295155,14.9764732 16.1713594,14.8722297 C17.1747568,17.5624422 17.2333969,19.4315088 16.6134872,19.7853879 L16.6134872,19.7853879 Z M20.6252152,12.7178652 C20.3794853,12.4682296 20.0369526,12.3100356 19.6534649,12.3100356 C18.9041746,12.3100356 18.2963652,12.9062349 18.2963652,13.6414255 C18.2963652,13.6505697 18.3000884,13.6569706 18.3000884,13.6661148 C17.8160748,13.7968763 17.2724903,13.9130072 16.6758505,14.0154218 C16.3966119,13.3286952 16.0782799,12.6309957 15.7264392,11.9351249 C16.0875878,11.2264524 16.3966119,10.5333249 16.6730581,9.85208487 C19.5473542,10.3476984 21.2237167,11.2319389 21.2237167,11.9369538 C21.2237167,12.1820173 21.0124261,12.4517701 20.6252152,12.7178652 L20.6252152,12.7178652 Z" id="path-1"></path>
    </defs>
    <g id="Icons-/-Miscellaneous-/-Get-Physics-State" stroke="none" stroke-width="1" fill="none" fill-rule="evenodd">
        <rect id="Icon-Background" x="0" y="0" width="24" height="24"></rect>
        <mask id="mask-2" fill="white">
            <use xlink:href="#path-1"></use>
        </mask>
        <use id="Imported-Layers-Copy-8" fill="#FFFFFF" transform="translate(12.000000, 11.934211) rotate(-360.000000) translate(-12.000000, -11.934211) " xlink:href="#path-1"></use>
    </g>
</svg>
