<?xml version="1.0" encoding="UTF-8"?>
<svg width="24px" height="24px" viewBox="0 0 24 24" version="1.1" xmlns="http://www.w3.org/2000/svg" xmlns:xlink="http://www.w3.org/1999/xlink">
    <!-- Generator: Sketch 62 (91390) - https://sketch.com -->
    <title>Icons / System / Light / IBL Light</title>
    <desc>Created with Sketch.</desc>
    <g id="Icons-/-System-/-Light-/-IBL-Light" stroke="none" stroke-width="1" fill="none" fill-rule="evenodd">
        <path d="M12.75,19 L12.75,22 L11.25,22 L11.25,19 L12.75,19 Z M6.42132034,16.5 L7.48198052,17.5606602 L5.36066017,19.6819805 L4.3,18.6213203 L6.42132034,16.5 Z M17.4606602,16.4 L19.5819805,18.5213203 L18.5213203,19.5819805 L16.4,17.4606602 L17.4606602,16.4 Z M12,6 C15.3137085,6 18,8.6862915 18,12 C18,15.3137085 15.3137085,18 12,18 C8.6862915,18 6,15.3137085 6,12 C6,8.6862915 8.6862915,6 12,6 Z M12,7.5 C9.51471863,7.5 7.5,9.51471863 7.5,12 C7.5,14.4852814 9.51471863,16.5 12,16.5 C14.4852814,16.5 16.5,14.4852814 16.5,12 C16.5,9.51471863 14.4852814,7.5 12,7.5 Z M5,11.25 L5,12.75 L2,12.75 L2,11.25 L5,11.25 Z M22,11.25 L22,12.75 L19,12.75 L19,11.25 L22,11.25 Z M5.36066017,4.3 L7.48198052,6.42132034 L6.42132034,7.48198052 L4.3,5.36066017 L5.36066017,4.3 Z M18.6213203,4.3 L19.6819805,5.36066017 L17.5606602,7.48198052 L16.5,6.42132034 L18.6213203,4.3 Z M12.75,2 L12.75,5 L11.25,5 L11.25,2 L12.75,2 Z" id="Combined-Shape" fill="#FFFFFF"></path>
    </g>
</svg>
