<?xml version="1.0" encoding="UTF-8"?>
<svg width="24px" height="24px" viewBox="0 0 24 24" version="1.1" xmlns="http://www.w3.org/2000/svg" xmlns:xlink="http://www.w3.org/1999/xlink">
    <!-- Generator: Sketch 61.2 (89653) - https://sketch.com -->
    <title>icon / Scripting / Lua Script </title>
    <desc>Created with Sketch.</desc>
    <defs>
        <path d="M10.2920036,1.73746441 L10.2920036,3.54169333 C8.54160156,3.58683962 7.13575323,4.28655293 7.13575323,5.73875885 L7.13575323,7.89396648 C7.13575323,9.51170883 6.28720149,11.4062034 4.59007255,11.6996544 L4.59007255,11.8350926 C6.28720149,12.1285435 7.13575323,13.7141474 7.13575323,15.3318898 L7.13575323,17.8060669 C7.13575323,18.573554 7.35835537,19.13035 7.80356632,19.4764716 C8.24877728,19.8225932 9.43202347,20.0521273 10.2920036,20.067176 L10.2920036,21.8951857 C8.84601931,21.880137 7.0860082,21.6365054 6.29452205,20.9969329 C5.50303591,20.3573603 4.68021185,19.310204 4.68021185,18.151449 L4.68021185,15 C4.68021185,14.2174642 4.44048647,13.6587871 3.96102852,13.3239521 C3.48157057,12.989117 2.78522542,12.821702 1.87197218,12.821702 L1.87197218,10.4901436 C2.86132986,10.4750948 3.57670083,10.2945123 4.01810656,9.9483907 C4.45951229,9.60226908 4.68021185,9.0680459 4.68021185,8.34570513 L4.68021185,5.36382404 C4.68021185,4.19754467 5.51825657,3.43887612 6.34018449,2.79177918 C7.1621124,2.14468224 8.90690285,1.73746441 10.2920036,1.73746441 Z M13.6146362,1.73746441 C14.9997369,1.73746441 16.7445274,2.14468224 17.5664553,2.79177918 C18.3883832,3.43887612 19.2264279,4.19754467 19.2264279,5.36382404 L19.2264279,5.36382404 L19.2264279,8.34570513 C19.2264279,9.0680459 19.4471275,9.60226908 19.8885332,9.9483907 C20.329939,10.2945123 21.0453099,10.4750948 22.0346676,10.4901436 L22.0346676,10.4901436 L22.0346676,12.821702 C21.1214144,12.821702 20.4250692,12.989117 19.9456113,13.3239521 C19.4661533,13.6587871 19.2264279,14.2174642 19.2264279,15 L19.2264279,15 L19.2264279,18.151449 C19.2264279,19.310204 18.4036039,20.3573603 17.6121177,20.9969329 C16.8206316,21.6365054 15.0606205,21.880137 13.6146362,21.8951857 L13.6146362,21.8951857 L13.6146362,20.067176 C14.4746163,20.0521273 15.6578625,19.8225932 16.1030735,19.4764716 C16.5482844,19.13035 16.7708866,18.573554 16.7708866,17.8060669 L16.7708866,17.8060669 L16.7708866,15.3318898 C16.7708866,13.7141474 17.6194383,12.1285435 19.3165672,11.8350926 L19.3165672,11.8350926 L19.3165672,11.6996544 C17.6194383,11.4062034 16.7708866,9.51170883 16.7708866,7.89396648 L16.7708866,7.89396648 L16.7708866,5.73875885 C16.7708866,4.28655293 15.3650382,3.58683962 13.6146362,3.54169333 L13.6146362,3.54169333 Z" id="path-1"></path>
    </defs>
    <g id="icon-/-Scripting-/-Lua-Script-" stroke="none" stroke-width="1" fill="none" fill-rule="evenodd">
        <mask id="mask-2" fill="white">
            <use xlink:href="#path-1"></use>
        </mask>
        <use id="Combined-Shape" fill="#FFFFFF" xlink:href="#path-1"></use>
    </g>
</svg>
