<?xml version="1.0" encoding="UTF-8"?>
<svg width="24px" height="24px" viewBox="0 0 24 24" version="1.1" xmlns="http://www.w3.org/2000/svg" xmlns:xlink="http://www.w3.org/1999/xlink">
    <!-- Generator: Sketch 62 (91390) - https://sketch.com -->
    <title>Icons / Toolbar / Ruler</title>
    <desc>Created with Sketch.</desc>
    <g id="Icons-/-Toolbar-/-Ruler" stroke="none" stroke-width="1" fill="none" fill-rule="evenodd">
        <rect id="Icon-Background" x="0" y="0" width="24" height="24"></rect>
        <path d="M16.6568542,1.6862915 L22.3137085,7.34314575 L21.1816118,8.4742915 L18.7928932,6.08578644 L18.0857864,6.79289322 L20.4746118,9.1812915 L19.1816118,10.4742915 L16.7928932,8.08578644 L16.0857864,8.79289322 L18.4746118,11.1812915 L17.1816118,12.4742915 L14.7928932,10.0857864 L14.0857864,10.7928932 L16.4746118,13.1812915 L15.4316118,14.2242915 L12.4393398,11.232233 L11.732233,11.9393398 L14.7246118,14.9312915 L13.5566118,16.0992915 L11.2625631,13.8054564 L10.5554564,14.5125631 L12.8496118,16.8062915 L11.4326118,18.2232915 L9.13743915,15.9000928 L8.43033237,16.6071996 L10.7246118,18.9312915 L9.68561184,19.9702915 L7.39886152,17.6105505 L6.69175474,18.3176573 L8.97861184,20.6772915 L7.46446609,22.1923882 L1.80761184,16.5355339 L16.6568542,1.6862915 Z" id="Combined-Shape" fill="#FFFFFF"></path>
    </g>
</svg>
