<?xml version="1.0" encoding="UTF-8"?>
<svg width="24px" height="24px" viewBox="0 0 24 24" version="1.1" xmlns="http://www.w3.org/2000/svg" xmlns:xlink="http://www.w3.org/1999/xlink">
    <!-- Generator: Sketch 62 (91390) - https://sketch.com -->
    <title>Icons / Editor / Object Follow Terrain</title>
    <desc>Created with Sketch.</desc>
    <defs>
        <path d="M9,3 C10.6568542,3 12,4.34314575 12,6 C12,7.65685425 10.6568542,9 9,9 C7.34314575,9 6,7.65685425 6,6 C6,4.34314575 7.34314575,3 9,3 Z M8.09080205,7.59009752 L8.00746878,7.60252386 C7.7282674,7.63878548 7.44292581,7.65227088 7.15592413,7.64082403 C7.60329291,8.14531885 8.25525878,8.46431228 8.98182965,8.46954781 C8.61496648,8.26065565 8.31722981,7.95681608 8.09080205,7.59009752 Z M11.3396244,5.20724256 L11.3014187,5.32528594 C10.9064423,6.4304067 9.74402621,7.25916318 8.37733881,7.5405313 C8.64477271,7.93889489 9.0100113,8.24333994 9.46390297,8.39962738 L9.45370565,8.42802716 C10.6009322,8.2149999 11.4696133,7.20894562 11.4696133,6 C11.4696133,5.72269897 11.4239097,5.45607258 11.3396244,5.20724256 Z M7.92344354,3.77608181 L7.79772951,3.84228389 C7.0416548,4.26446861 6.53038674,5.07252778 6.53038674,6 C6.53038674,6.5023626 6.68038335,6.96969162 6.93803339,7.35964387 C7.28089656,7.39161789 7.6222472,7.38376705 7.9541891,7.34195194 C7.45660872,6.34335511 7.4265976,4.98234463 7.92344354,3.77608181 Z M9,3.53038674 C8.74771877,3.53038674 8.50427281,3.56821503 8.27502485,3.63850888 L8.34881372,3.49358482 C7.68188659,4.74967516 7.67712337,6.2641328 8.23091096,7.29944959 C9.73214731,7.02005284 10.9831893,6.04704388 11.1590866,4.79951854 C10.7369293,4.04253973 9.92827454,3.53038674 9,3.53038674 Z" id="path-1"></path>
    </defs>
    <g id="Icons-/-Editor-/-Object-Follow-Terrain" stroke="none" stroke-width="1" fill="none" fill-rule="evenodd">
        <g id="arrow" transform="translate(1.000000, 9.000000)" fill="#FFFFFF">
            <polygon id="Triangle" transform="translate(3.272727, 7.849878) rotate(-154.000000) translate(-3.272727, -7.849878) " points="3.27272727 6.3953328 5.81818182 9.30442371 0.727272727 9.30442371"></polygon>
            <polygon id="Rectangle" transform="translate(5.189974, 3.935596) rotate(26.000000) translate(-5.189974, -3.935596) " points="4.28088276 0.935596211 6.09906458 0.935596211 6.09906458 6.93559621 4.28088276 6.93559621"></polygon>
        </g>
        <path d="M15,4 L22,20 L8,20 L15,4 Z M15,7 L13,12 L17,12 L15,7 Z" id="Combined-Shape" fill="#FFFFFF"></path>
        <mask id="mask-2" fill="white">
            <use xlink:href="#path-1"></use>
        </mask>
        <use id="Combined-Shape" fill="#FFFFFF" fill-rule="nonzero" xlink:href="#path-1"></use>
    </g>
</svg>
