<?xml version="1.0" encoding="UTF-8"?>
<svg width="24px" height="24px" viewBox="0 0 24 24" version="1.1" xmlns="http://www.w3.org/2000/svg" xmlns:xlink="http://www.w3.org/1999/xlink">
    <!-- Generator: Sketch 62 (91390) - https://sketch.com -->
    <title>Icons / Miscellaneous / Object Height</title>
    <desc>Created with Sketch.</desc>
    <defs>
        <path d="M12,2 C17.5228475,2 22,6.4771525 22,12 C22,17.5228475 17.5228475,22 12,22 C6.4771525,22 2,17.5228475 2,12 C2,6.4771525 6.4771525,2 12,2 Z M8.97077942,17.3026553 L8.7502194,17.334024 C7.79903364,17.4609372 6.82609992,17.5085559 5.847406,17.4691861 C7.3409624,19.1485377 9.51238088,20.2123773 11.9326418,20.2317744 C10.7160138,19.5346208 9.72486061,18.5231977 8.97077942,17.3026553 Z M16.9879252,13.6661187 L16.8578627,13.7849703 C15.0326149,15.4082349 12.5942518,16.5859228 9.92171093,17.1356706 C10.817265,18.4641131 12.0342135,19.4780899 13.5463432,19.9987579 L13.514843,20.092961 C15.4055269,19.7412773 17.0690946,18.7433889 18.2677301,17.3371116 C18.1976816,16.0088246 17.7390359,14.7691272 16.9879252,13.6661187 Z M4.61881029,8.7767307 L4.41212584,8.80221415 C3.99729477,9.78534652 3.7679558,10.8658908 3.7679558,12 C3.7679558,13.6765985 4.2691733,15.2361313 5.12994372,16.536934 C6.26998539,16.6385947 7.4059778,16.6125196 8.51073564,16.4735794 C7.4070606,14.2548902 6.99465968,11.4982024 7.33332756,8.71537925 C6.43997642,8.65410578 5.52934974,8.67163921 4.61881029,8.7767307 Z M8.21438415,8.80264677 L8.19494611,8.96178781 C7.89552315,11.6378765 8.33340756,14.2680761 9.43508062,16.3290875 C12.1729275,15.8216849 14.6608859,14.6209601 16.4492451,12.9566251 C14.6072917,10.7683513 11.5659447,9.23279536 8.21438415,8.80264677 Z M19.799474,9.35961949 L19.7723134,9.45087289 C19.3562514,10.7701386 18.6143255,11.9773783 17.6294097,13.032709 C18.3259209,14.0179237 18.8126137,15.1108997 19.0314084,16.2835231 C19.7929585,15.0359349 20.2320442,13.5692444 20.2320442,12 C20.2320442,11.0764597 20.0799615,10.1884403 19.799474,9.35961949 Z M12,3.7679558 C11.1598904,3.7679558 10.3491738,3.89380196 9.58567315,4.12767123 C8.99339566,5.35010711 8.58351582,6.63672113 8.3471787,7.92830825 C11.8707444,8.38463782 15.0839034,9.99514865 17.0757359,12.3221492 C18.2103127,11.071919 18.9699341,9.60446751 19.196605,8.00087583 C17.7904,5.47553499 15.0946132,3.7679558 12,3.7679558 Z M8.4102054,4.59003106 L8.25892421,4.6651726 C6.85036586,5.38503519 5.67652256,6.49871304 4.88259531,7.86100518 C5.74859547,7.78178797 6.61357903,7.77647084 7.46519952,7.8389601 C7.66099824,6.74084989 7.97486384,5.64761537 8.4102054,4.59003106 Z" id="path-1"></path>
    </defs>
    <g id="Icons-/-Miscellaneous-/-Object-Height" stroke="none" stroke-width="1" fill="none" fill-rule="evenodd">
        <rect id="Icon-Background" x="0" y="0" width="24" height="24"></rect>
        <mask id="mask-2" fill="white">
            <use xlink:href="#path-1"></use>
        </mask>
        <use id="Combined-Shape" fill="#FFFFFF" fill-rule="nonzero" xlink:href="#path-1"></use>
    </g>
</svg>
