<svg width="16" height="17" viewBox="0 0 16 17" fill="none" xmlns="http://www.w3.org/2000/svg">
<path fill-rule="evenodd" clip-rule="evenodd" d="M14.9865 2.55797C14.9865 1.97457 14.7672 1.58245 14.2921 1.47209C8.88956 0.978597 7.3105 7.32066 7.11069 8.23978C6.96114 8.21234 6.80991 8.19487 6.65573 8.19487C5.86577 8.19487 5.12356 8.55813 4.5651 9.21779C3.97079 9.91979 3.56945 11.49 3.23777 12.7878C2.94469 13.9346 1.89679 14.4095 1.34831 14.6581C1.14911 14.7484 1.01579 14.8089 1.00841 14.8608C0.987715 15.005 1.00259 15.1699 1.08243 15.2817C1.16227 15.3934 1.30803 15.4448 1.42196 15.4448C2.08636 15.4448 5.61718 15.3936 6.99396 15.0368C7.73384 14.8451 8.38629 14.565 8.74677 14.1572C10.1094 12.6156 9.60775 11.052 9.44089 10.6104C10.9203 10.0471 15.2733 8.10615 14.9865 2.55797ZM8.13852 13.4547C7.80621 13.8805 7.06735 14.2719 6.08869 14.439C6.58101 13.8805 6.58101 12.9346 6.58101 12.396C6.23545 13.2484 5.08212 14.3169 4.17655 14.7274C3.60913 14.9845 2.87879 14.9845 1.9897 14.9121C2.08236 14.8646 2.19648 14.8102 2.32389 14.7494L2.32395 14.7494C2.83422 14.5061 3.55761 14.1611 3.9699 13.7545L4.00484 13.72C4.78151 12.954 5.21167 12.5298 5.31542 12.1429C4.88744 12.0222 4.57019 12.1429 3.9699 12.5355C4.63625 10.6606 4.93289 10.3031 5.20387 9.97658L5.20389 9.97656C5.24126 9.93153 5.27813 9.8871 5.31542 9.83935C5.69236 9.35669 6.19389 9.09082 6.72697 9.09082C7.26004 9.09082 7.76157 9.35669 8.13852 9.83935C8.51547 10.322 8.72351 10.9642 8.72351 11.6468C8.72351 12.3293 8.51547 12.972 8.13852 13.4547ZM9.84521 4.84746C8.71717 5.28951 7.84414 8.21601 7.80034 8.43367C7.80585 8.43662 7.81155 8.43967 7.81743 8.44282C8.11893 8.60424 8.89473 9.01958 9.1616 9.76094C9.58235 9.63099 11.5838 8.89555 12.3154 7.59848C12.5597 6.8021 12.6922 5.76108 11.8041 4.93171C11.243 4.40764 10.2053 4.69917 9.84521 4.84746Z" fill="white"/>
</svg>
