<svg width="16" height="16" viewBox="0 0 16 16" fill="none" xmlns="http://www.w3.org/2000/svg">
<path fill-rule="evenodd" clip-rule="evenodd" d="M15.9847 1.25361C15.9847 0.588543 15.7368 0.141534 15.1997 0.0157282C8.50904 -0.376364 6.9917 6.6167 6.76583 7.66449C5.68588 7.46462 4.62541 7.84298 3.90433 8.70191C3.2325 9.50217 2.53606 11.7566 2.16112 13.236C1.82979 14.2408 1.27249 14.5513 0.652463 14.8347C0.42728 14.9376 0.0178481 15.2751 0.00951216 15.3343C-0.0138873 15.4987 0.00293268 15.6867 0.0931877 15.8141C0.183443 15.9415 0.348209 16 0.477002 16C1.22807 16 4.69743 16 6.30908 16C7.42382 16 8.34982 15.2996 8.75734 14.8347C10.2978 13.0773 10.0513 11.7994 9.83757 10.7323C11.5099 10.0901 16.309 7.57843 15.9847 1.25361ZM8.22881 13.5019C7.85314 13.9873 6.99162 14.9069 5.8853 15.0974C6.44184 14.4608 6.44184 13.3825 6.44184 12.7685C6.05121 13.7401 4.74742 14.6558 3.72371 15.1237C3.08228 15.4169 2.25666 15.4169 1.25159 15.3343C1.35636 15.2802 1.48539 15.2181 1.62945 15.1488C2.20627 14.8715 2.92915 14.4423 3.49011 14.0146C3.97366 13.646 4.84755 13.0952 5.01116 12.4799C4.52735 12.3424 4.16871 12.4799 3.49012 12.9275C4.60623 10.7831 4.87047 10.4116 5.17681 10.0394C5.62519 9.49448 6.14556 9.02962 6.89859 9.02962C7.5012 9.02962 8.06816 9.33271 8.49427 9.88293C8.92039 10.4332 8.8901 10.6627 8.8901 11.4409C8.8901 12.219 8.65492 12.9516 8.22881 13.5019ZM10.1729 3.86338C8.73106 4.65799 7.91076 7.70347 7.86124 7.95159C7.86747 7.95496 7.87392 7.95844 7.88056 7.96203C8.22139 8.14604 9.0984 8.61952 9.40008 9.46466C9.87572 9.31651 12.1383 8.47813 12.9653 6.9995C13.2414 6.09164 13.5914 4.80885 12.5875 3.86338C11.9531 3.26596 10.9486 3.43587 10.1729 3.86338Z" fill="white"/>
</svg>
