<?xml version="1.0" encoding="UTF-8"?>
<svg width="24px" height="24px" viewBox="0 0 24 24" version="1.1" xmlns="http://www.w3.org/2000/svg" xmlns:xlink="http://www.w3.org/1999/xlink">
    <title>Icon / Parent</title>
    <g id="Icon-/-Parent" stroke="none" stroke-width="1" fill="none" fill-rule="evenodd">
        <rect id="Rectangle" x="0" y="0" width="24" height="24"></rect>
        <path d="M10.5449219,19 L10.5449219,13.921875 L11.84375,13.921875 C13.6145833,13.921875 14.9801432,13.514974 15.9404297,12.7011719 C16.9007161,11.8873698 17.3808594,10.7122396 17.3808594,9.17578125 C17.3808594,7.69791667 16.930013,6.58626302 16.0283203,5.84082031 C15.1266276,5.0953776 13.8098958,4.72265625 12.078125,4.72265625 L12.078125,4.72265625 L7.51757812,4.72265625 L7.51757812,19 L10.5449219,19 Z M11.5410156,11.4414062 L10.5449219,11.4414062 L10.5449219,7.203125 L11.921875,7.203125 C12.7486979,7.203125 13.3557943,7.37239583 13.7431641,7.7109375 C14.1305339,8.04947917 14.3242188,8.57356771 14.3242188,9.28320312 C14.3242188,9.98632812 14.093099,10.5218099 13.6308594,10.8896484 C13.1686198,11.257487 12.4720052,11.4414062 11.5410156,11.4414062 L11.5410156,11.4414062 Z" id="P" fill="#FFFFFF" fill-rule="nonzero"></path>
    </g>
</svg>