<?xml version="1.0" encoding="UTF-8"?>
<svg width="24px" height="24px" viewBox="0 0 24 24" version="1.1" xmlns="http://www.w3.org/2000/svg" xmlns:xlink="http://www.w3.org/1999/xlink">
    <!-- Generator: Sketch 62 (91390) - https://sketch.com -->
    <title>Icons / Miscellaneous / Reset Physics State</title>
    <desc>Created with Sketch.</desc>
    <defs>
        <path d="M17.4154411,4.10885088 C20.3502324,4.10885088 21.8436992,7.71950738 21.8436992,12.1734779 C21.8436992,16.6274484 20.3502324,20.2381049 17.4154411,20.2381049 C16.5262738,20.2381049 16.0161455,19.6606177 15.5840542,19.2337032 C14.9572268,18.6143857 14.5889374,17.8918587 14.2523996,16.2057914 C14.0906128,15.5116539 14.0525355,15.1645851 14.1381677,15.1645851 C14.2237998,15.1645851 14.3848505,15.4326988 14.6213198,15.9689263 C15.0912496,17.7111519 16.2678584,18.2089801 17.4154411,18.2089801 C19.1623407,18.2089801 20.5,15.5631764 20.5,12 C20.5,8.43682359 19.1623407,6.09663534 17.4154411,6.09663534 C15.9462082,6.09663534 14.9127371,7.8747224 14.6213198,10.5598217 L14.6213198,10.5598217 L13.0560662,10.559732 C13.380002,6.87905742 14.8448073,4.10885088 17.4154411,4.10885088 Z M7.13445793,4 C7.51786435,4 7.96419305,4.15904588 8.450792,4.43818763 C8.65801604,4.28157612 8.90802723,4.17284067 9.19327489,4.17284067 C9.86780172,4.17284067 10.415645,4.70191166 10.415645,5.35432435 C10.415645,5.55394316 10.3518838,5.73408696 10.2612757,5.89881305 C10.5104479,6.14711937 10.7604591,6.40922049 11.0138262,6.69809974 C12.4761399,5.02406071 13.8931496,4 14.8923554,4 L14.8043787,4.00216741 C14.4261062,4.29582834 14.0736071,4.67441875 13.7545609,5.1243289 C13.0962058,5.55295948 12.302067,6.27461763 11.4635107,7.24664573 C11.7580651,7.61029537 12.0521922,7.98964734 12.3443677,8.3947274 C12.2540542,8.76809402 12.1785144,9.15525321 12.1190922,9.55401683 C11.7598532,9.53850281 11.4007083,9.52359847 11.0138262,9.52359847 C10.5624637,9.52359847 10.1480156,9.54388494 9.72685581,9.56254848 C9.5028525,9.90173816 9.27968815,10.2449851 9.0590407,10.6150102 C8.83335946,10.9923385 8.64543158,11.3501917 8.45246993,11.7088564 C8.64710951,12.0715784 8.84174909,12.4343004 9.0590407,12.7986453 C9.27968815,13.1686704 9.50704732,13.5102944 9.73440649,13.851107 C10.1513715,13.8689591 10.5649806,13.890057 11.0138262,13.890057 C11.4626717,13.890057 11.8762808,13.8689591 12.2932458,13.851107 L12.1190922,13.8588272 C12.1784079,14.2568763 12.2537835,14.6433625 12.3439163,15.015977 C12.0550324,15.4179489 11.7626214,15.7940124 11.4710614,16.1540264 C12.3008483,17.1131003 13.0878598,17.8322524 13.7391784,18.2653893 C14.0613453,18.7251257 14.419053,19.1113521 14.803379,19.4099003 C13.8120307,19.3513659 12.4342524,18.3397063 11.0138262,16.7131214 C9.5489955,18.3895948 8.13030786,19.412844 7.13361897,19.412844 C6.90122602,19.412844 6.69064613,19.3617221 6.50691308,19.2594784 C6.0345765,18.9957543 5.81896283,18.4439625 5.79127703,17.7185185 C5.35753279,17.5351289 5.05382792,17.1180392 5.05382792,16.6344099 C5.05382792,16.034742 5.52448657,15.5567929 6.12518459,15.4797044 C6.24012261,15.0699178 6.37855163,14.6414677 6.54298852,14.2024686 C3.96820887,13.7586007 2,12.9163067 2,11.7088564 C2,10.4989717 3.96904784,9.6542433 6.54718333,9.21037546 C6.32989173,8.63018259 6.1411249,8.06540742 6.01360241,7.54363957 C5.57650232,5.75112759 5.74765091,4.58019288 6.50691308,4.15742296 C6.69064613,4.05355627 6.90290395,4 7.13445793,4 Z M7.25359078,14.3136384 C7.08160322,14.7680552 6.93897939,15.1940709 6.82907514,15.5916856 C7.22254912,15.7888701 7.50360197,16.1751244 7.50360197,16.6344099 C7.50360197,17.2121684 7.06398498,17.6738883 6.49516758,17.7769436 C6.52201442,18.2402864 6.64534209,18.5543209 6.85592198,18.6736053 C7.44990829,18.9981887 8.91725583,18.0439134 10.555752,16.1540264 C10.1454987,15.6484877 9.73440649,15.1104907 9.33422079,14.516503 C8.62277956,14.4767416 7.92308383,14.4061447 7.25359078,14.3136384 Z M11.8108417,14.555453 C11.5457291,14.5619447 11.2780997,14.5668135 11.0138262,14.5668135 C10.7470357,14.5668135 10.4810842,14.5619447 10.2168106,14.555453 C10.4827621,14.9295354 10.7495526,15.2890116 11.0138262,15.6168409 C11.2780997,15.2890116 11.5448902,14.9295354 11.8108417,14.555453 Z M16.9363293,10.5605525 L14.2523996,13.982084 L11.5684699,10.5605525 L16.9363293,10.5605525 Z M8.06822455,12.4456608 C7.86016155,12.8676192 7.66384404,13.2798402 7.49856819,13.6701518 C7.92895657,13.7261424 8.39625936,13.7691497 8.87698557,13.8048539 C8.7352007,13.5817028 8.59005998,13.3682892 8.45246993,13.1370235 C8.31404092,12.9057578 8.19574703,12.6769265 8.06822455,12.4456608 Z M6.8022283,9.85873086 C4.21066939,10.2985414 2.7005347,11.0832218 2.7005347,11.7088564 C2.7005347,12.332868 4.21066939,13.1159256 6.79971141,13.5533017 C7.05056156,12.9438963 7.33832612,12.3247534 7.65713233,11.7072335 C7.32993648,11.0783531 7.05056156,10.4616446 6.8022283,9.85873086 Z M8.87530764,9.60799016 C8.39961522,9.6445058 7.93147346,9.68426727 7.50360197,9.74269228 C7.67139471,10.1378726 7.86016155,10.5411675 8.0623518,10.9509541 C8.18987429,10.7237457 8.3190747,10.4989717 8.45246993,10.276632 C8.59005998,10.0437434 8.7352007,9.83032981 8.87530764,9.60799016 Z M7.13445793,4.6775679 C7.02371472,4.6775679 6.93394561,4.69866583 6.85592198,4.74329605 C6.51278582,4.93398881 6.29046044,5.72921821 6.69400198,7.38865098 C6.82404136,7.9209678 7.02287576,8.50278359 7.25107389,9.10082856 C7.9214059,9.0058879 8.61942371,8.93610247 9.33254287,8.89552954 C9.73776234,8.29667312 10.1513715,7.75624171 10.5641416,7.24664573 C10.2923174,6.93261126 10.0246879,6.64292056 9.76544814,6.38244236 C9.59178265,6.47251426 9.40301582,6.5382424 9.19327489,6.5382424 C8.5179091,6.5382424 7.96838787,6.00998287 7.96838787,5.35432435 C7.96838787,5.22773681 8.00530227,5.11088678 8.0438946,4.99647112 C7.69069088,4.80009815 7.37691845,4.6775679 7.13445793,4.6775679 Z M11.0138262,7.79438026 C10.7470357,8.12545536 10.4810842,8.47843984 10.2142937,8.85657953 C10.4794063,8.8492764 10.7470357,8.84603057 11.0138262,8.84603057 C11.2806166,8.84603057 11.5474071,8.8492764 11.8133586,8.85657953 C11.5457291,8.47843984 11.2780997,8.12545536 11.0138262,7.79438026 Z" id="path-1"></path>
    </defs>
    <g id="Icons-/-Miscellaneous-/-Reset-Physics-State" stroke="none" stroke-width="1" fill="none" fill-rule="evenodd">
        <rect id="Icon-Background" x="0" y="0" width="24" height="24"></rect>
        <mask id="mask-2" fill="white">
            <use xlink:href="#path-1"></use>
        </mask>
        <use id="Imported-Layers-Copy-8" fill="#FFFFFF" transform="translate(11.921850, 12.119052) rotate(-360.000000) translate(-11.921850, -12.119052) " xlink:href="#path-1"></use>
    </g>
</svg>
