<?xml version="1.0" encoding="UTF-8"?>
<svg width="24px" height="24px" viewBox="0 0 24 24" version="1.1" xmlns="http://www.w3.org/2000/svg" xmlns:xlink="http://www.w3.org/1999/xlink">
    <!-- Generator: Sketch 62 (91390) - https://sketch.com -->
    <title>Icons / Toolbar / Rotate</title>
    <desc>Created with Sketch.</desc>
    <g id="Icons-/-Toolbar-/-Rotate" stroke="none" stroke-width="1" fill="none" fill-rule="evenodd">
        <rect id="Icon-Background" x="0" y="0" width="24" height="24"></rect>
        <path d="M14,12.7573593 L14,21.2426407 L9.75735931,17 L14,12.7573593 Z M12,5 C17.5228475,5 22,7.3608081 22,12 C22,16.0635474 18.5649911,18.3790487 14.0010174,18.8911124 L14.0009061,16.4168268 C17.3303835,15.9561668 19.5351812,14.3225002 19.5351812,12 C19.5351812,9.23857625 16.418278,8.0041333 12,8.0041333 C7.581722,8.0041333 4.51608017,9.23857625 4.51608017,12 C4.51608017,13.8140495 5.1333787,15.673982 7.29370866,16.4168268 C7.95862159,16.7906273 8.29107806,17.0452093 8.29107806,17.180573 C8.29107806,17.3159366 7.86071871,17.2557456 7,17 C4.90930531,16.4680156 4.01338412,15.8858396 3.24544096,14.8949777 C2.71607427,14.2119464 2,13.4055574 2,12 C2,7.3608081 6.4771525,5 12,5 Z" id="Shape" fill="#FFFFFF"></path>
    </g>
</svg>
