<?xml version="1.0" encoding="UTF-8"?>
<svg width="24px" height="24px" viewBox="0 0 24 24" version="1.1" xmlns="http://www.w3.org/2000/svg" xmlns:xlink="http://www.w3.org/1999/xlink">
    <!-- Generator: Sketch 62 (91390) - https://sketch.com -->
    <title>Icons / System / Save</title>
    <desc>Created with Sketch.</desc>
    <g id="Icons-/-System-/-Save" stroke="none" stroke-width="1" fill="none" fill-rule="evenodd">
        <rect id="Rectangle-18" fill-opacity="0" fill="#D8D8D8" x="0" y="0" width="24" height="24"></rect>
        <path d="M17.0159337,3 L20.7111797,6.7381876 C20.8962228,6.92538099 21,7.17798254 21,7.44119783 L21,20 C21,20.5522847 20.5522847,21 20,21 L4,21 C3.44771525,21 3,20.5522847 3,20 L3,4 C3,3.44771525 3.44771525,3 4,3 L17.0159337,3 Z M19,12 L5,12 L5,19 L19,19 L19,12 Z M17,5 L5,5 L5,9 C5,9.55228475 5.44771525,10 6,10 L6,10 L16,10 C16.5522847,10 17,9.55228475 17,9 L17,9 L17,5 Z M6.5,13 L17.5,13 C17.7761424,13 18,13.2238576 18,13.5 L18,14.5 C18,14.7761424 17.7761424,15 17.5,15 L6.5,15 C6.22385763,15 6,14.7761424 6,14.5 L6,13.5 C6,13.2238576 6.22385763,13 6.5,13 Z M6.5,16 L17.5,16 C17.7761424,16 18,16.2238576 18,16.5 L18,17.5 C18,17.7761424 17.7761424,18 17.5,18 L6.5,18 C6.22385763,18 6,17.7761424 6,17.5 L6,16.5 C6,16.2238576 6.22385763,16 6.5,16 Z" id="Combined-Shape" fill="#FFFFFF"></path>
        <path d="M14,6 L16,6 L16,8.5 C16,8.77614237 15.7761424,9 15.5,9 L14,9 L14,9 L14,6 Z" id="Rectangle" fill="#FFFFFF"></path>
    </g>
</svg>
