<?xml version="1.0" encoding="UTF-8"?>
<svg width="24px" height="24px" viewBox="0 0 24 24" version="1.1" xmlns="http://www.w3.org/2000/svg" xmlns:xlink="http://www.w3.org/1999/xlink">
    <!-- Generator: Sketch 62 (91390) - https://sketch.com -->
    <title>Icons / Toolbar / Jump to Selected Object</title>
    <desc>Created with Sketch.</desc>
    <defs>
        <path d="M9,3 C12.3137085,3 15,5.6862915 15,9 C15,12.3137085 12.3137085,15 9,15 C5.6862915,15 3,12.3137085 3,9 C3,5.6862915 5.6862915,3 9,3 Z M7.18280885,12.1821454 L7.16105151,12.1849928 C6.55556351,12.2725763 5.93459352,12.3066205 5.30970189,12.2815622 C6.20404308,13.2886245 7.50625575,13.9268952 8.95777517,13.9390498 C8.2286877,13.5197511 7.63479529,12.913544 7.18280885,12.1821454 Z M11.992984,10.0000075 L11.9741309,10.0175525 C10.8725297,11.019314 9.3850982,11.7458595 7.75198955,12.0816156 C8.29002669,12.8781909 9.02032163,13.4867829 9.92780594,13.7992548 L9.90854907,13.8558429 C11.0431037,13.6448925 12.0413758,13.0461251 12.760632,12.202274 C12.7186361,11.4054836 12.4435311,10.6617522 11.992984,10.0000075 Z M4.45368014,7.08042602 C4.19843986,7.67091113 4.06077348,8.31937871 4.06077348,9 C4.06077348,10.005871 4.36145131,10.9415149 4.87783055,11.7219553 C5.56164889,11.7831865 6.24371424,11.7675357 6.90700856,11.6840763 C6.24431731,10.3529362 5.99689614,8.69938158 6.19989039,7.03010007 C5.62557394,6.98980177 5.03919581,7.00473182 4.45368014,7.08042602 Z M6.72906115,7.08164334 L6.7026956,7.31416356 C6.55260754,8.87224166 6.81883867,10.3958969 7.46094617,11.5972613 C9.10380661,11.2929279 10.5962602,10.572667 11.6691582,9.57433687 C10.5645957,8.26117605 8.73990543,7.33981879 6.72906115,7.08164334 Z M13.680194,7.41727846 L13.6764624,7.42842019 C13.4294371,8.23650496 12.9789487,8.97539522 12.3774283,9.61985846 C12.7956237,10.210843 13.0876843,10.8667906 13.2189255,11.5705451 C13.6756834,10.8218671 13.9392265,9.94171044 13.9392265,9 C13.9392265,8.44643546 13.8481611,7.91414038 13.680194,7.41727846 Z M9,4.06077348 C8.49601945,4.06077348 8.00966871,4.13625565 7.55163617,4.27653159 C7.19605128,5.01001356 6.9501062,5.78202923 6.80829926,6.55702846 C8.92295322,6.83089376 10.8510808,7.7974848 12.0460932,9.19405094 C12.7261429,8.44333758 13.1820967,7.56254384 13.318035,6.60001608 C12.4738231,5.08505696 10.8565287,4.06077348 9,4.06077348 Z M6.84601546,4.55428048 L6.80201951,4.57556643 C5.93633603,5.00645307 5.21497525,5.6839281 4.72988079,6.51604792 C5.25000042,6.46904471 5.76896786,6.46589996 6.27991416,6.50343439 C6.39651631,5.84483199 6.58482042,5.18886163 6.84601546,4.55428048 Z" id="path-1"></path>
    </defs>
    <g id="Icons-/-Toolbar-/-Jump-to-Selected-Object" stroke="none" stroke-width="1" fill="none" fill-rule="evenodd">
        <rect id="Icon-Background" x="0" y="0" width="24" height="24"></rect>
        <path d="M11,11 L18.6236276,13.1781793 L15.605,14.488 L21,19.8835456 L19.844846,21.0386996 L14.471,15.665 L13.1781793,18.6236276 L11,11 Z" id="Combined-Shape-Copy-2" fill="#FFFFFF"></path>
        <mask id="mask-2" fill="white">
            <use xlink:href="#path-1"></use>
        </mask>
        <use id="Combined-Shape" fill="#FFFFFF" fill-rule="nonzero" xlink:href="#path-1"></use>
    </g>
</svg>
