<?xml version="1.0" encoding="UTF-8"?>
<svg width="24px" height="24px" viewBox="0 0 24 24" version="1.1" xmlns="http://www.w3.org/2000/svg" xmlns:xlink="http://www.w3.org/1999/xlink">
    <!-- Generator: Sketch 62 (91390) - https://sketch.com -->
    <title>Icons / Miscellaneous / Simulate physics on select objects</title>
    <desc>Created with Sketch.</desc>
    <defs>
        <path d="M15.8923554,4 C16.1247484,4 16.3361672,4.05355627 16.5207392,4.15742296 C17.2791624,4.58019288 17.450311,5.75112759 17.0148889,7.54363957 C16.8865274,8.06540742 16.6977606,8.63018259 16.4813079,9.21037546 C19.0569265,9.65586622 21.0268133,10.4989717 21.0268133,11.7088564 C21.0268133,12.2119607 20.6769655,12.6493369 20.0955636,13.0234193 C20.1056312,13.0891474 20.1366728,13.1508183 20.1366728,13.2214152 C20.1366728,13.8746393 19.5863126,14.4061447 18.9117858,14.4061447 C18.4981767,14.4061447 18.1525237,14.194354 17.9318762,13.8933029 C17.4796748,14.0125873 16.9947537,14.1156425 16.4846638,14.2024686 C17.3739653,16.5816651 17.6021635,18.6533188 16.5207392,19.2586669 C16.3361672,19.3617221 16.1255873,19.412844 15.8940333,19.412844 C14.8965055,19.412844 13.4778178,18.3895948 12.0138262,16.7131214 C10.5489955,18.3895948 9.13030786,19.412844 8.13361897,19.412844 C7.90122602,19.412844 7.69064613,19.3617221 7.50691308,19.2594784 C7.13370887,19.0511038 6.92077551,18.66289 6.83417845,18.1512747 L8.30828929,16.0064595 C8.43113887,16.1868193 8.50360197,16.4011999 8.50360197,16.6344099 C8.50360197,17.2121684 8.06398498,17.6738883 7.49516758,17.7769436 C7.52201442,18.2402864 7.64534209,18.5543209 7.85592198,18.6736053 C8.44990829,18.9981887 9.91725583,18.0439134 11.555752,16.1540264 C11.1454987,15.6484877 10.7344065,15.1104907 10.3342208,14.516503 L10.355846,14.548 L12.3481601,13.8864041 C12.5275483,13.882633 12.7025733,13.8763031 12.8759701,13.8691394 L13.2932458,13.851107 C13.3733753,13.7309925 13.4531921,13.6109789 13.532733,13.4896451 L14.5729303,13.1421827 C14.4354327,13.3714655 14.2913967,13.5833631 14.1506667,13.8048539 C14.6313929,13.7691497 15.0986957,13.7261424 15.5282452,13.6701518 C15.3654862,13.2798402 15.1691687,12.8676192 14.9611057,12.4456608 C14.8293884,12.6769265 14.7127724,12.9057578 14.5760213,13.1370235 L14.738846,12.846 L14.1460349,12.4937007 C14.2261194,12.3528692 14.3038098,12.2122133 14.3803253,12.0716385 L14.5760213,11.7088564 C14.3822207,11.3501917 14.1942928,10.9923385 13.9686116,10.6150102 C13.7479641,10.2449851 13.5239608,9.90173816 13.2999575,9.56254848 C12.8787977,9.54388494 12.4651886,9.52359847 12.0138262,9.52359847 C11.5624637,9.52359847 11.1480156,9.54388494 10.7268558,9.56254848 C10.5852004,9.77704558 10.4438805,9.9931652 10.3033204,10.2166533 L9.70984602,9.865 L9.87530764,9.60799016 C9.69811562,9.62159197 9.52197126,9.63564415 9.34856564,9.65094353 L8.38829744,9.0817979 C9.01647233,8.99652575 9.66794957,8.93334159 10.3325429,8.89552954 C10.7377623,8.29667312 11.1513715,7.75624171 11.5641416,7.24664573 C11.2923174,6.93261126 11.0246879,6.64292056 10.7654481,6.38244236 C10.5917827,6.47251426 10.4030158,6.5382424 10.1932749,6.5382424 C9.5179091,6.5382424 8.96838787,6.00998287 8.96838787,5.35432435 C8.96838787,5.22773681 9.00530227,5.11088678 9.0438946,4.99647112 C8.69069088,4.80009815 8.37691845,4.6775679 8.13445793,4.6775679 C8.02371472,4.6775679 7.93394561,4.69866583 7.85592198,4.74329605 C7.51278582,4.93398881 7.29046044,5.72921821 7.69400198,7.38865098 C7.82404136,7.9209678 8.02287576,8.50278359 8.25107389,9.10082856 L8.20284602,8.972 L7.26713019,8.41766772 C7.20510129,8.22876566 7.14804046,8.04307027 7.09720347,7.86164044 L7.01360241,7.54363957 C6.57650232,5.75112759 6.74765091,4.58019288 7.50691308,4.15742296 C7.69064613,4.05355627 7.90290395,4 8.13445793,4 C8.51786435,4 8.96419305,4.15904588 9.450792,4.43818763 C9.65801604,4.28157612 9.90802723,4.17284067 10.1932749,4.17284067 C10.8678017,4.17284067 11.415645,4.70191166 11.415645,5.35432435 C11.415645,5.55394316 11.3518838,5.73408696 11.2612757,5.89881305 C11.5104479,6.14711937 11.7604591,6.40922049 12.0138262,6.69809974 C13.4761399,5.02406071 14.8931496,4 15.8923554,4 Z M15.7732226,14.3136384 C15.1045685,14.4061447 14.4048727,14.4767416 13.6934315,14.516503 C13.2915679,15.1113022 12.8804757,15.6484877 12.4710614,16.1540264 C14.1103965,18.0487822 15.5827778,19.0071148 16.1717303,18.6736053 C16.7304802,18.3595708 16.6776254,16.7009495 15.7732226,14.3136384 Z M4.42584602,7.8490533 L13.6132886,12.7228776 L8.31264435,13.7985051 L5.14143655,18.2245627 L4.42584602,7.8490533 Z M12.8108417,14.555453 C12.5457291,14.5619447 12.2780997,14.5668135 12.0138262,14.5668135 C11.7470357,14.5668135 11.4810842,14.5619447 11.2168106,14.555453 C11.4827621,14.9295354 11.7495526,15.2890116 12.0138262,15.6168409 C12.2780997,15.2890116 12.5448902,14.9295354 12.8108417,14.555453 Z M16.225424,9.85873086 C15.9762518,10.4632675 15.6977158,11.0783531 15.3721979,11.7072335 C15.6893262,12.3247534 15.9762518,12.9438963 16.2279409,13.5533017 C16.7657166,13.4624184 17.2556714,13.3593631 17.6919326,13.2433245 L17.6919326,13.2433245 L17.6885767,13.2214152 C17.6885767,12.5690025 18.23642,12.0399315 18.9117858,12.0399315 C19.2574389,12.0399315 19.5661775,12.1803138 19.7876639,12.401842 C20.1366728,12.1657076 20.3271176,11.9263273 20.3271176,11.7088564 C20.3271176,11.0832218 18.8161439,10.2985414 16.225424,9.85873086 Z M14.1515057,9.60799016 C14.2924516,9.83032981 14.4375923,10.0437434 14.5760213,10.276632 C14.7077386,10.4989717 14.838617,10.7237457 14.9636226,10.9509541 C15.1674908,10.5411675 15.3545797,10.1378726 15.5232114,9.74269228 C15.0953399,9.68426727 14.6280371,9.6445058 14.1515057,9.60799016 Z M15.8923554,4.6775679 C15.1691687,4.6775679 13.8796815,5.60506505 12.4635107,7.24664573 C12.8762808,7.75624171 13.288212,8.29667312 13.6951094,8.89552954 C14.4073896,8.93610247 15.1054074,9.0058879 15.7765784,9.10082856 C16.0047765,8.50278359 16.201933,7.9209678 16.3328114,7.38865098 C16.7371919,5.72921821 16.5140275,4.93398881 16.1717303,4.74329605 C16.0937067,4.69866583 16.0030986,4.6775679 15.8923554,4.6775679 Z M12.0138262,7.79438026 C11.7470357,8.12545536 11.4810842,8.47843984 11.2142937,8.85657953 C11.4794063,8.8492764 11.7470357,8.84603057 12.0138262,8.84603057 C12.2806166,8.84603057 12.5474071,8.8492764 12.8133586,8.85657953 C12.5457291,8.47843984 12.2780997,8.12545536 12.0138262,7.79438026 Z" id="path-1"></path>
    </defs>
    <g id="Icons-/-Miscellaneous-/-Simulate-physics-on-select-objects" stroke="none" stroke-width="1" fill="none" fill-rule="evenodd">
        <mask id="mask-2" fill="white">
            <use xlink:href="#path-1"></use>
        </mask>
        <use id="Imported-Layers-Copy-8" fill="#FFFFFF" transform="translate(12.726330, 11.706422) rotate(-360.000000) translate(-12.726330, -11.706422) " xlink:href="#path-1"></use>
    </g>
</svg>
