<?xml version="1.0" encoding="UTF-8"?>
<svg width="22px" height="20px" viewBox="0 0 22 20" version="1.1" xmlns="http://www.w3.org/2000/svg" xmlns:xlink="http://www.w3.org/1999/xlink">
    <title>Icon / Toolbar / Play Console / Simulate Physics</title>
    <defs>
        <filter id="filter-1">
            <feColorMatrix in="SourceGraphic" type="matrix" values="0 0 0 0 1.000000 0 0 0 0 1.000000 0 0 0 0 1.000000 0 0 0 1.000000 0"></feColorMatrix>
        </filter>
        <path d="M15.6428742,11.9827626 C14.6770188,10.7687802 14.4956657,9.03975584 15.318317,7.61488202 C16.3923878,5.75453685 18.7712019,5.11713552 20.6315471,6.1912063 C22.4918923,7.26527709 23.1292936,9.64409122 22.0552228,11.5044364 C21.013572,13.3086286 18.7447543,13.9625898 16.9118187,13.0207075 C16.3649862,12.6909949 16.1306352,12.5503038 15.6428742,11.9827626 Z M21.8449657,10.7460039 C22.0595758,10.1342007 22.2373043,8.55906064 21.8449657,9.05833735 C21.4526271,9.55761407 21.2918858,9.96701497 20.8130083,10.4818331 C19.9042528,11.4587922 18.2692551,11.5405181 17.2685207,11.5405181 C16.2677863,11.5405181 17.2685207,12.7159692 18.7447536,12.7159692 C20.2209864,12.7159692 21.4894947,11.7593684 21.8449657,10.7460039 Z M16.197388,14.0090117 C16.3975463,13.8229455 16.701528,13.7946404 16.9039947,13.9824218 C17.1064613,14.1702033 17.0967404,14.4628636 16.9305845,14.6890285 C16.3625338,15.4622373 15.7176919,17.2794303 15.043117,20.0013354 L13.9731652,20.0013354 C13.74245,13.5862059 13.0475403,9.88991503 12.1237705,9.88991503 C11.4442663,9.88991503 10.8362307,11.6219 10.2533824,15.1128617 C10.1857467,15.5179652 9.53567637,19.2951617 9.47653253,20.0013354 L8.32801304,20.0013354 C8.32801304,11.4928776 6.37313749,5.95119082 2.36188186,4.12720757 C2.11050727,4.01290346 1.65264126,3.52516756 2.0367453,2.87964604 C2.42084934,2.23412452 3.17248781,2.63112648 3.42386239,2.7454306 C7.09988702,4.41697884 8.58435154,8.916133 9.2170288,15.2523916 C9.23745765,15.1271094 9.25478369,15.0215631 9.26703535,14.9481819 C9.97359325,10.7162629 10.1786779,8.42129315 12.1237705,8.42129315 C14.0688632,8.42129315 14.4491297,12.5275507 14.8251327,17.6881742 C15.0978485,16.4034552 15.5446067,14.6158341 16.197388,14.0090117 Z M2.0241711,20.6412764 L22.0595758,20.6412764 L20.6246231,21.7592943 L3.70859025,21.7592943 L2.0241711,20.6412764 Z" id="path-2"></path>
    </defs>
    <g id="Symbols" stroke="none" stroke-width="1" fill="none" fill-rule="evenodd">
        <g id="Play-Console-v2" transform="translate(-169.000000, -8.000000)">
            <g id="Play-Console" transform="translate(100.000000, 0.000000)">
                <g id="Icon-/-Toolbar-/-Play-Console-/-Simulate-Physics" transform="translate(68.000000, 6.000000)" filter="url(#filter-1)">
                    <g>
                        <mask id="mask-3" fill="white">
                            <use xlink:href="#path-2"></use>
                        </mask>
                        <use id="Shape" fill="#FFFFFF" fill-rule="nonzero" xlink:href="#path-2"></use>
                    </g>
                </g>
            </g>
        </g>
    </g>
</svg>