<?xml version="1.0" encoding="UTF-8"?>
<svg width="20px" height="22px" viewBox="0 0 20 22" version="1.1" xmlns="http://www.w3.org/2000/svg" xmlns:xlink="http://www.w3.org/1999/xlink">
    <title>Sketch Mode</title>
    <g id="Working-Design-Page" stroke="none" stroke-width="1" fill="none" fill-rule="evenodd">
        <g id="Group" transform="translate(-2.000000, -1.000000)">
            <rect id="Rectangle" x="0" y="0" width="24" height="24"></rect>
            <g id="Sketch-Mode" transform="translate(2.000000, 1.000000)" fill="#FFFFFF">
                <path d="M2.65010355e-05,7.15388831 C2.65010355e-05,6.57891647 0.408678709,6.34333228 0.908026019,6.63094893 L0.908026019,6.63094893 L8.52169634,11.0152726 C9.02104365,11.3028893 9.42969586,12.0088574 9.42969586,12.5840907 L9.42969586,12.5840907 L9.42969586,21.354307 C9.42969586,21.9295403 9.02104365,22.164863 8.52169634,21.8772463 L8.52169634,21.8772463 L0.908026019,17.4923997 C0.408678709,17.2045216 2.65010355e-05,16.4985534 2.65010355e-05,15.9235816 L2.65010355e-05,15.9235816 Z M19.0917649,6.63097508 C19.5911122,6.34335843 20.0000265,6.57894261 20.0000265,7.15391445 L20.0000265,7.15391445 L20.0000265,15.9236077 C20.0000265,16.4985796 19.5911122,17.2045477 19.0917649,17.4924258 L19.0917649,17.4924258 L11.4778324,21.8772725 C10.9784851,22.1648891 10.5698329,21.9295664 10.5698329,21.3543331 L10.5698329,21.3543331 L10.5698329,12.5841169 C10.5698329,12.0088836 10.9787472,11.3029154 11.4780945,11.0152988 L11.4780945,11.0152988 Z M9.09176486,0.215737888 C9.59111217,-0.0718787669 10.4084166,-0.0718787669 10.9077639,0.215737888 L10.9077639,0.215737888 L18.5206478,4.60006159 C19.0199952,4.88767824 19.0199952,5.35832368 18.5206478,5.64594033 L18.5206478,5.64594033 L10.9077639,10.030264 C10.4084166,10.3178807 9.59111217,10.3178807 9.09176486,10.030264 L9.09176486,10.030264 L1.47783241,5.64594033 C0.978485104,5.35832368 0.978485104,4.88767824 1.47783241,4.60006159 L1.47783241,4.60006159 Z" id="Fill-5"></path>
            </g>
        </g>
    </g>
</svg>