<svg width="16" height="16" viewBox="0 0 16 16" fill="none" xmlns="http://www.w3.org/2000/svg">
<path fill-rule="evenodd" clip-rule="evenodd" d="M6.31706 2.54774C4.97501 4.49759 3.4947 6.64832 2.51113 8.35995C1.0657 10.8753 2.63417 16 7.87815 16C13.7384 16 14.8669 10.8489 13.5159 8.35995C12.5887 6.65174 11.0479 4.40482 9.70018 2.43962C9.08425 1.54146 8.50868 0.702146 8.05048 0C7.547 0.76077 6.94727 1.63211 6.31706 2.54774ZM12.0005 11.7394C12.0703 11.4368 11.8589 11.1396 11.5283 11.0757C11.1976 11.0118 10.8729 11.2053 10.8031 11.508C10.7279 11.834 10.3822 12.4248 9.73965 12.7853C9.61163 12.8571 9.34301 12.9684 9.01339 13.0539C8.68345 13.1394 8.35003 13.1839 8.08485 13.1625C7.74821 13.1353 7.45124 13.3631 7.42153 13.6712C7.39183 13.9794 7.64065 14.2512 7.97729 14.2784C8.44676 14.3163 8.94011 14.2372 9.34697 14.1317C9.75416 14.0261 10.1324 13.8789 10.3792 13.7404C11.324 13.2103 11.8597 12.3498 12.0005 11.7394Z" fill="white"/>
</svg>
