<?xml version="1.0" encoding="UTF-8"?>
<svg width="24px" height="24px" viewBox="0 0 24 24" version="1.1" xmlns="http://www.w3.org/2000/svg" xmlns:xlink="http://www.w3.org/1999/xlink">
    <title>Icon / World</title>
    <g id="Icon-/-World" stroke="none" stroke-width="1" fill="none" fill-rule="evenodd">
        <rect id="Rectangle" x="0" y="0" width="24" height="24"></rect>
        <path d="M9.41210938,19 L11.3359375,11.5195312 C11.4205729,11.1875 11.5410156,10.632487 11.6972656,9.85449219 C11.8535156,9.0764974 11.9511719,8.51171875 11.9902344,8.16015625 C12.016276,8.44661458 12.1155599,9.00813802 12.2880859,9.84472656 C12.460612,10.6813151 12.5826823,11.2330729 12.6542969,11.5 L12.6542969,11.5 L14.5878906,19 L18.0351562,19 L21.6679688,4.72265625 L18.6894531,4.72265625 L16.8730469,12.515625 C16.7558594,12.984375 16.625651,13.5979818 16.4824219,14.3564453 C16.3391927,15.1149089 16.235026,15.7480469 16.1699219,16.2558594 C16.0983073,15.7285156 15.9941406,15.0970052 15.8574219,14.3613281 C15.7207031,13.625651 15.6067708,13.078776 15.515625,12.7207031 L15.515625,12.7207031 L13.4355469,4.72265625 L10.5742188,4.72265625 L8.49414062,12.7207031 C8.37044271,13.1503906 8.23860677,13.7542318 8.09863281,14.5322266 C7.95865885,15.3102214 7.86914062,15.8847656 7.83007812,16.2558594 C7.68684896,15.2011719 7.45572917,13.9544271 7.13671875,12.515625 L7.13671875,12.515625 L5.31054688,4.72265625 L2.33203125,4.72265625 L5.97460938,19 L9.41210938,19 Z" id="W" fill="#FFFFFF" fill-rule="nonzero"></path>
    </g>
</svg>