<?xml version="1.0" encoding="UTF-8"?>
<svg width="16px" height="16px" viewBox="0 0 16 16" version="1.1" xmlns="http://www.w3.org/2000/svg" xmlns:xlink="http://www.w3.org/1999/xlink">
    <!-- Generator: Sketch 60.1 (88133) - https://sketch.com -->
    <title>pinned object</title>
    <desc>Created with Sketch.</desc>
    <g id="Symbols" stroke="none" stroke-width="1" fill="none" fill-rule="evenodd">
        <g id="inspector-/-future-/-standard" transform="translate(-447.000000, -44.000000)" fill="#FFFFFF">
            <g id="pinned-object" transform="translate(447.000000, 44.090582)">
                <path d="M2.75290395,3.46468347 C2.73262521,3.5571248 2.7187407,3.65196091 2.71173757,3.74870469 L2.70645477,3.89519023 L2.70645477,11.8951902 C2.70645477,12.949552 3.52233256,13.8133553 4.55719242,13.8897045 L4.70645477,13.8951902 L12.7064548,13.8951902 C12.761133,13.8951902 12.8152988,13.892996 12.8688688,13.8886909 C12.6718176,14.786743 11.8719591,15.4585823 10.9151842,15.4585823 L2.91518415,15.4585823 C1.81061465,15.4585823 0.915184152,14.5631518 0.915184152,13.4585823 L0.915184152,5.45858233 C0.915184152,4.45442824 1.65520936,3.6231163 2.61963881,3.48026747 L2.75290395,3.46468347 Z M13.8686964,0.45858233 C14.9732659,0.45858233 15.8686964,1.35401283 15.8686964,2.45858233 L15.8686964,10.4585823 C15.8686964,11.5631518 14.9732659,12.4585823 13.8686964,12.4585823 L5.86869637,12.4585823 C4.76412687,12.4585823 3.86869637,11.5631518 3.86869637,10.4585823 L3.86869637,2.45858233 C3.86869637,1.35401283 4.76412687,0.45858233 5.86869637,0.45858233 L13.8686964,0.45858233 Z M12.8699983,1.72552018 L6.66169497,1.72552018 L6.66169497,3.70114952 L8.12689006,3.70114952 L8.12689006,5.70502266 C7.96208472,5.88133616 7.6092075,6.04497171 7.06825842,6.19592929 C6.52730933,6.34688688 6.30565701,6.83486422 6.40330145,7.65986129 L6.40330145,7.65986129 L8.85181482,7.71134395 L8.83716484,10.1531471 L9.8498606,11.7753344 L10.8396575,10.1531471 L10.8543075,7.71134395 L13.0438832,7.68324641 C13.1696661,7.030383 13.0003797,6.60098355 12.536024,6.39504807 C12.0716683,6.18911259 11.6233686,5.95910412 11.1911248,5.70502266 L11.1911248,5.70502266 L11.1911248,3.70114952 L12.8699983,3.70114952 L12.8699983,1.72552018 Z" id="Combined-Shape"></path>
            </g>
        </g>
    </g>
</svg>
