<?xml version="1.0" encoding="UTF-8"?>
<svg width="24px" height="24px" viewBox="0 0 24 24" version="1.1" xmlns="http://www.w3.org/2000/svg" xmlns:xlink="http://www.w3.org/1999/xlink">
    <!-- Generator: Sketch 53.2 (72643) - https://sketchapp.com -->
    <title>icon / Scripting / Script Canvas</title>
    <desc>Created with Sketch.</desc>
    <defs>
        <path d="M10.2004041,4.44422132 L2.29191921,4.44422132 L2.29191921,7.80398091 C2.29191921,8.11554558 2.54545663,8.36952144 2.85655972,8.36952144 L9.63576355,8.36952144 C9.95068218,8.36952144 10.2004041,8.11875281 10.2004041,7.80398091 L10.2004041,4.44422132 Z M13.8217189,16.0516515 L13.8217189,19.4114115 C13.8217189,19.7229762 14.0752563,19.976952 14.3863594,19.976952 L21.1655632,19.976952 C21.4804819,19.976952 21.7302037,19.7261834 21.7302037,19.4114115 L21.7302037,16.0516515 L13.8217189,16.0516515 Z M13.0858978,17.9626061 C10.4322333,17.9626061 9.27786554,17.0827776 9.27786554,15.2322894 C9.27786554,13.0912024 11.3788467,11.1128472 13.0464262,9.48385474 C13.9610839,8.59036186 15.4742118,7.51691761 15.2602148,6.43325922 C14.9755538,4.99176665 13.3670162,5.27315511 12.5199363,5.27315511 C12.0710065,5.27315511 11.5224799,5.27315511 10.940431,5.27315511 L10.9485877,8.1095667 C10.9485877,8.73160374 10.4502333,9.23586439 9.82319007,9.23586439 L2.73306892,9.23586439 C2.11152895,9.23586439 1.60767126,8.73008927 1.60767126,8.1095667 L1.60767126,3.32749037 C1.60767126,2.70545333 2.10602572,2.20119268 2.73306892,2.20119268 L9.82319007,2.20119268 C10.44473,2.20119268 10.9485877,2.7069678 10.9485877,3.32749037 L10.940431,4.43325922 C11.0108682,4.44988121 12.3686789,4.43325922 12.8502508,4.43325922 C14.1142425,4.43325922 15.7782212,4.43325922 16.0810542,6.43325922 C16.2896171,7.81067149 15.1037906,8.60620537 14.2112955,9.48385474 C13.3188004,10.3615041 10.2011292,12.9353275 10.2011292,15.2322894 C10.2011292,16.583745 10.8934973,17.0827776 13.0858978,17.2023335 L13.0858978,14.99877 C13.0858978,14.376733 13.5842523,13.8724723 14.2112955,13.8724723 L21.2669311,13.8724723 C21.888471,13.8724723 22.3923287,14.3782474 22.3923287,14.99877 L22.3923287,19.6788282 C22.3923287,20.3008653 21.8939743,20.8051259 21.2669311,20.8051259 L14.2112955,20.8051259 C13.5897555,20.8051259 13.0858978,20.2993508 13.0858978,19.6788282 L13.0858978,17.9626061 Z" id="path-1"></path>
    </defs>
    <g id="icon-/-Scripting-/-Script-Canvas" stroke="none" stroke-width="1" fill="none" fill-rule="evenodd">
        <mask id="mask-2" fill="white">
            <use xlink:href="#path-1"></use>
        </mask>
        <use id="Shape" fill="#D8D872" fill-rule="nonzero" xlink:href="#path-1"></use>
    </g>
</svg>