<?xml version="1.0" encoding="UTF-8"?>
<svg width="24px" height="24px" viewBox="0 0 24 24" version="1.1" xmlns="http://www.w3.org/2000/svg" xmlns:xlink="http://www.w3.org/1999/xlink">
    <!-- Generator: Sketch 59 (86127) - https://sketch.com -->
    <title>Icons / System / Grid - small</title>
    <desc>Created with Sketch.</desc>
    <g id="Icons-/-System-/-Grid---small" stroke="none" stroke-width="1" fill="none" fill-rule="evenodd">
        <rect id="Icon-Background" x="0" y="0" width="24" height="24"></rect>
        <path d="M21,16 L21,21 L16,21 L16,16 L21,16 Z M8,16 L8,21 L3,21 L3,16 L8,16 Z M14.5,16 L14.5,21 L9.5,21 L9.5,16 L14.5,16 Z M14.5,9.5 L14.5,14.5 L9.5,14.5 L9.5,9.5 L14.5,9.5 Z M21,9.5 L21,14.5 L16,14.5 L16,9.5 L21,9.5 Z M8,9.5 L8,14.5 L3,14.5 L3,9.5 L8,9.5 Z M8,3 L8,8 L3,8 L3,3 L8,3 Z M14.5,3 L14.5,8 L9.5,8 L9.5,3 L14.5,3 Z M21,3 L21,8 L16,8 L16,3 L21,3 Z" id="Combined-Shape" fill="#D8D8D8"></path>
    </g>
</svg>
