<?xml version="1.0" encoding="UTF-8" standalone="no"?>
<!DOCTYPE svg PUBLIC "-//W3C//DTD SVG 1.1//EN" "http://www.w3.org/Graphics/SVG/1.1/DTD/svg11.dtd">
<svg version="1.1" xmlns="http://www.w3.org/2000/svg" xmlns:xlink="http://www.w3.org/1999/xlink" preserveAspectRatio="xMidYMid meet" viewBox="0 0 14 14" width="14" height="14"><defs><path d="M9.64 1.61L10.75 2.32L11.68 3.25L12.39 4.36L12.84 5.62L13 7L12.84 8.38L12.39 9.64L11.68 10.75L10.75 11.68L9.64 12.39L8.38 12.84L7 13L5.62 12.84L4.36 12.39L3.25 11.68L2.32 10.75L1.61 9.64L1.16 8.38L1 7L1.16 5.62L1.61 4.36L2.32 3.25L3.25 2.32L4.36 1.61L5.62 1.16L7 1L8.38 1.16L9.64 1.61ZM6.69 9.55L6.56 9.61L6.45 9.69L6.36 9.79L6.3 9.92L6.26 10.07L6.25 10.24L6.26 10.41L6.3 10.56L6.36 10.69L6.45 10.8L6.56 10.89L6.69 10.95L6.84 10.99L7.01 11L7.17 10.99L7.32 10.95L7.45 10.89L7.56 10.8L7.64 10.68L7.7 10.56L7.74 10.41L7.75 10.24L7.74 10.08L7.7 9.93L7.64 9.8L7.56 9.7L7.45 9.61L7.32 9.55L7.18 9.51L7.01 9.5L6.84 9.51L6.69 9.55ZM6.53 8.75L7.47 8.75L7.75 3.25L6.25 3.25L6.53 8.75Z" id="a31GTRwpcp"></path></defs><g><g><g><use xlink:href="#a31GTRwpcp" opacity="1" fill="#e25243" fill-opacity="1"></use><g><use xlink:href="#a31GTRwpcp" opacity="1" fill-opacity="0" stroke="#000000" stroke-width="1" stroke-opacity="0"></use></g></g></g></g></svg>
