<?xml version="1.0" encoding="UTF-8" standalone="no"?>
<!DOCTYPE svg PUBLIC "-//W3C//DTD SVG 1.1//EN" "http://www.w3.org/Graphics/SVG/1.1/DTD/svg11.dtd">
<svg version="1.1" xmlns="http://www.w3.org/2000/svg" xmlns:xlink="http://www.w3.org/1999/xlink" preserveAspectRatio="xMidYMid meet" viewBox="0 0 18 18" width="18" height="18"><defs><path d="M18.03 0C18.03 0 18.03 0 18.03 0C18.03 1.8 18.03 16.2 18.03 18C18.03 18 18.03 18 18.03 18C16.23 18 1.8 18 0 18C0 18 0 18 0 18C0 16.2 0 1.8 0 0C0 0 0 0 0 0C3.61 0 16.23 0 18.03 0Z" id="d19nWllEsW"></path><path d="M4.01 14L4.01 0L18.01 0L18.01 14L4.01 14ZM6.01 12L16.01 12L16.01 2L6.01 2L6.01 12Z" id="evt2kScrB"></path><path d="M14.03 8.98L12.06 7.01L9.04 10.03L7.99 8.97L11 5.95L9.03 3.98L14.03 3.98L14.03 8.98Z" id="b1B8ipdIQM"></path><path d="M3 5.98L2 5.98L2 15.98L12 15.98L12 14.98L14 14.98L14 17.98L0 17.98L0 3.98L3 3.98L3 5.98Z" id="a3kYhdwzwB"></path></defs><g><g><g></g><g><use xlink:href="#evt2kScrB" opacity="1" fill="#ffffff" fill-opacity="1"></use><g><use xlink:href="#evt2kScrB" opacity="1" fill-opacity="0" stroke="#000000" stroke-width="1" stroke-opacity="0"></use></g></g><g><use xlink:href="#b1B8ipdIQM" opacity="1" fill="#ffffff" fill-opacity="1"></use><g><use xlink:href="#b1B8ipdIQM" opacity="1" fill-opacity="0" stroke="#000000" stroke-width="1" stroke-opacity="0"></use></g></g><g><use xlink:href="#a3kYhdwzwB" opacity="1" fill="#ffffff" fill-opacity="1"></use><g><use xlink:href="#a3kYhdwzwB" opacity="1" fill-opacity="0" stroke="#000000" stroke-width="1" stroke-opacity="0"></use></g></g></g></g></svg>
