<?xml version="1.0" encoding="UTF-8"?>
<svg width="16px" height="16px" viewBox="0 0 16 16" version="1.1" xmlns="http://www.w3.org/2000/svg" xmlns:xlink="http://www.w3.org/1999/xlink">
    <!-- Generator: Sketch 60.1 (88133) - https://sketch.com -->
    <title>Outliner / vis &amp; lock /lock / on - hover</title>
    <desc>Created with Sketch.</desc>
    <g id="Outliner-/-vis-&amp;-lock-/lock-/-on---hover" stroke="none" stroke-width="1" fill="none" fill-rule="evenodd">
        <path d="M8,1.53182564 C9.78613703,1.53182564 11.2340872,2.97977579 11.2340872,4.76591282 L11.2340872,7.35318256 L13.1745395,7.35318256 L13.1745395,14.4681744 L2.82546052,14.4681744 L2.82546052,7.35318256 L4.76591282,7.35318256 L4.76591282,4.76591282 C4.76591282,2.97977579 6.21386297,1.53182564 8,1.53182564 Z M8.64681744,9.94045231 L7.35318256,9.94045231 L7.35318256,11.8809046 L8.64681744,11.8809046 L8.64681744,9.94045231 Z M8,2.82546052 C6.92831778,2.82546052 6.05954769,3.69423061 6.05954769,4.76591282 L6.05954769,4.76591282 L6.05954769,7.35318256 L9.94045231,7.35318256 L9.94045231,4.76591282 C9.94045231,3.69423061 9.07168222,2.82546052 8,2.82546052 Z" id="Combined-Shape" fill="#94D2FF"></path>
    </g>
</svg>
