<?xml version="1.0" encoding="UTF-8"?>
<svg width="16px" height="16px" viewBox="0 0 16 16" version="1.1" xmlns="http://www.w3.org/2000/svg" xmlns:xlink="http://www.w3.org/1999/xlink">
    <!-- Generator: Sketch 60.1 (88133) - https://sketch.com -->
    <title>Outliner / vis &amp; lock / lock / Default - hover</title>
    <desc>Created with Sketch.</desc>
    <g id="Outliner-/-vis-&amp;-lock-/-lock-/-Default---hover" stroke="none" stroke-width="1" fill="none" fill-rule="evenodd">
        <path d="M7.62646385,1.48235749 C9.42626113,1.48235749 10.8852851,2.94138146 10.8852851,4.74117875 L10.8843498,7.34735749 L12.8405779,7.34823575 L12.8405779,14.5176425 L2.41234985,14.5176425 L2.41234985,7.34823575 L9.58134985,7.34735749 L9.5817566,4.74117875 C9.5817566,3.66130038 8.70634222,2.78588599 7.62646385,2.78588599 C7.21874475,2.78588599 6.62971236,2.90054702 6.14480925,3.34844343 C6.01584142,3.46756874 5.88452781,3.71832946 5.75086844,4.10072562 L4.38428828,4.10072562 C4.43323512,3.87757947 4.47506118,3.7202004 4.50976646,3.62858842 C4.59003595,3.41669999 4.80061604,3.0404071 4.86756375,2.94801197 C5.78155489,1.68660458 6.73091609,1.48235749 7.62646385,1.48235749 Z M11.5370494,8.65176425 L3.71587835,8.65176425 L3.71587835,13.214114 L11.5370494,13.214114 L11.5370494,8.65176425 Z M8.2782281,9.95529275 L8.2782281,11.9105855 L6.9746996,11.9105855 L6.9746996,9.95529275 L8.2782281,9.95529275 Z" id="Combined-Shape-Copy-4" fill="#94D2FF"></path>
    </g>
</svg>
