<?xml version="1.0" encoding="UTF-8"?>
<svg width="12px" height="11px" viewBox="0 0 12 11" version="1.1" xmlns="http://www.w3.org/2000/svg" xmlns:xlink="http://www.w3.org/1999/xlink">
    <!-- Generator: Sketch 61 (89581) - https://sketch.com -->
    <title>z to A sort</title>
    <desc>Created with Sketch.</desc>
    <g id="Symbols" stroke="none" stroke-width="1" fill="none" fill-rule="evenodd">
        <g id="Menu-/-Outliner-/-menu" transform="translate(-186.000000, -55.000000)" fill="#FFFFFF">
            <g id="Group-14">
                <g id="icon-/-outliner-/-menu-/-sort-Z-to-A" transform="translate(184.000000, 52.000000)">
                    <g id="Group-Copy" transform="translate(1.500000, 2.000000)">
                        <path d="M6.48182562,3.90763871 C6.48182562,4.11168285 6.48182562,5.18637111 6.48182562,5.32322247 C6.48182562,5.46007383 6.3017789,5.6288924 6.11455497,5.43691302 C5.98973902,5.30892676 5.44321422,4.77841492 4.47498059,3.84537751 C4.47498059,8.17586292 4.47498059,10.4226235 4.47498059,10.5856592 C4.47498059,10.8302127 4.33443054,11 4.11176088,11 C3.88909121,11 3.58218839,11 3.30773713,11 C3.03328587,11 2.92923833,10.7627117 2.92923833,10.5856592 C2.92923833,10.4676241 2.92923833,8.22086359 2.92923833,3.84537751 C1.96975238,4.80404153 1.43442638,5.33455337 1.32326034,5.43691302 C1.15651127,5.59045249 0.963651247,5.53541253 0.963651247,5.32322247 C0.963651247,5.11103242 0.963651247,4.19983486 0.963651247,3.90763871 C0.963651247,3.61544257 1.02930291,3.55216863 1.14422635,3.41197084 C1.25914979,3.27177305 3.13689309,1.41344785 3.37510604,1.17880149 C3.61331899,0.944155126 3.8068395,0.935436796 4.04157392,1.17880149 C4.27630835,1.42216618 6.07430975,3.17371386 6.24960102,3.34970964 C6.42489229,3.52570542 6.48182562,3.70359457 6.48182562,3.90763871 Z" id="Path-6-Copy" transform="translate(3.722738, 5.999766) rotate(-1.000000) translate(-3.722738, -5.999766) "></path>
                        <path d="M10.8281874,11.1453195 L10.4759248,10.0767737 L8.77212367,10.0767737 L8.43423907,11.1453195 L7.30556071,11.1453195 L9.05968504,6.45859663 L10.2458757,6.45859663 L12,11.1453195 L10.8281874,11.1453195 Z M9.6204297,7.38512048 L9.00217276,9.34637535 L10.2530647,9.34637535 L9.6204297,7.38512048 Z" id="A"></path>
                        <polygon id="Z" points="7.83462135 5.54093581 7.83462135 4.83318464 10.3215285 1.75970963 7.96001163 1.75970963 7.96001163 0.999532437 11.450041 0.999532437 11.450041 1.70728361 8.97706609 4.78075862 11.4709394 4.78075862 11.4709394 5.54093581"></polygon>
                    </g>
                </g>
            </g>
        </g>
    </g>
</svg>
