<?xml version="1.0" encoding="UTF-8"?>
<svg width="12px" height="10px" viewBox="0 0 12 10" version="1.1" xmlns="http://www.w3.org/2000/svg" xmlns:xlink="http://www.w3.org/1999/xlink">
    <!-- Generator: Sketch 61 (89581) - https://sketch.com -->
    <title>a to z sort</title>
    <desc>Created with Sketch.</desc>
    <g id="Symbols" stroke="none" stroke-width="1" fill="none" fill-rule="evenodd">
        <g id="Menu-/-Outliner-/-menu" transform="translate(-186.000000, -32.000000)" fill="#FFFFFF">
            <g id="Group-14">
                <g id="icon-/-outliner-/-menu-/-sort-A-to-Z" transform="translate(184.000000, 29.000000)">
                    <g id="Group" transform="translate(2.000000, 3.000000)">
                        <path d="M6.48182562,2.90763871 C6.48182562,3.11168285 6.48182562,4.18637111 6.48182562,4.32322247 C6.48182562,4.46007383 6.3017789,4.6288924 6.11455497,4.43691302 C5.98973902,4.30892676 5.44321422,3.77841492 4.47498059,2.84537751 C4.47498059,7.17586292 4.47498059,9.42262347 4.47498059,9.58565917 C4.47498059,9.83021273 4.33443054,10 4.11176088,10 C3.88909121,10 3.58218839,10 3.30773713,10 C3.03328587,10 2.92923833,9.76271172 2.92923833,9.58565917 C2.92923833,9.46762414 2.92923833,7.22086359 2.92923833,2.84537751 C1.96975238,3.80404153 1.43442638,4.33455337 1.32326034,4.43691302 C1.15651127,4.59045249 0.963651247,4.53541253 0.963651247,4.32322247 C0.963651247,4.11103242 0.963651247,3.19983486 0.963651247,2.90763871 C0.963651247,2.61544257 1.02930291,2.55216863 1.14422635,2.41197084 C1.25914979,2.27177305 3.13689309,0.413447847 3.37510604,0.178801486 C3.61331899,-0.0558448745 3.8068395,-0.0645632043 4.04157392,0.178801486 C4.27630835,0.422166177 6.07430975,2.17371386 6.24960102,2.34970964 C6.42489229,2.52570542 6.48182562,2.70359457 6.48182562,2.90763871 Z" id="Path-6-Copy" transform="translate(3.722738, 4.999766) rotate(-180.000000) translate(-3.722738, -4.999766) "></path>
                        <path d="M10.8281874,4.68625528 L10.4759248,3.61770952 L8.77212367,3.61770952 L8.43423907,4.68625528 L7.30556071,4.68625528 L9.05968504,-0.000467562775 L10.2458757,-0.000467562775 L12,4.68625528 L10.8281874,4.68625528 Z M9.6204297,0.926056289 L9.00217276,2.88731116 L10.2530647,2.88731116 L9.6204297,0.926056289 Z" id="A"></path>
                        <polygon id="Z" points="7.83462135 10 7.83462135 9.29224882 10.3215285 6.21877381 7.96001163 6.21877381 7.96001163 5.45859663 11.450041 5.45859663 11.450041 6.1663478 8.97706609 9.23982281 11.4709394 9.23982281 11.4709394 10"></polygon>
                    </g>
                </g>
            </g>
        </g>
    </g>
</svg>
