<?xml version="1.0" encoding="UTF-8"?>
<svg width="16px" height="16px" viewBox="0 0 16 16" version="1.1" xmlns="http://www.w3.org/2000/svg" xmlns:xlink="http://www.w3.org/1999/xlink">
    <!-- Generator: Sketch 60.1 (88133) - https://sketch.com -->
    <title>Outliner / vis &amp; lock / visible / on - hover</title>
    <desc>Created with Sketch.</desc>
    <g id="Outliner-/-vis-&amp;-lock-/-visible-/-on---hover" stroke="none" stroke-width="1" fill="none" fill-rule="evenodd">
        <g id="Sky-Icon-/-System-/-View" fill="#94D2FF">
            <path d="M12.0662207,5.86712992 C12.858042,6.44428281 13.7248573,7.1552395 14.6666667,8 C11.6936446,10.6666667 9.46792606,12 7.98951112,12 C7.51688042,12 6.96858989,11.8637332 6.34463953,11.5911997 L7.07876759,10.8559032 C7.36903278,10.9494633 7.67861466,11 8,11 C9.65685425,11 11,9.65685425 11,8 C11,7.67861466 10.9494633,7.36903278 10.8559032,7.07876759 Z M7.98951112,4 C8.76679076,4 9.75063645,4.36855358 10.9410482,5.10566074 L10.1454186,5.90305312 C9.60073119,5.34585444 8.84075491,5 8,5 C6.34314575,5 5,6.34314575 5,8 C5,8.84036125 5.34553064,9.60001949 5.90227058,10.1446534 L5.11233104,10.9366587 C4.02637979,10.2706404 2.76671388,9.29175412 1.33333333,8 C4.29237025,5.33333333 6.51109618,4 7.98951112,4 Z M10.0073333,7.926 L10.0102404,8 C10.0102404,9.1045695 9.1125175,10 8.00512019,10 C7.98181012,10 7.95859295,9.99960325 7.9354751,9.99881616 L10.0073333,7.926 Z M8.00512019,6 C8.5686887,6 9.07795318,6.23190942 9.44222587,6.60527205 L6.6105304,9.43702678 C6.23403952,9.07344399 6,8.56398363 6,8 C6,6.8954305 6.89772289,6 8.00512019,6 Z" id="Combined-Shape"></path>
            <polygon id="Rectangle-25" transform="translate(7.522750, 7.541445) rotate(45.000000) translate(-7.522750, -7.541445) " points="6.80375237 0.92856205 8.2417471 0.925883489 8.2197393 14.1570058 6.80375237 14.1278886"></polygon>
        </g>
    </g>
</svg>
