<?xml version="1.0" encoding="UTF-8"?>
<svg width="16px" height="16px" viewBox="0 0 16 16" version="1.1" xmlns="http://www.w3.org/2000/svg" xmlns:xlink="http://www.w3.org/1999/xlink">
    <!-- Generator: Sketch 60.1 (88133) - https://sketch.com -->
    <title>Outliner / vis &amp; lock /visible / Default - hover</title>
    <desc>Created with Sketch.</desc>
    <g id="Outliner-/-vis-&amp;-lock-/visible-/-Default---hover" stroke="none" stroke-width="1" fill="none" fill-rule="evenodd">
        <g id="Group-9" transform="translate(0.500000, 3.500000)" fill="#94D2FF">
            <path d="M7.31366902,0.423140577 C8.81176272,0.423140577 11.0671071,1.77422153 14.0797023,4.47638343 C11.0671071,7.17854533 8.81176272,8.52962629 7.31366902,8.52962629 C5.81557532,8.52962629 3.56731657,7.17854533 0.568892758,4.47638343 C3.56731657,1.77422153 5.81557532,0.423140577 7.31366902,0.423140577 Z M7.32429752,1.43645129 C5.64538935,1.43645129 4.28436537,2.79747527 4.28436537,4.47638343 C4.28436537,6.15529159 5.64538935,7.51631557 7.32429752,7.51631557 C9.00320568,7.51631557 10.3642297,6.15529159 10.3642297,4.47638343 C10.3642297,2.79747527 9.00320568,1.43645129 7.32429752,1.43645129 Z M7.32429752,2.449762 C8.44356962,2.449762 9.35091894,3.35711132 9.35091894,4.47638343 C9.35091894,5.59565554 8.44356962,6.50300486 7.32429752,6.50300486 C6.20502541,6.50300486 5.29767609,5.59565554 5.29767609,4.47638343 C5.29767609,3.35711132 6.20502541,2.449762 7.32429752,2.449762 Z" id="Combined-Shape-Copy-2"></path>
        </g>
    </g>
</svg>
