<?xml version="1.0" encoding="UTF-8"?>
<svg width="12px" height="12px" viewBox="0 0 12 12" version="1.1" xmlns="http://www.w3.org/2000/svg" xmlns:xlink="http://www.w3.org/1999/xlink">
    <title>Icons / Platform / Android</title>
    <g id="Icons-/-Platform-/-Android" stroke="none" stroke-width="1" fill="none" fill-rule="evenodd">
        <path d="M1.74272,3.887 C1.53596,3.887 1.36053,3.9591 1.21633,4.1033 C1.07212,4.24751 1,4.42055 1,4.62251 L1,7.72344 C1,7.93046 1.0721,8.10574 1.21633,8.24996 C1.36053,8.39417 1.53596,8.46629 1.74272,8.46629 C1.94933,8.46629 2.12369,8.39419 2.26566,8.24996 C2.40735,8.10576 2.47839,7.93046 2.47839,7.72344 L2.47839,4.62251 C2.47839,4.42052 2.40629,4.24751 2.26206,4.1033 C2.11783,3.9591 1.94468,3.887 1.74272,3.887 Z" id="Path" fill="#FFFFFF" fill-rule="nonzero"></path>
        <path d="M7.71395,1.10327 L8.22598,0.158715 C8.25959,0.096182 8.24763,0.0482297 8.19,0.0145111 C8.12745,-0.0145641 8.07938,0.000168761 8.0458,0.0576682 L7.52661,1.00977 C7.06976,0.807787 6.58657,0.70661 6.07704,0.70661 C5.5674,0.70661 5.08416,0.807809 4.62749,1.00977 L4.10828,0.0576682 C4.07454,0.000168761 4.02647,-0.0144339 3.96407,0.0145111 C3.90631,0.0483815 3.89436,0.096182 3.9281,0.158715 L4.44015,1.10327 C3.92094,1.36805 3.50742,1.73681 3.19974,2.21034 C2.89206,2.68414 2.73816,3.20189 2.73816,3.76452 L9.40866,3.76452 C9.40866,3.20202 9.25474,2.68424 8.94708,2.21034 C8.63939,1.73681 8.22825,1.36805 7.71395,1.10327 Z M4.75364,2.47714 C4.69826,2.53264 4.63213,2.56026 4.55525,2.56026 C4.47822,2.56026 4.41343,2.53264 4.36058,2.47714 C4.30772,2.4219 4.28129,2.35602 4.28129,2.27888 C4.28129,2.20201 4.30772,2.136 4.36058,2.08063 C4.41343,2.02539 4.47838,1.99777 4.55525,1.99777 C4.63213,1.99777 4.69826,2.02539 4.75364,2.08063 C4.80888,2.13613 4.83663,2.20201 4.83663,2.27888 C4.83648,2.35589 4.80875,2.4219 4.75364,2.47714 Z M7.79321,2.47714 C7.74025,2.53264 7.6753,2.56026 7.59856,2.56026 C7.52151,2.56026 7.4554,2.53264 7.40013,2.47714 C7.34478,2.4219 7.31716,2.35602 7.31716,2.27888 C7.31716,2.20201 7.34478,2.136 7.40013,2.08063 C7.4554,2.02539 7.52151,1.99777 7.59856,1.99777 C7.67543,1.99777 7.74022,2.02539 7.79321,2.08063 C7.84611,2.13613 7.87249,2.20201 7.87249,2.27888 C7.87249,2.35589 7.84609,2.4219 7.79321,2.47714 Z" id="Shape" fill="#FFFFFF" fill-rule="nonzero"></path>
        <path d="M2.76681,8.82679 C2.76681,9.04815 2.84369,9.23553 2.99746,9.38931 C3.15137,9.54308 3.33875,9.61996 3.55996,9.61996 L4.09364,9.61996 L4.10095,11.2572 C4.10095,11.4639 4.17306,11.6394 4.31726,11.7837 C4.46147,11.9279 4.63464,12 4.83647,12 C5.0431,12 5.21864,11.9279 5.36286,11.7837 C5.50709,11.6394 5.57919,11.4639 5.57919,11.2572 L5.57919,9.62011 L6.57434,9.62011 L6.57434,11.2572 C6.57434,11.4639 6.64642,11.6394 6.79065,11.7837 C6.93488,11.9279 7.11026,12 7.31704,12 C7.52367,12 7.69921,11.9279 7.84343,11.7837 C7.98766,11.6394 8.05974,11.4639 8.05974,11.2572 L8.05974,9.62011 L8.60063,9.62011 C8.81693,9.62011 9.00191,9.54321 9.15596,9.38944 C9.30971,9.23566 9.38663,9.04828 9.38663,8.82694 L9.38663,4.02387 L2.76681,4.02387 L2.76681,8.82679 Z" id="Path" fill="#FFFFFF" fill-rule="nonzero"></path>
        <path d="M10.411,3.887 C10.2091,3.887 10.036,3.95803 9.89182,4.09972 C9.74761,4.24167 9.67551,4.41603 9.67551,4.62251 L9.67551,7.72344 C9.67551,7.93046 9.74759,8.10574 9.89182,8.24996 C10.036,8.39419 10.2092,8.46629 10.411,8.46629 C10.6177,8.46629 10.7932,8.39419 10.9374,8.24996 C11.0817,8.10574 11.1537,7.93046 11.1537,7.72344 L11.1537,4.62251 C11.1537,4.41601 11.0817,4.24167 10.9374,4.09972 C10.7932,3.95803 10.6177,3.887 10.411,3.887 Z" id="Path" fill="#FFFFFF" fill-rule="nonzero"></path>
    </g>
</svg>