<svg width="121" height="28" viewBox="0 0 121 28" fill="none" xmlns="http://www.w3.org/2000/svg">
<path d="M0.984863 1C0.984863 0.447715 1.43258 0 1.98486 0H120.985L111.518 13.5873L120.985 28H1.98486C1.43258 28 0.984863 27.5523 0.984863 27V1Z" fill="#1BA266"/>
<path fill-rule="evenodd" clip-rule="evenodd" d="M9.98485 8C8.44066 8 7.16897 9.16668 7.00316 10.6667H6.98485C6.98485 10.6667 6.7368 12.7598 8.31818 15.3954C9.89956 18.031 12.9848 20.6667 12.9848 20.6667C12.9848 20.6667 16.2369 17.7531 17.6515 15.3954C18.5347 13.9234 18.8348 12.4461 18.9357 11.544C18.968 11.3676 18.9848 11.1858 18.9848 11C18.9848 10.9657 18.9843 10.9315 18.9831 10.8975C18.9877 10.7487 18.9848 10.6667 18.9848 10.6667H18.9665C18.8007 9.16668 17.529 8 15.9848 8C14.4407 8 13.169 9.16668 13.0032 10.6667H12.9665C12.8007 9.16668 11.529 8 9.98485 8Z" fill="white"/>
</svg>
