<svg width="30" height="70" viewBox="0 0 30 70" fill="none" xmlns="http://www.w3.org/2000/svg">
<g filter="url(#filter0_d_1967_109553)" transform="translate(0,44))">
<path fill-rule="evenodd" clip-rule="evenodd" d="M9.50004 17.681C6.41644 17.4015 4 14.7943 4 11.6194C4 8.41422 6.46274 5.78769 9.58842 5.55046C10.105 2.40165 12.8237 0 16.1 0C19.7451 0 22.7 2.9727 22.7 6.63971C22.7 7.43689 22.5604 8.20125 22.3044 8.9094C24.3996 9.24855 26 11.076 26 13.2795C26 15.7241 24.03 17.7059 21.6 17.7059C21.5905 17.7059 21.5811 17.7059 21.5717 17.7058H9.50004V17.681Z" fill="#1e70eb"/>
</g>
<defs>
<filter id="filter0_d_1967_109553" x="0" y="0" width="30" height="25.7058" filterUnits="userSpaceOnUse" color-interpolation-filters="sRGB">
<feFlood flood-opacity="0" result="BackgroundImageFix"/>
<feColorMatrix in="SourceAlpha" type="matrix" values="0 0 0 0 0 0 0 0 0 0 0 0 0 0 0 0 0 0 127 0" result="hardAlpha"/>
<feOffset dy="4"/>
<feGaussianBlur stdDeviation="2"/>
<feComposite in2="hardAlpha" operator="out"/>
<feColorMatrix type="matrix" values="0 0 0 0 0 0 0 0 0 0 0 0 0 0 0 0 0 0 0.25 0"/>
<feBlend mode="normal" in2="BackgroundImageFix" result="effect1_dropShadow_1967_109553"/>
<feBlend mode="normal" in="SourceGraphic" in2="effect1_dropShadow_1967_109553" result="shape"/>
</filter>
</defs>
</svg>
