<svg width="16" height="11" viewBox="0 0 16 11" fill="none" xmlns="http://www.w3.org/2000/svg">
<path d="M11.7872 2.91865C11.4965 1.25029 10.0476 0 8.31169 0C6.91408 0 5.66005 0.823481 5.09382 2.08042C5.05787 2.07875 5.02234 2.07792 4.98701 2.07792C3.81195 2.07792 2.7921 2.8241 2.42743 3.92062C0.986389 4.39377 0 5.73881 0 7.27273C0 9.22057 1.58462 10.8052 3.53247 10.8052H12.0519C14.229 10.8052 16 9.03418 16 6.85714C16 4.59242 14.085 2.75595 11.7872 2.91865ZM8.31169 9.35065L5.61039 6.44156H7.27273V4.57143H9.35065V6.44156H11.013L8.31169 9.35065Z" fill="#E4E8EB"/>
</svg>
