<svg width="22" height="18" viewBox="0 0 22 18" fill="none" xmlns="http://www.w3.org/2000/svg">
<path d="M21.3771 6.26808L18.0075 0.389195C17.9407 0.271396 17.844 0.173353 17.7271 0.105004C17.6101 0.0366557 17.4772 0.000430184 17.3418 0H4.15017C4.01474 0.000430184 3.88184 0.0366557 3.76492 0.105004C3.64801 0.173353 3.55125 0.271396 3.48444 0.389195L0.10459 6.26808C0.0213476 6.41083 -0.0136462 6.57661 0.00480427 6.74082C0.0232547 6.90502 0.0941655 7.05891 0.20701 7.17962L10.1724 17.7596C10.2442 17.8355 10.3308 17.896 10.4267 17.9373C10.5227 17.9787 10.6261 18 10.7306 18C10.8351 18 10.9385 17.9787 11.0345 17.9373C11.1305 17.896 11.217 17.8355 11.2888 17.7596L21.2542 7.17962C21.3703 7.06129 21.4451 6.90857 21.4672 6.74428C21.4894 6.57999 21.4578 6.41294 21.3771 6.26808ZM12.5998 7.17962L10.7562 13.7345L8.88195 7.17962H12.5998ZM8.42107 5.64332L7.25348 1.54654H14.218L13.0504 5.64332H8.42107ZM9.44526 14.687L2.31685 7.17962H7.24324L9.44526 14.687ZM14.2385 7.17962H19.1546L11.9853 14.7382L14.2385 7.17962ZM19.2878 5.64332H14.6789L15.8465 1.54654H16.9014L19.2878 5.64332ZM4.64178 1.54654H5.66598L6.83356 5.64332H2.23492L4.64178 1.54654Z" fill="white"/>
</svg>
