<svg width="16" height="16" viewBox="0 0 16 16" fill="none" xmlns="http://www.w3.org/2000/svg">
<path fill-rule="evenodd" clip-rule="evenodd" d="M10.5248 5.52239L10.9409 5.10544C9.75061 4.36848 8.76688 4 7.98967 4C6.59117 4 4.53023 5.19308 1.80685 7.57925L1.3335 8C2.76635 9.29128 4.02561 10.2699 5.11129 10.9359L5.90249 10.1447C5.34572 9.60007 5.00016 8.84039 5.00016 8C5.00016 6.34315 6.34331 5 8.00016 5C8.84055 5 9.60024 5.34556 10.1449 5.90233L10.5248 5.52239ZM9.44216 6.60504C9.07791 6.23181 8.56873 6 8.00528 6C6.89789 6 6.00016 6.89543 6.00016 8C6.00016 8.56385 6.23409 9.07321 6.61043 9.43677L9.44216 6.60504ZM6.43032 11.6279C7.01897 11.876 7.53876 12 7.98967 12C9.38817 12 11.4554 10.8069 14.1913 8.42074L14.6668 8C13.7571 7.18397 12.9173 6.4928 12.1474 5.92648L10.8875 7.18292C10.9609 7.44268 11.0002 7.71676 11.0002 8C11.0002 9.65685 9.65702 11 8.00016 11C7.71403 11 7.43725 10.9599 7.17513 10.8851L6.43032 11.6279ZM10.0096 8.05849C9.9791 9.11671 9.12451 9.96898 8.06353 9.99917L10.0096 8.05849Z" fill="white"/>
<path fill-rule="evenodd" clip-rule="evenodd" d="M12.633 1.41458L13.6521 2.42911L2.3228 13.7273L1.34644 12.7011L12.633 1.41458Z" fill="white"/>
</svg>
