<svg width="18" height="12" viewBox="0 0 18 12" fill="none" xmlns="http://www.w3.org/2000/svg">
<path d="M1.07438 9.87142H2.3975V4.19547H1.07438V9.87142ZM1.73329 3.45112C2.14776 3.45112 2.47189 3.12983 2.47189 2.72824C2.47189 2.32128 2.14776 2 1.73329 2C1.32413 2 1 2.32129 1 2.72824C1 3.12984 1.32413 3.45112 1.73329 3.45112ZM6.80274 2.01602C4.56572 2.01602 3.16283 3.55283 3.16283 6.01068C3.16283 8.46854 4.56558 10 6.80274 10C9.03446 10 10.4373 8.46854 10.4373 6.01068C10.4373 3.55283 9.03459 2.01602 6.80274 2.01602ZM6.80274 3.19407C8.16835 3.19407 9.03976 4.28643 9.03976 6.01066C9.03976 7.72951 8.16832 8.8219 6.80274 8.8219C5.43182 8.8219 4.56572 7.72954 4.56572 6.01066C4.56572 4.28646 5.43185 3.19407 6.80274 3.19407ZM10.9955 7.69743C11.0539 9.12184 12.2123 9.99997 13.9764 9.99997C15.831 9.99997 17 9.07896 17 7.61176C17 6.4605 16.3411 5.81258 14.7842 5.45384L13.9021 5.25035C12.9616 5.02546 12.5737 4.7256 12.5737 4.21155C12.5737 3.56898 13.1582 3.1406 14.0243 3.1406C14.9011 3.1406 15.5015 3.57434 15.5653 4.29722H16.8725C16.8406 2.93712 15.7247 2.01607 14.035 2.01607C12.3664 2.01607 11.1815 2.94243 11.1815 4.31326C11.1815 5.41633 11.851 6.10175 13.2644 6.42841L14.258 6.66402C15.2251 6.89428 15.6184 7.21555 15.6184 7.77244C15.6184 8.41501 14.9754 8.87552 14.0509 8.87552C13.1157 8.87552 12.409 8.40966 12.324 7.69747H10.9955L10.9955 7.69743Z" fill="white"/>
</svg>
