<?xml version="1.0" encoding="UTF-8"?>
<svg width="12px" height="12px" viewBox="0 0 12 12" version="1.1" xmlns="http://www.w3.org/2000/svg" xmlns:xlink="http://www.w3.org/1999/xlink">
    <title>Icons / Platform / Linux</title>
    <g id="Icons-/-Platform-/-Linux" stroke="none" stroke-width="1" fill="none" fill-rule="evenodd">
        <path d="M5.87755,2.88961676 C5.90099,2.90133676 5.91973,2.92945676 5.94786,2.92945676 C5.97364,2.92945676 6.01348,2.92008676 6.01582,2.89430676 C6.02051,2.86149676 5.97129,2.84040676 5.94083,2.82633676 C5.90099,2.80993676 5.84943,2.80290676 5.81193,2.82399676 C5.80256,2.82868676 5.79318,2.84040676 5.79787,2.84977676 C5.8049,2.88024676 5.85177,2.87555676 5.87755,2.88961676 Z M5.36431,2.92945676 C5.39243,2.92945676 5.41118,2.90133676 5.43462,2.88961676 C5.4604,2.87555676 5.50727,2.88024676 5.51664,2.85211676 C5.52133,2.84274676 5.51196,2.83102676 5.50258,2.82633676 C5.46509,2.80524676 5.41353,2.81227676 5.37369,2.82868676 C5.34322,2.84274676 5.29401,2.86383676 5.29869,2.89664676 C5.30104,2.92008676 5.34088,2.93179676 5.36431,2.92945676 Z M10.5459,9.46328676 C10.4615,9.36954676 10.4217,9.19143676 10.3772,9.00160676 C10.335,8.81177676 10.2858,8.60788676 10.1311,8.47665676 C10.1006,8.45087676 10.0702,8.42743676 10.0374,8.40868676 C10.0069,8.38993676 9.97408,8.37353676 9.94128,8.36181676 C10.1569,7.72202676 10.0725,7.08457676 9.85456,6.50806676 C9.5874,5.80265676 9.12103,5.18629676 8.76481,4.76445676 C8.36406,4.26059676 7.97503,3.78250676 7.98206,3.07709676 C7.99378,2.00140676 8.10158,0.0023570874 6.20565,6.75739355e-06 C3.80585,-0.0046735726 4.4058,2.42324676 4.38002,3.16849676 C4.34018,3.71688676 4.23003,4.14810676 3.85272,4.68477676 C3.40979,5.21207676 2.7864,6.06278676 2.49111,6.95099676 C2.3505,7.37049676 2.28488,7.79701676 2.34581,8.20010676 C2.19348,8.33603676 2.07865,8.54461676 1.95678,8.67350676 C1.85835,8.77428676 1.7154,8.81177676 1.55838,8.86802676 C1.40136,8.92426676 1.23028,9.00863676 1.12482,9.20783676 C1.07561,9.29923676 1.0592,9.39766676 1.0592,9.49843676 C1.0592,9.58983676 1.07326,9.68358676 1.08732,9.77497676 C1.11545,9.96480676 1.14591,10.1429068 1.10607,10.2624068 C0.984208,10.5999068 0.967803,10.8343068 1.05451,11.0053068 C1.14357,11.1764068 1.32168,11.2514068 1.52557,11.2936068 C1.931,11.3780068 2.48174,11.3569068 2.9153,11.5865068 C3.37932,11.8303068 3.85038,11.9170068 4.22534,11.8303068 C4.4972,11.7693068 4.71983,11.6053068 4.83232,11.3569068 C5.12527,11.3545068 5.44868,11.2303068 5.96426,11.2022068 C6.31345,11.1741068 6.7517,11.3264068 7.25556,11.2983068 C7.26962,11.3522068 7.28837,11.4061068 7.31415,11.4553068 L7.31415,11.4576068 C7.50867,11.8490068 7.87192,12.0271068 8.2586,11.9967068 C8.64763,11.9662068 9.05775,11.7389068 9.39054,11.3428068 C9.70926,10.9585068 10.2342,10.7991068 10.5834,10.5882068 C10.7568,10.4827068 10.8974,10.3515068 10.9092,10.1593068 C10.9185,9.96715676 10.806,9.75388676 10.5459,9.46328676 Z M5.94551,2.04593676 C6.17518,1.52566676 6.74701,1.53504676 6.97668,2.03656676 C7.12901,2.36934676 7.06105,2.76071676 6.87591,2.98335676 C6.83841,2.96460676 6.73764,2.92242676 6.58062,2.86852676 C6.6064,2.84040676 6.65327,2.80524676 6.67202,2.76071676 C6.78451,2.48418676 6.66733,2.12795676 6.45875,2.12092676 C6.28767,2.10921676 6.133,2.37403676 6.18221,2.65994676 C6.08613,2.61307676 5.96192,2.57792676 5.87755,2.55683676 C5.85412,2.39512676 5.87052,2.21467676 5.94551,2.04593676 Z M4.99169,1.77642676 C5.22839,1.77642676 5.47915,2.10921676 5.43931,2.56151676 C5.35728,2.58495676 5.27291,2.62010676 5.20026,2.66932676 C5.22839,2.46074676 5.12293,2.19826676 4.97528,2.20998676 C4.77842,2.22638676 4.74561,2.70681676 4.9331,2.86852676 C4.95653,2.88727676 4.97763,2.86383676 4.79483,2.99741676 C4.42923,2.65525676 4.54875,1.77642676 4.99169,1.77642676 Z M4.67296,3.19896676 C4.81826,3.09116676 4.99169,2.96460676 5.0034,2.95289676 C5.11355,2.84977676 5.31978,2.62010676 5.65726,2.62010676 C5.82365,2.62010676 6.02285,2.67400676 6.26424,2.82868676 C6.41188,2.92476676 6.52906,2.93179676 6.79388,3.04663676 C6.99074,3.12865676 7.11495,3.27395676 7.03995,3.47316676 C6.97902,3.63955676 6.78216,3.81063676 6.50797,3.89734676 C6.24783,3.98171676 6.04394,4.27231676 5.61273,4.24653676 C5.52133,4.24184676 5.44868,4.22309676 5.38775,4.19731676 C5.20026,4.11529676 5.10183,3.95358676 4.91904,3.84578676 C4.71749,3.73329676 4.60969,3.60205676 4.57453,3.48722676 C4.54172,3.37238676 4.57453,3.27630676 4.67296,3.19896676 Z M4.7503,11.0264068 C4.68702,11.8490068 3.72148,11.8326068 2.9856,11.4483068 C2.28488,11.0780068 1.37793,11.2959068 1.19278,10.9350068 C1.13654,10.8249068 1.13654,10.6374068 1.25372,10.3163068 L1.25372,10.3116068 C1.30996,10.1335068 1.26778,9.93668676 1.23966,9.75154676 C1.21153,9.56874676 1.19747,9.40001676 1.26075,9.28283676 C1.34277,9.12581676 1.45995,9.06956676 1.60759,9.01801676 C1.84898,8.93129676 1.88413,8.93832676 2.06693,8.78599676 C2.19583,8.65241676 2.28957,8.48368676 2.40206,8.36415676 C2.52158,8.23526676 2.63641,8.17433676 2.81687,8.20245676 C3.0067,8.23057676 3.17074,8.36181676 3.33011,8.57742676 L3.78944,9.41172676 C4.01208,9.87809676 4.79952,10.5460068 4.7503,11.0264068 Z M4.71749,10.4195068 C4.62141,10.2648068 4.49251,10.1007068 4.38002,9.96012676 C4.54641,9.96012676 4.7128,9.90856676 4.77139,9.75154676 C4.82529,9.60624676 4.77139,9.40235676 4.59797,9.16799676 C4.28159,8.74147676 3.70039,8.40634676 3.70039,8.40634676 C3.38401,8.20948676 3.2059,7.96809676 3.12387,7.70562676 C3.04185,7.44314676 3.05357,7.15957676 3.11684,6.88068676 C3.23871,6.34401676 3.55274,5.82140676 3.75429,5.49330676 C3.80819,5.45346676 3.77304,5.56829676 3.5504,5.98076676 C3.3512,6.35807676 2.97857,7.22987676 3.48947,7.91185676 C3.50353,7.42673676 3.61836,6.93224676 3.81288,6.47056676 C4.09411,5.82843676 4.68702,4.71524676 4.7339,3.82938676 C4.75967,3.84812676 4.8417,3.90437676 4.8792,3.92546676 C4.987,3.98874676 5.06902,4.08248676 5.17448,4.16685676 C5.46509,4.40120676 5.8424,4.38245676 6.16815,4.19497676 C6.31345,4.11295676 6.43063,4.01920676 6.54078,3.98405676 C6.77279,3.91140676 6.95793,3.78250676 7.06339,3.63252676 C7.24384,4.34496676 7.66568,5.37378676 7.93519,5.87530676 C8.07815,6.14246676 8.36406,6.70726676 8.48827,7.38924676 C8.56561,7.38689676 8.65232,7.39861676 8.74372,7.42205676 C9.06713,6.58540676 8.46952,5.68313676 8.19767,5.43237676 C8.08752,5.32456676 8.08284,5.27769676 8.13674,5.28004676 C8.43203,5.54251676 8.82106,6.06981676 8.96167,6.66273676 C9.02729,6.93459676 9.03901,7.21816676 8.97104,7.49938676 C9.35539,7.65874676 9.81238,7.91888676 9.69051,8.31494676 C9.63896,8.31260676 9.61552,8.31494676 9.59208,8.31494676 C9.66708,8.07824676 9.50069,7.90247676 9.05775,7.70327676 C8.59842,7.50173676 8.21408,7.50173676 8.16017,7.99622676 C7.8766,8.09465676 7.7313,8.34072676 7.65865,8.63601676 C7.59303,8.89848676 7.57428,9.21486676 7.55554,9.57108676 C7.54382,9.75154676 7.47117,9.99292676 7.39617,10.2507068 C6.64389,10.7874068 5.59867,11.0217068 4.71749,10.4195068 Z M10.7498,10.1499068 C10.7287,10.5437068 9.78426,10.6163068 9.26867,11.2397068 C8.95933,11.6076068 8.57967,11.8115068 8.24688,11.8373068 C7.9141,11.8631068 7.62584,11.7248068 7.45711,11.3850068 C7.34696,11.1249068 7.40086,10.8436068 7.48289,10.5343068 C7.5696,10.2015068 7.69849,9.85934676 7.7149,9.58280676 C7.73365,9.22658676 7.75474,8.91489676 7.81333,8.67585676 C7.87426,8.43446676 7.968,8.27276676 8.13439,8.18136676 C8.14142,8.17667676 8.1508,8.17433676 8.15783,8.16964676 C8.17658,8.47899676 8.32891,8.79303676 8.59842,8.86099676 C8.89371,8.93832676 9.31789,8.68522676 9.49834,8.47899676 C9.70926,8.47196676 9.86628,8.45790676 10.028,8.59851676 C10.26,8.79771676 10.1944,9.30861676 10.4287,9.57343676 C10.6772,9.84528676 10.7568,10.0304068 10.7498,10.1499068 Z M4.76436,3.48487676 C4.81123,3.52940676 4.87451,3.59033676 4.95185,3.65127676 C5.10652,3.77313676 5.32213,3.89968676 5.59164,3.89968676 C5.86349,3.89968676 6.11894,3.76141676 6.33689,3.64658676 C6.45172,3.58565676 6.59233,3.48253676 6.68373,3.40285676 C6.77513,3.32317676 6.822,3.25520676 6.75638,3.24817676 C6.69076,3.24114676 6.69545,3.30911676 6.61577,3.36770676 C6.51265,3.44269676 6.38845,3.54112676 6.29002,3.59736676 C6.11659,3.69579676 5.83302,3.83641676 5.58929,3.83641676 C5.34556,3.83641676 5.15105,3.72392676 5.00575,3.60908676 C4.9331,3.55049676 4.87217,3.49190676 4.82529,3.44738676 C4.79014,3.41457676 4.78077,3.33957676 4.72452,3.33254676 C4.69171,3.33020676 4.68234,3.41925676 4.76436,3.48487676 Z" id="Shape" fill="#FFFFFF" fill-rule="nonzero"></path>
        <path d="M4.99169,1.77642676 C5.22839,1.77642676 5.47915,2.10921676 5.43931,2.56151676 C5.35728,2.58495676 5.27291,2.62010676 5.20026,2.66932676 C5.22839,2.46074676 5.12293,2.19826676 4.97528,2.20998676 C4.77842,2.22638676 4.74561,2.70681676 4.9331,2.86852676 C4.95653,2.88727676 4.97763,2.86383676 4.79483,2.99741676 C4.42923,2.65525676 4.54875,1.77642676 4.99169,1.77642676 Z" id="Path" fill="#FFFFFF" fill-rule="nonzero"></path>
        <path d="M5.94551,2.04593676 C6.17518,1.52566676 6.74701,1.53504676 6.97668,2.03656676 C7.12901,2.36934676 7.06105,2.76071676 6.87591,2.98335676 C6.83841,2.96460676 6.73764,2.92242676 6.58062,2.86852676 C6.6064,2.84040676 6.65327,2.80524676 6.67202,2.76071676 C6.78451,2.48418676 6.66733,2.12795676 6.45875,2.12092676 C6.28767,2.10921676 6.133,2.37403676 6.18221,2.65994676 C6.08613,2.61307676 5.96192,2.57792676 5.87755,2.55683676 C5.85412,2.39512676 5.87052,2.21467676 5.94551,2.04593676 Z" id="Path" fill="#FFFFFF" fill-rule="nonzero"></path>
        <path d="M4.67296,3.19896676 C4.81826,3.09116676 4.99169,2.96460676 5.0034,2.95289676 C5.11355,2.84977676 5.31978,2.62010676 5.65726,2.62010676 C5.82365,2.62010676 6.02285,2.67400676 6.26424,2.82868676 C6.41188,2.92476676 6.52906,2.93179676 6.79388,3.04663676 C6.99074,3.12865676 7.11495,3.27395676 7.03995,3.47316676 C6.97902,3.63955676 6.78216,3.81063676 6.50797,3.89734676 C6.24783,3.98171676 6.04394,4.27231676 5.61273,4.24653676 C5.52133,4.24184676 5.44868,4.22309676 5.38775,4.19731676 C5.20026,4.11529676 5.10183,3.95358676 4.91904,3.84578676 C4.71749,3.73329676 4.60969,3.60205676 4.57453,3.48722676 C4.54172,3.37238676 4.57453,3.27630676 4.67296,3.19896676 Z M5.94786,2.92945676 C5.91973,2.92945676 5.90099,2.90133676 5.87755,2.88961676 C5.85177,2.87555676 5.8049,2.88024676 5.79787,2.84977676 C5.79318,2.84040676 5.80256,2.82868676 5.81193,2.82399676 C5.84943,2.80290676 5.90099,2.80993676 5.94083,2.82633676 C5.97129,2.84040676 6.02051,2.86149676 6.01582,2.89430676 C6.01348,2.92008676 5.97364,2.92945676 5.94786,2.92945676 Z M5.43462,2.88961676 C5.41118,2.90133676 5.39243,2.92945676 5.36431,2.92945676 C5.34088,2.93179676 5.30104,2.92008676 5.29869,2.89664676 C5.29401,2.86383676 5.34322,2.84274676 5.37369,2.82868676 C5.41353,2.81227676 5.46509,2.80524676 5.50258,2.82633676 C5.51196,2.83102676 5.52133,2.84274676 5.51664,2.85211676 C5.50727,2.88024676 5.4604,2.87555676 5.43462,2.88961676 Z M4.95185,3.65127676 C4.87451,3.59033676 4.81123,3.52940676 4.76436,3.48487676 C4.68234,3.41925676 4.69171,3.33020676 4.72452,3.33254676 C4.78077,3.33957676 4.79014,3.41457676 4.82529,3.44738676 C4.87217,3.49190676 4.9331,3.55049676 5.00575,3.60908676 C5.15105,3.72392676 5.34556,3.83641676 5.58929,3.83641676 C5.83302,3.83641676 6.11659,3.69579676 6.29002,3.59736676 C6.38845,3.54112676 6.51265,3.44269676 6.61577,3.36770676 C6.69545,3.30911676 6.69076,3.24114676 6.75638,3.24817676 C6.822,3.25520676 6.77513,3.32317676 6.68373,3.40285676 C6.59233,3.48253676 6.45172,3.58565676 6.33689,3.64658676 C6.11894,3.76141676 5.86349,3.89968676 5.59164,3.89968676 C5.32213,3.89968676 5.10652,3.77313676 4.95185,3.65127676 Z" id="Shape" fill="#FFFFFF"></path>
        <path d="M4.71749,10.4195068 C4.62141,10.2648068 4.49251,10.1007068 4.38002,9.96012676 C4.54641,9.96012676 4.7128,9.90856676 4.77139,9.75154676 C4.82529,9.60624676 4.77139,9.40235676 4.59797,9.16799676 C4.28159,8.74147676 3.70039,8.40634676 3.70039,8.40634676 C3.38401,8.20948676 3.2059,7.96809676 3.12387,7.70562676 C3.04185,7.44314676 3.05357,7.15957676 3.11684,6.88068676 C3.23871,6.34401676 3.55274,5.82140676 3.75429,5.49330676 C3.80819,5.45346676 3.77304,5.56829676 3.5504,5.98076676 C3.3512,6.35807676 2.97857,7.22987676 3.48947,7.91185676 C3.50353,7.42673676 3.61836,6.93224676 3.81288,6.47056676 C4.09411,5.82843676 4.68702,4.71524676 4.7339,3.82938676 C4.75967,3.84812676 4.8417,3.90437676 4.8792,3.92546676 C4.987,3.98874676 5.06902,4.08248676 5.17448,4.16685676 C5.46509,4.40120676 5.8424,4.38245676 6.16815,4.19497676 C6.31345,4.11295676 6.43063,4.01920676 6.54078,3.98405676 C6.77279,3.91140676 6.95793,3.78250676 7.06339,3.63252676 C7.24384,4.34496676 7.66568,5.37378676 7.93519,5.87530676 C8.07815,6.14246676 8.36406,6.70726676 8.48827,7.38924676 C8.56561,7.38689676 8.65232,7.39861676 8.74372,7.42205676 C9.06713,6.58540676 8.46952,5.68313676 8.19767,5.43237676 C8.08752,5.32456676 8.08284,5.27769676 8.13674,5.28004676 C8.43203,5.54251676 8.82106,6.06981676 8.96167,6.66273676 C9.02729,6.93459676 9.03901,7.21816676 8.97104,7.49938676 C9.35539,7.65874676 9.81238,7.91888676 9.69051,8.31494676 C9.63896,8.31260676 9.61552,8.31494676 9.59208,8.31494676 C9.66708,8.07824676 9.50069,7.90247676 9.05775,7.70327676 C8.59842,7.50173676 8.21408,7.50173676 8.16017,7.99622676 C7.8766,8.09465676 7.7313,8.34072676 7.65865,8.63601676 C7.59303,8.89848676 7.57428,9.21486676 7.55554,9.57108676 C7.54382,9.75154676 7.47117,9.99292676 7.39617,10.2507068 C6.64389,10.7874068 5.59867,11.0217068 4.71749,10.4195068 Z" id="Path" fill="#FFFFFF" fill-rule="nonzero"></path>
        <path d="M4.7503,11.0264068 C4.68702,11.8490068 3.72148,11.8326068 2.9856,11.4483068 C2.28488,11.0780068 1.37793,11.2959068 1.19278,10.9350068 C1.13654,10.8249068 1.13654,10.6374068 1.25372,10.3163068 L1.25372,10.3116068 C1.30996,10.1335068 1.26778,9.93668676 1.23966,9.75154676 C1.21153,9.56874676 1.19747,9.40001676 1.26075,9.28283676 C1.34277,9.12581676 1.45995,9.06956676 1.60759,9.01801676 C1.84898,8.93129676 1.88413,8.93832676 2.06693,8.78599676 C2.19583,8.65241676 2.28957,8.48368676 2.40206,8.36415676 C2.52158,8.23526676 2.63641,8.17433676 2.81687,8.20245676 C3.0067,8.23057676 3.17074,8.36181676 3.33011,8.57742676 L3.78944,9.41172676 C4.01208,9.87809676 4.79952,10.5460068 4.7503,11.0264068 Z" id="Path" fill="#FFFFFF" fill-rule="nonzero"></path>
        <path d="M10.7498,10.1499068 C10.7287,10.5437068 9.78426,10.6163068 9.26867,11.2397068 C8.95933,11.6076068 8.57967,11.8115068 8.24688,11.8373068 C7.9141,11.8631068 7.62584,11.7248068 7.45711,11.3850068 C7.34696,11.1249068 7.40086,10.8436068 7.48289,10.5343068 C7.5696,10.2015068 7.69849,9.85934676 7.7149,9.58280676 C7.73365,9.22658676 7.75474,8.91489676 7.81333,8.67585676 C7.87426,8.43446676 7.968,8.27276676 8.13439,8.18136676 C8.14142,8.17667676 8.1508,8.17433676 8.15783,8.16964676 C8.17658,8.47899676 8.32891,8.79303676 8.59842,8.86099676 C8.89371,8.93832676 9.31789,8.68522676 9.49834,8.47899676 C9.70926,8.47196676 9.86628,8.45790676 10.028,8.59851676 C10.26,8.79771676 10.1944,9.30861676 10.4287,9.57343676 C10.6772,9.84528676 10.7568,10.0304068 10.7498,10.1499068 Z" id="Path" fill="#FFFFFF" fill-rule="nonzero"></path>
        <path d="M5.87755,2.88961676 C5.90099,2.90133676 5.91973,2.92945676 5.94786,2.92945676 C5.97364,2.92945676 6.01348,2.92008676 6.01582,2.89430676 C6.02051,2.86149676 5.97129,2.84040676 5.94083,2.82633676 C5.90099,2.80993676 5.84943,2.80290676 5.81193,2.82399676 C5.80256,2.82868676 5.79318,2.84040676 5.79787,2.84977676 C5.8049,2.88024676 5.85177,2.87555676 5.87755,2.88961676 Z M5.36431,2.92945676 C5.39243,2.92945676 5.41118,2.90133676 5.43462,2.88961676 C5.4604,2.87555676 5.50727,2.88024676 5.51664,2.85211676 C5.52133,2.84274676 5.51196,2.83102676 5.50258,2.82633676 C5.46509,2.80524676 5.41353,2.81227676 5.37369,2.82868676 C5.34322,2.84274676 5.29401,2.86383676 5.29869,2.89664676 C5.30104,2.92008676 5.34088,2.93179676 5.36431,2.92945676 Z M10.5459,9.46328676 C10.4615,9.36954676 10.4217,9.19143676 10.3772,9.00160676 C10.335,8.81177676 10.2858,8.60788676 10.1311,8.47665676 C10.1006,8.45087676 10.0702,8.42743676 10.0374,8.40868676 C10.0069,8.38993676 9.97408,8.37353676 9.94128,8.36181676 C10.1569,7.72202676 10.0725,7.08457676 9.85456,6.50806676 C9.5874,5.80265676 9.12103,5.18629676 8.76481,4.76445676 C8.36406,4.26059676 7.97503,3.78250676 7.98206,3.07709676 C7.99378,2.00140676 8.10158,0.0023570874 6.20565,6.75739355e-06 C3.80585,-0.0046735726 4.4058,2.42324676 4.38002,3.16849676 C4.34018,3.71688676 4.23003,4.14810676 3.85272,4.68477676 C3.40979,5.21207676 2.7864,6.06278676 2.49111,6.95099676 C2.3505,7.37049676 2.28488,7.79701676 2.34581,8.20010676 C2.19348,8.33603676 2.07865,8.54461676 1.95678,8.67350676 C1.85835,8.77428676 1.7154,8.81177676 1.55838,8.86802676 C1.40136,8.92426676 1.23028,9.00863676 1.12482,9.20783676 C1.07561,9.29923676 1.0592,9.39766676 1.0592,9.49843676 C1.0592,9.58983676 1.07326,9.68358676 1.08732,9.77497676 C1.11545,9.96480676 1.14591,10.1429068 1.10607,10.2624068 C0.984208,10.5999068 0.967803,10.8343068 1.05451,11.0053068 C1.14357,11.1764068 1.32168,11.2514068 1.52557,11.2936068 C1.931,11.3780068 2.48174,11.3569068 2.9153,11.5865068 C3.37932,11.8303068 3.85038,11.9170068 4.22534,11.8303068 C4.4972,11.7693068 4.71983,11.6053068 4.83232,11.3569068 C5.12527,11.3545068 5.44868,11.2303068 5.96426,11.2022068 C6.31345,11.1741068 6.7517,11.3264068 7.25556,11.2983068 C7.26962,11.3522068 7.28837,11.4061068 7.31415,11.4553068 L7.31415,11.4576068 C7.50867,11.8490068 7.87192,12.0271068 8.2586,11.9967068 C8.64763,11.9662068 9.05775,11.7389068 9.39054,11.3428068 C9.70926,10.9585068 10.2342,10.7991068 10.5834,10.5882068 C10.7568,10.4827068 10.8974,10.3515068 10.9092,10.1593068 C10.9185,9.96715676 10.806,9.75388676 10.5459,9.46328676 Z M5.94551,2.04593676 C6.17518,1.52566676 6.74701,1.53504676 6.97668,2.03656676 C7.12901,2.36934676 7.06105,2.76071676 6.87591,2.98335676 C6.83841,2.96460676 6.73764,2.92242676 6.58062,2.86852676 C6.6064,2.84040676 6.65327,2.80524676 6.67202,2.76071676 C6.78451,2.48418676 6.66733,2.12795676 6.45875,2.12092676 C6.28767,2.10921676 6.133,2.37403676 6.18221,2.65994676 C6.08613,2.61307676 5.96192,2.57792676 5.87755,2.55683676 C5.85412,2.39512676 5.87052,2.21467676 5.94551,2.04593676 Z M4.99169,1.77642676 C5.22839,1.77642676 5.47915,2.10921676 5.43931,2.56151676 C5.35728,2.58495676 5.27291,2.62010676 5.20026,2.66932676 C5.22839,2.46074676 5.12293,2.19826676 4.97528,2.20998676 C4.77842,2.22638676 4.74561,2.70681676 4.9331,2.86852676 C4.95653,2.88727676 4.97763,2.86383676 4.79483,2.99741676 C4.42923,2.65525676 4.54875,1.77642676 4.99169,1.77642676 Z M4.67296,3.19896676 C4.81826,3.09116676 4.99169,2.96460676 5.0034,2.95289676 C5.11355,2.84977676 5.31978,2.62010676 5.65726,2.62010676 C5.82365,2.62010676 6.02285,2.67400676 6.26424,2.82868676 C6.41188,2.92476676 6.52906,2.93179676 6.79388,3.04663676 C6.99074,3.12865676 7.11495,3.27395676 7.03995,3.47316676 C6.97902,3.63955676 6.78216,3.81063676 6.50797,3.89734676 C6.24783,3.98171676 6.04394,4.27231676 5.61273,4.24653676 C5.52133,4.24184676 5.44868,4.22309676 5.38775,4.19731676 C5.20026,4.11529676 5.10183,3.95358676 4.91904,3.84578676 C4.71749,3.73329676 4.60969,3.60205676 4.57453,3.48722676 C4.54172,3.37238676 4.57453,3.27630676 4.67296,3.19896676 Z M4.7503,11.0264068 C4.68702,11.8490068 3.72148,11.8326068 2.9856,11.4483068 C2.28488,11.0780068 1.37793,11.2959068 1.19278,10.9350068 C1.13654,10.8249068 1.13654,10.6374068 1.25372,10.3163068 L1.25372,10.3116068 C1.30996,10.1335068 1.26778,9.93668676 1.23966,9.75154676 C1.21153,9.56874676 1.19747,9.40001676 1.26075,9.28283676 C1.34277,9.12581676 1.45995,9.06956676 1.60759,9.01801676 C1.84898,8.93129676 1.88413,8.93832676 2.06693,8.78599676 C2.19583,8.65241676 2.28957,8.48368676 2.40206,8.36415676 C2.52158,8.23526676 2.63641,8.17433676 2.81687,8.20245676 C3.0067,8.23057676 3.17074,8.36181676 3.33011,8.57742676 L3.78944,9.41172676 C4.01208,9.87809676 4.79952,10.5460068 4.7503,11.0264068 Z M4.71749,10.4195068 C4.62141,10.2648068 4.49251,10.1007068 4.38002,9.96012676 C4.54641,9.96012676 4.7128,9.90856676 4.77139,9.75154676 C4.82529,9.60624676 4.77139,9.40235676 4.59797,9.16799676 C4.28159,8.74147676 3.70039,8.40634676 3.70039,8.40634676 C3.38401,8.20948676 3.2059,7.96809676 3.12387,7.70562676 C3.04185,7.44314676 3.05357,7.15957676 3.11684,6.88068676 C3.23871,6.34401676 3.55274,5.82140676 3.75429,5.49330676 C3.80819,5.45346676 3.77304,5.56829676 3.5504,5.98076676 C3.3512,6.35807676 2.97857,7.22987676 3.48947,7.91185676 C3.50353,7.42673676 3.61836,6.93224676 3.81288,6.47056676 C4.09411,5.82843676 4.68702,4.71524676 4.7339,3.82938676 C4.75967,3.84812676 4.8417,3.90437676 4.8792,3.92546676 C4.987,3.98874676 5.06902,4.08248676 5.17448,4.16685676 C5.46509,4.40120676 5.8424,4.38245676 6.16815,4.19497676 C6.31345,4.11295676 6.43063,4.01920676 6.54078,3.98405676 C6.77279,3.91140676 6.95793,3.78250676 7.06339,3.63252676 C7.24384,4.34496676 7.66568,5.37378676 7.93519,5.87530676 C8.07815,6.14246676 8.36406,6.70726676 8.48827,7.38924676 C8.56561,7.38689676 8.65232,7.39861676 8.74372,7.42205676 C9.06713,6.58540676 8.46952,5.68313676 8.19767,5.43237676 C8.08752,5.32456676 8.08284,5.27769676 8.13674,5.28004676 C8.43203,5.54251676 8.82106,6.06981676 8.96167,6.66273676 C9.02729,6.93459676 9.03901,7.21816676 8.97104,7.49938676 C9.35539,7.65874676 9.81238,7.91888676 9.69051,8.31494676 C9.63896,8.31260676 9.61552,8.31494676 9.59208,8.31494676 C9.66708,8.07824676 9.50069,7.90247676 9.05775,7.70327676 C8.59842,7.50173676 8.21408,7.50173676 8.16017,7.99622676 C7.8766,8.09465676 7.7313,8.34072676 7.65865,8.63601676 C7.59303,8.89848676 7.57428,9.21486676 7.55554,9.57108676 C7.54382,9.75154676 7.47117,9.99292676 7.39617,10.2507068 C6.64389,10.7874068 5.59867,11.0217068 4.71749,10.4195068 Z M10.7498,10.1499068 C10.7287,10.5437068 9.78426,10.6163068 9.26867,11.2397068 C8.95933,11.6076068 8.57967,11.8115068 8.24688,11.8373068 C7.9141,11.8631068 7.62584,11.7248068 7.45711,11.3850068 C7.34696,11.1249068 7.40086,10.8436068 7.48289,10.5343068 C7.5696,10.2015068 7.69849,9.85934676 7.7149,9.58280676 C7.73365,9.22658676 7.75474,8.91489676 7.81333,8.67585676 C7.87426,8.43446676 7.968,8.27276676 8.13439,8.18136676 C8.14142,8.17667676 8.1508,8.17433676 8.15783,8.16964676 C8.17658,8.47899676 8.32891,8.79303676 8.59842,8.86099676 C8.89371,8.93832676 9.31789,8.68522676 9.49834,8.47899676 C9.70926,8.47196676 9.86628,8.45790676 10.028,8.59851676 C10.26,8.79771676 10.1944,9.30861676 10.4287,9.57343676 C10.6772,9.84528676 10.7568,10.0304068 10.7498,10.1499068 Z M4.76436,3.48487676 C4.81123,3.52940676 4.87451,3.59033676 4.95185,3.65127676 C5.10652,3.77313676 5.32213,3.89968676 5.59164,3.89968676 C5.86349,3.89968676 6.11894,3.76141676 6.33689,3.64658676 C6.45172,3.58565676 6.59233,3.48253676 6.68373,3.40285676 C6.77513,3.32317676 6.822,3.25520676 6.75638,3.24817676 C6.69076,3.24114676 6.69545,3.30911676 6.61577,3.36770676 C6.51265,3.44269676 6.38845,3.54112676 6.29002,3.59736676 C6.11659,3.69579676 5.83302,3.83641676 5.58929,3.83641676 C5.34556,3.83641676 5.15105,3.72392676 5.00575,3.60908676 C4.9331,3.55049676 4.87217,3.49190676 4.82529,3.44738676 C4.79014,3.41457676 4.78077,3.33957676 4.72452,3.33254676 C4.69171,3.33020676 4.68234,3.41925676 4.76436,3.48487676 Z" id="Shape" fill="#000000" fill-rule="nonzero"></path>
    </g>
</svg>