<svg width="37" height="12" viewBox="0 0 37 12" fill="none" xmlns="http://www.w3.org/2000/svg">
<path d="M1.00003 9.87115H2.3489V6.38891C2.3489 5.70213 2.80394 5.20315 3.45401 5.20315C4.08239 5.20315 4.47244 5.59483 4.47244 6.22794V9.87102H5.78339V6.35664C5.78339 5.67524 6.22759 5.20308 6.87765 5.20308C7.53854 5.20308 7.90692 5.60012 7.90692 6.29764V9.87108H9.25579V5.97045C9.25579 4.83299 8.51364 4.07646 7.3814 4.07646C6.55257 4.07646 5.87008 4.51642 5.59369 5.2193H5.56119C5.34992 4.4896 4.77029 4.07646 3.95778 4.07646C3.17771 4.07646 2.57099 4.51107 2.32178 5.17102H2.2947V4.18377H1V9.87112L1.00003 9.87115ZM12.2084 8.95365C11.6233 8.95365 11.2333 8.65856 11.2333 8.19176C11.2333 7.74106 11.6071 7.45133 12.2571 7.4084L13.5843 7.32792V7.76253C13.5843 8.44931 12.9722 8.95366 12.2084 8.95366V8.95365ZM11.8021 9.96237C12.5388 9.96237 13.2593 9.58142 13.5898 8.96439H13.6169V9.87116H14.917V5.95433C14.917 4.81149 13.9906 4.06569 12.566 4.06569C11.1033 4.06569 10.1879 4.82759 10.1283 5.88991H11.3796C11.4663 5.41775 11.8726 5.11191 12.5118 5.11191C13.1781 5.11191 13.5844 5.4553 13.5844 6.05086V6.45864L12.0675 6.54449C10.6699 6.63034 9.88444 7.23664 9.88444 8.24537C9.88444 9.27016 10.6916 9.96231 11.8021 9.96231L11.8021 9.96237ZM20.8381 6.21187C20.746 5.01538 19.8089 4.06569 18.2921 4.06569C16.6237 4.06569 15.5402 5.20853 15.5402 7.02735C15.5402 8.87314 16.6236 9.98365 18.3029 9.98365C19.7439 9.98365 20.7352 9.14664 20.8435 7.87497H19.5705C19.4459 8.51883 19.0017 8.90514 18.3191 8.90514C17.4632 8.90514 16.9107 8.21836 16.9107 7.02721C16.9107 5.85755 17.4578 5.14929 18.3083 5.14929C19.0288 5.14929 19.4568 5.60535 19.5651 6.21165H20.8381L20.8381 6.21187ZM25.0042 2C22.7236 2 21.2934 3.53989 21.2934 6.00268C21.2934 8.46546 22.7235 10 25.0042 10C27.2794 10 28.7096 8.46546 28.7096 6.00268C28.7096 3.53989 27.2795 2 25.0042 2ZM25.0042 3.18041C26.3964 3.18041 27.2848 4.27497 27.2848 6.00265C27.2848 7.72495 26.3964 8.81954 25.0042 8.81954C23.6066 8.81954 22.7236 7.72498 22.7236 6.00265C22.7236 4.27499 23.6066 3.18041 25.0042 3.18041ZM29.2786 7.69281C29.3381 9.12007 30.5191 9.99997 32.3176 9.99997C34.2082 9.99997 35.4 9.07711 35.4 7.60696C35.4 6.4534 34.7283 5.80417 33.1411 5.44471L32.2418 5.24082C31.283 5.01548 30.8875 4.71501 30.8875 4.19993C30.8875 3.55607 31.4834 3.12684 32.3664 3.12684C33.2602 3.12684 33.8723 3.56144 33.9373 4.28577H35.27C35.2375 2.92295 34.0999 2.00004 32.3773 2.00004C30.6762 2.00004 29.4682 2.92826 29.4682 4.30185C29.4682 5.40713 30.1508 6.09392 31.5916 6.42124L32.6047 6.65733C33.5906 6.88805 33.9914 7.20997 33.9914 7.76797C33.9914 8.41183 33.336 8.87326 32.3934 8.87326C31.44 8.87326 30.7196 8.40647 30.6329 7.69285H29.2786L29.2786 7.69281Z" fill="white"/>
</svg>
