<?xml version="1.0" encoding="UTF-8"?>
<svg width="64px" height="75px" viewBox="0 0 64 75" version="1.1" xmlns="http://www.w3.org/2000/svg" xmlns:xlink="http://www.w3.org/1999/xlink">
    <title>Group 3</title>
    <defs>
        <filter id="filter-1">
            <feColorMatrix in="SourceGraphic" type="matrix" values="0 0 0 0 1.000000 0 0 0 0 1.000000 0 0 0 0 1.000000 0 0 0 1.000000 0"></feColorMatrix>
        </filter>
        <polygon id="path-2" points="0 0 64 0 64 74.6299836 0 74.6299836"></polygon>
    </defs>
    <g id="Page-1" stroke="none" stroke-width="1" fill="none" fill-rule="evenodd">
        <g filter="url(#filter-1)" id="Group-3">
            <g>
                <mask id="mask-3" fill="white">
                    <use xlink:href="#path-2"></use>
                </mask>
                <g id="Clip-2"></g>
                <path d="M32.001306,55.8485931 C24.4210101,55.8485931 18.2757991,52.5219325 18.2757991,48.4181803 C18.2757991,45.0762826 22.3518757,42.2502692 27.9588132,41.3161424 L27.9588132,46.8615096 C27.9588132,49.0942095 29.7689171,50.9040025 32.001306,50.9040025 C34.2340059,50.9040025 36.0437989,49.0942095 36.0437989,46.8615096 L36.0437989,41.3161424 C41.6510474,42.2502692 45.726813,45.0765936 45.726813,48.4181803 C45.726813,52.5219325 39.581602,55.8485931 32.001306,55.8485931 L32.001306,55.8485931 Z M10.5070608,50.4148608 C8.46995534,50.4148608 6.8187525,49.521159 6.8187525,48.4181803 C6.8187525,47.3155127 8.46995534,46.4218108 10.5070608,46.4218108 C12.5438552,46.4218108 14.1950581,47.3155127 14.1950581,48.4181803 C14.1950581,49.521159 12.5438552,50.4148608 10.5070608,50.4148608 L10.5070608,50.4148608 Z M22.0505545,14.9261273 C22.0505545,9.43922073 26.5143994,4.97537578 32.001306,4.97537578 C37.4882126,4.97537578 41.9520576,9.43922073 41.9520576,14.9261273 C41.9520576,20.4130339 37.4882126,24.8768789 32.001306,24.8768789 C26.5143994,24.8768789 22.0505545,20.4130339 22.0505545,14.9261273 L22.0505545,14.9261273 Z M63.9982586,49.879075 C63.9985696,49.871301 64.0001244,49.863838 64.0001244,49.8560639 C64.0001244,49.8482899 63.9985696,49.8408268 63.9982586,49.8333638 L63.9982586,49.6999615 L63.9889298,49.6999615 C63.9348226,49.1663525 63.6114232,48.6930698 63.1219706,48.4564285 L36.0437989,35.364971 L36.0437989,29.8525656 C36.0437989,29.6663 36.027007,29.4846988 36.002752,29.3055852 C42.3021997,27.5561187 46.9274334,21.783128 46.9274334,14.9261273 C46.9274334,6.68286255 40.2448818,0 32.001306,0 C23.7577303,0 17.0751787,6.68286255 17.0751787,14.9261273 C17.0751787,21.783128 21.7004124,27.5561187 28.000171,29.3055852 C27.9759161,29.4846988 27.9588132,29.6663 27.9588132,29.8525656 L27.9588132,35.3646601 L0.880641513,48.4564285 C0.407047931,48.6852958 0.0867581151,49.1355673 0.0174138152,49.648031 L0,49.648031 L0.0289193717,58.0868903 C0.0133713224,58.1752032 0.00279864887,58.26476 0.00279864887,58.3564934 C0.00279864887,58.9529166 0.343922851,59.4967874 0.880641513,59.7561288 L31.3246549,74.4748452 C31.5382851,74.5783952 31.7696401,74.6300147 32.001306,74.6300147 C32.232972,74.6300147 32.4643269,74.5783952 32.6779571,74.4748452 L63.1219706,59.7561288 C63.6509152,59.5005189 63.9883079,58.9684647 63.9982586,58.3823032 L63.9982586,58.3823032 L63.9982586,58.3791936 C63.9985696,58.3717305 64.0001244,58.3642675 64.0001244,58.3564934 C64.0001244,58.3487194 63.9985696,58.3412564 63.9982586,58.3334823 L63.9982586,49.879075 Z" id="Fill-1" fill="#FFFFFF" mask="url(#mask-3)"></path>
            </g>
        </g>
    </g>
</svg>