<?xml version="1.0" encoding="utf-8"?>
<!-- Generator: Adobe Illustrator 26.2.1, SVG Export Plug-In . SVG Version: 6.00 Build 0)  -->
<svg version="1.1" xmlns="http://www.w3.org/2000/svg" xmlns:xlink="http://www.w3.org/1999/xlink" x="0px" y="0px"
	 viewBox="0 0 38 32" style="enable-background:new 0 0 38 32;" xml:space="preserve">
<style type="text/css">
	.st0{fill:#FFFFFF;}
</style>
<g id="Layer_2">
</g>
<g id="Layer_3">
	<path id="Gem_O_00000040543555270303941330000018412676031352635038_" class="st0" d="M34.7,16.1c0-0.5,0-1.1-0.1-1.6l0,0l0,0
		c-0.2-2.2-0.9-4.3-2-6.2l0,0l0,0c-1.1-1.9-2.6-3.6-4.4-4.9l0,0l0,0l0,0l0,0c-1.8-1.3-3.8-2.2-6-2.7l0,0l0,0c-2.1-0.5-4.4-0.5-6.5,0
		l0,0l0,0c-2.2,0.5-4.2,1.4-6,2.7l0,0l0,0C8,4.6,6.5,6.3,5.4,8.2l0,0l0,0c-1.1,1.9-1.8,4-2,6.2l0,0l0,0l0,0
		c-0.1,0.6-0.1,1.1-0.1,1.6c0,1.7,0.3,3.3,0.8,4.9l0,0l0,0c0.7,2.1,1.8,4,3.3,5.7l0,0l0,0c1.5,1.6,3.3,2.9,5.3,3.8l0,0l0,0
		c2,0.9,4.2,1.4,6.4,1.4s4.4-0.5,6.4-1.4l0,0l0,0c2-0.9,3.8-2.2,5.3-3.8l0,0l0,0c1.5-1.6,2.6-3.6,3.3-5.7l0,0l0,0
		C34.5,19.3,34.7,17.7,34.7,16.1z M34.1,14.1l-3.8-1.7l2.1-3.6C33.3,10.4,33.9,12.2,34.1,14.1z M26.7,16.1c0,4.2-3.4,7.7-7.7,7.7
		s-7.7-3.4-7.7-7.7s3.4-7.7,7.7-7.7S26.7,11.8,26.7,16.1z M7.2,16.1c0,0.2,0,0.5,0,0.7L4,14.5l3.5-1.6C7.3,13.9,7.2,15,7.2,16.1z
		 M8.5,21.5l-3.8-0.8l2.6-2.9C7.5,19.1,7.9,20.4,8.5,21.5z M30.7,17.8l2.6,2.9l-3.8,0.8C30.1,20.4,30.5,19.1,30.7,17.8z M30.4,12.9
		l3.5,1.6l-3.1,2.3c0-0.2,0-0.5,0-0.7C30.8,15,30.7,13.9,30.4,12.9z M30.1,11.9c-0.5-1.2-1.1-2.4-1.9-3.4H30h2L30.1,11.9z M28,6.2
		L28.3,4C29.8,5.1,31,6.5,32,8.1h-4.1L28,6.2z M27.6,5.9l-0.2,1.8c-0.9-0.9-2-1.7-3.1-2.3l1.5-0.7l2-0.9L27.6,5.9z M27.6,3.5l-2,0.9
		l-1.8,0.8L23.8,5l-1.2-3.8C24.4,1.7,26.1,2.4,27.6,3.5z M23.3,5c-1.2-0.5-2.5-0.7-3.8-0.8l2.6-2.9L23.3,5z M21.8,1L19,4.1L16.2,1
		C18,0.7,19.9,0.7,21.8,1z M15.9,1.3l2.6,2.9c-1.3,0.1-2.6,0.3-3.8,0.8L15.9,1.3z M15.4,1.2l-1.2,3.8l0,0.1l0,0l-3.8-1.7
		C11.9,2.4,13.6,1.7,15.4,1.2z M12.3,4.9l1.3,0.6c-1.2,0.6-2.2,1.4-3.1,2.3l-0.1-1.4l-0.3-2.5L12.3,4.9z M9.7,4l0.4,4.1H6
		C6.9,6.5,8.2,5.1,9.7,4z M9.9,8.5c-0.8,1-1.5,2.1-1.9,3.4L6,8.5H9.9z M5.6,8.8l2.1,3.6l0,0l-3.8,1.7C4.1,12.2,4.7,10.4,5.6,8.8z
		 M3.7,16.1c0-0.4,0-0.8,0-1.2L4,15l3.2,2.3l-2.8,3.1C3.9,19,3.7,17.5,3.7,16.1z M4.6,21.2L8.7,22L7.4,26
		C6.2,24.5,5.2,22.9,4.6,21.2z M7.8,26.1L9,22.4c0.7,1.1,1.6,2.1,2.6,2.9L7.8,26.1z M7.9,26.6l4.1-0.9l0.4,4.1
		C10.7,29,9.2,27.9,7.9,26.6z M12.5,25.9c1.1,0.7,2.3,1.2,3.5,1.6l-3.1,2.3L12.5,25.9z M13.2,30.2l3.4-2.4l0.3,0.6l1.7,3
		C16.7,31.3,14.9,30.9,13.2,30.2z M17.1,27.7c0.6,0.1,1.3,0.2,1.9,0.2c0.7,0,1.3-0.1,1.9-0.2l-2,3.4L17.1,27.7z M19.4,31.3l0.3-0.6
		l1.7-3l3.4,2.4C23.1,30.9,21.3,31.3,19.4,31.3z M25.1,29.8L22,27.5c1.3-0.3,2.5-0.9,3.5-1.6L25.1,29.8z M25.6,29.8l0.4-4.1l4.1,0.9
		C28.8,27.9,27.3,29,25.6,29.8z M26.4,25.3c1-0.8,1.9-1.8,2.6-2.9l1.2,3.7L26.4,25.3z M30.6,26L29.3,22l4.1-0.9
		C32.7,22.9,31.8,24.5,30.6,26z M33.6,20.4l-2.8-3.1l3.4-2.4c0,0.4,0,0.8,0,1.2C34.2,17.5,34,19,33.6,20.4z"/>
</g>
</svg>
