<?xml version="1.0" encoding="UTF-8"?>
<svg width="38px" height="32px" viewBox="0 0 256 212" version="1.1" xmlns="http://www.w3.org/2000/svg" xmlns:xlink="http://www.w3.org/1999/xlink">
    <title>O3DE-Circle-LogoMark-REV</title>
    <g id="O3DE-Circle-LogoMark-REV" stroke="none" stroke-width="1" fill="none" fill-rule="evenodd">
        <g id="Group-11" fill="#FFFFFF">
            <path d="M155.147944,9.94714991 C145.475121,9.94714991 136.13162,11.3374408 127.276424,13.8795479 L127.276424,53.3089755 C135.699283,49.2175945 145.154721,46.9188288 155.147944,46.9188288 C190.428399,46.9188288 219.028321,75.5187504 219.028321,110.799206 C219.028321,146.079662 190.428399,174.680395 155.147944,174.680395 C119.867488,174.680395 91.2675663,146.079662 91.2675663,110.799206 C91.2675663,102.402304 92.903632,94.3915028 95.8488748,87.0466465 L57.1356822,87.0466465 C55.2952096,94.6664787 54.2958874,102.614011 54.2958874,110.799206 C54.2958874,166.498444 99.4487061,211.651263 155.147944,211.651263 C210.847181,211.651263 256,166.498444 256,110.799206 C256,55.1007798 210.847181,9.94714991 155.147944,9.94714991" id="Fill-4"></path>
            <polygon id="Fill-6" points="113.138204 63.2767284 64.5202032 73.499503 54.2974285 24.8806908 102.916241 14.6587272"></polygon>
            <polygon id="Fill-8" points="25.1915189 19.8728858 45.0644047 19.8728858 45.0644047 0 25.1915189 0"></polygon>
            <polygon id="Fill-10" points="31.495685 66.8436274 0 58.7500905 8.09272577 27.2544056 39.5892219 35.3479425"></polygon>
        </g>
    </g>
</svg>