<?xml version="1.0"?>
<svg width="32" height="32" xmlns="http://www.w3.org/2000/svg" xmlns:svg="http://www.w3.org/2000/svg" enable-background="new 0 0 32 32" version="1.1" xml:space="preserve">
 <style type="text/css">.st0{fill:#1E70EB;}
	.st1{fill:#4B8DEF;}
	.st2{fill:#D2E2FB;}
	.st3{fill:#A5C6F7;}
	.st4{fill:#78A9F3;}
	.st5{fill:#FFFFFF;}</style>
 <g class="layer">
  <title>Layer 1</title>
  <g id="Layer_2_00000105401350261555836710000004394938160100456581_" transform="translate(-1 0) translate(-1 0) translate(-1 0) translate(-1 0)"/>
  <g id="svg_1" transform="translate(-0.125 0) translate(-0.125 0) matrix(1 0 0 1 -3.125 0)">
   <g id="Gem">
    <g id="svg_2">
     <g id="svg_3">
      <path class="st0" d="m29.6,21.9l0.8,2.3l0.8,2.3c1.5,-1.6 2.6,-3.5 3.3,-5.7l-2.4,0.5l-2.5,0.6z" id="svg_4"/>
      <path class="st0" d="m21.8,27.5l-1.2,2.1l-1.2,2.1c2.3,0 4.4,-0.5 6.4,-1.4l-2,-1.4l-2,-1.4z" id="svg_5"/>
      <path class="st0" d="m26.3,25.5l-0.3,2.4l-0.3,2.4c2,-0.9 3.8,-2.2 5.3,-3.8l-2.3,-0.5l-2.4,-0.5z" id="svg_6"/>
     </g>
     <g id="svg_7">
      <path class="st1" d="m9.2,21.9l-2.4,-0.5l-2.4,-0.5c0.7,2.1 1.8,4 3.3,5.7l0.8,-2.3l0.7,-2.4z" id="svg_8"/>
      <path class="st1" d="m31.1,17.3l1.6,1.8l1.6,1.8c0.5,-1.5 0.8,-3.2 0.8,-4.9c0,-0.6 0,-1.1 -0.1,-1.6l-2,1.4l-1.9,1.5z" id="svg_9"/>
      <path class="st1" d="m30.6,12.4l2.2,1l2.2,1c-0.2,-2.2 -0.9,-4.3 -2,-6.2l-1.2,2.1l-1.2,2.1z" id="svg_10"/>
      <path class="st1" d="m12.5,25.5l-2.4,0.5l-2.4,0.5c1.5,1.6 3.3,2.9 5.3,3.8l-0.3,-2.4l-0.2,-2.4z" id="svg_11"/>
      <path class="st1" d="m17,27.5l-2,1.4l-2,1.4c2,0.9 4.1,1.4 6.4,1.4c0,0 0,0 0,0l-1.2,-2.1l-1.2,-2.1z" id="svg_12"/>
      <path class="st1" d="m21.8,27.5l0,0l2,1.4l2,1.4l0.3,-2.4l0.3,-2.4l0,0c-1.4,1 -2.9,1.7 -4.6,2z" id="svg_13"/>
      <path class="st1" d="m29.6,21.9l0,0c-0.8,1.4 -1.9,2.7 -3.3,3.6l0,0l2.4,0.5l2.4,0.5c0,0 0,0 0,0l-0.8,-2.3l-0.7,-2.3z" id="svg_14"/>
     </g>
     <g id="svg_15">
      <path class="st2" d="m24.2,5.3l0,0l-0.8,-2.3l-0.8,-2.3l-1.6,1.8l-1.6,1.8l0,0c1.7,0 3.3,0.4 4.8,1z" id="svg_16"/>
      <path class="st2" d="m19.4,4.3l0,0l-1.6,-1.8l-1.6,-1.8l-0.8,2.3l-0.8,2.3l0,0c1.5,-0.6 3.1,-1 4.8,-1z" id="svg_17"/>
      <path class="st2" d="m10.7,8.2l0,0c1.1,-1.2 2.4,-2.2 3.9,-2.9l0,0l-2.2,-1l-2.2,-1c0,0 0,0 0,0l0.3,2.4l0.2,2.5z" id="svg_18"/>
      <path class="st2" d="m10.7,8.2l0,0l-2.4,0l-2.5,0l1.2,2.1l1.2,2.1l0,0c0.6,-1.6 1.4,-3 2.5,-4.2z" id="svg_19"/>
      <path class="st2" d="m3.8,14.4l2,1.4l2,1.4l0,0c0,-0.4 -0.1,-0.8 -0.1,-1.2c0,-1.3 0.2,-2.5 0.6,-3.6l0,0l-2.2,1l-2.3,1c0,0 0,0 0,0z" id="svg_20"/>
     </g>
     <g id="svg_21">
      <path class="st3" d="m10.7,8.2l0,0l0,0l-0.3,-2.4l-0.3,-2.4c-1.7,1.2 -3.2,2.9 -4.3,4.8l2.4,0l2.5,0z" id="svg_22"/>
      <path class="st3" d="m6,13.4l2.2,-1l0,0l0,0l-1.2,-2.1l-1.2,-2.1c-1.1,1.9 -1.8,4 -2,6.2l2.2,-1z" id="svg_23"/>
      <path class="st3" d="m14.6,5.3l0.8,-2.3l0.8,-2.3c-2.2,0.5 -4.2,1.4 -6,2.7l2.2,1l2.2,0.9z" id="svg_24"/>
      <path class="st3" d="m19.4,4.3l1.6,-1.8l1.6,-1.8c-1.1,-0.2 -2.1,-0.3 -3.3,-0.3c-1.1,0 -2.2,0.1 -3.3,0.3l1.6,1.8l1.8,1.8z" id="svg_25"/>
      <path class="st3" d="m30.6,12.4l0,0l1.2,-2.1l1.2,-2.1l-2.4,0l-2.4,0l0,0c1,1.2 1.8,2.6 2.4,4.2z" id="svg_26"/>
      <path class="st3" d="m24.2,5.3l0,0c1.5,0.7 2.8,1.7 3.9,2.9l0,0l0.3,-2.4l0.3,-2.4c0,0 0,0 0,0l-2.2,1l-2.3,0.9z" id="svg_27"/>
      <path class="st3" d="m7.7,17.3l0,0l-1.6,1.8l-1.6,1.8l2.4,0.5l2.4,0.5l0,0c-0.9,-1.4 -1.4,-3 -1.6,-4.6z" id="svg_28"/>
      <path class="st3" d="m12.5,25.5l0,0c-1.3,-1 -2.4,-2.2 -3.3,-3.6l0,0l-0.8,2.3l-0.8,2.3c0,0 0,0 0,0l2.4,-0.5l2.5,-0.5z" id="svg_29"/>
     </g>
     <g id="svg_30">
      <path class="st4" d="m7.7,17.3l-2,-1.4l-2,-1.4c-0.1,0.5 -0.1,1.1 -0.1,1.6c0,1.7 0.3,3.3 0.8,4.9l1.6,-1.8l1.7,-1.9z" id="svg_31"/>
      <path class="st4" d="m28.1,8.2l2.4,0l2.4,0c-1.1,-1.9 -2.6,-3.6 -4.4,-4.9l-0.3,2.4l-0.1,2.5z" id="svg_32"/>
      <path class="st4" d="m24.2,5.3l2.2,-1l2.2,-1c-1.7,-1.3 -3.8,-2.2 -6,-2.7l0.8,2.4l0.8,2.3z" id="svg_33"/>
      <path class="st4" d="m21.8,27.5l0,0c-0.8,0.2 -1.6,0.3 -2.4,0.3c-0.8,0 -1.7,-0.1 -2.4,-0.3l0,0l1.2,2.1l1.2,2.1l1.2,-2.1l1.2,-2.1z" id="svg_34"/>
      <path class="st4" d="m29.6,21.9l0,0l2.4,-0.5l2.4,-0.5l-1.6,-1.8l-1.6,-1.8l0,0c-0.3,1.6 -0.8,3.2 -1.6,4.6z" id="svg_35"/>
      <path class="st4" d="m31.1,16c0,0.4 0,0.8 -0.1,1.2l0,0l2,-1.4l2,-1.4c0,0 0,0 0,0l-2.2,-1l-2.2,-1l0,0c0.3,1.1 0.5,2.4 0.5,3.6z" id="svg_36"/>
      <path class="st4" d="m12.5,25.5l0,0l0.2,2.4l0.3,2.4l2,-1.4l2,-1.4l0,0c-1.7,-0.3 -3.2,-1 -4.5,-2z" id="svg_37"/>
     </g>
    </g>
   </g>
   <g id="Letters">
    <path class="st5" d="m19.4,4.3c-6.5,0 -11.7,5.2 -11.7,11.7s5.3,11.7 11.7,11.7s11.7,-5.2 11.7,-11.7s-5.2,-11.7 -11.7,-11.7zm0,19.3c-4.2,0 -7.6,-3.4 -7.6,-7.6s3.4,-7.6 7.6,-7.6s7.6,3.4 7.6,7.6s-3.4,7.6 -7.6,7.6z" id="svg_38"/>
   </g>
  </g>
 </g>
</svg>