<?xml version="1.0" encoding="utf-8"?>
<!-- Generator: Adobe Illustrator 26.2.1, SVG Export Plug-In . SVG Version: 6.00 Build 0)  -->
<svg version="1.1" id="Layer_1" xmlns="http://www.w3.org/2000/svg" xmlns:xlink="http://www.w3.org/1999/xlink" x="0px" y="0px"
	 viewBox="0 0 38 32" style="enable-background:new 0 0 38 32;" xml:space="preserve">
<style type="text/css">
	.st0{fill:#1E70EB;}
	.st1{fill:#4B8DEF;}
	.st2{fill:#D2E2FB;}
	.st3{fill:#A5C6F7;}
	.st4{fill:#78A9F3;}
	.st5{fill:#FFFFFF;}
</style>
<g id="Layer_2_00000105401350261555836710000004394938160100456581_">
</g>
<g>
	<g id="Gem">
		<g>
			<g>
				<path class="st0" d="M29.6,21.9l0.8,2.3l0.8,2.3c1.5-1.6,2.6-3.5,3.3-5.7l-2.4,0.5L29.6,21.9z"/>
				<path class="st0" d="M21.8,27.5l-1.2,2.1l-1.2,2.1c2.3,0,4.4-0.5,6.4-1.4l-2-1.4L21.8,27.5z"/>
				<path class="st0" d="M26.3,25.5L26,27.9l-0.3,2.4c2-0.9,3.8-2.2,5.3-3.8L28.7,26L26.3,25.5z"/>
			</g>
			<g>
				<path class="st1" d="M9.2,21.9l-2.4-0.5l-2.4-0.5c0.7,2.1,1.8,4,3.3,5.7l0.8-2.3L9.2,21.9z"/>
				<path class="st1" d="M31.1,17.3l1.6,1.8l1.6,1.8c0.5-1.5,0.8-3.2,0.8-4.9c0-0.6,0-1.1-0.1-1.6l-2,1.4L31.1,17.3z"/>
				<path class="st1" d="M30.6,12.4l2.2,1l2.2,1c-0.2-2.2-0.9-4.3-2-6.2l-1.2,2.1L30.6,12.4z"/>
				<path class="st1" d="M12.5,25.5L10.1,26l-2.4,0.5c1.5,1.6,3.3,2.9,5.3,3.8l-0.3-2.4L12.5,25.5z"/>
				<path class="st1" d="M17,27.5l-2,1.4l-2,1.4c2,0.9,4.1,1.4,6.4,1.4c0,0,0,0,0,0l-1.2-2.1L17,27.5z"/>
				<path class="st1" d="M21.8,27.5L21.8,27.5l2,1.4l2,1.4l0.3-2.4l0.3-2.4l0,0C25,26.5,23.5,27.2,21.8,27.5z"/>
				<path class="st1" d="M29.6,21.9L29.6,21.9c-0.8,1.4-1.9,2.7-3.3,3.6l0,0l2.4,0.5l2.4,0.5c0,0,0,0,0,0l-0.8-2.3L29.6,21.9z"/>
			</g>
			<g>
				<path class="st2" d="M24.2,5.3L24.2,5.3L23.4,3l-0.8-2.3L21,2.5l-1.6,1.8l0,0C21.1,4.3,22.7,4.7,24.2,5.3z"/>
				<path class="st2" d="M19.4,4.3L19.4,4.3l-1.6-1.8l-1.6-1.8L15.4,3l-0.8,2.3l0,0C16.1,4.7,17.7,4.3,19.4,4.3z"/>
				<path class="st2" d="M10.7,8.2L10.7,8.2C11.8,7,13.1,6,14.6,5.3l0,0l-2.2-1l-2.2-1c0,0,0,0,0,0l0.3,2.4L10.7,8.2z"/>
				<path class="st2" d="M10.7,8.2L10.7,8.2l-2.4,0H5.8L7,10.3l1.2,2.1l0,0C8.8,10.8,9.6,9.4,10.7,8.2z"/>
				<path class="st2" d="M3.8,14.4l2,1.4l2,1.4l0,0c0-0.4-0.1-0.8-0.1-1.2c0-1.3,0.2-2.5,0.6-3.6l0,0l-2.2,1L3.8,14.4
					C3.8,14.4,3.8,14.4,3.8,14.4z"/>
			</g>
			<g>
				<path class="st3" d="M10.7,8.2L10.7,8.2L10.7,8.2l-0.3-2.4l-0.3-2.4C8.4,4.6,6.9,6.3,5.8,8.2h2.4H10.7z"/>
				<path class="st3" d="M6,13.4l2.2-1l0,0l0,0L7,10.3L5.8,8.2c-1.1,1.9-1.8,4-2,6.2L6,13.4z"/>
				<path class="st3" d="M14.6,5.3L15.4,3l0.8-2.3c-2.2,0.5-4.2,1.4-6,2.7l2.2,1L14.6,5.3z"/>
				<path class="st3" d="M19.4,4.3L21,2.5l1.6-1.8c-1.1-0.2-2.1-0.3-3.3-0.3c-1.1,0-2.2,0.1-3.3,0.3l1.6,1.8L19.4,4.3z"/>
				<path class="st3" d="M30.6,12.4L30.6,12.4l1.2-2.1L33,8.2h-2.4h-2.4l0,0C29.2,9.4,30,10.8,30.6,12.4z"/>
				<path class="st3" d="M24.2,5.3L24.2,5.3C25.7,6,27,7,28.1,8.2h0l0.3-2.4l0.3-2.4c0,0,0,0,0,0l-2.2,1L24.2,5.3z"/>
				<path class="st3" d="M7.7,17.3L7.7,17.3l-1.6,1.8l-1.6,1.8l2.4,0.5l2.4,0.5l0,0C8.4,20.5,7.9,18.9,7.7,17.3z"/>
				<path class="st3" d="M12.5,25.5L12.5,25.5c-1.3-1-2.4-2.2-3.3-3.6l0,0l-0.8,2.3l-0.8,2.3c0,0,0,0,0,0l2.4-0.5L12.5,25.5z"/>
			</g>
			<g>
				<path class="st4" d="M7.7,17.3l-2-1.4l-2-1.4c-0.1,0.5-0.1,1.1-0.1,1.6c0,1.7,0.3,3.3,0.8,4.9l1.6-1.8L7.7,17.3z"/>
				<path class="st4" d="M28.1,8.2h2.4l2.4,0c-1.1-1.9-2.6-3.6-4.4-4.9l-0.3,2.4L28.1,8.2z"/>
				<path class="st4" d="M24.2,5.3l2.2-1l2.2-1c-1.7-1.3-3.8-2.2-6-2.7L23.4,3L24.2,5.3z"/>
				<path class="st4" d="M21.8,27.5L21.8,27.5c-0.8,0.2-1.6,0.3-2.4,0.3c-0.8,0-1.7-0.1-2.4-0.3l0,0l1.2,2.1l1.2,2.1l1.2-2.1
					L21.8,27.5z"/>
				<path class="st4" d="M29.6,21.9L29.6,21.9l2.4-0.5l2.4-0.5l-1.6-1.8l-1.6-1.8l0,0C30.9,18.9,30.4,20.5,29.6,21.9z"/>
				<path class="st4" d="M31.1,16c0,0.4,0,0.8-0.1,1.2l0,0l2-1.4l2-1.4c0,0,0,0,0,0l-2.2-1l-2.2-1l0,0C30.9,13.5,31.1,14.8,31.1,16z
					"/>
				<path class="st4" d="M12.5,25.5L12.5,25.5l0.2,2.4l0.3,2.4l2-1.4l2-1.4l0,0C15.3,27.2,13.8,26.5,12.5,25.5z"/>
			</g>
		</g>
	</g>
	<g id="Letters">
		<path class="st5" d="M19.4,4.3C12.9,4.3,7.7,9.5,7.7,16s5.3,11.7,11.7,11.7S31.1,22.5,31.1,16S25.9,4.3,19.4,4.3z M19.4,23.6
			c-4.2,0-7.6-3.4-7.6-7.6s3.4-7.6,7.6-7.6S27,11.8,27,16S23.6,23.6,19.4,23.6z"/>
	</g>
</g>
</svg>
