<svg width="38" height="32" viewBox="0 0 38 32" fill="none" xmlns="http://www.w3.org/2000/svg">
<path fill-rule="evenodd" clip-rule="evenodd" d="M33.0335 27.6364C30.2006 30.4503 26.4498 32 22.4729 32H22.4719L22.4007 31.9999C18.3948 31.9813 14.6226 30.396 11.7792 27.5358C7.98134 23.7148 6.67845 18.3374 7.86239 13.445H13.291C12.8522 14.5772 12.6238 15.7937 12.6313 17.0465C12.6466 19.6692 13.682 22.1248 15.5465 23.9605C17.4134 25.7987 19.8692 26.811 22.462 26.811L22.4897 26.8108C25.0998 26.8025 27.555 25.7736 29.4067 23.9136C31.2794 22.0326 32.3023 19.5505 32.2872 16.9246C32.2718 14.2963 31.2187 11.8234 29.3215 9.96131C27.4791 8.153 25.0581 7.16098 22.4942 7.16098C22.4558 7.16098 22.4177 7.16127 22.379 7.16171C20.9514 7.17701 19.5695 7.49947 18.3061 8.09355V2.5551C19.6438 2.16896 21.0401 1.96569 22.4658 1.96569L22.5394 1.96598C26.5556 1.98507 30.3331 3.58486 33.1758 6.47058C35.976 9.31332 37.5035 13.0777 37.4771 17.0703C37.4508 21.0641 35.8727 24.8164 33.0335 27.6364ZM1.73437 2.98423H4.71974V0H1.73437V2.98423ZM0 11.9513H4.68388V7.26925H0V11.9513ZM7.65831 10.0451H14.8796V2.82656H7.65831V10.0451Z" fill="white"/>
</svg>
