<?xml version="1.0" encoding="UTF-8"?>
<svg width="256px" height="256px" viewBox="0 0 256 256" version="1.1" xmlns="http://www.w3.org/2000/svg" xmlns:xlink="http://www.w3.org/1999/xlink">
    <title>AssetBundler-Icon-256x256@x2 Copy</title>
    <defs>
        <polygon id="path-1" points="0 0 256 0 256 256 0 256"></polygon>
        <polygon id="path-3" points="0 0 109.298894 0 109.298894 95.0955966 0 95.0955966"></polygon>
    </defs>
    <g id="Page-1" stroke="none" stroke-width="1" fill="none" fill-rule="evenodd">
        <g id="00-Icon-Mockup-1" transform="translate(-168.000000, -244.000000)">
            <g id="AssetBundler-Icon-256x256@x2-Copy" transform="translate(168.000500, 244.000100)">
                <g id="Group-3">
                    <mask id="mask-2" fill="white">
                        <use xlink:href="#path-1"></use>
                    </mask>
                    <g id="Clip-2"></g>
                    <path d="M184.641349,0 L71.3589754,0 C32.1115389,0 0,32.1115064 0,71.3589031 L0,184.641162 C0,223.888558 32.1115389,256.000065 71.3589754,256.000065 L184.641349,256.000065 C223.888785,256.000065 256.000324,223.888558 256.000324,184.641162 L256.000324,71.3589031 C256.000324,32.1115064 223.888785,0 184.641349,0" id="Fill-1" fill="#1E70EB" mask="url(#mask-2)"></path>
                </g>
                <g id="Group-9" transform="translate(60.979488, 44.112776)">
                    <polygon id="Fill-1" fill="#FFFFFF" points="0 0 0 129.425647 0.000652930917 129.425647 0.000652930917 162.828043 134.86484 162.828043 134.86484 123.851197 134.864187 123.851197 134.864187 44.1675032 90.6052646 0"></polygon>
                    <polygon id="Fill-2" fill="#1E70EB" points="18.647707 65.453043 116.21648 65.453043 116.21648 39.0670926 18.647707 39.0670926"></polygon>
                    <polygon id="Fill-3" fill="#1E70EB" points="18.647707 105.062594 116.21648 105.062594 116.21648 78.6766434 18.647707 78.6766434"></polygon>
                    <polygon id="Fill-4" fill="#1E70EB" points="18.647707 144.671493 116.21648 144.671493 116.21648 118.286194 18.647707 118.286194"></polygon>
                    <g id="Group" transform="translate(61.313929, 47.017579)">
                        <polygon id="Fill-5" fill="#FEFEFE" points="106.983144 74.171435 74.6767755 47.0921807 91.9428807 26.5771596 2.31505368 2.31152047 41.7455518 86.2208496 59.011657 65.7058286 91.3180258 92.7844313"></polygon>
                        <g id="Group-8" transform="translate(-0.000000, 0.000000)">
                            <mask id="mask-4" fill="white">
                                <use xlink:href="#path-3"></use>
                            </mask>
                            <g id="Clip-7"></g>
                            <path d="M59.0125058,63.3951846 C59.5381152,63.3951846 60.0663363,63.5724202 60.4998824,63.9366654 L91.0341968,89.5289652 L103.721297,74.4548165 L73.1882889,48.8612135 C72.7175257,48.4676462 72.4237068,47.9033593 72.3701665,47.2928088 C72.3166262,46.6829098 72.5092408,46.0762688 72.9036111,45.6064641 L87.8387529,27.8607494 L6.53448915,5.84769654 L42.3033507,81.9658268 L57.2384925,64.220112 C57.6961971,63.6760248 58.3523926,63.3951846 59.0125058,63.3951846 M91.3169159,95.0955966 C90.7913065,95.0955966 90.2624324,94.9177094 89.8288863,94.5541158 L59.2952249,68.9611644 L43.5184551,87.7070874 C43.0104749,88.3098188 42.2269578,88.6160715 41.4453994,88.5118153 C40.6625353,88.4095138 39.984793,87.9162515 39.6498394,87.2014447 L0.219341317,3.29211554 C-0.163929132,2.47761368 -0.0379134647,1.51454669 0.542542121,0.825152328 C1.12234478,0.13575796 2.05342426,-0.155507902 2.92116945,0.0810234361 L92.5483436,24.3473142 C93.3109669,24.5538719 93.9162338,25.1344488 94.1519419,25.8870485 C94.3889558,26.6389966 94.2237643,27.4600145 93.7151311,28.0633974 L77.9390143,46.8093205 L108.472676,72.4022718 C108.942786,72.7964907 109.236605,73.3607776 109.290798,73.9713282 C109.343686,74.5818788 109.151071,75.1891714 108.756701,75.6570212 L93.0902762,94.2706691 C92.6325717,94.815408 91.977029,95.0955966 91.3169159,95.0955966" id="Fill-6" fill="#1E70EB" mask="url(#mask-4)"></path>
                        </g>
                    </g>
                </g>
            </g>
        </g>
    </g>
</svg>