<svg width="15" height="12" viewBox="0 0 15 12" fill="none" xmlns="http://www.w3.org/2000/svg">
<path d="M13.046 5.85448C13.046 5.869 13.0436 5.66561 13.0436 5.68014H14.5278L12.3341 8.22252L10.1114 5.68014H11.6481C11.6481 5.66561 11.6513 5.869 11.6513 5.85448C11.6513 3.42833 9.77724 1.46707 7.46731 1.46707C6.42131 1.46707 5.46247 1.87385 4.73608 2.54213L3.8063 1.43801C4.79419 0.537286 6.07264 -0.000244141 7.46731 -0.000244141C10.5472 -0.000244141 13.046 2.6293 13.046 5.85448Z" fill="white"/>
<path d="M1.48184 6.14503C1.48184 6.13051 1.48428 6.3339 1.48428 6.31937H0L2.1937 3.777L4.41646 6.31937H2.87975C2.87975 6.3339 2.87651 6.13051 2.87651 6.14503C2.87651 8.57118 4.7506 10.5324 7.06053 10.5324C8.10654 10.5324 9.06537 10.1257 9.79177 9.45738L10.7215 10.5615C9.73366 11.4622 8.4552 11.9998 7.06053 11.9998C3.98063 11.9998 1.48184 9.37022 1.48184 6.14503Z" fill="white"/>
</svg>
