<?xml version="1.0" encoding="UTF-8"?>
<svg width="64px" height="65px" viewBox="0 0 64 65" version="1.1" xmlns="http://www.w3.org/2000/svg" xmlns:xlink="http://www.w3.org/1999/xlink">
    <title>Group 3</title>
    <defs>
        <filter id="filter-1">
            <feColorMatrix in="SourceGraphic" type="matrix" values="0 0 0 0 1.000000 0 0 0 0 1.000000 0 0 0 0 1.000000 0 0 0 1.000000 0"></feColorMatrix>
        </filter>
        <polygon id="path-2" points="1.94370861e-15 0 64 0 64 64.6130835 1.94370861e-15 64.6130835"></polygon>
    </defs>
    <g id="Page-1" stroke="none" stroke-width="1" fill="none" fill-rule="evenodd">
        <g filter="url(#filter-1)" id="Group-3">
            <g>
                <mask id="mask-3" fill="white">
                    <use xlink:href="#path-2"></use>
                </mask>
                <g id="Clip-2"></g>
                <path d="M55.8324051,41.8027981 C54.037587,41.8027981 52.5825994,40.3478106 52.5825994,38.5529924 C52.5825994,36.7581743 54.037587,35.3031867 55.8324051,35.3031867 C57.6272233,35.3031867 59.0822108,36.7581743 59.0822108,38.5529924 C59.0822108,40.3478106 57.6272233,41.8027981 55.8324051,41.8027981 M49.7226454,47.9125579 C47.9278273,47.9125579 46.4728397,46.4575703 46.4728397,44.6627522 C46.4728397,42.8682467 47.9278273,41.4132591 49.7226454,41.4132591 C51.5174635,41.4132591 52.9724511,42.8682467 52.9724511,44.6627522 C52.9724511,46.4575703 51.5174635,47.9125579 49.7226454,47.9125579 M43.612573,41.8027981 C41.8177549,41.8027981 40.3627673,40.3478106 40.3627673,38.5529924 C40.3627673,36.7581743 41.8177549,35.3031867 43.612573,35.3031867 C45.4073911,35.3031867 46.8623787,36.7581743 46.8623787,38.5529924 C46.8623787,40.3478106 45.4073911,41.8027981 43.612573,41.8027981 M49.7226454,29.193427 C51.5174635,29.193427 52.9724511,30.6484145 52.9724511,32.4432327 C52.9724511,34.2380508 51.5174635,35.6930384 49.7226454,35.6930384 C47.9278273,35.6930384 46.4728397,34.2380508 46.4728397,32.4432327 C46.4728397,30.6484145 47.9278273,29.193427 49.7226454,29.193427 M19.6315393,40.1164632 L15.6029683,40.1164632 L15.6029683,44.1447216 C15.6029683,45.0082101 14.9029861,45.7078797 14.0398102,45.7078797 C13.1763216,45.7078797 12.4766521,45.0082101 12.4766521,44.1447216 L12.4766521,40.1164632 L8.44776837,40.1164632 C7.58459247,40.1164632 6.88461027,39.416481 6.88461027,38.5533051 C6.88461027,37.6898165 7.58459247,36.990147 8.44776837,36.990147 L12.4766521,36.990147 L12.4766521,32.9612633 C12.4766521,32.0977747 13.1763216,31.3981052 14.0398102,31.3981052 C14.9029861,31.3981052 15.6029683,32.0977747 15.6029683,32.9612633 L15.6029683,36.990147 L19.6315393,36.990147 C20.4947152,36.990147 21.1946974,37.6898165 21.1946974,38.5533051 C21.1946974,39.416481 20.4947152,40.1164632 19.6315393,40.1164632 M62.3507744,34.6169603 C59.1509898,22.8341872 52.3646952,16.5984369 47.1931429,20.6892217 C46.7926618,21.0062301 46.4159407,21.3817007 46.0586028,21.7993765 C44.4282289,22.9051546 39.5658693,25.8629623 33.6118001,26.3297213 C33.6077359,26.2865782 33.6021085,26.2440603 33.5983569,26.2009171 C33.5661559,25.8385771 33.5464601,25.4743612 33.5367685,25.1113959 C33.5220748,24.3864032 33.549899,23.6635989 33.6480654,22.9714325 C33.8331433,21.5892881 34.3008402,20.2962437 35.1380677,19.5528057 C35.5538677,19.1785857 36.0556415,18.9087846 36.6587079,18.7793551 C36.8131479,18.7559077 36.9635237,18.7215182 37.1214027,18.7008846 L37.6100459,18.6627435 L38.8577587,18.6011551 C40.5215842,18.4761024 42.2041676,18.1728497 43.8195351,17.570096 C44.0230583,17.5022549 44.221892,17.4165939 44.4191626,17.3262433 C44.6161205,17.2358928 44.8162047,17.1552338 45.0097237,17.0561296 C45.3942606,16.8507306 45.780048,16.6515843 46.1420754,16.4027295 C46.8717576,15.9244031 47.5589219,15.3638546 48.1397915,14.7079535 C49.3196632,13.4086565 50.1171865,11.8301794 50.5861339,10.2235655 C51.0713382,8.6135127 51.2686087,6.97188406 51.3586467,5.3537028 C51.4439951,3.73364574 51.4067919,2.128595 51.3645867,0.540739004 C51.3564582,0.248115808 51.1204214,0.00801472358 50.8240466,0 C50.517355,-0.00792948905 50.2622476,0.234047385 50.2541191,0.540739004 C50.2125391,2.12703184 50.1643939,3.70050679 50.0005749,5.24647015 C49.833317,6.78899456 49.5613275,8.31182318 49.0517379,9.72147916 C48.5568421,11.1348867 47.8021493,12.416989 46.788285,13.4208491 C46.2886997,13.930126 45.7081428,14.3503029 45.0925711,14.709204 C44.7896311,14.896783 44.4598047,15.0421567 44.136231,15.1956588 C43.9727246,15.2691273 43.7995267,15.3266515 43.6322688,15.393242 C43.4650109,15.4601452 43.2958772,15.5232968 43.1192403,15.5708168 C41.7311559,16.0056874 40.2458431,16.2013947 38.7414597,16.2335958 L37.6084827,16.229219 L36.9081879,16.2451632 C36.6712131,16.2620453 36.4301742,16.2979979 36.1913236,16.3270727 C35.230294,16.4758853 34.2448791,16.8995012 33.4476685,17.5478991 C32.6385779,18.191295 32.0573957,19.0335246 31.6478483,19.8851331 C31.231423,20.7420564 30.9831934,21.6227397 30.8137471,22.4937314 C30.6430502,23.3665989 30.565205,24.2332137 30.5364429,25.0948264 C30.5251881,25.509376 30.526126,25.9229876 30.5395692,26.3369119 C24.3216389,25.8735918 19.2792035,22.6794345 17.8401601,21.6812018 C17.5128348,21.3110459 17.1695653,20.9762175 16.8066,20.6892217 C11.6353604,16.5984369 4.84906579,22.8341872 1.64928116,34.6169603 C-1.5508161,46.3994208 0.0473567405,59.2676509 5.21859637,63.3581231 C10.0093633,67.1481562 16.1841504,62.0710187 19.6115309,51.9355016 C22.6653166,51.4518604 28.2564205,50.6574635 32.0358241,50.6574635 C35.9612267,50.6574635 41.3660022,51.4281004 44.3807089,51.9133047 C47.8065262,62.0638282 53.9869407,67.1506572 58.7811466,63.3581231 C63.9526988,59.2676509 65.5508717,46.3994208 62.3507744,34.6169603" id="Fill-1" fill="#FFFFFF" mask="url(#mask-3)"></path>
            </g>
        </g>
    </g>
</svg>