<svg width="24" height="24" viewBox="0 0 24 24" fill="none" xmlns="http://www.w3.org/2000/svg">
<path fill-rule="evenodd" clip-rule="evenodd" d="M20.5714 6.7619H16.7619C16.7619 4.13333 14.6286 2 12 2C9.37145 2 7.23811 4.13333 7.23811 6.7619H3.42859V22H20.5714V6.7619ZM12 3.90476C13.581 3.90476 14.8572 5.18095 14.8572 6.7619H9.14287C9.14287 5.18095 10.4191 3.90476 12 3.90476ZM13.7997 11.7424L12.0288 9.24095H11.9712L10.2003 11.7424H13.7997ZM5.00002 12.4335L10.9158 19.4063L9.03253 12.4335H5.00002ZM10.14 12.4335L11.9356 19.5147C11.9548 19.5189 11.974 19.521 11.9959 19.521C12.0178 19.521 12.0398 19.5189 12.0617 19.5147L13.86 12.4335H10.14ZM14.9675 12.4335H18.8547H19L13.0842 19.398L14.9675 12.4335ZM8.26457 9.24095H11.075L9.52787 11.4253L8.26457 9.24095ZM8.83789 11.7424L7.5193 9.46191L5.01921 11.7424H5.14804H8.83789ZM18.9808 11.7424H18.8547H15.1512L16.4286 9.41397L18.9808 11.7424ZM15.6558 9.24095H12.9252L14.4647 11.4146L15.6558 9.24095Z" fill="white"/>
</svg>
