<svg width="16" height="16" viewBox="0 0 16 16" fill="none" xmlns="http://www.w3.org/2000/svg">
<path d="M10.9409 5.10544C9.75061 4.36848 8.76688 4 7.98967 4C6.59117 4 4.53023 5.19308 1.80685 7.57925L1.3335 8C2.76663 9.29153 4.02611 10.2703 5.11193 10.9363L5.90291 10.1451C5.34589 9.60045 5.00016 8.8406 5.00016 8C5.00016 6.34315 6.34331 5 8.00016 5C8.84076 5 9.60061 5.34573 10.1453 5.90275L10.9409 5.10544Z" fill="white"/>
<path d="M14.1913 8.42071L14.6669 7.99997C13.7248 7.15495 12.8577 6.44382 12.0657 5.86658L10.8557 7.07747C10.9495 7.3681 11.0002 7.67812 11.0002 7.99997C11.0002 9.65682 9.65704 11 8.00018 11C7.67833 11 7.36831 10.9493 7.07768 10.8555L6.34326 11.5905C6.96786 11.8635 7.51667 12 7.98969 12C9.3882 12 11.4554 10.8069 14.1913 8.42071Z" fill="white"/>
<path d="M5.05963 5.10544C6.24988 4.36848 7.23361 4 8.01081 4C9.40932 4 11.4703 5.19308 14.1936 7.57925L14.6669 7.99997C13.2337 9.2915 11.9744 10.2703 10.8886 10.9363L10.0976 10.1451C10.6546 9.60045 11.0002 8.84057 11.0002 7.99997C11.0002 6.34312 9.65702 5 8.00016 5C7.15956 5 6.39987 5.34573 5.85521 5.90275L5.05963 5.10544Z" fill="white"/>
<path d="M1.8092 8.42071L1.3335 8C2.27559 7.15498 3.14279 6.44382 3.9348 5.86658L5.14481 7.07747C5.05099 7.3681 5.00016 7.67815 5.00016 8C5.00016 9.65685 6.34333 11 8.00018 11C8.32204 11 8.63218 10.9493 8.92281 10.8555L9.65723 11.5905C9.03263 11.8635 8.48382 12 8.01079 12C6.61229 12 4.5451 10.8069 1.8092 8.42071Z" fill="white"/>
<path d="M7.99487 10.0001C6.88747 10.0001 5.98975 9.10462 5.98975 8.00005C5.98975 6.89548 6.88747 6 7.99487 6L8.00013 6.00003L8.00472 6.00003C9.11212 6.00003 10.0105 6.89543 10.0105 8C10.0105 9.10457 9.1128 10.0001 8.0054 10.0001L8.00013 10L7.99487 10.0001Z" fill="white"/>
</svg>
