<?xml version="1.0" encoding="UTF-8" standalone="no"?>
<svg
   width="25"
   height="25"
   viewBox="0 0 25 25"
   fill="none"
   version="1.1"
   id="svg2798"
   sodipodi:docname="Mesh.svg"
   inkscape:version="1.2 (dc2aedaf03, 2022-05-15)"
   xmlns:inkscape="http://www.inkscape.org/namespaces/inkscape"
   xmlns:sodipodi="http://sodipodi.sourceforge.net/DTD/sodipodi-0.dtd"
   xmlns="http://www.w3.org/2000/svg"
   xmlns:svg="http://www.w3.org/2000/svg">
  <defs
     id="defs2802" />
  <sodipodi:namedview
     id="namedview2800"
     pagecolor="#ffffff"
     bordercolor="#000000"
     borderopacity="0.25"
     inkscape:showpageshadow="2"
     inkscape:pageopacity="0.0"
     inkscape:pagecheckerboard="0"
     inkscape:deskcolor="#d1d1d1"
     showgrid="false"
     inkscape:zoom="17.24"
     inkscape:cx="2.8132251"
     inkscape:cy="18.416473"
     inkscape:window-width="1920"
     inkscape:window-height="1018"
     inkscape:window-x="2553"
     inkscape:window-y="-6"
     inkscape:window-maximized="1"
     inkscape:current-layer="Components / Rendering / StaticMesh" />
  <g
     id="Components / Rendering / StaticMesh">
    <path
       id="Combined Shape"
       fill-rule="evenodd"
       clip-rule="evenodd"
       d="M12.1528 2.2453C14.5221 2.2453 16.604 3.266 18.3773 4.95233C18.9909 5.53593 19.5238 6.15989 19.9748 6.78447C20.2475 7.16209 20.4344 7.45964 20.5336 7.63762L20.7882 8.09424L20.3591 8.39282C20.313 8.42485 20.2152 8.50331 20.0826 8.62835C19.8533 8.8445 19.6223 9.10798 19.4061 9.41877C18.785 10.3115 18.4124 11.3996 18.4124 12.6998C18.4124 13.4415 18.5331 14.0828 18.7505 14.6345L18.7557 14.637V14.6474C18.9153 15.0485 19.1263 15.4019 19.3794 15.7118C19.7322 16.1438 20.0767 16.3954 20.2804 16.4938L20.8318 16.7601L20.5336 17.2949C20.4344 17.4729 20.2475 17.7705 19.9748 18.1481C19.5238 18.7727 18.9909 19.3966 18.3773 19.9802C16.604 21.6665 14.5221 22.6873 12.1528 22.6873C9.78352 22.6873 7.70164 21.6665 5.92839 19.9802C5.3147 19.3966 4.78188 18.7727 4.33083 18.1481C4.05811 17.7705 3.87123 17.4729 3.772 17.2949L3.44678 16.7116L4.07101 16.474C4.26075 16.4018 4.59148 16.1885 4.93386 15.7863C5.52993 15.0862 5.89325 14.0825 5.89325 12.694C5.89325 11.2934 5.52149 10.1892 4.9057 9.33812C4.54518 8.83984 4.19364 8.54006 3.98365 8.41657L3.49722 8.13051L3.772 7.63762C3.87123 7.45964 4.05811 7.16209 4.33083 6.78447C4.78188 6.15989 5.3147 5.53593 5.92839 4.95233C7.70164 3.266 9.78352 2.2453 12.1528 2.2453ZM17.5443 14.6841C17.6993 15.1781 17.9136 15.625 18.1782 16.0256V16.7965L16.2742 17.734L14.5358 16.878V14.9148L16.2742 14.0587L17.5443 14.6841ZM17.4441 11.0377C17.3224 11.558 17.2575 12.1121 17.2575 12.6998C17.2575 13.0789 17.2846 13.4393 17.3367 13.7813L16.7583 13.4392V11.4432L17.4441 11.0377ZM18.1782 9.19649C18.0096 9.48402 17.8613 9.78655 17.7357 10.104L16.2742 10.8237L14.5358 9.96762V8.00441L16.2742 7.14836L18.1782 8.08593V9.19649ZM18.7557 8.36191C18.935 8.1397 19.1105 7.9518 19.2733 7.79746C19.2465 7.75751 19.218 7.7156 19.1878 7.67184L18.7557 7.88463V8.36191ZM16.7583 5.08006C17.0395 5.29801 17.3139 5.53486 17.5814 5.78923C18.0564 6.24098 18.4798 6.72112 18.8489 7.20514L18.4967 7.36848L16.7583 6.51244V5.08006ZM15.9391 4.51173C15.9645 4.52737 15.9899 4.54315 16.0153 4.55909V6.51244L14.2768 7.36848L12.5384 6.51244V4.54922L14.2231 3.71963C14.3436 3.75762 14.4631 3.79887 14.5817 3.8433L15.9391 4.51173ZM13.3512 3.50532C12.9607 3.43601 12.5612 3.40021 12.1528 3.40021C11.7517 3.40021 11.3591 3.43475 10.9752 3.50168L12.1669 4.08849L13.3512 3.50532ZM9.8331 3.8034C9.92146 3.77191 10.0103 3.74218 10.0997 3.71424L11.7954 4.54922V6.51244L10.0569 7.36848L8.31851 6.51244V4.54922L9.8331 3.8034ZM5.49313 7.15766C5.85362 6.68975 6.26477 6.2262 6.72426 5.78923C7.00067 5.52638 7.28445 5.28224 7.57551 5.05834V6.51244L5.83708 7.36848L5.49313 7.15766ZM5.12498 7.6615C5.0978 7.70076 5.07199 7.73856 5.04755 7.77482C5.14598 7.86134 5.2484 7.95954 5.35304 8.06985V7.77381L5.12498 7.6615ZM6.66112 10.2459C6.47605 9.70983 6.22918 9.22408 5.9305 8.78774V8.08593L7.83448 7.14836L9.57292 8.00441V9.96762L7.83448 10.8237L6.66112 10.2459ZM6.98006 13.7555C7.02492 13.4212 7.04816 13.0675 7.04816 12.694C7.04816 12.1175 6.993 11.5788 6.88895 11.0773L7.57551 11.451V13.4314L6.98006 13.7555ZM5.9305 16.3914C6.32745 15.8847 6.63201 15.2749 6.82222 14.5572L7.83448 14.0587L9.57292 14.9148V16.878L7.83448 17.734L5.9305 16.7965V16.3914ZM5.35304 17.0032C5.2627 17.0821 5.17363 17.1527 5.08684 17.2156C5.09091 17.2216 5.09502 17.2276 5.09917 17.2336L5.35304 17.1086V17.0032ZM7.57551 19.8742C7.28445 19.6503 7.00067 19.4062 6.72426 19.1433C6.23134 18.6746 5.79406 18.1752 5.41527 17.6727L5.83708 17.5139L7.57551 18.37V19.8742ZM10.9006 21.4174C11.3082 21.4932 11.7257 21.5323 12.1528 21.5323C12.5871 21.5323 13.0114 21.4919 13.4254 21.4136L12.1669 20.7939L10.9006 21.4174ZM18.9192 17.6343C18.5338 18.1497 18.0869 18.6626 17.5814 19.1433C17.3139 19.3977 17.0395 19.6345 16.7583 19.8525V18.37L18.4967 17.5139L18.9192 17.6343ZM19.2136 17.2232L18.7557 16.9978V16.7493C18.9206 16.9221 19.0833 17.0678 19.2373 17.1884C19.2295 17.1999 19.2216 17.2115 19.2136 17.2232ZM14.2768 17.5139L16.0153 18.37V20.3332L14.2768 21.1892L12.5384 20.3332V18.37L14.2768 17.5139ZM11.7954 18.37V20.3332L10.0569 21.1892L8.31851 20.3332V18.37L10.0569 17.5139L11.7954 18.37ZM12.0544 14.0587L13.7928 14.9148V16.878L12.0544 17.734L10.3159 16.878V14.9148L12.0544 14.0587ZM13.7928 8.00441V9.96762L12.0544 10.8237L10.3159 9.96762V8.00441L12.0544 7.14836L13.7928 8.00441ZM8.31851 11.4596V13.4228L10.0569 14.2789L11.7954 13.4228V11.4596L10.0569 10.6035L8.31851 11.4596ZM16.0153 13.4228V11.4596L14.2768 10.6035L12.5384 11.4596V13.4228L14.2768 14.2789L16.0153 13.4228Z"
       fill="#B29EDF" />
    <mask
       id="mask0_651_48958"
       maskUnits="userSpaceOnUse"
       x="3"
       y="2"
       width="18"
       height="21"
       style="mask-type:alpha">
      <path
         id="Combined Shape_2"
         fill-rule="evenodd"
         clip-rule="evenodd"
         d="M12.1528 2.2453C14.5221 2.2453 16.604 3.266 18.3773 4.95233C18.9909 5.53593 19.5238 6.15989 19.9748 6.78447C20.2475 7.16209 20.4344 7.45964 20.5336 7.63762L20.7882 8.09424L20.3591 8.39282C20.313 8.42485 20.2152 8.50331 20.0826 8.62835C19.8533 8.8445 19.6223 9.10798 19.4061 9.41877C18.785 10.3115 18.4124 11.3996 18.4124 12.6998C18.4124 13.4415 18.5331 14.0828 18.7505 14.6345L18.7557 14.637V14.6474C18.9153 15.0485 19.1263 15.4019 19.3794 15.7118C19.7322 16.1438 20.0767 16.3954 20.2804 16.4938L20.8318 16.7601L20.5336 17.2949C20.4344 17.4729 20.2475 17.7705 19.9748 18.1481C19.5238 18.7727 18.9909 19.3966 18.3773 19.9802C16.604 21.6665 14.5221 22.6873 12.1528 22.6873C9.78352 22.6873 7.70164 21.6665 5.92839 19.9802C5.3147 19.3966 4.78188 18.7727 4.33083 18.1481C4.05811 17.7705 3.87123 17.4729 3.772 17.2949L3.44678 16.7116L4.07101 16.474C4.26075 16.4018 4.59148 16.1885 4.93386 15.7863C5.52993 15.0862 5.89325 14.0825 5.89325 12.694C5.89325 11.2934 5.52149 10.1892 4.9057 9.33812C4.54518 8.83984 4.19364 8.54006 3.98365 8.41657L3.49722 8.13051L3.772 7.63762C3.87123 7.45964 4.05811 7.16209 4.33083 6.78447C4.78188 6.15989 5.3147 5.53593 5.92839 4.95233C7.70164 3.266 9.78352 2.2453 12.1528 2.2453ZM17.5443 14.6841C17.6993 15.1781 17.9136 15.625 18.1782 16.0256V16.7965L16.2742 17.734L14.5358 16.878V14.9148L16.2742 14.0587L17.5443 14.6841ZM17.4441 11.0377C17.3224 11.558 17.2575 12.1121 17.2575 12.6998C17.2575 13.0789 17.2846 13.4393 17.3367 13.7813L16.7583 13.4392V11.4432L17.4441 11.0377ZM18.1782 9.19649C18.0096 9.48402 17.8613 9.78655 17.7357 10.104L16.2742 10.8237L14.5358 9.96762V8.00441L16.2742 7.14836L18.1782 8.08593V9.19649ZM18.7557 8.36191C18.935 8.1397 19.1105 7.9518 19.2733 7.79746C19.2465 7.75751 19.218 7.7156 19.1878 7.67184L18.7557 7.88463V8.36191ZM16.7583 5.08006C17.0395 5.29801 17.3139 5.53486 17.5814 5.78923C18.0564 6.24098 18.4798 6.72112 18.8489 7.20514L18.4967 7.36848L16.7583 6.51244V5.08006ZM15.9391 4.51173C15.9645 4.52737 15.9899 4.54315 16.0153 4.55909V6.51244L14.2768 7.36848L12.5384 6.51244V4.54922L14.2231 3.71963C14.3436 3.75762 14.4631 3.79887 14.5817 3.8433L15.9391 4.51173ZM13.3512 3.50532C12.9607 3.43601 12.5612 3.40021 12.1528 3.40021C11.7517 3.40021 11.3591 3.43475 10.9752 3.50168L12.1669 4.08849L13.3512 3.50532ZM9.8331 3.8034C9.92146 3.77191 10.0103 3.74218 10.0997 3.71424L11.7954 4.54922V6.51244L10.0569 7.36848L8.31851 6.51244V4.54922L9.8331 3.8034ZM5.49313 7.15766C5.85362 6.68975 6.26477 6.2262 6.72426 5.78923C7.00067 5.52638 7.28445 5.28224 7.57551 5.05834V6.51244L5.83708 7.36848L5.49313 7.15766ZM5.12498 7.6615C5.0978 7.70076 5.07199 7.73856 5.04755 7.77482C5.14598 7.86134 5.2484 7.95954 5.35304 8.06985V7.77381L5.12498 7.6615ZM6.66112 10.2459C6.47605 9.70983 6.22918 9.22408 5.9305 8.78774V8.08593L7.83448 7.14836L9.57292 8.00441V9.96762L7.83448 10.8237L6.66112 10.2459ZM6.98006 13.7555C7.02492 13.4212 7.04816 13.0675 7.04816 12.694C7.04816 12.1175 6.993 11.5788 6.88895 11.0773L7.57551 11.451V13.4314L6.98006 13.7555ZM5.9305 16.3914C6.32745 15.8847 6.63201 15.2749 6.82222 14.5572L7.83448 14.0587L9.57292 14.9148V16.878L7.83448 17.734L5.9305 16.7965V16.3914ZM5.35304 17.0032C5.2627 17.0821 5.17363 17.1527 5.08684 17.2156C5.09091 17.2216 5.09502 17.2276 5.09917 17.2336L5.35304 17.1086V17.0032ZM7.57551 19.8742C7.28445 19.6503 7.00067 19.4062 6.72426 19.1433C6.23134 18.6746 5.79406 18.1752 5.41527 17.6727L5.83708 17.5139L7.57551 18.37V19.8742ZM10.9006 21.4174C11.3082 21.4932 11.7257 21.5323 12.1528 21.5323C12.5871 21.5323 13.0114 21.4919 13.4254 21.4136L12.1669 20.7939L10.9006 21.4174ZM18.9192 17.6343C18.5338 18.1497 18.0869 18.6626 17.5814 19.1433C17.3139 19.3977 17.0395 19.6345 16.7583 19.8525V18.37L18.4967 17.5139L18.9192 17.6343ZM19.2136 17.2232L18.7557 16.9978V16.7493C18.9206 16.9221 19.0833 17.0678 19.2373 17.1884C19.2295 17.1999 19.2216 17.2115 19.2136 17.2232ZM14.2768 17.5139L16.0153 18.37V20.3332L14.2768 21.1892L12.5384 20.3332V18.37L14.2768 17.5139ZM11.7954 18.37V20.3332L10.0569 21.1892L8.31851 20.3332V18.37L10.0569 17.5139L11.7954 18.37ZM12.0544 14.0587L13.7928 14.9148V16.878L12.0544 17.734L10.3159 16.878V14.9148L12.0544 14.0587ZM13.7928 8.00441V9.96762L12.0544 10.8237L10.3159 9.96762V8.00441L12.0544 7.14836L13.7928 8.00441ZM8.31851 11.4596V13.4228L10.0569 14.2789L11.7954 13.4228V11.4596L10.0569 10.6035L8.31851 11.4596ZM16.0153 13.4228V11.4596L14.2768 10.6035L12.5384 11.4596V13.4228L14.2768 14.2789L16.0153 13.4228Z"
         fill="white" />
    </mask>
    <g
       mask="url(#mask0_651_48958)"
       id="g2795" />
  </g>
</svg>
