<svg width="17" height="17" viewBox="0 0 17 17" fill="none" xmlns="http://www.w3.org/2000/svg">
<path fill-rule="evenodd" clip-rule="evenodd" d="M13.8849 5.7184C13.9912 5.7184 14.0774 5.63219 14.0774 5.52584V3.98541C14.0774 3.87906 13.9912 3.79285 13.8849 3.79285H5.99013C5.80995 3.79285 5.63547 3.72968 5.49705 3.61433L4.6095 2.87471C4.5749 2.84587 4.53128 2.83008 4.48623 2.83008H1.94648V2.83009C1.84014 2.83009 1.75394 2.91629 1.75393 3.02263L1.75342 11.0542C1.75342 11.0861 1.77928 11.112 1.81118 11.112C1.83808 11.112 1.86142 11.0934 1.86747 11.0672L2.96404 6.31542C3.04468 5.96595 3.35587 5.7184 3.71453 5.7184H13.8849ZM2.33779 13.2231C2.35199 13.2264 2.36652 13.228 2.38109 13.228H14.0831C14.1726 13.228 14.2503 13.1663 14.2706 13.0791L15.7484 6.72477C15.7725 6.62119 15.708 6.51769 15.6044 6.4936C15.5901 6.49028 15.5755 6.4886 15.5608 6.4886L4.00085 6.48785C3.82151 6.48784 3.6659 6.61162 3.62558 6.78636L2.19347 12.9922C2.16955 13.0958 2.23417 13.1992 2.33779 13.2231Z" fill="white"/>
</svg>
