<?xml version="1.0" encoding="UTF-8"?>
<svg width="24px" height="24px" viewBox="0 0 24 24" version="1.1" xmlns="http://www.w3.org/2000/svg" xmlns:xlink="http://www.w3.org/1999/xlink">
    <!-- Generator: Sketch 60.1 (88133) - https://sketch.com -->
    <title>Icons / System / Open / Open in Internal App</title>
    <desc>Created with Sketch.</desc>
    <g id="Icons-/-System-/-Open-/-Open-in-Internal-App" stroke="none" stroke-width="1" fill="none" fill-rule="evenodd">
        <rect id="Icon-Background" x="0" y="0" width="24" height="24"></rect>
        <path d="M21,3 L21,19.5 L21.0070809,19.5 L21.0070809,20.9975284 L21,20.997 L21,21 L19.5,21 L19.5,20.997 L7.97261837,21 L9.45378213,19.5 L19.5,19.5 L19.5,7 L4.5,7 L4.5,14.7148938 L3,16.0495017 L3,3 L21,3 Z" id="Combined-Shape" fill="#FFFFFF"></path>
        <path d="M13.5,17 L12,17 L12,13.063 L4.06066017,21.0033009 L3,19.9426407 L10.942,12 L7,12 L7,10.5 L13.5,10.5 L13.5,17 Z" id="Combined-Shape" fill="#FFFFFF"></path>
    </g>
</svg>
