/* XPM */
static const char * error_xpm[] = {
"16 16 107 2",
"  	c None",
". 	c #F98267",
"+ 	c #F78065",
"@ 	c #F57E63",
"# 	c #F37C61",
"$ 	c #F98268",
"% 	c #EE836E",
"& 	c #F4A692",
"* 	c #F8B4A0",
"= 	c #F3A691",
"- 	c #E97D68",
"; 	c #EB7359",
"> 	c #F88166",
", 	c #F19784",
"' 	c #FBBDA9",
") 	c #F8A38A",
"! 	c #F6896B",
"~ 	c #F8A289",
"{ 	c #FABCA8",
"] 	c #EC927F",
"^ 	c #E46C52",
"/ 	c #F67F65",
"( 	c #F09783",
"_ 	c #F58263",
": 	c #FFFFFF",
"< 	c #F37E61",
"[ 	c #F37C60",
"} 	c #F9B9A6",
"| 	c #EA8D7B",
"1 	c #DE644A",
"2 	c #EC816C",
"3 	c #F58162",
"4 	c #F48062",
"5 	c #F17A5F",
"6 	c #F0785F",
"7 	c #EF765D",
"8 	c #F8B5A5",
"9 	c #DD705D",
"0 	c #F8A188",
"a 	c #EE735C",
"b 	c #EC705B",
"c 	c #F19382",
"d 	c #EC9889",
"e 	c #D2583E",
"f 	c #ED765B",
"g 	c #F8B6A1",
"h 	c #F48467",
"i 	c #EB6E5A",
"j 	c #EA6C59",
"k 	c #E96F5F",
"l 	c #F1A89B",
"m 	c #CE533A",
"n 	c #E97157",
"o 	c #F7B3A0",
"p 	c #F28065",
"q 	c #FAD9D3",
"r 	c #E86958",
"s 	c #E76757",
"t 	c #E76C5D",
"u 	c #F1A599",
"v 	c #CA4F35",
"w 	c #E56D52",
"x 	c #F09F8E",
"y 	c #F49984",
"z 	c #F19D90",
"A 	c #F3AFA6",
"B 	c #E66556",
"C 	c #E56255",
"D 	c #EB897D",
"E 	c #E79185",
"F 	c #C64A31",
"G 	c #E07360",
"H 	c #F7B3A4",
"I 	c #E36154",
"J 	c #E25F53",
"K 	c #F2A99F",
"L 	c #D16150",
"M 	c #DA6046",
"N 	c #E68878",
"O 	c #F5B0A3",
"P 	c #ED9289",
"Q 	c #EC9288",
"R 	c #E15D52",
"S 	c #DD7D6F",
"T 	c #C0442B",
"U 	c #D3593F",
"V 	c #E38475",
"W 	c #F4ACA1",
"X 	c #EC8B7F",
"Y 	c #E4675C",
"Z 	c #E3665B",
"` 	c #EA877D",
" .	c #F1A89F",
"..	c #DD7C6F",
"+.	c #BF4329",
"@.	c #CC5238",
"#.	c #D46452",
"$.	c #E79084",
"%.	c #EEA095",
"&.	c #ED9F95",
"*.	c #E58E83",
"=.	c #CE5D4C",
"-.	c #BD4128",
";.	c #C4482F",
">.	c #C2462C",
",.	c #C0442A",
"'.	c #BE4228",
"                                ",
"            . + @ #             ",
"        $ % & * * = - ;         ",
"      > , ' ) ! ! ~ { ] ^       ",
"    / ( ' _ _ : : < [ } | 1     ",
"    2 ' _ 3 4 : : 5 6 7 8 9     ",
"  5 = 0 4 < [ : : 7 a b c d e   ",
"  f g h [ 5 6 : : b i j k l m   ",
"  n o p 6 7 a q : j r s t u v   ",
"  w x y a b i z A s B C D E F   ",
"    G H i j r : : C I J K L     ",
"    M N O s B P Q J R K S T     ",
"      U V W X Y Z `  ...+.      ",
"        @.#.$.%.&.*.=.-.        ",
"            ;.>.,.'.            ",
"                                "};
