/* XPM */
static const char * file_open_xpm[] = {
"16 16 123 2",
"  	c None",
". 	c #E0C259",
"+ 	c #E2C361",
"@ 	c #E3C463",
"# 	c #E3C462",
"$ 	c #E0C056",
"% 	c #DBB53C",
"& 	c #FEFEFD",
"* 	c #FFFFFE",
"= 	c #FFFEFE",
"- 	c #FFFEFD",
"; 	c #FBF7EA",
"> 	c #E5C86E",
", 	c #E4C96F",
"' 	c #E7CF7D",
") 	c #E8D084",
"! 	c #DCB441",
"~ 	c #FEFCF7",
"{ 	c #F8E48E",
"] 	c #F5DE91",
"^ 	c #F5E09F",
"/ 	c #F6E1AC",
"( 	c #FEFBEF",
"_ 	c #FEFDF4",
": 	c #FEFCF3",
"< 	c #FEFCF1",
"[ 	c #FEFBEE",
"} 	c #FFFDFA",
"| 	c #E0BC58",
"1 	c #DCAE40",
"2 	c #FDFAF1",
"3 	c #F5DE94",
"4 	c #F4DC93",
"5 	c #F2D581",
"6 	c #EDCA6A",
"7 	c #EACB6C",
"8 	c #EFD385",
"9 	c #EFD280",
"0 	c #EFD07A",
"a 	c #EECF76",
"b 	c #EECF72",
"c 	c #FBF7E9",
"d 	c #DCB23E",
"e 	c #DBAD39",
"f 	c #FBF6E8",
"g 	c #EFD494",
"h 	c #EECE88",
"i 	c #E9C173",
"j 	c #F6E9C9",
"k 	c #FEFCF2",
"l 	c #FEFCF0",
"m 	c #DBAE3C",
"n 	c #DBA83B",
"o 	c #FFFDF8",
"p 	c #FFFDF6",
"q 	c #FFFCF5",
"r 	c #FCF6D8",
"s 	c #F8E694",
"t 	c #F7E385",
"u 	c #F6DF76",
"v 	c #F5DB68",
"w 	c #F4D85C",
"x 	c #FCF4D7",
"y 	c #DBA73B",
"z 	c #DBA33B",
"A 	c #FEFCF6",
"B 	c #FCF2C8",
"C 	c #FBEFB9",
"D 	c #FAECAC",
"E 	c #F9E89C",
"F 	c #F7E38B",
"G 	c #F6E07C",
"H 	c #F6DC6C",
"I 	c #F5D95D",
"J 	c #F4D64F",
"K 	c #F3D344",
"L 	c #FCF3D0",
"M 	c #DBA23B",
"N 	c #DB9D3C",
"O 	c #FDFAF2",
"P 	c #FAEDB3",
"Q 	c #F9E9A4",
"R 	c #F8E695",
"S 	c #F7E285",
"T 	c #F6DE76",
"U 	c #F5DB65",
"V 	c #F4D757",
"W 	c #F3D449",
"X 	c #F2D13B",
"Y 	c #F1CE30",
"Z 	c #FBF2CC",
"` 	c #DB9B3B",
" .	c #DB973B",
"..	c #FEFAEF",
"+.	c #F9E9A1",
"@.	c #F8E591",
"#.	c #F7E181",
"$.	c #F6DE72",
"%.	c #F5DA63",
"&.	c #F4D754",
"*.	c #F3D347",
"=.	c #F2D039",
"-.	c #F1CD2E",
";.	c #F0CB26",
">.	c #FBF2CA",
",.	c #DD9947",
"'.	c #FAF1DE",
").	c #F4DDA8",
"!.	c #F4DB9E",
"~.	c #F3DA96",
"{.	c #F3D88E",
"].	c #F3D786",
"^.	c #F2D47F",
"/.	c #F2D379",
"(.	c #F1D272",
"_.	c #F1D06C",
":.	c #F1CF69",
"<.	c #F8EAC2",
"[.	c #DB953F",
"}.	c #DB913E",
"|.	c #D98C34",
"1.	c #D98B34",
"2.	c #DA8F39",
"                                ",
"                                ",
"  . + @ @ @ # $                 ",
"  % & * = - * ; > , , , ' )     ",
"  ! ~ { ] ^ / ( _ : < ( [ } |   ",
"  1 2 3 4 5 6 7 8 9 0 a b c d   ",
"  e f g h i j k : k l ( [ * m   ",
"  n * o p q : r s t u v w x y   ",
"  z A B C D E F G H I J K L M   ",
"  N O P Q R S T U V W X Y Z `   ",
"  N O P Q R S T U V W X Y Z `   ",
"   ...+.@.#.$.%.&.*.=.-.;.>. .  ",
"  ,.'.).!.~.{.].^./.(._.:.<.[.  ",
"    ,.}.|.|.|.|.|.|.|.|.1.2.    ",
"                                ",
"                                "};
