/* XPM */
static const char * file_save_xpm[] = {
"16 16 149 2",
"  	c None",
". 	c #8DABD9",
"+ 	c #5E89C9",
"@ 	c #4375C0",
"# 	c #3A6EBD",
"$ 	c #376CBB",
"% 	c #366BBB",
"& 	c #366ABB",
"* 	c #396CBC",
"= 	c #3B6EBD",
"- 	c #3A6DBB",
"; 	c #4474BF",
"> 	c #658DC9",
", 	c #85A5D6",
"' 	c #D1E0F6",
") 	c #D1E0F7",
"! 	c #F8FBFE",
"~ 	c #F7FBFE",
"{ 	c #F6F9FD",
"] 	c #F0F5FC",
"^ 	c #EDF2FB",
"/ 	c #F7FAFD",
"( 	c #EBF1FB",
"_ 	c #DFE9F8",
": 	c #BED1EC",
"< 	c #6A92CD",
"[ 	c #5582C6",
"} 	c #D1DFF6",
"| 	c #80AAE9",
"1 	c #F6FAFE",
"2 	c #F6FAFD",
"3 	c #648CC8",
"4 	c #EEF3FB",
"5 	c #F2F6FC",
"6 	c #F1F6FC",
"7 	c #E2ECF9",
"8 	c #DBE7F8",
"9 	c #BAD0EE",
"0 	c #BDD0EC",
"a 	c #4374BD",
"b 	c #4274C0",
"c 	c #D0DFF6",
"d 	c #7EA8E8",
"e 	c #E9F1FA",
"f 	c #E8F0FA",
"g 	c #DDE8F8",
"h 	c #DBE6F7",
"i 	c #7AA3E1",
"j 	c #C3D5EF",
"k 	c #366AB7",
"l 	c #CCDDF5",
"m 	c #7EA8E7",
"n 	c #668DC9",
"o 	c #E9F0FA",
"p 	c #F8FAFE",
"q 	c #EFF4FC",
"r 	c #DFE9F9",
"s 	c #DBE7F7",
"t 	c #D9E5F7",
"u 	c #78A2E0",
"v 	c #A9C2E7",
"w 	c #3568B6",
"x 	c #C9DCF4",
"y 	c #7DA7E7",
"z 	c #E1ECF9",
"A 	c #E3EDF9",
"B 	c #EEF4FC",
"C 	c #F3F7FD",
"D 	c #E5EDFA",
"E 	c #D8E5F6",
"F 	c #77A0DE",
"G 	c #A4BEE4",
"H 	c #3467B4",
"I 	c #C7D9F4",
"J 	c #7DA6E6",
"K 	c #678EC9",
"L 	c #6C92CB",
"M 	c #6990CA",
"N 	c #658CC8",
"O 	c #749CDA",
"P 	c #9FBAE1",
"Q 	c #3466B3",
"R 	c #C5D8F2",
"S 	c #7BA4E3",
"T 	c #7AA3E3",
"U 	c #7AA4E3",
"V 	c #7BA4E2",
"W 	c #7BA3E2",
"X 	c #79A2E1",
"Y 	c #77A0DF",
"Z 	c #769FDE",
"` 	c #749EDD",
" .	c #729CDB",
"..	c #749DDC",
"+.	c #9AB5DD",
"@.	c #3465B1",
"#.	c #BED2F0",
"$.	c #7AA3E2",
"%.	c #7BA3E1",
"&.	c #779FDE",
"*.	c #769FDD",
"=.	c #729BD9",
"-.	c #7199D8",
";.	c #7099D6",
">.	c #8EABD5",
",.	c #3363AD",
"'.	c #366ABA",
").	c #BBD0EF",
"!.	c #7AA2E2",
"~.	c #6D96D3",
"{.	c #8AA7D2",
"].	c #3262AB",
"^.	c #386BBB",
"/.	c #B8CEEF",
"(.	c #F7FAFE",
"_.	c #88C062",
":.	c #6A93CF",
"<.	c #84A3CE",
"[.	c #3261AA",
"}.	c #386CBB",
"|.	c #B6CCEE",
"1.	c #7AA2E1",
"2.	c #C2DCBF",
"3.	c #6890CD",
"4.	c #819ECC",
"5.	c #3261A8",
"6.	c #386CBA",
"7.	c #B3CAED",
"8.	c #7AA2E0",
"9.	c #658DCA",
"0.	c #7C9BC9",
"a.	c #3261A7",
"b.	c #4F7DC3",
"c.	c #ADC6EB",
"d.	c #ADC5EA",
"e.	c #7C9AC8",
"f.	c #7998C7",
"g.	c #406BAD",
"h.	c #7095CD",
"i.	c #4273BD",
"j.	c #3568B7",
"k.	c #3568B5",
"l.	c #3466B2",
"m.	c #3364AE",
"n.	c #3263AC",
"o.	c #3262AA",
"p.	c #3261A9",
"q.	c #3160A8",
"r.	c #3C69AB",
"    . + @ # $ % & * = - ; >     ",
"  , ' ) ! ~ { ] ^ { / ( _ : <   ",
"  [ } | 1 2 3 4 5 ! 6 7 8 9 0 a ",
"  b c d 6 6 3 e / { f g h i j k ",
"  # l m f f n o p q r s t u v w ",
"  $ x y z z A B C D s t E F G H ",
"  % I J 3 > K L M N 3 3 3 O P Q ",
"  & R S T U V W X Y Z `  ...+.@.",
"  & #.$.$.i W %.&.*...=.-.;.>.,.",
"  '.).!.! ! ! ! ! ! ! ! ! ~.{.].",
"  ^./.X (._._._._._._._.{ :.<.[.",
"  }.|.1.(.2.2.2.2.2.2.2.{ 3.4.5.",
"  6.7.8.(._._._._._._._.{ 9.0.a.",
"  b.c.d.! ! ! ! ! ! ! ! ! e.f.g.",
"    h.i.j.k.H l.m.n.o.p.q.a.r.  ",
"                                "};
