/* XPM */
static const char * gear_xpm[] = {
/* columns rows colors chars-per-pixel */
"16 16 2 1",
"  c #000000",
". c None",
/* pixels */
".......  .......",
".......  .......",
"..  ..    ..  ..",
"..            ..",
"...   ....   ...",
"...  ......  ...",
"..  ........  ..",
"    ........    ",
"    ........    ",
"..  ........  ..",
"...  ......  ...",
"...   ....   ...",
"..            ..",
"..  ..    ..  ..",
".......  .......",
".......  ......."
};
