/* XPM */
static const char * warning_xpm[] = {
"16 16 115 2",
"  	c None",
". 	c #EBBC3C",
"+ 	c #EABA3A",
"@ 	c #F1D485",
"# 	c #F0D182",
"$ 	c #E7B537",
"% 	c #E9BA3A",
"& 	c #FDFAF1",
"* 	c #FAEFD5",
"= 	c #E6B235",
"- 	c #E9B93A",
"; 	c #F2D894",
"> 	c #FEFCF3",
", 	c #FEFAE7",
"' 	c #F0D38F",
") 	c #E3AC31",
"! 	c #E8B738",
"~ 	c #FFFDF9",
"{ 	c #F9E994",
"] 	c #FAEB9E",
"^ 	c #FEFAEC",
"/ 	c #E1A92F",
"( 	c #F4DFA9",
"_ 	c #FDF9ED",
": 	c #D6A33E",
"< 	c #FCF5D4",
"[ 	c #F1D7A2",
"} 	c #DEA32B",
"| 	c #E6B436",
"1 	c #EDC871",
"2 	c #FFFEF9",
"3 	c #F4DC5E",
"4 	c #D5A23E",
"5 	c #F4D95C",
"6 	c #FEFBED",
"7 	c #E5BB68",
"8 	c #D99924",
"9 	c #F7EAC8",
"0 	c #FDFAE6",
"a 	c #F4DA5D",
"b 	c #D5A13D",
"c 	c #F2D757",
"d 	c #FCF3C7",
"e 	c #F4E3C0",
"f 	c #E6B336",
"g 	c #F0D28C",
"h 	c #FEFBEA",
"i 	c #F8E694",
"j 	c #F4DA5C",
"k 	c #DDB147",
"l 	c #F2D756",
"m 	c #F5DB5C",
"n 	c #FDF8DE",
"o 	c #E7C07D",
"p 	c #D48E1D",
"q 	c #E5B134",
"r 	c #FEFBF3",
"s 	c #FBF2C3",
"t 	c #F6DC5C",
"u 	c #F6DF64",
"v 	c #EBCB57",
"w 	c #F2D655",
"x 	c #F5D954",
"y 	c #F8E794",
"z 	c #FBF4E3",
"A 	c #D08717",
"B 	c #E5B034",
"C 	c #F1D79D",
"D 	c #FDF9E7",
"E 	c #F8E58B",
"F 	c #F6DB5A",
"G 	c #F4DA5B",
"H 	c #F2D654",
"I 	c #F5D852",
"J 	c #F4D650",
"K 	c #FCF6D8",
"L 	c #E5BF88",
"M 	c #C9790E",
"N 	c #E3AD31",
"O 	c #E8BF62",
"P 	c #FEFCF4",
"Q 	c #FAEFB5",
"R 	c #F5DA58",
"S 	c #F3D857",
"T 	c #F2D758",
"U 	c #F2D658",
"V 	c #F4D957",
"W 	c #F5D851",
"X 	c #F4D74E",
"Y 	c #F6DA62",
"Z 	c #D29344",
"` 	c #C36D06",
" .	c #F5E3BE",
"..	c #FEFBEF",
"+.	c #FEFBEE",
"@.	c #FEFCEF",
"#.	c #FEFBEC",
"$.	c #FEFCF2",
"%.	c #EBCEAB",
"&.	c #C16803",
"*.	c #E2AA2F",
"=.	c #E0A72D",
"-.	c #DFA42B",
";.	c #DDA129",
">.	c #DC9E27",
",.	c #DA9B25",
"'.	c #D99823",
").	c #D69320",
"!.	c #D38C1B",
"~.	c #CF8516",
"{.	c #CC7E11",
"].	c #C9770D",
"^.	c #C67109",
"/.	c #C36C06",
"(.	c #BF6400",
"                                ",
"              . +               ",
"            . @ # $             ",
"            % & * =             ",
"          - ; > , ' )           ",
"          ! ~ { ] ^ /           ",
"        ! ( _ : : < [ }         ",
"      | 1 2 3 4 4 5 6 7 8       ",
"      | 9 0 a b b c d e 8       ",
"    f g h i j k b l m n o p     ",
"    q r s t j u v w x y z A     ",
"  B C D E F G b b H I J K L M   ",
"N O P Q R R S T U V W X Y h Z ` ",
"N  .P ..+.+.@.@...+.6 6 #.$.%.&.",
"*.=.-.;.>.,.'.).!.~.{.].^./.&.(.",
"                                "};
