<?xml version="1.0" encoding="UTF-8"?>
<svg width="24px" height="24px" viewBox="0 0 24 24" version="1.1" xmlns="http://www.w3.org/2000/svg" xmlns:xlink="http://www.w3.org/1999/xlink">
    <!-- Generator: Sketch 61 (89581) - https://sketch.com -->
    <title>Icons / System / Color Picker</title>
    <desc>Created with Sketch.</desc>
    <g id="Icons-/-System-/-Color-Picker" stroke="none" stroke-width="1" fill="none" fill-rule="evenodd">
        <rect id="Icon-Background" x="0" y="0" width="24" height="24"></rect>
        <path d="M11.7407116,0.168439751 C13.3975658,0.168439751 14.7407116,1.5115855 14.7407116,3.16843975 L14.7400922,7.15843975 L15.7810922,7.15856781 C16.8856617,7.15856781 17.7810922,8.05399831 17.7810922,9.15856781 L17.7810922,10.1585678 L14.7620922,10.1584398 L14.7629681,21.2825793 C14.7629681,22.9394336 13.4198223,24.2825793 11.7629681,24.2825793 C10.1061138,24.2825793 8.76296808,22.9394336 8.76296808,21.2825793 L8.76209217,10.1584398 L5.78109217,10.1585678 L5.78109217,9.15856781 C5.78109217,8.05399831 6.67652267,7.15856781 7.78109217,7.15856781 L8.74009217,7.15843975 L8.74071158,3.16843975 C8.74071158,1.5115855 10.0838573,0.168439751 11.7407116,0.168439751 Z M13.2620922,10.1584398 L10.2620922,10.1584398 L10.2629681,21.2825793 C10.2629681,22.1110065 10.934541,22.7825793 11.7629681,22.7825793 C12.5426642,22.7825793 13.1834168,22.1876913 13.2561015,21.4270394 L13.2629681,21.2825793 L13.2620922,10.1584398 Z" id="Combined-Shape" fill="#FFFFFF" transform="translate(11.781092, 12.225510) rotate(45.000000) translate(-11.781092, -12.225510) "></path>
    </g>
</svg>
