<?xml version="1.0" encoding="UTF-8"?>
<svg width="24px" height="24px" viewBox="0 0 24 24" version="1.1" xmlns="http://www.w3.org/2000/svg" xmlns:xlink="http://www.w3.org/1999/xlink">
    <!-- Generator: Sketch 61 (89581) - https://sketch.com -->
    <title>Icons / System / Mode switch</title>
    <desc>Created with Sketch.</desc>
    <g id="Icons-/-System-/-Mode-switch" stroke="none" stroke-width="1" fill="none" fill-rule="evenodd">
        <rect id="Rectangle-18" fill-opacity="0" fill="#D8D8D8" x="0" y="0" width="24" height="24"></rect>
        <path d="M12,16.0292152 C13.3333333,17.9400254 14,19.2636203 14,20 C14,21.1045695 13.1045695,22 12,22 C10.8954305,22 10,21.1045695 10,20 C10,19.2636203 10.6666667,17.9400254 12,16.0292152 Z M9.25164051,14.6949738 C8.85042447,16.3633137 8.57624522,17.3649891 8.42910275,17.7 C7.98568996,18.7095529 7.4045695,19.6999936 6.3,19.6999936 C5.1954305,19.6999936 4.3,18.8045695 4.3,17.7 C4.3,16.5954305 5.26991427,15.9226723 6.3,15.5196293 C6.6172135,15.3955127 7.60109367,15.1206276 9.25164051,14.6949738 Z M14.8345754,14.8014088 C16.0127069,15.0648087 16.9678485,15.3120589 17.7,15.5431595 C18.7982273,15.8898104 19.7,16.5954305 19.7,17.7 C19.7,18.8045695 18.8045695,19.7 17.7,19.7 C16.5954305,19.7 15.9042422,18.8886679 15.5781301,17.8300608 C15.3607219,17.1243227 15.1128704,16.1147721 14.8345754,14.8014088 Z M4,10 C4.73637967,10 6.07086007,10.6666667 8.00344122,12 C6.07086007,13.3333333 4.73637967,14 4,14 C2.8954305,14 2,13.1045695 2,12 C2,10.8954305 2.8954305,10 4,10 Z M20,10 C21.1045695,10 22,10.8954305 22,12 C22,13.1045695 21.1045695,14 20,14 C19.2636203,14 17.9176157,13.3333333 15.9619862,12 C17.9176157,10.6666667 19.2636203,10 20,10 Z M17.7,4.3 C18.8045695,4.3 19.7,5.1954305 19.7,6.3 C19.7,7.4045695 18.7377669,8.05750465 17.7,8.44495745 C17.3569283,8.57304412 16.3335753,8.88696329 14.629941,9.38671495 C15.0863858,7.75477945 15.3932982,6.72587447 15.5506781,6.3 C15.9335049,5.26406024 16.5954305,4.3 17.7,4.3 Z M6.3,4.3 C7.4045695,4.3 8.01370378,5.26956118 8.40996484,6.3 C8.53446602,6.62375335 8.81502458,7.61417336 9.25164051,9.27126005 C7.60109367,8.82225889 6.6172135,8.53602693 6.3,8.41256419 C5.27011405,8.01172204 4.3,7.4045695 4.3,6.3 C4.3,5.1954305 5.1954305,4.3 6.3,4.3 Z M12,2 C13.1045695,2 14,2.8954305 14,4 C14,4.73637967 13.3333333,6.08554956 12,8.04750967 C10.6666667,6.08554956 10,4.73637967 10,4 C10,2.8954305 10.8954305,2 12,2 Z" id="Combined-Shape" fill="#FFFFFF"></path>
    </g>
</svg>
