<?xml version="1.0" encoding="UTF-8"?>
<svg width="22px" height="16px" viewBox="0 0 22 16" version="1.1" xmlns="http://www.w3.org/2000/svg" xmlns:xlink="http://www.w3.org/1999/xlink">
    <!-- Generator: Sketch 57.1 (83088) - https://sketch.com -->
    <title>Cursor / Scroll Copy 4</title>
    <desc>Created with Sketch.</desc>
    <defs>
        <path d="M5,1 L5,4 L10.8535978,4 L10.8535978,6 L5,6 L5,9 L0,5 L5,1 Z" id="path-1"></path>
        <filter x="-47.0%" y="-57.3%" width="188.5%" height="239.5%" filterUnits="objectBoundingBox" id="filter-2">
            <feMorphology radius="1" operator="dilate" in="SourceAlpha" result="shadowSpreadOuter1"></feMorphology>
            <feOffset dx="0" dy="1" in="shadowSpreadOuter1" result="shadowOffsetOuter1"></feOffset>
            <feGaussianBlur stdDeviation="1" in="shadowOffsetOuter1" result="shadowBlurOuter1"></feGaussianBlur>
            <feComposite in="shadowBlurOuter1" in2="SourceAlpha" operator="out" result="shadowBlurOuter1"></feComposite>
            <feColorMatrix values="0 0 0 0 0.577779549   0 0 0 0 0.577779549   0 0 0 0 0.577779549  0 0 0 0.5 0" type="matrix" in="shadowBlurOuter1"></feColorMatrix>
        </filter>
    </defs>
    <g id="Lumberyard-Stickersheet" stroke="none" stroke-width="1" fill="none" fill-rule="evenodd">
        <g id="Number-Edit" transform="translate(-382.000000, -185.000000)">
            <g id="Cursor-/-Scroll-Copy-4" transform="translate(385.000000, 187.000000)">
                <g id="Group">
                    <g id="Triangle-4">
                        <use fill="black" fill-opacity="1" filter="url(#filter-2)" xlink:href="#path-1"></use>
                        <path stroke="#FFFFFF" stroke-width="1" d="M5.5,3.5 L11.3535978,3.5 L11.3535978,6.5 L5.5,6.5 L5.5,10.0403124 L-0.80039053,5 L5.5,-0.0403124237 L5.5,3.5 Z" fill="#000000" fill-rule="evenodd"></path>
                    </g>
                    <path d="M14.5,3.5 L14.5,-0.5 L18.0104816,-0.5 L18.0104816,10.5 L14.5,10.5 L14.5,6.5 L9.5,6.5 L9.5,3.5 L14.5,3.5 Z" id="Path" stroke="#FFFFFF" fill="#8B8B8B"></path>
                    <rect id="Rectangle-11" stroke="#FFFFFF" fill="#000000" x="8.5" y="1.5" width="3" height="7"></rect>
                </g>
            </g>
        </g>
    </g>
</svg>
