<?xml version="1.0" encoding="UTF-8"?>
<svg width="22px" height="11px" viewBox="0 0 22 11" version="1.1" xmlns="http://www.w3.org/2000/svg" xmlns:xlink="http://www.w3.org/1999/xlink">
    <!-- Generator: Sketch 58 (84663) - https://sketch.com -->
    <title>Group 14</title>
    <desc>Created with Sketch.</desc>
    <g id="[YOUR-PROJECT]" stroke="none" stroke-width="1" fill="none" fill-rule="evenodd">
        <g id="Exploration-Large" transform="translate(-447.000000, -39.000000)" fill="#FFFFFF">
            <g id="Group-6" transform="translate(352.000000, 31.000000)">
                <g id="Group" transform="translate(59.000000, 11.000000) scale(-1, 1) rotate(90.000000) translate(-59.000000, -11.000000) translate(51.000000, -48.000000)">
                    <g id="Group-14" transform="translate(5.000000, 95.000000)">
                        <polygon id="Triangle" transform="translate(2.207107, 18.000000) scale(1, -1) rotate(90.000000) translate(-2.207107, -18.000000) " points="2.20710678 16 6.20710678 20 -1.79289322 20"></polygon>
                        <path d="M6.881,7.765 C6.71299916,7.93300084 6.49366802,8.017 6.223,8.017 C5.95233198,8.017 5.73300084,7.93066753 5.565,7.758 C5.39699916,7.58533247 5.313,7.36366802 5.313,7.093 C5.313,6.82233198 5.39699916,6.60066753 5.565,6.428 C5.73300084,6.25533247 5.95233198,6.169 6.223,6.169 C6.49366802,6.169 6.71299916,6.25533247 6.881,6.428 C7.04900084,6.60066753 7.133,6.82233198 7.133,7.093 C7.133,7.36366802 7.04900084,7.58766578 6.881,7.765 Z M11.529,7.765 C11.3609992,7.93300084 11.141668,8.017 10.871,8.017 C10.600332,8.017 10.3810008,7.93066753 10.213,7.758 C10.0449992,7.58533247 9.961,7.36366802 9.961,7.093 C9.961,6.82233198 10.0449992,6.60066753 10.213,6.428 C10.3810008,6.25533247 10.600332,6.169 10.871,6.169 C11.141668,6.169 11.3609992,6.25533247 11.529,6.428 C11.6970008,6.60066753 11.781,6.82233198 11.781,7.093 C11.781,7.36366802 11.6970008,7.58766578 11.529,7.765 Z M2.219,7.765 C2.05099916,7.93300084 1.83166802,8.017 1.561,8.017 C1.29033198,8.017 1.07100084,7.93066753 0.903,7.758 C0.73499916,7.58533247 0.651,7.36366802 0.651,7.093 C0.651,6.82233198 0.73499916,6.60066753 0.903,6.428 C1.07100084,6.25533247 1.29033198,6.169 1.561,6.169 C1.83166802,6.169 2.05099916,6.25533247 2.219,6.428 C2.38700084,6.60066753 2.471,6.82233198 2.471,7.093 C2.471,7.36366802 2.38700084,7.58766578 2.219,7.765 Z" id="…" fill-rule="nonzero" transform="translate(6.216000, 7.093000) scale(-1, 1) rotate(90.000000) translate(-6.216000, -7.093000) "></path>
                        <polygon id="Decoration" fill-rule="nonzero" transform="translate(9.744000, 6.396000) scale(-1, 1) rotate(90.000000) translate(-9.744000, -6.396000) " points="3.448 6.732 3.448 6.06 16.04 6.06 16.04 6.732"></polygon>
                    </g>
                </g>
            </g>
        </g>
    </g>
</svg>
