<?xml version="1.0" encoding="UTF-8"?>
<svg width="24px" height="24px" viewBox="0 0 24 24" version="1.1" xmlns="http://www.w3.org/2000/svg" xmlns:xlink="http://www.w3.org/1999/xlink">
    <!-- Generator: Sketch 53.2 (72643) - https://sketchapp.com -->
    <title>icon / Audio / Audio Animation</title>
    <desc>Created with Sketch.</desc>
    <defs>
        <path d="M7.69603474,20.1213834 C7.45635088,20.3852693 7.15693076,20.5972107 6.70112522,20.6696629 C5.76173389,20.8191277 5.1494601,20.7466737 4.472214,19.9792994 C3.46378959,18.8373515 2.40618475,17.7318586 2.22841329,16.1665789 C2.03530115,14.4645936 1.42528334,12.6796736 2.85512537,11.1266975 C3.13531846,10.8222996 3.07530932,10.1957321 3.16464624,9.71635093 C4.00522551,5.20597603 7.55117962,2.20802124 12.036525,2.21713495 C16.665351,2.22670435 20.3687727,5.60287808 20.8966727,10.2905146 C20.9287077,10.5734953 20.9138182,10.9025002 21.0527868,11.1266975 C22.3901335,13.2802671 22.0174451,15.4880632 21.0748954,17.5855835 C20.592115,18.6596342 19.7050625,19.5805746 18.8825311,20.4577691 C18.3676439,21.0072071 17.1721271,20.8677716 16.4137254,20.3784103 C16.4865358,20.2733248 16.580446,20.0797912 16.7087215,19.7644898 C17.1703184,18.6301216 17.6290482,17.5351465 18.0860835,15.9331829 C18.5830076,14.1913025 19.1635812,12.3804691 19.3827494,10.7283236 C19.4168688,10.4711854 19.1707766,10.6833875 18.9999221,10.7984074 C19.0818552,10.5204506 19.0370918,10.1677458 18.9669049,9.80293117 C17.9503589,4.52199212 11.4982475,2.25860233 7.4338685,5.75325429 C6.05591407,6.93758086 5.22210275,8.42767239 4.97259103,10.2599837 C4.95504008,10.3889268 4.94416484,10.5053105 4.94293401,10.6098338 C4.8868459,10.5961742 4.85343854,10.622513 4.86747845,10.7283236 C5.08664668,12.3804691 5.66722025,14.1913025 6.1641443,15.9331829 C6.62117962,17.5351465 7.07990945,18.6301216 7.54150638,19.7644898 C7.5996687,19.9074529 7.65076597,20.0253821 7.69603474,20.1213834 L7.69603474,20.1213834 Z M8.03591436,19.6785496 C8.02234335,19.5860329 8.00693321,19.489455 7.99090054,19.3915609 C7.94564558,19.1155295 7.89546395,18.829272 7.86730169,18.5933401 C7.83491333,18.3218935 7.69788433,17.7059892 7.59035886,17.3668226 C6.97766848,15.4350746 6.36100073,13.522967 5.74244493,11.6475104 C5.70913466,11.5465186 5.67088283,11.4438288 5.63149592,11.3473739 C5.6824224,11.3546359 5.73675357,11.360504 5.79467124,11.365021 C6.18405391,11.3950962 6.72819701,11.8033904 6.87664069,12.1738627 C7.61885911,14.0266799 8.28617888,15.9123064 8.8943919,17.8147933 C9.0008743,18.1488108 8.82174925,18.7412019 8.56366479,18.9954744 C8.35980335,19.1963928 8.20106273,19.4394915 8.03591436,19.6785496 L8.03591436,19.6785496 Z M16.1643775,20.190256 C16.0083443,20.0516952 15.8862612,19.8946709 15.8143942,19.7241155 C15.7683721,19.6156623 15.7701769,19.4333881 15.6966319,19.397389 C14.1882816,18.6623683 14.9927652,17.6165701 15.3307114,16.644593 C15.8518435,15.142198 16.350867,13.6293222 16.9491537,12.1583694 C17.092183,11.8061245 17.5898528,11.3668437 17.9223847,11.3682108 C18.260498,11.3699626 18.5035216,11.3142648 18.6749322,11.2156379 C18.6166035,11.3463893 18.5568353,11.4987909 18.5077829,11.6475104 C17.8892271,13.522967 17.2725594,15.4350746 16.659869,17.3668226 C16.5523435,17.7059892 16.4153145,18.3218935 16.3829262,18.5933401 C16.3547639,18.829272 16.3045823,19.1155295 16.2593273,19.3915609 C16.2089465,19.6991817 16.1647129,19.9938054 16.1643775,20.190256 L16.1643775,20.190256 Z" id="path-1"></path>
    </defs>
    <g id="icon-/-Audio-/-Audio-Animation" stroke="none" stroke-width="1" fill="none" fill-rule="evenodd">
        <mask id="mask-2" fill="white">
            <use xlink:href="#path-1"></use>
        </mask>
        <use id="Stroke-2" fill="#DF9557" xlink:href="#path-1"></use>
    </g>
</svg>