<?xml version="1.0" encoding="UTF-8"?>
<svg width="24px" height="24px" viewBox="0 0 24 24" version="1.1" xmlns="http://www.w3.org/2000/svg" xmlns:xlink="http://www.w3.org/1999/xlink">
    <!-- Generator: Sketch 58 (84663) - https://sketch.com -->
    <title>icon / Scripting /Cloud Gem Message Of The Day</title>
    <desc>Created with Sketch.</desc>
    <g id="icon-/-Scripting-/Cloud-Gem-Message-Of-The-Day" stroke="none" stroke-width="1" fill="none" fill-rule="evenodd">
        <path d="M9.26213838,4.02876398 C11.7946061,3.83272996 13.6283506,4.63307139 14.7633719,6.42978827 C15.8647867,5.74156712 16.9217845,5.62950247 17.9343653,6.09359431 C19.4532365,6.78973207 19.9616899,8.04630713 19.9616899,8.84327822 C21.6135281,8.84327822 23.0624865,10.9401991 23.0624865,12.7532599 C23.0624865,14.3846806 22.028242,16.4287389 19.6478664,16.6973877 C19.4192594,16.7231882 19.6478664,18.7275968 17.9343653,18.7275968 L17.9343653,18.7275968 L5.96590098,18.7275968 C4.95187043,18.7275968 4.14443163,17.6702273 4.14443163,16.7513946 C2.67279142,16.7513946 1.22847052,15.7170787 1.00810539,13.1610254 C0.787740249,10.6049721 2.79592442,8.84327822 4.14443163,9.13525164 C3.86589342,7.43645943 5.46343678,4.32281501 9.26213838,4.02876398 Z M17.0341875,8.24916396 L7.01969467,8.24916396 C6.36217747,8.24916396 5.83110588,8.78023555 5.83110588,9.43775275 L5.83110588,15.9117683 C5.83110588,16.5692855 6.36217747,17.1003571 7.01969467,17.1003571 L17.0341875,17.1003571 C17.6917047,17.1003571 18.2227763,16.5692855 18.2227763,15.9117683 L18.2227763,9.43775275 C18.2227763,8.78023555 17.6917047,8.24916396 17.0341875,8.24916396 Z M16.9453879,10.0599701 L16.9453879,15.7663822 C16.9453879,15.953973 16.7935653,16.1024824 16.6139084,16.1024824 L7.43997372,16.1024824 C7.26031689,16.1024824 7.10849421,15.953973 7.10849421,15.7663822 L7.10849421,10.0599701 L11.2435831,13.7883378 C11.4611956,13.9629015 11.7192942,14.051486 11.9799231,14.051486 C12.240552,14.051486 12.5011809,13.9629015 12.7187934,13.7883378 L16.9453879,10.0599701 Z M16.4525376,9.32327026 L12.5916204,12.3920411 C12.283268,12.622748 11.7013608,12.622748 11.3864477,12.3920411 L7.60134451,9.32327026 L16.4525376,9.32327026 Z" id="Path-55" fill="#D8D872"></path>
    </g>
</svg>