<?xml version="1.0" encoding="UTF-8"?>
<svg width="24px" height="24px" viewBox="0 0 24 24" version="1.1" xmlns="http://www.w3.org/2000/svg" xmlns:xlink="http://www.w3.org/1999/xlink">
    <!-- Generator: Sketch 58 (84663) - https://sketch.com -->
    <title>icon / Animation / footstep</title>
    <desc>Created with Sketch.</desc>
    <g id="icon-/-Animation-/-footstep" stroke="none" stroke-width="1" fill="none" fill-rule="evenodd">
        <path d="M14.1953422,10.2965525 C14.8756123,10.181762 15.4598405,10.1436924 15.9480268,10.1823437 C16.6454359,10.2375598 16.7146008,10.2454479 16.9889054,10.4533674 L16.9889054,10.4533674 L17.147011,10.5751416 C17.5738174,10.9035207 17.8412309,11.3333634 18.1225603,11.6939231 C18.4038898,12.0544828 18.7573737,12.4441495 18.9680022,12.8543548 C19.1786307,13.2645601 19.3182111,13.7423977 18.8794954,14.2328382 C18.4407797,14.7232788 18.3470978,15.206549 18.3336269,15.6692548 C18.3146164,15.961675 18.3051112,16.1403557 18.3051112,16.2052967 L18.3051112,16.2052967 L18.460104,18.5390804 C18.4390913,19.1519693 18.3275235,19.9060042 18.0213313,20.5393698 C17.676865,21.2519061 17.0117307,21.806755 16.3368312,21.8815207 C15.6619317,21.9562863 14.8150289,21.6660303 14.2253391,21.1443023 C13.6356493,20.6225744 13.4970768,20.1126617 13.373064,19.5883231 C13.2490511,19.0639846 13.328119,18.5882883 13.8154704,17.5816623 C14.1396286,16.9121123 14.4642923,16.4911321 14.9923353,16.0347658 C15.5203784,15.5783995 16.6410275,15.0991343 16.4438862,14.2328382 C16.301275,13.6061633 16.0123539,13.3519475 15.4910693,13.0424748 C15.0740417,12.7948967 14.6170479,12.6215286 14.2969074,12.5551495 C13.9767668,12.4887703 13.8418336,12.4157887 13.5373317,12.1645688 C13.2328298,11.9133488 13.1866783,11.0138058 13.367391,10.7333407 C13.5481038,10.4528756 13.7258635,10.3915462 14.1953422,10.2965525 Z M9.80465775,6.42105748 C10.2741365,6.51605123 10.4518962,6.5773806 10.632609,6.85784573 C10.8133217,7.13831085 10.7671702,8.03785388 10.4626683,8.28907379 C10.1581664,8.5402937 10.0232332,8.61327531 9.70309263,8.67965448 C9.38295208,8.74603365 8.92595827,8.91940172 8.50893065,9.16697986 C7.98764613,9.47645252 7.69872496,9.7306683 7.55611379,10.3573433 C7.35897252,11.2236393 8.47962158,11.7029045 9.00766466,12.1592708 C9.53570774,12.6156371 9.86037138,13.0366173 10.1845296,13.7061674 C10.671881,14.7127933 10.7509489,15.1884896 10.626936,15.7128282 C10.5029232,16.2371667 10.3643507,16.7470794 9.77466088,17.2688073 C9.18497109,17.7905353 8.33806835,18.0807913 7.66316884,18.0060257 C6.98826934,17.9312601 6.32313496,17.3764111 5.97866874,16.6638748 C5.67247655,16.0305092 5.56090871,15.2764744 5.53989601,14.6635854 L5.69488879,12.3298018 C5.69488879,12.2648607 5.68538357,12.0861801 5.66637313,11.7937598 C5.65290223,11.3310541 5.55922032,10.8477839 5.12050461,10.3573433 C4.6817889,9.86690269 4.82136934,9.38906514 5.03199781,8.97885984 C5.24262629,8.56865453 5.59611016,8.17898787 5.87743965,7.81842814 C6.15876915,7.45786842 6.42618261,7.02802576 6.85298903,6.69964666 L7.01109457,6.57787242 C7.28539919,6.36995288 7.3545641,6.36206486 8.05197317,6.30684871 C8.54015953,6.26819741 9.12438772,6.306267 9.80465775,6.42105748 Z M20.7988309,11.7979014 C21.0784783,11.7158476 21.1662498,11.6982348 21.4776829,11.9550824 C21.7891159,12.2119299 21.7818494,12.4907724 21.5231969,12.8221238 C21.2645444,13.1534751 21.0605832,13.1989122 20.7393144,13.2704611 C20.4180457,13.3420101 20.1772248,13.2287951 20.0250563,13.0599322 C19.8728878,12.8910693 19.8691821,12.5183007 20.128276,12.2585392 C20.38737,11.9987776 20.5191834,11.8799553 20.7988309,11.7979014 Z M20.1007786,9.94664513 C20.3977653,9.8595036 20.4909791,9.8407988 20.8217223,10.113572 C21.1524654,10.3863451 21.1447484,10.6824771 20.8700584,11.0343736 C20.5953683,11.3862701 20.3787606,11.4345244 20.0375719,11.5105098 C19.6963831,11.5864951 19.4406303,11.4662603 19.2790267,11.2869272 C19.1174231,11.107594 19.1134877,10.7117122 19.3886465,10.4358443 C19.6638054,10.1599765 19.8037918,10.0337867 20.1007786,9.94664513 Z M18.670343,8.56233178 C18.9297898,8.35704541 19.014683,8.30118206 19.4517047,8.43908649 C19.8887263,8.57699091 19.9996571,8.87357428 19.8683232,9.33232838 C19.7369894,9.79108248 19.541634,9.92564224 19.2339119,10.1375714 C18.9261897,10.3495006 18.6245706,10.3327473 18.3925973,10.2197224 C18.160624,10.1066975 17.9982021,9.715919 18.1604445,9.33232838 C18.3226868,8.94873776 18.4108962,8.76761814 18.670343,8.56233178 Z M13.7478343,6.53462446 C14.4351533,6.53462446 14.9923353,7.28556006 14.9923353,8.21188607 C14.9923353,9.13821208 14.4351533,9.88914768 13.7478343,9.88914768 C13.0605154,9.88914768 12.5033333,9.13821208 12.5033333,8.21188607 C12.5033333,7.28556006 13.0605154,6.53462446 13.7478343,6.53462446 Z M16.1501439,7.50975438 C16.6690148,7.00326415 17.4122537,7.01605228 17.7991364,7.37908524 C18.1860191,7.74211819 18.1648201,8.28137187 17.9003122,8.78654078 C17.6358042,9.29170969 17.1140818,9.71912677 16.4788126,9.58488656 C16.0552998,9.49539309 15.7912206,9.20248044 15.6865751,8.70614861 C15.6497071,8.24621261 15.80423,7.84741453 16.1501439,7.50975438 Z M3.20116915,7.92240644 C3.48081661,8.00446029 3.61263003,8.1232826 3.87172396,8.38304418 C4.13081789,8.64280576 4.12711219,9.01557434 3.97494372,9.18443726 C3.82277524,9.35330017 3.58195432,9.46651514 3.26068558,9.39496616 C2.93941684,9.32341718 2.73545557,9.27798015 2.47680307,8.9466288 C2.21815057,8.61527745 2.21088412,8.33643494 2.52231714,8.0795874 C2.83375016,7.82273986 2.92152168,7.84035259 3.20116915,7.92240644 Z M3.89922144,6.07115016 C4.19620823,6.1582917 4.33619463,6.28448148 4.61135347,6.56034937 C4.88651231,6.83621727 4.88257685,7.23209907 4.72097329,7.4114322 C4.55936973,7.59076533 4.30361689,7.7110001 3.96242814,7.63501478 C3.62123939,7.55902946 3.40463166,7.51077515 3.12994161,7.15887862 C2.85525157,6.80698209 2.84753457,6.51085016 3.17827775,6.238077 C3.50902093,5.96530383 3.60223465,5.98400863 3.89922144,6.07115016 Z M5.32965702,4.6868368 C5.58910379,4.89212317 5.67731317,5.07324279 5.83955552,5.45683341 C6.00179786,5.84042402 5.83937602,6.23120252 5.60740272,6.34422742 C5.37542941,6.45725233 5.07381027,6.47400563 4.76608815,6.26207645 C4.45836602,6.05014727 4.26301064,5.9155875 4.13167677,5.45683341 C4.00034291,4.99807931 4.11127365,4.70149594 4.54829531,4.56359151 C4.98531698,4.42568709 5.07021025,4.48155044 5.32965702,4.6868368 Z M10.2521657,2.65912948 C10.9394846,2.65912948 11.4966667,3.41006509 11.4966667,4.33639109 C11.4966667,5.2627171 10.9394846,6.0136527 10.2521657,6.0136527 C9.56484674,6.0136527 9.00766466,5.2627171 9.00766466,4.33639109 C9.00766466,3.41006509 9.56484674,2.65912948 10.2521657,2.65912948 Z M7.84985606,3.6342594 C8.19576999,3.97191956 8.35029294,4.37071764 8.31342488,4.83065364 C8.20877941,5.32698546 7.94470025,5.61989811 7.52118741,5.70939159 C6.88591816,5.8436318 6.36419581,5.41621472 6.09968785,4.9110458 C5.83517989,4.40587689 5.81398094,3.86662322 6.20086363,3.50359026 C6.58774633,3.14055731 7.33098516,3.12776917 7.84985606,3.6342594 Z" id="Combined-Shape" fill="#5AA9D2"></path>
    </g>
</svg>