<?xml version="1.0" encoding="UTF-8"?>
<svg width="24px" height="24px" viewBox="0 0 24 24" version="1.1" xmlns="http://www.w3.org/2000/svg" xmlns:xlink="http://www.w3.org/1999/xlink">
    <!-- Generator: Sketch 53.2 (72643) - https://sketchapp.com -->
    <title>icon / Rendering / Lightning Arc</title>
    <desc>Created with Sketch.</desc>
    <defs>
        <path d="M17.8127844,9.1874715 L16.6074913,7.66249848 L13.0826936,13.8269244 L12.6030974,7.26575016 L9.54892707,11.3043124 L8.3757757,7.33500382 L6.66643673,9.2476326 C7.66178202,9.99238548 8.04402771,11.3525045 7.51399097,12.5320274 C6.89908167,13.9004223 5.2900732,14.5080257 3.92461317,13.8859575 C2.56614057,13.2670725 1.96282769,11.6653252 2.57451504,10.3041002 C3.1346144,9.05767722 4.51949305,8.44246388 5.79383349,8.81280335 L8.85168322,1.48688629 L11.0541566,6.19651406 L13.5655787,2.87657703 L15.1365246,5.83942422 L17.9409586,2.56814845 L19.080613,8.88701771 C20.1015537,8.89887815 21.072183,9.49136859 21.5186786,10.4849824 C22.130366,11.8462073 21.5270531,13.4479546 20.1685805,14.0668396 C18.8031205,14.6889079 17.194112,14.0813044 16.5792027,12.7129095 C15.9852924,11.391245 16.5367871,9.84283525 17.8127844,9.1874715 Z M18.5749842,10.1518297 C18.5274378,10.1680084 18.4802298,10.1867084 18.433518,10.2079891 C17.6675714,10.5569346 17.3249569,11.4665486 17.6707178,12.2359914 C18.0138378,12.9995571 18.9047191,13.3359771 19.6643634,12.9899028 C20.43031,12.6409574 20.7729245,11.7313433 20.4271635,10.9619005 C20.2112401,10.481393 19.7783971,10.1700401 19.2978459,10.0914764 L19.5256719,11.3546684 L18.5749842,10.1518297 Z M5.86730221,10.1418073 L4.6886014,11.4606897 L5.33147257,9.92051564 C4.65903534,9.7847159 3.96063154,10.125424 3.66603015,10.7810183 C3.32026918,11.5504612 3.66288369,12.4600752 4.42883032,12.8090207 C5.18847455,13.1550949 6.07935587,12.818675 6.42247585,12.0551093 C6.73521726,11.3591469 6.48478254,10.5485071 5.86730221,10.1418073 Z M7.56603425,14.077307 L9.71078964,19.4944066 C9.57307966,19.7710133 9.43728362,19.9414133 9.30340151,20.0056067 C9.1695194,20.0698001 8.94936379,20.0700708 8.64293467,20.0064187 L5.55014813,15.0067325 C6.08092469,14.9791574 6.46896496,14.9088211 6.71426896,14.7957236 C6.95957296,14.682626 7.24349473,14.4431538 7.56603425,14.077307 Z M16.5271594,14.2581892 C16.849699,14.624036 17.1336207,14.8635082 17.3789247,14.9766057 C17.6242287,15.0897033 18.012269,15.1600396 18.5430455,15.1876146 L15.450259,20.1873009 C15.1438299,20.250953 14.9236743,20.2506823 14.7897922,20.1864889 C14.6559101,20.1222955 14.520114,19.9518954 14.382404,19.6752888 L16.5271594,14.2581892 Z" id="path-1"></path>
    </defs>
    <g id="icon-/-Rendering-/-Lightning-Arc" stroke="none" stroke-width="1" fill="none" fill-rule="evenodd">
        <mask id="mask-2" fill="white">
            <use xlink:href="#path-1"></use>
        </mask>
        <use id="Combined-Shape" fill="#B29EDF" fill-rule="nonzero" xlink:href="#path-1"></use>
    </g>
</svg>