<?xml version="1.0" encoding="UTF-8"?>
<svg width="24px" height="24px" viewBox="0 0 24 24" version="1.1" xmlns="http://www.w3.org/2000/svg" xmlns:xlink="http://www.w3.org/1999/xlink">
    <!-- Generator: Sketch 53.2 (72643) - https://sketchapp.com -->
    <title>icon / Animation / Mannequin Scope Context</title>
    <desc>Created with Sketch.</desc>
    <defs>
        <path d="M6.75900667,1.51990129 C8.44719499,1.52206521 11.5890363,3.42448133 14.4560601,6.2913387 L15.7800445,4.79806939 C15.6989809,4.50477538 15.7417598,4.03453953 16.0129153,3.70728866 C17.0131444,2.49998933 18.7426136,3.98826499 17.7457136,5.16210684 C17.4677335,5.4893577 17.0126451,5.65664515 16.5638819,5.54994738 L15.1974514,7.03273003 C18.184323,10.3055716 19.7095517,13.6098731 18.682024,14.648054 C18.0573177,15.2730932 16.1082941,15.6011763 13.8736335,15.2730932 L18.3855673,20.1555562 L18.3855673,21.6807849 L7.87891704,21.6807849 L7.87891704,19.9438252 L10.1981369,14.0656274 C6.50333153,12.035873 3.67858731,4.07382295 5.85582092,1.82168451 C6.06805126,1.61727757 6.37366295,1.5202342 6.75351365,1.51990129 L6.75900667,1.51990129 Z M13.7355269,7.02476925 C10.7323733,4.02161567 7.37336859,2.20385616 6.36590007,3.21147994 C5.40749304,4.16988696 7.06735527,7.41990061 10.0705089,10.4230542 C13.0834437,13.4362995 16.3238313,15.0960065 17.3316104,14.1278182 C18.2207724,13.2386562 16.9462603,10.4628002 14.4369821,7.72622445 L11.9864852,10.6315664 C11.959315,10.6602891 11.9181717,10.6733308 11.8689549,10.6733308 C11.5790884,10.6731756 11.0108445,10.2184252 11.3739927,9.82143071 L13.7355269,7.02476925 Z M13.4689748,15.8814868 C13.2500404,15.8449021 13.0764423,15.7718761 12.8939491,15.6622655 L11.9354295,19.9438252 L17.2119501,19.9438252 L13.4689748,15.8814868 Z" id="path-1"></path>
    </defs>
    <g id="icon-/-Animation-/-Mannequin-Scope-Context" stroke="none" stroke-width="1" fill="none" fill-rule="evenodd">
        <mask id="mask-2" fill="white">
            <use xlink:href="#path-1"></use>
        </mask>
        <use id="Shape" fill="#5AA9D2" xlink:href="#path-1"></use>
    </g>
</svg>