<?xml version="1.0" encoding="UTF-8"?>
<svg width="24px" height="24px" viewBox="0 0 24 24" version="1.1" xmlns="http://www.w3.org/2000/svg" xmlns:xlink="http://www.w3.org/1999/xlink">
    <!-- Generator: Sketch 53.2 (72643) - https://sketchapp.com -->
    <title>icon / Physics / Cry / Primitive Collider</title>
    <desc>Created with Sketch.</desc>
    <defs>
        <path d="M9.65554878,19.1239222 C7.64967372,19.8342889 0.028338098,22.4924729 2.88181932,20.8460145 C4.85153202,19.7094905 5.47995819,17.4175909 5.66804387,15.7717214 C5.63969057,15.5810973 5.625,15.3860142 5.625,15.1875 C5.625,14.8599104 5.6650051,14.5416645 5.74039641,14.2373812 C5.73528763,14.0073916 5.72403249,13.875 5.72403249,13.875 C5.72403249,13.875 5.72403249,14.0101877 5.74162779,14.2324252 C6.14962665,12.5948866 7.58277276,11.3628619 9.32007657,11.2573408 L8.11651311,10.9799818 C7.57518486,10.8552337 7.58630946,10.7862703 8.13737296,10.8256627 L9.47170141,10.9210462 C10.0245502,10.9605662 10.0817198,10.7636613 9.61068272,10.4878571 L7.40665447,9.19734214 C6.9305629,8.91857835 6.97719185,8.81246205 7.50253995,8.95803503 L9.62880685,9.54721962 C10.1578545,9.69381774 10.295843,9.47507998 9.93362129,9.05471921 L8.08777273,6.91259963 C7.72706943,6.49400104 7.79128622,6.43678385 8.21405433,6.7712337 L9.5636498,7.83889228 C9.9940965,8.17941662 10.3845393,8.01328646 10.4366166,7.45836245 L10.5007665,6.7747972 C10.552446,6.22411203 10.6836479,6.212626 10.7960661,6.76010976 L11.0082025,7.79322731 C11.4496582,6.14137691 12.9383536,4.91738123 14.7194512,4.87607785 C16.7253263,4.16571109 24.3466619,1.50752705 21.4931807,3.15398545 C19.523468,4.2905095 18.8950418,6.58240913 18.7069561,8.22827861 C18.7353094,8.41890269 18.75,8.61398576 18.75,8.8125 C18.75,9.14008959 18.7099949,9.45833549 18.6346036,9.7626188 C18.6397124,9.9926084 18.6509675,10.125 18.6509675,10.125 C18.6509675,10.125 18.6509675,9.98981233 18.6333722,9.76757482 C18.2237708,11.4115452 16.7809534,12.64681 15.0344384,12.7438504 C15.5445027,12.9591652 16.251796,13.231244 16.6995953,13.3834839 L19.1515861,14.2170958 C19.6707118,14.3935848 19.6599594,14.439346 19.1220699,14.3180662 L16.8810486,13.8127756 C16.3456215,13.6920511 16.261913,13.8671357 16.703851,14.2114504 L19.228409,16.178338 C19.6659725,16.5192445 19.6323914,16.5871001 19.1443312,16.325026 L15.7309551,14.492143 C15.2469567,14.23225 15.141447,14.3558788 15.5032924,14.7775992 L17.5703239,17.1866652 C17.9285877,17.6042113 17.8696303,17.6698117 17.4359338,17.3310748 L14.732646,15.2196831 C14.3001606,14.8818922 14.0920307,15.0363333 14.2650707,15.5565084 L14.8349015,17.2694748 C15.0091522,17.7932892 15.0522992,17.7950859 14.8061661,17.3033567 C14.8061661,17.3033567 15.3467495,17.9215815 13.7765035,15.7242439 C13.6763276,15.5840618 13.5835588,15.4509384 13.4976598,15.3245437 C13.4265041,17.4048599 11.7415722,19.0755476 9.65554878,19.1239222 Z M9.5625,17.9615828 C11.0945836,17.9615828 12.3365828,16.7195836 12.3365828,15.1875 C12.3365828,13.6554164 11.0945836,12.4134172 9.5625,12.4134172 C8.03041637,12.4134172 6.78841719,13.6554164 6.78841719,15.1875 C6.78841719,16.7195836 8.03041637,17.9615828 9.5625,17.9615828 Z M14.8125,11.625 C16.3658009,11.625 17.625,10.3658009 17.625,8.8125 C17.625,7.25919914 16.3658009,6 14.8125,6 C13.2591991,6 12,7.25919914 12,8.8125 C12,10.3658009 13.2591991,11.625 14.8125,11.625 Z" id="path-1"></path>
    </defs>
    <g id="icon-/-Physics-/-Cry-/-Primitive-Collider" stroke="none" stroke-width="1" fill="none" fill-rule="evenodd">
        <mask id="mask-2" fill="white">
            <use xlink:href="#path-1"></use>
        </mask>
        <use id="Combined-Shape" fill="#DD7F6D" xlink:href="#path-1"></use>
    </g>
</svg>