<?xml version="1.0" encoding="UTF-8"?>
<svg width="24px" height="24px" viewBox="0 0 24 24" version="1.1" xmlns="http://www.w3.org/2000/svg" xmlns:xlink="http://www.w3.org/1999/xlink">
    <!-- Generator: Sketch 53.2 (72643) - https://sketchapp.com -->
    <title>icon / Rendering / High Quality Shadow</title>
    <desc>Created with Sketch.</desc>
    <defs>
        <path d="M12.0172841,3.17763841 C12.0084453,4.01699637 12.0222844,6.23179768 12.0588015,12.0759608 C12.0243002,17.5975209 12.0302856,19.8793481 12.0292472,20.8223307 C16.8882615,20.8065621 20.8223782,16.8627121 20.8223782,12 C20.8223782,7.13329775 16.8818025,3.18696625 12.0172841,3.17763841 Z M12,21.9986952 C6.4778731,21.9986952 2.00130475,17.5221269 2.00130475,12 C2.00130475,6.4778731 6.4778731,2.00130475 12,2.00130475 C17.5221269,2.00130475 21.9986952,6.4778731 21.9986952,12 C21.9986952,17.5221269 17.5221269,21.9986952 12,21.9986952 Z M9.07827583,15.2091715 L10.5782758,15.2091715 L10.5782758,8.27917154 L9.07827583,8.27917154 L9.07827583,11.0991715 L6.31827583,11.0991715 L6.31827583,8.27917154 L4.81827583,8.27917154 L4.81827583,15.2091715 L6.31827583,15.2091715 L6.31827583,12.2591715 L9.07827583,12.2591715 L9.07827583,15.2091715 Z M18.8809446,16.9194716 C18.2809416,16.8528046 16.6485177,15.972507 16.1818487,15.5391715 C15.1685103,15.5125047 14.3735183,15.1775081 13.7968487,14.5341715 C13.2201792,13.890835 12.9318487,13.0158437 12.9318487,11.9091715 C12.9318487,11.1758345 13.0635141,10.5358409 13.3268487,9.98917154 C13.5901834,9.44250214 13.9768462,9.02083969 14.4868487,8.72417154 C14.9968513,8.42750339 15.6051785,8.27917154 16.3118487,8.27917154 C16.9985188,8.27917154 17.5951795,8.42250344 18.1018487,8.70917154 C18.6085179,8.99583964 19.0001807,9.41083549 19.2768487,9.95417154 C19.5535168,10.4975076 19.6918487,11.1491677 19.6918487,11.9091715 C19.6918487,12.7958426 19.5035173,13.5391685 19.1268487,14.1391715 C18.7501802,14.7391745 18.2151855,15.1491704 17.5218487,15.3691715 C17.8018501,15.5225056 18.6935132,15.7177822 19.1268487,15.7511157 L18.8809446,16.9194716 Z M17.6818487,13.7091715 C17.9951836,13.2958361 18.1518487,12.6958421 18.1518487,11.9091715 C18.1518487,11.1225009 17.9951836,10.5241736 17.6818487,10.1141715 C17.3685138,9.70416949 16.9118517,9.49917154 16.3118487,9.49917154 C15.7118457,9.49917154 15.2551836,9.70416949 14.9418487,10.1141715 C14.6285138,10.5241736 14.4718487,11.1225009 14.4718487,11.9091715 C14.4718487,12.6958421 14.6285138,13.2958361 14.9418487,13.7091715 C15.2551836,14.1225069 15.7118457,14.3291715 16.3118487,14.3291715 C16.9118517,14.3291715 17.3685138,14.1225069 17.6818487,13.7091715 Z" id="path-1"></path>
    </defs>
    <g id="icon-/-Rendering-/-High-Quality-Shadow" stroke="none" stroke-width="1" fill="none" fill-rule="evenodd">
        <mask id="mask-2" fill="white">
            <use xlink:href="#path-1"></use>
        </mask>
        <use id="Combined-Shape" fill="#B29EDF" fill-rule="nonzero" xlink:href="#path-1"></use>
    </g>
</svg>