<?xml version="1.0" encoding="UTF-8"?>
<svg width="24px" height="24px" viewBox="0 0 24 24" version="1.1" xmlns="http://www.w3.org/2000/svg" xmlns:xlink="http://www.w3.org/1999/xlink">
    <!-- Generator: Sketch 53.2 (72643) - https://sketchapp.com -->
    <title>icon / Animation / Simple Motion</title>
    <desc>Created with Sketch.</desc>
    <defs>
        <path d="M17.2954552,6.74923068 C15.9788077,6.74923068 14.9114541,5.68187705 14.9114541,4.36522962 C14.9114541,3.0485822 15.9788077,1.98122857 17.2954552,1.98122857 C18.6121026,1.98122857 19.6794562,3.0485822 19.6794562,4.36522962 C19.6794562,5.68187705 18.6121026,6.74923068 17.2954552,6.74923068 Z M15.4808614,9.04807387 L12.3391098,12.0739477 L14.3893838,14.0486011 C14.5448594,14.1983422 14.6472624,14.3798422 14.696593,14.5714188 C14.8869161,14.8800004 14.920704,15.2708981 14.7513289,15.6207274 L12.7797466,19.6928545 C12.5075279,20.2550979 11.813608,20.4983486 11.2298331,20.2361702 C10.6460582,19.9739918 10.3934921,19.3056659 10.6657108,18.7434224 L12.3510365,15.2625325 L9.80355327,12.8090085 L8.27494309,14.2812387 C7.85567662,14.6850413 7.19661457,14.7171336 6.73923244,14.3775157 L2.50824402,12.8132943 C1.90690217,12.5909746 1.60654581,11.941245 1.83737932,11.3620825 C2.06821283,10.7829201 2.74282426,10.4936418 3.34416611,10.7159614 L7.19846223,12.1409175 L8.91941376,10.4834401 C8.95188508,10.3075808 9.03866369,10.1392008 9.17974961,10.0033186 L12.3741477,6.92674007 L10.6213379,6.92674007 L8.59009811,8.64571972 C8.27724547,8.91047789 7.77001113,8.91047789 7.45715849,8.64571972 C7.14430585,8.38096156 7.14430585,7.95170375 7.45715849,7.68694558 L9.72303773,5.7693973 C9.88638986,5.63115711 10.1027358,5.56509732 10.3167355,5.57121793 C10.3255286,5.57095912 10.3343589,5.57082868 10.3432241,5.57082868 L13.956672,5.57082868 C14.0105671,5.57082868 14.0631761,5.57564977 14.1139672,5.58482626 C14.3683643,5.57359664 14.6266009,5.66153144 14.8208653,5.84863067 L16.1481866,7.12699619 C16.299797,7.27301472 16.3886956,7.45656021 16.4148826,7.64658755 L17.5155166,8.70662669 L19.3383723,7.14607292 C19.6799708,6.85362912 20.2338114,6.85362912 20.5754099,7.14607292 C20.9170084,7.43851671 20.9170084,7.91266179 20.5754099,8.20510559 L18.1013346,10.3231709 C18.0787602,10.342497 18.0552588,10.3605459 18.0309531,10.3773177 C17.700751,10.6837563 17.197188,10.701097 16.8985754,10.4134981 L15.4808614,9.04807387 Z" id="path-1"></path>
    </defs>
    <g id="icon-/-Animation-/-Simple-Motion" stroke="none" stroke-width="1" fill="none" fill-rule="evenodd">
        <mask id="mask-2" fill="white">
            <use xlink:href="#path-1"></use>
        </mask>
        <use id="Rectangle" fill="#5AA9D2" xlink:href="#path-1"></use>
    </g>
</svg>