<?xml version="1.0" encoding="UTF-8"?>
<svg width="24px" height="24px" viewBox="0 0 24 24" version="1.1" xmlns="http://www.w3.org/2000/svg" xmlns:xlink="http://www.w3.org/1999/xlink">
    <!-- Generator: Sketch 53.2 (72643) - https://sketchapp.com -->
    <title>icon / Scripting / Trigger Area</title>
    <desc>Created with Sketch.</desc>
    <defs>
        <path d="M3.73423364,12.8853413 L1.66329777,12.8853413 L1.66329777,12.0691394 L3.73998761,12.0691394 C3.9710609,7.837415 7.31214489,4.44365356 11.4947441,4.16867762 L11.4947441,1.58850333 L12.2982805,1.58850333 L12.2982805,4.15453705 C16.6176284,4.28546647 20.1111929,7.73850685 20.3476671,12.0691394 L22.6465313,12.0691394 L22.6465313,12.8853413 L20.353421,12.8853413 C20.1761469,17.2725496 16.6578263,20.7889304 12.2982805,20.9210783 L12.2982805,22.5717369 L11.4947441,22.5717369 L11.4947441,20.9069378 C7.27230986,20.629343 3.90749635,17.1732732 3.73423364,12.8853413 Z M5.34302762,12.8853413 C5.51343126,16.2693872 8.15830452,18.9982389 11.4947441,19.2702379 L11.4947441,17.1252259 C9.33708212,16.8651315 7.63902699,15.0915649 7.47642811,12.8853413 L5.34302762,12.8853413 L5.34302762,12.8853413 Z M5.35020047,12.0691394 L7.48693616,12.0691394 C7.70156575,9.91940329 9.37671655,8.20570616 11.4947441,7.95038949 L11.4947441,5.80537744 C8.19820814,6.07412343 5.57679523,8.74130578 5.35020047,12.0691394 L5.35020047,12.0691394 Z M18.7374542,12.0691394 C18.5041484,8.64274613 15.7320704,5.91671632 12.2982805,5.78785581 L12.2982805,7.92453353 C14.5539331,8.04916244 16.3762282,9.82063841 16.6007185,12.0691394 L18.7374542,12.0691394 L18.7374542,12.0691394 Z M18.7446271,12.8853413 L16.6112266,12.8853413 C16.4412947,15.1910631 14.5942889,17.0242232 12.2982805,17.1510819 L12.2982805,19.2877596 C15.7724384,19.1573842 18.5692347,16.3684153 18.7446271,12.8853413 L18.7446271,12.8853413 Z M8.68643644,12.8853413 C8.84087873,14.4137169 10.0028269,15.6434988 11.4947441,15.8890824 L11.4947441,12.8853413 L8.68643644,12.8853413 L8.68643644,12.8853413 Z M8.70086169,12.0691394 L11.4947441,12.0691394 L11.4947441,9.18653299 C10.0424517,9.42559397 8.90283342,10.5972676 8.70086169,12.0691394 Z M15.386793,12.0691394 C15.171348,10.499081 13.8889856,9.27060838 12.2982805,9.15132893 L12.2982805,12.0691394 L15.386793,12.0691394 L15.386793,12.0691394 Z M15.4012182,12.8853413 L12.2982805,12.8853413 L12.2982805,15.9242865 C13.9296727,15.8019561 15.2367469,14.5129648 15.4012182,12.8853413 L15.4012182,12.8853413 Z" id="path-1"></path>
    </defs>
    <g id="icon-/-Scripting-/-Trigger-Area" stroke="none" stroke-width="1" fill="none" fill-rule="evenodd">
        <mask id="mask-2" fill="white">
            <use xlink:href="#path-1"></use>
        </mask>
        <use id="Shape" fill="#D8D872" fill-rule="nonzero" xlink:href="#path-1"></use>
    </g>
</svg>