<?xml version="1.0" encoding="UTF-8"?>
<svg width="24px" height="24px" viewBox="0 0 24 24" version="1.1" xmlns="http://www.w3.org/2000/svg" xmlns:xlink="http://www.w3.org/1999/xlink">
    <!-- Generator: Sketch 58 (84663) - https://sketch.com -->
    <title>icon / Environmental / Water Ripple  Generator</title>
    <desc>Created with Sketch.</desc>
    <g id="icon-/-Environmental-/-Water-Ripple--Generator" stroke="none" stroke-width="1" fill="none" fill-rule="evenodd">
        <path d="M18.4452788,12.2224136 C18.4452788,13.6628882 15.5126602,14.8306236 11.895092,14.8306236 C8.27752366,14.8306236 5.34490512,13.6628882 5.34490512,12.2224136 C5.34490512,11.5278621 6.02669933,10.8967187 7.13832931,10.4293106 L7.14027025,10.5471075 C6.69916938,10.809087 6.44778637,11.1109973 6.44778637,11.4323835 C6.44778637,12.4365365 8.90182512,13.2505634 11.9290353,13.2505634 C14.9562455,13.2505634 17.4102843,12.4365365 17.4102843,11.4323835 C17.4102843,11.073721 17.0972055,10.7393142 16.5567551,10.4575929 L16.5574211,10.3905037 C17.7247548,10.8614111 18.4452788,11.5084073 18.4452788,12.2224136 Z" id="Combined-Shape" fill="#8BDD15"></path>
        <path d="M4.41600448,13.3089469 L4.41605613,13.3227181 C4.41602171,13.3263987 4.41600448,13.3300809 4.41600448,13.3337647 C4.41600448,13.3918749 4.42029119,13.4495956 4.42874831,13.5068816 C4.44692462,13.6435109 4.48468312,13.7642831 4.54077853,13.8712247 C5.18973316,15.2559013 8.30814737,16.3061674 12.0571616,16.3061674 C15.8061758,16.3061674 18.92459,15.2559013 19.5740784,13.870476 C19.6334515,13.7570169 19.672445,13.627035 19.6890915,13.4793426 C19.6953141,13.4307925 19.6983187,13.3824151 19.6983187,13.3337647 L19.6982579,13.3232791 C19.6982984,13.318518 19.6983187,13.3137406 19.6983187,13.3089469 C19.6983187,13.0300874 19.6296892,12.7587062 19.4998804,12.4982791 C20.0840085,13.0250953 20.4121563,13.6201438 20.4121563,14.2501869 C20.4121563,16.3979256 16.5989367,18.1390118 11.895092,18.1390118 C7.19124722,18.1390118 3.37802763,16.3979256 3.37802763,14.2501869 C3.37802763,13.4116689 3.95926525,12.6351357 4.94781574,12 C4.60416478,12.4059771 4.41600448,12.8472105 4.41600448,13.3089469 Z" id="Combined-Shape-Copy" fill="#8BDD15"></path>
        <path d="M22.4568015,16.8008276 C22.4568015,19.5147626 17.775132,21.7148416 12,21.7148416 C6.22486798,21.7148416 1.54319846,19.5147626 1.54319846,16.8008276 C1.54319846,16.0636347 1.88863173,15.3643563 2.50758275,14.7367879 C2.4314318,15.0782739 2.46254193,15.4398982 2.61845239,15.8207055 L2.61859104,15.7847084 C2.61859104,17.9374562 6.8187909,19.6826031 12,19.6826031 C17.1812091,19.6826031 21.381409,17.9374562 21.381409,15.7847084 C21.381409,15.7313121 21.3788249,15.6781666 21.3737059,15.6252923 C21.4633515,15.2531352 21.4372419,14.8984191 21.3123542,14.5641957 C22.0441603,15.2346742 22.4568015,15.9951054 22.4568015,16.8008276 Z" id="Combined-Shape-Copy-2" fill="#8BDD15"></path>
        <path d="M11.895092,1.6686065 C14.7480275,1.6686065 17.0607887,3.98136772 17.0607887,6.83430325 C17.0607887,9.68723879 14.7480275,12 11.895092,12 C9.04215641,12 6.7293952,9.68723879 6.7293952,6.83430325 C6.7293952,3.98136772 9.04215641,1.6686065 11.895092,1.6686065 Z M13.9823223,3.30045214 L11.5899052,3.30045214 L9.37498697,7.67728976 L11.4025383,7.67728976 L10.2208967,10.8882942 L14.4151969,6.30268548 L12.2543713,6.29471848 L13.9823223,3.30045214 Z" id="Oval-2" fill="#8BDD15"></path>
    </g>
</svg>