<svg width="80" height="80" viewBox="0 0 80 80" fill="none" xmlns="http://www.w3.org/2000/svg">
<path fill-rule="evenodd" clip-rule="evenodd" d="M13.3333 6.66663H44.9999V28.3333H66.6666V73.3333H13.3333V6.66663ZM38.6519 40.7024V43.2733C38.6519 44.0805 39.2212 44.6485 39.9702 44.6485C40.7192 44.6485 41.2885 44.1106 41.2885 43.2733V38.0419C41.2885 37.2347 40.7192 36.6666 39.9702 36.6666C39.1913 36.6666 38.6519 37.2046 38.6519 38.0118C38.6318 38.6332 38.6387 39.2412 38.6453 39.8356C38.6486 40.1277 38.6519 40.4168 38.6519 40.7024ZM33.1991 51.3142H30.6225C30.3418 51.3142 30.0611 51.3175 29.7815 51.3208C29.2256 51.3275 28.674 51.334 28.1358 51.3142C27.237 51.2841 26.6677 50.776 26.6677 49.9988C26.6378 49.1916 27.2071 48.6536 28.0758 48.6536H33.2588C34.0678 48.6837 34.6371 49.2216 34.6371 49.969C34.6371 50.7461 34.0678 51.3142 33.1991 51.3142ZM49.3176 48.6838H46.741C45.8723 48.6838 45.303 49.2518 45.3329 50.029C45.3628 50.7763 45.9022 51.3143 46.741 51.3143H51.924C52.7928 51.3143 53.3621 50.7463 53.3322 49.9691C53.3023 49.2218 52.7629 48.6838 51.924 48.6838C51.3215 48.6638 50.7324 48.6706 50.1567 48.6773C49.8738 48.6805 49.594 48.6838 49.3176 48.6838ZM36.1351 55.7087L34.3051 57.5347C33.7067 58.1317 33.1084 58.7286 32.5098 59.2961C31.8808 59.9238 31.1318 59.9536 30.5626 59.4156C29.9933 58.8776 30.0234 58.1005 30.6225 57.4726C31.8208 56.2469 33.0492 55.0212 34.2776 53.8255C34.8768 53.2575 35.6559 53.2277 36.1951 53.7657C36.7644 54.3037 36.7343 55.0808 36.1351 55.7087ZM45.6325 42.466L43.805 44.2896C43.2058 44.9174 43.2058 45.6946 43.7751 46.2326C44.3143 46.7705 45.0934 46.7407 45.6925 46.1429C46.9209 44.9472 48.1493 43.7215 49.3476 42.4958C49.9468 41.8679 49.9468 41.0908 49.3775 40.5528C48.8384 40.0148 48.0592 40.0446 47.4601 40.6425C47.0394 41.0423 46.6322 41.4553 46.2295 41.8638C46.0298 42.0664 45.8312 42.2678 45.6325 42.466ZM45.6025 53.8258L47.43 55.6494C48.0591 56.2472 48.6582 56.845 49.2576 57.4729C49.8567 58.0707 49.8567 58.8181 49.3475 59.3861C48.8083 59.9541 48.0294 59.9541 47.4002 59.3563C46.1717 58.1606 44.9433 56.9349 43.745 55.7092C43.1459 55.1114 43.116 54.334 43.6552 53.796C44.1943 53.228 44.9732 53.228 45.6025 53.8258ZM32.4501 40.6422C31.8209 40.0444 31.042 40.0444 30.5028 40.6124C29.9637 41.1504 29.9935 41.9278 30.5927 42.5256C31.791 43.7513 33.0194 44.9771 34.2478 46.1727C34.8771 46.7705 35.6559 46.7705 36.1951 46.2025C36.7343 45.6645 36.7044 44.8871 36.1052 44.2893L32.4501 40.6422ZM41.2883 56.7551V59.326C41.2883 59.7387 41.2955 60.1587 41.3029 60.586C41.3105 61.0252 41.3183 61.4722 41.3184 61.9267C41.2883 62.7937 40.7491 63.3615 39.9401 63.3317C39.1911 63.3019 38.6519 62.7637 38.6519 61.9267V56.7551C38.6519 55.9181 39.1911 55.3799 39.9401 55.35C40.719 55.3202 41.2883 55.8882 41.2883 56.7551Z" fill="white"/>
<path d="M66.6666 23.3333L49.9999 6.66663V23.3333H66.6666Z" fill="white"/>
</svg>
