<svg width="80" height="80" viewBox="0 0 80 80" fill="none" xmlns="http://www.w3.org/2000/svg">
<path fill-rule="evenodd" clip-rule="evenodd" d="M13.3333 10C11.4923 10 9.99994 11.4924 9.99994 13.3333V50C9.99994 51.8409 11.4923 53.3333 13.3333 53.3333H66.6666C68.5076 53.3333 69.9999 51.841 69.9999 50V13.3333C69.9999 11.4924 68.5076 10 66.6666 10H13.3333ZM20.1078 56.6667H60.0015C61.1983 56.6667 61.9807 57.1506 62.5767 58.1677L69.8917 67.4738C70.1761 67.9673 69.9787 69.2856 68.3409 69.8205C66.7031 70.3554 65.0851 69.5704 64.8063 69.0867L58.0838 61.2712H21.8274L15.5635 68.6451C14.9947 69.4578 13.1608 70.3595 11.5259 69.8205C9.89092 69.2815 9.74429 68.2494 10.2748 67.4738L17.7167 57.8862C18.0901 57.151 18.9388 56.6667 20.1078 56.6667ZM25.189 65C24.3396 65 23.3333 65.7125 23.3333 67.5C23.3333 69.2875 24.3229 70 25.189 70H54.8087C55.658 70 56.6666 69.1388 56.6666 67.5C56.6666 65.8612 55.6747 65 54.8087 65H25.189ZM40 15C30.7576 15 23.3333 22.4242 23.3333 31.6668C23.3333 40.9091 30.7576 48.3333 40 48.3333C49.2425 48.3333 56.6667 40.9091 56.6667 31.6668C56.6667 22.4242 49.2425 15 40 15ZM40 34.697V28.6364H35.6061C35.4545 29.5454 35.4545 30.6061 35.4545 31.6668C35.4545 32.7273 35.4545 33.7879 35.6061 34.697H40ZM40 45.303C40 45.303 37.2222 45.303 35.9091 37.7273H40V45.303ZM40 18.0303C40 18.0303 37.2222 18.0303 35.9091 25.6062H40V18.0303ZM35 18.9394C34.0908 20.7576 33.3333 23.1819 32.8788 25.6062H27.7273C29.2425 22.5758 31.8182 20.3031 35 18.9394ZM32.4242 28.6364H26.6666C26.5151 29.5454 26.3636 30.6061 26.3636 31.6668C26.3636 32.7273 26.5151 33.7879 26.6666 34.697H32.5757C32.4242 33.6364 32.4242 32.7273 32.4242 31.6668V28.6364ZM27.7273 37.7273H32.8788C33.3333 40.1515 33.9394 42.5758 34.8485 44.3939C31.8182 43.0303 29.2425 40.7576 27.7273 37.7273Z" fill="white"/>
</svg>
