<svg width="80" height="80" viewBox="0 0 80 80" fill="none" xmlns="http://www.w3.org/2000/svg">
<path fill-rule="evenodd" clip-rule="evenodd" d="M10 40.0002C10 23.3636 23.3638 10 40.0002 10C56.6367 10 70.0002 23.3636 70.0002 40.0002C70.0002 56.6365 56.6367 70 40.0002 70C23.3638 70 10 56.6365 10 40.0002ZM40.0002 34.5454V45.4546H32.091C31.8183 43.8182 31.8183 41.9091 31.8183 40.0002C31.8183 38.0909 31.8183 36.1818 32.091 34.5454H40.0002ZM32.6365 50.9091C35 64.5454 40.0002 64.5454 40.0002 64.5454V50.9091H32.6365ZM32.6365 29.0911C35 15.4546 40.0002 15.4546 40.0002 15.4546V29.0911H32.6365ZM27.182 29.0911C28 24.7273 29.3636 20.3636 31.0002 17.0909C25.2729 19.5455 20.6366 23.6365 17.9092 29.0911H27.182ZM16.0001 34.5454H26.3637V40.0002C26.3637 41.9091 26.3637 43.5455 26.6364 45.4546H16.0001C15.7273 43.8182 15.4546 41.9091 15.4546 40.0002C15.4546 38.0909 15.7273 36.1818 16.0001 34.5454ZM27.182 50.9091H17.9092C20.6366 56.3637 25.2729 60.4545 30.7274 62.9091C29.0911 59.6364 28 55.2727 27.182 50.9091Z" fill="white"/>
</svg>
