<svg width="80" height="80" viewBox="0 0 80 80" fill="none" xmlns="http://www.w3.org/2000/svg">
<path fill-rule="evenodd" clip-rule="evenodd" d="M9.99997 40.0002C9.99997 23.3636 23.3637 10 40.0002 10C56.6366 10 70.0002 23.3636 70.0002 40.0002C70.0002 56.6365 56.6366 70 40.0002 70C23.3637 70 9.99997 56.6365 9.99997 40.0002ZM40.0002 34.5454V45.4546H32.091C31.8182 43.8182 31.8182 41.9091 31.8182 40.0002C31.8182 38.0909 31.8182 36.1818 32.091 34.5454H40.0002ZM32.6365 50.9091C35 64.5454 40.0002 64.5454 40.0002 64.5454V50.9091H32.6365ZM32.6365 29.0911C35 15.4546 40.0002 15.4546 40.0002 15.4546V29.0911H32.6365ZM27.1819 29.0911C28 24.7273 29.3636 20.3636 31.0002 17.0909C25.2728 19.5455 20.6365 23.6365 17.9092 29.0911H27.1819ZM16.0001 34.5454H26.3637V40.0002C26.3637 41.9091 26.3637 43.5455 26.6364 45.4546H16.0001C15.7273 43.8182 15.4545 41.9091 15.4545 40.0002C15.4545 38.0909 15.7273 36.1818 16.0001 34.5454ZM27.1819 50.9091H17.9092C20.6365 56.3637 25.2728 60.4545 30.7274 62.9091C29.091 59.6364 28 55.2727 27.1819 50.9091Z" fill="white"/>
</svg>
