<svg width="80" height="80" viewBox="0 0 80 80" fill="none" xmlns="http://www.w3.org/2000/svg">
<path d="M68.2345 51.1669C67.4926 48.9098 65.9826 46.4753 63.7464 43.8944C62.5973 44.9268 61.4157 45.9372 60.2012 46.926C61.3863 48.254 62.4019 49.7189 63.2256 51.2884C62.2734 51.7649 61.474 52.4906 60.9154 53.3857C60.3572 54.2807 60.0615 55.3097 60.0615 56.3593C60.0615 56.4554 60.0669 56.5569 60.0717 56.653C57.4073 56.83 53.8213 56.2737 49.8481 55.069C48.4414 54.639 46.9625 54.1228 45.437 53.5204C45.8232 53.308 46.2046 53.0951 46.5758 52.8827C51.3625 50.208 55.835 47.0234 59.9126 43.3882C67.4772 36.5052 70.394 30.1238 67.9 25.8778C65.8957 22.4769 60.9175 21.3179 53.8268 22.5932C54.1668 24.0862 54.4658 25.5942 54.7386 27.1226C59.4225 26.2926 62.9525 26.6925 63.8288 28.1855C64.8492 29.9164 62.7313 34.5371 56.7177 40.0079C55.6353 40.9896 54.4435 41.9832 53.1414 42.9888C53.1516 42.5487 53.1516 42.1181 53.1516 41.6981C53.1852 36.29 52.6129 30.8946 51.4458 25.6096C50.1267 19.9158 48.1686 15.5486 45.7672 12.9268C45.7915 12.7407 45.8037 12.5527 45.8032 12.3652C45.8032 10.3292 44.6975 8.44772 42.902 7.43013C41.1067 6.41212 38.8952 6.41212 37.0998 7.43013C35.3044 8.44767 34.1986 10.3292 34.1986 12.3652C34.1986 12.5523 34.2088 12.7446 34.2293 12.9474C32.6009 14.7237 31.1888 17.2697 30.0241 20.5183C31.5185 20.9436 33.0183 21.4091 34.5122 21.9152C35.0889 20.2365 35.8731 18.6334 36.8474 17.1423C37.785 17.7436 38.8811 18.0637 40.0008 18.0637C41.1206 18.0637 42.2167 17.7436 43.1543 17.1423C44.6384 19.3185 45.9419 22.6485 46.8645 26.6316C47.1943 28.0437 47.4778 29.5617 47.7096 31.1609C47.3282 30.9384 46.9468 30.7208 46.5762 30.5079C32.7149 22.6484 16.4208 18.5343 12.1025 25.8775C10.0772 29.3344 11.6076 34.2178 16.4158 39.6784C17.5492 38.6259 18.7158 37.5969 19.9146 36.5913C16.3281 32.4968 15.4368 29.4351 16.1684 28.1851C17.5186 25.8926 24.6916 25.9634 34.5798 29.8604C34.1882 30.0781 33.7966 30.2957 33.4206 30.5082C22.2436 36.8444 13.792 44.9165 11.7208 51.1819C10.2318 51.8502 9.10021 53.106 8.60491 54.6383C8.11002 56.1711 8.29706 57.8378 9.12075 59.2275C9.94443 60.6168 11.3278 61.5998 12.9289 61.9338C14.5305 62.2677 16.2011 61.9209 17.528 60.9799C19.8778 61.4707 22.7891 61.4052 26.1336 60.8029C25.7834 59.3099 25.4639 57.8067 25.1857 56.2783C23.4556 56.6103 21.6908 56.7361 19.9295 56.6529C19.9349 56.5568 19.9349 56.4553 19.9349 56.3592C19.9373 55.3019 19.6392 54.2652 19.0737 53.3655C18.5082 52.4661 17.6982 51.7395 16.7346 51.2677C18.3216 48.0893 22.0011 44.1368 26.855 40.3867C26.8496 40.8321 26.8448 41.2674 26.8448 41.6975C26.8141 47.1038 27.3859 52.4972 28.5506 57.7812C30.8386 67.6651 35.0124 73.3333 40.0008 73.3333C44.0353 73.3333 47.5654 69.6234 49.9668 62.8671C48.4778 62.4318 46.9935 61.9563 45.5045 61.4401C43.6954 66.4608 41.4592 68.7179 40.0008 68.7179C37.9652 68.7179 34.9506 64.6085 33.1317 56.7592C32.8068 55.347 32.5238 53.829 32.292 52.2298C32.6734 52.4523 33.0494 52.6752 33.4254 52.8828C38.1766 55.6145 43.219 57.8237 48.4626 59.4717C54.1363 61.2025 58.923 61.7288 62.4785 60.9848C63.8093 61.9267 65.4843 62.2712 67.0884 61.932C68.6919 61.5933 70.0748 60.603 70.8932 59.2066C71.712 57.8102 71.8898 56.1387 71.3832 54.6065C70.8761 53.0742 69.7323 51.8242 68.2345 51.1669ZM38.5891 50.4842L35.7703 48.8894L32.9559 47.2915C32.0825 46.7959 31.5453 45.8803 31.5453 44.8896V38.5017C31.5453 37.5109 32.0836 36.5948 32.9574 36.0992L38.5838 32.9083C39.4577 32.4127 40.5347 32.4127 41.4084 32.9078L47.0407 36.1001C47.9141 36.5952 48.4528 37.5099 48.4538 38.5002L48.4572 41.6977L48.4538 44.8904C48.4528 45.8802 47.9146 46.7954 47.0417 47.2905L41.4123 50.4828C40.5389 50.9784 39.4629 50.9789 38.5891 50.4842Z" fill="white"/>
</svg>
